<svg xmlns="http://www.w3.org/2000/svg" xmlns:xlink="http://www.w3.org/1999/xlink" width="600" height="400" viewBox="0 0 2400 1600">
<defs>
  <clipPath id="clip840">
    <rect x="0" y="0" width="2400" height="1600"></rect>
  </clipPath>
</defs>
<path clip-path="url(#clip840)" d="M0 1600 L2400 1600 L2400 0 L0 0  Z" fill="#ffffff" fill-rule="evenodd" fill-opacity="1"></path>
<defs>
  <clipPath id="clip841">
    <rect x="480" y="0" width="1681" height="1600"></rect>
  </clipPath>
</defs>
<path clip-path="url(#clip840)" d="M193.936 1486.45 L2352.76 1486.45 L2352.76 123.472 L193.936 123.472  Z" fill="#ffffff" fill-rule="evenodd" fill-opacity="1"></path>
<defs>
  <clipPath id="clip842">
    <rect x="193" y="123" width="2160" height="1364"></rect>
  </clipPath>
</defs>
<polyline clip-path="url(#clip842)" style="stroke:#000000; stroke-linecap:round; stroke-linejoin:round; stroke-width:2; stroke-opacity:0.1; fill:none" points="255.035,1486.45 255.035,123.472 "></polyline>
<polyline clip-path="url(#clip842)" style="stroke:#000000; stroke-linecap:round; stroke-linejoin:round; stroke-width:2; stroke-opacity:0.1; fill:none" points="933.909,1486.45 933.909,123.472 "></polyline>
<polyline clip-path="url(#clip842)" style="stroke:#000000; stroke-linecap:round; stroke-linejoin:round; stroke-width:2; stroke-opacity:0.1; fill:none" points="1612.78,1486.45 1612.78,123.472 "></polyline>
<polyline clip-path="url(#clip842)" style="stroke:#000000; stroke-linecap:round; stroke-linejoin:round; stroke-width:2; stroke-opacity:0.1; fill:none" points="2291.66,1486.45 2291.66,123.472 "></polyline>
<polyline clip-path="url(#clip840)" style="stroke:#000000; stroke-linecap:round; stroke-linejoin:round; stroke-width:4; stroke-opacity:1; fill:none" points="193.936,1486.45 2352.76,1486.45 "></polyline>
<polyline clip-path="url(#clip840)" style="stroke:#000000; stroke-linecap:round; stroke-linejoin:round; stroke-width:4; stroke-opacity:1; fill:none" points="255.035,1486.45 255.035,1467.55 "></polyline>
<polyline clip-path="url(#clip840)" style="stroke:#000000; stroke-linecap:round; stroke-linejoin:round; stroke-width:4; stroke-opacity:1; fill:none" points="933.909,1486.45 933.909,1467.55 "></polyline>
<polyline clip-path="url(#clip840)" style="stroke:#000000; stroke-linecap:round; stroke-linejoin:round; stroke-width:4; stroke-opacity:1; fill:none" points="1612.78,1486.45 1612.78,1467.55 "></polyline>
<polyline clip-path="url(#clip840)" style="stroke:#000000; stroke-linecap:round; stroke-linejoin:round; stroke-width:4; stroke-opacity:1; fill:none" points="2291.66,1486.45 2291.66,1467.55 "></polyline>
<path clip-path="url(#clip840)" d="M255.035 1517.37 Q251.424 1517.37 249.595 1520.93 Q247.789 1524.47 247.789 1531.6 Q247.789 1538.71 249.595 1542.27 Q251.424 1545.82 255.035 1545.82 Q258.669 1545.82 260.474 1542.27 Q262.303 1538.71 262.303 1531.6 Q262.303 1524.47 260.474 1520.93 Q258.669 1517.37 255.035 1517.37 M255.035 1513.66 Q260.845 1513.66 263.9 1518.27 Q266.979 1522.85 266.979 1531.6 Q266.979 1540.33 263.9 1544.94 Q260.845 1549.52 255.035 1549.52 Q249.225 1549.52 246.146 1544.94 Q243.09 1540.33 243.09 1531.6 Q243.09 1522.85 246.146 1518.27 Q249.225 1513.66 255.035 1513.66 Z" fill="#000000" fill-rule="nonzero" fill-opacity="1"></path><path clip-path="url(#clip840)" d="M924.291 1544.91 L931.93 1544.91 L931.93 1518.55 L923.62 1520.21 L923.62 1515.95 L931.883 1514.29 L936.559 1514.29 L936.559 1544.91 L944.198 1544.91 L944.198 1548.85 L924.291 1548.85 L924.291 1544.91 Z" fill="#000000" fill-rule="nonzero" fill-opacity="1"></path><path clip-path="url(#clip840)" d="M1607.44 1544.91 L1623.76 1544.91 L1623.76 1548.85 L1601.81 1548.85 L1601.81 1544.91 Q1604.47 1542.16 1609.06 1537.53 Q1613.66 1532.88 1614.84 1531.53 Q1617.09 1529.01 1617.97 1527.27 Q1618.87 1525.51 1618.87 1523.82 Q1618.87 1521.07 1616.93 1519.33 Q1615.01 1517.6 1611.9 1517.6 Q1609.7 1517.6 1607.25 1518.36 Q1604.82 1519.13 1602.04 1520.68 L1602.04 1515.95 Q1604.87 1514.82 1607.32 1514.24 Q1609.77 1513.66 1611.81 1513.66 Q1617.18 1513.66 1620.38 1516.35 Q1623.57 1519.03 1623.57 1523.52 Q1623.57 1525.65 1622.76 1527.57 Q1621.97 1529.47 1619.87 1532.07 Q1619.29 1532.74 1616.19 1535.95 Q1613.08 1539.15 1607.44 1544.91 Z" fill="#000000" fill-rule="nonzero" fill-opacity="1"></path><path clip-path="url(#clip840)" d="M2295.9 1530.21 Q2299.26 1530.93 2301.14 1533.2 Q2303.03 1535.47 2303.03 1538.8 Q2303.03 1543.92 2299.52 1546.72 Q2296 1549.52 2289.52 1549.52 Q2287.34 1549.52 2285.03 1549.08 Q2282.73 1548.66 2280.28 1547.81 L2280.28 1543.29 Q2282.22 1544.43 2284.54 1545.01 Q2286.85 1545.58 2289.38 1545.58 Q2293.78 1545.58 2296.07 1543.85 Q2298.38 1542.11 2298.38 1538.8 Q2298.38 1535.75 2296.23 1534.03 Q2294.1 1532.3 2290.28 1532.3 L2286.25 1532.3 L2286.25 1528.45 L2290.47 1528.45 Q2293.91 1528.45 2295.74 1527.09 Q2297.57 1525.7 2297.57 1523.11 Q2297.57 1520.45 2295.67 1519.03 Q2293.8 1517.6 2290.28 1517.6 Q2288.36 1517.6 2286.16 1518.01 Q2283.96 1518.43 2281.32 1519.31 L2281.32 1515.14 Q2283.98 1514.4 2286.3 1514.03 Q2288.64 1513.66 2290.7 1513.66 Q2296.02 1513.66 2299.12 1516.09 Q2302.22 1518.5 2302.22 1522.62 Q2302.22 1525.49 2300.58 1527.48 Q2298.94 1529.45 2295.9 1530.21 Z" fill="#000000" fill-rule="nonzero" fill-opacity="1"></path><polyline clip-path="url(#clip842)" style="stroke:#000000; stroke-linecap:round; stroke-linejoin:round; stroke-width:2; stroke-opacity:0.1; fill:none" points="193.936,1313.39 2352.76,1313.39 "></polyline>
<polyline clip-path="url(#clip842)" style="stroke:#000000; stroke-linecap:round; stroke-linejoin:round; stroke-width:2; stroke-opacity:0.1; fill:none" points="193.936,1013.45 2352.76,1013.45 "></polyline>
<polyline clip-path="url(#clip842)" style="stroke:#000000; stroke-linecap:round; stroke-linejoin:round; stroke-width:2; stroke-opacity:0.1; fill:none" points="193.936,713.506 2352.76,713.506 "></polyline>
<polyline clip-path="url(#clip842)" style="stroke:#000000; stroke-linecap:round; stroke-linejoin:round; stroke-width:2; stroke-opacity:0.1; fill:none" points="193.936,413.563 2352.76,413.563 "></polyline>
<polyline clip-path="url(#clip840)" style="stroke:#000000; stroke-linecap:round; stroke-linejoin:round; stroke-width:4; stroke-opacity:1; fill:none" points="193.936,1486.45 193.936,123.472 "></polyline>
<polyline clip-path="url(#clip840)" style="stroke:#000000; stroke-linecap:round; stroke-linejoin:round; stroke-width:4; stroke-opacity:1; fill:none" points="193.936,1313.39 212.834,1313.39 "></polyline>
<polyline clip-path="url(#clip840)" style="stroke:#000000; stroke-linecap:round; stroke-linejoin:round; stroke-width:4; stroke-opacity:1; fill:none" points="193.936,1013.45 212.834,1013.45 "></polyline>
<polyline clip-path="url(#clip840)" style="stroke:#000000; stroke-linecap:round; stroke-linejoin:round; stroke-width:4; stroke-opacity:1; fill:none" points="193.936,713.506 212.834,713.506 "></polyline>
<polyline clip-path="url(#clip840)" style="stroke:#000000; stroke-linecap:round; stroke-linejoin:round; stroke-width:4; stroke-opacity:1; fill:none" points="193.936,413.563 212.834,413.563 "></polyline>
<path clip-path="url(#clip840)" d="M50.9921 1313.84 L80.6679 1313.84 L80.6679 1317.78 L50.9921 1317.78 L50.9921 1313.84 Z" fill="#000000" fill-rule="nonzero" fill-opacity="1"></path><path clip-path="url(#clip840)" d="M90.8067 1296.11 L109.163 1296.11 L109.163 1300.05 L95.0891 1300.05 L95.0891 1308.52 Q96.1076 1308.17 97.1261 1308.01 Q98.1447 1307.82 99.1632 1307.82 Q104.95 1307.82 108.33 1311 Q111.709 1314.17 111.709 1319.58 Q111.709 1325.16 108.237 1328.26 Q104.765 1331.34 98.4456 1331.34 Q96.2697 1331.34 94.0012 1330.97 Q91.7558 1330.6 89.3484 1329.86 L89.3484 1325.16 Q91.4317 1326.3 93.6539 1326.85 Q95.8761 1327.41 98.353 1327.41 Q102.358 1327.41 104.696 1325.3 Q107.033 1323.19 107.033 1319.58 Q107.033 1315.97 104.696 1313.87 Q102.358 1311.76 98.353 1311.76 Q96.478 1311.76 94.603 1312.18 Q92.7512 1312.59 90.8067 1313.47 L90.8067 1296.11 Z" fill="#000000" fill-rule="nonzero" fill-opacity="1"></path><path clip-path="url(#clip840)" d="M120.922 1324.79 L125.807 1324.79 L125.807 1330.67 L120.922 1330.67 L120.922 1324.79 Z" fill="#000000" fill-rule="nonzero" fill-opacity="1"></path><path clip-path="url(#clip840)" d="M145.992 1299.19 Q142.381 1299.19 140.552 1302.75 Q138.746 1306.3 138.746 1313.43 Q138.746 1320.53 140.552 1324.1 Q142.381 1327.64 145.992 1327.64 Q149.626 1327.64 151.431 1324.1 Q153.26 1320.53 153.26 1313.43 Q153.26 1306.3 151.431 1302.75 Q149.626 1299.19 145.992 1299.19 M145.992 1295.49 Q151.802 1295.49 154.857 1300.09 Q157.936 1304.68 157.936 1313.43 Q157.936 1322.15 154.857 1326.76 Q151.802 1331.34 145.992 1331.34 Q140.181 1331.34 137.103 1326.76 Q134.047 1322.15 134.047 1313.43 Q134.047 1304.68 137.103 1300.09 Q140.181 1295.49 145.992 1295.49 Z" fill="#000000" fill-rule="nonzero" fill-opacity="1"></path><path clip-path="url(#clip840)" d="M51.9875 1013.9 L81.6633 1013.9 L81.6633 1017.83 L51.9875 1017.83 L51.9875 1013.9 Z" fill="#000000" fill-rule="nonzero" fill-opacity="1"></path><path clip-path="url(#clip840)" d="M95.7836 1026.79 L112.103 1026.79 L112.103 1030.73 L90.1586 1030.73 L90.1586 1026.79 Q92.8206 1024.04 97.4039 1019.41 Q102.01 1014.76 103.191 1013.41 Q105.436 1010.89 106.316 1009.15 Q107.219 1007.4 107.219 1005.71 Q107.219 1002.95 105.274 1001.21 Q103.353 999.478 100.251 999.478 Q98.0521 999.478 95.5984 1000.24 Q93.1678 1001.01 90.3901 1002.56 L90.3901 997.835 Q93.2141 996.701 95.6678 996.122 Q98.1215 995.543 100.159 995.543 Q105.529 995.543 108.723 998.228 Q111.918 1000.91 111.918 1005.4 Q111.918 1007.53 111.108 1009.46 Q110.321 1011.35 108.214 1013.95 Q107.635 1014.62 104.534 1017.83 Q101.432 1021.03 95.7836 1026.79 Z" fill="#000000" fill-rule="nonzero" fill-opacity="1"></path><path clip-path="url(#clip840)" d="M121.918 1024.85 L126.802 1024.85 L126.802 1030.73 L121.918 1030.73 L121.918 1024.85 Z" fill="#000000" fill-rule="nonzero" fill-opacity="1"></path><path clip-path="url(#clip840)" d="M137.033 996.168 L155.39 996.168 L155.39 1000.1 L141.316 1000.1 L141.316 1008.58 Q142.334 1008.23 143.353 1008.07 Q144.371 1007.88 145.39 1007.88 Q151.177 1007.88 154.556 1011.05 Q157.936 1014.22 157.936 1019.64 Q157.936 1025.22 154.464 1028.32 Q150.992 1031.4 144.672 1031.4 Q142.496 1031.4 140.228 1031.03 Q137.982 1030.66 135.575 1029.92 L135.575 1025.22 Q137.658 1026.35 139.881 1026.91 Q142.103 1027.46 144.58 1027.46 Q148.584 1027.46 150.922 1025.36 Q153.26 1023.25 153.26 1019.64 Q153.26 1016.03 150.922 1013.92 Q148.584 1011.82 144.58 1011.82 Q142.705 1011.82 140.83 1012.23 Q138.978 1012.65 137.033 1013.53 L137.033 996.168 Z" fill="#000000" fill-rule="nonzero" fill-opacity="1"></path><path clip-path="url(#clip840)" d="M100.76 699.304 Q97.1493 699.304 95.3206 702.869 Q93.515 706.411 93.515 713.54 Q93.515 720.647 95.3206 724.212 Q97.1493 727.753 100.76 727.753 Q104.395 727.753 106.2 724.212 Q108.029 720.647 108.029 713.54 Q108.029 706.411 106.2 702.869 Q104.395 699.304 100.76 699.304 M100.76 695.601 Q106.571 695.601 109.626 700.207 Q112.705 704.79 112.705 713.54 Q112.705 722.267 109.626 726.874 Q106.571 731.457 100.76 731.457 Q94.9502 731.457 91.8715 726.874 Q88.816 722.267 88.816 713.54 Q88.816 704.79 91.8715 700.207 Q94.9502 695.601 100.76 695.601 Z" fill="#000000" fill-rule="nonzero" fill-opacity="1"></path><path clip-path="url(#clip840)" d="M120.922 724.906 L125.807 724.906 L125.807 730.786 L120.922 730.786 L120.922 724.906 Z" fill="#000000" fill-rule="nonzero" fill-opacity="1"></path><path clip-path="url(#clip840)" d="M145.992 699.304 Q142.381 699.304 140.552 702.869 Q138.746 706.411 138.746 713.54 Q138.746 720.647 140.552 724.212 Q142.381 727.753 145.992 727.753 Q149.626 727.753 151.431 724.212 Q153.26 720.647 153.26 713.54 Q153.26 706.411 151.431 702.869 Q149.626 699.304 145.992 699.304 M145.992 695.601 Q151.802 695.601 154.857 700.207 Q157.936 704.79 157.936 713.54 Q157.936 722.267 154.857 726.874 Q151.802 731.457 145.992 731.457 Q140.181 731.457 137.103 726.874 Q134.047 722.267 134.047 713.54 Q134.047 704.79 137.103 700.207 Q140.181 695.601 145.992 695.601 Z" fill="#000000" fill-rule="nonzero" fill-opacity="1"></path><path clip-path="url(#clip840)" d="M95.7836 426.908 L112.103 426.908 L112.103 430.843 L90.1586 430.843 L90.1586 426.908 Q92.8206 424.153 97.4039 419.523 Q102.01 414.871 103.191 413.528 Q105.436 411.005 106.316 409.269 Q107.219 407.51 107.219 405.82 Q107.219 403.065 105.274 401.329 Q103.353 399.593 100.251 399.593 Q98.0521 399.593 95.5984 400.357 Q93.1678 401.121 90.3901 402.672 L90.3901 397.95 Q93.2141 396.815 95.6678 396.237 Q98.1215 395.658 100.159 395.658 Q105.529 395.658 108.723 398.343 Q111.918 401.028 111.918 405.519 Q111.918 407.649 111.108 409.57 Q110.321 411.468 108.214 414.061 Q107.635 414.732 104.534 417.949 Q101.432 421.144 95.7836 426.908 Z" fill="#000000" fill-rule="nonzero" fill-opacity="1"></path><path clip-path="url(#clip840)" d="M121.918 424.963 L126.802 424.963 L126.802 430.843 L121.918 430.843 L121.918 424.963 Z" fill="#000000" fill-rule="nonzero" fill-opacity="1"></path><path clip-path="url(#clip840)" d="M137.033 396.283 L155.39 396.283 L155.39 400.218 L141.316 400.218 L141.316 408.69 Q142.334 408.343 143.353 408.181 Q144.371 407.996 145.39 407.996 Q151.177 407.996 154.556 411.167 Q157.936 414.338 157.936 419.755 Q157.936 425.334 154.464 428.435 Q150.992 431.514 144.672 431.514 Q142.496 431.514 140.228 431.144 Q137.982 430.773 135.575 430.033 L135.575 425.334 Q137.658 426.468 139.881 427.023 Q142.103 427.579 144.58 427.579 Q148.584 427.579 150.922 425.473 Q153.26 423.366 153.26 419.755 Q153.26 416.144 150.922 414.037 Q148.584 411.931 144.58 411.931 Q142.705 411.931 140.83 412.348 Q138.978 412.764 137.033 413.644 L137.033 396.283 Z" fill="#000000" fill-rule="nonzero" fill-opacity="1"></path><path clip-path="url(#clip840)" d="M1079.06 17.6457 Q1070.15 17.6457 1064.89 24.2892 Q1059.66 30.9327 1059.66 42.3968 Q1059.66 53.8203 1064.89 60.4638 Q1070.15 67.1073 1079.06 67.1073 Q1087.98 67.1073 1093.16 60.4638 Q1098.39 53.8203 1098.39 42.3968 Q1098.39 30.9327 1093.16 24.2892 Q1087.98 17.6457 1079.06 17.6457 M1079.06 11.0023 Q1091.78 11.0023 1099.4 19.5497 Q1107.02 28.0566 1107.02 42.3968 Q1107.02 56.6965 1099.4 65.2439 Q1091.78 73.7508 1079.06 73.7508 Q1066.3 73.7508 1058.65 65.2439 Q1051.03 56.737 1051.03 42.3968 Q1051.03 28.0566 1058.65 19.5497 Q1066.3 11.0023 1079.06 11.0023 Z" fill="#000000" fill-rule="nonzero" fill-opacity="1"></path><path clip-path="url(#clip840)" d="M1128 18.8205 L1128 65.8515 L1137.88 65.8515 Q1150.4 65.8515 1156.19 60.1802 Q1162.03 54.509 1162.03 42.2752 Q1162.03 30.1225 1156.19 24.4918 Q1150.4 18.8205 1137.88 18.8205 L1128 18.8205 M1119.82 12.096 L1136.63 12.096 Q1154.21 12.096 1162.43 19.4281 Q1170.66 26.7198 1170.66 42.2752 Q1170.66 57.9117 1162.39 65.2439 Q1154.13 72.576 1136.63 72.576 L1119.82 72.576 L1119.82 12.096 Z" fill="#000000" fill-rule="nonzero" fill-opacity="1"></path><path clip-path="url(#clip840)" d="M1183.7 12.096 L1221.94 12.096 L1221.94 18.9825 L1191.88 18.9825 L1191.88 36.8875 L1220.68 36.8875 L1220.68 43.7741 L1191.88 43.7741 L1191.88 65.6895 L1222.67 65.6895 L1222.67 72.576 L1183.7 72.576 L1183.7 12.096 Z" fill="#000000" fill-rule="nonzero" fill-opacity="1"></path><path clip-path="url(#clip840)" d="M1262.49 12.096 L1274.68 12.096 L1290.12 53.2532 L1305.63 12.096 L1317.82 12.096 L1317.82 72.576 L1309.84 72.576 L1309.84 19.4686 L1294.25 60.9499 L1286.03 60.9499 L1270.43 19.4686 L1270.43 72.576 L1262.49 72.576 L1262.49 12.096 Z" fill="#000000" fill-rule="nonzero" fill-opacity="1"></path><path clip-path="url(#clip840)" d="M1351.33 32.4315 Q1345.33 32.4315 1341.85 37.1306 Q1338.36 41.7891 1338.36 49.9314 Q1338.36 58.0738 1341.81 62.7728 Q1345.29 67.4314 1351.33 67.4314 Q1357.28 67.4314 1360.76 62.7323 Q1364.25 58.0333 1364.25 49.9314 Q1364.25 41.8701 1360.76 37.1711 Q1357.28 32.4315 1351.33 32.4315 M1351.33 26.1121 Q1361.05 26.1121 1366.6 32.4315 Q1372.15 38.7509 1372.15 49.9314 Q1372.15 61.0714 1366.6 67.4314 Q1361.05 73.7508 1351.33 73.7508 Q1341.56 73.7508 1336.01 67.4314 Q1330.5 61.0714 1330.5 49.9314 Q1330.5 38.7509 1336.01 32.4315 Q1341.56 26.1121 1351.33 26.1121 Z" fill="#000000" fill-rule="nonzero" fill-opacity="1"></path><path clip-path="url(#clip840)" d="M1414.36 34.0924 L1414.36 9.54393 L1421.81 9.54393 L1421.81 72.576 L1414.36 72.576 L1414.36 65.7705 Q1412.01 69.8214 1408.4 71.8063 Q1404.84 73.7508 1399.82 73.7508 Q1391.59 73.7508 1386.41 67.1883 Q1381.26 60.6258 1381.26 49.9314 Q1381.26 39.2371 1386.41 32.6746 Q1391.59 26.1121 1399.82 26.1121 Q1404.84 26.1121 1408.4 28.0971 Q1412.01 30.0415 1414.36 34.0924 M1388.96 49.9314 Q1388.96 58.1548 1392.32 62.8538 Q1395.72 67.5124 1401.64 67.5124 Q1407.55 67.5124 1410.96 62.8538 Q1414.36 58.1548 1414.36 49.9314 Q1414.36 41.7081 1410.96 37.0496 Q1407.55 32.3505 1401.64 32.3505 Q1395.72 32.3505 1392.32 37.0496 Q1388.96 41.7081 1388.96 49.9314 Z" fill="#000000" fill-rule="nonzero" fill-opacity="1"></path><path clip-path="url(#clip840)" d="M1475.97 48.0275 L1475.97 51.6733 L1441.7 51.6733 Q1442.19 59.3701 1446.32 63.421 Q1450.49 67.4314 1457.91 67.4314 Q1462.2 67.4314 1466.21 66.3781 Q1470.26 65.3249 1474.23 63.2184 L1474.23 70.267 Q1470.22 71.9684 1466.01 72.8596 Q1461.79 73.7508 1457.46 73.7508 Q1446.6 73.7508 1440.24 67.4314 Q1433.92 61.1119 1433.92 50.3365 Q1433.92 39.1965 1439.92 32.6746 Q1445.95 26.1121 1456.16 26.1121 Q1465.32 26.1121 1470.62 32.0264 Q1475.97 37.9003 1475.97 48.0275 M1468.52 45.84 Q1468.44 39.7232 1465.08 36.0774 Q1461.75 32.4315 1456.24 32.4315 Q1450.01 32.4315 1446.24 35.9558 Q1442.51 39.4801 1441.94 45.8805 L1468.52 45.84 Z" fill="#000000" fill-rule="nonzero" fill-opacity="1"></path><path clip-path="url(#clip840)" d="M1488.21 9.54393 L1495.66 9.54393 L1495.66 72.576 L1488.21 72.576 L1488.21 9.54393 Z" fill="#000000" fill-rule="nonzero" fill-opacity="1"></path><circle clip-path="url(#clip842)" cx="255.035" cy="442.242" r="14.4" fill="#0000ff" fill-rule="evenodd" fill-opacity="0.4" stroke="#000000" stroke-opacity="0.4" stroke-width="3.2"></circle>
<circle clip-path="url(#clip842)" cx="275.607" cy="369.251" r="14.4" fill="#0000ff" fill-rule="evenodd" fill-opacity="0.4" stroke="#000000" stroke-opacity="0.4" stroke-width="3.2"></circle>
<circle clip-path="url(#clip842)" cx="296.179" cy="690.63" r="14.4" fill="#0000ff" fill-rule="evenodd" fill-opacity="0.4" stroke="#000000" stroke-opacity="0.4" stroke-width="3.2"></circle>
<circle clip-path="url(#clip842)" cx="316.751" cy="616.858" r="14.4" fill="#0000ff" fill-rule="evenodd" fill-opacity="0.4" stroke="#000000" stroke-opacity="0.4" stroke-width="3.2"></circle>
<circle clip-path="url(#clip842)" cx="337.322" cy="634.316" r="14.4" fill="#0000ff" fill-rule="evenodd" fill-opacity="0.4" stroke="#000000" stroke-opacity="0.4" stroke-width="3.2"></circle>
<circle clip-path="url(#clip842)" cx="357.894" cy="689.209" r="14.4" fill="#0000ff" fill-rule="evenodd" fill-opacity="0.4" stroke="#000000" stroke-opacity="0.4" stroke-width="3.2"></circle>
<circle clip-path="url(#clip842)" cx="378.466" cy="452.1" r="14.4" fill="#0000ff" fill-rule="evenodd" fill-opacity="0.4" stroke="#000000" stroke-opacity="0.4" stroke-width="3.2"></circle>
<circle clip-path="url(#clip842)" cx="399.038" cy="674.197" r="14.4" fill="#0000ff" fill-rule="evenodd" fill-opacity="0.4" stroke="#000000" stroke-opacity="0.4" stroke-width="3.2"></circle>
<circle clip-path="url(#clip842)" cx="419.61" cy="740.548" r="14.4" fill="#0000ff" fill-rule="evenodd" fill-opacity="0.4" stroke="#000000" stroke-opacity="0.4" stroke-width="3.2"></circle>
<circle clip-path="url(#clip842)" cx="440.182" cy="582.017" r="14.4" fill="#0000ff" fill-rule="evenodd" fill-opacity="0.4" stroke="#000000" stroke-opacity="0.4" stroke-width="3.2"></circle>
<circle clip-path="url(#clip842)" cx="460.754" cy="677.142" r="14.4" fill="#0000ff" fill-rule="evenodd" fill-opacity="0.4" stroke="#000000" stroke-opacity="0.4" stroke-width="3.2"></circle>
<circle clip-path="url(#clip842)" cx="481.326" cy="777.789" r="14.4" fill="#0000ff" fill-rule="evenodd" fill-opacity="0.4" stroke="#000000" stroke-opacity="0.4" stroke-width="3.2"></circle>
<circle clip-path="url(#clip842)" cx="501.898" cy="395.582" r="14.4" fill="#0000ff" fill-rule="evenodd" fill-opacity="0.4" stroke="#000000" stroke-opacity="0.4" stroke-width="3.2"></circle>
<circle clip-path="url(#clip842)" cx="522.47" cy="573.718" r="14.4" fill="#0000ff" fill-rule="evenodd" fill-opacity="0.4" stroke="#000000" stroke-opacity="0.4" stroke-width="3.2"></circle>
<circle clip-path="url(#clip842)" cx="543.042" cy="512.172" r="14.4" fill="#0000ff" fill-rule="evenodd" fill-opacity="0.4" stroke="#000000" stroke-opacity="0.4" stroke-width="3.2"></circle>
<circle clip-path="url(#clip842)" cx="563.614" cy="628.513" r="14.4" fill="#0000ff" fill-rule="evenodd" fill-opacity="0.4" stroke="#000000" stroke-opacity="0.4" stroke-width="3.2"></circle>
<circle clip-path="url(#clip842)" cx="584.186" cy="678.191" r="14.4" fill="#0000ff" fill-rule="evenodd" fill-opacity="0.4" stroke="#000000" stroke-opacity="0.4" stroke-width="3.2"></circle>
<circle clip-path="url(#clip842)" cx="604.758" cy="799.534" r="14.4" fill="#0000ff" fill-rule="evenodd" fill-opacity="0.4" stroke="#000000" stroke-opacity="0.4" stroke-width="3.2"></circle>
<circle clip-path="url(#clip842)" cx="625.33" cy="652.414" r="14.4" fill="#0000ff" fill-rule="evenodd" fill-opacity="0.4" stroke="#000000" stroke-opacity="0.4" stroke-width="3.2"></circle>
<circle clip-path="url(#clip842)" cx="645.902" cy="790.902" r="14.4" fill="#0000ff" fill-rule="evenodd" fill-opacity="0.4" stroke="#000000" stroke-opacity="0.4" stroke-width="3.2"></circle>
<circle clip-path="url(#clip842)" cx="666.474" cy="756.545" r="14.4" fill="#0000ff" fill-rule="evenodd" fill-opacity="0.4" stroke="#000000" stroke-opacity="0.4" stroke-width="3.2"></circle>
<circle clip-path="url(#clip842)" cx="687.046" cy="841.951" r="14.4" fill="#0000ff" fill-rule="evenodd" fill-opacity="0.4" stroke="#000000" stroke-opacity="0.4" stroke-width="3.2"></circle>
<circle clip-path="url(#clip842)" cx="707.617" cy="947.245" r="14.4" fill="#0000ff" fill-rule="evenodd" fill-opacity="0.4" stroke="#000000" stroke-opacity="0.4" stroke-width="3.2"></circle>
<circle clip-path="url(#clip842)" cx="728.189" cy="779.77" r="14.4" fill="#0000ff" fill-rule="evenodd" fill-opacity="0.4" stroke="#000000" stroke-opacity="0.4" stroke-width="3.2"></circle>
<circle clip-path="url(#clip842)" cx="748.761" cy="649.287" r="14.4" fill="#0000ff" fill-rule="evenodd" fill-opacity="0.4" stroke="#000000" stroke-opacity="0.4" stroke-width="3.2"></circle>
<circle clip-path="url(#clip842)" cx="769.333" cy="555.248" r="14.4" fill="#0000ff" fill-rule="evenodd" fill-opacity="0.4" stroke="#000000" stroke-opacity="0.4" stroke-width="3.2"></circle>
<circle clip-path="url(#clip842)" cx="789.905" cy="734.569" r="14.4" fill="#0000ff" fill-rule="evenodd" fill-opacity="0.4" stroke="#000000" stroke-opacity="0.4" stroke-width="3.2"></circle>
<circle clip-path="url(#clip842)" cx="810.477" cy="794.39" r="14.4" fill="#0000ff" fill-rule="evenodd" fill-opacity="0.4" stroke="#000000" stroke-opacity="0.4" stroke-width="3.2"></circle>
<circle clip-path="url(#clip842)" cx="831.049" cy="821.888" r="14.4" fill="#0000ff" fill-rule="evenodd" fill-opacity="0.4" stroke="#000000" stroke-opacity="0.4" stroke-width="3.2"></circle>
<circle clip-path="url(#clip842)" cx="851.621" cy="1150.86" r="14.4" fill="#0000ff" fill-rule="evenodd" fill-opacity="0.4" stroke="#000000" stroke-opacity="0.4" stroke-width="3.2"></circle>
<circle clip-path="url(#clip842)" cx="872.193" cy="689.797" r="14.4" fill="#0000ff" fill-rule="evenodd" fill-opacity="0.4" stroke="#000000" stroke-opacity="0.4" stroke-width="3.2"></circle>
<circle clip-path="url(#clip842)" cx="892.765" cy="771.798" r="14.4" fill="#0000ff" fill-rule="evenodd" fill-opacity="0.4" stroke="#000000" stroke-opacity="0.4" stroke-width="3.2"></circle>
<circle clip-path="url(#clip842)" cx="913.337" cy="707.533" r="14.4" fill="#0000ff" fill-rule="evenodd" fill-opacity="0.4" stroke="#000000" stroke-opacity="0.4" stroke-width="3.2"></circle>
<circle clip-path="url(#clip842)" cx="933.909" cy="1006.8" r="14.4" fill="#0000ff" fill-rule="evenodd" fill-opacity="0.4" stroke="#000000" stroke-opacity="0.4" stroke-width="3.2"></circle>
<circle clip-path="url(#clip842)" cx="954.481" cy="761.996" r="14.4" fill="#0000ff" fill-rule="evenodd" fill-opacity="0.4" stroke="#000000" stroke-opacity="0.4" stroke-width="3.2"></circle>
<circle clip-path="url(#clip842)" cx="975.053" cy="835.761" r="14.4" fill="#0000ff" fill-rule="evenodd" fill-opacity="0.4" stroke="#000000" stroke-opacity="0.4" stroke-width="3.2"></circle>
<circle clip-path="url(#clip842)" cx="995.625" cy="895.023" r="14.4" fill="#0000ff" fill-rule="evenodd" fill-opacity="0.4" stroke="#000000" stroke-opacity="0.4" stroke-width="3.2"></circle>
<circle clip-path="url(#clip842)" cx="1016.2" cy="1043.25" r="14.4" fill="#0000ff" fill-rule="evenodd" fill-opacity="0.4" stroke="#000000" stroke-opacity="0.4" stroke-width="3.2"></circle>
<circle clip-path="url(#clip842)" cx="1036.77" cy="923.853" r="14.4" fill="#0000ff" fill-rule="evenodd" fill-opacity="0.4" stroke="#000000" stroke-opacity="0.4" stroke-width="3.2"></circle>
<circle clip-path="url(#clip842)" cx="1057.34" cy="886.818" r="14.4" fill="#0000ff" fill-rule="evenodd" fill-opacity="0.4" stroke="#000000" stroke-opacity="0.4" stroke-width="3.2"></circle>
<circle clip-path="url(#clip842)" cx="1077.91" cy="835.204" r="14.4" fill="#0000ff" fill-rule="evenodd" fill-opacity="0.4" stroke="#000000" stroke-opacity="0.4" stroke-width="3.2"></circle>
<circle clip-path="url(#clip842)" cx="1098.48" cy="938.016" r="14.4" fill="#0000ff" fill-rule="evenodd" fill-opacity="0.4" stroke="#000000" stroke-opacity="0.4" stroke-width="3.2"></circle>
<circle clip-path="url(#clip842)" cx="1119.06" cy="551.2" r="14.4" fill="#0000ff" fill-rule="evenodd" fill-opacity="0.4" stroke="#000000" stroke-opacity="0.4" stroke-width="3.2"></circle>
<circle clip-path="url(#clip842)" cx="1139.63" cy="657.115" r="14.4" fill="#0000ff" fill-rule="evenodd" fill-opacity="0.4" stroke="#000000" stroke-opacity="0.4" stroke-width="3.2"></circle>
<circle clip-path="url(#clip842)" cx="1160.2" cy="850.264" r="14.4" fill="#0000ff" fill-rule="evenodd" fill-opacity="0.4" stroke="#000000" stroke-opacity="0.4" stroke-width="3.2"></circle>
<circle clip-path="url(#clip842)" cx="1180.77" cy="762.217" r="14.4" fill="#0000ff" fill-rule="evenodd" fill-opacity="0.4" stroke="#000000" stroke-opacity="0.4" stroke-width="3.2"></circle>
<circle clip-path="url(#clip842)" cx="1201.34" cy="820.741" r="14.4" fill="#0000ff" fill-rule="evenodd" fill-opacity="0.4" stroke="#000000" stroke-opacity="0.4" stroke-width="3.2"></circle>
<circle clip-path="url(#clip842)" cx="1221.92" cy="737.506" r="14.4" fill="#0000ff" fill-rule="evenodd" fill-opacity="0.4" stroke="#000000" stroke-opacity="0.4" stroke-width="3.2"></circle>
<circle clip-path="url(#clip842)" cx="1242.49" cy="602.449" r="14.4" fill="#0000ff" fill-rule="evenodd" fill-opacity="0.4" stroke="#000000" stroke-opacity="0.4" stroke-width="3.2"></circle>
<circle clip-path="url(#clip842)" cx="1263.06" cy="680.112" r="14.4" fill="#0000ff" fill-rule="evenodd" fill-opacity="0.4" stroke="#000000" stroke-opacity="0.4" stroke-width="3.2"></circle>
<circle clip-path="url(#clip842)" cx="1283.63" cy="690.756" r="14.4" fill="#0000ff" fill-rule="evenodd" fill-opacity="0.4" stroke="#000000" stroke-opacity="0.4" stroke-width="3.2"></circle>
<circle clip-path="url(#clip842)" cx="1304.2" cy="950.629" r="14.4" fill="#0000ff" fill-rule="evenodd" fill-opacity="0.4" stroke="#000000" stroke-opacity="0.4" stroke-width="3.2"></circle>
<circle clip-path="url(#clip842)" cx="1324.78" cy="699.641" r="14.4" fill="#0000ff" fill-rule="evenodd" fill-opacity="0.4" stroke="#000000" stroke-opacity="0.4" stroke-width="3.2"></circle>
<circle clip-path="url(#clip842)" cx="1345.35" cy="824.949" r="14.4" fill="#0000ff" fill-rule="evenodd" fill-opacity="0.4" stroke="#000000" stroke-opacity="0.4" stroke-width="3.2"></circle>
<circle clip-path="url(#clip842)" cx="1365.92" cy="954.756" r="14.4" fill="#0000ff" fill-rule="evenodd" fill-opacity="0.4" stroke="#000000" stroke-opacity="0.4" stroke-width="3.2"></circle>
<circle clip-path="url(#clip842)" cx="1386.49" cy="867.467" r="14.4" fill="#0000ff" fill-rule="evenodd" fill-opacity="0.4" stroke="#000000" stroke-opacity="0.4" stroke-width="3.2"></circle>
<circle clip-path="url(#clip842)" cx="1407.06" cy="695.547" r="14.4" fill="#0000ff" fill-rule="evenodd" fill-opacity="0.4" stroke="#000000" stroke-opacity="0.4" stroke-width="3.2"></circle>
<circle clip-path="url(#clip842)" cx="1427.64" cy="668.947" r="14.4" fill="#0000ff" fill-rule="evenodd" fill-opacity="0.4" stroke="#000000" stroke-opacity="0.4" stroke-width="3.2"></circle>
<circle clip-path="url(#clip842)" cx="1448.21" cy="794.014" r="14.4" fill="#0000ff" fill-rule="evenodd" fill-opacity="0.4" stroke="#000000" stroke-opacity="0.4" stroke-width="3.2"></circle>
<circle clip-path="url(#clip842)" cx="1468.78" cy="653.789" r="14.4" fill="#0000ff" fill-rule="evenodd" fill-opacity="0.4" stroke="#000000" stroke-opacity="0.4" stroke-width="3.2"></circle>
<circle clip-path="url(#clip842)" cx="1489.35" cy="526.123" r="14.4" fill="#0000ff" fill-rule="evenodd" fill-opacity="0.4" stroke="#000000" stroke-opacity="0.4" stroke-width="3.2"></circle>
<circle clip-path="url(#clip842)" cx="1509.92" cy="555.369" r="14.4" fill="#0000ff" fill-rule="evenodd" fill-opacity="0.4" stroke="#000000" stroke-opacity="0.4" stroke-width="3.2"></circle>
<circle clip-path="url(#clip842)" cx="1530.5" cy="789.725" r="14.4" fill="#0000ff" fill-rule="evenodd" fill-opacity="0.4" stroke="#000000" stroke-opacity="0.4" stroke-width="3.2"></circle>
<circle clip-path="url(#clip842)" cx="1551.07" cy="597.281" r="14.4" fill="#0000ff" fill-rule="evenodd" fill-opacity="0.4" stroke="#000000" stroke-opacity="0.4" stroke-width="3.2"></circle>
<circle clip-path="url(#clip842)" cx="1571.64" cy="584.021" r="14.4" fill="#0000ff" fill-rule="evenodd" fill-opacity="0.4" stroke="#000000" stroke-opacity="0.4" stroke-width="3.2"></circle>
<circle clip-path="url(#clip842)" cx="1592.21" cy="690.522" r="14.4" fill="#0000ff" fill-rule="evenodd" fill-opacity="0.4" stroke="#000000" stroke-opacity="0.4" stroke-width="3.2"></circle>
<circle clip-path="url(#clip842)" cx="1612.78" cy="708.649" r="14.4" fill="#0000ff" fill-rule="evenodd" fill-opacity="0.4" stroke="#000000" stroke-opacity="0.4" stroke-width="3.2"></circle>
<circle clip-path="url(#clip842)" cx="1633.35" cy="619.64" r="14.4" fill="#0000ff" fill-rule="evenodd" fill-opacity="0.4" stroke="#000000" stroke-opacity="0.4" stroke-width="3.2"></circle>
<circle clip-path="url(#clip842)" cx="1653.93" cy="691.4" r="14.4" fill="#0000ff" fill-rule="evenodd" fill-opacity="0.4" stroke="#000000" stroke-opacity="0.4" stroke-width="3.2"></circle>
<circle clip-path="url(#clip842)" cx="1674.5" cy="650.868" r="14.4" fill="#0000ff" fill-rule="evenodd" fill-opacity="0.4" stroke="#000000" stroke-opacity="0.4" stroke-width="3.2"></circle>
<circle clip-path="url(#clip842)" cx="1695.07" cy="391.133" r="14.4" fill="#0000ff" fill-rule="evenodd" fill-opacity="0.4" stroke="#000000" stroke-opacity="0.4" stroke-width="3.2"></circle>
<circle clip-path="url(#clip842)" cx="1715.64" cy="486.122" r="14.4" fill="#0000ff" fill-rule="evenodd" fill-opacity="0.4" stroke="#000000" stroke-opacity="0.4" stroke-width="3.2"></circle>
<circle clip-path="url(#clip842)" cx="1736.21" cy="366.581" r="14.4" fill="#0000ff" fill-rule="evenodd" fill-opacity="0.4" stroke="#000000" stroke-opacity="0.4" stroke-width="3.2"></circle>
<circle clip-path="url(#clip842)" cx="1756.79" cy="564.363" r="14.4" fill="#0000ff" fill-rule="evenodd" fill-opacity="0.4" stroke="#000000" stroke-opacity="0.4" stroke-width="3.2"></circle>
<circle clip-path="url(#clip842)" cx="1777.36" cy="542.375" r="14.4" fill="#0000ff" fill-rule="evenodd" fill-opacity="0.4" stroke="#000000" stroke-opacity="0.4" stroke-width="3.2"></circle>
<circle clip-path="url(#clip842)" cx="1797.93" cy="753.377" r="14.4" fill="#0000ff" fill-rule="evenodd" fill-opacity="0.4" stroke="#000000" stroke-opacity="0.4" stroke-width="3.2"></circle>
<circle clip-path="url(#clip842)" cx="1818.5" cy="452.366" r="14.4" fill="#0000ff" fill-rule="evenodd" fill-opacity="0.4" stroke="#000000" stroke-opacity="0.4" stroke-width="3.2"></circle>
<circle clip-path="url(#clip842)" cx="1839.07" cy="769.812" r="14.4" fill="#0000ff" fill-rule="evenodd" fill-opacity="0.4" stroke="#000000" stroke-opacity="0.4" stroke-width="3.2"></circle>
<circle clip-path="url(#clip842)" cx="1859.65" cy="658.554" r="14.4" fill="#0000ff" fill-rule="evenodd" fill-opacity="0.4" stroke="#000000" stroke-opacity="0.4" stroke-width="3.2"></circle>
<circle clip-path="url(#clip842)" cx="1880.22" cy="643.954" r="14.4" fill="#0000ff" fill-rule="evenodd" fill-opacity="0.4" stroke="#000000" stroke-opacity="0.4" stroke-width="3.2"></circle>
<circle clip-path="url(#clip842)" cx="1900.79" cy="567.865" r="14.4" fill="#0000ff" fill-rule="evenodd" fill-opacity="0.4" stroke="#000000" stroke-opacity="0.4" stroke-width="3.2"></circle>
<circle clip-path="url(#clip842)" cx="1921.36" cy="841.066" r="14.4" fill="#0000ff" fill-rule="evenodd" fill-opacity="0.4" stroke="#000000" stroke-opacity="0.4" stroke-width="3.2"></circle>
<circle clip-path="url(#clip842)" cx="1941.93" cy="510.04" r="14.4" fill="#0000ff" fill-rule="evenodd" fill-opacity="0.4" stroke="#000000" stroke-opacity="0.4" stroke-width="3.2"></circle>
<circle clip-path="url(#clip842)" cx="1962.51" cy="655.14" r="14.4" fill="#0000ff" fill-rule="evenodd" fill-opacity="0.4" stroke="#000000" stroke-opacity="0.4" stroke-width="3.2"></circle>
<circle clip-path="url(#clip842)" cx="1983.08" cy="504.287" r="14.4" fill="#0000ff" fill-rule="evenodd" fill-opacity="0.4" stroke="#000000" stroke-opacity="0.4" stroke-width="3.2"></circle>
<circle clip-path="url(#clip842)" cx="2003.65" cy="804.594" r="14.4" fill="#0000ff" fill-rule="evenodd" fill-opacity="0.4" stroke="#000000" stroke-opacity="0.4" stroke-width="3.2"></circle>
<circle clip-path="url(#clip842)" cx="2024.22" cy="453.672" r="14.4" fill="#0000ff" fill-rule="evenodd" fill-opacity="0.4" stroke="#000000" stroke-opacity="0.4" stroke-width="3.2"></circle>
<circle clip-path="url(#clip842)" cx="2044.79" cy="610.961" r="14.4" fill="#0000ff" fill-rule="evenodd" fill-opacity="0.4" stroke="#000000" stroke-opacity="0.4" stroke-width="3.2"></circle>
<circle clip-path="url(#clip842)" cx="2065.37" cy="725.999" r="14.4" fill="#0000ff" fill-rule="evenodd" fill-opacity="0.4" stroke="#000000" stroke-opacity="0.4" stroke-width="3.2"></circle>
<circle clip-path="url(#clip842)" cx="2085.94" cy="631.178" r="14.4" fill="#0000ff" fill-rule="evenodd" fill-opacity="0.4" stroke="#000000" stroke-opacity="0.4" stroke-width="3.2"></circle>
<circle clip-path="url(#clip842)" cx="2106.51" cy="640.81" r="14.4" fill="#0000ff" fill-rule="evenodd" fill-opacity="0.4" stroke="#000000" stroke-opacity="0.4" stroke-width="3.2"></circle>
<circle clip-path="url(#clip842)" cx="2127.08" cy="546.094" r="14.4" fill="#0000ff" fill-rule="evenodd" fill-opacity="0.4" stroke="#000000" stroke-opacity="0.4" stroke-width="3.2"></circle>
<circle clip-path="url(#clip842)" cx="2147.65" cy="607.595" r="14.4" fill="#0000ff" fill-rule="evenodd" fill-opacity="0.4" stroke="#000000" stroke-opacity="0.4" stroke-width="3.2"></circle>
<circle clip-path="url(#clip842)" cx="2168.23" cy="598.411" r="14.4" fill="#0000ff" fill-rule="evenodd" fill-opacity="0.4" stroke="#000000" stroke-opacity="0.4" stroke-width="3.2"></circle>
<circle clip-path="url(#clip842)" cx="2188.8" cy="738.682" r="14.4" fill="#0000ff" fill-rule="evenodd" fill-opacity="0.4" stroke="#000000" stroke-opacity="0.4" stroke-width="3.2"></circle>
<circle clip-path="url(#clip842)" cx="2209.37" cy="475.416" r="14.4" fill="#0000ff" fill-rule="evenodd" fill-opacity="0.4" stroke="#000000" stroke-opacity="0.4" stroke-width="3.2"></circle>
<circle clip-path="url(#clip842)" cx="2229.94" cy="898.418" r="14.4" fill="#0000ff" fill-rule="evenodd" fill-opacity="0.4" stroke="#000000" stroke-opacity="0.4" stroke-width="3.2"></circle>
<circle clip-path="url(#clip842)" cx="2250.51" cy="724.767" r="14.4" fill="#0000ff" fill-rule="evenodd" fill-opacity="0.4" stroke="#000000" stroke-opacity="0.4" stroke-width="3.2"></circle>
<circle clip-path="url(#clip842)" cx="2271.09" cy="659.008" r="14.4" fill="#0000ff" fill-rule="evenodd" fill-opacity="0.4" stroke="#000000" stroke-opacity="0.4" stroke-width="3.2"></circle>
<circle clip-path="url(#clip842)" cx="2291.66" cy="925.509" r="14.4" fill="#0000ff" fill-rule="evenodd" fill-opacity="0.4" stroke="#000000" stroke-opacity="0.4" stroke-width="3.2"></circle>
<circle clip-path="url(#clip842)" cx="255.035" cy="534.441" r="14.4" fill="#0000ff" fill-rule="evenodd" fill-opacity="0.4" stroke="#000000" stroke-opacity="0.4" stroke-width="3.2"></circle>
<circle clip-path="url(#clip842)" cx="275.607" cy="607.559" r="14.4" fill="#0000ff" fill-rule="evenodd" fill-opacity="0.4" stroke="#000000" stroke-opacity="0.4" stroke-width="3.2"></circle>
<circle clip-path="url(#clip842)" cx="296.179" cy="828.249" r="14.4" fill="#0000ff" fill-rule="evenodd" fill-opacity="0.4" stroke="#000000" stroke-opacity="0.4" stroke-width="3.2"></circle>
<circle clip-path="url(#clip842)" cx="316.751" cy="841.602" r="14.4" fill="#0000ff" fill-rule="evenodd" fill-opacity="0.4" stroke="#000000" stroke-opacity="0.4" stroke-width="3.2"></circle>
<circle clip-path="url(#clip842)" cx="337.322" cy="930.276" r="14.4" fill="#0000ff" fill-rule="evenodd" fill-opacity="0.4" stroke="#000000" stroke-opacity="0.4" stroke-width="3.2"></circle>
<circle clip-path="url(#clip842)" cx="357.894" cy="677.344" r="14.4" fill="#0000ff" fill-rule="evenodd" fill-opacity="0.4" stroke="#000000" stroke-opacity="0.4" stroke-width="3.2"></circle>
<circle clip-path="url(#clip842)" cx="378.466" cy="972.458" r="14.4" fill="#0000ff" fill-rule="evenodd" fill-opacity="0.4" stroke="#000000" stroke-opacity="0.4" stroke-width="3.2"></circle>
<circle clip-path="url(#clip842)" cx="399.038" cy="777.627" r="14.4" fill="#0000ff" fill-rule="evenodd" fill-opacity="0.4" stroke="#000000" stroke-opacity="0.4" stroke-width="3.2"></circle>
<circle clip-path="url(#clip842)" cx="419.61" cy="882.699" r="14.4" fill="#0000ff" fill-rule="evenodd" fill-opacity="0.4" stroke="#000000" stroke-opacity="0.4" stroke-width="3.2"></circle>
<circle clip-path="url(#clip842)" cx="440.182" cy="1024.77" r="14.4" fill="#0000ff" fill-rule="evenodd" fill-opacity="0.4" stroke="#000000" stroke-opacity="0.4" stroke-width="3.2"></circle>
<circle clip-path="url(#clip842)" cx="460.754" cy="926.772" r="14.4" fill="#0000ff" fill-rule="evenodd" fill-opacity="0.4" stroke="#000000" stroke-opacity="0.4" stroke-width="3.2"></circle>
<circle clip-path="url(#clip842)" cx="481.326" cy="906.742" r="14.4" fill="#0000ff" fill-rule="evenodd" fill-opacity="0.4" stroke="#000000" stroke-opacity="0.4" stroke-width="3.2"></circle>
<circle clip-path="url(#clip842)" cx="501.898" cy="1135.2" r="14.4" fill="#0000ff" fill-rule="evenodd" fill-opacity="0.4" stroke="#000000" stroke-opacity="0.4" stroke-width="3.2"></circle>
<circle clip-path="url(#clip842)" cx="522.47" cy="1091.23" r="14.4" fill="#0000ff" fill-rule="evenodd" fill-opacity="0.4" stroke="#000000" stroke-opacity="0.4" stroke-width="3.2"></circle>
<circle clip-path="url(#clip842)" cx="543.042" cy="1311.4" r="14.4" fill="#0000ff" fill-rule="evenodd" fill-opacity="0.4" stroke="#000000" stroke-opacity="0.4" stroke-width="3.2"></circle>
<circle clip-path="url(#clip842)" cx="563.614" cy="1228.64" r="14.4" fill="#0000ff" fill-rule="evenodd" fill-opacity="0.4" stroke="#000000" stroke-opacity="0.4" stroke-width="3.2"></circle>
<circle clip-path="url(#clip842)" cx="584.186" cy="1117.44" r="14.4" fill="#0000ff" fill-rule="evenodd" fill-opacity="0.4" stroke="#000000" stroke-opacity="0.4" stroke-width="3.2"></circle>
<circle clip-path="url(#clip842)" cx="604.758" cy="1017.24" r="14.4" fill="#0000ff" fill-rule="evenodd" fill-opacity="0.4" stroke="#000000" stroke-opacity="0.4" stroke-width="3.2"></circle>
<circle clip-path="url(#clip842)" cx="625.33" cy="1175.12" r="14.4" fill="#0000ff" fill-rule="evenodd" fill-opacity="0.4" stroke="#000000" stroke-opacity="0.4" stroke-width="3.2"></circle>
<circle clip-path="url(#clip842)" cx="645.902" cy="1241.74" r="14.4" fill="#0000ff" fill-rule="evenodd" fill-opacity="0.4" stroke="#000000" stroke-opacity="0.4" stroke-width="3.2"></circle>
<circle clip-path="url(#clip842)" cx="666.474" cy="1288.79" r="14.4" fill="#0000ff" fill-rule="evenodd" fill-opacity="0.4" stroke="#000000" stroke-opacity="0.4" stroke-width="3.2"></circle>
<circle clip-path="url(#clip842)" cx="687.046" cy="1034.55" r="14.4" fill="#0000ff" fill-rule="evenodd" fill-opacity="0.4" stroke="#000000" stroke-opacity="0.4" stroke-width="3.2"></circle>
<circle clip-path="url(#clip842)" cx="707.617" cy="1284.35" r="14.4" fill="#0000ff" fill-rule="evenodd" fill-opacity="0.4" stroke="#000000" stroke-opacity="0.4" stroke-width="3.2"></circle>
<circle clip-path="url(#clip842)" cx="728.189" cy="1447.87" r="14.4" fill="#0000ff" fill-rule="evenodd" fill-opacity="0.4" stroke="#000000" stroke-opacity="0.4" stroke-width="3.2"></circle>
<circle clip-path="url(#clip842)" cx="748.761" cy="1203.17" r="14.4" fill="#0000ff" fill-rule="evenodd" fill-opacity="0.4" stroke="#000000" stroke-opacity="0.4" stroke-width="3.2"></circle>
<circle clip-path="url(#clip842)" cx="769.333" cy="999.218" r="14.4" fill="#0000ff" fill-rule="evenodd" fill-opacity="0.4" stroke="#000000" stroke-opacity="0.4" stroke-width="3.2"></circle>
<circle clip-path="url(#clip842)" cx="789.905" cy="1251.51" r="14.4" fill="#0000ff" fill-rule="evenodd" fill-opacity="0.4" stroke="#000000" stroke-opacity="0.4" stroke-width="3.2"></circle>
<circle clip-path="url(#clip842)" cx="810.477" cy="1110.77" r="14.4" fill="#0000ff" fill-rule="evenodd" fill-opacity="0.4" stroke="#000000" stroke-opacity="0.4" stroke-width="3.2"></circle>
<circle clip-path="url(#clip842)" cx="831.049" cy="1307.61" r="14.4" fill="#0000ff" fill-rule="evenodd" fill-opacity="0.4" stroke="#000000" stroke-opacity="0.4" stroke-width="3.2"></circle>
<circle clip-path="url(#clip842)" cx="851.621" cy="1024.74" r="14.4" fill="#0000ff" fill-rule="evenodd" fill-opacity="0.4" stroke="#000000" stroke-opacity="0.4" stroke-width="3.2"></circle>
<circle clip-path="url(#clip842)" cx="872.193" cy="1172.92" r="14.4" fill="#0000ff" fill-rule="evenodd" fill-opacity="0.4" stroke="#000000" stroke-opacity="0.4" stroke-width="3.2"></circle>
<circle clip-path="url(#clip842)" cx="892.765" cy="903.035" r="14.4" fill="#0000ff" fill-rule="evenodd" fill-opacity="0.4" stroke="#000000" stroke-opacity="0.4" stroke-width="3.2"></circle>
<circle clip-path="url(#clip842)" cx="913.337" cy="863.827" r="14.4" fill="#0000ff" fill-rule="evenodd" fill-opacity="0.4" stroke="#000000" stroke-opacity="0.4" stroke-width="3.2"></circle>
<circle clip-path="url(#clip842)" cx="933.909" cy="732.143" r="14.4" fill="#0000ff" fill-rule="evenodd" fill-opacity="0.4" stroke="#000000" stroke-opacity="0.4" stroke-width="3.2"></circle>
<circle clip-path="url(#clip842)" cx="954.481" cy="862.394" r="14.4" fill="#0000ff" fill-rule="evenodd" fill-opacity="0.4" stroke="#000000" stroke-opacity="0.4" stroke-width="3.2"></circle>
<circle clip-path="url(#clip842)" cx="975.053" cy="734.417" r="14.4" fill="#0000ff" fill-rule="evenodd" fill-opacity="0.4" stroke="#000000" stroke-opacity="0.4" stroke-width="3.2"></circle>
<circle clip-path="url(#clip842)" cx="995.625" cy="736.269" r="14.4" fill="#0000ff" fill-rule="evenodd" fill-opacity="0.4" stroke="#000000" stroke-opacity="0.4" stroke-width="3.2"></circle>
<circle clip-path="url(#clip842)" cx="1016.2" cy="803.452" r="14.4" fill="#0000ff" fill-rule="evenodd" fill-opacity="0.4" stroke="#000000" stroke-opacity="0.4" stroke-width="3.2"></circle>
<circle clip-path="url(#clip842)" cx="1036.77" cy="721.993" r="14.4" fill="#0000ff" fill-rule="evenodd" fill-opacity="0.4" stroke="#000000" stroke-opacity="0.4" stroke-width="3.2"></circle>
<circle clip-path="url(#clip842)" cx="1057.34" cy="646.953" r="14.4" fill="#0000ff" fill-rule="evenodd" fill-opacity="0.4" stroke="#000000" stroke-opacity="0.4" stroke-width="3.2"></circle>
<circle clip-path="url(#clip842)" cx="1077.91" cy="690.47" r="14.4" fill="#0000ff" fill-rule="evenodd" fill-opacity="0.4" stroke="#000000" stroke-opacity="0.4" stroke-width="3.2"></circle>
<circle clip-path="url(#clip842)" cx="1098.48" cy="624.53" r="14.4" fill="#0000ff" fill-rule="evenodd" fill-opacity="0.4" stroke="#000000" stroke-opacity="0.4" stroke-width="3.2"></circle>
<circle clip-path="url(#clip842)" cx="1119.06" cy="609.275" r="14.4" fill="#0000ff" fill-rule="evenodd" fill-opacity="0.4" stroke="#000000" stroke-opacity="0.4" stroke-width="3.2"></circle>
<circle clip-path="url(#clip842)" cx="1139.63" cy="530.276" r="14.4" fill="#0000ff" fill-rule="evenodd" fill-opacity="0.4" stroke="#000000" stroke-opacity="0.4" stroke-width="3.2"></circle>
<circle clip-path="url(#clip842)" cx="1160.2" cy="385.214" r="14.4" fill="#0000ff" fill-rule="evenodd" fill-opacity="0.4" stroke="#000000" stroke-opacity="0.4" stroke-width="3.2"></circle>
<circle clip-path="url(#clip842)" cx="1180.77" cy="571.248" r="14.4" fill="#0000ff" fill-rule="evenodd" fill-opacity="0.4" stroke="#000000" stroke-opacity="0.4" stroke-width="3.2"></circle>
<circle clip-path="url(#clip842)" cx="1201.34" cy="424.479" r="14.4" fill="#0000ff" fill-rule="evenodd" fill-opacity="0.4" stroke="#000000" stroke-opacity="0.4" stroke-width="3.2"></circle>
<circle clip-path="url(#clip842)" cx="1221.92" cy="439.268" r="14.4" fill="#0000ff" fill-rule="evenodd" fill-opacity="0.4" stroke="#000000" stroke-opacity="0.4" stroke-width="3.2"></circle>
<circle clip-path="url(#clip842)" cx="1242.49" cy="520.021" r="14.4" fill="#0000ff" fill-rule="evenodd" fill-opacity="0.4" stroke="#000000" stroke-opacity="0.4" stroke-width="3.2"></circle>
<circle clip-path="url(#clip842)" cx="1263.06" cy="302.376" r="14.4" fill="#0000ff" fill-rule="evenodd" fill-opacity="0.4" stroke="#000000" stroke-opacity="0.4" stroke-width="3.2"></circle>
<circle clip-path="url(#clip842)" cx="1283.63" cy="455.679" r="14.4" fill="#0000ff" fill-rule="evenodd" fill-opacity="0.4" stroke="#000000" stroke-opacity="0.4" stroke-width="3.2"></circle>
<circle clip-path="url(#clip842)" cx="1304.2" cy="186.982" r="14.4" fill="#0000ff" fill-rule="evenodd" fill-opacity="0.4" stroke="#000000" stroke-opacity="0.4" stroke-width="3.2"></circle>
<circle clip-path="url(#clip842)" cx="1324.78" cy="489.16" r="14.4" fill="#0000ff" fill-rule="evenodd" fill-opacity="0.4" stroke="#000000" stroke-opacity="0.4" stroke-width="3.2"></circle>
<circle clip-path="url(#clip842)" cx="1345.35" cy="472.026" r="14.4" fill="#0000ff" fill-rule="evenodd" fill-opacity="0.4" stroke="#000000" stroke-opacity="0.4" stroke-width="3.2"></circle>
<circle clip-path="url(#clip842)" cx="1365.92" cy="202.083" r="14.4" fill="#0000ff" fill-rule="evenodd" fill-opacity="0.4" stroke="#000000" stroke-opacity="0.4" stroke-width="3.2"></circle>
<circle clip-path="url(#clip842)" cx="1386.49" cy="340.106" r="14.4" fill="#0000ff" fill-rule="evenodd" fill-opacity="0.4" stroke="#000000" stroke-opacity="0.4" stroke-width="3.2"></circle>
<circle clip-path="url(#clip842)" cx="1407.06" cy="393.215" r="14.4" fill="#0000ff" fill-rule="evenodd" fill-opacity="0.4" stroke="#000000" stroke-opacity="0.4" stroke-width="3.2"></circle>
<circle clip-path="url(#clip842)" cx="1427.64" cy="178.281" r="14.4" fill="#0000ff" fill-rule="evenodd" fill-opacity="0.4" stroke="#000000" stroke-opacity="0.4" stroke-width="3.2"></circle>
<circle clip-path="url(#clip842)" cx="1448.21" cy="336.071" r="14.4" fill="#0000ff" fill-rule="evenodd" fill-opacity="0.4" stroke="#000000" stroke-opacity="0.4" stroke-width="3.2"></circle>
<circle clip-path="url(#clip842)" cx="1468.78" cy="162.047" r="14.4" fill="#0000ff" fill-rule="evenodd" fill-opacity="0.4" stroke="#000000" stroke-opacity="0.4" stroke-width="3.2"></circle>
<circle clip-path="url(#clip842)" cx="1489.35" cy="182.135" r="14.4" fill="#0000ff" fill-rule="evenodd" fill-opacity="0.4" stroke="#000000" stroke-opacity="0.4" stroke-width="3.2"></circle>
<circle clip-path="url(#clip842)" cx="1509.92" cy="415.779" r="14.4" fill="#0000ff" fill-rule="evenodd" fill-opacity="0.4" stroke="#000000" stroke-opacity="0.4" stroke-width="3.2"></circle>
<circle clip-path="url(#clip842)" cx="1530.5" cy="196.533" r="14.4" fill="#0000ff" fill-rule="evenodd" fill-opacity="0.4" stroke="#000000" stroke-opacity="0.4" stroke-width="3.2"></circle>
<circle clip-path="url(#clip842)" cx="1551.07" cy="436.166" r="14.4" fill="#0000ff" fill-rule="evenodd" fill-opacity="0.4" stroke="#000000" stroke-opacity="0.4" stroke-width="3.2"></circle>
<circle clip-path="url(#clip842)" cx="1571.64" cy="697.868" r="14.4" fill="#0000ff" fill-rule="evenodd" fill-opacity="0.4" stroke="#000000" stroke-opacity="0.4" stroke-width="3.2"></circle>
<circle clip-path="url(#clip842)" cx="1592.21" cy="357.032" r="14.4" fill="#0000ff" fill-rule="evenodd" fill-opacity="0.4" stroke="#000000" stroke-opacity="0.4" stroke-width="3.2"></circle>
<circle clip-path="url(#clip842)" cx="1612.78" cy="589.347" r="14.4" fill="#0000ff" fill-rule="evenodd" fill-opacity="0.4" stroke="#000000" stroke-opacity="0.4" stroke-width="3.2"></circle>
<circle clip-path="url(#clip842)" cx="1633.35" cy="400.669" r="14.4" fill="#0000ff" fill-rule="evenodd" fill-opacity="0.4" stroke="#000000" stroke-opacity="0.4" stroke-width="3.2"></circle>
<circle clip-path="url(#clip842)" cx="1653.93" cy="539.926" r="14.4" fill="#0000ff" fill-rule="evenodd" fill-opacity="0.4" stroke="#000000" stroke-opacity="0.4" stroke-width="3.2"></circle>
<circle clip-path="url(#clip842)" cx="1674.5" cy="905.072" r="14.4" fill="#0000ff" fill-rule="evenodd" fill-opacity="0.4" stroke="#000000" stroke-opacity="0.4" stroke-width="3.2"></circle>
<circle clip-path="url(#clip842)" cx="1695.07" cy="646.852" r="14.4" fill="#0000ff" fill-rule="evenodd" fill-opacity="0.4" stroke="#000000" stroke-opacity="0.4" stroke-width="3.2"></circle>
<circle clip-path="url(#clip842)" cx="1715.64" cy="655.311" r="14.4" fill="#0000ff" fill-rule="evenodd" fill-opacity="0.4" stroke="#000000" stroke-opacity="0.4" stroke-width="3.2"></circle>
<circle clip-path="url(#clip842)" cx="1736.21" cy="651.858" r="14.4" fill="#0000ff" fill-rule="evenodd" fill-opacity="0.4" stroke="#000000" stroke-opacity="0.4" stroke-width="3.2"></circle>
<circle clip-path="url(#clip842)" cx="1756.79" cy="523.614" r="14.4" fill="#0000ff" fill-rule="evenodd" fill-opacity="0.4" stroke="#000000" stroke-opacity="0.4" stroke-width="3.2"></circle>
<circle clip-path="url(#clip842)" cx="1777.36" cy="560.082" r="14.4" fill="#0000ff" fill-rule="evenodd" fill-opacity="0.4" stroke="#000000" stroke-opacity="0.4" stroke-width="3.2"></circle>
<circle clip-path="url(#clip842)" cx="1797.93" cy="644.927" r="14.4" fill="#0000ff" fill-rule="evenodd" fill-opacity="0.4" stroke="#000000" stroke-opacity="0.4" stroke-width="3.2"></circle>
<circle clip-path="url(#clip842)" cx="1818.5" cy="652.955" r="14.4" fill="#0000ff" fill-rule="evenodd" fill-opacity="0.4" stroke="#000000" stroke-opacity="0.4" stroke-width="3.2"></circle>
<circle clip-path="url(#clip842)" cx="1839.07" cy="718.12" r="14.4" fill="#0000ff" fill-rule="evenodd" fill-opacity="0.4" stroke="#000000" stroke-opacity="0.4" stroke-width="3.2"></circle>
<circle clip-path="url(#clip842)" cx="1859.65" cy="902.027" r="14.4" fill="#0000ff" fill-rule="evenodd" fill-opacity="0.4" stroke="#000000" stroke-opacity="0.4" stroke-width="3.2"></circle>
<circle clip-path="url(#clip842)" cx="1880.22" cy="918.519" r="14.4" fill="#0000ff" fill-rule="evenodd" fill-opacity="0.4" stroke="#000000" stroke-opacity="0.4" stroke-width="3.2"></circle>
<circle clip-path="url(#clip842)" cx="1900.79" cy="821.413" r="14.4" fill="#0000ff" fill-rule="evenodd" fill-opacity="0.4" stroke="#000000" stroke-opacity="0.4" stroke-width="3.2"></circle>
<circle clip-path="url(#clip842)" cx="1921.36" cy="684.433" r="14.4" fill="#0000ff" fill-rule="evenodd" fill-opacity="0.4" stroke="#000000" stroke-opacity="0.4" stroke-width="3.2"></circle>
<circle clip-path="url(#clip842)" cx="1941.93" cy="807.622" r="14.4" fill="#0000ff" fill-rule="evenodd" fill-opacity="0.4" stroke="#000000" stroke-opacity="0.4" stroke-width="3.2"></circle>
<circle clip-path="url(#clip842)" cx="1962.51" cy="944.872" r="14.4" fill="#0000ff" fill-rule="evenodd" fill-opacity="0.4" stroke="#000000" stroke-opacity="0.4" stroke-width="3.2"></circle>
<circle clip-path="url(#clip842)" cx="1983.08" cy="928.639" r="14.4" fill="#0000ff" fill-rule="evenodd" fill-opacity="0.4" stroke="#000000" stroke-opacity="0.4" stroke-width="3.2"></circle>
<circle clip-path="url(#clip842)" cx="2003.65" cy="1131.87" r="14.4" fill="#0000ff" fill-rule="evenodd" fill-opacity="0.4" stroke="#000000" stroke-opacity="0.4" stroke-width="3.2"></circle>
<circle clip-path="url(#clip842)" cx="2024.22" cy="1196.96" r="14.4" fill="#0000ff" fill-rule="evenodd" fill-opacity="0.4" stroke="#000000" stroke-opacity="0.4" stroke-width="3.2"></circle>
<circle clip-path="url(#clip842)" cx="2044.79" cy="1068.64" r="14.4" fill="#0000ff" fill-rule="evenodd" fill-opacity="0.4" stroke="#000000" stroke-opacity="0.4" stroke-width="3.2"></circle>
<circle clip-path="url(#clip842)" cx="2065.37" cy="1189.67" r="14.4" fill="#0000ff" fill-rule="evenodd" fill-opacity="0.4" stroke="#000000" stroke-opacity="0.4" stroke-width="3.2"></circle>
<circle clip-path="url(#clip842)" cx="2085.94" cy="1369.16" r="14.4" fill="#0000ff" fill-rule="evenodd" fill-opacity="0.4" stroke="#000000" stroke-opacity="0.4" stroke-width="3.2"></circle>
<circle clip-path="url(#clip842)" cx="2106.51" cy="1067.24" r="14.4" fill="#0000ff" fill-rule="evenodd" fill-opacity="0.4" stroke="#000000" stroke-opacity="0.4" stroke-width="3.2"></circle>
<circle clip-path="url(#clip842)" cx="2127.08" cy="1171.59" r="14.4" fill="#0000ff" fill-rule="evenodd" fill-opacity="0.4" stroke="#000000" stroke-opacity="0.4" stroke-width="3.2"></circle>
<circle clip-path="url(#clip842)" cx="2147.65" cy="1164.39" r="14.4" fill="#0000ff" fill-rule="evenodd" fill-opacity="0.4" stroke="#000000" stroke-opacity="0.4" stroke-width="3.2"></circle>
<circle clip-path="url(#clip842)" cx="2168.23" cy="1158.93" r="14.4" fill="#0000ff" fill-rule="evenodd" fill-opacity="0.4" stroke="#000000" stroke-opacity="0.4" stroke-width="3.2"></circle>
<circle clip-path="url(#clip842)" cx="2188.8" cy="1057.34" r="14.4" fill="#0000ff" fill-rule="evenodd" fill-opacity="0.4" stroke="#000000" stroke-opacity="0.4" stroke-width="3.2"></circle>
<circle clip-path="url(#clip842)" cx="2209.37" cy="1201.4" r="14.4" fill="#0000ff" fill-rule="evenodd" fill-opacity="0.4" stroke="#000000" stroke-opacity="0.4" stroke-width="3.2"></circle>
<circle clip-path="url(#clip842)" cx="2229.94" cy="1031.97" r="14.4" fill="#0000ff" fill-rule="evenodd" fill-opacity="0.4" stroke="#000000" stroke-opacity="0.4" stroke-width="3.2"></circle>
<circle clip-path="url(#clip842)" cx="2250.51" cy="902.559" r="14.4" fill="#0000ff" fill-rule="evenodd" fill-opacity="0.4" stroke="#000000" stroke-opacity="0.4" stroke-width="3.2"></circle>
<circle clip-path="url(#clip842)" cx="2271.09" cy="927.363" r="14.4" fill="#0000ff" fill-rule="evenodd" fill-opacity="0.4" stroke="#000000" stroke-opacity="0.4" stroke-width="3.2"></circle>
<circle clip-path="url(#clip842)" cx="2291.66" cy="904.197" r="14.4" fill="#0000ff" fill-rule="evenodd" fill-opacity="0.4" stroke="#000000" stroke-opacity="0.4" stroke-width="3.2"></circle>
<polyline clip-path="url(#clip842)" style="stroke:#ff0000; stroke-linecap:round; stroke-linejoin:round; stroke-width:8; stroke-opacity:0.4; fill:none" points="255.035,525.046 275.607,525.584 296.179,527.192 316.751,529.86 337.322,533.578 357.894,538.334 378.466,544.115 399.038,550.905 419.61,558.682 440.182,567.422 460.754,577.09 481.326,587.644 501.898,599.035 522.47,611.197 543.042,624.058 563.614,637.531 584.186,651.516 604.758,665.905 625.33,680.579 645.902,695.41 666.474,710.268 687.046,725.02 707.617,739.537 728.189,753.691 748.761,767.364 769.333,780.448 789.905,792.845 810.477,804.471 831.049,815.254 851.621,825.134 872.193,834.063 892.765,842.006 913.337,848.933 933.909,854.827 954.481,859.675 975.053,863.471 995.625,866.213 1016.2,867.904 1036.77,868.547 1057.34,868.151 1077.91,866.727 1098.48,864.287 1119.06,860.847 1139.63,856.426 1160.2,851.048 1180.77,844.739 1201.34,837.533 1221.92,829.469 1242.49,820.595 1263.06,810.965 1283.63,800.642 1304.2,789.7 1324.78,778.221 1345.35,766.294 1365.92,754.018 1386.49,741.497 1407.06,728.842 1427.64,716.165 1448.21,703.578 1468.78,691.194 1489.35,679.121 1509.92,667.46 1530.5,656.307 1551.07,645.747 1571.64,635.857 1592.21,626.704 1612.78,618.344 1633.35,610.826 1653.93,604.186 1674.5,598.455 1695.07,593.656 1715.64,589.803 1736.21,586.906 1756.79,584.971 1777.36,583.996 1797.93,583.977 1818.5,584.906 1839.07,586.77 1859.65,589.552 1880.22,593.232 1900.79,597.784 1921.36,603.177 1941.93,609.376 1962.51,616.338 1983.08,624.015 2003.65,632.351 2024.22,641.284 2044.79,650.744 2065.37,660.655 2085.94,670.934 2106.51,681.493 2127.08,692.239 2147.65,703.077 2168.23,713.91 2188.8,724.642 2209.37,735.176 2229.94,745.423 2250.51,755.295 2271.09,764.711 2291.66,773.598 "></polyline>
<polyline clip-path="url(#clip842)" style="stroke:#ff0000; stroke-linecap:round; stroke-linejoin:round; stroke-width:8; stroke-opacity:0.4; fill:none" points="255.035,713.506 275.607,748.974 296.179,784.119 316.751,818.933 337.322,853.392 357.894,887.447 378.466,921.019 399.038,953.989 419.61,986.196 440.182,1017.43 460.754,1047.44 481.326,1075.91 501.898,1102.5 522.47,1126.84 543.042,1148.52 563.614,1167.14 584.186,1182.32 604.758,1193.71 625.33,1201.04 645.902,1204.11 666.474,1202.81 687.046,1197.15 707.617,1187.24 728.189,1173.28 748.761,1155.57 769.333,1134.45 789.905,1110.32 810.477,1083.61 831.049,1054.73 851.621,1024.09 872.193,992.064 892.765,958.985 913.337,925.147 933.909,890.802 954.481,856.157 975.053,821.381 995.625,786.614 1016.2,751.968 1036.77,717.538 1057.34,683.409 1077.91,649.665 1098.48,616.393 1119.06,583.693 1139.63,551.681 1160.2,520.499 1180.77,490.313 1201.34,461.322 1221.92,433.751 1242.49,407.856 1263.06,383.916 1283.63,362.223 1304.2,343.08 1324.78,326.78 1345.35,313.598 1365.92,303.772 1386.49,297.494 1407.06,294.893 1427.64,296.029 1448.21,300.887 1468.78,309.379 1489.35,321.346 1509.92,336.571 1530.5,354.785 1551.07,375.688 1571.64,398.957 1592.21,424.264 1612.78,451.284 1633.35,479.709 1653.93,509.252 1674.5,539.65 1695.07,570.67 1715.64,602.104 1736.21,633.767 1756.79,665.498 1777.36,697.147 1797.93,728.58 1818.5,759.664 1839.07,790.269 1859.65,820.257 1880.22,849.482 1900.79,877.786 1921.36,904.994 1941.93,930.914 1962.51,955.339 1983.08,978.048 2003.65,998.81 2024.22,1017.39 2044.79,1033.56 2065.37,1047.1 2085.94,1057.82 2106.51,1065.55 2127.08,1070.18 2147.65,1071.62 2168.23,1069.85 2188.8,1064.92 2209.37,1056.9 2229.94,1045.92 2250.51,1032.18 2271.09,1015.89 2291.66,997.271 "></polyline>
<path clip-path="url(#clip840)" d="M1850.61 428.105 L2280.8 428.105 L2280.8 168.905 L1850.61 168.905  Z" fill="#ffffff" fill-rule="evenodd" fill-opacity="1"></path>
<polyline clip-path="url(#clip840)" style="stroke:#000000; stroke-linecap:round; stroke-linejoin:round; stroke-width:4; stroke-opacity:1; fill:none" points="1850.61,428.105 2280.8,428.105 2280.8,168.905 1850.61,168.905 1850.61,428.105 "></polyline>
<circle clip-path="url(#clip840)" cx="1946.56" cy="220.745" r="20.48" fill="#0000ff" fill-rule="evenodd" fill-opacity="0.4" stroke="#000000" stroke-opacity="0.4" stroke-width="4.55111"></circle>
<path clip-path="url(#clip840)" d="M2047.18 207.307 L2047.18 234.182 L2052.83 234.182 Q2059.98 234.182 2063.29 230.941 Q2066.62 227.701 2066.62 220.71 Q2066.62 213.766 2063.29 210.548 Q2059.98 207.307 2052.83 207.307 L2047.18 207.307 M2042.5 203.465 L2052.11 203.465 Q2062.16 203.465 2066.86 207.654 Q2071.55 211.821 2071.55 220.71 Q2071.55 229.645 2066.83 233.835 Q2062.11 238.025 2052.11 238.025 L2042.5 238.025 L2042.5 203.465 Z" fill="#000000" fill-rule="nonzero" fill-opacity="1"></path><path clip-path="url(#clip840)" d="M2090.61 224.992 Q2085.44 224.992 2083.45 226.173 Q2081.46 227.353 2081.46 230.201 Q2081.46 232.469 2082.94 233.812 Q2084.45 235.131 2087.02 235.131 Q2090.56 235.131 2092.69 232.631 Q2094.84 230.108 2094.84 225.941 L2094.84 224.992 L2090.61 224.992 M2099.1 223.233 L2099.1 238.025 L2094.84 238.025 L2094.84 234.089 Q2093.38 236.451 2091.21 237.585 Q2089.03 238.696 2085.88 238.696 Q2081.9 238.696 2079.54 236.474 Q2077.2 234.228 2077.2 230.478 Q2077.2 226.103 2080.12 223.881 Q2083.06 221.659 2088.87 221.659 L2094.84 221.659 L2094.84 221.242 Q2094.84 218.303 2092.9 216.705 Q2090.98 215.085 2087.48 215.085 Q2085.26 215.085 2083.15 215.617 Q2081.05 216.15 2079.1 217.215 L2079.1 213.279 Q2081.44 212.377 2083.64 211.937 Q2085.84 211.474 2087.92 211.474 Q2093.55 211.474 2096.32 214.391 Q2099.1 217.307 2099.1 223.233 Z" fill="#000000" fill-rule="nonzero" fill-opacity="1"></path><path clip-path="url(#clip840)" d="M2112.09 204.738 L2112.09 212.099 L2120.86 212.099 L2120.86 215.409 L2112.09 215.409 L2112.09 229.483 Q2112.09 232.654 2112.94 233.557 Q2113.82 234.46 2116.49 234.46 L2120.86 234.46 L2120.86 238.025 L2116.49 238.025 Q2111.55 238.025 2109.68 236.196 Q2107.8 234.344 2107.8 229.483 L2107.8 215.409 L2104.68 215.409 L2104.68 212.099 L2107.8 212.099 L2107.8 204.738 L2112.09 204.738 Z" fill="#000000" fill-rule="nonzero" fill-opacity="1"></path><path clip-path="url(#clip840)" d="M2138.24 224.992 Q2133.08 224.992 2131.09 226.173 Q2129.1 227.353 2129.1 230.201 Q2129.1 232.469 2130.58 233.812 Q2132.09 235.131 2134.66 235.131 Q2138.2 235.131 2140.33 232.631 Q2142.48 230.108 2142.48 225.941 L2142.48 224.992 L2138.24 224.992 M2146.74 223.233 L2146.74 238.025 L2142.48 238.025 L2142.48 234.089 Q2141.02 236.451 2138.85 237.585 Q2136.67 238.696 2133.52 238.696 Q2129.54 238.696 2127.18 236.474 Q2124.84 234.228 2124.84 230.478 Q2124.84 226.103 2127.76 223.881 Q2130.7 221.659 2136.51 221.659 L2142.48 221.659 L2142.48 221.242 Q2142.48 218.303 2140.54 216.705 Q2138.61 215.085 2135.12 215.085 Q2132.9 215.085 2130.79 215.617 Q2128.68 216.15 2126.74 217.215 L2126.74 213.279 Q2129.08 212.377 2131.28 211.937 Q2133.48 211.474 2135.56 211.474 Q2141.18 211.474 2143.96 214.391 Q2146.74 217.307 2146.74 223.233 Z" fill="#000000" fill-rule="nonzero" fill-opacity="1"></path><circle clip-path="url(#clip840)" cx="1946.56" cy="272.585" r="20.48" fill="#0000ff" fill-rule="evenodd" fill-opacity="0.4" stroke="#000000" stroke-opacity="0.4" stroke-width="4.55111"></circle>
<path clip-path="url(#clip840)" d="M2047.18 259.147 L2047.18 286.022 L2052.83 286.022 Q2059.98 286.022 2063.29 282.781 Q2066.62 279.541 2066.62 272.55 Q2066.62 265.606 2063.29 262.388 Q2059.98 259.147 2052.83 259.147 L2047.18 259.147 M2042.5 255.305 L2052.11 255.305 Q2062.16 255.305 2066.86 259.494 Q2071.55 263.661 2071.55 272.55 Q2071.55 281.485 2066.83 285.675 Q2062.11 289.865 2052.11 289.865 L2042.5 289.865 L2042.5 255.305 Z" fill="#000000" fill-rule="nonzero" fill-opacity="1"></path><path clip-path="url(#clip840)" d="M2090.61 276.832 Q2085.44 276.832 2083.45 278.013 Q2081.46 279.193 2081.46 282.041 Q2081.46 284.309 2082.94 285.652 Q2084.45 286.971 2087.02 286.971 Q2090.56 286.971 2092.69 284.471 Q2094.84 281.948 2094.84 277.781 L2094.84 276.832 L2090.61 276.832 M2099.1 275.073 L2099.1 289.865 L2094.84 289.865 L2094.84 285.929 Q2093.38 288.291 2091.21 289.425 Q2089.03 290.536 2085.88 290.536 Q2081.9 290.536 2079.54 288.314 Q2077.2 286.068 2077.2 282.318 Q2077.2 277.943 2080.12 275.721 Q2083.06 273.499 2088.87 273.499 L2094.84 273.499 L2094.84 273.082 Q2094.84 270.143 2092.9 268.545 Q2090.98 266.925 2087.48 266.925 Q2085.26 266.925 2083.15 267.457 Q2081.05 267.99 2079.1 269.055 L2079.1 265.119 Q2081.44 264.217 2083.64 263.777 Q2085.84 263.314 2087.92 263.314 Q2093.55 263.314 2096.32 266.231 Q2099.1 269.147 2099.1 275.073 Z" fill="#000000" fill-rule="nonzero" fill-opacity="1"></path><path clip-path="url(#clip840)" d="M2112.09 256.578 L2112.09 263.939 L2120.86 263.939 L2120.86 267.249 L2112.09 267.249 L2112.09 281.323 Q2112.09 284.494 2112.94 285.397 Q2113.82 286.3 2116.49 286.3 L2120.86 286.3 L2120.86 289.865 L2116.49 289.865 Q2111.55 289.865 2109.68 288.036 Q2107.8 286.184 2107.8 281.323 L2107.8 267.249 L2104.68 267.249 L2104.68 263.939 L2107.8 263.939 L2107.8 256.578 L2112.09 256.578 Z" fill="#000000" fill-rule="nonzero" fill-opacity="1"></path><path clip-path="url(#clip840)" d="M2138.24 276.832 Q2133.08 276.832 2131.09 278.013 Q2129.1 279.193 2129.1 282.041 Q2129.1 284.309 2130.58 285.652 Q2132.09 286.971 2134.66 286.971 Q2138.2 286.971 2140.33 284.471 Q2142.48 281.948 2142.48 277.781 L2142.48 276.832 L2138.24 276.832 M2146.74 275.073 L2146.74 289.865 L2142.48 289.865 L2142.48 285.929 Q2141.02 288.291 2138.85 289.425 Q2136.67 290.536 2133.52 290.536 Q2129.54 290.536 2127.18 288.314 Q2124.84 286.068 2124.84 282.318 Q2124.84 277.943 2127.76 275.721 Q2130.7 273.499 2136.51 273.499 L2142.48 273.499 L2142.48 273.082 Q2142.48 270.143 2140.54 268.545 Q2138.61 266.925 2135.12 266.925 Q2132.9 266.925 2130.79 267.457 Q2128.68 267.99 2126.74 269.055 L2126.74 265.119 Q2129.08 264.217 2131.28 263.777 Q2133.48 263.314 2135.56 263.314 Q2141.18 263.314 2143.96 266.231 Q2146.74 269.147 2146.74 275.073 Z" fill="#000000" fill-rule="nonzero" fill-opacity="1"></path><polyline clip-path="url(#clip840)" style="stroke:#ff0000; stroke-linecap:round; stroke-linejoin:round; stroke-width:8; stroke-opacity:0.4; fill:none" points="1874.6,324.425 2018.52,324.425 "></polyline>
<path clip-path="url(#clip840)" d="M2068.06 336.774 L2068.06 327.492 L2060.42 327.492 L2060.42 323.649 L2072.69 323.649 L2072.69 338.487 Q2069.98 340.408 2066.72 341.404 Q2063.45 342.376 2059.75 342.376 Q2051.65 342.376 2047.06 337.654 Q2042.5 332.908 2042.5 324.459 Q2042.5 315.987 2047.06 311.265 Q2051.65 306.52 2059.75 306.52 Q2063.13 306.52 2066.16 307.353 Q2069.22 308.186 2071.79 309.807 L2071.79 314.783 Q2069.19 312.584 2066.28 311.473 Q2063.36 310.362 2060.14 310.362 Q2053.8 310.362 2050.61 313.904 Q2047.43 317.446 2047.43 324.459 Q2047.43 331.45 2050.61 334.992 Q2053.8 338.533 2060.14 338.533 Q2062.62 338.533 2064.56 338.117 Q2066.51 337.677 2068.06 336.774 Z" fill="#000000" fill-rule="nonzero" fill-opacity="1"></path><path clip-path="url(#clip840)" d="M2074.75 307.145 L2103.99 307.145 L2103.99 311.08 L2091.72 311.08 L2091.72 341.705 L2087.02 341.705 L2087.02 311.08 L2074.75 311.08 L2074.75 307.145 Z" fill="#000000" fill-rule="nonzero" fill-opacity="1"></path><path clip-path="url(#clip840)" d="M2123.57 307.145 L2130.54 307.145 L2139.36 330.663 L2148.22 307.145 L2155.19 307.145 L2155.19 341.705 L2150.63 341.705 L2150.63 311.358 L2141.72 335.061 L2137.02 335.061 L2128.11 311.358 L2128.11 341.705 L2123.57 341.705 L2123.57 307.145 Z" fill="#000000" fill-rule="nonzero" fill-opacity="1"></path><path clip-path="url(#clip840)" d="M2174.33 318.765 Q2170.91 318.765 2168.92 321.45 Q2166.92 324.112 2166.92 328.765 Q2166.92 333.418 2168.89 336.103 Q2170.88 338.765 2174.33 338.765 Q2177.73 338.765 2179.73 336.08 Q2181.72 333.395 2181.72 328.765 Q2181.72 324.158 2179.73 321.473 Q2177.73 318.765 2174.33 318.765 M2174.33 315.154 Q2179.89 315.154 2183.06 318.765 Q2186.23 322.376 2186.23 328.765 Q2186.23 335.131 2183.06 338.765 Q2179.89 342.376 2174.33 342.376 Q2168.75 342.376 2165.58 338.765 Q2162.43 335.131 2162.43 328.765 Q2162.43 322.376 2165.58 318.765 Q2168.75 315.154 2174.33 315.154 Z" fill="#000000" fill-rule="nonzero" fill-opacity="1"></path><path clip-path="url(#clip840)" d="M2210.35 319.714 L2210.35 305.686 L2214.61 305.686 L2214.61 341.705 L2210.35 341.705 L2210.35 337.816 Q2209.01 340.131 2206.95 341.265 Q2204.91 342.376 2202.04 342.376 Q2197.34 342.376 2194.38 338.626 Q2191.44 334.876 2191.44 328.765 Q2191.44 322.654 2194.38 318.904 Q2197.34 315.154 2202.04 315.154 Q2204.91 315.154 2206.95 316.288 Q2209.01 317.399 2210.35 319.714 M2195.84 328.765 Q2195.84 333.464 2197.76 336.149 Q2199.7 338.811 2203.08 338.811 Q2206.46 338.811 2208.41 336.149 Q2210.35 333.464 2210.35 328.765 Q2210.35 324.066 2208.41 321.404 Q2206.46 318.719 2203.08 318.719 Q2199.7 318.719 2197.76 321.404 Q2195.84 324.066 2195.84 328.765 Z" fill="#000000" fill-rule="nonzero" fill-opacity="1"></path><path clip-path="url(#clip840)" d="M2245.56 327.677 L2245.56 329.76 L2225.98 329.76 Q2226.25 334.158 2228.61 336.473 Q2231 338.765 2235.23 338.765 Q2237.69 338.765 2239.98 338.163 Q2242.29 337.561 2244.56 336.357 L2244.56 340.385 Q2242.27 341.357 2239.86 341.867 Q2237.46 342.376 2234.98 342.376 Q2228.78 342.376 2225.14 338.765 Q2221.53 335.154 2221.53 328.996 Q2221.53 322.631 2224.96 318.904 Q2228.41 315.154 2234.24 315.154 Q2239.47 315.154 2242.5 318.533 Q2245.56 321.89 2245.56 327.677 M2241.3 326.427 Q2241.25 322.932 2239.33 320.848 Q2237.43 318.765 2234.29 318.765 Q2230.72 318.765 2228.57 320.779 Q2226.44 322.793 2226.11 326.45 L2241.3 326.427 Z" fill="#000000" fill-rule="nonzero" fill-opacity="1"></path><path clip-path="url(#clip840)" d="M2252.55 305.686 L2256.81 305.686 L2256.81 341.705 L2252.55 341.705 L2252.55 305.686 Z" fill="#000000" fill-rule="nonzero" fill-opacity="1"></path><polyline clip-path="url(#clip840)" style="stroke:#ff0000; stroke-linecap:round; stroke-linejoin:round; stroke-width:8; stroke-opacity:0.4; fill:none" points="1874.6,376.265 2018.52,376.265 "></polyline>
<path clip-path="url(#clip840)" d="M2068.06 388.614 L2068.06 379.332 L2060.42 379.332 L2060.42 375.489 L2072.69 375.489 L2072.69 390.327 Q2069.98 392.248 2066.72 393.244 Q2063.45 394.216 2059.75 394.216 Q2051.65 394.216 2047.06 389.494 Q2042.5 384.748 2042.5 376.299 Q2042.5 367.827 2047.06 363.105 Q2051.65 358.36 2059.75 358.36 Q2063.13 358.36 2066.16 359.193 Q2069.22 360.026 2071.79 361.647 L2071.79 366.623 Q2069.19 364.424 2066.28 363.313 Q2063.36 362.202 2060.14 362.202 Q2053.8 362.202 2050.61 365.744 Q2047.43 369.286 2047.43 376.299 Q2047.43 383.29 2050.61 386.832 Q2053.8 390.373 2060.14 390.373 Q2062.62 390.373 2064.56 389.957 Q2066.51 389.517 2068.06 388.614 Z" fill="#000000" fill-rule="nonzero" fill-opacity="1"></path><path clip-path="url(#clip840)" d="M2074.75 358.985 L2103.99 358.985 L2103.99 362.92 L2091.72 362.92 L2091.72 393.545 L2087.02 393.545 L2087.02 362.92 L2074.75 362.92 L2074.75 358.985 Z" fill="#000000" fill-rule="nonzero" fill-opacity="1"></path><path clip-path="url(#clip840)" d="M2123.57 358.985 L2130.54 358.985 L2139.36 382.503 L2148.22 358.985 L2155.19 358.985 L2155.19 393.545 L2150.63 393.545 L2150.63 363.198 L2141.72 386.901 L2137.02 386.901 L2128.11 363.198 L2128.11 393.545 L2123.57 393.545 L2123.57 358.985 Z" fill="#000000" fill-rule="nonzero" fill-opacity="1"></path><path clip-path="url(#clip840)" d="M2174.33 370.605 Q2170.91 370.605 2168.92 373.29 Q2166.92 375.952 2166.92 380.605 Q2166.92 385.258 2168.89 387.943 Q2170.88 390.605 2174.33 390.605 Q2177.73 390.605 2179.73 387.92 Q2181.72 385.235 2181.72 380.605 Q2181.72 375.998 2179.73 373.313 Q2177.73 370.605 2174.33 370.605 M2174.33 366.994 Q2179.89 366.994 2183.06 370.605 Q2186.23 374.216 2186.23 380.605 Q2186.23 386.971 2183.06 390.605 Q2179.89 394.216 2174.33 394.216 Q2168.75 394.216 2165.58 390.605 Q2162.43 386.971 2162.43 380.605 Q2162.43 374.216 2165.58 370.605 Q2168.75 366.994 2174.33 366.994 Z" fill="#000000" fill-rule="nonzero" fill-opacity="1"></path><path clip-path="url(#clip840)" d="M2210.35 371.554 L2210.35 357.526 L2214.61 357.526 L2214.61 393.545 L2210.35 393.545 L2210.35 389.656 Q2209.01 391.971 2206.95 393.105 Q2204.91 394.216 2202.04 394.216 Q2197.34 394.216 2194.38 390.466 Q2191.44 386.716 2191.44 380.605 Q2191.44 374.494 2194.38 370.744 Q2197.34 366.994 2202.04 366.994 Q2204.91 366.994 2206.95 368.128 Q2209.01 369.239 2210.35 371.554 M2195.84 380.605 Q2195.84 385.304 2197.76 387.989 Q2199.7 390.651 2203.08 390.651 Q2206.46 390.651 2208.41 387.989 Q2210.35 385.304 2210.35 380.605 Q2210.35 375.906 2208.41 373.244 Q2206.46 370.559 2203.08 370.559 Q2199.7 370.559 2197.76 373.244 Q2195.84 375.906 2195.84 380.605 Z" fill="#000000" fill-rule="nonzero" fill-opacity="1"></path><path clip-path="url(#clip840)" d="M2245.56 379.517 L2245.56 381.6 L2225.98 381.6 Q2226.25 385.998 2228.61 388.313 Q2231 390.605 2235.23 390.605 Q2237.69 390.605 2239.98 390.003 Q2242.29 389.401 2244.56 388.197 L2244.56 392.225 Q2242.27 393.197 2239.86 393.707 Q2237.46 394.216 2234.98 394.216 Q2228.78 394.216 2225.14 390.605 Q2221.53 386.994 2221.53 380.836 Q2221.53 374.471 2224.96 370.744 Q2228.41 366.994 2234.24 366.994 Q2239.47 366.994 2242.5 370.373 Q2245.56 373.73 2245.56 379.517 M2241.3 378.267 Q2241.25 374.772 2239.33 372.688 Q2237.43 370.605 2234.29 370.605 Q2230.72 370.605 2228.57 372.619 Q2226.44 374.633 2226.11 378.29 L2241.3 378.267 Z" fill="#000000" fill-rule="nonzero" fill-opacity="1"></path><path clip-path="url(#clip840)" d="M2252.55 357.526 L2256.81 357.526 L2256.81 393.545 L2252.55 393.545 L2252.55 357.526 Z" fill="#000000" fill-rule="nonzero" fill-opacity="1"></path></svg>