<svg xmlns="http://www.w3.org/2000/svg" xmlns:xlink="http://www.w3.org/1999/xlink" width="600" height="400" viewBox="0 0 2400 1600">
<defs>
  <clipPath id="clip000">
    <rect x="0" y="0" width="2400" height="1600"></rect>
  </clipPath>
</defs>
<path clip-path="url(#clip000)" d="M0 1600 L2400 1600 L2400 0 L0 0  Z" fill="#ffffff" fill-rule="evenodd" fill-opacity="1"></path>
<defs>
  <clipPath id="clip001">
    <rect x="480" y="0" width="1681" height="1600"></rect>
  </clipPath>
</defs>
<path clip-path="url(#clip000)" d="M199.283 1486.45 L2352.76 1486.45 L2352.76 123.472 L199.283 123.472  Z" fill="#ffffff" fill-rule="evenodd" fill-opacity="1"></path>
<defs>
  <clipPath id="clip002">
    <rect x="199" y="123" width="2154" height="1364"></rect>
  </clipPath>
</defs>
<polyline clip-path="url(#clip002)" style="stroke:#000000; stroke-linecap:round; stroke-linejoin:round; stroke-width:2; stroke-opacity:0.1; fill:none" points="223.778,1486.45 223.778,123.472 "></polyline>
<polyline clip-path="url(#clip002)" style="stroke:#000000; stroke-linecap:round; stroke-linejoin:round; stroke-width:2; stroke-opacity:0.1; fill:none" points="693.529,1486.45 693.529,123.472 "></polyline>
<polyline clip-path="url(#clip002)" style="stroke:#000000; stroke-linecap:round; stroke-linejoin:round; stroke-width:2; stroke-opacity:0.1; fill:none" points="1163.28,1486.45 1163.28,123.472 "></polyline>
<polyline clip-path="url(#clip002)" style="stroke:#000000; stroke-linecap:round; stroke-linejoin:round; stroke-width:2; stroke-opacity:0.1; fill:none" points="1633.03,1486.45 1633.03,123.472 "></polyline>
<polyline clip-path="url(#clip002)" style="stroke:#000000; stroke-linecap:round; stroke-linejoin:round; stroke-width:2; stroke-opacity:0.1; fill:none" points="2102.78,1486.45 2102.78,123.472 "></polyline>
<polyline clip-path="url(#clip000)" style="stroke:#000000; stroke-linecap:round; stroke-linejoin:round; stroke-width:4; stroke-opacity:1; fill:none" points="199.283,1486.45 2352.76,1486.45 "></polyline>
<polyline clip-path="url(#clip000)" style="stroke:#000000; stroke-linecap:round; stroke-linejoin:round; stroke-width:4; stroke-opacity:1; fill:none" points="223.778,1486.45 223.778,1467.55 "></polyline>
<polyline clip-path="url(#clip000)" style="stroke:#000000; stroke-linecap:round; stroke-linejoin:round; stroke-width:4; stroke-opacity:1; fill:none" points="693.529,1486.45 693.529,1467.55 "></polyline>
<polyline clip-path="url(#clip000)" style="stroke:#000000; stroke-linecap:round; stroke-linejoin:round; stroke-width:4; stroke-opacity:1; fill:none" points="1163.28,1486.45 1163.28,1467.55 "></polyline>
<polyline clip-path="url(#clip000)" style="stroke:#000000; stroke-linecap:round; stroke-linejoin:round; stroke-width:4; stroke-opacity:1; fill:none" points="1633.03,1486.45 1633.03,1467.55 "></polyline>
<polyline clip-path="url(#clip000)" style="stroke:#000000; stroke-linecap:round; stroke-linejoin:round; stroke-width:4; stroke-opacity:1; fill:none" points="2102.78,1486.45 2102.78,1467.55 "></polyline>
<path clip-path="url(#clip000)" d="M191.371 1548.13 L191.371 1543.87 Q193.13 1544.7 194.935 1545.14 Q196.741 1545.58 198.477 1545.58 Q203.107 1545.58 205.537 1542.48 Q207.991 1539.36 208.338 1533.01 Q206.996 1535.01 204.935 1536.07 Q202.875 1537.13 200.375 1537.13 Q195.19 1537.13 192.158 1534.01 Q189.148 1530.86 189.148 1525.42 Q189.148 1520.1 192.297 1516.88 Q195.445 1513.66 200.676 1513.66 Q206.671 1513.66 209.82 1518.27 Q212.991 1522.85 212.991 1531.6 Q212.991 1539.77 209.102 1544.66 Q205.236 1549.52 198.685 1549.52 Q196.926 1549.52 195.121 1549.17 Q193.315 1548.82 191.371 1548.13 M200.676 1533.48 Q203.824 1533.48 205.653 1531.32 Q207.505 1529.17 207.505 1525.42 Q207.505 1521.7 205.653 1519.54 Q203.824 1517.37 200.676 1517.37 Q197.528 1517.37 195.676 1519.54 Q193.847 1521.7 193.847 1525.42 Q193.847 1529.17 195.676 1531.32 Q197.528 1533.48 200.676 1533.48 Z" fill="#000000" fill-rule="nonzero" fill-opacity="1"></path><path clip-path="url(#clip000)" d="M221.394 1542.97 L226.278 1542.97 L226.278 1548.85 L221.394 1548.85 L221.394 1542.97 Z" fill="#000000" fill-rule="nonzero" fill-opacity="1"></path><path clip-path="url(#clip000)" d="M246.463 1517.37 Q242.852 1517.37 241.023 1520.93 Q239.218 1524.47 239.218 1531.6 Q239.218 1538.71 241.023 1542.27 Q242.852 1545.82 246.463 1545.82 Q250.097 1545.82 251.903 1542.27 Q253.731 1538.71 253.731 1531.6 Q253.731 1524.47 251.903 1520.93 Q250.097 1517.37 246.463 1517.37 M246.463 1513.66 Q252.273 1513.66 255.329 1518.27 Q258.407 1522.85 258.407 1531.6 Q258.407 1540.33 255.329 1544.94 Q252.273 1549.52 246.463 1549.52 Q240.653 1549.52 237.574 1544.94 Q234.519 1540.33 234.519 1531.6 Q234.519 1522.85 237.574 1518.27 Q240.653 1513.66 246.463 1513.66 Z" fill="#000000" fill-rule="nonzero" fill-opacity="1"></path><path clip-path="url(#clip000)" d="M661.619 1548.13 L661.619 1543.87 Q663.378 1544.7 665.184 1545.14 Q666.989 1545.58 668.726 1545.58 Q673.355 1545.58 675.786 1542.48 Q678.239 1539.36 678.587 1533.01 Q677.244 1535.01 675.184 1536.07 Q673.124 1537.13 670.624 1537.13 Q665.438 1537.13 662.406 1534.01 Q659.397 1530.86 659.397 1525.42 Q659.397 1520.1 662.545 1516.88 Q665.693 1513.66 670.925 1513.66 Q676.92 1513.66 680.068 1518.27 Q683.239 1522.85 683.239 1531.6 Q683.239 1539.77 679.35 1544.66 Q675.485 1549.52 668.934 1549.52 Q667.175 1549.52 665.369 1549.17 Q663.564 1548.82 661.619 1548.13 M670.925 1533.48 Q674.073 1533.48 675.901 1531.32 Q677.753 1529.17 677.753 1525.42 Q677.753 1521.7 675.901 1519.54 Q674.073 1517.37 670.925 1517.37 Q667.776 1517.37 665.925 1519.54 Q664.096 1521.7 664.096 1525.42 Q664.096 1529.17 665.925 1531.32 Q667.776 1533.48 670.925 1533.48 Z" fill="#000000" fill-rule="nonzero" fill-opacity="1"></path><path clip-path="url(#clip000)" d="M691.642 1542.97 L696.526 1542.97 L696.526 1548.85 L691.642 1548.85 L691.642 1542.97 Z" fill="#000000" fill-rule="nonzero" fill-opacity="1"></path><path clip-path="url(#clip000)" d="M706.758 1514.29 L725.114 1514.29 L725.114 1518.22 L711.04 1518.22 L711.04 1526.7 Q712.059 1526.35 713.077 1526.19 Q714.096 1526 715.114 1526 Q720.901 1526 724.281 1529.17 Q727.66 1532.34 727.66 1537.76 Q727.66 1543.34 724.188 1546.44 Q720.716 1549.52 714.397 1549.52 Q712.221 1549.52 709.952 1549.15 Q707.707 1548.78 705.299 1548.04 L705.299 1543.34 Q707.383 1544.47 709.605 1545.03 Q711.827 1545.58 714.304 1545.58 Q718.309 1545.58 720.647 1543.48 Q722.984 1541.37 722.984 1537.76 Q722.984 1534.15 720.647 1532.04 Q718.309 1529.94 714.304 1529.94 Q712.429 1529.94 710.554 1530.35 Q708.702 1530.77 706.758 1531.65 L706.758 1514.29 Z" fill="#000000" fill-rule="nonzero" fill-opacity="1"></path><path clip-path="url(#clip000)" d="M1115.35 1544.91 L1122.99 1544.91 L1122.99 1518.55 L1114.68 1520.21 L1114.68 1515.95 L1122.94 1514.29 L1127.62 1514.29 L1127.62 1544.91 L1135.26 1544.91 L1135.26 1548.85 L1115.35 1548.85 L1115.35 1544.91 Z" fill="#000000" fill-rule="nonzero" fill-opacity="1"></path><path clip-path="url(#clip000)" d="M1154.7 1517.37 Q1151.09 1517.37 1149.26 1520.93 Q1147.46 1524.47 1147.46 1531.6 Q1147.46 1538.71 1149.26 1542.27 Q1151.09 1545.82 1154.7 1545.82 Q1158.34 1545.82 1160.14 1542.27 Q1161.97 1538.71 1161.97 1531.6 Q1161.97 1524.47 1160.14 1520.93 Q1158.34 1517.37 1154.7 1517.37 M1154.7 1513.66 Q1160.51 1513.66 1163.57 1518.27 Q1166.65 1522.85 1166.65 1531.6 Q1166.65 1540.33 1163.57 1544.94 Q1160.51 1549.52 1154.7 1549.52 Q1148.89 1549.52 1145.81 1544.94 Q1142.76 1540.33 1142.76 1531.6 Q1142.76 1522.85 1145.81 1518.27 Q1148.89 1513.66 1154.7 1513.66 Z" fill="#000000" fill-rule="nonzero" fill-opacity="1"></path><path clip-path="url(#clip000)" d="M1174.86 1542.97 L1179.75 1542.97 L1179.75 1548.85 L1174.86 1548.85 L1174.86 1542.97 Z" fill="#000000" fill-rule="nonzero" fill-opacity="1"></path><path clip-path="url(#clip000)" d="M1199.93 1517.37 Q1196.32 1517.37 1194.49 1520.93 Q1192.69 1524.47 1192.69 1531.6 Q1192.69 1538.71 1194.49 1542.27 Q1196.32 1545.82 1199.93 1545.82 Q1203.57 1545.82 1205.37 1542.27 Q1207.2 1538.71 1207.2 1531.6 Q1207.2 1524.47 1205.37 1520.93 Q1203.57 1517.37 1199.93 1517.37 M1199.93 1513.66 Q1205.74 1513.66 1208.8 1518.27 Q1211.88 1522.85 1211.88 1531.6 Q1211.88 1540.33 1208.8 1544.94 Q1205.74 1549.52 1199.93 1549.52 Q1194.12 1549.52 1191.05 1544.94 Q1187.99 1540.33 1187.99 1531.6 Q1187.99 1522.85 1191.05 1518.27 Q1194.12 1513.66 1199.93 1513.66 Z" fill="#000000" fill-rule="nonzero" fill-opacity="1"></path><path clip-path="url(#clip000)" d="M1585.6 1544.91 L1593.24 1544.91 L1593.24 1518.55 L1584.93 1520.21 L1584.93 1515.95 L1593.19 1514.29 L1597.87 1514.29 L1597.87 1544.91 L1605.51 1544.91 L1605.51 1548.85 L1585.6 1548.85 L1585.6 1544.91 Z" fill="#000000" fill-rule="nonzero" fill-opacity="1"></path><path clip-path="url(#clip000)" d="M1624.95 1517.37 Q1621.34 1517.37 1619.51 1520.93 Q1617.71 1524.47 1617.71 1531.6 Q1617.71 1538.71 1619.51 1542.27 Q1621.34 1545.82 1624.95 1545.82 Q1628.59 1545.82 1630.39 1542.27 Q1632.22 1538.71 1632.22 1531.6 Q1632.22 1524.47 1630.39 1520.93 Q1628.59 1517.37 1624.95 1517.37 M1624.95 1513.66 Q1630.76 1513.66 1633.82 1518.27 Q1636.9 1522.85 1636.9 1531.6 Q1636.9 1540.33 1633.82 1544.94 Q1630.76 1549.52 1624.95 1549.52 Q1619.14 1549.52 1616.06 1544.94 Q1613.01 1540.33 1613.01 1531.6 Q1613.01 1522.85 1616.06 1518.27 Q1619.14 1513.66 1624.95 1513.66 Z" fill="#000000" fill-rule="nonzero" fill-opacity="1"></path><path clip-path="url(#clip000)" d="M1645.11 1542.97 L1650 1542.97 L1650 1548.85 L1645.11 1548.85 L1645.11 1542.97 Z" fill="#000000" fill-rule="nonzero" fill-opacity="1"></path><path clip-path="url(#clip000)" d="M1660.23 1514.29 L1678.59 1514.29 L1678.59 1518.22 L1664.51 1518.22 L1664.51 1526.7 Q1665.53 1526.35 1666.55 1526.19 Q1667.57 1526 1668.59 1526 Q1674.37 1526 1677.75 1529.17 Q1681.13 1532.34 1681.13 1537.76 Q1681.13 1543.34 1677.66 1546.44 Q1674.19 1549.52 1667.87 1549.52 Q1665.69 1549.52 1663.42 1549.15 Q1661.18 1548.78 1658.77 1548.04 L1658.77 1543.34 Q1660.85 1544.47 1663.08 1545.03 Q1665.3 1545.58 1667.78 1545.58 Q1671.78 1545.58 1674.12 1543.48 Q1676.46 1541.37 1676.46 1537.76 Q1676.46 1534.15 1674.12 1532.04 Q1671.78 1529.94 1667.78 1529.94 Q1665.9 1529.94 1664.03 1530.35 Q1662.17 1530.77 1660.23 1531.65 L1660.23 1514.29 Z" fill="#000000" fill-rule="nonzero" fill-opacity="1"></path><path clip-path="url(#clip000)" d="M2054.85 1544.91 L2062.49 1544.91 L2062.49 1518.55 L2054.18 1520.21 L2054.18 1515.95 L2062.45 1514.29 L2067.12 1514.29 L2067.12 1544.91 L2074.76 1544.91 L2074.76 1548.85 L2054.85 1548.85 L2054.85 1544.91 Z" fill="#000000" fill-rule="nonzero" fill-opacity="1"></path><path clip-path="url(#clip000)" d="M2085.01 1544.91 L2092.65 1544.91 L2092.65 1518.55 L2084.34 1520.21 L2084.34 1515.95 L2092.61 1514.29 L2097.28 1514.29 L2097.28 1544.91 L2104.92 1544.91 L2104.92 1548.85 L2085.01 1548.85 L2085.01 1544.91 Z" fill="#000000" fill-rule="nonzero" fill-opacity="1"></path><path clip-path="url(#clip000)" d="M2114.37 1542.97 L2119.25 1542.97 L2119.25 1548.85 L2114.37 1548.85 L2114.37 1542.97 Z" fill="#000000" fill-rule="nonzero" fill-opacity="1"></path><path clip-path="url(#clip000)" d="M2139.44 1517.37 Q2135.82 1517.37 2134 1520.93 Q2132.19 1524.47 2132.19 1531.6 Q2132.19 1538.71 2134 1542.27 Q2135.82 1545.82 2139.44 1545.82 Q2143.07 1545.82 2144.88 1542.27 Q2146.7 1538.71 2146.7 1531.6 Q2146.7 1524.47 2144.88 1520.93 Q2143.07 1517.37 2139.44 1517.37 M2139.44 1513.66 Q2145.25 1513.66 2148.3 1518.27 Q2151.38 1522.85 2151.38 1531.6 Q2151.38 1540.33 2148.3 1544.94 Q2145.25 1549.52 2139.44 1549.52 Q2133.63 1549.52 2130.55 1544.94 Q2127.49 1540.33 2127.49 1531.6 Q2127.49 1522.85 2130.55 1518.27 Q2133.63 1513.66 2139.44 1513.66 Z" fill="#000000" fill-rule="nonzero" fill-opacity="1"></path><polyline clip-path="url(#clip002)" style="stroke:#000000; stroke-linecap:round; stroke-linejoin:round; stroke-width:2; stroke-opacity:0.1; fill:none" points="199.283,1486.45 2352.76,1486.45 "></polyline>
<polyline clip-path="url(#clip002)" style="stroke:#000000; stroke-linecap:round; stroke-linejoin:round; stroke-width:2; stroke-opacity:0.1; fill:none" points="199.283,1153.69 2352.76,1153.69 "></polyline>
<polyline clip-path="url(#clip002)" style="stroke:#000000; stroke-linecap:round; stroke-linejoin:round; stroke-width:2; stroke-opacity:0.1; fill:none" points="199.283,820.932 2352.76,820.932 "></polyline>
<polyline clip-path="url(#clip002)" style="stroke:#000000; stroke-linecap:round; stroke-linejoin:round; stroke-width:2; stroke-opacity:0.1; fill:none" points="199.283,488.175 2352.76,488.175 "></polyline>
<polyline clip-path="url(#clip002)" style="stroke:#000000; stroke-linecap:round; stroke-linejoin:round; stroke-width:2; stroke-opacity:0.1; fill:none" points="199.283,155.417 2352.76,155.417 "></polyline>
<polyline clip-path="url(#clip000)" style="stroke:#000000; stroke-linecap:round; stroke-linejoin:round; stroke-width:4; stroke-opacity:1; fill:none" points="199.283,1486.45 199.283,123.472 "></polyline>
<polyline clip-path="url(#clip000)" style="stroke:#000000; stroke-linecap:round; stroke-linejoin:round; stroke-width:4; stroke-opacity:1; fill:none" points="199.283,1486.45 218.181,1486.45 "></polyline>
<polyline clip-path="url(#clip000)" style="stroke:#000000; stroke-linecap:round; stroke-linejoin:round; stroke-width:4; stroke-opacity:1; fill:none" points="199.283,1153.69 218.181,1153.69 "></polyline>
<polyline clip-path="url(#clip000)" style="stroke:#000000; stroke-linecap:round; stroke-linejoin:round; stroke-width:4; stroke-opacity:1; fill:none" points="199.283,820.932 218.181,820.932 "></polyline>
<polyline clip-path="url(#clip000)" style="stroke:#000000; stroke-linecap:round; stroke-linejoin:round; stroke-width:4; stroke-opacity:1; fill:none" points="199.283,488.175 218.181,488.175 "></polyline>
<polyline clip-path="url(#clip000)" style="stroke:#000000; stroke-linecap:round; stroke-linejoin:round; stroke-width:4; stroke-opacity:1; fill:none" points="199.283,155.417 218.181,155.417 "></polyline>
<path clip-path="url(#clip000)" d="M151.339 1472.25 Q147.728 1472.25 145.899 1475.81 Q144.093 1479.35 144.093 1486.48 Q144.093 1493.59 145.899 1497.15 Q147.728 1500.7 151.339 1500.7 Q154.973 1500.7 156.779 1497.15 Q158.607 1493.59 158.607 1486.48 Q158.607 1479.35 156.779 1475.81 Q154.973 1472.25 151.339 1472.25 M151.339 1468.54 Q157.149 1468.54 160.205 1473.15 Q163.283 1477.73 163.283 1486.48 Q163.283 1495.21 160.205 1499.82 Q157.149 1504.4 151.339 1504.4 Q145.529 1504.4 142.45 1499.82 Q139.394 1495.21 139.394 1486.48 Q139.394 1477.73 142.45 1473.15 Q145.529 1468.54 151.339 1468.54 Z" fill="#000000" fill-rule="nonzero" fill-opacity="1"></path><path clip-path="url(#clip000)" d="M85.0429 1167.03 L101.362 1167.03 L101.362 1170.97 L79.4179 1170.97 L79.4179 1167.03 Q82.0799 1164.28 86.6632 1159.65 Q91.2697 1155 92.4502 1153.66 Q94.6956 1151.13 95.5752 1149.4 Q96.478 1147.64 96.478 1145.95 Q96.478 1143.19 94.5336 1141.46 Q92.6123 1139.72 89.5104 1139.72 Q87.3114 1139.72 84.8577 1140.48 Q82.4271 1141.25 79.6494 1142.8 L79.6494 1138.08 Q82.4734 1136.94 84.9271 1136.36 Q87.3808 1135.79 89.4178 1135.79 Q94.7882 1135.79 97.9826 1138.47 Q101.177 1141.16 101.177 1145.65 Q101.177 1147.78 100.367 1149.7 Q99.5798 1151.6 97.4734 1154.19 Q96.8947 1154.86 93.7928 1158.08 Q90.691 1161.27 85.0429 1167.03 Z" fill="#000000" fill-rule="nonzero" fill-opacity="1"></path><path clip-path="url(#clip000)" d="M111.223 1136.41 L129.58 1136.41 L129.58 1140.35 L115.506 1140.35 L115.506 1148.82 Q116.524 1148.47 117.543 1148.31 Q118.561 1148.12 119.58 1148.12 Q125.367 1148.12 128.746 1151.29 Q132.126 1154.47 132.126 1159.88 Q132.126 1165.46 128.654 1168.56 Q125.182 1171.64 118.862 1171.64 Q116.686 1171.64 114.418 1171.27 Q112.172 1170.9 109.765 1170.16 L109.765 1165.46 Q111.848 1166.6 114.07 1167.15 Q116.293 1167.71 118.77 1167.71 Q122.774 1167.71 125.112 1165.6 Q127.45 1163.49 127.45 1159.88 Q127.45 1156.27 125.112 1154.16 Q122.774 1152.06 118.77 1152.06 Q116.895 1152.06 115.02 1152.47 Q113.168 1152.89 111.223 1153.77 L111.223 1136.41 Z" fill="#000000" fill-rule="nonzero" fill-opacity="1"></path><path clip-path="url(#clip000)" d="M151.339 1139.49 Q147.728 1139.49 145.899 1143.05 Q144.093 1146.6 144.093 1153.72 Q144.093 1160.83 145.899 1164.4 Q147.728 1167.94 151.339 1167.94 Q154.973 1167.94 156.779 1164.4 Q158.607 1160.83 158.607 1153.72 Q158.607 1146.6 156.779 1143.05 Q154.973 1139.49 151.339 1139.49 M151.339 1135.79 Q157.149 1135.79 160.205 1140.39 Q163.283 1144.97 163.283 1153.72 Q163.283 1162.45 160.205 1167.06 Q157.149 1171.64 151.339 1171.64 Q145.529 1171.64 142.45 1167.06 Q139.394 1162.45 139.394 1153.72 Q139.394 1144.97 142.45 1140.39 Q145.529 1135.79 151.339 1135.79 Z" fill="#000000" fill-rule="nonzero" fill-opacity="1"></path><path clip-path="url(#clip000)" d="M81.0614 803.652 L99.4178 803.652 L99.4178 807.588 L85.3438 807.588 L85.3438 816.06 Q86.3623 815.712 87.3808 815.55 Q88.3993 815.365 89.4178 815.365 Q95.2049 815.365 98.5845 818.537 Q101.964 821.708 101.964 827.124 Q101.964 832.703 98.4919 835.805 Q95.0197 838.884 88.7003 838.884 Q86.5243 838.884 84.2558 838.513 Q82.0105 838.143 79.6031 837.402 L79.6031 832.703 Q81.6864 833.837 83.9086 834.393 Q86.1308 834.949 88.6077 834.949 Q92.6123 834.949 94.9502 832.842 Q97.2882 830.736 97.2882 827.124 Q97.2882 823.513 94.9502 821.407 Q92.6123 819.3 88.6077 819.3 Q86.7327 819.3 84.8577 819.717 Q83.0058 820.134 81.0614 821.013 L81.0614 803.652 Z" fill="#000000" fill-rule="nonzero" fill-opacity="1"></path><path clip-path="url(#clip000)" d="M121.177 806.731 Q117.566 806.731 115.737 810.296 Q113.932 813.838 113.932 820.967 Q113.932 828.074 115.737 831.638 Q117.566 835.18 121.177 835.18 Q124.811 835.18 126.617 831.638 Q128.445 828.074 128.445 820.967 Q128.445 813.838 126.617 810.296 Q124.811 806.731 121.177 806.731 M121.177 803.027 Q126.987 803.027 130.043 807.634 Q133.121 812.217 133.121 820.967 Q133.121 829.694 130.043 834.3 Q126.987 838.884 121.177 838.884 Q115.367 838.884 112.288 834.3 Q109.233 829.694 109.233 820.967 Q109.233 812.217 112.288 807.634 Q115.367 803.027 121.177 803.027 Z" fill="#000000" fill-rule="nonzero" fill-opacity="1"></path><path clip-path="url(#clip000)" d="M151.339 806.731 Q147.728 806.731 145.899 810.296 Q144.093 813.838 144.093 820.967 Q144.093 828.074 145.899 831.638 Q147.728 835.18 151.339 835.18 Q154.973 835.18 156.779 831.638 Q158.607 828.074 158.607 820.967 Q158.607 813.838 156.779 810.296 Q154.973 806.731 151.339 806.731 M151.339 803.027 Q157.149 803.027 160.205 807.634 Q163.283 812.217 163.283 820.967 Q163.283 829.694 160.205 834.3 Q157.149 838.884 151.339 838.884 Q145.529 838.884 142.45 834.3 Q139.394 829.694 139.394 820.967 Q139.394 812.217 142.45 807.634 Q145.529 803.027 151.339 803.027 Z" fill="#000000" fill-rule="nonzero" fill-opacity="1"></path><path clip-path="url(#clip000)" d="M79.8346 470.895 L102.057 470.895 L102.057 472.885 L89.5104 505.455 L84.6262 505.455 L96.4317 474.83 L79.8346 474.83 L79.8346 470.895 Z" fill="#000000" fill-rule="nonzero" fill-opacity="1"></path><path clip-path="url(#clip000)" d="M111.223 470.895 L129.58 470.895 L129.58 474.83 L115.506 474.83 L115.506 483.302 Q116.524 482.955 117.543 482.793 Q118.561 482.608 119.58 482.608 Q125.367 482.608 128.746 485.779 Q132.126 488.95 132.126 494.367 Q132.126 499.945 128.654 503.047 Q125.182 506.126 118.862 506.126 Q116.686 506.126 114.418 505.756 Q112.172 505.385 109.765 504.644 L109.765 499.945 Q111.848 501.08 114.07 501.635 Q116.293 502.191 118.77 502.191 Q122.774 502.191 125.112 500.084 Q127.45 497.978 127.45 494.367 Q127.45 490.756 125.112 488.649 Q122.774 486.543 118.77 486.543 Q116.895 486.543 115.02 486.959 Q113.168 487.376 111.223 488.256 L111.223 470.895 Z" fill="#000000" fill-rule="nonzero" fill-opacity="1"></path><path clip-path="url(#clip000)" d="M151.339 473.973 Q147.728 473.973 145.899 477.538 Q144.093 481.08 144.093 488.209 Q144.093 495.316 145.899 498.881 Q147.728 502.422 151.339 502.422 Q154.973 502.422 156.779 498.881 Q158.607 495.316 158.607 488.209 Q158.607 481.08 156.779 477.538 Q154.973 473.973 151.339 473.973 M151.339 470.27 Q157.149 470.27 160.205 474.876 Q163.283 479.459 163.283 488.209 Q163.283 496.936 160.205 501.543 Q157.149 506.126 151.339 506.126 Q145.529 506.126 142.45 501.543 Q139.394 496.936 139.394 488.209 Q139.394 479.459 142.45 474.876 Q145.529 470.27 151.339 470.27 Z" fill="#000000" fill-rule="nonzero" fill-opacity="1"></path><path clip-path="url(#clip000)" d="M51.6634 168.762 L59.3023 168.762 L59.3023 142.396 L50.9921 144.063 L50.9921 139.804 L59.256 138.137 L63.9319 138.137 L63.9319 168.762 L71.5707 168.762 L71.5707 172.697 L51.6634 172.697 L51.6634 168.762 Z" fill="#000000" fill-rule="nonzero" fill-opacity="1"></path><path clip-path="url(#clip000)" d="M91.0151 141.216 Q87.404 141.216 85.5753 144.78 Q83.7697 148.322 83.7697 155.452 Q83.7697 162.558 85.5753 166.123 Q87.404 169.664 91.0151 169.664 Q94.6493 169.664 96.4548 166.123 Q98.2835 162.558 98.2835 155.452 Q98.2835 148.322 96.4548 144.78 Q94.6493 141.216 91.0151 141.216 M91.0151 137.512 Q96.8252 137.512 99.8808 142.118 Q102.959 146.702 102.959 155.452 Q102.959 164.178 99.8808 168.785 Q96.8252 173.368 91.0151 173.368 Q85.2049 173.368 82.1262 168.785 Q79.0707 164.178 79.0707 155.452 Q79.0707 146.702 82.1262 142.118 Q85.2049 137.512 91.0151 137.512 Z" fill="#000000" fill-rule="nonzero" fill-opacity="1"></path><path clip-path="url(#clip000)" d="M121.177 141.216 Q117.566 141.216 115.737 144.78 Q113.932 148.322 113.932 155.452 Q113.932 162.558 115.737 166.123 Q117.566 169.664 121.177 169.664 Q124.811 169.664 126.617 166.123 Q128.445 162.558 128.445 155.452 Q128.445 148.322 126.617 144.78 Q124.811 141.216 121.177 141.216 M121.177 137.512 Q126.987 137.512 130.043 142.118 Q133.121 146.702 133.121 155.452 Q133.121 164.178 130.043 168.785 Q126.987 173.368 121.177 173.368 Q115.367 173.368 112.288 168.785 Q109.233 164.178 109.233 155.452 Q109.233 146.702 112.288 142.118 Q115.367 137.512 121.177 137.512 Z" fill="#000000" fill-rule="nonzero" fill-opacity="1"></path><path clip-path="url(#clip000)" d="M151.339 141.216 Q147.728 141.216 145.899 144.78 Q144.093 148.322 144.093 155.452 Q144.093 162.558 145.899 166.123 Q147.728 169.664 151.339 169.664 Q154.973 169.664 156.779 166.123 Q158.607 162.558 158.607 155.452 Q158.607 148.322 156.779 144.78 Q154.973 141.216 151.339 141.216 M151.339 137.512 Q157.149 137.512 160.205 142.118 Q163.283 146.702 163.283 155.452 Q163.283 164.178 160.205 168.785 Q157.149 173.368 151.339 173.368 Q145.529 173.368 142.45 168.785 Q139.394 164.178 139.394 155.452 Q139.394 146.702 142.45 142.118 Q145.529 137.512 151.339 137.512 Z" fill="#000000" fill-rule="nonzero" fill-opacity="1"></path><path clip-path="url(#clip000)" d="M1140.38 35.3077 Q1142.85 31.1758 1148.96 27.5299 Q1151.35 26.1121 1158.73 26.1121 Q1166.99 26.1121 1172.13 32.6746 Q1177.32 39.2371 1177.32 49.9314 Q1177.32 60.6258 1172.13 67.1883 Q1166.99 73.7508 1158.73 73.7508 Q1153.74 73.7508 1150.14 71.8063 Q1146.57 69.8214 1144.22 65.7705 L1144.22 89.8329 L1136.73 89.8329 L1136.73 50.3365 Q1136.73 40.9789 1140.38 35.3077 M1169.58 49.9314 Q1169.58 41.7081 1166.18 37.0496 Q1162.82 32.3505 1156.9 32.3505 Q1150.99 32.3505 1147.59 37.0496 Q1144.22 41.7081 1144.22 49.9314 Q1144.22 58.1548 1147.59 62.8538 Q1150.99 67.5124 1156.9 67.5124 Q1162.82 67.5124 1166.18 62.8538 Q1169.58 58.1548 1169.58 49.9314 Z" fill="#000000" fill-rule="nonzero" fill-opacity="1"></path><path clip-path="url(#clip000)" d="M1207.58 9.62495 Q1202.15 18.942 1199.52 28.0566 Q1196.89 37.1711 1196.89 46.5287 Q1196.89 55.8863 1199.52 65.0818 Q1202.19 74.2369 1207.58 83.5134 L1201.1 83.5134 Q1195.02 73.9938 1191.98 64.7983 Q1188.99 55.6027 1188.99 46.5287 Q1188.99 37.4952 1191.98 28.3401 Q1194.98 19.1851 1201.1 9.62495 L1207.58 9.62495 Z" fill="#000000" fill-rule="nonzero" fill-opacity="1"></path><path clip-path="url(#clip000)" d="M1252.5 43.8146 L1226.7 43.8146 Q1227.31 55.9268 1230.1 61.0714 Q1233.59 67.3908 1239.62 67.3908 Q1245.7 67.3908 1249.06 61.0309 Q1252.02 55.4407 1252.5 43.8146 M1252.38 36.928 Q1251.25 25.4235 1249.06 21.3726 Q1245.58 14.9721 1239.62 14.9721 Q1233.42 14.9721 1230.14 21.2916 Q1227.55 26.3957 1226.78 36.928 L1252.38 36.928 M1239.62 8.89579 Q1249.34 8.89579 1254.89 17.4837 Q1260.44 26.0311 1260.44 41.1815 Q1260.44 56.2914 1254.89 64.8793 Q1249.34 73.5077 1239.62 73.5077 Q1229.86 73.5077 1224.35 64.8793 Q1218.8 56.2914 1218.8 41.1815 Q1218.8 26.0311 1224.35 17.4837 Q1229.86 8.89579 1239.62 8.89579 Z" fill="#000000" fill-rule="nonzero" fill-opacity="1"></path><path clip-path="url(#clip000)" d="M1271.3 68.12 L1279.56 68.12 L1279.56 43.369 L1270.53 45.0299 L1270.53 40.3308 L1279.85 38.7509 L1285.4 38.7509 L1285.4 68.12 L1293.7 68.12 L1293.7 72.576 L1271.3 72.576 L1271.3 68.12 Z" fill="#000000" fill-rule="nonzero" fill-opacity="1"></path><path clip-path="url(#clip000)" d="M1315.66 9.17935 L1315.66 92.1419 L1308.77 92.1419 L1308.77 9.17935 L1315.66 9.17935 Z" fill="#000000" fill-rule="nonzero" fill-opacity="1"></path><path clip-path="url(#clip000)" d="M1342.52 18.8205 L1342.52 65.8515 L1352.4 65.8515 Q1364.92 65.8515 1370.71 60.1802 Q1376.54 54.509 1376.54 42.2752 Q1376.54 30.1225 1370.71 24.4918 Q1364.92 18.8205 1352.4 18.8205 L1342.52 18.8205 M1334.33 12.096 L1351.14 12.096 Q1368.72 12.096 1376.95 19.4281 Q1385.17 26.7198 1385.17 42.2752 Q1385.17 57.9117 1376.91 65.2439 Q1368.64 72.576 1351.14 72.576 L1334.33 72.576 L1334.33 12.096 Z" fill="#000000" fill-rule="nonzero" fill-opacity="1"></path><path clip-path="url(#clip000)" d="M1396.72 9.62495 L1403.2 9.62495 Q1409.27 19.1851 1412.27 28.3401 Q1415.31 37.4952 1415.31 46.5287 Q1415.31 55.6027 1412.27 64.7983 Q1409.27 73.9938 1403.2 83.5134 L1396.72 83.5134 Q1402.1 74.2369 1404.74 65.0818 Q1407.41 55.8863 1407.41 46.5287 Q1407.41 37.1711 1404.74 28.0566 Q1402.1 18.942 1396.72 9.62495 Z" fill="#000000" fill-rule="nonzero" fill-opacity="1"></path><path clip-path="url(#clip002)" d="M317.728 1485.12 L317.728 1486.45 L336.518 1486.45 L336.518 1485.12 L317.728 1485.12 L317.728 1485.12  Z" fill="#009af9" fill-rule="evenodd" fill-opacity="1"></path>
<polyline clip-path="url(#clip002)" style="stroke:#000000; stroke-linecap:round; stroke-linejoin:round; stroke-width:4; stroke-opacity:1; fill:none" points="317.728,1485.12 317.728,1486.45 336.518,1486.45 336.518,1485.12 317.728,1485.12 "></polyline>
<path clip-path="url(#clip002)" d="M336.518 1486.45 L336.518 1486.45 L355.308 1486.45 L355.308 1486.45 L336.518 1486.45 L336.518 1486.45  Z" fill="#009af9" fill-rule="evenodd" fill-opacity="1"></path>
<polyline clip-path="url(#clip002)" style="stroke:#000000; stroke-linecap:round; stroke-linejoin:round; stroke-width:4; stroke-opacity:1; fill:none" points="336.518,1486.45 336.518,1486.45 355.308,1486.45 336.518,1486.45 "></polyline>
<path clip-path="url(#clip002)" d="M355.308 1485.12 L355.308 1486.45 L374.098 1486.45 L374.098 1485.12 L355.308 1485.12 L355.308 1485.12  Z" fill="#009af9" fill-rule="evenodd" fill-opacity="1"></path>
<polyline clip-path="url(#clip002)" style="stroke:#000000; stroke-linecap:round; stroke-linejoin:round; stroke-width:4; stroke-opacity:1; fill:none" points="355.308,1485.12 355.308,1486.45 374.098,1486.45 374.098,1485.12 355.308,1485.12 "></polyline>
<path clip-path="url(#clip002)" d="M374.098 1481.12 L374.098 1486.45 L392.888 1486.45 L392.888 1481.12 L374.098 1481.12 L374.098 1481.12  Z" fill="#009af9" fill-rule="evenodd" fill-opacity="1"></path>
<polyline clip-path="url(#clip002)" style="stroke:#000000; stroke-linecap:round; stroke-linejoin:round; stroke-width:4; stroke-opacity:1; fill:none" points="374.098,1481.12 374.098,1486.45 392.888,1486.45 392.888,1481.12 374.098,1481.12 "></polyline>
<path clip-path="url(#clip002)" d="M392.888 1479.79 L392.888 1486.45 L411.678 1486.45 L411.678 1479.79 L392.888 1479.79 L392.888 1479.79  Z" fill="#009af9" fill-rule="evenodd" fill-opacity="1"></path>
<polyline clip-path="url(#clip002)" style="stroke:#000000; stroke-linecap:round; stroke-linejoin:round; stroke-width:4; stroke-opacity:1; fill:none" points="392.888,1479.79 392.888,1486.45 411.678,1486.45 411.678,1479.79 392.888,1479.79 "></polyline>
<path clip-path="url(#clip002)" d="M411.678 1479.79 L411.678 1486.45 L430.468 1486.45 L430.468 1479.79 L411.678 1479.79 L411.678 1479.79  Z" fill="#009af9" fill-rule="evenodd" fill-opacity="1"></path>
<polyline clip-path="url(#clip002)" style="stroke:#000000; stroke-linecap:round; stroke-linejoin:round; stroke-width:4; stroke-opacity:1; fill:none" points="411.678,1479.79 411.678,1486.45 430.468,1486.45 430.468,1479.79 411.678,1479.79 "></polyline>
<path clip-path="url(#clip002)" d="M430.468 1481.12 L430.468 1486.45 L449.258 1486.45 L449.258 1481.12 L430.468 1481.12 L430.468 1481.12  Z" fill="#009af9" fill-rule="evenodd" fill-opacity="1"></path>
<polyline clip-path="url(#clip002)" style="stroke:#000000; stroke-linecap:round; stroke-linejoin:round; stroke-width:4; stroke-opacity:1; fill:none" points="430.468,1481.12 430.468,1486.45 449.258,1486.45 449.258,1481.12 430.468,1481.12 "></polyline>
<path clip-path="url(#clip002)" d="M449.258 1478.46 L449.258 1486.45 L468.048 1486.45 L468.048 1478.46 L449.258 1478.46 L449.258 1478.46  Z" fill="#009af9" fill-rule="evenodd" fill-opacity="1"></path>
<polyline clip-path="url(#clip002)" style="stroke:#000000; stroke-linecap:round; stroke-linejoin:round; stroke-width:4; stroke-opacity:1; fill:none" points="449.258,1478.46 449.258,1486.45 468.048,1486.45 468.048,1478.46 449.258,1478.46 "></polyline>
<path clip-path="url(#clip002)" d="M468.048 1477.13 L468.048 1486.45 L486.838 1486.45 L486.838 1477.13 L468.048 1477.13 L468.048 1477.13  Z" fill="#009af9" fill-rule="evenodd" fill-opacity="1"></path>
<polyline clip-path="url(#clip002)" style="stroke:#000000; stroke-linecap:round; stroke-linejoin:round; stroke-width:4; stroke-opacity:1; fill:none" points="468.048,1477.13 468.048,1486.45 486.838,1486.45 486.838,1477.13 468.048,1477.13 "></polyline>
<path clip-path="url(#clip002)" d="M486.838 1473.14 L486.838 1486.45 L505.628 1486.45 L505.628 1473.14 L486.838 1473.14 L486.838 1473.14  Z" fill="#009af9" fill-rule="evenodd" fill-opacity="1"></path>
<polyline clip-path="url(#clip002)" style="stroke:#000000; stroke-linecap:round; stroke-linejoin:round; stroke-width:4; stroke-opacity:1; fill:none" points="486.838,1473.14 486.838,1486.45 505.628,1486.45 505.628,1473.14 486.838,1473.14 "></polyline>
<path clip-path="url(#clip002)" d="M505.628 1471.81 L505.628 1486.45 L524.418 1486.45 L524.418 1471.81 L505.628 1471.81 L505.628 1471.81  Z" fill="#009af9" fill-rule="evenodd" fill-opacity="1"></path>
<polyline clip-path="url(#clip002)" style="stroke:#000000; stroke-linecap:round; stroke-linejoin:round; stroke-width:4; stroke-opacity:1; fill:none" points="505.628,1471.81 505.628,1486.45 524.418,1486.45 524.418,1471.81 505.628,1471.81 "></polyline>
<path clip-path="url(#clip002)" d="M524.418 1447.85 L524.418 1486.45 L543.208 1486.45 L543.208 1447.85 L524.418 1447.85 L524.418 1447.85  Z" fill="#009af9" fill-rule="evenodd" fill-opacity="1"></path>
<polyline clip-path="url(#clip002)" style="stroke:#000000; stroke-linecap:round; stroke-linejoin:round; stroke-width:4; stroke-opacity:1; fill:none" points="524.418,1447.85 524.418,1486.45 543.208,1486.45 543.208,1447.85 524.418,1447.85 "></polyline>
<path clip-path="url(#clip002)" d="M543.208 1454.5 L543.208 1486.45 L561.998 1486.45 L561.998 1454.5 L543.208 1454.5 L543.208 1454.5  Z" fill="#009af9" fill-rule="evenodd" fill-opacity="1"></path>
<polyline clip-path="url(#clip002)" style="stroke:#000000; stroke-linecap:round; stroke-linejoin:round; stroke-width:4; stroke-opacity:1; fill:none" points="543.208,1454.5 543.208,1486.45 561.998,1486.45 561.998,1454.5 543.208,1454.5 "></polyline>
<path clip-path="url(#clip002)" d="M561.998 1462.49 L561.998 1486.45 L580.788 1486.45 L580.788 1462.49 L561.998 1462.49 L561.998 1462.49  Z" fill="#009af9" fill-rule="evenodd" fill-opacity="1"></path>
<polyline clip-path="url(#clip002)" style="stroke:#000000; stroke-linecap:round; stroke-linejoin:round; stroke-width:4; stroke-opacity:1; fill:none" points="561.998,1462.49 561.998,1486.45 580.788,1486.45 580.788,1462.49 561.998,1462.49 "></polyline>
<path clip-path="url(#clip002)" d="M580.788 1426.55 L580.788 1486.45 L599.578 1486.45 L599.578 1426.55 L580.788 1426.55 L580.788 1426.55  Z" fill="#009af9" fill-rule="evenodd" fill-opacity="1"></path>
<polyline clip-path="url(#clip002)" style="stroke:#000000; stroke-linecap:round; stroke-linejoin:round; stroke-width:4; stroke-opacity:1; fill:none" points="580.788,1426.55 580.788,1486.45 599.578,1486.45 599.578,1426.55 580.788,1426.55 "></polyline>
<path clip-path="url(#clip002)" d="M599.578 1415.9 L599.578 1486.45 L618.369 1486.45 L618.369 1415.9 L599.578 1415.9 L599.578 1415.9  Z" fill="#009af9" fill-rule="evenodd" fill-opacity="1"></path>
<polyline clip-path="url(#clip002)" style="stroke:#000000; stroke-linecap:round; stroke-linejoin:round; stroke-width:4; stroke-opacity:1; fill:none" points="599.578,1415.9 599.578,1486.45 618.369,1486.45 618.369,1415.9 599.578,1415.9 "></polyline>
<path clip-path="url(#clip002)" d="M618.369 1409.25 L618.369 1486.45 L637.159 1486.45 L637.159 1409.25 L618.369 1409.25 L618.369 1409.25  Z" fill="#009af9" fill-rule="evenodd" fill-opacity="1"></path>
<polyline clip-path="url(#clip002)" style="stroke:#000000; stroke-linecap:round; stroke-linejoin:round; stroke-width:4; stroke-opacity:1; fill:none" points="618.369,1409.25 618.369,1486.45 637.159,1486.45 637.159,1409.25 618.369,1409.25 "></polyline>
<path clip-path="url(#clip002)" d="M637.159 1363.99 L637.159 1486.45 L655.949 1486.45 L655.949 1363.99 L637.159 1363.99 L637.159 1363.99  Z" fill="#009af9" fill-rule="evenodd" fill-opacity="1"></path>
<polyline clip-path="url(#clip002)" style="stroke:#000000; stroke-linecap:round; stroke-linejoin:round; stroke-width:4; stroke-opacity:1; fill:none" points="637.159,1363.99 637.159,1486.45 655.949,1486.45 655.949,1363.99 637.159,1363.99 "></polyline>
<path clip-path="url(#clip002)" d="M655.949 1312.08 L655.949 1486.45 L674.739 1486.45 L674.739 1312.08 L655.949 1312.08 L655.949 1312.08  Z" fill="#009af9" fill-rule="evenodd" fill-opacity="1"></path>
<polyline clip-path="url(#clip002)" style="stroke:#000000; stroke-linecap:round; stroke-linejoin:round; stroke-width:4; stroke-opacity:1; fill:none" points="655.949,1312.08 655.949,1486.45 674.739,1486.45 674.739,1312.08 655.949,1312.08 "></polyline>
<path clip-path="url(#clip002)" d="M674.739 1278.81 L674.739 1486.45 L693.529 1486.45 L693.529 1278.81 L674.739 1278.81 L674.739 1278.81  Z" fill="#009af9" fill-rule="evenodd" fill-opacity="1"></path>
<polyline clip-path="url(#clip002)" style="stroke:#000000; stroke-linecap:round; stroke-linejoin:round; stroke-width:4; stroke-opacity:1; fill:none" points="674.739,1278.81 674.739,1486.45 693.529,1486.45 693.529,1278.81 674.739,1278.81 "></polyline>
<path clip-path="url(#clip002)" d="M693.529 1254.85 L693.529 1486.45 L712.319 1486.45 L712.319 1254.85 L693.529 1254.85 L693.529 1254.85  Z" fill="#009af9" fill-rule="evenodd" fill-opacity="1"></path>
<polyline clip-path="url(#clip002)" style="stroke:#000000; stroke-linecap:round; stroke-linejoin:round; stroke-width:4; stroke-opacity:1; fill:none" points="693.529,1254.85 693.529,1486.45 712.319,1486.45 712.319,1254.85 693.529,1254.85 "></polyline>
<path clip-path="url(#clip002)" d="M712.319 1221.57 L712.319 1486.45 L731.109 1486.45 L731.109 1221.57 L712.319 1221.57 L712.319 1221.57  Z" fill="#009af9" fill-rule="evenodd" fill-opacity="1"></path>
<polyline clip-path="url(#clip002)" style="stroke:#000000; stroke-linecap:round; stroke-linejoin:round; stroke-width:4; stroke-opacity:1; fill:none" points="712.319,1221.57 712.319,1486.45 731.109,1486.45 731.109,1221.57 712.319,1221.57 "></polyline>
<path clip-path="url(#clip002)" d="M731.109 1139.05 L731.109 1486.45 L749.899 1486.45 L749.899 1139.05 L731.109 1139.05 L731.109 1139.05  Z" fill="#009af9" fill-rule="evenodd" fill-opacity="1"></path>
<polyline clip-path="url(#clip002)" style="stroke:#000000; stroke-linecap:round; stroke-linejoin:round; stroke-width:4; stroke-opacity:1; fill:none" points="731.109,1139.05 731.109,1486.45 749.899,1486.45 749.899,1139.05 731.109,1139.05 "></polyline>
<path clip-path="url(#clip002)" d="M749.899 1043.21 L749.899 1486.45 L768.689 1486.45 L768.689 1043.21 L749.899 1043.21 L749.899 1043.21  Z" fill="#009af9" fill-rule="evenodd" fill-opacity="1"></path>
<polyline clip-path="url(#clip002)" style="stroke:#000000; stroke-linecap:round; stroke-linejoin:round; stroke-width:4; stroke-opacity:1; fill:none" points="749.899,1043.21 749.899,1486.45 768.689,1486.45 768.689,1043.21 749.899,1043.21 "></polyline>
<path clip-path="url(#clip002)" d="M768.689 1036.56 L768.689 1486.45 L787.479 1486.45 L787.479 1036.56 L768.689 1036.56 L768.689 1036.56  Z" fill="#009af9" fill-rule="evenodd" fill-opacity="1"></path>
<polyline clip-path="url(#clip002)" style="stroke:#000000; stroke-linecap:round; stroke-linejoin:round; stroke-width:4; stroke-opacity:1; fill:none" points="768.689,1036.56 768.689,1486.45 787.479,1486.45 787.479,1036.56 768.689,1036.56 "></polyline>
<path clip-path="url(#clip002)" d="M787.479 942.056 L787.479 1486.45 L806.269 1486.45 L806.269 942.056 L787.479 942.056 L787.479 942.056  Z" fill="#009af9" fill-rule="evenodd" fill-opacity="1"></path>
<polyline clip-path="url(#clip002)" style="stroke:#000000; stroke-linecap:round; stroke-linejoin:round; stroke-width:4; stroke-opacity:1; fill:none" points="787.479,942.056 787.479,1486.45 806.269,1486.45 806.269,942.056 787.479,942.056 "></polyline>
<path clip-path="url(#clip002)" d="M806.269 906.118 L806.269 1486.45 L825.059 1486.45 L825.059 906.118 L806.269 906.118 L806.269 906.118  Z" fill="#009af9" fill-rule="evenodd" fill-opacity="1"></path>
<polyline clip-path="url(#clip002)" style="stroke:#000000; stroke-linecap:round; stroke-linejoin:round; stroke-width:4; stroke-opacity:1; fill:none" points="806.269,906.118 806.269,1486.45 825.059,1486.45 825.059,906.118 806.269,906.118 "></polyline>
<path clip-path="url(#clip002)" d="M825.059 779.67 L825.059 1486.45 L843.849 1486.45 L843.849 779.67 L825.059 779.67 L825.059 779.67  Z" fill="#009af9" fill-rule="evenodd" fill-opacity="1"></path>
<polyline clip-path="url(#clip002)" style="stroke:#000000; stroke-linecap:round; stroke-linejoin:round; stroke-width:4; stroke-opacity:1; fill:none" points="825.059,779.67 825.059,1486.45 843.849,1486.45 843.849,779.67 825.059,779.67 "></polyline>
<path clip-path="url(#clip002)" d="M843.849 717.112 L843.849 1486.45 L862.639 1486.45 L862.639 717.112 L843.849 717.112 L843.849 717.112  Z" fill="#009af9" fill-rule="evenodd" fill-opacity="1"></path>
<polyline clip-path="url(#clip002)" style="stroke:#000000; stroke-linecap:round; stroke-linejoin:round; stroke-width:4; stroke-opacity:1; fill:none" points="843.849,717.112 843.849,1486.45 862.639,1486.45 862.639,717.112 843.849,717.112 "></polyline>
<path clip-path="url(#clip002)" d="M862.639 654.553 L862.639 1486.45 L881.429 1486.45 L881.429 654.553 L862.639 654.553 L862.639 654.553  Z" fill="#009af9" fill-rule="evenodd" fill-opacity="1"></path>
<polyline clip-path="url(#clip002)" style="stroke:#000000; stroke-linecap:round; stroke-linejoin:round; stroke-width:4; stroke-opacity:1; fill:none" points="862.639,654.553 862.639,1486.45 881.429,1486.45 881.429,654.553 862.639,654.553 "></polyline>
<path clip-path="url(#clip002)" d="M881.429 594.657 L881.429 1486.45 L900.219 1486.45 L900.219 594.657 L881.429 594.657 L881.429 594.657  Z" fill="#009af9" fill-rule="evenodd" fill-opacity="1"></path>
<polyline clip-path="url(#clip002)" style="stroke:#000000; stroke-linecap:round; stroke-linejoin:round; stroke-width:4; stroke-opacity:1; fill:none" points="881.429,594.657 881.429,1486.45 900.219,1486.45 900.219,594.657 881.429,594.657 "></polyline>
<path clip-path="url(#clip002)" d="M900.219 418.961 L900.219 1486.45 L919.009 1486.45 L919.009 418.961 L900.219 418.961 L900.219 418.961  Z" fill="#009af9" fill-rule="evenodd" fill-opacity="1"></path>
<polyline clip-path="url(#clip002)" style="stroke:#000000; stroke-linecap:round; stroke-linejoin:round; stroke-width:4; stroke-opacity:1; fill:none" points="900.219,418.961 900.219,1486.45 919.009,1486.45 919.009,418.961 900.219,418.961 "></polyline>
<path clip-path="url(#clip002)" d="M919.009 385.685 L919.009 1486.45 L937.799 1486.45 L937.799 385.685 L919.009 385.685 L919.009 385.685  Z" fill="#009af9" fill-rule="evenodd" fill-opacity="1"></path>
<polyline clip-path="url(#clip002)" style="stroke:#000000; stroke-linecap:round; stroke-linejoin:round; stroke-width:4; stroke-opacity:1; fill:none" points="919.009,385.685 919.009,1486.45 937.799,1486.45 937.799,385.685 919.009,385.685 "></polyline>
<path clip-path="url(#clip002)" d="M937.799 293.844 L937.799 1486.45 L956.589 1486.45 L956.589 293.844 L937.799 293.844 L937.799 293.844  Z" fill="#009af9" fill-rule="evenodd" fill-opacity="1"></path>
<polyline clip-path="url(#clip002)" style="stroke:#000000; stroke-linecap:round; stroke-linejoin:round; stroke-width:4; stroke-opacity:1; fill:none" points="937.799,293.844 937.799,1486.45 956.589,1486.45 956.589,293.844 937.799,293.844 "></polyline>
<path clip-path="url(#clip002)" d="M956.589 223.299 L956.589 1486.45 L975.379 1486.45 L975.379 223.299 L956.589 223.299 L956.589 223.299  Z" fill="#009af9" fill-rule="evenodd" fill-opacity="1"></path>
<polyline clip-path="url(#clip002)" style="stroke:#000000; stroke-linecap:round; stroke-linejoin:round; stroke-width:4; stroke-opacity:1; fill:none" points="956.589,223.299 956.589,1486.45 975.379,1486.45 975.379,223.299 956.589,223.299 "></polyline>
<path clip-path="url(#clip002)" d="M975.379 299.168 L975.379 1486.45 L994.169 1486.45 L994.169 299.168 L975.379 299.168 L975.379 299.168  Z" fill="#009af9" fill-rule="evenodd" fill-opacity="1"></path>
<polyline clip-path="url(#clip002)" style="stroke:#000000; stroke-linecap:round; stroke-linejoin:round; stroke-width:4; stroke-opacity:1; fill:none" points="975.379,299.168 975.379,1486.45 994.169,1486.45 994.169,299.168 975.379,299.168 "></polyline>
<path clip-path="url(#clip002)" d="M994.169 183.369 L994.169 1486.45 L1012.96 1486.45 L1012.96 183.369 L994.169 183.369 L994.169 183.369  Z" fill="#009af9" fill-rule="evenodd" fill-opacity="1"></path>
<polyline clip-path="url(#clip002)" style="stroke:#000000; stroke-linecap:round; stroke-linejoin:round; stroke-width:4; stroke-opacity:1; fill:none" points="994.169,183.369 994.169,1486.45 1012.96,1486.45 1012.96,183.369 994.169,183.369 "></polyline>
<path clip-path="url(#clip002)" d="M1012.96 135.451 L1012.96 1486.45 L1031.75 1486.45 L1031.75 135.451 L1012.96 135.451 L1012.96 135.451  Z" fill="#009af9" fill-rule="evenodd" fill-opacity="1"></path>
<polyline clip-path="url(#clip002)" style="stroke:#000000; stroke-linecap:round; stroke-linejoin:round; stroke-width:4; stroke-opacity:1; fill:none" points="1012.96,135.451 1012.96,1486.45 1031.75,1486.45 1031.75,135.451 1012.96,135.451 "></polyline>
<path clip-path="url(#clip002)" d="M1031.75 207.327 L1031.75 1486.45 L1050.54 1486.45 L1050.54 207.327 L1031.75 207.327 L1031.75 207.327  Z" fill="#009af9" fill-rule="evenodd" fill-opacity="1"></path>
<polyline clip-path="url(#clip002)" style="stroke:#000000; stroke-linecap:round; stroke-linejoin:round; stroke-width:4; stroke-opacity:1; fill:none" points="1031.75,207.327 1031.75,1486.45 1050.54,1486.45 1050.54,207.327 1031.75,207.327 "></polyline>
<path clip-path="url(#clip002)" d="M1050.54 130.127 L1050.54 1486.45 L1069.33 1486.45 L1069.33 130.127 L1050.54 130.127 L1050.54 130.127  Z" fill="#009af9" fill-rule="evenodd" fill-opacity="1"></path>
<polyline clip-path="url(#clip002)" style="stroke:#000000; stroke-linecap:round; stroke-linejoin:round; stroke-width:4; stroke-opacity:1; fill:none" points="1050.54,130.127 1050.54,1486.45 1069.33,1486.45 1069.33,130.127 1050.54,130.127 "></polyline>
<path clip-path="url(#clip002)" d="M1069.33 123.472 L1069.33 1486.45 L1088.12 1486.45 L1088.12 123.472 L1069.33 123.472 L1069.33 123.472  Z" fill="#009af9" fill-rule="evenodd" fill-opacity="1"></path>
<polyline clip-path="url(#clip002)" style="stroke:#000000; stroke-linecap:round; stroke-linejoin:round; stroke-width:4; stroke-opacity:1; fill:none" points="1069.33,123.472 1069.33,1486.45 1088.12,1486.45 1088.12,123.472 1069.33,123.472 "></polyline>
<path clip-path="url(#clip002)" d="M1088.12 164.734 L1088.12 1486.45 L1106.91 1486.45 L1106.91 164.734 L1088.12 164.734 L1088.12 164.734  Z" fill="#009af9" fill-rule="evenodd" fill-opacity="1"></path>
<polyline clip-path="url(#clip002)" style="stroke:#000000; stroke-linecap:round; stroke-linejoin:round; stroke-width:4; stroke-opacity:1; fill:none" points="1088.12,164.734 1088.12,1486.45 1106.91,1486.45 1106.91,164.734 1088.12,164.734 "></polyline>
<path clip-path="url(#clip002)" d="M1106.91 233.948 L1106.91 1486.45 L1125.7 1486.45 L1125.7 233.948 L1106.91 233.948 L1106.91 233.948  Z" fill="#009af9" fill-rule="evenodd" fill-opacity="1"></path>
<polyline clip-path="url(#clip002)" style="stroke:#000000; stroke-linecap:round; stroke-linejoin:round; stroke-width:4; stroke-opacity:1; fill:none" points="1106.91,233.948 1106.91,1486.45 1125.7,1486.45 1125.7,233.948 1106.91,233.948 "></polyline>
<path clip-path="url(#clip002)" d="M1125.7 221.968 L1125.7 1486.45 L1144.49 1486.45 L1144.49 221.968 L1125.7 221.968 L1125.7 221.968  Z" fill="#009af9" fill-rule="evenodd" fill-opacity="1"></path>
<polyline clip-path="url(#clip002)" style="stroke:#000000; stroke-linecap:round; stroke-linejoin:round; stroke-width:4; stroke-opacity:1; fill:none" points="1125.7,221.968 1125.7,1486.45 1144.49,1486.45 1144.49,221.968 1125.7,221.968 "></polyline>
<path clip-path="url(#clip002)" d="M1144.49 292.513 L1144.49 1486.45 L1163.28 1486.45 L1163.28 292.513 L1144.49 292.513 L1144.49 292.513  Z" fill="#009af9" fill-rule="evenodd" fill-opacity="1"></path>
<polyline clip-path="url(#clip002)" style="stroke:#000000; stroke-linecap:round; stroke-linejoin:round; stroke-width:4; stroke-opacity:1; fill:none" points="1144.49,292.513 1144.49,1486.45 1163.28,1486.45 1163.28,292.513 1144.49,292.513 "></polyline>
<path clip-path="url(#clip002)" d="M1163.28 489.506 L1163.28 1486.45 L1182.07 1486.45 L1182.07 489.506 L1163.28 489.506 L1163.28 489.506  Z" fill="#009af9" fill-rule="evenodd" fill-opacity="1"></path>
<polyline clip-path="url(#clip002)" style="stroke:#000000; stroke-linecap:round; stroke-linejoin:round; stroke-width:4; stroke-opacity:1; fill:none" points="1163.28,489.506 1163.28,1486.45 1182.07,1486.45 1182.07,489.506 1163.28,489.506 "></polyline>
<path clip-path="url(#clip002)" d="M1182.07 492.168 L1182.07 1486.45 L1200.86 1486.45 L1200.86 492.168 L1182.07 492.168 L1182.07 492.168  Z" fill="#009af9" fill-rule="evenodd" fill-opacity="1"></path>
<polyline clip-path="url(#clip002)" style="stroke:#000000; stroke-linecap:round; stroke-linejoin:round; stroke-width:4; stroke-opacity:1; fill:none" points="1182.07,492.168 1182.07,1486.45 1200.86,1486.45 1200.86,492.168 1182.07,492.168 "></polyline>
<path clip-path="url(#clip002)" d="M1200.86 635.919 L1200.86 1486.45 L1219.65 1486.45 L1219.65 635.919 L1200.86 635.919 L1200.86 635.919  Z" fill="#009af9" fill-rule="evenodd" fill-opacity="1"></path>
<polyline clip-path="url(#clip002)" style="stroke:#000000; stroke-linecap:round; stroke-linejoin:round; stroke-width:4; stroke-opacity:1; fill:none" points="1200.86,635.919 1200.86,1486.45 1219.65,1486.45 1219.65,635.919 1200.86,635.919 "></polyline>
<path clip-path="url(#clip002)" d="M1219.65 658.547 L1219.65 1486.45 L1238.44 1486.45 L1238.44 658.547 L1219.65 658.547 L1219.65 658.547  Z" fill="#009af9" fill-rule="evenodd" fill-opacity="1"></path>
<polyline clip-path="url(#clip002)" style="stroke:#000000; stroke-linecap:round; stroke-linejoin:round; stroke-width:4; stroke-opacity:1; fill:none" points="1219.65,658.547 1219.65,1486.45 1238.44,1486.45 1238.44,658.547 1219.65,658.547 "></polyline>
<path clip-path="url(#clip002)" d="M1238.44 783.664 L1238.44 1486.45 L1257.23 1486.45 L1257.23 783.664 L1238.44 783.664 L1238.44 783.664  Z" fill="#009af9" fill-rule="evenodd" fill-opacity="1"></path>
<polyline clip-path="url(#clip002)" style="stroke:#000000; stroke-linecap:round; stroke-linejoin:round; stroke-width:4; stroke-opacity:1; fill:none" points="1238.44,783.664 1238.44,1486.45 1257.23,1486.45 1257.23,783.664 1238.44,783.664 "></polyline>
<path clip-path="url(#clip002)" d="M1257.23 940.725 L1257.23 1486.45 L1276.02 1486.45 L1276.02 940.725 L1257.23 940.725 L1257.23 940.725  Z" fill="#009af9" fill-rule="evenodd" fill-opacity="1"></path>
<polyline clip-path="url(#clip002)" style="stroke:#000000; stroke-linecap:round; stroke-linejoin:round; stroke-width:4; stroke-opacity:1; fill:none" points="1257.23,940.725 1257.23,1486.45 1276.02,1486.45 1276.02,940.725 1257.23,940.725 "></polyline>
<path clip-path="url(#clip002)" d="M1276.02 916.767 L1276.02 1486.45 L1294.81 1486.45 L1294.81 916.767 L1276.02 916.767 L1276.02 916.767  Z" fill="#009af9" fill-rule="evenodd" fill-opacity="1"></path>
<polyline clip-path="url(#clip002)" style="stroke:#000000; stroke-linecap:round; stroke-linejoin:round; stroke-width:4; stroke-opacity:1; fill:none" points="1276.02,916.767 1276.02,1486.45 1294.81,1486.45 1294.81,916.767 1276.02,916.767 "></polyline>
<path clip-path="url(#clip002)" d="M1294.81 999.291 L1294.81 1486.45 L1313.6 1486.45 L1313.6 999.291 L1294.81 999.291 L1294.81 999.291  Z" fill="#009af9" fill-rule="evenodd" fill-opacity="1"></path>
<polyline clip-path="url(#clip002)" style="stroke:#000000; stroke-linecap:round; stroke-linejoin:round; stroke-width:4; stroke-opacity:1; fill:none" points="1294.81,999.291 1294.81,1486.45 1313.6,1486.45 1313.6,999.291 1294.81,999.291 "></polyline>
<path clip-path="url(#clip002)" d="M1313.6 1092.46 L1313.6 1486.45 L1332.39 1486.45 L1332.39 1092.46 L1313.6 1092.46 L1313.6 1092.46  Z" fill="#009af9" fill-rule="evenodd" fill-opacity="1"></path>
<polyline clip-path="url(#clip002)" style="stroke:#000000; stroke-linecap:round; stroke-linejoin:round; stroke-width:4; stroke-opacity:1; fill:none" points="1313.6,1092.46 1313.6,1486.45 1332.39,1486.45 1332.39,1092.46 1313.6,1092.46 "></polyline>
<path clip-path="url(#clip002)" d="M1332.39 1174.99 L1332.39 1486.45 L1351.18 1486.45 L1351.18 1174.99 L1332.39 1174.99 L1332.39 1174.99  Z" fill="#009af9" fill-rule="evenodd" fill-opacity="1"></path>
<polyline clip-path="url(#clip002)" style="stroke:#000000; stroke-linecap:round; stroke-linejoin:round; stroke-width:4; stroke-opacity:1; fill:none" points="1332.39,1174.99 1332.39,1486.45 1351.18,1486.45 1351.18,1174.99 1332.39,1174.99 "></polyline>
<path clip-path="url(#clip002)" d="M1351.18 1213.59 L1351.18 1486.45 L1369.97 1486.45 L1369.97 1213.59 L1351.18 1213.59 L1351.18 1213.59  Z" fill="#009af9" fill-rule="evenodd" fill-opacity="1"></path>
<polyline clip-path="url(#clip002)" style="stroke:#000000; stroke-linecap:round; stroke-linejoin:round; stroke-width:4; stroke-opacity:1; fill:none" points="1351.18,1213.59 1351.18,1486.45 1369.97,1486.45 1369.97,1213.59 1351.18,1213.59 "></polyline>
<path clip-path="url(#clip002)" d="M1369.97 1250.86 L1369.97 1486.45 L1388.76 1486.45 L1388.76 1250.86 L1369.97 1250.86 L1369.97 1250.86  Z" fill="#009af9" fill-rule="evenodd" fill-opacity="1"></path>
<polyline clip-path="url(#clip002)" style="stroke:#000000; stroke-linecap:round; stroke-linejoin:round; stroke-width:4; stroke-opacity:1; fill:none" points="1369.97,1250.86 1369.97,1486.45 1388.76,1486.45 1388.76,1250.86 1369.97,1250.86 "></polyline>
<path clip-path="url(#clip002)" d="M1388.76 1270.82 L1388.76 1486.45 L1407.55 1486.45 L1407.55 1270.82 L1388.76 1270.82 L1388.76 1270.82  Z" fill="#009af9" fill-rule="evenodd" fill-opacity="1"></path>
<polyline clip-path="url(#clip002)" style="stroke:#000000; stroke-linecap:round; stroke-linejoin:round; stroke-width:4; stroke-opacity:1; fill:none" points="1388.76,1270.82 1388.76,1486.45 1407.55,1486.45 1407.55,1270.82 1388.76,1270.82 "></polyline>
<path clip-path="url(#clip002)" d="M1407.55 1328.06 L1407.55 1486.45 L1426.34 1486.45 L1426.34 1328.06 L1407.55 1328.06 L1407.55 1328.06  Z" fill="#009af9" fill-rule="evenodd" fill-opacity="1"></path>
<polyline clip-path="url(#clip002)" style="stroke:#000000; stroke-linecap:round; stroke-linejoin:round; stroke-width:4; stroke-opacity:1; fill:none" points="1407.55,1328.06 1407.55,1486.45 1426.34,1486.45 1426.34,1328.06 1407.55,1328.06 "></polyline>
<path clip-path="url(#clip002)" d="M1426.34 1363.99 L1426.34 1486.45 L1445.13 1486.45 L1445.13 1363.99 L1426.34 1363.99 L1426.34 1363.99  Z" fill="#009af9" fill-rule="evenodd" fill-opacity="1"></path>
<polyline clip-path="url(#clip002)" style="stroke:#000000; stroke-linecap:round; stroke-linejoin:round; stroke-width:4; stroke-opacity:1; fill:none" points="1426.34,1363.99 1426.34,1486.45 1445.13,1486.45 1445.13,1363.99 1426.34,1363.99 "></polyline>
<path clip-path="url(#clip002)" d="M1445.13 1374.64 L1445.13 1486.45 L1463.92 1486.45 L1463.92 1374.64 L1445.13 1374.64 L1445.13 1374.64  Z" fill="#009af9" fill-rule="evenodd" fill-opacity="1"></path>
<polyline clip-path="url(#clip002)" style="stroke:#000000; stroke-linecap:round; stroke-linejoin:round; stroke-width:4; stroke-opacity:1; fill:none" points="1445.13,1374.64 1445.13,1486.45 1463.92,1486.45 1463.92,1374.64 1445.13,1374.64 "></polyline>
<path clip-path="url(#clip002)" d="M1463.92 1387.95 L1463.92 1486.45 L1482.71 1486.45 L1482.71 1387.95 L1463.92 1387.95 L1463.92 1387.95  Z" fill="#009af9" fill-rule="evenodd" fill-opacity="1"></path>
<polyline clip-path="url(#clip002)" style="stroke:#000000; stroke-linecap:round; stroke-linejoin:round; stroke-width:4; stroke-opacity:1; fill:none" points="1463.92,1387.95 1463.92,1486.45 1482.71,1486.45 1482.71,1387.95 1463.92,1387.95 "></polyline>
<path clip-path="url(#clip002)" d="M1482.71 1426.55 L1482.71 1486.45 L1501.5 1486.45 L1501.5 1426.55 L1482.71 1426.55 L1482.71 1426.55  Z" fill="#009af9" fill-rule="evenodd" fill-opacity="1"></path>
<polyline clip-path="url(#clip002)" style="stroke:#000000; stroke-linecap:round; stroke-linejoin:round; stroke-width:4; stroke-opacity:1; fill:none" points="1482.71,1426.55 1482.71,1486.45 1501.5,1486.45 1501.5,1426.55 1482.71,1426.55 "></polyline>
<path clip-path="url(#clip002)" d="M1501.5 1442.52 L1501.5 1486.45 L1520.29 1486.45 L1520.29 1442.52 L1501.5 1442.52 L1501.5 1442.52  Z" fill="#009af9" fill-rule="evenodd" fill-opacity="1"></path>
<polyline clip-path="url(#clip002)" style="stroke:#000000; stroke-linecap:round; stroke-linejoin:round; stroke-width:4; stroke-opacity:1; fill:none" points="1501.5,1442.52 1501.5,1486.45 1520.29,1486.45 1520.29,1442.52 1501.5,1442.52 "></polyline>
<path clip-path="url(#clip002)" d="M1520.29 1442.52 L1520.29 1486.45 L1539.08 1486.45 L1539.08 1442.52 L1520.29 1442.52 L1520.29 1442.52  Z" fill="#009af9" fill-rule="evenodd" fill-opacity="1"></path>
<polyline clip-path="url(#clip002)" style="stroke:#000000; stroke-linecap:round; stroke-linejoin:round; stroke-width:4; stroke-opacity:1; fill:none" points="1520.29,1442.52 1520.29,1486.45 1539.08,1486.45 1539.08,1442.52 1520.29,1442.52 "></polyline>
<path clip-path="url(#clip002)" d="M1539.08 1462.49 L1539.08 1486.45 L1557.87 1486.45 L1557.87 1462.49 L1539.08 1462.49 L1539.08 1462.49  Z" fill="#009af9" fill-rule="evenodd" fill-opacity="1"></path>
<polyline clip-path="url(#clip002)" style="stroke:#000000; stroke-linecap:round; stroke-linejoin:round; stroke-width:4; stroke-opacity:1; fill:none" points="1539.08,1462.49 1539.08,1486.45 1557.87,1486.45 1557.87,1462.49 1539.08,1462.49 "></polyline>
<path clip-path="url(#clip002)" d="M1557.87 1457.17 L1557.87 1486.45 L1576.66 1486.45 L1576.66 1457.17 L1557.87 1457.17 L1557.87 1457.17  Z" fill="#009af9" fill-rule="evenodd" fill-opacity="1"></path>
<polyline clip-path="url(#clip002)" style="stroke:#000000; stroke-linecap:round; stroke-linejoin:round; stroke-width:4; stroke-opacity:1; fill:none" points="1557.87,1457.17 1557.87,1486.45 1576.66,1486.45 1576.66,1457.17 1557.87,1457.17 "></polyline>
<path clip-path="url(#clip002)" d="M1576.66 1475.8 L1576.66 1486.45 L1595.45 1486.45 L1595.45 1475.8 L1576.66 1475.8 L1576.66 1475.8  Z" fill="#009af9" fill-rule="evenodd" fill-opacity="1"></path>
<polyline clip-path="url(#clip002)" style="stroke:#000000; stroke-linecap:round; stroke-linejoin:round; stroke-width:4; stroke-opacity:1; fill:none" points="1576.66,1475.8 1576.66,1486.45 1595.45,1486.45 1595.45,1475.8 1576.66,1475.8 "></polyline>
<path clip-path="url(#clip002)" d="M1595.45 1477.13 L1595.45 1486.45 L1614.24 1486.45 L1614.24 1477.13 L1595.45 1477.13 L1595.45 1477.13  Z" fill="#009af9" fill-rule="evenodd" fill-opacity="1"></path>
<polyline clip-path="url(#clip002)" style="stroke:#000000; stroke-linecap:round; stroke-linejoin:round; stroke-width:4; stroke-opacity:1; fill:none" points="1595.45,1477.13 1595.45,1486.45 1614.24,1486.45 1614.24,1477.13 1595.45,1477.13 "></polyline>
<path clip-path="url(#clip002)" d="M1614.24 1483.79 L1614.24 1486.45 L1633.03 1486.45 L1633.03 1483.79 L1614.24 1483.79 L1614.24 1483.79  Z" fill="#009af9" fill-rule="evenodd" fill-opacity="1"></path>
<polyline clip-path="url(#clip002)" style="stroke:#000000; stroke-linecap:round; stroke-linejoin:round; stroke-width:4; stroke-opacity:1; fill:none" points="1614.24,1483.79 1614.24,1486.45 1633.03,1486.45 1633.03,1483.79 1614.24,1483.79 "></polyline>
<path clip-path="url(#clip002)" d="M1633.03 1478.46 L1633.03 1486.45 L1651.82 1486.45 L1651.82 1478.46 L1633.03 1478.46 L1633.03 1478.46  Z" fill="#009af9" fill-rule="evenodd" fill-opacity="1"></path>
<polyline clip-path="url(#clip002)" style="stroke:#000000; stroke-linecap:round; stroke-linejoin:round; stroke-width:4; stroke-opacity:1; fill:none" points="1633.03,1478.46 1633.03,1486.45 1651.82,1486.45 1651.82,1478.46 1633.03,1478.46 "></polyline>
<path clip-path="url(#clip002)" d="M1651.82 1481.12 L1651.82 1486.45 L1670.61 1486.45 L1670.61 1481.12 L1651.82 1481.12 L1651.82 1481.12  Z" fill="#009af9" fill-rule="evenodd" fill-opacity="1"></path>
<polyline clip-path="url(#clip002)" style="stroke:#000000; stroke-linecap:round; stroke-linejoin:round; stroke-width:4; stroke-opacity:1; fill:none" points="1651.82,1481.12 1651.82,1486.45 1670.61,1486.45 1670.61,1481.12 1651.82,1481.12 "></polyline>
<path clip-path="url(#clip002)" d="M1670.61 1482.45 L1670.61 1486.45 L1689.4 1486.45 L1689.4 1482.45 L1670.61 1482.45 L1670.61 1482.45  Z" fill="#009af9" fill-rule="evenodd" fill-opacity="1"></path>
<polyline clip-path="url(#clip002)" style="stroke:#000000; stroke-linecap:round; stroke-linejoin:round; stroke-width:4; stroke-opacity:1; fill:none" points="1670.61,1482.45 1670.61,1486.45 1689.4,1486.45 1689.4,1482.45 1670.61,1482.45 "></polyline>
<path clip-path="url(#clip002)" d="M1689.4 1475.8 L1689.4 1486.45 L1708.19 1486.45 L1708.19 1475.8 L1689.4 1475.8 L1689.4 1475.8  Z" fill="#009af9" fill-rule="evenodd" fill-opacity="1"></path>
<polyline clip-path="url(#clip002)" style="stroke:#000000; stroke-linecap:round; stroke-linejoin:round; stroke-width:4; stroke-opacity:1; fill:none" points="1689.4,1475.8 1689.4,1486.45 1708.19,1486.45 1708.19,1475.8 1689.4,1475.8 "></polyline>
<path clip-path="url(#clip002)" d="M1708.19 1483.79 L1708.19 1486.45 L1726.98 1486.45 L1726.98 1483.79 L1708.19 1483.79 L1708.19 1483.79  Z" fill="#009af9" fill-rule="evenodd" fill-opacity="1"></path>
<polyline clip-path="url(#clip002)" style="stroke:#000000; stroke-linecap:round; stroke-linejoin:round; stroke-width:4; stroke-opacity:1; fill:none" points="1708.19,1483.79 1708.19,1486.45 1726.98,1486.45 1726.98,1483.79 1708.19,1483.79 "></polyline>
<path clip-path="url(#clip002)" d="M1726.98 1482.45 L1726.98 1486.45 L1745.77 1486.45 L1745.77 1482.45 L1726.98 1482.45 L1726.98 1482.45  Z" fill="#009af9" fill-rule="evenodd" fill-opacity="1"></path>
<polyline clip-path="url(#clip002)" style="stroke:#000000; stroke-linecap:round; stroke-linejoin:round; stroke-width:4; stroke-opacity:1; fill:none" points="1726.98,1482.45 1726.98,1486.45 1745.77,1486.45 1745.77,1482.45 1726.98,1482.45 "></polyline>
<path clip-path="url(#clip002)" d="M1745.77 1483.79 L1745.77 1486.45 L1764.56 1486.45 L1764.56 1483.79 L1745.77 1483.79 L1745.77 1483.79  Z" fill="#009af9" fill-rule="evenodd" fill-opacity="1"></path>
<polyline clip-path="url(#clip002)" style="stroke:#000000; stroke-linecap:round; stroke-linejoin:round; stroke-width:4; stroke-opacity:1; fill:none" points="1745.77,1483.79 1745.77,1486.45 1764.56,1486.45 1764.56,1483.79 1745.77,1483.79 "></polyline>
<path clip-path="url(#clip002)" d="M1764.56 1482.45 L1764.56 1486.45 L1783.35 1486.45 L1783.35 1482.45 L1764.56 1482.45 L1764.56 1482.45  Z" fill="#009af9" fill-rule="evenodd" fill-opacity="1"></path>
<polyline clip-path="url(#clip002)" style="stroke:#000000; stroke-linecap:round; stroke-linejoin:round; stroke-width:4; stroke-opacity:1; fill:none" points="1764.56,1482.45 1764.56,1486.45 1783.35,1486.45 1783.35,1482.45 1764.56,1482.45 "></polyline>
<path clip-path="url(#clip002)" d="M1783.35 1486.45 L1783.35 1486.45 L1802.14 1486.45 L1802.14 1486.45 L1783.35 1486.45 L1783.35 1486.45  Z" fill="#009af9" fill-rule="evenodd" fill-opacity="1"></path>
<polyline clip-path="url(#clip002)" style="stroke:#000000; stroke-linecap:round; stroke-linejoin:round; stroke-width:4; stroke-opacity:1; fill:none" points="1783.35,1486.45 1783.35,1486.45 1802.14,1486.45 1783.35,1486.45 "></polyline>
<path clip-path="url(#clip002)" d="M1802.14 1486.45 L1802.14 1486.45 L1820.93 1486.45 L1820.93 1486.45 L1802.14 1486.45 L1802.14 1486.45  Z" fill="#009af9" fill-rule="evenodd" fill-opacity="1"></path>
<polyline clip-path="url(#clip002)" style="stroke:#000000; stroke-linecap:round; stroke-linejoin:round; stroke-width:4; stroke-opacity:1; fill:none" points="1802.14,1486.45 1802.14,1486.45 1820.93,1486.45 1802.14,1486.45 "></polyline>
<path clip-path="url(#clip002)" d="M1820.93 1483.79 L1820.93 1486.45 L1839.72 1486.45 L1839.72 1483.79 L1820.93 1483.79 L1820.93 1483.79  Z" fill="#009af9" fill-rule="evenodd" fill-opacity="1"></path>
<polyline clip-path="url(#clip002)" style="stroke:#000000; stroke-linecap:round; stroke-linejoin:round; stroke-width:4; stroke-opacity:1; fill:none" points="1820.93,1483.79 1820.93,1486.45 1839.72,1486.45 1839.72,1483.79 1820.93,1483.79 "></polyline>
<path clip-path="url(#clip002)" d="M1839.72 1485.12 L1839.72 1486.45 L1858.51 1486.45 L1858.51 1485.12 L1839.72 1485.12 L1839.72 1485.12  Z" fill="#009af9" fill-rule="evenodd" fill-opacity="1"></path>
<polyline clip-path="url(#clip002)" style="stroke:#000000; stroke-linecap:round; stroke-linejoin:round; stroke-width:4; stroke-opacity:1; fill:none" points="1839.72,1485.12 1839.72,1486.45 1858.51,1486.45 1858.51,1485.12 1839.72,1485.12 "></polyline>
<path clip-path="url(#clip002)" d="M1858.51 1483.79 L1858.51 1486.45 L1877.3 1486.45 L1877.3 1483.79 L1858.51 1483.79 L1858.51 1483.79  Z" fill="#009af9" fill-rule="evenodd" fill-opacity="1"></path>
<polyline clip-path="url(#clip002)" style="stroke:#000000; stroke-linecap:round; stroke-linejoin:round; stroke-width:4; stroke-opacity:1; fill:none" points="1858.51,1483.79 1858.51,1486.45 1877.3,1486.45 1877.3,1483.79 1858.51,1483.79 "></polyline>
<path clip-path="url(#clip002)" d="M1877.3 1485.12 L1877.3 1486.45 L1896.09 1486.45 L1896.09 1485.12 L1877.3 1485.12 L1877.3 1485.12  Z" fill="#009af9" fill-rule="evenodd" fill-opacity="1"></path>
<polyline clip-path="url(#clip002)" style="stroke:#000000; stroke-linecap:round; stroke-linejoin:round; stroke-width:4; stroke-opacity:1; fill:none" points="1877.3,1485.12 1877.3,1486.45 1896.09,1486.45 1896.09,1485.12 1877.3,1485.12 "></polyline>
<path clip-path="url(#clip002)" d="M1896.09 1486.45 L1896.09 1486.45 L1914.88 1486.45 L1914.88 1486.45 L1896.09 1486.45 L1896.09 1486.45  Z" fill="#009af9" fill-rule="evenodd" fill-opacity="1"></path>
<polyline clip-path="url(#clip002)" style="stroke:#000000; stroke-linecap:round; stroke-linejoin:round; stroke-width:4; stroke-opacity:1; fill:none" points="1896.09,1486.45 1896.09,1486.45 1914.88,1486.45 1896.09,1486.45 "></polyline>
<path clip-path="url(#clip002)" d="M1914.88 1486.45 L1914.88 1486.45 L1933.67 1486.45 L1933.67 1486.45 L1914.88 1486.45 L1914.88 1486.45  Z" fill="#009af9" fill-rule="evenodd" fill-opacity="1"></path>
<polyline clip-path="url(#clip002)" style="stroke:#000000; stroke-linecap:round; stroke-linejoin:round; stroke-width:4; stroke-opacity:1; fill:none" points="1914.88,1486.45 1914.88,1486.45 1933.67,1486.45 1914.88,1486.45 "></polyline>
<path clip-path="url(#clip002)" d="M1933.67 1486.45 L1933.67 1486.45 L1952.46 1486.45 L1952.46 1486.45 L1933.67 1486.45 L1933.67 1486.45  Z" fill="#009af9" fill-rule="evenodd" fill-opacity="1"></path>
<polyline clip-path="url(#clip002)" style="stroke:#000000; stroke-linecap:round; stroke-linejoin:round; stroke-width:4; stroke-opacity:1; fill:none" points="1933.67,1486.45 1933.67,1486.45 1952.46,1486.45 1933.67,1486.45 "></polyline>
<path clip-path="url(#clip002)" d="M1952.46 1486.45 L1952.46 1486.45 L1971.25 1486.45 L1971.25 1486.45 L1952.46 1486.45 L1952.46 1486.45  Z" fill="#009af9" fill-rule="evenodd" fill-opacity="1"></path>
<polyline clip-path="url(#clip002)" style="stroke:#000000; stroke-linecap:round; stroke-linejoin:round; stroke-width:4; stroke-opacity:1; fill:none" points="1952.46,1486.45 1952.46,1486.45 1971.25,1486.45 1952.46,1486.45 "></polyline>
<path clip-path="url(#clip002)" d="M1971.25 1483.79 L1971.25 1486.45 L1990.04 1486.45 L1990.04 1483.79 L1971.25 1483.79 L1971.25 1483.79  Z" fill="#009af9" fill-rule="evenodd" fill-opacity="1"></path>
<polyline clip-path="url(#clip002)" style="stroke:#000000; stroke-linecap:round; stroke-linejoin:round; stroke-width:4; stroke-opacity:1; fill:none" points="1971.25,1483.79 1971.25,1486.45 1990.04,1486.45 1990.04,1483.79 1971.25,1483.79 "></polyline>
<path clip-path="url(#clip002)" d="M1990.04 1486.45 L1990.04 1486.45 L2008.83 1486.45 L2008.83 1486.45 L1990.04 1486.45 L1990.04 1486.45  Z" fill="#009af9" fill-rule="evenodd" fill-opacity="1"></path>
<polyline clip-path="url(#clip002)" style="stroke:#000000; stroke-linecap:round; stroke-linejoin:round; stroke-width:4; stroke-opacity:1; fill:none" points="1990.04,1486.45 1990.04,1486.45 2008.83,1486.45 1990.04,1486.45 "></polyline>
<path clip-path="url(#clip002)" d="M2008.83 1486.45 L2008.83 1486.45 L2027.62 1486.45 L2027.62 1486.45 L2008.83 1486.45 L2008.83 1486.45  Z" fill="#009af9" fill-rule="evenodd" fill-opacity="1"></path>
<polyline clip-path="url(#clip002)" style="stroke:#000000; stroke-linecap:round; stroke-linejoin:round; stroke-width:4; stroke-opacity:1; fill:none" points="2008.83,1486.45 2008.83,1486.45 2027.62,1486.45 2008.83,1486.45 "></polyline>
<path clip-path="url(#clip002)" d="M2027.62 1486.45 L2027.62 1486.45 L2046.41 1486.45 L2046.41 1486.45 L2027.62 1486.45 L2027.62 1486.45  Z" fill="#009af9" fill-rule="evenodd" fill-opacity="1"></path>
<polyline clip-path="url(#clip002)" style="stroke:#000000; stroke-linecap:round; stroke-linejoin:round; stroke-width:4; stroke-opacity:1; fill:none" points="2027.62,1486.45 2027.62,1486.45 2046.41,1486.45 2027.62,1486.45 "></polyline>
<path clip-path="url(#clip002)" d="M2046.41 1486.45 L2046.41 1486.45 L2065.2 1486.45 L2065.2 1486.45 L2046.41 1486.45 L2046.41 1486.45  Z" fill="#009af9" fill-rule="evenodd" fill-opacity="1"></path>
<polyline clip-path="url(#clip002)" style="stroke:#000000; stroke-linecap:round; stroke-linejoin:round; stroke-width:4; stroke-opacity:1; fill:none" points="2046.41,1486.45 2046.41,1486.45 2065.2,1486.45 2046.41,1486.45 "></polyline>
<path clip-path="url(#clip002)" d="M2065.2 1486.45 L2065.2 1486.45 L2083.99 1486.45 L2083.99 1486.45 L2065.2 1486.45 L2065.2 1486.45  Z" fill="#009af9" fill-rule="evenodd" fill-opacity="1"></path>
<polyline clip-path="url(#clip002)" style="stroke:#000000; stroke-linecap:round; stroke-linejoin:round; stroke-width:4; stroke-opacity:1; fill:none" points="2065.2,1486.45 2065.2,1486.45 2083.99,1486.45 2065.2,1486.45 "></polyline>
<path clip-path="url(#clip002)" d="M2083.99 1485.12 L2083.99 1486.45 L2102.78 1486.45 L2102.78 1485.12 L2083.99 1485.12 L2083.99 1485.12  Z" fill="#009af9" fill-rule="evenodd" fill-opacity="1"></path>
<polyline clip-path="url(#clip002)" style="stroke:#000000; stroke-linecap:round; stroke-linejoin:round; stroke-width:4; stroke-opacity:1; fill:none" points="2083.99,1485.12 2083.99,1486.45 2102.78,1486.45 2102.78,1485.12 2083.99,1485.12 "></polyline>
<path clip-path="url(#clip002)" d="M2102.78 1486.45 L2102.78 1486.45 L2121.57 1486.45 L2121.57 1486.45 L2102.78 1486.45 L2102.78 1486.45  Z" fill="#009af9" fill-rule="evenodd" fill-opacity="1"></path>
<polyline clip-path="url(#clip002)" style="stroke:#000000; stroke-linecap:round; stroke-linejoin:round; stroke-width:4; stroke-opacity:1; fill:none" points="2102.78,1486.45 2102.78,1486.45 2121.57,1486.45 2102.78,1486.45 "></polyline>
<path clip-path="url(#clip002)" d="M2121.57 1486.45 L2121.57 1486.45 L2140.36 1486.45 L2140.36 1486.45 L2121.57 1486.45 L2121.57 1486.45  Z" fill="#009af9" fill-rule="evenodd" fill-opacity="1"></path>
<polyline clip-path="url(#clip002)" style="stroke:#000000; stroke-linecap:round; stroke-linejoin:round; stroke-width:4; stroke-opacity:1; fill:none" points="2121.57,1486.45 2121.57,1486.45 2140.36,1486.45 2121.57,1486.45 "></polyline>
<path clip-path="url(#clip002)" d="M2140.36 1486.45 L2140.36 1486.45 L2159.15 1486.45 L2159.15 1486.45 L2140.36 1486.45 L2140.36 1486.45  Z" fill="#009af9" fill-rule="evenodd" fill-opacity="1"></path>
<polyline clip-path="url(#clip002)" style="stroke:#000000; stroke-linecap:round; stroke-linejoin:round; stroke-width:4; stroke-opacity:1; fill:none" points="2140.36,1486.45 2140.36,1486.45 2159.15,1486.45 2140.36,1486.45 "></polyline>
<path clip-path="url(#clip002)" d="M2159.15 1486.45 L2159.15 1486.45 L2177.94 1486.45 L2177.94 1486.45 L2159.15 1486.45 L2159.15 1486.45  Z" fill="#009af9" fill-rule="evenodd" fill-opacity="1"></path>
<polyline clip-path="url(#clip002)" style="stroke:#000000; stroke-linecap:round; stroke-linejoin:round; stroke-width:4; stroke-opacity:1; fill:none" points="2159.15,1486.45 2159.15,1486.45 2177.94,1486.45 2159.15,1486.45 "></polyline>
<path clip-path="url(#clip002)" d="M2177.94 1485.12 L2177.94 1486.45 L2196.73 1486.45 L2196.73 1485.12 L2177.94 1485.12 L2177.94 1485.12  Z" fill="#009af9" fill-rule="evenodd" fill-opacity="1"></path>
<polyline clip-path="url(#clip002)" style="stroke:#000000; stroke-linecap:round; stroke-linejoin:round; stroke-width:4; stroke-opacity:1; fill:none" points="2177.94,1485.12 2177.94,1486.45 2196.73,1486.45 2196.73,1485.12 2177.94,1485.12 "></polyline>
<path clip-path="url(#clip002)" d="M2196.73 1486.45 L2196.73 1486.45 L2215.52 1486.45 L2215.52 1486.45 L2196.73 1486.45 L2196.73 1486.45  Z" fill="#009af9" fill-rule="evenodd" fill-opacity="1"></path>
<polyline clip-path="url(#clip002)" style="stroke:#000000; stroke-linecap:round; stroke-linejoin:round; stroke-width:4; stroke-opacity:1; fill:none" points="2196.73,1486.45 2196.73,1486.45 2215.52,1486.45 2196.73,1486.45 "></polyline>
<path clip-path="url(#clip002)" d="M2215.52 1485.12 L2215.52 1486.45 L2234.31 1486.45 L2234.31 1485.12 L2215.52 1485.12 L2215.52 1485.12  Z" fill="#009af9" fill-rule="evenodd" fill-opacity="1"></path>
<polyline clip-path="url(#clip002)" style="stroke:#000000; stroke-linecap:round; stroke-linejoin:round; stroke-width:4; stroke-opacity:1; fill:none" points="2215.52,1485.12 2215.52,1486.45 2234.31,1486.45 2234.31,1485.12 2215.52,1485.12 "></polyline>
<circle clip-path="url(#clip002)" style="fill:#009af9; stroke:none; fill-opacity:0" cx="327.123" cy="1485.12" r="2"></circle>
<circle clip-path="url(#clip002)" style="fill:#009af9; stroke:none; fill-opacity:0" cx="345.913" cy="1486.45" r="2"></circle>
<circle clip-path="url(#clip002)" style="fill:#009af9; stroke:none; fill-opacity:0" cx="364.703" cy="1485.12" r="2"></circle>
<circle clip-path="url(#clip002)" style="fill:#009af9; stroke:none; fill-opacity:0" cx="383.493" cy="1481.12" r="2"></circle>
<circle clip-path="url(#clip002)" style="fill:#009af9; stroke:none; fill-opacity:0" cx="402.283" cy="1479.79" r="2"></circle>
<circle clip-path="url(#clip002)" style="fill:#009af9; stroke:none; fill-opacity:0" cx="421.073" cy="1479.79" r="2"></circle>
<circle clip-path="url(#clip002)" style="fill:#009af9; stroke:none; fill-opacity:0" cx="439.863" cy="1481.12" r="2"></circle>
<circle clip-path="url(#clip002)" style="fill:#009af9; stroke:none; fill-opacity:0" cx="458.653" cy="1478.46" r="2"></circle>
<circle clip-path="url(#clip002)" style="fill:#009af9; stroke:none; fill-opacity:0" cx="477.443" cy="1477.13" r="2"></circle>
<circle clip-path="url(#clip002)" style="fill:#009af9; stroke:none; fill-opacity:0" cx="496.233" cy="1473.14" r="2"></circle>
<circle clip-path="url(#clip002)" style="fill:#009af9; stroke:none; fill-opacity:0" cx="515.023" cy="1471.81" r="2"></circle>
<circle clip-path="url(#clip002)" style="fill:#009af9; stroke:none; fill-opacity:0" cx="533.813" cy="1447.85" r="2"></circle>
<circle clip-path="url(#clip002)" style="fill:#009af9; stroke:none; fill-opacity:0" cx="552.603" cy="1454.5" r="2"></circle>
<circle clip-path="url(#clip002)" style="fill:#009af9; stroke:none; fill-opacity:0" cx="571.393" cy="1462.49" r="2"></circle>
<circle clip-path="url(#clip002)" style="fill:#009af9; stroke:none; fill-opacity:0" cx="590.183" cy="1426.55" r="2"></circle>
<circle clip-path="url(#clip002)" style="fill:#009af9; stroke:none; fill-opacity:0" cx="608.973" cy="1415.9" r="2"></circle>
<circle clip-path="url(#clip002)" style="fill:#009af9; stroke:none; fill-opacity:0" cx="627.764" cy="1409.25" r="2"></circle>
<circle clip-path="url(#clip002)" style="fill:#009af9; stroke:none; fill-opacity:0" cx="646.554" cy="1363.99" r="2"></circle>
<circle clip-path="url(#clip002)" style="fill:#009af9; stroke:none; fill-opacity:0" cx="665.344" cy="1312.08" r="2"></circle>
<circle clip-path="url(#clip002)" style="fill:#009af9; stroke:none; fill-opacity:0" cx="684.134" cy="1278.81" r="2"></circle>
<circle clip-path="url(#clip002)" style="fill:#009af9; stroke:none; fill-opacity:0" cx="702.924" cy="1254.85" r="2"></circle>
<circle clip-path="url(#clip002)" style="fill:#009af9; stroke:none; fill-opacity:0" cx="721.714" cy="1221.57" r="2"></circle>
<circle clip-path="url(#clip002)" style="fill:#009af9; stroke:none; fill-opacity:0" cx="740.504" cy="1139.05" r="2"></circle>
<circle clip-path="url(#clip002)" style="fill:#009af9; stroke:none; fill-opacity:0" cx="759.294" cy="1043.21" r="2"></circle>
<circle clip-path="url(#clip002)" style="fill:#009af9; stroke:none; fill-opacity:0" cx="778.084" cy="1036.56" r="2"></circle>
<circle clip-path="url(#clip002)" style="fill:#009af9; stroke:none; fill-opacity:0" cx="796.874" cy="942.056" r="2"></circle>
<circle clip-path="url(#clip002)" style="fill:#009af9; stroke:none; fill-opacity:0" cx="815.664" cy="906.118" r="2"></circle>
<circle clip-path="url(#clip002)" style="fill:#009af9; stroke:none; fill-opacity:0" cx="834.454" cy="779.67" r="2"></circle>
<circle clip-path="url(#clip002)" style="fill:#009af9; stroke:none; fill-opacity:0" cx="853.244" cy="717.112" r="2"></circle>
<circle clip-path="url(#clip002)" style="fill:#009af9; stroke:none; fill-opacity:0" cx="872.034" cy="654.553" r="2"></circle>
<circle clip-path="url(#clip002)" style="fill:#009af9; stroke:none; fill-opacity:0" cx="890.824" cy="594.657" r="2"></circle>
<circle clip-path="url(#clip002)" style="fill:#009af9; stroke:none; fill-opacity:0" cx="909.614" cy="418.961" r="2"></circle>
<circle clip-path="url(#clip002)" style="fill:#009af9; stroke:none; fill-opacity:0" cx="928.404" cy="385.685" r="2"></circle>
<circle clip-path="url(#clip002)" style="fill:#009af9; stroke:none; fill-opacity:0" cx="947.194" cy="293.844" r="2"></circle>
<circle clip-path="url(#clip002)" style="fill:#009af9; stroke:none; fill-opacity:0" cx="965.984" cy="223.299" r="2"></circle>
<circle clip-path="url(#clip002)" style="fill:#009af9; stroke:none; fill-opacity:0" cx="984.774" cy="299.168" r="2"></circle>
<circle clip-path="url(#clip002)" style="fill:#009af9; stroke:none; fill-opacity:0" cx="1003.56" cy="183.369" r="2"></circle>
<circle clip-path="url(#clip002)" style="fill:#009af9; stroke:none; fill-opacity:0" cx="1022.35" cy="135.451" r="2"></circle>
<circle clip-path="url(#clip002)" style="fill:#009af9; stroke:none; fill-opacity:0" cx="1041.14" cy="207.327" r="2"></circle>
<circle clip-path="url(#clip002)" style="fill:#009af9; stroke:none; fill-opacity:0" cx="1059.93" cy="130.127" r="2"></circle>
<circle clip-path="url(#clip002)" style="fill:#009af9; stroke:none; fill-opacity:0" cx="1078.72" cy="123.472" r="2"></circle>
<circle clip-path="url(#clip002)" style="fill:#009af9; stroke:none; fill-opacity:0" cx="1097.51" cy="164.734" r="2"></circle>
<circle clip-path="url(#clip002)" style="fill:#009af9; stroke:none; fill-opacity:0" cx="1116.3" cy="233.948" r="2"></circle>
<circle clip-path="url(#clip002)" style="fill:#009af9; stroke:none; fill-opacity:0" cx="1135.09" cy="221.968" r="2"></circle>
<circle clip-path="url(#clip002)" style="fill:#009af9; stroke:none; fill-opacity:0" cx="1153.88" cy="292.513" r="2"></circle>
<circle clip-path="url(#clip002)" style="fill:#009af9; stroke:none; fill-opacity:0" cx="1172.67" cy="489.506" r="2"></circle>
<circle clip-path="url(#clip002)" style="fill:#009af9; stroke:none; fill-opacity:0" cx="1191.46" cy="492.168" r="2"></circle>
<circle clip-path="url(#clip002)" style="fill:#009af9; stroke:none; fill-opacity:0" cx="1210.25" cy="635.919" r="2"></circle>
<circle clip-path="url(#clip002)" style="fill:#009af9; stroke:none; fill-opacity:0" cx="1229.04" cy="658.547" r="2"></circle>
<circle clip-path="url(#clip002)" style="fill:#009af9; stroke:none; fill-opacity:0" cx="1247.83" cy="783.664" r="2"></circle>
<circle clip-path="url(#clip002)" style="fill:#009af9; stroke:none; fill-opacity:0" cx="1266.62" cy="940.725" r="2"></circle>
<circle clip-path="url(#clip002)" style="fill:#009af9; stroke:none; fill-opacity:0" cx="1285.41" cy="916.767" r="2"></circle>
<circle clip-path="url(#clip002)" style="fill:#009af9; stroke:none; fill-opacity:0" cx="1304.2" cy="999.291" r="2"></circle>
<circle clip-path="url(#clip002)" style="fill:#009af9; stroke:none; fill-opacity:0" cx="1322.99" cy="1092.46" r="2"></circle>
<circle clip-path="url(#clip002)" style="fill:#009af9; stroke:none; fill-opacity:0" cx="1341.78" cy="1174.99" r="2"></circle>
<circle clip-path="url(#clip002)" style="fill:#009af9; stroke:none; fill-opacity:0" cx="1360.57" cy="1213.59" r="2"></circle>
<circle clip-path="url(#clip002)" style="fill:#009af9; stroke:none; fill-opacity:0" cx="1379.36" cy="1250.86" r="2"></circle>
<circle clip-path="url(#clip002)" style="fill:#009af9; stroke:none; fill-opacity:0" cx="1398.15" cy="1270.82" r="2"></circle>
<circle clip-path="url(#clip002)" style="fill:#009af9; stroke:none; fill-opacity:0" cx="1416.94" cy="1328.06" r="2"></circle>
<circle clip-path="url(#clip002)" style="fill:#009af9; stroke:none; fill-opacity:0" cx="1435.73" cy="1363.99" r="2"></circle>
<circle clip-path="url(#clip002)" style="fill:#009af9; stroke:none; fill-opacity:0" cx="1454.52" cy="1374.64" r="2"></circle>
<circle clip-path="url(#clip002)" style="fill:#009af9; stroke:none; fill-opacity:0" cx="1473.31" cy="1387.95" r="2"></circle>
<circle clip-path="url(#clip002)" style="fill:#009af9; stroke:none; fill-opacity:0" cx="1492.1" cy="1426.55" r="2"></circle>
<circle clip-path="url(#clip002)" style="fill:#009af9; stroke:none; fill-opacity:0" cx="1510.89" cy="1442.52" r="2"></circle>
<circle clip-path="url(#clip002)" style="fill:#009af9; stroke:none; fill-opacity:0" cx="1529.68" cy="1442.52" r="2"></circle>
<circle clip-path="url(#clip002)" style="fill:#009af9; stroke:none; fill-opacity:0" cx="1548.47" cy="1462.49" r="2"></circle>
<circle clip-path="url(#clip002)" style="fill:#009af9; stroke:none; fill-opacity:0" cx="1567.27" cy="1457.17" r="2"></circle>
<circle clip-path="url(#clip002)" style="fill:#009af9; stroke:none; fill-opacity:0" cx="1586.06" cy="1475.8" r="2"></circle>
<circle clip-path="url(#clip002)" style="fill:#009af9; stroke:none; fill-opacity:0" cx="1604.85" cy="1477.13" r="2"></circle>
<circle clip-path="url(#clip002)" style="fill:#009af9; stroke:none; fill-opacity:0" cx="1623.64" cy="1483.79" r="2"></circle>
<circle clip-path="url(#clip002)" style="fill:#009af9; stroke:none; fill-opacity:0" cx="1642.43" cy="1478.46" r="2"></circle>
<circle clip-path="url(#clip002)" style="fill:#009af9; stroke:none; fill-opacity:0" cx="1661.22" cy="1481.12" r="2"></circle>
<circle clip-path="url(#clip002)" style="fill:#009af9; stroke:none; fill-opacity:0" cx="1680.01" cy="1482.45" r="2"></circle>
<circle clip-path="url(#clip002)" style="fill:#009af9; stroke:none; fill-opacity:0" cx="1698.8" cy="1475.8" r="2"></circle>
<circle clip-path="url(#clip002)" style="fill:#009af9; stroke:none; fill-opacity:0" cx="1717.59" cy="1483.79" r="2"></circle>
<circle clip-path="url(#clip002)" style="fill:#009af9; stroke:none; fill-opacity:0" cx="1736.38" cy="1482.45" r="2"></circle>
<circle clip-path="url(#clip002)" style="fill:#009af9; stroke:none; fill-opacity:0" cx="1755.17" cy="1483.79" r="2"></circle>
<circle clip-path="url(#clip002)" style="fill:#009af9; stroke:none; fill-opacity:0" cx="1773.96" cy="1482.45" r="2"></circle>
<circle clip-path="url(#clip002)" style="fill:#009af9; stroke:none; fill-opacity:0" cx="1792.75" cy="1486.45" r="2"></circle>
<circle clip-path="url(#clip002)" style="fill:#009af9; stroke:none; fill-opacity:0" cx="1811.54" cy="1486.45" r="2"></circle>
<circle clip-path="url(#clip002)" style="fill:#009af9; stroke:none; fill-opacity:0" cx="1830.33" cy="1483.79" r="2"></circle>
<circle clip-path="url(#clip002)" style="fill:#009af9; stroke:none; fill-opacity:0" cx="1849.12" cy="1485.12" r="2"></circle>
<circle clip-path="url(#clip002)" style="fill:#009af9; stroke:none; fill-opacity:0" cx="1867.91" cy="1483.79" r="2"></circle>
<circle clip-path="url(#clip002)" style="fill:#009af9; stroke:none; fill-opacity:0" cx="1886.7" cy="1485.12" r="2"></circle>
<circle clip-path="url(#clip002)" style="fill:#009af9; stroke:none; fill-opacity:0" cx="1905.49" cy="1486.45" r="2"></circle>
<circle clip-path="url(#clip002)" style="fill:#009af9; stroke:none; fill-opacity:0" cx="1924.28" cy="1486.45" r="2"></circle>
<circle clip-path="url(#clip002)" style="fill:#009af9; stroke:none; fill-opacity:0" cx="1943.07" cy="1486.45" r="2"></circle>
<circle clip-path="url(#clip002)" style="fill:#009af9; stroke:none; fill-opacity:0" cx="1961.86" cy="1486.45" r="2"></circle>
<circle clip-path="url(#clip002)" style="fill:#009af9; stroke:none; fill-opacity:0" cx="1980.65" cy="1483.79" r="2"></circle>
<circle clip-path="url(#clip002)" style="fill:#009af9; stroke:none; fill-opacity:0" cx="1999.44" cy="1486.45" r="2"></circle>
<circle clip-path="url(#clip002)" style="fill:#009af9; stroke:none; fill-opacity:0" cx="2018.23" cy="1486.45" r="2"></circle>
<circle clip-path="url(#clip002)" style="fill:#009af9; stroke:none; fill-opacity:0" cx="2037.02" cy="1486.45" r="2"></circle>
<circle clip-path="url(#clip002)" style="fill:#009af9; stroke:none; fill-opacity:0" cx="2055.81" cy="1486.45" r="2"></circle>
<circle clip-path="url(#clip002)" style="fill:#009af9; stroke:none; fill-opacity:0" cx="2074.6" cy="1486.45" r="2"></circle>
<circle clip-path="url(#clip002)" style="fill:#009af9; stroke:none; fill-opacity:0" cx="2093.39" cy="1485.12" r="2"></circle>
<circle clip-path="url(#clip002)" style="fill:#009af9; stroke:none; fill-opacity:0" cx="2112.18" cy="1486.45" r="2"></circle>
<circle clip-path="url(#clip002)" style="fill:#009af9; stroke:none; fill-opacity:0" cx="2130.97" cy="1486.45" r="2"></circle>
<circle clip-path="url(#clip002)" style="fill:#009af9; stroke:none; fill-opacity:0" cx="2149.76" cy="1486.45" r="2"></circle>
<circle clip-path="url(#clip002)" style="fill:#009af9; stroke:none; fill-opacity:0" cx="2168.55" cy="1486.45" r="2"></circle>
<circle clip-path="url(#clip002)" style="fill:#009af9; stroke:none; fill-opacity:0" cx="2187.34" cy="1485.12" r="2"></circle>
<circle clip-path="url(#clip002)" style="fill:#009af9; stroke:none; fill-opacity:0" cx="2206.13" cy="1486.45" r="2"></circle>
<circle clip-path="url(#clip002)" style="fill:#009af9; stroke:none; fill-opacity:0" cx="2224.92" cy="1485.12" r="2"></circle>
<path clip-path="url(#clip000)" d="M2013.2 272.585 L2280.97 272.585 L2280.97 168.905 L2013.2 168.905  Z" fill="#ffffff" fill-rule="evenodd" fill-opacity="1"></path>
<polyline clip-path="url(#clip000)" style="stroke:#000000; stroke-linecap:round; stroke-linejoin:round; stroke-width:4; stroke-opacity:1; fill:none" points="2013.2,272.585 2280.97,272.585 2280.97,168.905 2013.2,168.905 2013.2,272.585 "></polyline>
<path clip-path="url(#clip000)" d="M2037.12 241.481 L2180.69 241.481 L2180.69 200.009 L2037.12 200.009 L2037.12 241.481  Z" fill="#009af9" fill-rule="evenodd" fill-opacity="1"></path>
<polyline clip-path="url(#clip000)" style="stroke:#000000; stroke-linecap:round; stroke-linejoin:round; stroke-width:4; stroke-opacity:1; fill:none" points="2037.12,241.481 2180.69,241.481 2180.69,200.009 2037.12,200.009 2037.12,241.481 "></polyline>
<path clip-path="url(#clip000)" d="M2218.46 240.432 Q2216.65 245.062 2214.94 246.474 Q2213.23 247.886 2210.36 247.886 L2206.95 247.886 L2206.95 244.321 L2209.45 244.321 Q2211.21 244.321 2212.19 243.488 Q2213.16 242.654 2214.34 239.552 L2215.1 237.608 L2204.62 212.099 L2209.13 212.099 L2217.23 232.377 L2225.33 212.099 L2229.85 212.099 L2218.46 240.432 Z" fill="#000000" fill-rule="nonzero" fill-opacity="1"></path><path clip-path="url(#clip000)" d="M2237.14 234.089 L2244.78 234.089 L2244.78 207.724 L2236.47 209.391 L2236.47 205.131 L2244.73 203.465 L2249.41 203.465 L2249.41 234.089 L2257.05 234.089 L2257.05 238.025 L2237.14 238.025 L2237.14 234.089 Z" fill="#000000" fill-rule="nonzero" fill-opacity="1"></path></svg>