<svg xmlns="http://www.w3.org/2000/svg" xmlns:xlink="http://www.w3.org/1999/xlink" width="600" height="400" viewBox="0 0 2400 1600">
<defs>
  <clipPath id="clip040">
    <rect x="0" y="0" width="2400" height="1600"></rect>
  </clipPath>
</defs>
<path clip-path="url(#clip040)" d="M0 1600 L2400 1600 L2400 0 L0 0  Z" fill="#ffffff" fill-rule="evenodd" fill-opacity="1"></path>
<defs>
  <clipPath id="clip041">
    <rect x="480" y="0" width="1681" height="1600"></rect>
  </clipPath>
</defs>
<path clip-path="url(#clip040)" d="M199.283 1486.45 L2352.76 1486.45 L2352.76 123.472 L199.283 123.472  Z" fill="#ffffff" fill-rule="evenodd" fill-opacity="1"></path>
<defs>
  <clipPath id="clip042">
    <rect x="199" y="123" width="2154" height="1364"></rect>
  </clipPath>
</defs>
<polyline clip-path="url(#clip042)" style="stroke:#000000; stroke-linecap:round; stroke-linejoin:round; stroke-width:2; stroke-opacity:0.1; fill:none" points="221.899,1486.45 221.899,123.472 "></polyline>
<polyline clip-path="url(#clip042)" style="stroke:#000000; stroke-linecap:round; stroke-linejoin:round; stroke-width:2; stroke-opacity:0.1; fill:none" points="820.831,1486.45 820.831,123.472 "></polyline>
<polyline clip-path="url(#clip042)" style="stroke:#000000; stroke-linecap:round; stroke-linejoin:round; stroke-width:2; stroke-opacity:0.1; fill:none" points="1419.76,1486.45 1419.76,123.472 "></polyline>
<polyline clip-path="url(#clip042)" style="stroke:#000000; stroke-linecap:round; stroke-linejoin:round; stroke-width:2; stroke-opacity:0.1; fill:none" points="2018.7,1486.45 2018.7,123.472 "></polyline>
<polyline clip-path="url(#clip040)" style="stroke:#000000; stroke-linecap:round; stroke-linejoin:round; stroke-width:4; stroke-opacity:1; fill:none" points="199.283,1486.45 2352.76,1486.45 "></polyline>
<polyline clip-path="url(#clip040)" style="stroke:#000000; stroke-linecap:round; stroke-linejoin:round; stroke-width:4; stroke-opacity:1; fill:none" points="221.899,1486.45 221.899,1467.55 "></polyline>
<polyline clip-path="url(#clip040)" style="stroke:#000000; stroke-linecap:round; stroke-linejoin:round; stroke-width:4; stroke-opacity:1; fill:none" points="820.831,1486.45 820.831,1467.55 "></polyline>
<polyline clip-path="url(#clip040)" style="stroke:#000000; stroke-linecap:round; stroke-linejoin:round; stroke-width:4; stroke-opacity:1; fill:none" points="1419.76,1486.45 1419.76,1467.55 "></polyline>
<polyline clip-path="url(#clip040)" style="stroke:#000000; stroke-linecap:round; stroke-linejoin:round; stroke-width:4; stroke-opacity:1; fill:none" points="2018.7,1486.45 2018.7,1467.55 "></polyline>
<path clip-path="url(#clip040)" d="M168.925 1532.02 L198.6 1532.02 L198.6 1535.95 L168.925 1535.95 L168.925 1532.02 Z" fill="#000000" fill-rule="nonzero" fill-opacity="1"></path><path clip-path="url(#clip040)" d="M218.693 1517.37 Q215.082 1517.37 213.253 1520.93 Q211.448 1524.47 211.448 1531.6 Q211.448 1538.71 213.253 1542.27 Q215.082 1545.82 218.693 1545.82 Q222.327 1545.82 224.133 1542.27 Q225.961 1538.71 225.961 1531.6 Q225.961 1524.47 224.133 1520.93 Q222.327 1517.37 218.693 1517.37 M218.693 1513.66 Q224.503 1513.66 227.559 1518.27 Q230.637 1522.85 230.637 1531.6 Q230.637 1540.33 227.559 1544.94 Q224.503 1549.52 218.693 1549.52 Q212.883 1549.52 209.804 1544.94 Q206.748 1540.33 206.748 1531.6 Q206.748 1522.85 209.804 1518.27 Q212.883 1513.66 218.693 1513.66 Z" fill="#000000" fill-rule="nonzero" fill-opacity="1"></path><path clip-path="url(#clip040)" d="M238.855 1542.97 L243.739 1542.97 L243.739 1548.85 L238.855 1548.85 L238.855 1542.97 Z" fill="#000000" fill-rule="nonzero" fill-opacity="1"></path><path clip-path="url(#clip040)" d="M253.97 1514.29 L272.327 1514.29 L272.327 1518.22 L258.253 1518.22 L258.253 1526.7 Q259.271 1526.35 260.29 1526.19 Q261.308 1526 262.327 1526 Q268.114 1526 271.494 1529.17 Q274.873 1532.34 274.873 1537.76 Q274.873 1543.34 271.401 1546.44 Q267.929 1549.52 261.609 1549.52 Q259.433 1549.52 257.165 1549.15 Q254.92 1548.78 252.512 1548.04 L252.512 1543.34 Q254.595 1544.47 256.818 1545.03 Q259.04 1545.58 261.517 1545.58 Q265.521 1545.58 267.859 1543.48 Q270.197 1541.37 270.197 1537.76 Q270.197 1534.15 267.859 1532.04 Q265.521 1529.94 261.517 1529.94 Q259.642 1529.94 257.767 1530.35 Q255.915 1530.77 253.97 1531.65 L253.97 1514.29 Z" fill="#000000" fill-rule="nonzero" fill-opacity="1"></path><path clip-path="url(#clip040)" d="M798.215 1517.37 Q794.604 1517.37 792.776 1520.93 Q790.97 1524.47 790.97 1531.6 Q790.97 1538.71 792.776 1542.27 Q794.604 1545.82 798.215 1545.82 Q801.85 1545.82 803.655 1542.27 Q805.484 1538.71 805.484 1531.6 Q805.484 1524.47 803.655 1520.93 Q801.85 1517.37 798.215 1517.37 M798.215 1513.66 Q804.026 1513.66 807.081 1518.27 Q810.16 1522.85 810.16 1531.6 Q810.16 1540.33 807.081 1544.94 Q804.026 1549.52 798.215 1549.52 Q792.405 1549.52 789.327 1544.94 Q786.271 1540.33 786.271 1531.6 Q786.271 1522.85 789.327 1518.27 Q792.405 1513.66 798.215 1513.66 Z" fill="#000000" fill-rule="nonzero" fill-opacity="1"></path><path clip-path="url(#clip040)" d="M818.377 1542.97 L823.262 1542.97 L823.262 1548.85 L818.377 1548.85 L818.377 1542.97 Z" fill="#000000" fill-rule="nonzero" fill-opacity="1"></path><path clip-path="url(#clip040)" d="M843.447 1517.37 Q839.836 1517.37 838.007 1520.93 Q836.201 1524.47 836.201 1531.6 Q836.201 1538.71 838.007 1542.27 Q839.836 1545.82 843.447 1545.82 Q847.081 1545.82 848.886 1542.27 Q850.715 1538.71 850.715 1531.6 Q850.715 1524.47 848.886 1520.93 Q847.081 1517.37 843.447 1517.37 M843.447 1513.66 Q849.257 1513.66 852.312 1518.27 Q855.391 1522.85 855.391 1531.6 Q855.391 1540.33 852.312 1544.94 Q849.257 1549.52 843.447 1549.52 Q837.637 1549.52 834.558 1544.94 Q831.502 1540.33 831.502 1531.6 Q831.502 1522.85 834.558 1518.27 Q837.637 1513.66 843.447 1513.66 Z" fill="#000000" fill-rule="nonzero" fill-opacity="1"></path><path clip-path="url(#clip040)" d="M1397.65 1517.37 Q1394.03 1517.37 1392.21 1520.93 Q1390.4 1524.47 1390.4 1531.6 Q1390.4 1538.71 1392.21 1542.27 Q1394.03 1545.82 1397.65 1545.82 Q1401.28 1545.82 1403.09 1542.27 Q1404.91 1538.71 1404.91 1531.6 Q1404.91 1524.47 1403.09 1520.93 Q1401.28 1517.37 1397.65 1517.37 M1397.65 1513.66 Q1403.46 1513.66 1406.51 1518.27 Q1409.59 1522.85 1409.59 1531.6 Q1409.59 1540.33 1406.51 1544.94 Q1403.46 1549.52 1397.65 1549.52 Q1391.84 1549.52 1388.76 1544.94 Q1385.7 1540.33 1385.7 1531.6 Q1385.7 1522.85 1388.76 1518.27 Q1391.84 1513.66 1397.65 1513.66 Z" fill="#000000" fill-rule="nonzero" fill-opacity="1"></path><path clip-path="url(#clip040)" d="M1417.81 1542.97 L1422.69 1542.97 L1422.69 1548.85 L1417.81 1548.85 L1417.81 1542.97 Z" fill="#000000" fill-rule="nonzero" fill-opacity="1"></path><path clip-path="url(#clip040)" d="M1432.92 1514.29 L1451.28 1514.29 L1451.28 1518.22 L1437.21 1518.22 L1437.21 1526.7 Q1438.22 1526.35 1439.24 1526.19 Q1440.26 1526 1441.28 1526 Q1447.07 1526 1450.45 1529.17 Q1453.83 1532.34 1453.83 1537.76 Q1453.83 1543.34 1450.35 1546.44 Q1446.88 1549.52 1440.56 1549.52 Q1438.39 1549.52 1436.12 1549.15 Q1433.87 1548.78 1431.46 1548.04 L1431.46 1543.34 Q1433.55 1544.47 1435.77 1545.03 Q1437.99 1545.58 1440.47 1545.58 Q1444.47 1545.58 1446.81 1543.48 Q1449.15 1541.37 1449.15 1537.76 Q1449.15 1534.15 1446.81 1532.04 Q1444.47 1529.94 1440.47 1529.94 Q1438.59 1529.94 1436.72 1530.35 Q1434.87 1530.77 1432.92 1531.65 L1432.92 1514.29 Z" fill="#000000" fill-rule="nonzero" fill-opacity="1"></path><path clip-path="url(#clip040)" d="M1985.85 1544.91 L1993.49 1544.91 L1993.49 1518.55 L1985.18 1520.21 L1985.18 1515.95 L1993.44 1514.29 L1998.12 1514.29 L1998.12 1544.91 L2005.76 1544.91 L2005.76 1548.85 L1985.85 1548.85 L1985.85 1544.91 Z" fill="#000000" fill-rule="nonzero" fill-opacity="1"></path><path clip-path="url(#clip040)" d="M2015.2 1542.97 L2020.08 1542.97 L2020.08 1548.85 L2015.2 1548.85 L2015.2 1542.97 Z" fill="#000000" fill-rule="nonzero" fill-opacity="1"></path><path clip-path="url(#clip040)" d="M2040.27 1517.37 Q2036.66 1517.37 2034.83 1520.93 Q2033.02 1524.47 2033.02 1531.6 Q2033.02 1538.71 2034.83 1542.27 Q2036.66 1545.82 2040.27 1545.82 Q2043.9 1545.82 2045.71 1542.27 Q2047.54 1538.71 2047.54 1531.6 Q2047.54 1524.47 2045.71 1520.93 Q2043.9 1517.37 2040.27 1517.37 M2040.27 1513.66 Q2046.08 1513.66 2049.14 1518.27 Q2052.21 1522.85 2052.21 1531.6 Q2052.21 1540.33 2049.14 1544.94 Q2046.08 1549.52 2040.27 1549.52 Q2034.46 1549.52 2031.38 1544.94 Q2028.33 1540.33 2028.33 1531.6 Q2028.33 1522.85 2031.38 1518.27 Q2034.46 1513.66 2040.27 1513.66 Z" fill="#000000" fill-rule="nonzero" fill-opacity="1"></path><polyline clip-path="url(#clip042)" style="stroke:#000000; stroke-linecap:round; stroke-linejoin:round; stroke-width:2; stroke-opacity:0.1; fill:none" points="199.283,1486.45 2352.76,1486.45 "></polyline>
<polyline clip-path="url(#clip042)" style="stroke:#000000; stroke-linecap:round; stroke-linejoin:round; stroke-width:2; stroke-opacity:0.1; fill:none" points="199.283,1122.41 2352.76,1122.41 "></polyline>
<polyline clip-path="url(#clip042)" style="stroke:#000000; stroke-linecap:round; stroke-linejoin:round; stroke-width:2; stroke-opacity:0.1; fill:none" points="199.283,758.363 2352.76,758.363 "></polyline>
<polyline clip-path="url(#clip042)" style="stroke:#000000; stroke-linecap:round; stroke-linejoin:round; stroke-width:2; stroke-opacity:0.1; fill:none" points="199.283,394.32 2352.76,394.32 "></polyline>
<polyline clip-path="url(#clip040)" style="stroke:#000000; stroke-linecap:round; stroke-linejoin:round; stroke-width:4; stroke-opacity:1; fill:none" points="199.283,1486.45 199.283,123.472 "></polyline>
<polyline clip-path="url(#clip040)" style="stroke:#000000; stroke-linecap:round; stroke-linejoin:round; stroke-width:4; stroke-opacity:1; fill:none" points="199.283,1486.45 218.181,1486.45 "></polyline>
<polyline clip-path="url(#clip040)" style="stroke:#000000; stroke-linecap:round; stroke-linejoin:round; stroke-width:4; stroke-opacity:1; fill:none" points="199.283,1122.41 218.181,1122.41 "></polyline>
<polyline clip-path="url(#clip040)" style="stroke:#000000; stroke-linecap:round; stroke-linejoin:round; stroke-width:4; stroke-opacity:1; fill:none" points="199.283,758.363 218.181,758.363 "></polyline>
<polyline clip-path="url(#clip040)" style="stroke:#000000; stroke-linecap:round; stroke-linejoin:round; stroke-width:4; stroke-opacity:1; fill:none" points="199.283,394.32 218.181,394.32 "></polyline>
<path clip-path="url(#clip040)" d="M151.339 1472.25 Q147.728 1472.25 145.899 1475.81 Q144.093 1479.35 144.093 1486.48 Q144.093 1493.59 145.899 1497.15 Q147.728 1500.7 151.339 1500.7 Q154.973 1500.7 156.779 1497.15 Q158.607 1493.59 158.607 1486.48 Q158.607 1479.35 156.779 1475.81 Q154.973 1472.25 151.339 1472.25 M151.339 1468.54 Q157.149 1468.54 160.205 1473.15 Q163.283 1477.73 163.283 1486.48 Q163.283 1495.21 160.205 1499.82 Q157.149 1504.4 151.339 1504.4 Q145.529 1504.4 142.45 1499.82 Q139.394 1495.21 139.394 1486.48 Q139.394 1477.73 142.45 1473.15 Q145.529 1468.54 151.339 1468.54 Z" fill="#000000" fill-rule="nonzero" fill-opacity="1"></path><path clip-path="url(#clip040)" d="M81.0614 1105.13 L99.4178 1105.13 L99.4178 1109.06 L85.3438 1109.06 L85.3438 1117.53 Q86.3623 1117.19 87.3808 1117.02 Q88.3993 1116.84 89.4178 1116.84 Q95.2049 1116.84 98.5845 1120.01 Q101.964 1123.18 101.964 1128.6 Q101.964 1134.18 98.4919 1137.28 Q95.0197 1140.36 88.7003 1140.36 Q86.5243 1140.36 84.2558 1139.99 Q82.0105 1139.62 79.6031 1138.88 L79.6031 1134.18 Q81.6864 1135.31 83.9086 1135.87 Q86.1308 1136.42 88.6077 1136.42 Q92.6123 1136.42 94.9502 1134.31 Q97.2882 1132.21 97.2882 1128.6 Q97.2882 1124.99 94.9502 1122.88 Q92.6123 1120.77 88.6077 1120.77 Q86.7327 1120.77 84.8577 1121.19 Q83.0058 1121.61 81.0614 1122.49 L81.0614 1105.13 Z" fill="#000000" fill-rule="nonzero" fill-opacity="1"></path><path clip-path="url(#clip040)" d="M121.177 1108.2 Q117.566 1108.2 115.737 1111.77 Q113.932 1115.31 113.932 1122.44 Q113.932 1129.55 115.737 1133.11 Q117.566 1136.65 121.177 1136.65 Q124.811 1136.65 126.617 1133.11 Q128.445 1129.55 128.445 1122.44 Q128.445 1115.31 126.617 1111.77 Q124.811 1108.2 121.177 1108.2 M121.177 1104.5 Q126.987 1104.5 130.043 1109.11 Q133.121 1113.69 133.121 1122.44 Q133.121 1131.17 130.043 1135.77 Q126.987 1140.36 121.177 1140.36 Q115.367 1140.36 112.288 1135.77 Q109.233 1131.17 109.233 1122.44 Q109.233 1113.69 112.288 1109.11 Q115.367 1104.5 121.177 1104.5 Z" fill="#000000" fill-rule="nonzero" fill-opacity="1"></path><path clip-path="url(#clip040)" d="M151.339 1108.2 Q147.728 1108.2 145.899 1111.77 Q144.093 1115.31 144.093 1122.44 Q144.093 1129.55 145.899 1133.11 Q147.728 1136.65 151.339 1136.65 Q154.973 1136.65 156.779 1133.11 Q158.607 1129.55 158.607 1122.44 Q158.607 1115.31 156.779 1111.77 Q154.973 1108.2 151.339 1108.2 M151.339 1104.5 Q157.149 1104.5 160.205 1109.11 Q163.283 1113.69 163.283 1122.44 Q163.283 1131.17 160.205 1135.77 Q157.149 1140.36 151.339 1140.36 Q145.529 1140.36 142.45 1135.77 Q139.394 1131.17 139.394 1122.44 Q139.394 1113.69 142.45 1109.11 Q145.529 1104.5 151.339 1104.5 Z" fill="#000000" fill-rule="nonzero" fill-opacity="1"></path><path clip-path="url(#clip040)" d="M51.6634 771.707 L59.3023 771.707 L59.3023 745.342 L50.9921 747.008 L50.9921 742.749 L59.256 741.083 L63.9319 741.083 L63.9319 771.707 L71.5707 771.707 L71.5707 775.643 L51.6634 775.643 L51.6634 771.707 Z" fill="#000000" fill-rule="nonzero" fill-opacity="1"></path><path clip-path="url(#clip040)" d="M91.0151 744.161 Q87.404 744.161 85.5753 747.726 Q83.7697 751.268 83.7697 758.397 Q83.7697 765.504 85.5753 769.068 Q87.404 772.61 91.0151 772.61 Q94.6493 772.61 96.4548 769.068 Q98.2835 765.504 98.2835 758.397 Q98.2835 751.268 96.4548 747.726 Q94.6493 744.161 91.0151 744.161 M91.0151 740.458 Q96.8252 740.458 99.8808 745.064 Q102.959 749.647 102.959 758.397 Q102.959 767.124 99.8808 771.731 Q96.8252 776.314 91.0151 776.314 Q85.2049 776.314 82.1262 771.731 Q79.0707 767.124 79.0707 758.397 Q79.0707 749.647 82.1262 745.064 Q85.2049 740.458 91.0151 740.458 Z" fill="#000000" fill-rule="nonzero" fill-opacity="1"></path><path clip-path="url(#clip040)" d="M121.177 744.161 Q117.566 744.161 115.737 747.726 Q113.932 751.268 113.932 758.397 Q113.932 765.504 115.737 769.068 Q117.566 772.61 121.177 772.61 Q124.811 772.61 126.617 769.068 Q128.445 765.504 128.445 758.397 Q128.445 751.268 126.617 747.726 Q124.811 744.161 121.177 744.161 M121.177 740.458 Q126.987 740.458 130.043 745.064 Q133.121 749.647 133.121 758.397 Q133.121 767.124 130.043 771.731 Q126.987 776.314 121.177 776.314 Q115.367 776.314 112.288 771.731 Q109.233 767.124 109.233 758.397 Q109.233 749.647 112.288 745.064 Q115.367 740.458 121.177 740.458 Z" fill="#000000" fill-rule="nonzero" fill-opacity="1"></path><path clip-path="url(#clip040)" d="M151.339 744.161 Q147.728 744.161 145.899 747.726 Q144.093 751.268 144.093 758.397 Q144.093 765.504 145.899 769.068 Q147.728 772.61 151.339 772.61 Q154.973 772.61 156.779 769.068 Q158.607 765.504 158.607 758.397 Q158.607 751.268 156.779 747.726 Q154.973 744.161 151.339 744.161 M151.339 740.458 Q157.149 740.458 160.205 745.064 Q163.283 749.647 163.283 758.397 Q163.283 767.124 160.205 771.731 Q157.149 776.314 151.339 776.314 Q145.529 776.314 142.45 771.731 Q139.394 767.124 139.394 758.397 Q139.394 749.647 142.45 745.064 Q145.529 740.458 151.339 740.458 Z" fill="#000000" fill-rule="nonzero" fill-opacity="1"></path><path clip-path="url(#clip040)" d="M51.6634 407.665 L59.3023 407.665 L59.3023 381.299 L50.9921 382.966 L50.9921 378.707 L59.256 377.04 L63.9319 377.04 L63.9319 407.665 L71.5707 407.665 L71.5707 411.6 L51.6634 411.6 L51.6634 407.665 Z" fill="#000000" fill-rule="nonzero" fill-opacity="1"></path><path clip-path="url(#clip040)" d="M81.0614 377.04 L99.4178 377.04 L99.4178 380.975 L85.3438 380.975 L85.3438 389.447 Q86.3623 389.1 87.3808 388.938 Q88.3993 388.753 89.4178 388.753 Q95.2049 388.753 98.5845 391.924 Q101.964 395.095 101.964 400.512 Q101.964 406.091 98.4919 409.192 Q95.0197 412.271 88.7003 412.271 Q86.5243 412.271 84.2558 411.901 Q82.0105 411.53 79.6031 410.79 L79.6031 406.091 Q81.6864 407.225 83.9086 407.78 Q86.1308 408.336 88.6077 408.336 Q92.6123 408.336 94.9502 406.23 Q97.2882 404.123 97.2882 400.512 Q97.2882 396.901 94.9502 394.794 Q92.6123 392.688 88.6077 392.688 Q86.7327 392.688 84.8577 393.105 Q83.0058 393.521 81.0614 394.401 L81.0614 377.04 Z" fill="#000000" fill-rule="nonzero" fill-opacity="1"></path><path clip-path="url(#clip040)" d="M121.177 380.119 Q117.566 380.119 115.737 383.683 Q113.932 387.225 113.932 394.355 Q113.932 401.461 115.737 405.026 Q117.566 408.567 121.177 408.567 Q124.811 408.567 126.617 405.026 Q128.445 401.461 128.445 394.355 Q128.445 387.225 126.617 383.683 Q124.811 380.119 121.177 380.119 M121.177 376.415 Q126.987 376.415 130.043 381.021 Q133.121 385.605 133.121 394.355 Q133.121 403.081 130.043 407.688 Q126.987 412.271 121.177 412.271 Q115.367 412.271 112.288 407.688 Q109.233 403.081 109.233 394.355 Q109.233 385.605 112.288 381.021 Q115.367 376.415 121.177 376.415 Z" fill="#000000" fill-rule="nonzero" fill-opacity="1"></path><path clip-path="url(#clip040)" d="M151.339 380.119 Q147.728 380.119 145.899 383.683 Q144.093 387.225 144.093 394.355 Q144.093 401.461 145.899 405.026 Q147.728 408.567 151.339 408.567 Q154.973 408.567 156.779 405.026 Q158.607 401.461 158.607 394.355 Q158.607 387.225 156.779 383.683 Q154.973 380.119 151.339 380.119 M151.339 376.415 Q157.149 376.415 160.205 381.021 Q163.283 385.605 163.283 394.355 Q163.283 403.081 160.205 407.688 Q157.149 412.271 151.339 412.271 Q145.529 412.271 142.45 407.688 Q139.394 403.081 139.394 394.355 Q139.394 385.605 142.45 381.021 Q145.529 376.415 151.339 376.415 Z" fill="#000000" fill-rule="nonzero" fill-opacity="1"></path><path clip-path="url(#clip040)" d="M1140.38 35.3077 Q1142.85 31.1758 1148.96 27.5299 Q1151.35 26.1121 1158.73 26.1121 Q1166.99 26.1121 1172.13 32.6746 Q1177.32 39.2371 1177.32 49.9314 Q1177.32 60.6258 1172.13 67.1883 Q1166.99 73.7508 1158.73 73.7508 Q1153.74 73.7508 1150.14 71.8063 Q1146.57 69.8214 1144.22 65.7705 L1144.22 89.8329 L1136.73 89.8329 L1136.73 50.3365 Q1136.73 40.9789 1140.38 35.3077 M1169.58 49.9314 Q1169.58 41.7081 1166.18 37.0496 Q1162.82 32.3505 1156.9 32.3505 Q1150.99 32.3505 1147.59 37.0496 Q1144.22 41.7081 1144.22 49.9314 Q1144.22 58.1548 1147.59 62.8538 Q1150.99 67.5124 1156.9 67.5124 Q1162.82 67.5124 1166.18 62.8538 Q1169.58 58.1548 1169.58 49.9314 Z" fill="#000000" fill-rule="nonzero" fill-opacity="1"></path><path clip-path="url(#clip040)" d="M1207.58 9.62495 Q1202.15 18.942 1199.52 28.0566 Q1196.89 37.1711 1196.89 46.5287 Q1196.89 55.8863 1199.52 65.0818 Q1202.19 74.2369 1207.58 83.5134 L1201.1 83.5134 Q1195.02 73.9938 1191.98 64.7983 Q1188.99 55.6027 1188.99 46.5287 Q1188.99 37.4952 1191.98 28.3401 Q1194.98 19.1851 1201.1 9.62495 L1207.58 9.62495 Z" fill="#000000" fill-rule="nonzero" fill-opacity="1"></path><path clip-path="url(#clip040)" d="M1252.5 43.8146 L1226.7 43.8146 Q1227.31 55.9268 1230.1 61.0714 Q1233.59 67.3908 1239.62 67.3908 Q1245.7 67.3908 1249.06 61.0309 Q1252.02 55.4407 1252.5 43.8146 M1252.38 36.928 Q1251.25 25.4235 1249.06 21.3726 Q1245.58 14.9721 1239.62 14.9721 Q1233.42 14.9721 1230.14 21.2916 Q1227.55 26.3957 1226.78 36.928 L1252.38 36.928 M1239.62 8.89579 Q1249.34 8.89579 1254.89 17.4837 Q1260.44 26.0311 1260.44 41.1815 Q1260.44 56.2914 1254.89 64.8793 Q1249.34 73.5077 1239.62 73.5077 Q1229.86 73.5077 1224.35 64.8793 Q1218.8 56.2914 1218.8 41.1815 Q1218.8 26.0311 1224.35 17.4837 Q1229.86 8.89579 1239.62 8.89579 Z" fill="#000000" fill-rule="nonzero" fill-opacity="1"></path><path clip-path="url(#clip040)" d="M1275.84 67.958 L1293.01 67.958 L1293.01 72.576 L1268.79 72.576 L1268.79 68.12 Q1270.17 66.8642 1272.72 64.5957 Q1286.65 52.2405 1286.65 48.4326 Q1286.65 45.759 1284.55 44.1387 Q1282.44 42.4778 1279 42.4778 Q1276.89 42.4778 1274.42 43.2069 Q1271.95 43.8956 1269.03 45.3134 L1269.03 40.3308 Q1272.15 39.1965 1274.82 38.6294 Q1277.54 38.0623 1279.85 38.0623 Q1285.72 38.0623 1289.25 40.7359 Q1292.77 43.4095 1292.77 47.7845 Q1292.77 53.4152 1279.36 64.9198 Q1277.09 66.8642 1275.84 67.958 Z" fill="#000000" fill-rule="nonzero" fill-opacity="1"></path><path clip-path="url(#clip040)" d="M1315.66 9.17935 L1315.66 92.1419 L1308.77 92.1419 L1308.77 9.17935 L1315.66 9.17935 Z" fill="#000000" fill-rule="nonzero" fill-opacity="1"></path><path clip-path="url(#clip040)" d="M1342.52 18.8205 L1342.52 65.8515 L1352.4 65.8515 Q1364.92 65.8515 1370.71 60.1802 Q1376.54 54.509 1376.54 42.2752 Q1376.54 30.1225 1370.71 24.4918 Q1364.92 18.8205 1352.4 18.8205 L1342.52 18.8205 M1334.33 12.096 L1351.14 12.096 Q1368.72 12.096 1376.95 19.4281 Q1385.17 26.7198 1385.17 42.2752 Q1385.17 57.9117 1376.91 65.2439 Q1368.64 72.576 1351.14 72.576 L1334.33 72.576 L1334.33 12.096 Z" fill="#000000" fill-rule="nonzero" fill-opacity="1"></path><path clip-path="url(#clip040)" d="M1396.72 9.62495 L1403.2 9.62495 Q1409.27 19.1851 1412.27 28.3401 Q1415.31 37.4952 1415.31 46.5287 Q1415.31 55.6027 1412.27 64.7983 Q1409.27 73.9938 1403.2 83.5134 L1396.72 83.5134 Q1402.1 74.2369 1404.74 65.0818 Q1407.41 55.8863 1407.41 46.5287 Q1407.41 37.1711 1404.74 28.0566 Q1402.1 18.942 1396.72 9.62495 Z" fill="#000000" fill-rule="nonzero" fill-opacity="1"></path><path clip-path="url(#clip042)" d="M317.728 1485.72 L317.728 1486.45 L341.685 1486.45 L341.685 1485.72 L317.728 1485.72 L317.728 1485.72  Z" fill="#009af9" fill-rule="evenodd" fill-opacity="1"></path>
<polyline clip-path="url(#clip042)" style="stroke:#000000; stroke-linecap:round; stroke-linejoin:round; stroke-width:4; stroke-opacity:1; fill:none" points="317.728,1485.72 317.728,1486.45 341.685,1486.45 341.685,1485.72 317.728,1485.72 "></polyline>
<path clip-path="url(#clip042)" d="M341.685 1486.45 L341.685 1486.45 L365.643 1486.45 L365.643 1486.45 L341.685 1486.45 L341.685 1486.45  Z" fill="#009af9" fill-rule="evenodd" fill-opacity="1"></path>
<polyline clip-path="url(#clip042)" style="stroke:#000000; stroke-linecap:round; stroke-linejoin:round; stroke-width:4; stroke-opacity:1; fill:none" points="341.685,1486.45 341.685,1486.45 365.643,1486.45 341.685,1486.45 "></polyline>
<path clip-path="url(#clip042)" d="M365.643 1486.45 L365.643 1486.45 L389.6 1486.45 L389.6 1486.45 L365.643 1486.45 L365.643 1486.45  Z" fill="#009af9" fill-rule="evenodd" fill-opacity="1"></path>
<polyline clip-path="url(#clip042)" style="stroke:#000000; stroke-linecap:round; stroke-linejoin:round; stroke-width:4; stroke-opacity:1; fill:none" points="365.643,1486.45 365.643,1486.45 389.6,1486.45 365.643,1486.45 "></polyline>
<path clip-path="url(#clip042)" d="M389.6 1485.72 L389.6 1486.45 L413.557 1486.45 L413.557 1485.72 L389.6 1485.72 L389.6 1485.72  Z" fill="#009af9" fill-rule="evenodd" fill-opacity="1"></path>
<polyline clip-path="url(#clip042)" style="stroke:#000000; stroke-linecap:round; stroke-linejoin:round; stroke-width:4; stroke-opacity:1; fill:none" points="389.6,1485.72 389.6,1486.45 413.557,1486.45 413.557,1485.72 389.6,1485.72 "></polyline>
<path clip-path="url(#clip042)" d="M413.557 1485.72 L413.557 1486.45 L437.514 1486.45 L437.514 1485.72 L413.557 1485.72 L413.557 1485.72  Z" fill="#009af9" fill-rule="evenodd" fill-opacity="1"></path>
<polyline clip-path="url(#clip042)" style="stroke:#000000; stroke-linecap:round; stroke-linejoin:round; stroke-width:4; stroke-opacity:1; fill:none" points="413.557,1485.72 413.557,1486.45 437.514,1486.45 437.514,1485.72 413.557,1485.72 "></polyline>
<path clip-path="url(#clip042)" d="M437.514 1483.54 L437.514 1486.45 L461.472 1486.45 L461.472 1483.54 L437.514 1483.54 L437.514 1483.54  Z" fill="#009af9" fill-rule="evenodd" fill-opacity="1"></path>
<polyline clip-path="url(#clip042)" style="stroke:#000000; stroke-linecap:round; stroke-linejoin:round; stroke-width:4; stroke-opacity:1; fill:none" points="437.514,1483.54 437.514,1486.45 461.472,1486.45 461.472,1483.54 437.514,1483.54 "></polyline>
<path clip-path="url(#clip042)" d="M461.472 1482.81 L461.472 1486.45 L485.429 1486.45 L485.429 1482.81 L461.472 1482.81 L461.472 1482.81  Z" fill="#009af9" fill-rule="evenodd" fill-opacity="1"></path>
<polyline clip-path="url(#clip042)" style="stroke:#000000; stroke-linecap:round; stroke-linejoin:round; stroke-width:4; stroke-opacity:1; fill:none" points="461.472,1482.81 461.472,1486.45 485.429,1486.45 485.429,1482.81 461.472,1482.81 "></polyline>
<path clip-path="url(#clip042)" d="M485.429 1483.54 L485.429 1486.45 L509.386 1486.45 L509.386 1483.54 L485.429 1483.54 L485.429 1483.54  Z" fill="#009af9" fill-rule="evenodd" fill-opacity="1"></path>
<polyline clip-path="url(#clip042)" style="stroke:#000000; stroke-linecap:round; stroke-linejoin:round; stroke-width:4; stroke-opacity:1; fill:none" points="485.429,1483.54 485.429,1486.45 509.386,1486.45 509.386,1483.54 485.429,1483.54 "></polyline>
<path clip-path="url(#clip042)" d="M509.386 1484.26 L509.386 1486.45 L533.344 1486.45 L533.344 1484.26 L509.386 1484.26 L509.386 1484.26  Z" fill="#009af9" fill-rule="evenodd" fill-opacity="1"></path>
<polyline clip-path="url(#clip042)" style="stroke:#000000; stroke-linecap:round; stroke-linejoin:round; stroke-width:4; stroke-opacity:1; fill:none" points="509.386,1484.26 509.386,1486.45 533.344,1486.45 533.344,1484.26 509.386,1484.26 "></polyline>
<path clip-path="url(#clip042)" d="M533.344 1483.54 L533.344 1486.45 L557.301 1486.45 L557.301 1483.54 L533.344 1483.54 L533.344 1483.54  Z" fill="#009af9" fill-rule="evenodd" fill-opacity="1"></path>
<polyline clip-path="url(#clip042)" style="stroke:#000000; stroke-linecap:round; stroke-linejoin:round; stroke-width:4; stroke-opacity:1; fill:none" points="533.344,1483.54 533.344,1486.45 557.301,1486.45 557.301,1483.54 533.344,1483.54 "></polyline>
<path clip-path="url(#clip042)" d="M557.301 1479.17 L557.301 1486.45 L581.258 1486.45 L581.258 1479.17 L557.301 1479.17 L557.301 1479.17  Z" fill="#009af9" fill-rule="evenodd" fill-opacity="1"></path>
<polyline clip-path="url(#clip042)" style="stroke:#000000; stroke-linecap:round; stroke-linejoin:round; stroke-width:4; stroke-opacity:1; fill:none" points="557.301,1479.17 557.301,1486.45 581.258,1486.45 581.258,1479.17 557.301,1479.17 "></polyline>
<path clip-path="url(#clip042)" d="M581.258 1479.17 L581.258 1486.45 L605.215 1486.45 L605.215 1479.17 L581.258 1479.17 L581.258 1479.17  Z" fill="#009af9" fill-rule="evenodd" fill-opacity="1"></path>
<polyline clip-path="url(#clip042)" style="stroke:#000000; stroke-linecap:round; stroke-linejoin:round; stroke-width:4; stroke-opacity:1; fill:none" points="581.258,1479.17 581.258,1486.45 605.215,1486.45 605.215,1479.17 581.258,1479.17 "></polyline>
<path clip-path="url(#clip042)" d="M605.215 1479.17 L605.215 1486.45 L629.173 1486.45 L629.173 1479.17 L605.215 1479.17 L605.215 1479.17  Z" fill="#009af9" fill-rule="evenodd" fill-opacity="1"></path>
<polyline clip-path="url(#clip042)" style="stroke:#000000; stroke-linecap:round; stroke-linejoin:round; stroke-width:4; stroke-opacity:1; fill:none" points="605.215,1479.17 605.215,1486.45 629.173,1486.45 629.173,1479.17 605.215,1479.17 "></polyline>
<path clip-path="url(#clip042)" d="M629.173 1475.53 L629.173 1486.45 L653.13 1486.45 L653.13 1475.53 L629.173 1475.53 L629.173 1475.53  Z" fill="#009af9" fill-rule="evenodd" fill-opacity="1"></path>
<polyline clip-path="url(#clip042)" style="stroke:#000000; stroke-linecap:round; stroke-linejoin:round; stroke-width:4; stroke-opacity:1; fill:none" points="629.173,1475.53 629.173,1486.45 653.13,1486.45 653.13,1475.53 629.173,1475.53 "></polyline>
<path clip-path="url(#clip042)" d="M653.13 1471.89 L653.13 1486.45 L677.087 1486.45 L677.087 1471.89 L653.13 1471.89 L653.13 1471.89  Z" fill="#009af9" fill-rule="evenodd" fill-opacity="1"></path>
<polyline clip-path="url(#clip042)" style="stroke:#000000; stroke-linecap:round; stroke-linejoin:round; stroke-width:4; stroke-opacity:1; fill:none" points="653.13,1471.89 653.13,1486.45 677.087,1486.45 677.087,1471.89 653.13,1471.89 "></polyline>
<path clip-path="url(#clip042)" d="M677.087 1468.25 L677.087 1486.45 L701.045 1486.45 L701.045 1468.25 L677.087 1468.25 L677.087 1468.25  Z" fill="#009af9" fill-rule="evenodd" fill-opacity="1"></path>
<polyline clip-path="url(#clip042)" style="stroke:#000000; stroke-linecap:round; stroke-linejoin:round; stroke-width:4; stroke-opacity:1; fill:none" points="677.087,1468.25 677.087,1486.45 701.045,1486.45 701.045,1468.25 677.087,1468.25 "></polyline>
<path clip-path="url(#clip042)" d="M701.045 1466.79 L701.045 1486.45 L725.002 1486.45 L725.002 1466.79 L701.045 1466.79 L701.045 1466.79  Z" fill="#009af9" fill-rule="evenodd" fill-opacity="1"></path>
<polyline clip-path="url(#clip042)" style="stroke:#000000; stroke-linecap:round; stroke-linejoin:round; stroke-width:4; stroke-opacity:1; fill:none" points="701.045,1466.79 701.045,1486.45 725.002,1486.45 725.002,1466.79 701.045,1466.79 "></polyline>
<path clip-path="url(#clip042)" d="M725.002 1455.14 L725.002 1486.45 L748.959 1486.45 L748.959 1455.14 L725.002 1455.14 L725.002 1455.14  Z" fill="#009af9" fill-rule="evenodd" fill-opacity="1"></path>
<polyline clip-path="url(#clip042)" style="stroke:#000000; stroke-linecap:round; stroke-linejoin:round; stroke-width:4; stroke-opacity:1; fill:none" points="725.002,1455.14 725.002,1486.45 748.959,1486.45 748.959,1455.14 725.002,1455.14 "></polyline>
<path clip-path="url(#clip042)" d="M748.959 1452.23 L748.959 1486.45 L772.916 1486.45 L772.916 1452.23 L748.959 1452.23 L748.959 1452.23  Z" fill="#009af9" fill-rule="evenodd" fill-opacity="1"></path>
<polyline clip-path="url(#clip042)" style="stroke:#000000; stroke-linecap:round; stroke-linejoin:round; stroke-width:4; stroke-opacity:1; fill:none" points="748.959,1452.23 748.959,1486.45 772.916,1486.45 772.916,1452.23 748.959,1452.23 "></polyline>
<path clip-path="url(#clip042)" d="M772.916 1442.76 L772.916 1486.45 L796.874 1486.45 L796.874 1442.76 L772.916 1442.76 L772.916 1442.76  Z" fill="#009af9" fill-rule="evenodd" fill-opacity="1"></path>
<polyline clip-path="url(#clip042)" style="stroke:#000000; stroke-linecap:round; stroke-linejoin:round; stroke-width:4; stroke-opacity:1; fill:none" points="772.916,1442.76 772.916,1486.45 796.874,1486.45 796.874,1442.76 772.916,1442.76 "></polyline>
<path clip-path="url(#clip042)" d="M796.874 1420.19 L796.874 1486.45 L820.831 1486.45 L820.831 1420.19 L796.874 1420.19 L796.874 1420.19  Z" fill="#009af9" fill-rule="evenodd" fill-opacity="1"></path>
<polyline clip-path="url(#clip042)" style="stroke:#000000; stroke-linecap:round; stroke-linejoin:round; stroke-width:4; stroke-opacity:1; fill:none" points="796.874,1420.19 796.874,1486.45 820.831,1486.45 820.831,1420.19 796.874,1420.19 "></polyline>
<path clip-path="url(#clip042)" d="M820.831 1414.37 L820.831 1486.45 L844.788 1486.45 L844.788 1414.37 L820.831 1414.37 L820.831 1414.37  Z" fill="#009af9" fill-rule="evenodd" fill-opacity="1"></path>
<polyline clip-path="url(#clip042)" style="stroke:#000000; stroke-linecap:round; stroke-linejoin:round; stroke-width:4; stroke-opacity:1; fill:none" points="820.831,1414.37 820.831,1486.45 844.788,1486.45 844.788,1414.37 820.831,1414.37 "></polyline>
<path clip-path="url(#clip042)" d="M844.788 1393.25 L844.788 1486.45 L868.746 1486.45 L868.746 1393.25 L844.788 1393.25 L844.788 1393.25  Z" fill="#009af9" fill-rule="evenodd" fill-opacity="1"></path>
<polyline clip-path="url(#clip042)" style="stroke:#000000; stroke-linecap:round; stroke-linejoin:round; stroke-width:4; stroke-opacity:1; fill:none" points="844.788,1393.25 844.788,1486.45 868.746,1486.45 868.746,1393.25 844.788,1393.25 "></polyline>
<path clip-path="url(#clip042)" d="M868.746 1381.6 L868.746 1486.45 L892.703 1486.45 L892.703 1381.6 L868.746 1381.6 L868.746 1381.6  Z" fill="#009af9" fill-rule="evenodd" fill-opacity="1"></path>
<polyline clip-path="url(#clip042)" style="stroke:#000000; stroke-linecap:round; stroke-linejoin:round; stroke-width:4; stroke-opacity:1; fill:none" points="868.746,1381.6 868.746,1486.45 892.703,1486.45 892.703,1381.6 868.746,1381.6 "></polyline>
<path clip-path="url(#clip042)" d="M892.703 1323.36 L892.703 1486.45 L916.66 1486.45 L916.66 1323.36 L892.703 1323.36 L892.703 1323.36  Z" fill="#009af9" fill-rule="evenodd" fill-opacity="1"></path>
<polyline clip-path="url(#clip042)" style="stroke:#000000; stroke-linecap:round; stroke-linejoin:round; stroke-width:4; stroke-opacity:1; fill:none" points="892.703,1323.36 892.703,1486.45 916.66,1486.45 916.66,1323.36 892.703,1323.36 "></polyline>
<path clip-path="url(#clip042)" d="M916.66 1234.53 L916.66 1486.45 L940.618 1486.45 L940.618 1234.53 L916.66 1234.53 L916.66 1234.53  Z" fill="#009af9" fill-rule="evenodd" fill-opacity="1"></path>
<polyline clip-path="url(#clip042)" style="stroke:#000000; stroke-linecap:round; stroke-linejoin:round; stroke-width:4; stroke-opacity:1; fill:none" points="916.66,1234.53 916.66,1486.45 940.618,1486.45 940.618,1234.53 916.66,1234.53 "></polyline>
<path clip-path="url(#clip042)" d="M940.618 1225.07 L940.618 1486.45 L964.575 1486.45 L964.575 1225.07 L940.618 1225.07 L940.618 1225.07  Z" fill="#009af9" fill-rule="evenodd" fill-opacity="1"></path>
<polyline clip-path="url(#clip042)" style="stroke:#000000; stroke-linecap:round; stroke-linejoin:round; stroke-width:4; stroke-opacity:1; fill:none" points="940.618,1225.07 940.618,1486.45 964.575,1486.45 964.575,1225.07 940.618,1225.07 "></polyline>
<path clip-path="url(#clip042)" d="M964.575 1094.01 L964.575 1486.45 L988.532 1486.45 L988.532 1094.01 L964.575 1094.01 L964.575 1094.01  Z" fill="#009af9" fill-rule="evenodd" fill-opacity="1"></path>
<polyline clip-path="url(#clip042)" style="stroke:#000000; stroke-linecap:round; stroke-linejoin:round; stroke-width:4; stroke-opacity:1; fill:none" points="964.575,1094.01 964.575,1486.45 988.532,1486.45 988.532,1094.01 964.575,1094.01 "></polyline>
<path clip-path="url(#clip042)" d="M988.532 968.779 L988.532 1486.45 L1012.49 1486.45 L1012.49 968.779 L988.532 968.779 L988.532 968.779  Z" fill="#009af9" fill-rule="evenodd" fill-opacity="1"></path>
<polyline clip-path="url(#clip042)" style="stroke:#000000; stroke-linecap:round; stroke-linejoin:round; stroke-width:4; stroke-opacity:1; fill:none" points="988.532,968.779 988.532,1486.45 1012.49,1486.45 1012.49,968.779 988.532,968.779 "></polyline>
<path clip-path="url(#clip042)" d="M1012.49 815.881 L1012.49 1486.45 L1036.45 1486.45 L1036.45 815.881 L1012.49 815.881 L1012.49 815.881  Z" fill="#009af9" fill-rule="evenodd" fill-opacity="1"></path>
<polyline clip-path="url(#clip042)" style="stroke:#000000; stroke-linecap:round; stroke-linejoin:round; stroke-width:4; stroke-opacity:1; fill:none" points="1012.49,815.881 1012.49,1486.45 1036.45,1486.45 1036.45,815.881 1012.49,815.881 "></polyline>
<path clip-path="url(#clip042)" d="M1036.45 690.651 L1036.45 1486.45 L1060.4 1486.45 L1060.4 690.651 L1036.45 690.651 L1036.45 690.651  Z" fill="#009af9" fill-rule="evenodd" fill-opacity="1"></path>
<polyline clip-path="url(#clip042)" style="stroke:#000000; stroke-linecap:round; stroke-linejoin:round; stroke-width:4; stroke-opacity:1; fill:none" points="1036.45,690.651 1036.45,1486.45 1060.4,1486.45 1060.4,690.651 1036.45,690.651 "></polyline>
<path clip-path="url(#clip042)" d="M1060.4 487.515 L1060.4 1486.45 L1084.36 1486.45 L1084.36 487.515 L1060.4 487.515 L1060.4 487.515  Z" fill="#009af9" fill-rule="evenodd" fill-opacity="1"></path>
<polyline clip-path="url(#clip042)" style="stroke:#000000; stroke-linecap:round; stroke-linejoin:round; stroke-width:4; stroke-opacity:1; fill:none" points="1060.4,487.515 1060.4,1486.45 1084.36,1486.45 1084.36,487.515 1060.4,487.515 "></polyline>
<path clip-path="url(#clip042)" d="M1084.36 381.942 L1084.36 1486.45 L1108.32 1486.45 L1108.32 381.942 L1084.36 381.942 L1084.36 381.942  Z" fill="#009af9" fill-rule="evenodd" fill-opacity="1"></path>
<polyline clip-path="url(#clip042)" style="stroke:#000000; stroke-linecap:round; stroke-linejoin:round; stroke-width:4; stroke-opacity:1; fill:none" points="1084.36,381.942 1084.36,1486.45 1108.32,1486.45 1108.32,381.942 1084.36,381.942 "></polyline>
<path clip-path="url(#clip042)" d="M1108.32 254.527 L1108.32 1486.45 L1132.28 1486.45 L1132.28 254.527 L1108.32 254.527 L1108.32 254.527  Z" fill="#009af9" fill-rule="evenodd" fill-opacity="1"></path>
<polyline clip-path="url(#clip042)" style="stroke:#000000; stroke-linecap:round; stroke-linejoin:round; stroke-width:4; stroke-opacity:1; fill:none" points="1108.32,254.527 1108.32,1486.45 1132.28,1486.45 1132.28,254.527 1108.32,254.527 "></polyline>
<path clip-path="url(#clip042)" d="M1132.28 130.753 L1132.28 1486.45 L1156.23 1486.45 L1156.23 130.753 L1132.28 130.753 L1132.28 130.753  Z" fill="#009af9" fill-rule="evenodd" fill-opacity="1"></path>
<polyline clip-path="url(#clip042)" style="stroke:#000000; stroke-linecap:round; stroke-linejoin:round; stroke-width:4; stroke-opacity:1; fill:none" points="1132.28,130.753 1132.28,1486.45 1156.23,1486.45 1156.23,130.753 1132.28,130.753 "></polyline>
<path clip-path="url(#clip042)" d="M1156.23 123.472 L1156.23 1486.45 L1180.19 1486.45 L1180.19 123.472 L1156.23 123.472 L1156.23 123.472  Z" fill="#009af9" fill-rule="evenodd" fill-opacity="1"></path>
<polyline clip-path="url(#clip042)" style="stroke:#000000; stroke-linecap:round; stroke-linejoin:round; stroke-width:4; stroke-opacity:1; fill:none" points="1156.23,123.472 1156.23,1486.45 1180.19,1486.45 1180.19,123.472 1156.23,123.472 "></polyline>
<path clip-path="url(#clip042)" d="M1180.19 186.816 L1180.19 1486.45 L1204.15 1486.45 L1204.15 186.816 L1180.19 186.816 L1180.19 186.816  Z" fill="#009af9" fill-rule="evenodd" fill-opacity="1"></path>
<polyline clip-path="url(#clip042)" style="stroke:#000000; stroke-linecap:round; stroke-linejoin:round; stroke-width:4; stroke-opacity:1; fill:none" points="1180.19,186.816 1180.19,1486.45 1204.15,1486.45 1204.15,186.816 1180.19,186.816 "></polyline>
<path clip-path="url(#clip042)" d="M1204.15 292.388 L1204.15 1486.45 L1228.1 1486.45 L1228.1 292.388 L1204.15 292.388 L1204.15 292.388  Z" fill="#009af9" fill-rule="evenodd" fill-opacity="1"></path>
<polyline clip-path="url(#clip042)" style="stroke:#000000; stroke-linecap:round; stroke-linejoin:round; stroke-width:4; stroke-opacity:1; fill:none" points="1204.15,292.388 1204.15,1486.45 1228.1,1486.45 1228.1,292.388 1204.15,292.388 "></polyline>
<path clip-path="url(#clip042)" d="M1228.1 438.733 L1228.1 1486.45 L1252.06 1486.45 L1252.06 438.733 L1228.1 438.733 L1228.1 438.733  Z" fill="#009af9" fill-rule="evenodd" fill-opacity="1"></path>
<polyline clip-path="url(#clip042)" style="stroke:#000000; stroke-linecap:round; stroke-linejoin:round; stroke-width:4; stroke-opacity:1; fill:none" points="1228.1,438.733 1228.1,1486.45 1252.06,1486.45 1252.06,438.733 1228.1,438.733 "></polyline>
<path clip-path="url(#clip042)" d="M1252.06 627.307 L1252.06 1486.45 L1276.02 1486.45 L1276.02 627.307 L1252.06 627.307 L1252.06 627.307  Z" fill="#009af9" fill-rule="evenodd" fill-opacity="1"></path>
<polyline clip-path="url(#clip042)" style="stroke:#000000; stroke-linecap:round; stroke-linejoin:round; stroke-width:4; stroke-opacity:1; fill:none" points="1252.06,627.307 1252.06,1486.45 1276.02,1486.45 1276.02,627.307 1252.06,627.307 "></polyline>
<path clip-path="url(#clip042)" d="M1276.02 810.785 L1276.02 1486.45 L1299.98 1486.45 L1299.98 810.785 L1276.02 810.785 L1276.02 810.785  Z" fill="#009af9" fill-rule="evenodd" fill-opacity="1"></path>
<polyline clip-path="url(#clip042)" style="stroke:#000000; stroke-linecap:round; stroke-linejoin:round; stroke-width:4; stroke-opacity:1; fill:none" points="1276.02,810.785 1276.02,1486.45 1299.98,1486.45 1299.98,810.785 1276.02,810.785 "></polyline>
<path clip-path="url(#clip042)" d="M1299.98 909.804 L1299.98 1486.45 L1323.93 1486.45 L1323.93 909.804 L1299.98 909.804 L1299.98 909.804  Z" fill="#009af9" fill-rule="evenodd" fill-opacity="1"></path>
<polyline clip-path="url(#clip042)" style="stroke:#000000; stroke-linecap:round; stroke-linejoin:round; stroke-width:4; stroke-opacity:1; fill:none" points="1299.98,909.804 1299.98,1486.45 1323.93,1486.45 1323.93,909.804 1299.98,909.804 "></polyline>
<path clip-path="url(#clip042)" d="M1323.93 1026.3 L1323.93 1486.45 L1347.89 1486.45 L1347.89 1026.3 L1323.93 1026.3 L1323.93 1026.3  Z" fill="#009af9" fill-rule="evenodd" fill-opacity="1"></path>
<polyline clip-path="url(#clip042)" style="stroke:#000000; stroke-linecap:round; stroke-linejoin:round; stroke-width:4; stroke-opacity:1; fill:none" points="1323.93,1026.3 1323.93,1486.45 1347.89,1486.45 1347.89,1026.3 1323.93,1026.3 "></polyline>
<path clip-path="url(#clip042)" d="M1347.89 1121.68 L1347.89 1486.45 L1371.85 1486.45 L1371.85 1121.68 L1347.89 1121.68 L1347.89 1121.68  Z" fill="#009af9" fill-rule="evenodd" fill-opacity="1"></path>
<polyline clip-path="url(#clip042)" style="stroke:#000000; stroke-linecap:round; stroke-linejoin:round; stroke-width:4; stroke-opacity:1; fill:none" points="1347.89,1121.68 1347.89,1486.45 1371.85,1486.45 1371.85,1121.68 1347.89,1121.68 "></polyline>
<path clip-path="url(#clip042)" d="M1371.85 1222.88 L1371.85 1486.45 L1395.81 1486.45 L1395.81 1222.88 L1371.85 1222.88 L1371.85 1222.88  Z" fill="#009af9" fill-rule="evenodd" fill-opacity="1"></path>
<polyline clip-path="url(#clip042)" style="stroke:#000000; stroke-linecap:round; stroke-linejoin:round; stroke-width:4; stroke-opacity:1; fill:none" points="1371.85,1222.88 1371.85,1486.45 1395.81,1486.45 1395.81,1222.88 1371.85,1222.88 "></polyline>
<path clip-path="url(#clip042)" d="M1395.81 1254.92 L1395.81 1486.45 L1419.76 1486.45 L1419.76 1254.92 L1395.81 1254.92 L1395.81 1254.92  Z" fill="#009af9" fill-rule="evenodd" fill-opacity="1"></path>
<polyline clip-path="url(#clip042)" style="stroke:#000000; stroke-linecap:round; stroke-linejoin:round; stroke-width:4; stroke-opacity:1; fill:none" points="1395.81,1254.92 1395.81,1486.45 1419.76,1486.45 1419.76,1254.92 1395.81,1254.92 "></polyline>
<path clip-path="url(#clip042)" d="M1419.76 1306.61 L1419.76 1486.45 L1443.72 1486.45 L1443.72 1306.61 L1419.76 1306.61 L1419.76 1306.61  Z" fill="#009af9" fill-rule="evenodd" fill-opacity="1"></path>
<polyline clip-path="url(#clip042)" style="stroke:#000000; stroke-linecap:round; stroke-linejoin:round; stroke-width:4; stroke-opacity:1; fill:none" points="1419.76,1306.61 1419.76,1486.45 1443.72,1486.45 1443.72,1306.61 1419.76,1306.61 "></polyline>
<path clip-path="url(#clip042)" d="M1443.72 1330.64 L1443.72 1486.45 L1467.68 1486.45 L1467.68 1330.64 L1443.72 1330.64 L1443.72 1330.64  Z" fill="#009af9" fill-rule="evenodd" fill-opacity="1"></path>
<polyline clip-path="url(#clip042)" style="stroke:#000000; stroke-linecap:round; stroke-linejoin:round; stroke-width:4; stroke-opacity:1; fill:none" points="1443.72,1330.64 1443.72,1486.45 1467.68,1486.45 1467.68,1330.64 1443.72,1330.64 "></polyline>
<path clip-path="url(#clip042)" d="M1467.68 1338.65 L1467.68 1486.45 L1491.64 1486.45 L1491.64 1338.65 L1467.68 1338.65 L1467.68 1338.65  Z" fill="#009af9" fill-rule="evenodd" fill-opacity="1"></path>
<polyline clip-path="url(#clip042)" style="stroke:#000000; stroke-linecap:round; stroke-linejoin:round; stroke-width:4; stroke-opacity:1; fill:none" points="1467.68,1338.65 1467.68,1486.45 1491.64,1486.45 1491.64,1338.65 1467.68,1338.65 "></polyline>
<path clip-path="url(#clip042)" d="M1491.64 1364.86 L1491.64 1486.45 L1515.59 1486.45 L1515.59 1364.86 L1491.64 1364.86 L1491.64 1364.86  Z" fill="#009af9" fill-rule="evenodd" fill-opacity="1"></path>
<polyline clip-path="url(#clip042)" style="stroke:#000000; stroke-linecap:round; stroke-linejoin:round; stroke-width:4; stroke-opacity:1; fill:none" points="1491.64,1364.86 1491.64,1486.45 1515.59,1486.45 1515.59,1364.86 1491.64,1364.86 "></polyline>
<path clip-path="url(#clip042)" d="M1515.59 1388.16 L1515.59 1486.45 L1539.55 1486.45 L1539.55 1388.16 L1515.59 1388.16 L1515.59 1388.16  Z" fill="#009af9" fill-rule="evenodd" fill-opacity="1"></path>
<polyline clip-path="url(#clip042)" style="stroke:#000000; stroke-linecap:round; stroke-linejoin:round; stroke-width:4; stroke-opacity:1; fill:none" points="1515.59,1388.16 1515.59,1486.45 1539.55,1486.45 1539.55,1388.16 1515.59,1388.16 "></polyline>
<path clip-path="url(#clip042)" d="M1539.55 1419.46 L1539.55 1486.45 L1563.51 1486.45 L1563.51 1419.46 L1539.55 1419.46 L1539.55 1419.46  Z" fill="#009af9" fill-rule="evenodd" fill-opacity="1"></path>
<polyline clip-path="url(#clip042)" style="stroke:#000000; stroke-linecap:round; stroke-linejoin:round; stroke-width:4; stroke-opacity:1; fill:none" points="1539.55,1419.46 1539.55,1486.45 1563.51,1486.45 1563.51,1419.46 1539.55,1419.46 "></polyline>
<path clip-path="url(#clip042)" d="M1563.51 1408.54 L1563.51 1486.45 L1587.46 1486.45 L1587.46 1408.54 L1563.51 1408.54 L1563.51 1408.54  Z" fill="#009af9" fill-rule="evenodd" fill-opacity="1"></path>
<polyline clip-path="url(#clip042)" style="stroke:#000000; stroke-linecap:round; stroke-linejoin:round; stroke-width:4; stroke-opacity:1; fill:none" points="1563.51,1408.54 1563.51,1486.45 1587.46,1486.45 1587.46,1408.54 1563.51,1408.54 "></polyline>
<path clip-path="url(#clip042)" d="M1587.46 1416.55 L1587.46 1486.45 L1611.42 1486.45 L1611.42 1416.55 L1587.46 1416.55 L1587.46 1416.55  Z" fill="#009af9" fill-rule="evenodd" fill-opacity="1"></path>
<polyline clip-path="url(#clip042)" style="stroke:#000000; stroke-linecap:round; stroke-linejoin:round; stroke-width:4; stroke-opacity:1; fill:none" points="1587.46,1416.55 1587.46,1486.45 1611.42,1486.45 1611.42,1416.55 1587.46,1416.55 "></polyline>
<path clip-path="url(#clip042)" d="M1611.42 1442.76 L1611.42 1486.45 L1635.38 1486.45 L1635.38 1442.76 L1611.42 1442.76 L1611.42 1442.76  Z" fill="#009af9" fill-rule="evenodd" fill-opacity="1"></path>
<polyline clip-path="url(#clip042)" style="stroke:#000000; stroke-linecap:round; stroke-linejoin:round; stroke-width:4; stroke-opacity:1; fill:none" points="1611.42,1442.76 1611.42,1486.45 1635.38,1486.45 1635.38,1442.76 1611.42,1442.76 "></polyline>
<path clip-path="url(#clip042)" d="M1635.38 1429.66 L1635.38 1486.45 L1659.34 1486.45 L1659.34 1429.66 L1635.38 1429.66 L1635.38 1429.66  Z" fill="#009af9" fill-rule="evenodd" fill-opacity="1"></path>
<polyline clip-path="url(#clip042)" style="stroke:#000000; stroke-linecap:round; stroke-linejoin:round; stroke-width:4; stroke-opacity:1; fill:none" points="1635.38,1429.66 1635.38,1486.45 1659.34,1486.45 1659.34,1429.66 1635.38,1429.66 "></polyline>
<path clip-path="url(#clip042)" d="M1659.34 1452.96 L1659.34 1486.45 L1683.29 1486.45 L1683.29 1452.96 L1659.34 1452.96 L1659.34 1452.96  Z" fill="#009af9" fill-rule="evenodd" fill-opacity="1"></path>
<polyline clip-path="url(#clip042)" style="stroke:#000000; stroke-linecap:round; stroke-linejoin:round; stroke-width:4; stroke-opacity:1; fill:none" points="1659.34,1452.96 1659.34,1486.45 1683.29,1486.45 1683.29,1452.96 1659.34,1452.96 "></polyline>
<path clip-path="url(#clip042)" d="M1683.29 1453.68 L1683.29 1486.45 L1707.25 1486.45 L1707.25 1453.68 L1683.29 1453.68 L1683.29 1453.68  Z" fill="#009af9" fill-rule="evenodd" fill-opacity="1"></path>
<polyline clip-path="url(#clip042)" style="stroke:#000000; stroke-linecap:round; stroke-linejoin:round; stroke-width:4; stroke-opacity:1; fill:none" points="1683.29,1453.68 1683.29,1486.45 1707.25,1486.45 1707.25,1453.68 1683.29,1453.68 "></polyline>
<path clip-path="url(#clip042)" d="M1707.25 1458.78 L1707.25 1486.45 L1731.21 1486.45 L1731.21 1458.78 L1707.25 1458.78 L1707.25 1458.78  Z" fill="#009af9" fill-rule="evenodd" fill-opacity="1"></path>
<polyline clip-path="url(#clip042)" style="stroke:#000000; stroke-linecap:round; stroke-linejoin:round; stroke-width:4; stroke-opacity:1; fill:none" points="1707.25,1458.78 1707.25,1486.45 1731.21,1486.45 1731.21,1458.78 1707.25,1458.78 "></polyline>
<path clip-path="url(#clip042)" d="M1731.21 1469.7 L1731.21 1486.45 L1755.17 1486.45 L1755.17 1469.7 L1731.21 1469.7 L1731.21 1469.7  Z" fill="#009af9" fill-rule="evenodd" fill-opacity="1"></path>
<polyline clip-path="url(#clip042)" style="stroke:#000000; stroke-linecap:round; stroke-linejoin:round; stroke-width:4; stroke-opacity:1; fill:none" points="1731.21,1469.7 1731.21,1486.45 1755.17,1486.45 1755.17,1469.7 1731.21,1469.7 "></polyline>
<path clip-path="url(#clip042)" d="M1755.17 1469.7 L1755.17 1486.45 L1779.12 1486.45 L1779.12 1469.7 L1755.17 1469.7 L1755.17 1469.7  Z" fill="#009af9" fill-rule="evenodd" fill-opacity="1"></path>
<polyline clip-path="url(#clip042)" style="stroke:#000000; stroke-linecap:round; stroke-linejoin:round; stroke-width:4; stroke-opacity:1; fill:none" points="1755.17,1469.7 1755.17,1486.45 1779.12,1486.45 1779.12,1469.7 1755.17,1469.7 "></polyline>
<path clip-path="url(#clip042)" d="M1779.12 1467.52 L1779.12 1486.45 L1803.08 1486.45 L1803.08 1467.52 L1779.12 1467.52 L1779.12 1467.52  Z" fill="#009af9" fill-rule="evenodd" fill-opacity="1"></path>
<polyline clip-path="url(#clip042)" style="stroke:#000000; stroke-linecap:round; stroke-linejoin:round; stroke-width:4; stroke-opacity:1; fill:none" points="1779.12,1467.52 1779.12,1486.45 1803.08,1486.45 1803.08,1467.52 1779.12,1467.52 "></polyline>
<path clip-path="url(#clip042)" d="M1803.08 1474.8 L1803.08 1486.45 L1827.04 1486.45 L1827.04 1474.8 L1803.08 1474.8 L1803.08 1474.8  Z" fill="#009af9" fill-rule="evenodd" fill-opacity="1"></path>
<polyline clip-path="url(#clip042)" style="stroke:#000000; stroke-linecap:round; stroke-linejoin:round; stroke-width:4; stroke-opacity:1; fill:none" points="1803.08,1474.8 1803.08,1486.45 1827.04,1486.45 1827.04,1474.8 1803.08,1474.8 "></polyline>
<path clip-path="url(#clip042)" d="M1827.04 1479.17 L1827.04 1486.45 L1850.99 1486.45 L1850.99 1479.17 L1827.04 1479.17 L1827.04 1479.17  Z" fill="#009af9" fill-rule="evenodd" fill-opacity="1"></path>
<polyline clip-path="url(#clip042)" style="stroke:#000000; stroke-linecap:round; stroke-linejoin:round; stroke-width:4; stroke-opacity:1; fill:none" points="1827.04,1479.17 1827.04,1486.45 1850.99,1486.45 1850.99,1479.17 1827.04,1479.17 "></polyline>
<path clip-path="url(#clip042)" d="M1850.99 1479.9 L1850.99 1486.45 L1874.95 1486.45 L1874.95 1479.9 L1850.99 1479.9 L1850.99 1479.9  Z" fill="#009af9" fill-rule="evenodd" fill-opacity="1"></path>
<polyline clip-path="url(#clip042)" style="stroke:#000000; stroke-linecap:round; stroke-linejoin:round; stroke-width:4; stroke-opacity:1; fill:none" points="1850.99,1479.9 1850.99,1486.45 1874.95,1486.45 1874.95,1479.9 1850.99,1479.9 "></polyline>
<path clip-path="url(#clip042)" d="M1874.95 1481.35 L1874.95 1486.45 L1898.91 1486.45 L1898.91 1481.35 L1874.95 1481.35 L1874.95 1481.35  Z" fill="#009af9" fill-rule="evenodd" fill-opacity="1"></path>
<polyline clip-path="url(#clip042)" style="stroke:#000000; stroke-linecap:round; stroke-linejoin:round; stroke-width:4; stroke-opacity:1; fill:none" points="1874.95,1481.35 1874.95,1486.45 1898.91,1486.45 1898.91,1481.35 1874.95,1481.35 "></polyline>
<path clip-path="url(#clip042)" d="M1898.91 1480.62 L1898.91 1486.45 L1922.87 1486.45 L1922.87 1480.62 L1898.91 1480.62 L1898.91 1480.62  Z" fill="#009af9" fill-rule="evenodd" fill-opacity="1"></path>
<polyline clip-path="url(#clip042)" style="stroke:#000000; stroke-linecap:round; stroke-linejoin:round; stroke-width:4; stroke-opacity:1; fill:none" points="1898.91,1480.62 1898.91,1486.45 1922.87,1486.45 1922.87,1480.62 1898.91,1480.62 "></polyline>
<path clip-path="url(#clip042)" d="M1922.87 1483.54 L1922.87 1486.45 L1946.82 1486.45 L1946.82 1483.54 L1922.87 1483.54 L1922.87 1483.54  Z" fill="#009af9" fill-rule="evenodd" fill-opacity="1"></path>
<polyline clip-path="url(#clip042)" style="stroke:#000000; stroke-linecap:round; stroke-linejoin:round; stroke-width:4; stroke-opacity:1; fill:none" points="1922.87,1483.54 1922.87,1486.45 1946.82,1486.45 1946.82,1483.54 1922.87,1483.54 "></polyline>
<path clip-path="url(#clip042)" d="M1946.82 1483.54 L1946.82 1486.45 L1970.78 1486.45 L1970.78 1483.54 L1946.82 1483.54 L1946.82 1483.54  Z" fill="#009af9" fill-rule="evenodd" fill-opacity="1"></path>
<polyline clip-path="url(#clip042)" style="stroke:#000000; stroke-linecap:round; stroke-linejoin:round; stroke-width:4; stroke-opacity:1; fill:none" points="1946.82,1483.54 1946.82,1486.45 1970.78,1486.45 1970.78,1483.54 1946.82,1483.54 "></polyline>
<path clip-path="url(#clip042)" d="M1970.78 1485.72 L1970.78 1486.45 L1994.74 1486.45 L1994.74 1485.72 L1970.78 1485.72 L1970.78 1485.72  Z" fill="#009af9" fill-rule="evenodd" fill-opacity="1"></path>
<polyline clip-path="url(#clip042)" style="stroke:#000000; stroke-linecap:round; stroke-linejoin:round; stroke-width:4; stroke-opacity:1; fill:none" points="1970.78,1485.72 1970.78,1486.45 1994.74,1486.45 1994.74,1485.72 1970.78,1485.72 "></polyline>
<path clip-path="url(#clip042)" d="M1994.74 1486.45 L1994.74 1486.45 L2018.7 1486.45 L2018.7 1486.45 L1994.74 1486.45 L1994.74 1486.45  Z" fill="#009af9" fill-rule="evenodd" fill-opacity="1"></path>
<polyline clip-path="url(#clip042)" style="stroke:#000000; stroke-linecap:round; stroke-linejoin:round; stroke-width:4; stroke-opacity:1; fill:none" points="1994.74,1486.45 1994.74,1486.45 2018.7,1486.45 1994.74,1486.45 "></polyline>
<path clip-path="url(#clip042)" d="M2018.7 1486.45 L2018.7 1486.45 L2042.65 1486.45 L2042.65 1486.45 L2018.7 1486.45 L2018.7 1486.45  Z" fill="#009af9" fill-rule="evenodd" fill-opacity="1"></path>
<polyline clip-path="url(#clip042)" style="stroke:#000000; stroke-linecap:round; stroke-linejoin:round; stroke-width:4; stroke-opacity:1; fill:none" points="2018.7,1486.45 2018.7,1486.45 2042.65,1486.45 2018.7,1486.45 "></polyline>
<path clip-path="url(#clip042)" d="M2042.65 1485.72 L2042.65 1486.45 L2066.61 1486.45 L2066.61 1485.72 L2042.65 1485.72 L2042.65 1485.72  Z" fill="#009af9" fill-rule="evenodd" fill-opacity="1"></path>
<polyline clip-path="url(#clip042)" style="stroke:#000000; stroke-linecap:round; stroke-linejoin:round; stroke-width:4; stroke-opacity:1; fill:none" points="2042.65,1485.72 2042.65,1486.45 2066.61,1486.45 2066.61,1485.72 2042.65,1485.72 "></polyline>
<path clip-path="url(#clip042)" d="M2066.61 1485.72 L2066.61 1486.45 L2090.57 1486.45 L2090.57 1485.72 L2066.61 1485.72 L2066.61 1485.72  Z" fill="#009af9" fill-rule="evenodd" fill-opacity="1"></path>
<polyline clip-path="url(#clip042)" style="stroke:#000000; stroke-linecap:round; stroke-linejoin:round; stroke-width:4; stroke-opacity:1; fill:none" points="2066.61,1485.72 2066.61,1486.45 2090.57,1486.45 2090.57,1485.72 2066.61,1485.72 "></polyline>
<path clip-path="url(#clip042)" d="M2090.57 1485.72 L2090.57 1486.45 L2114.52 1486.45 L2114.52 1485.72 L2090.57 1485.72 L2090.57 1485.72  Z" fill="#009af9" fill-rule="evenodd" fill-opacity="1"></path>
<polyline clip-path="url(#clip042)" style="stroke:#000000; stroke-linecap:round; stroke-linejoin:round; stroke-width:4; stroke-opacity:1; fill:none" points="2090.57,1485.72 2090.57,1486.45 2114.52,1486.45 2114.52,1485.72 2090.57,1485.72 "></polyline>
<path clip-path="url(#clip042)" d="M2114.52 1486.45 L2114.52 1486.45 L2138.48 1486.45 L2138.48 1486.45 L2114.52 1486.45 L2114.52 1486.45  Z" fill="#009af9" fill-rule="evenodd" fill-opacity="1"></path>
<polyline clip-path="url(#clip042)" style="stroke:#000000; stroke-linecap:round; stroke-linejoin:round; stroke-width:4; stroke-opacity:1; fill:none" points="2114.52,1486.45 2114.52,1486.45 2138.48,1486.45 2114.52,1486.45 "></polyline>
<path clip-path="url(#clip042)" d="M2138.48 1486.45 L2138.48 1486.45 L2162.44 1486.45 L2162.44 1486.45 L2138.48 1486.45 L2138.48 1486.45  Z" fill="#009af9" fill-rule="evenodd" fill-opacity="1"></path>
<polyline clip-path="url(#clip042)" style="stroke:#000000; stroke-linecap:round; stroke-linejoin:round; stroke-width:4; stroke-opacity:1; fill:none" points="2138.48,1486.45 2138.48,1486.45 2162.44,1486.45 2138.48,1486.45 "></polyline>
<path clip-path="url(#clip042)" d="M2162.44 1485.72 L2162.44 1486.45 L2186.4 1486.45 L2186.4 1485.72 L2162.44 1485.72 L2162.44 1485.72  Z" fill="#009af9" fill-rule="evenodd" fill-opacity="1"></path>
<polyline clip-path="url(#clip042)" style="stroke:#000000; stroke-linecap:round; stroke-linejoin:round; stroke-width:4; stroke-opacity:1; fill:none" points="2162.44,1485.72 2162.44,1486.45 2186.4,1486.45 2186.4,1485.72 2162.44,1485.72 "></polyline>
<path clip-path="url(#clip042)" d="M2186.4 1486.45 L2186.4 1486.45 L2210.35 1486.45 L2210.35 1486.45 L2186.4 1486.45 L2186.4 1486.45  Z" fill="#009af9" fill-rule="evenodd" fill-opacity="1"></path>
<polyline clip-path="url(#clip042)" style="stroke:#000000; stroke-linecap:round; stroke-linejoin:round; stroke-width:4; stroke-opacity:1; fill:none" points="2186.4,1486.45 2186.4,1486.45 2210.35,1486.45 2186.4,1486.45 "></polyline>
<path clip-path="url(#clip042)" d="M2210.35 1485.72 L2210.35 1486.45 L2234.31 1486.45 L2234.31 1485.72 L2210.35 1485.72 L2210.35 1485.72  Z" fill="#009af9" fill-rule="evenodd" fill-opacity="1"></path>
<polyline clip-path="url(#clip042)" style="stroke:#000000; stroke-linecap:round; stroke-linejoin:round; stroke-width:4; stroke-opacity:1; fill:none" points="2210.35,1485.72 2210.35,1486.45 2234.31,1486.45 2234.31,1485.72 2210.35,1485.72 "></polyline>
<circle clip-path="url(#clip042)" style="fill:#009af9; stroke:none; fill-opacity:0" cx="329.707" cy="1485.72" r="2"></circle>
<circle clip-path="url(#clip042)" style="fill:#009af9; stroke:none; fill-opacity:0" cx="353.664" cy="1486.45" r="2"></circle>
<circle clip-path="url(#clip042)" style="fill:#009af9; stroke:none; fill-opacity:0" cx="377.621" cy="1486.45" r="2"></circle>
<circle clip-path="url(#clip042)" style="fill:#009af9; stroke:none; fill-opacity:0" cx="401.579" cy="1485.72" r="2"></circle>
<circle clip-path="url(#clip042)" style="fill:#009af9; stroke:none; fill-opacity:0" cx="425.536" cy="1485.72" r="2"></circle>
<circle clip-path="url(#clip042)" style="fill:#009af9; stroke:none; fill-opacity:0" cx="449.493" cy="1483.54" r="2"></circle>
<circle clip-path="url(#clip042)" style="fill:#009af9; stroke:none; fill-opacity:0" cx="473.45" cy="1482.81" r="2"></circle>
<circle clip-path="url(#clip042)" style="fill:#009af9; stroke:none; fill-opacity:0" cx="497.408" cy="1483.54" r="2"></circle>
<circle clip-path="url(#clip042)" style="fill:#009af9; stroke:none; fill-opacity:0" cx="521.365" cy="1484.26" r="2"></circle>
<circle clip-path="url(#clip042)" style="fill:#009af9; stroke:none; fill-opacity:0" cx="545.322" cy="1483.54" r="2"></circle>
<circle clip-path="url(#clip042)" style="fill:#009af9; stroke:none; fill-opacity:0" cx="569.28" cy="1479.17" r="2"></circle>
<circle clip-path="url(#clip042)" style="fill:#009af9; stroke:none; fill-opacity:0" cx="593.237" cy="1479.17" r="2"></circle>
<circle clip-path="url(#clip042)" style="fill:#009af9; stroke:none; fill-opacity:0" cx="617.194" cy="1479.17" r="2"></circle>
<circle clip-path="url(#clip042)" style="fill:#009af9; stroke:none; fill-opacity:0" cx="641.151" cy="1475.53" r="2"></circle>
<circle clip-path="url(#clip042)" style="fill:#009af9; stroke:none; fill-opacity:0" cx="665.109" cy="1471.89" r="2"></circle>
<circle clip-path="url(#clip042)" style="fill:#009af9; stroke:none; fill-opacity:0" cx="689.066" cy="1468.25" r="2"></circle>
<circle clip-path="url(#clip042)" style="fill:#009af9; stroke:none; fill-opacity:0" cx="713.023" cy="1466.79" r="2"></circle>
<circle clip-path="url(#clip042)" style="fill:#009af9; stroke:none; fill-opacity:0" cx="736.981" cy="1455.14" r="2"></circle>
<circle clip-path="url(#clip042)" style="fill:#009af9; stroke:none; fill-opacity:0" cx="760.938" cy="1452.23" r="2"></circle>
<circle clip-path="url(#clip042)" style="fill:#009af9; stroke:none; fill-opacity:0" cx="784.895" cy="1442.76" r="2"></circle>
<circle clip-path="url(#clip042)" style="fill:#009af9; stroke:none; fill-opacity:0" cx="808.852" cy="1420.19" r="2"></circle>
<circle clip-path="url(#clip042)" style="fill:#009af9; stroke:none; fill-opacity:0" cx="832.81" cy="1414.37" r="2"></circle>
<circle clip-path="url(#clip042)" style="fill:#009af9; stroke:none; fill-opacity:0" cx="856.767" cy="1393.25" r="2"></circle>
<circle clip-path="url(#clip042)" style="fill:#009af9; stroke:none; fill-opacity:0" cx="880.724" cy="1381.6" r="2"></circle>
<circle clip-path="url(#clip042)" style="fill:#009af9; stroke:none; fill-opacity:0" cx="904.682" cy="1323.36" r="2"></circle>
<circle clip-path="url(#clip042)" style="fill:#009af9; stroke:none; fill-opacity:0" cx="928.639" cy="1234.53" r="2"></circle>
<circle clip-path="url(#clip042)" style="fill:#009af9; stroke:none; fill-opacity:0" cx="952.596" cy="1225.07" r="2"></circle>
<circle clip-path="url(#clip042)" style="fill:#009af9; stroke:none; fill-opacity:0" cx="976.553" cy="1094.01" r="2"></circle>
<circle clip-path="url(#clip042)" style="fill:#009af9; stroke:none; fill-opacity:0" cx="1000.51" cy="968.779" r="2"></circle>
<circle clip-path="url(#clip042)" style="fill:#009af9; stroke:none; fill-opacity:0" cx="1024.47" cy="815.881" r="2"></circle>
<circle clip-path="url(#clip042)" style="fill:#009af9; stroke:none; fill-opacity:0" cx="1048.43" cy="690.651" r="2"></circle>
<circle clip-path="url(#clip042)" style="fill:#009af9; stroke:none; fill-opacity:0" cx="1072.38" cy="487.515" r="2"></circle>
<circle clip-path="url(#clip042)" style="fill:#009af9; stroke:none; fill-opacity:0" cx="1096.34" cy="381.942" r="2"></circle>
<circle clip-path="url(#clip042)" style="fill:#009af9; stroke:none; fill-opacity:0" cx="1120.3" cy="254.527" r="2"></circle>
<circle clip-path="url(#clip042)" style="fill:#009af9; stroke:none; fill-opacity:0" cx="1144.25" cy="130.753" r="2"></circle>
<circle clip-path="url(#clip042)" style="fill:#009af9; stroke:none; fill-opacity:0" cx="1168.21" cy="123.472" r="2"></circle>
<circle clip-path="url(#clip042)" style="fill:#009af9; stroke:none; fill-opacity:0" cx="1192.17" cy="186.816" r="2"></circle>
<circle clip-path="url(#clip042)" style="fill:#009af9; stroke:none; fill-opacity:0" cx="1216.13" cy="292.388" r="2"></circle>
<circle clip-path="url(#clip042)" style="fill:#009af9; stroke:none; fill-opacity:0" cx="1240.08" cy="438.733" r="2"></circle>
<circle clip-path="url(#clip042)" style="fill:#009af9; stroke:none; fill-opacity:0" cx="1264.04" cy="627.307" r="2"></circle>
<circle clip-path="url(#clip042)" style="fill:#009af9; stroke:none; fill-opacity:0" cx="1288" cy="810.785" r="2"></circle>
<circle clip-path="url(#clip042)" style="fill:#009af9; stroke:none; fill-opacity:0" cx="1311.96" cy="909.804" r="2"></circle>
<circle clip-path="url(#clip042)" style="fill:#009af9; stroke:none; fill-opacity:0" cx="1335.91" cy="1026.3" r="2"></circle>
<circle clip-path="url(#clip042)" style="fill:#009af9; stroke:none; fill-opacity:0" cx="1359.87" cy="1121.68" r="2"></circle>
<circle clip-path="url(#clip042)" style="fill:#009af9; stroke:none; fill-opacity:0" cx="1383.83" cy="1222.88" r="2"></circle>
<circle clip-path="url(#clip042)" style="fill:#009af9; stroke:none; fill-opacity:0" cx="1407.78" cy="1254.92" r="2"></circle>
<circle clip-path="url(#clip042)" style="fill:#009af9; stroke:none; fill-opacity:0" cx="1431.74" cy="1306.61" r="2"></circle>
<circle clip-path="url(#clip042)" style="fill:#009af9; stroke:none; fill-opacity:0" cx="1455.7" cy="1330.64" r="2"></circle>
<circle clip-path="url(#clip042)" style="fill:#009af9; stroke:none; fill-opacity:0" cx="1479.66" cy="1338.65" r="2"></circle>
<circle clip-path="url(#clip042)" style="fill:#009af9; stroke:none; fill-opacity:0" cx="1503.61" cy="1364.86" r="2"></circle>
<circle clip-path="url(#clip042)" style="fill:#009af9; stroke:none; fill-opacity:0" cx="1527.57" cy="1388.16" r="2"></circle>
<circle clip-path="url(#clip042)" style="fill:#009af9; stroke:none; fill-opacity:0" cx="1551.53" cy="1419.46" r="2"></circle>
<circle clip-path="url(#clip042)" style="fill:#009af9; stroke:none; fill-opacity:0" cx="1575.49" cy="1408.54" r="2"></circle>
<circle clip-path="url(#clip042)" style="fill:#009af9; stroke:none; fill-opacity:0" cx="1599.44" cy="1416.55" r="2"></circle>
<circle clip-path="url(#clip042)" style="fill:#009af9; stroke:none; fill-opacity:0" cx="1623.4" cy="1442.76" r="2"></circle>
<circle clip-path="url(#clip042)" style="fill:#009af9; stroke:none; fill-opacity:0" cx="1647.36" cy="1429.66" r="2"></circle>
<circle clip-path="url(#clip042)" style="fill:#009af9; stroke:none; fill-opacity:0" cx="1671.31" cy="1452.96" r="2"></circle>
<circle clip-path="url(#clip042)" style="fill:#009af9; stroke:none; fill-opacity:0" cx="1695.27" cy="1453.68" r="2"></circle>
<circle clip-path="url(#clip042)" style="fill:#009af9; stroke:none; fill-opacity:0" cx="1719.23" cy="1458.78" r="2"></circle>
<circle clip-path="url(#clip042)" style="fill:#009af9; stroke:none; fill-opacity:0" cx="1743.19" cy="1469.7" r="2"></circle>
<circle clip-path="url(#clip042)" style="fill:#009af9; stroke:none; fill-opacity:0" cx="1767.14" cy="1469.7" r="2"></circle>
<circle clip-path="url(#clip042)" style="fill:#009af9; stroke:none; fill-opacity:0" cx="1791.1" cy="1467.52" r="2"></circle>
<circle clip-path="url(#clip042)" style="fill:#009af9; stroke:none; fill-opacity:0" cx="1815.06" cy="1474.8" r="2"></circle>
<circle clip-path="url(#clip042)" style="fill:#009af9; stroke:none; fill-opacity:0" cx="1839.02" cy="1479.17" r="2"></circle>
<circle clip-path="url(#clip042)" style="fill:#009af9; stroke:none; fill-opacity:0" cx="1862.97" cy="1479.9" r="2"></circle>
<circle clip-path="url(#clip042)" style="fill:#009af9; stroke:none; fill-opacity:0" cx="1886.93" cy="1481.35" r="2"></circle>
<circle clip-path="url(#clip042)" style="fill:#009af9; stroke:none; fill-opacity:0" cx="1910.89" cy="1480.62" r="2"></circle>
<circle clip-path="url(#clip042)" style="fill:#009af9; stroke:none; fill-opacity:0" cx="1934.84" cy="1483.54" r="2"></circle>
<circle clip-path="url(#clip042)" style="fill:#009af9; stroke:none; fill-opacity:0" cx="1958.8" cy="1483.54" r="2"></circle>
<circle clip-path="url(#clip042)" style="fill:#009af9; stroke:none; fill-opacity:0" cx="1982.76" cy="1485.72" r="2"></circle>
<circle clip-path="url(#clip042)" style="fill:#009af9; stroke:none; fill-opacity:0" cx="2006.72" cy="1486.45" r="2"></circle>
<circle clip-path="url(#clip042)" style="fill:#009af9; stroke:none; fill-opacity:0" cx="2030.67" cy="1486.45" r="2"></circle>
<circle clip-path="url(#clip042)" style="fill:#009af9; stroke:none; fill-opacity:0" cx="2054.63" cy="1485.72" r="2"></circle>
<circle clip-path="url(#clip042)" style="fill:#009af9; stroke:none; fill-opacity:0" cx="2078.59" cy="1485.72" r="2"></circle>
<circle clip-path="url(#clip042)" style="fill:#009af9; stroke:none; fill-opacity:0" cx="2102.55" cy="1485.72" r="2"></circle>
<circle clip-path="url(#clip042)" style="fill:#009af9; stroke:none; fill-opacity:0" cx="2126.5" cy="1486.45" r="2"></circle>
<circle clip-path="url(#clip042)" style="fill:#009af9; stroke:none; fill-opacity:0" cx="2150.46" cy="1486.45" r="2"></circle>
<circle clip-path="url(#clip042)" style="fill:#009af9; stroke:none; fill-opacity:0" cx="2174.42" cy="1485.72" r="2"></circle>
<circle clip-path="url(#clip042)" style="fill:#009af9; stroke:none; fill-opacity:0" cx="2198.38" cy="1486.45" r="2"></circle>
<circle clip-path="url(#clip042)" style="fill:#009af9; stroke:none; fill-opacity:0" cx="2222.33" cy="1485.72" r="2"></circle>
<path clip-path="url(#clip040)" d="M2013.2 272.585 L2280.97 272.585 L2280.97 168.905 L2013.2 168.905  Z" fill="#ffffff" fill-rule="evenodd" fill-opacity="1"></path>
<polyline clip-path="url(#clip040)" style="stroke:#000000; stroke-linecap:round; stroke-linejoin:round; stroke-width:4; stroke-opacity:1; fill:none" points="2013.2,272.585 2280.97,272.585 2280.97,168.905 2013.2,168.905 2013.2,272.585 "></polyline>
<path clip-path="url(#clip040)" d="M2037.12 241.481 L2180.69 241.481 L2180.69 200.009 L2037.12 200.009 L2037.12 241.481  Z" fill="#009af9" fill-rule="evenodd" fill-opacity="1"></path>
<polyline clip-path="url(#clip040)" style="stroke:#000000; stroke-linecap:round; stroke-linejoin:round; stroke-width:4; stroke-opacity:1; fill:none" points="2037.12,241.481 2180.69,241.481 2180.69,200.009 2037.12,200.009 2037.12,241.481 "></polyline>
<path clip-path="url(#clip040)" d="M2218.46 240.432 Q2216.65 245.062 2214.94 246.474 Q2213.23 247.886 2210.36 247.886 L2206.95 247.886 L2206.95 244.321 L2209.45 244.321 Q2211.21 244.321 2212.19 243.488 Q2213.16 242.654 2214.34 239.552 L2215.1 237.608 L2204.62 212.099 L2209.13 212.099 L2217.23 232.377 L2225.33 212.099 L2229.85 212.099 L2218.46 240.432 Z" fill="#000000" fill-rule="nonzero" fill-opacity="1"></path><path clip-path="url(#clip040)" d="M2237.14 234.089 L2244.78 234.089 L2244.78 207.724 L2236.47 209.391 L2236.47 205.131 L2244.73 203.465 L2249.41 203.465 L2249.41 234.089 L2257.05 234.089 L2257.05 238.025 L2237.14 238.025 L2237.14 234.089 Z" fill="#000000" fill-rule="nonzero" fill-opacity="1"></path></svg>