<svg xmlns="http://www.w3.org/2000/svg" xmlns:xlink="http://www.w3.org/1999/xlink" width="600" height="400" viewBox="0 0 2400 1600">
<defs>
  <clipPath id="clip780">
    <rect x="0" y="0" width="2400" height="1600"></rect>
  </clipPath>
</defs>
<path clip-path="url(#clip780)" d="M0 1600 L2400 1600 L2400 0 L0 0  Z" fill="#ffffff" fill-rule="evenodd" fill-opacity="1"></path>
<defs>
  <clipPath id="clip781">
    <rect x="480" y="0" width="1681" height="1600"></rect>
  </clipPath>
</defs>
<path clip-path="url(#clip780)" d="M193.936 724.562 L2352.76 724.562 L2352.76 123.472 L193.936 123.472  Z" fill="#ffffff" fill-rule="evenodd" fill-opacity="1"></path>
<defs>
  <clipPath id="clip782">
    <rect x="193" y="123" width="2160" height="602"></rect>
  </clipPath>
</defs>
<polyline clip-path="url(#clip782)" style="stroke:#000000; stroke-linecap:round; stroke-linejoin:round; stroke-width:2; stroke-opacity:0.1; fill:none" points="255.035,724.562 255.035,123.472 "></polyline>
<polyline clip-path="url(#clip782)" style="stroke:#000000; stroke-linecap:round; stroke-linejoin:round; stroke-width:2; stroke-opacity:0.1; fill:none" points="764.19,724.562 764.19,123.472 "></polyline>
<polyline clip-path="url(#clip782)" style="stroke:#000000; stroke-linecap:round; stroke-linejoin:round; stroke-width:2; stroke-opacity:0.1; fill:none" points="1273.35,724.562 1273.35,123.472 "></polyline>
<polyline clip-path="url(#clip782)" style="stroke:#000000; stroke-linecap:round; stroke-linejoin:round; stroke-width:2; stroke-opacity:0.1; fill:none" points="1782.5,724.562 1782.5,123.472 "></polyline>
<polyline clip-path="url(#clip782)" style="stroke:#000000; stroke-linecap:round; stroke-linejoin:round; stroke-width:2; stroke-opacity:0.1; fill:none" points="2291.66,724.562 2291.66,123.472 "></polyline>
<polyline clip-path="url(#clip780)" style="stroke:#000000; stroke-linecap:round; stroke-linejoin:round; stroke-width:4; stroke-opacity:1; fill:none" points="193.936,724.562 2352.76,724.562 "></polyline>
<polyline clip-path="url(#clip780)" style="stroke:#000000; stroke-linecap:round; stroke-linejoin:round; stroke-width:4; stroke-opacity:1; fill:none" points="255.035,724.562 255.035,705.664 "></polyline>
<polyline clip-path="url(#clip780)" style="stroke:#000000; stroke-linecap:round; stroke-linejoin:round; stroke-width:4; stroke-opacity:1; fill:none" points="764.19,724.562 764.19,705.664 "></polyline>
<polyline clip-path="url(#clip780)" style="stroke:#000000; stroke-linecap:round; stroke-linejoin:round; stroke-width:4; stroke-opacity:1; fill:none" points="1273.35,724.562 1273.35,705.664 "></polyline>
<polyline clip-path="url(#clip780)" style="stroke:#000000; stroke-linecap:round; stroke-linejoin:round; stroke-width:4; stroke-opacity:1; fill:none" points="1782.5,724.562 1782.5,705.664 "></polyline>
<polyline clip-path="url(#clip780)" style="stroke:#000000; stroke-linecap:round; stroke-linejoin:round; stroke-width:4; stroke-opacity:1; fill:none" points="2291.66,724.562 2291.66,705.664 "></polyline>
<path clip-path="url(#clip780)" d="M217.338 755.481 Q213.727 755.481 211.898 759.045 Q210.093 762.587 210.093 769.717 Q210.093 776.823 211.898 780.388 Q213.727 783.929 217.338 783.929 Q220.972 783.929 222.778 780.388 Q224.607 776.823 224.607 769.717 Q224.607 762.587 222.778 759.045 Q220.972 755.481 217.338 755.481 M217.338 751.777 Q223.148 751.777 226.204 756.383 Q229.282 760.967 229.282 769.717 Q229.282 778.443 226.204 783.05 Q223.148 787.633 217.338 787.633 Q211.528 787.633 208.449 783.05 Q205.394 778.443 205.394 769.717 Q205.394 760.967 208.449 756.383 Q211.528 751.777 217.338 751.777 Z" fill="#000000" fill-rule="nonzero" fill-opacity="1"></path><path clip-path="url(#clip780)" d="M237.5 781.082 L242.384 781.082 L242.384 786.962 L237.5 786.962 L237.5 781.082 Z" fill="#000000" fill-rule="nonzero" fill-opacity="1"></path><path clip-path="url(#clip780)" d="M262.569 755.481 Q258.958 755.481 257.13 759.045 Q255.324 762.587 255.324 769.717 Q255.324 776.823 257.13 780.388 Q258.958 783.929 262.569 783.929 Q266.204 783.929 268.009 780.388 Q269.838 776.823 269.838 769.717 Q269.838 762.587 268.009 759.045 Q266.204 755.481 262.569 755.481 M262.569 751.777 Q268.38 751.777 271.435 756.383 Q274.514 760.967 274.514 769.717 Q274.514 778.443 271.435 783.05 Q268.38 787.633 262.569 787.633 Q256.759 787.633 253.681 783.05 Q250.625 778.443 250.625 769.717 Q250.625 760.967 253.681 756.383 Q256.759 751.777 262.569 751.777 Z" fill="#000000" fill-rule="nonzero" fill-opacity="1"></path><path clip-path="url(#clip780)" d="M292.731 755.481 Q289.12 755.481 287.291 759.045 Q285.486 762.587 285.486 769.717 Q285.486 776.823 287.291 780.388 Q289.12 783.929 292.731 783.929 Q296.365 783.929 298.171 780.388 Q300 776.823 300 769.717 Q300 762.587 298.171 759.045 Q296.365 755.481 292.731 755.481 M292.731 751.777 Q298.541 751.777 301.597 756.383 Q304.676 760.967 304.676 769.717 Q304.676 778.443 301.597 783.05 Q298.541 787.633 292.731 787.633 Q286.921 787.633 283.842 783.05 Q280.787 778.443 280.787 769.717 Q280.787 760.967 283.842 756.383 Q286.921 751.777 292.731 751.777 Z" fill="#000000" fill-rule="nonzero" fill-opacity="1"></path><path clip-path="url(#clip780)" d="M726.991 755.481 Q723.38 755.481 721.552 759.045 Q719.746 762.587 719.746 769.717 Q719.746 776.823 721.552 780.388 Q723.38 783.929 726.991 783.929 Q730.626 783.929 732.431 780.388 Q734.26 776.823 734.26 769.717 Q734.26 762.587 732.431 759.045 Q730.626 755.481 726.991 755.481 M726.991 751.777 Q732.802 751.777 735.857 756.383 Q738.936 760.967 738.936 769.717 Q738.936 778.443 735.857 783.05 Q732.802 787.633 726.991 787.633 Q721.181 787.633 718.103 783.05 Q715.047 778.443 715.047 769.717 Q715.047 760.967 718.103 756.383 Q721.181 751.777 726.991 751.777 Z" fill="#000000" fill-rule="nonzero" fill-opacity="1"></path><path clip-path="url(#clip780)" d="M747.153 781.082 L752.038 781.082 L752.038 786.962 L747.153 786.962 L747.153 781.082 Z" fill="#000000" fill-rule="nonzero" fill-opacity="1"></path><path clip-path="url(#clip780)" d="M766.25 783.027 L782.57 783.027 L782.57 786.962 L760.626 786.962 L760.626 783.027 Q763.288 780.272 767.871 775.643 Q772.477 770.99 773.658 769.647 Q775.903 767.124 776.783 765.388 Q777.686 763.629 777.686 761.939 Q777.686 759.184 775.741 757.448 Q773.82 755.712 770.718 755.712 Q768.519 755.712 766.065 756.476 Q763.635 757.24 760.857 758.791 L760.857 754.069 Q763.681 752.934 766.135 752.356 Q768.588 751.777 770.625 751.777 Q775.996 751.777 779.19 754.462 Q782.385 757.147 782.385 761.638 Q782.385 763.768 781.574 765.689 Q780.787 767.587 778.681 770.18 Q778.102 770.851 775 774.068 Q771.899 777.263 766.25 783.027 Z" fill="#000000" fill-rule="nonzero" fill-opacity="1"></path><path clip-path="url(#clip780)" d="M792.431 752.402 L810.787 752.402 L810.787 756.337 L796.713 756.337 L796.713 764.809 Q797.732 764.462 798.75 764.3 Q799.769 764.115 800.787 764.115 Q806.574 764.115 809.954 767.286 Q813.334 770.457 813.334 775.874 Q813.334 781.453 809.861 784.554 Q806.389 787.633 800.07 787.633 Q797.894 787.633 795.625 787.263 Q793.38 786.892 790.973 786.152 L790.973 781.453 Q793.056 782.587 795.278 783.142 Q797.5 783.698 799.977 783.698 Q803.982 783.698 806.32 781.592 Q808.658 779.485 808.658 775.874 Q808.658 772.263 806.32 770.156 Q803.982 768.05 799.977 768.05 Q798.102 768.05 796.227 768.467 Q794.375 768.883 792.431 769.763 L792.431 752.402 Z" fill="#000000" fill-rule="nonzero" fill-opacity="1"></path><path clip-path="url(#clip780)" d="M1235.65 755.481 Q1232.04 755.481 1230.21 759.045 Q1228.4 762.587 1228.4 769.717 Q1228.4 776.823 1230.21 780.388 Q1232.04 783.929 1235.65 783.929 Q1239.28 783.929 1241.09 780.388 Q1242.92 776.823 1242.92 769.717 Q1242.92 762.587 1241.09 759.045 Q1239.28 755.481 1235.65 755.481 M1235.65 751.777 Q1241.46 751.777 1244.52 756.383 Q1247.59 760.967 1247.59 769.717 Q1247.59 778.443 1244.52 783.05 Q1241.46 787.633 1235.65 787.633 Q1229.84 787.633 1226.76 783.05 Q1223.71 778.443 1223.71 769.717 Q1223.71 760.967 1226.76 756.383 Q1229.84 751.777 1235.65 751.777 Z" fill="#000000" fill-rule="nonzero" fill-opacity="1"></path><path clip-path="url(#clip780)" d="M1255.81 781.082 L1260.7 781.082 L1260.7 786.962 L1255.81 786.962 L1255.81 781.082 Z" fill="#000000" fill-rule="nonzero" fill-opacity="1"></path><path clip-path="url(#clip780)" d="M1270.93 752.402 L1289.28 752.402 L1289.28 756.337 L1275.21 756.337 L1275.21 764.809 Q1276.23 764.462 1277.25 764.3 Q1278.26 764.115 1279.28 764.115 Q1285.07 764.115 1288.45 767.286 Q1291.83 770.457 1291.83 775.874 Q1291.83 781.453 1288.36 784.554 Q1284.89 787.633 1278.57 787.633 Q1276.39 787.633 1274.12 787.263 Q1271.88 786.892 1269.47 786.152 L1269.47 781.453 Q1271.55 782.587 1273.77 783.142 Q1276 783.698 1278.47 783.698 Q1282.48 783.698 1284.82 781.592 Q1287.15 779.485 1287.15 775.874 Q1287.15 772.263 1284.82 770.156 Q1282.48 768.05 1278.47 768.05 Q1276.6 768.05 1274.72 768.467 Q1272.87 768.883 1270.93 769.763 L1270.93 752.402 Z" fill="#000000" fill-rule="nonzero" fill-opacity="1"></path><path clip-path="url(#clip780)" d="M1311.04 755.481 Q1307.43 755.481 1305.6 759.045 Q1303.8 762.587 1303.8 769.717 Q1303.8 776.823 1305.6 780.388 Q1307.43 783.929 1311.04 783.929 Q1314.68 783.929 1316.48 780.388 Q1318.31 776.823 1318.31 769.717 Q1318.31 762.587 1316.48 759.045 Q1314.68 755.481 1311.04 755.481 M1311.04 751.777 Q1316.85 751.777 1319.91 756.383 Q1322.99 760.967 1322.99 769.717 Q1322.99 778.443 1319.91 783.05 Q1316.85 787.633 1311.04 787.633 Q1305.23 787.633 1302.15 783.05 Q1299.1 778.443 1299.1 769.717 Q1299.1 760.967 1302.15 756.383 Q1305.23 751.777 1311.04 751.777 Z" fill="#000000" fill-rule="nonzero" fill-opacity="1"></path><path clip-path="url(#clip780)" d="M1745.3 755.481 Q1741.69 755.481 1739.86 759.045 Q1738.06 762.587 1738.06 769.717 Q1738.06 776.823 1739.86 780.388 Q1741.69 783.929 1745.3 783.929 Q1748.94 783.929 1750.74 780.388 Q1752.57 776.823 1752.57 769.717 Q1752.57 762.587 1750.74 759.045 Q1748.94 755.481 1745.3 755.481 M1745.3 751.777 Q1751.11 751.777 1754.17 756.383 Q1757.25 760.967 1757.25 769.717 Q1757.25 778.443 1754.17 783.05 Q1751.11 787.633 1745.3 787.633 Q1739.49 787.633 1736.41 783.05 Q1733.36 778.443 1733.36 769.717 Q1733.36 760.967 1736.41 756.383 Q1739.49 751.777 1745.3 751.777 Z" fill="#000000" fill-rule="nonzero" fill-opacity="1"></path><path clip-path="url(#clip780)" d="M1765.46 781.082 L1770.35 781.082 L1770.35 786.962 L1765.46 786.962 L1765.46 781.082 Z" fill="#000000" fill-rule="nonzero" fill-opacity="1"></path><path clip-path="url(#clip780)" d="M1779.35 752.402 L1801.58 752.402 L1801.58 754.393 L1789.03 786.962 L1784.15 786.962 L1795.95 756.337 L1779.35 756.337 L1779.35 752.402 Z" fill="#000000" fill-rule="nonzero" fill-opacity="1"></path><path clip-path="url(#clip780)" d="M1810.74 752.402 L1829.1 752.402 L1829.1 756.337 L1815.02 756.337 L1815.02 764.809 Q1816.04 764.462 1817.06 764.3 Q1818.08 764.115 1819.1 764.115 Q1824.89 764.115 1828.27 767.286 Q1831.64 770.457 1831.64 775.874 Q1831.64 781.453 1828.17 784.554 Q1824.7 787.633 1818.38 787.633 Q1816.21 787.633 1813.94 787.263 Q1811.69 786.892 1809.28 786.152 L1809.28 781.453 Q1811.37 782.587 1813.59 783.142 Q1815.81 783.698 1818.29 783.698 Q1822.29 783.698 1824.63 781.592 Q1826.97 779.485 1826.97 775.874 Q1826.97 772.263 1824.63 770.156 Q1822.29 768.05 1818.29 768.05 Q1816.41 768.05 1814.54 768.467 Q1812.69 768.883 1810.74 769.763 L1810.74 752.402 Z" fill="#000000" fill-rule="nonzero" fill-opacity="1"></path><path clip-path="url(#clip780)" d="M2243.73 783.027 L2251.37 783.027 L2251.37 756.661 L2243.06 758.328 L2243.06 754.069 L2251.32 752.402 L2256 752.402 L2256 783.027 L2263.64 783.027 L2263.64 786.962 L2243.73 786.962 L2243.73 783.027 Z" fill="#000000" fill-rule="nonzero" fill-opacity="1"></path><path clip-path="url(#clip780)" d="M2273.08 781.082 L2277.97 781.082 L2277.97 786.962 L2273.08 786.962 L2273.08 781.082 Z" fill="#000000" fill-rule="nonzero" fill-opacity="1"></path><path clip-path="url(#clip780)" d="M2298.15 755.481 Q2294.54 755.481 2292.71 759.045 Q2290.9 762.587 2290.9 769.717 Q2290.9 776.823 2292.71 780.388 Q2294.54 783.929 2298.15 783.929 Q2301.78 783.929 2303.59 780.388 Q2305.42 776.823 2305.42 769.717 Q2305.42 762.587 2303.59 759.045 Q2301.78 755.481 2298.15 755.481 M2298.15 751.777 Q2303.96 751.777 2307.02 756.383 Q2310.09 760.967 2310.09 769.717 Q2310.09 778.443 2307.02 783.05 Q2303.96 787.633 2298.15 787.633 Q2292.34 787.633 2289.26 783.05 Q2286.21 778.443 2286.21 769.717 Q2286.21 760.967 2289.26 756.383 Q2292.34 751.777 2298.15 751.777 Z" fill="#000000" fill-rule="nonzero" fill-opacity="1"></path><path clip-path="url(#clip780)" d="M2328.31 755.481 Q2324.7 755.481 2322.87 759.045 Q2321.07 762.587 2321.07 769.717 Q2321.07 776.823 2322.87 780.388 Q2324.7 783.929 2328.31 783.929 Q2331.95 783.929 2333.75 780.388 Q2335.58 776.823 2335.58 769.717 Q2335.58 762.587 2333.75 759.045 Q2331.95 755.481 2328.31 755.481 M2328.31 751.777 Q2334.12 751.777 2337.18 756.383 Q2340.26 760.967 2340.26 769.717 Q2340.26 778.443 2337.18 783.05 Q2334.12 787.633 2328.31 787.633 Q2322.5 787.633 2319.42 783.05 Q2316.37 778.443 2316.37 769.717 Q2316.37 760.967 2319.42 756.383 Q2322.5 751.777 2328.31 751.777 Z" fill="#000000" fill-rule="nonzero" fill-opacity="1"></path><polyline clip-path="url(#clip782)" style="stroke:#000000; stroke-linecap:round; stroke-linejoin:round; stroke-width:2; stroke-opacity:0.1; fill:none" points="193.936,678.721 2352.76,678.721 "></polyline>
<polyline clip-path="url(#clip782)" style="stroke:#000000; stroke-linecap:round; stroke-linejoin:round; stroke-width:2; stroke-opacity:0.1; fill:none" points="193.936,561.197 2352.76,561.197 "></polyline>
<polyline clip-path="url(#clip782)" style="stroke:#000000; stroke-linecap:round; stroke-linejoin:round; stroke-width:2; stroke-opacity:0.1; fill:none" points="193.936,443.672 2352.76,443.672 "></polyline>
<polyline clip-path="url(#clip782)" style="stroke:#000000; stroke-linecap:round; stroke-linejoin:round; stroke-width:2; stroke-opacity:0.1; fill:none" points="193.936,326.148 2352.76,326.148 "></polyline>
<polyline clip-path="url(#clip782)" style="stroke:#000000; stroke-linecap:round; stroke-linejoin:round; stroke-width:2; stroke-opacity:0.1; fill:none" points="193.936,208.624 2352.76,208.624 "></polyline>
<polyline clip-path="url(#clip780)" style="stroke:#000000; stroke-linecap:round; stroke-linejoin:round; stroke-width:4; stroke-opacity:1; fill:none" points="193.936,724.562 193.936,123.472 "></polyline>
<polyline clip-path="url(#clip780)" style="stroke:#000000; stroke-linecap:round; stroke-linejoin:round; stroke-width:4; stroke-opacity:1; fill:none" points="193.936,678.721 212.834,678.721 "></polyline>
<polyline clip-path="url(#clip780)" style="stroke:#000000; stroke-linecap:round; stroke-linejoin:round; stroke-width:4; stroke-opacity:1; fill:none" points="193.936,561.197 212.834,561.197 "></polyline>
<polyline clip-path="url(#clip780)" style="stroke:#000000; stroke-linecap:round; stroke-linejoin:round; stroke-width:4; stroke-opacity:1; fill:none" points="193.936,443.672 212.834,443.672 "></polyline>
<polyline clip-path="url(#clip780)" style="stroke:#000000; stroke-linecap:round; stroke-linejoin:round; stroke-width:4; stroke-opacity:1; fill:none" points="193.936,326.148 212.834,326.148 "></polyline>
<polyline clip-path="url(#clip780)" style="stroke:#000000; stroke-linecap:round; stroke-linejoin:round; stroke-width:4; stroke-opacity:1; fill:none" points="193.936,208.624 212.834,208.624 "></polyline>
<path clip-path="url(#clip780)" d="M51.9875 679.172 L81.6633 679.172 L81.6633 683.107 L51.9875 683.107 L51.9875 679.172 Z" fill="#000000" fill-rule="nonzero" fill-opacity="1"></path><path clip-path="url(#clip780)" d="M90.5752 661.441 L112.797 661.441 L112.797 663.432 L100.251 696.001 L95.3669 696.001 L107.172 665.376 L90.5752 665.376 L90.5752 661.441 Z" fill="#000000" fill-rule="nonzero" fill-opacity="1"></path><path clip-path="url(#clip780)" d="M121.918 690.121 L126.802 690.121 L126.802 696.001 L121.918 696.001 L121.918 690.121 Z" fill="#000000" fill-rule="nonzero" fill-opacity="1"></path><path clip-path="url(#clip780)" d="M137.033 661.441 L155.39 661.441 L155.39 665.376 L141.316 665.376 L141.316 673.848 Q142.334 673.501 143.353 673.339 Q144.371 673.154 145.39 673.154 Q151.177 673.154 154.556 676.325 Q157.936 679.496 157.936 684.913 Q157.936 690.492 154.464 693.594 Q150.992 696.672 144.672 696.672 Q142.496 696.672 140.228 696.302 Q137.982 695.931 135.575 695.191 L135.575 690.492 Q137.658 691.626 139.881 692.181 Q142.103 692.737 144.58 692.737 Q148.584 692.737 150.922 690.631 Q153.26 688.524 153.26 684.913 Q153.26 681.302 150.922 679.195 Q148.584 677.089 144.58 677.089 Q142.705 677.089 140.83 677.506 Q138.978 677.922 137.033 678.802 L137.033 661.441 Z" fill="#000000" fill-rule="nonzero" fill-opacity="1"></path><path clip-path="url(#clip780)" d="M50.9921 561.648 L80.6679 561.648 L80.6679 565.583 L50.9921 565.583 L50.9921 561.648 Z" fill="#000000" fill-rule="nonzero" fill-opacity="1"></path><path clip-path="url(#clip780)" d="M90.8067 543.917 L109.163 543.917 L109.163 547.852 L95.0891 547.852 L95.0891 556.324 Q96.1076 555.977 97.1261 555.815 Q98.1447 555.63 99.1632 555.63 Q104.95 555.63 108.33 558.801 Q111.709 561.972 111.709 567.389 Q111.709 572.967 108.237 576.069 Q104.765 579.148 98.4456 579.148 Q96.2697 579.148 94.0012 578.778 Q91.7558 578.407 89.3484 577.667 L89.3484 572.967 Q91.4317 574.102 93.6539 574.657 Q95.8761 575.213 98.353 575.213 Q102.358 575.213 104.696 573.106 Q107.033 571 107.033 567.389 Q107.033 563.778 104.696 561.671 Q102.358 559.565 98.353 559.565 Q96.478 559.565 94.603 559.981 Q92.7512 560.398 90.8067 561.278 L90.8067 543.917 Z" fill="#000000" fill-rule="nonzero" fill-opacity="1"></path><path clip-path="url(#clip780)" d="M120.922 572.597 L125.807 572.597 L125.807 578.477 L120.922 578.477 L120.922 572.597 Z" fill="#000000" fill-rule="nonzero" fill-opacity="1"></path><path clip-path="url(#clip780)" d="M145.992 546.995 Q142.381 546.995 140.552 550.56 Q138.746 554.102 138.746 561.231 Q138.746 568.338 140.552 571.903 Q142.381 575.444 145.992 575.444 Q149.626 575.444 151.431 571.903 Q153.26 568.338 153.26 561.231 Q153.26 554.102 151.431 550.56 Q149.626 546.995 145.992 546.995 M145.992 543.292 Q151.802 543.292 154.857 547.898 Q157.936 552.481 157.936 561.231 Q157.936 569.958 154.857 574.565 Q151.802 579.148 145.992 579.148 Q140.181 579.148 137.103 574.565 Q134.047 569.958 134.047 561.231 Q134.047 552.481 137.103 547.898 Q140.181 543.292 145.992 543.292 Z" fill="#000000" fill-rule="nonzero" fill-opacity="1"></path><path clip-path="url(#clip780)" d="M51.9875 444.124 L81.6633 444.124 L81.6633 448.059 L51.9875 448.059 L51.9875 444.124 Z" fill="#000000" fill-rule="nonzero" fill-opacity="1"></path><path clip-path="url(#clip780)" d="M95.7836 457.017 L112.103 457.017 L112.103 460.952 L90.1586 460.952 L90.1586 457.017 Q92.8206 454.263 97.4039 449.633 Q102.01 444.98 103.191 443.638 Q105.436 441.115 106.316 439.379 Q107.219 437.619 107.219 435.929 Q107.219 433.175 105.274 431.439 Q103.353 429.703 100.251 429.703 Q98.0521 429.703 95.5984 430.467 Q93.1678 431.23 90.3901 432.781 L90.3901 428.059 Q93.2141 426.925 95.6678 426.346 Q98.1215 425.767 100.159 425.767 Q105.529 425.767 108.723 428.453 Q111.918 431.138 111.918 435.629 Q111.918 437.758 111.108 439.679 Q110.321 441.578 108.214 444.17 Q107.635 444.841 104.534 448.059 Q101.432 451.253 95.7836 457.017 Z" fill="#000000" fill-rule="nonzero" fill-opacity="1"></path><path clip-path="url(#clip780)" d="M121.918 455.073 L126.802 455.073 L126.802 460.952 L121.918 460.952 L121.918 455.073 Z" fill="#000000" fill-rule="nonzero" fill-opacity="1"></path><path clip-path="url(#clip780)" d="M137.033 426.392 L155.39 426.392 L155.39 430.328 L141.316 430.328 L141.316 438.8 Q142.334 438.453 143.353 438.291 Q144.371 438.105 145.39 438.105 Q151.177 438.105 154.556 441.277 Q157.936 444.448 157.936 449.865 Q157.936 455.443 154.464 458.545 Q150.992 461.624 144.672 461.624 Q142.496 461.624 140.228 461.253 Q137.982 460.883 135.575 460.142 L135.575 455.443 Q137.658 456.578 139.881 457.133 Q142.103 457.689 144.58 457.689 Q148.584 457.689 150.922 455.582 Q153.26 453.476 153.26 449.865 Q153.26 446.253 150.922 444.147 Q148.584 442.041 144.58 442.041 Q142.705 442.041 140.83 442.457 Q138.978 442.874 137.033 443.754 L137.033 426.392 Z" fill="#000000" fill-rule="nonzero" fill-opacity="1"></path><path clip-path="url(#clip780)" d="M100.76 311.947 Q97.1493 311.947 95.3206 315.512 Q93.515 319.053 93.515 326.183 Q93.515 333.289 95.3206 336.854 Q97.1493 340.396 100.76 340.396 Q104.395 340.396 106.2 336.854 Q108.029 333.289 108.029 326.183 Q108.029 319.053 106.2 315.512 Q104.395 311.947 100.76 311.947 M100.76 308.243 Q106.571 308.243 109.626 312.85 Q112.705 317.433 112.705 326.183 Q112.705 334.91 109.626 339.516 Q106.571 344.1 100.76 344.1 Q94.9502 344.1 91.8715 339.516 Q88.816 334.91 88.816 326.183 Q88.816 317.433 91.8715 312.85 Q94.9502 308.243 100.76 308.243 Z" fill="#000000" fill-rule="nonzero" fill-opacity="1"></path><path clip-path="url(#clip780)" d="M120.922 337.549 L125.807 337.549 L125.807 343.428 L120.922 343.428 L120.922 337.549 Z" fill="#000000" fill-rule="nonzero" fill-opacity="1"></path><path clip-path="url(#clip780)" d="M145.992 311.947 Q142.381 311.947 140.552 315.512 Q138.746 319.053 138.746 326.183 Q138.746 333.289 140.552 336.854 Q142.381 340.396 145.992 340.396 Q149.626 340.396 151.431 336.854 Q153.26 333.289 153.26 326.183 Q153.26 319.053 151.431 315.512 Q149.626 311.947 145.992 311.947 M145.992 308.243 Q151.802 308.243 154.857 312.85 Q157.936 317.433 157.936 326.183 Q157.936 334.91 154.857 339.516 Q151.802 344.1 145.992 344.1 Q140.181 344.1 137.103 339.516 Q134.047 334.91 134.047 326.183 Q134.047 317.433 137.103 312.85 Q140.181 308.243 145.992 308.243 Z" fill="#000000" fill-rule="nonzero" fill-opacity="1"></path><path clip-path="url(#clip780)" d="M95.7836 221.969 L112.103 221.969 L112.103 225.904 L90.1586 225.904 L90.1586 221.969 Q92.8206 219.214 97.4039 214.585 Q102.01 209.932 103.191 208.589 Q105.436 206.066 106.316 204.33 Q107.219 202.571 107.219 200.881 Q107.219 198.126 105.274 196.39 Q103.353 194.654 100.251 194.654 Q98.0521 194.654 95.5984 195.418 Q93.1678 196.182 90.3901 197.733 L90.3901 193.011 Q93.2141 191.876 95.6678 191.298 Q98.1215 190.719 100.159 190.719 Q105.529 190.719 108.723 193.404 Q111.918 196.089 111.918 200.58 Q111.918 202.71 111.108 204.631 Q110.321 206.529 108.214 209.122 Q107.635 209.793 104.534 213.011 Q101.432 216.205 95.7836 221.969 Z" fill="#000000" fill-rule="nonzero" fill-opacity="1"></path><path clip-path="url(#clip780)" d="M121.918 220.024 L126.802 220.024 L126.802 225.904 L121.918 225.904 L121.918 220.024 Z" fill="#000000" fill-rule="nonzero" fill-opacity="1"></path><path clip-path="url(#clip780)" d="M137.033 191.344 L155.39 191.344 L155.39 195.279 L141.316 195.279 L141.316 203.751 Q142.334 203.404 143.353 203.242 Q144.371 203.057 145.39 203.057 Q151.177 203.057 154.556 206.228 Q157.936 209.4 157.936 214.816 Q157.936 220.395 154.464 223.497 Q150.992 226.575 144.672 226.575 Q142.496 226.575 140.228 226.205 Q137.982 225.835 135.575 225.094 L135.575 220.395 Q137.658 221.529 139.881 222.085 Q142.103 222.64 144.58 222.64 Q148.584 222.64 150.922 220.534 Q153.26 218.427 153.26 214.816 Q153.26 211.205 150.922 209.099 Q148.584 206.992 144.58 206.992 Q142.705 206.992 140.83 207.409 Q138.978 207.825 137.033 208.705 L137.033 191.344 Z" fill="#000000" fill-rule="nonzero" fill-opacity="1"></path><path clip-path="url(#clip780)" d="M963.249 12.096 L1014.41 12.096 L1014.41 18.9825 L992.942 18.9825 L992.942 72.576 L984.719 72.576 L984.719 18.9825 L963.249 18.9825 L963.249 12.096 Z" fill="#000000" fill-rule="nonzero" fill-opacity="1"></path><path clip-path="url(#clip780)" d="M1025.47 32.4315 Q1019.48 32.4315 1015.99 37.1306 Q1012.51 41.7891 1012.51 49.9314 Q1012.51 58.0738 1015.95 62.7728 Q1019.44 67.4314 1025.47 67.4314 Q1031.43 67.4314 1034.91 62.7323 Q1038.39 58.0333 1038.39 49.9314 Q1038.39 41.8701 1034.91 37.1711 Q1031.43 32.4315 1025.47 32.4315 M1025.47 26.1121 Q1035.19 26.1121 1040.74 32.4315 Q1046.29 38.7509 1046.29 49.9314 Q1046.29 61.0714 1040.74 67.4314 Q1035.19 73.7508 1025.47 73.7508 Q1015.71 73.7508 1010.16 67.4314 Q1004.65 61.0714 1004.65 49.9314 Q1004.65 38.7509 1010.16 32.4315 Q1015.71 26.1121 1025.47 26.1121 Z" fill="#000000" fill-rule="nonzero" fill-opacity="1"></path><path clip-path="url(#clip780)" d="M1084.94 34.1734 Q1083.68 33.4443 1082.18 33.1202 Q1080.73 32.7556 1078.94 32.7556 Q1072.62 32.7556 1069.22 36.8875 Q1065.86 40.9789 1065.86 48.6757 L1065.86 72.576 L1058.36 72.576 L1058.36 27.2059 L1065.86 27.2059 L1065.86 34.2544 Q1068.21 30.1225 1071.98 28.1376 Q1075.74 26.1121 1081.13 26.1121 Q1081.9 26.1121 1082.83 26.2337 Q1083.76 26.3147 1084.9 26.5172 L1084.94 34.1734 Z" fill="#000000" fill-rule="nonzero" fill-opacity="1"></path><path clip-path="url(#clip780)" d="M1095.75 49.9314 Q1095.75 58.1548 1099.12 62.8538 Q1102.52 67.5124 1108.43 67.5124 Q1114.35 67.5124 1117.75 62.8538 Q1121.15 58.1548 1121.15 49.9314 Q1121.15 41.7081 1117.75 37.0496 Q1114.35 32.3505 1108.43 32.3505 Q1102.52 32.3505 1099.12 37.0496 Q1095.75 41.7081 1095.75 49.9314 M1121.15 65.7705 Q1118.8 69.8214 1115.2 71.8063 Q1111.63 73.7508 1106.61 73.7508 Q1098.39 73.7508 1093.2 67.1883 Q1088.06 60.6258 1088.06 49.9314 Q1088.06 39.2371 1093.2 32.6746 Q1098.39 26.1121 1106.61 26.1121 Q1111.63 26.1121 1115.2 28.0971 Q1118.8 30.0415 1121.15 34.0924 L1121.15 27.2059 L1128.61 27.2059 L1128.61 89.8329 L1121.15 89.8329 L1121.15 65.7705 Z" fill="#000000" fill-rule="nonzero" fill-opacity="1"></path><path clip-path="url(#clip780)" d="M1143.19 54.671 L1143.19 27.2059 L1150.64 27.2059 L1150.64 54.3874 Q1150.64 60.8284 1153.16 64.0691 Q1155.67 67.2693 1160.69 67.2693 Q1166.73 67.2693 1170.21 63.421 Q1173.73 59.5726 1173.73 52.9291 L1173.73 27.2059 L1181.19 27.2059 L1181.19 72.576 L1173.73 72.576 L1173.73 65.6084 Q1171.02 69.7404 1167.41 71.7658 Q1163.85 73.7508 1159.11 73.7508 Q1151.29 73.7508 1147.24 68.8897 Q1143.19 64.0286 1143.19 54.671 M1161.95 26.1121 L1161.95 26.1121 Z" fill="#000000" fill-rule="nonzero" fill-opacity="1"></path><path clip-path="url(#clip780)" d="M1235.35 48.0275 L1235.35 51.6733 L1201.08 51.6733 Q1201.56 59.3701 1205.7 63.421 Q1209.87 67.4314 1217.28 67.4314 Q1221.58 67.4314 1225.59 66.3781 Q1229.64 65.3249 1233.61 63.2184 L1233.61 70.267 Q1229.6 71.9684 1225.38 72.8596 Q1221.17 73.7508 1216.84 73.7508 Q1205.98 73.7508 1199.62 67.4314 Q1193.3 61.1119 1193.3 50.3365 Q1193.3 39.1965 1199.3 32.6746 Q1205.33 26.1121 1215.54 26.1121 Q1224.69 26.1121 1230 32.0264 Q1235.35 37.9003 1235.35 48.0275 M1227.89 45.84 Q1227.81 39.7232 1224.45 36.0774 Q1221.13 32.4315 1215.62 32.4315 Q1209.38 32.4315 1205.61 35.9558 Q1201.89 39.4801 1201.32 45.8805 L1227.89 45.84 Z" fill="#000000" fill-rule="nonzero" fill-opacity="1"></path><path clip-path="url(#clip780)" d="M1268.61 27.2059 L1276.51 27.2059 L1290.68 65.2844 L1304.86 27.2059 L1312.76 27.2059 L1295.75 72.576 L1285.62 72.576 L1268.61 27.2059 Z" fill="#000000" fill-rule="nonzero" fill-opacity="1"></path><path clip-path="url(#clip780)" d="M1351.97 28.5427 L1351.97 35.5912 Q1348.81 33.9709 1345.41 33.1607 Q1342.01 32.3505 1338.36 32.3505 Q1332.81 32.3505 1330.02 34.0519 Q1327.26 35.7533 1327.26 39.156 Q1327.26 41.7486 1329.25 43.2475 Q1331.23 44.7058 1337.23 46.0426 L1339.78 46.6097 Q1347.72 48.3111 1351.04 51.4303 Q1354.4 54.509 1354.4 60.0587 Q1354.4 66.3781 1349.38 70.0644 Q1344.4 73.7508 1335.65 73.7508 Q1332 73.7508 1328.03 73.0216 Q1324.1 72.3329 1319.73 70.9151 L1319.73 63.2184 Q1323.86 65.3654 1327.87 66.4591 Q1331.88 67.5124 1335.81 67.5124 Q1341.08 67.5124 1343.91 65.73 Q1346.75 63.9071 1346.75 60.6258 Q1346.75 57.5877 1344.68 55.9673 Q1342.66 54.3469 1335.73 52.8481 L1333.14 52.2405 Q1326.21 50.7821 1323.13 47.7845 Q1320.05 44.7463 1320.05 39.4801 Q1320.05 33.0797 1324.59 29.5959 Q1329.13 26.1121 1337.47 26.1121 Q1341.6 26.1121 1345.25 26.7198 Q1348.9 27.3274 1351.97 28.5427 Z" fill="#000000" fill-rule="nonzero" fill-opacity="1"></path><path clip-path="url(#clip780)" d="M1384.58 12.096 L1435.75 12.096 L1435.75 18.9825 L1414.28 18.9825 L1414.28 72.576 L1406.05 72.576 L1406.05 18.9825 L1384.58 18.9825 L1384.58 12.096 Z" fill="#000000" fill-rule="nonzero" fill-opacity="1"></path><path clip-path="url(#clip780)" d="M1440.77 27.2059 L1448.22 27.2059 L1448.22 72.576 L1440.77 72.576 L1440.77 27.2059 M1440.77 9.54393 L1448.22 9.54393 L1448.22 18.9825 L1440.77 18.9825 L1440.77 9.54393 Z" fill="#000000" fill-rule="nonzero" fill-opacity="1"></path><path clip-path="url(#clip780)" d="M1499.14 35.9153 Q1501.94 30.8922 1505.83 28.5022 Q1509.72 26.1121 1514.98 26.1121 Q1522.07 26.1121 1525.92 31.0947 Q1529.77 36.0368 1529.77 45.1919 L1529.77 72.576 L1522.27 72.576 L1522.27 45.4349 Q1522.27 38.913 1519.97 35.7533 Q1517.66 32.5936 1512.92 32.5936 Q1507.12 32.5936 1503.76 36.4419 Q1500.4 40.2903 1500.4 46.9338 L1500.4 72.576 L1492.9 72.576 L1492.9 45.4349 Q1492.9 38.8725 1490.6 35.7533 Q1488.29 32.5936 1483.47 32.5936 Q1477.75 32.5936 1474.39 36.4824 Q1471.03 40.3308 1471.03 46.9338 L1471.03 72.576 L1463.54 72.576 L1463.54 27.2059 L1471.03 27.2059 L1471.03 34.2544 Q1473.58 30.082 1477.15 28.0971 Q1480.71 26.1121 1485.61 26.1121 Q1490.56 26.1121 1494 28.6237 Q1497.48 31.1352 1499.14 35.9153 Z" fill="#000000" fill-rule="nonzero" fill-opacity="1"></path><path clip-path="url(#clip780)" d="M1583.44 48.0275 L1583.44 51.6733 L1549.17 51.6733 Q1549.66 59.3701 1553.79 63.421 Q1557.96 67.4314 1565.38 67.4314 Q1569.67 67.4314 1573.68 66.3781 Q1577.73 65.3249 1581.7 63.2184 L1581.7 70.267 Q1577.69 71.9684 1573.48 72.8596 Q1569.26 73.7508 1564.93 73.7508 Q1554.07 73.7508 1547.71 67.4314 Q1541.39 61.1119 1541.39 50.3365 Q1541.39 39.1965 1547.39 32.6746 Q1553.43 26.1121 1563.63 26.1121 Q1572.79 26.1121 1578.1 32.0264 Q1583.44 37.9003 1583.44 48.0275 M1575.99 45.84 Q1575.91 39.7232 1572.55 36.0774 Q1569.22 32.4315 1563.71 32.4315 Q1557.48 32.4315 1553.71 35.9558 Q1549.98 39.4801 1549.42 45.8805 L1575.99 45.84 Z" fill="#000000" fill-rule="nonzero" fill-opacity="1"></path><polyline clip-path="url(#clip782)" style="stroke:#009af9; stroke-linecap:round; stroke-linejoin:round; stroke-width:4; stroke-opacity:1; fill:none" points="255.035,140.484 320.732,150.048 386.43,170.79 452.127,202.103 517.825,242.831 583.522,291.331 649.22,345.56 714.917,403.182 780.615,461.689 846.312,518.535 912.01,571.262 977.707,617.624 1043.4,655.699 1109.1,683.978 1174.8,701.431 1240.5,707.55 1306.19,702.36 1371.89,686.404 1437.59,660.697 1503.29,626.664 1568.98,586.053 1634.68,540.837 1700.38,493.107 1766.08,444.966 1831.77,398.421 1897.47,355.293 1963.17,317.138 2028.87,285.184 2094.56,260.292 2160.26,242.941 2225.96,233.225 2291.66,230.886 "></polyline>
<path clip-path="url(#clip780)" d="M1855.4 704.526 L2280.8 704.526 L2280.8 600.846 L1855.4 600.846  Z" fill="#ffffff" fill-rule="evenodd" fill-opacity="1"></path>
<polyline clip-path="url(#clip780)" style="stroke:#000000; stroke-linecap:round; stroke-linejoin:round; stroke-width:4; stroke-opacity:1; fill:none" points="1855.4,704.526 2280.8,704.526 2280.8,600.846 1855.4,600.846 1855.4,704.526 "></polyline>
<polyline clip-path="url(#clip780)" style="stroke:#009af9; stroke-linecap:round; stroke-linejoin:round; stroke-width:4; stroke-opacity:1; fill:none" points="1879.39,652.686 2023.31,652.686 "></polyline>
<path clip-path="url(#clip780)" d="M2047.3 635.406 L2076.53 635.406 L2076.53 639.341 L2064.26 639.341 L2064.26 669.966 L2059.56 669.966 L2059.56 639.341 L2047.3 639.341 L2047.3 635.406 Z" fill="#000000" fill-rule="nonzero" fill-opacity="1"></path><path clip-path="url(#clip780)" d="M2082.85 647.026 Q2079.43 647.026 2077.43 649.711 Q2075.44 652.373 2075.44 657.026 Q2075.44 661.679 2077.41 664.364 Q2079.4 667.026 2082.85 667.026 Q2086.25 667.026 2088.24 664.341 Q2090.24 661.655 2090.24 657.026 Q2090.24 652.419 2088.24 649.734 Q2086.25 647.026 2082.85 647.026 M2082.85 643.415 Q2088.41 643.415 2091.58 647.026 Q2094.75 650.637 2094.75 657.026 Q2094.75 663.392 2091.58 667.026 Q2088.41 670.637 2082.85 670.637 Q2077.27 670.637 2074.1 667.026 Q2070.95 663.392 2070.95 657.026 Q2070.95 650.637 2074.1 647.026 Q2077.27 643.415 2082.85 643.415 Z" fill="#000000" fill-rule="nonzero" fill-opacity="1"></path><path clip-path="url(#clip780)" d="M2116.83 648.021 Q2116.11 647.605 2115.26 647.419 Q2114.42 647.211 2113.41 647.211 Q2109.8 647.211 2107.85 649.572 Q2105.93 651.91 2105.93 656.308 L2105.93 669.966 L2101.65 669.966 L2101.65 644.04 L2105.93 644.04 L2105.93 648.068 Q2107.27 645.706 2109.42 644.572 Q2111.58 643.415 2114.66 643.415 Q2115.1 643.415 2115.63 643.484 Q2116.16 643.531 2116.81 643.646 L2116.83 648.021 Z" fill="#000000" fill-rule="nonzero" fill-opacity="1"></path><path clip-path="url(#clip780)" d="M2123.01 657.026 Q2123.01 661.725 2124.93 664.41 Q2126.88 667.072 2130.26 667.072 Q2133.64 667.072 2135.58 664.41 Q2137.53 661.725 2137.53 657.026 Q2137.53 652.327 2135.58 649.665 Q2133.64 646.98 2130.26 646.98 Q2126.88 646.98 2124.93 649.665 Q2123.01 652.327 2123.01 657.026 M2137.53 666.077 Q2136.18 668.391 2134.12 669.526 Q2132.09 670.637 2129.22 670.637 Q2124.52 670.637 2121.55 666.887 Q2118.61 663.137 2118.61 657.026 Q2118.61 650.915 2121.55 647.165 Q2124.52 643.415 2129.22 643.415 Q2132.09 643.415 2134.12 644.549 Q2136.18 645.66 2137.53 647.975 L2137.53 644.04 L2141.79 644.04 L2141.79 679.827 L2137.53 679.827 L2137.53 666.077 Z" fill="#000000" fill-rule="nonzero" fill-opacity="1"></path><path clip-path="url(#clip780)" d="M2150.12 659.734 L2150.12 644.04 L2154.38 644.04 L2154.38 659.572 Q2154.38 663.253 2155.81 665.104 Q2157.25 666.933 2160.12 666.933 Q2163.57 666.933 2165.56 664.734 Q2167.57 662.535 2167.57 658.739 L2167.57 644.04 L2171.83 644.04 L2171.83 669.966 L2167.57 669.966 L2167.57 665.984 Q2166.02 668.345 2163.96 669.503 Q2161.92 670.637 2159.22 670.637 Q2154.75 670.637 2152.43 667.859 Q2150.12 665.081 2150.12 659.734 M2160.84 643.415 L2160.84 643.415 Z" fill="#000000" fill-rule="nonzero" fill-opacity="1"></path><path clip-path="url(#clip780)" d="M2202.78 655.938 L2202.78 658.021 L2183.2 658.021 Q2183.48 662.419 2185.84 664.734 Q2188.22 667.026 2192.46 667.026 Q2194.91 667.026 2197.2 666.424 Q2199.52 665.822 2201.79 664.618 L2201.79 668.646 Q2199.49 669.618 2197.09 670.128 Q2194.68 670.637 2192.2 670.637 Q2186 670.637 2182.36 667.026 Q2178.75 663.415 2178.75 657.257 Q2178.75 650.892 2182.18 647.165 Q2185.63 643.415 2191.46 643.415 Q2196.69 643.415 2199.73 646.794 Q2202.78 650.151 2202.78 655.938 M2198.52 654.688 Q2198.48 651.193 2196.55 649.109 Q2194.66 647.026 2191.51 647.026 Q2187.94 647.026 2185.79 649.04 Q2183.66 651.054 2183.34 654.711 L2198.52 654.688 Z" fill="#000000" fill-rule="nonzero" fill-opacity="1"></path><path clip-path="url(#clip780)" d="M2220 633.994 Q2216.9 639.318 2215.4 644.526 Q2213.89 649.734 2213.89 655.081 Q2213.89 660.429 2215.4 665.683 Q2216.92 670.915 2220 676.216 L2216.3 676.216 Q2212.83 670.776 2211.09 665.521 Q2209.38 660.267 2209.38 655.081 Q2209.38 649.919 2211.09 644.688 Q2212.8 639.456 2216.3 633.994 L2220 633.994 Z" fill="#000000" fill-rule="nonzero" fill-opacity="1"></path><path clip-path="url(#clip780)" d="M2232.48 636.679 L2232.48 644.04 L2241.25 644.04 L2241.25 647.35 L2232.48 647.35 L2232.48 661.424 Q2232.48 664.595 2233.34 665.498 Q2234.22 666.401 2236.88 666.401 L2241.25 666.401 L2241.25 669.966 L2236.88 669.966 Q2231.95 669.966 2230.07 668.137 Q2228.2 666.285 2228.2 661.424 L2228.2 647.35 L2225.07 647.35 L2225.07 644.04 L2228.2 644.04 L2228.2 636.679 L2232.48 636.679 Z" fill="#000000" fill-rule="nonzero" fill-opacity="1"></path><path clip-path="url(#clip780)" d="M2246.18 633.994 L2249.89 633.994 Q2253.36 639.456 2255.07 644.688 Q2256.81 649.919 2256.81 655.081 Q2256.81 660.267 2255.07 665.521 Q2253.36 670.776 2249.89 676.216 L2246.18 676.216 Q2249.26 670.915 2250.77 665.683 Q2252.29 660.429 2252.29 655.081 Q2252.29 649.734 2250.77 644.526 Q2249.26 639.318 2246.18 633.994 Z" fill="#000000" fill-rule="nonzero" fill-opacity="1"></path><path clip-path="url(#clip780)" d="M193.936 1486.45 L2352.76 1486.45 L2352.76 885.358 L193.936 885.358  Z" fill="#ffffff" fill-rule="evenodd" fill-opacity="1"></path>
<defs>
  <clipPath id="clip783">
    <rect x="193" y="885" width="2160" height="602"></rect>
  </clipPath>
</defs>
<polyline clip-path="url(#clip783)" style="stroke:#000000; stroke-linecap:round; stroke-linejoin:round; stroke-width:2; stroke-opacity:0.1; fill:none" points="255.035,1486.45 255.035,885.358 "></polyline>
<polyline clip-path="url(#clip783)" style="stroke:#000000; stroke-linecap:round; stroke-linejoin:round; stroke-width:2; stroke-opacity:0.1; fill:none" points="764.19,1486.45 764.19,885.358 "></polyline>
<polyline clip-path="url(#clip783)" style="stroke:#000000; stroke-linecap:round; stroke-linejoin:round; stroke-width:2; stroke-opacity:0.1; fill:none" points="1273.35,1486.45 1273.35,885.358 "></polyline>
<polyline clip-path="url(#clip783)" style="stroke:#000000; stroke-linecap:round; stroke-linejoin:round; stroke-width:2; stroke-opacity:0.1; fill:none" points="1782.5,1486.45 1782.5,885.358 "></polyline>
<polyline clip-path="url(#clip783)" style="stroke:#000000; stroke-linecap:round; stroke-linejoin:round; stroke-width:2; stroke-opacity:0.1; fill:none" points="2291.66,1486.45 2291.66,885.358 "></polyline>
<polyline clip-path="url(#clip780)" style="stroke:#000000; stroke-linecap:round; stroke-linejoin:round; stroke-width:4; stroke-opacity:1; fill:none" points="193.936,1486.45 2352.76,1486.45 "></polyline>
<polyline clip-path="url(#clip780)" style="stroke:#000000; stroke-linecap:round; stroke-linejoin:round; stroke-width:4; stroke-opacity:1; fill:none" points="255.035,1486.45 255.035,1467.55 "></polyline>
<polyline clip-path="url(#clip780)" style="stroke:#000000; stroke-linecap:round; stroke-linejoin:round; stroke-width:4; stroke-opacity:1; fill:none" points="764.19,1486.45 764.19,1467.55 "></polyline>
<polyline clip-path="url(#clip780)" style="stroke:#000000; stroke-linecap:round; stroke-linejoin:round; stroke-width:4; stroke-opacity:1; fill:none" points="1273.35,1486.45 1273.35,1467.55 "></polyline>
<polyline clip-path="url(#clip780)" style="stroke:#000000; stroke-linecap:round; stroke-linejoin:round; stroke-width:4; stroke-opacity:1; fill:none" points="1782.5,1486.45 1782.5,1467.55 "></polyline>
<polyline clip-path="url(#clip780)" style="stroke:#000000; stroke-linecap:round; stroke-linejoin:round; stroke-width:4; stroke-opacity:1; fill:none" points="2291.66,1486.45 2291.66,1467.55 "></polyline>
<path clip-path="url(#clip780)" d="M217.338 1517.37 Q213.727 1517.37 211.898 1520.93 Q210.093 1524.47 210.093 1531.6 Q210.093 1538.71 211.898 1542.27 Q213.727 1545.82 217.338 1545.82 Q220.972 1545.82 222.778 1542.27 Q224.607 1538.71 224.607 1531.6 Q224.607 1524.47 222.778 1520.93 Q220.972 1517.37 217.338 1517.37 M217.338 1513.66 Q223.148 1513.66 226.204 1518.27 Q229.282 1522.85 229.282 1531.6 Q229.282 1540.33 226.204 1544.94 Q223.148 1549.52 217.338 1549.52 Q211.528 1549.52 208.449 1544.94 Q205.394 1540.33 205.394 1531.6 Q205.394 1522.85 208.449 1518.27 Q211.528 1513.66 217.338 1513.66 Z" fill="#000000" fill-rule="nonzero" fill-opacity="1"></path><path clip-path="url(#clip780)" d="M237.5 1542.97 L242.384 1542.97 L242.384 1548.85 L237.5 1548.85 L237.5 1542.97 Z" fill="#000000" fill-rule="nonzero" fill-opacity="1"></path><path clip-path="url(#clip780)" d="M262.569 1517.37 Q258.958 1517.37 257.13 1520.93 Q255.324 1524.47 255.324 1531.6 Q255.324 1538.71 257.13 1542.27 Q258.958 1545.82 262.569 1545.82 Q266.204 1545.82 268.009 1542.27 Q269.838 1538.71 269.838 1531.6 Q269.838 1524.47 268.009 1520.93 Q266.204 1517.37 262.569 1517.37 M262.569 1513.66 Q268.38 1513.66 271.435 1518.27 Q274.514 1522.85 274.514 1531.6 Q274.514 1540.33 271.435 1544.94 Q268.38 1549.52 262.569 1549.52 Q256.759 1549.52 253.681 1544.94 Q250.625 1540.33 250.625 1531.6 Q250.625 1522.85 253.681 1518.27 Q256.759 1513.66 262.569 1513.66 Z" fill="#000000" fill-rule="nonzero" fill-opacity="1"></path><path clip-path="url(#clip780)" d="M292.731 1517.37 Q289.12 1517.37 287.291 1520.93 Q285.486 1524.47 285.486 1531.6 Q285.486 1538.71 287.291 1542.27 Q289.12 1545.82 292.731 1545.82 Q296.365 1545.82 298.171 1542.27 Q300 1538.71 300 1531.6 Q300 1524.47 298.171 1520.93 Q296.365 1517.37 292.731 1517.37 M292.731 1513.66 Q298.541 1513.66 301.597 1518.27 Q304.676 1522.85 304.676 1531.6 Q304.676 1540.33 301.597 1544.94 Q298.541 1549.52 292.731 1549.52 Q286.921 1549.52 283.842 1544.94 Q280.787 1540.33 280.787 1531.6 Q280.787 1522.85 283.842 1518.27 Q286.921 1513.66 292.731 1513.66 Z" fill="#000000" fill-rule="nonzero" fill-opacity="1"></path><path clip-path="url(#clip780)" d="M726.991 1517.37 Q723.38 1517.37 721.552 1520.93 Q719.746 1524.47 719.746 1531.6 Q719.746 1538.71 721.552 1542.27 Q723.38 1545.82 726.991 1545.82 Q730.626 1545.82 732.431 1542.27 Q734.26 1538.71 734.26 1531.6 Q734.26 1524.47 732.431 1520.93 Q730.626 1517.37 726.991 1517.37 M726.991 1513.66 Q732.802 1513.66 735.857 1518.27 Q738.936 1522.85 738.936 1531.6 Q738.936 1540.33 735.857 1544.94 Q732.802 1549.52 726.991 1549.52 Q721.181 1549.52 718.103 1544.94 Q715.047 1540.33 715.047 1531.6 Q715.047 1522.85 718.103 1518.27 Q721.181 1513.66 726.991 1513.66 Z" fill="#000000" fill-rule="nonzero" fill-opacity="1"></path><path clip-path="url(#clip780)" d="M747.153 1542.97 L752.038 1542.97 L752.038 1548.85 L747.153 1548.85 L747.153 1542.97 Z" fill="#000000" fill-rule="nonzero" fill-opacity="1"></path><path clip-path="url(#clip780)" d="M766.25 1544.91 L782.57 1544.91 L782.57 1548.85 L760.626 1548.85 L760.626 1544.91 Q763.288 1542.16 767.871 1537.53 Q772.477 1532.88 773.658 1531.53 Q775.903 1529.01 776.783 1527.27 Q777.686 1525.51 777.686 1523.82 Q777.686 1521.07 775.741 1519.33 Q773.82 1517.6 770.718 1517.6 Q768.519 1517.6 766.065 1518.36 Q763.635 1519.13 760.857 1520.68 L760.857 1515.95 Q763.681 1514.82 766.135 1514.24 Q768.588 1513.66 770.625 1513.66 Q775.996 1513.66 779.19 1516.35 Q782.385 1519.03 782.385 1523.52 Q782.385 1525.65 781.574 1527.57 Q780.787 1529.47 778.681 1532.07 Q778.102 1532.74 775 1535.95 Q771.899 1539.15 766.25 1544.91 Z" fill="#000000" fill-rule="nonzero" fill-opacity="1"></path><path clip-path="url(#clip780)" d="M792.431 1514.29 L810.787 1514.29 L810.787 1518.22 L796.713 1518.22 L796.713 1526.7 Q797.732 1526.35 798.75 1526.19 Q799.769 1526 800.787 1526 Q806.574 1526 809.954 1529.17 Q813.334 1532.34 813.334 1537.76 Q813.334 1543.34 809.861 1546.44 Q806.389 1549.52 800.07 1549.52 Q797.894 1549.52 795.625 1549.15 Q793.38 1548.78 790.973 1548.04 L790.973 1543.34 Q793.056 1544.47 795.278 1545.03 Q797.5 1545.58 799.977 1545.58 Q803.982 1545.58 806.32 1543.48 Q808.658 1541.37 808.658 1537.76 Q808.658 1534.15 806.32 1532.04 Q803.982 1529.94 799.977 1529.94 Q798.102 1529.94 796.227 1530.35 Q794.375 1530.77 792.431 1531.65 L792.431 1514.29 Z" fill="#000000" fill-rule="nonzero" fill-opacity="1"></path><path clip-path="url(#clip780)" d="M1235.65 1517.37 Q1232.04 1517.37 1230.21 1520.93 Q1228.4 1524.47 1228.4 1531.6 Q1228.4 1538.71 1230.21 1542.27 Q1232.04 1545.82 1235.65 1545.82 Q1239.28 1545.82 1241.09 1542.27 Q1242.92 1538.71 1242.92 1531.6 Q1242.92 1524.47 1241.09 1520.93 Q1239.28 1517.37 1235.65 1517.37 M1235.65 1513.66 Q1241.46 1513.66 1244.52 1518.27 Q1247.59 1522.85 1247.59 1531.6 Q1247.59 1540.33 1244.52 1544.94 Q1241.46 1549.52 1235.65 1549.52 Q1229.84 1549.52 1226.76 1544.94 Q1223.71 1540.33 1223.71 1531.6 Q1223.71 1522.85 1226.76 1518.27 Q1229.84 1513.66 1235.65 1513.66 Z" fill="#000000" fill-rule="nonzero" fill-opacity="1"></path><path clip-path="url(#clip780)" d="M1255.81 1542.97 L1260.7 1542.97 L1260.7 1548.85 L1255.81 1548.85 L1255.81 1542.97 Z" fill="#000000" fill-rule="nonzero" fill-opacity="1"></path><path clip-path="url(#clip780)" d="M1270.93 1514.29 L1289.28 1514.29 L1289.28 1518.22 L1275.21 1518.22 L1275.21 1526.7 Q1276.23 1526.35 1277.25 1526.19 Q1278.26 1526 1279.28 1526 Q1285.07 1526 1288.45 1529.17 Q1291.83 1532.34 1291.83 1537.76 Q1291.83 1543.34 1288.36 1546.44 Q1284.89 1549.52 1278.57 1549.52 Q1276.39 1549.52 1274.12 1549.15 Q1271.88 1548.78 1269.47 1548.04 L1269.47 1543.34 Q1271.55 1544.47 1273.77 1545.03 Q1276 1545.58 1278.47 1545.58 Q1282.48 1545.58 1284.82 1543.48 Q1287.15 1541.37 1287.15 1537.76 Q1287.15 1534.15 1284.82 1532.04 Q1282.48 1529.94 1278.47 1529.94 Q1276.6 1529.94 1274.72 1530.35 Q1272.87 1530.77 1270.93 1531.65 L1270.93 1514.29 Z" fill="#000000" fill-rule="nonzero" fill-opacity="1"></path><path clip-path="url(#clip780)" d="M1311.04 1517.37 Q1307.43 1517.37 1305.6 1520.93 Q1303.8 1524.47 1303.8 1531.6 Q1303.8 1538.71 1305.6 1542.27 Q1307.43 1545.82 1311.04 1545.82 Q1314.68 1545.82 1316.48 1542.27 Q1318.31 1538.71 1318.31 1531.6 Q1318.31 1524.47 1316.48 1520.93 Q1314.68 1517.37 1311.04 1517.37 M1311.04 1513.66 Q1316.85 1513.66 1319.91 1518.27 Q1322.99 1522.85 1322.99 1531.6 Q1322.99 1540.33 1319.91 1544.94 Q1316.85 1549.52 1311.04 1549.52 Q1305.23 1549.52 1302.15 1544.94 Q1299.1 1540.33 1299.1 1531.6 Q1299.1 1522.85 1302.15 1518.27 Q1305.23 1513.66 1311.04 1513.66 Z" fill="#000000" fill-rule="nonzero" fill-opacity="1"></path><path clip-path="url(#clip780)" d="M1745.3 1517.37 Q1741.69 1517.37 1739.86 1520.93 Q1738.06 1524.47 1738.06 1531.6 Q1738.06 1538.71 1739.86 1542.27 Q1741.69 1545.82 1745.3 1545.82 Q1748.94 1545.82 1750.74 1542.27 Q1752.57 1538.71 1752.57 1531.6 Q1752.57 1524.47 1750.74 1520.93 Q1748.94 1517.37 1745.3 1517.37 M1745.3 1513.66 Q1751.11 1513.66 1754.17 1518.27 Q1757.25 1522.85 1757.25 1531.6 Q1757.25 1540.33 1754.17 1544.94 Q1751.11 1549.52 1745.3 1549.52 Q1739.49 1549.52 1736.41 1544.94 Q1733.36 1540.33 1733.36 1531.6 Q1733.36 1522.85 1736.41 1518.27 Q1739.49 1513.66 1745.3 1513.66 Z" fill="#000000" fill-rule="nonzero" fill-opacity="1"></path><path clip-path="url(#clip780)" d="M1765.46 1542.97 L1770.35 1542.97 L1770.35 1548.85 L1765.46 1548.85 L1765.46 1542.97 Z" fill="#000000" fill-rule="nonzero" fill-opacity="1"></path><path clip-path="url(#clip780)" d="M1779.35 1514.29 L1801.58 1514.29 L1801.58 1516.28 L1789.03 1548.85 L1784.15 1548.85 L1795.95 1518.22 L1779.35 1518.22 L1779.35 1514.29 Z" fill="#000000" fill-rule="nonzero" fill-opacity="1"></path><path clip-path="url(#clip780)" d="M1810.74 1514.29 L1829.1 1514.29 L1829.1 1518.22 L1815.02 1518.22 L1815.02 1526.7 Q1816.04 1526.35 1817.06 1526.19 Q1818.08 1526 1819.1 1526 Q1824.89 1526 1828.27 1529.17 Q1831.64 1532.34 1831.64 1537.76 Q1831.64 1543.34 1828.17 1546.44 Q1824.7 1549.52 1818.38 1549.52 Q1816.21 1549.52 1813.94 1549.15 Q1811.69 1548.78 1809.28 1548.04 L1809.28 1543.34 Q1811.37 1544.47 1813.59 1545.03 Q1815.81 1545.58 1818.29 1545.58 Q1822.29 1545.58 1824.63 1543.48 Q1826.97 1541.37 1826.97 1537.76 Q1826.97 1534.15 1824.63 1532.04 Q1822.29 1529.94 1818.29 1529.94 Q1816.41 1529.94 1814.54 1530.35 Q1812.69 1530.77 1810.74 1531.65 L1810.74 1514.29 Z" fill="#000000" fill-rule="nonzero" fill-opacity="1"></path><path clip-path="url(#clip780)" d="M2243.73 1544.91 L2251.37 1544.91 L2251.37 1518.55 L2243.06 1520.21 L2243.06 1515.95 L2251.32 1514.29 L2256 1514.29 L2256 1544.91 L2263.64 1544.91 L2263.64 1548.85 L2243.73 1548.85 L2243.73 1544.91 Z" fill="#000000" fill-rule="nonzero" fill-opacity="1"></path><path clip-path="url(#clip780)" d="M2273.08 1542.97 L2277.97 1542.97 L2277.97 1548.85 L2273.08 1548.85 L2273.08 1542.97 Z" fill="#000000" fill-rule="nonzero" fill-opacity="1"></path><path clip-path="url(#clip780)" d="M2298.15 1517.37 Q2294.54 1517.37 2292.71 1520.93 Q2290.9 1524.47 2290.9 1531.6 Q2290.9 1538.71 2292.71 1542.27 Q2294.54 1545.82 2298.15 1545.82 Q2301.78 1545.82 2303.59 1542.27 Q2305.42 1538.71 2305.42 1531.6 Q2305.42 1524.47 2303.59 1520.93 Q2301.78 1517.37 2298.15 1517.37 M2298.15 1513.66 Q2303.96 1513.66 2307.02 1518.27 Q2310.09 1522.85 2310.09 1531.6 Q2310.09 1540.33 2307.02 1544.94 Q2303.96 1549.52 2298.15 1549.52 Q2292.34 1549.52 2289.26 1544.94 Q2286.21 1540.33 2286.21 1531.6 Q2286.21 1522.85 2289.26 1518.27 Q2292.34 1513.66 2298.15 1513.66 Z" fill="#000000" fill-rule="nonzero" fill-opacity="1"></path><path clip-path="url(#clip780)" d="M2328.31 1517.37 Q2324.7 1517.37 2322.87 1520.93 Q2321.07 1524.47 2321.07 1531.6 Q2321.07 1538.71 2322.87 1542.27 Q2324.7 1545.82 2328.31 1545.82 Q2331.95 1545.82 2333.75 1542.27 Q2335.58 1538.71 2335.58 1531.6 Q2335.58 1524.47 2333.75 1520.93 Q2331.95 1517.37 2328.31 1517.37 M2328.31 1513.66 Q2334.12 1513.66 2337.18 1518.27 Q2340.26 1522.85 2340.26 1531.6 Q2340.26 1540.33 2337.18 1544.94 Q2334.12 1549.52 2328.31 1549.52 Q2322.5 1549.52 2319.42 1544.94 Q2316.37 1540.33 2316.37 1531.6 Q2316.37 1522.85 2319.42 1518.27 Q2322.5 1513.66 2328.31 1513.66 Z" fill="#000000" fill-rule="nonzero" fill-opacity="1"></path><polyline clip-path="url(#clip783)" style="stroke:#000000; stroke-linecap:round; stroke-linejoin:round; stroke-width:2; stroke-opacity:0.1; fill:none" points="193.936,1398.32 2352.76,1398.32 "></polyline>
<polyline clip-path="url(#clip783)" style="stroke:#000000; stroke-linecap:round; stroke-linejoin:round; stroke-width:2; stroke-opacity:0.1; fill:none" points="193.936,1260.83 2352.76,1260.83 "></polyline>
<polyline clip-path="url(#clip783)" style="stroke:#000000; stroke-linecap:round; stroke-linejoin:round; stroke-width:2; stroke-opacity:0.1; fill:none" points="193.936,1123.35 2352.76,1123.35 "></polyline>
<polyline clip-path="url(#clip783)" style="stroke:#000000; stroke-linecap:round; stroke-linejoin:round; stroke-width:2; stroke-opacity:0.1; fill:none" points="193.936,985.858 2352.76,985.858 "></polyline>
<polyline clip-path="url(#clip780)" style="stroke:#000000; stroke-linecap:round; stroke-linejoin:round; stroke-width:4; stroke-opacity:1; fill:none" points="193.936,1486.45 193.936,885.358 "></polyline>
<polyline clip-path="url(#clip780)" style="stroke:#000000; stroke-linecap:round; stroke-linejoin:round; stroke-width:4; stroke-opacity:1; fill:none" points="193.936,1398.32 212.834,1398.32 "></polyline>
<polyline clip-path="url(#clip780)" style="stroke:#000000; stroke-linecap:round; stroke-linejoin:round; stroke-width:4; stroke-opacity:1; fill:none" points="193.936,1260.83 212.834,1260.83 "></polyline>
<polyline clip-path="url(#clip780)" style="stroke:#000000; stroke-linecap:round; stroke-linejoin:round; stroke-width:4; stroke-opacity:1; fill:none" points="193.936,1123.35 212.834,1123.35 "></polyline>
<polyline clip-path="url(#clip780)" style="stroke:#000000; stroke-linecap:round; stroke-linejoin:round; stroke-width:4; stroke-opacity:1; fill:none" points="193.936,985.858 212.834,985.858 "></polyline>
<path clip-path="url(#clip780)" d="M96.8715 1398.77 L126.547 1398.77 L126.547 1402.71 L96.8715 1402.71 L96.8715 1398.77 Z" fill="#000000" fill-rule="nonzero" fill-opacity="1"></path><path clip-path="url(#clip780)" d="M150.806 1396.97 Q154.163 1397.69 156.038 1399.96 Q157.936 1402.22 157.936 1405.56 Q157.936 1410.67 154.417 1413.47 Q150.899 1416.27 144.418 1416.27 Q142.242 1416.27 139.927 1415.83 Q137.635 1415.42 135.181 1414.56 L135.181 1410.05 Q137.126 1411.18 139.441 1411.76 Q141.756 1412.34 144.279 1412.34 Q148.677 1412.34 150.968 1410.6 Q153.283 1408.87 153.283 1405.56 Q153.283 1402.5 151.13 1400.79 Q149.001 1399.05 145.181 1399.05 L141.154 1399.05 L141.154 1395.21 L145.367 1395.21 Q148.816 1395.21 150.644 1393.84 Q152.473 1392.46 152.473 1389.86 Q152.473 1387.2 150.575 1385.79 Q148.7 1384.35 145.181 1384.35 Q143.26 1384.35 141.061 1384.77 Q138.862 1385.19 136.223 1386.07 L136.223 1381.9 Q138.885 1381.16 141.2 1380.79 Q143.538 1380.42 145.598 1380.42 Q150.922 1380.42 154.024 1382.85 Q157.126 1385.26 157.126 1389.38 Q157.126 1392.25 155.482 1394.24 Q153.839 1396.21 150.806 1396.97 Z" fill="#000000" fill-rule="nonzero" fill-opacity="1"></path><path clip-path="url(#clip780)" d="M97.8206 1261.29 L127.496 1261.29 L127.496 1265.22 L97.8206 1265.22 L97.8206 1261.29 Z" fill="#000000" fill-rule="nonzero" fill-opacity="1"></path><path clip-path="url(#clip780)" d="M141.617 1274.18 L157.936 1274.18 L157.936 1278.11 L135.992 1278.11 L135.992 1274.18 Q138.654 1271.43 143.237 1266.8 Q147.843 1262.14 149.024 1260.8 Q151.269 1258.28 152.149 1256.54 Q153.052 1254.78 153.052 1253.09 Q153.052 1250.34 151.107 1248.6 Q149.186 1246.87 146.084 1246.87 Q143.885 1246.87 141.431 1247.63 Q139.001 1248.39 136.223 1249.94 L136.223 1245.22 Q139.047 1244.09 141.501 1243.51 Q143.955 1242.93 145.992 1242.93 Q151.362 1242.93 154.556 1245.62 Q157.751 1248.3 157.751 1252.79 Q157.751 1254.92 156.941 1256.84 Q156.154 1258.74 154.047 1261.33 Q153.468 1262 150.367 1265.22 Q147.265 1268.42 141.617 1274.18 Z" fill="#000000" fill-rule="nonzero" fill-opacity="1"></path><path clip-path="url(#clip780)" d="M97.4502 1123.8 L127.126 1123.8 L127.126 1127.73 L97.4502 1127.73 L97.4502 1123.8 Z" fill="#000000" fill-rule="nonzero" fill-opacity="1"></path><path clip-path="url(#clip780)" d="M138.029 1136.69 L145.668 1136.69 L145.668 1110.33 L137.357 1111.99 L137.357 1107.73 L145.621 1106.07 L150.297 1106.07 L150.297 1136.69 L157.936 1136.69 L157.936 1140.63 L138.029 1140.63 L138.029 1136.69 Z" fill="#000000" fill-rule="nonzero" fill-opacity="1"></path><path clip-path="url(#clip780)" d="M145.992 971.657 Q142.381 971.657 140.552 975.222 Q138.746 978.763 138.746 985.893 Q138.746 992.999 140.552 996.564 Q142.381 1000.11 145.992 1000.11 Q149.626 1000.11 151.431 996.564 Q153.26 992.999 153.26 985.893 Q153.26 978.763 151.431 975.222 Q149.626 971.657 145.992 971.657 M145.992 967.953 Q151.802 967.953 154.857 972.56 Q157.936 977.143 157.936 985.893 Q157.936 994.62 154.857 999.226 Q151.802 1003.81 145.992 1003.81 Q140.181 1003.81 137.103 999.226 Q134.047 994.62 134.047 985.893 Q134.047 977.143 137.103 972.56 Q140.181 967.953 145.992 967.953 Z" fill="#000000" fill-rule="nonzero" fill-opacity="1"></path><polyline clip-path="url(#clip783)" style="stroke:#000000; stroke-linecap:round; stroke-linejoin:round; stroke-width:4; stroke-opacity:1; fill:none" points="255.035,911.403 320.732,911.663 386.43,912.105 452.127,912.783 517.825,913.784 583.522,915.215 649.22,917.203 714.917,919.885 780.615,923.397 846.312,927.872 912.01,933.424 977.707,940.143 1043.4,948.084 1109.1,957.267 1174.8,967.667 1240.5,979.212 1306.19,991.788 1371.89,1005.24 1437.59,1019.36 1503.29,1033.92 1568.98,1048.68 1634.68,1063.38 1700.38,1077.75 1766.08,1091.53 1831.77,1104.48 1897.47,1116.39 1963.17,1127.07 2028.87,1136.36 2094.56,1144.14 2160.26,1150.34 2225.96,1154.89 2291.66,1157.78 "></polyline>
<polyline clip-path="url(#clip783)" style="stroke:#ff0000; stroke-linecap:round; stroke-linejoin:round; stroke-width:4; stroke-opacity:1; fill:none" points="255.035,991.435 320.732,996.523 386.43,1002.86 452.127,1011.39 517.825,1022.94 583.522,1038.17 649.22,1057.51 714.917,1081.16 780.615,1109.03 846.312,1140.74 912.01,1175.66 977.707,1212.88 1043.4,1251.31 1109.1,1289.65 1174.8,1326.5 1240.5,1360.45 1306.19,1390.13 1371.89,1414.27 1437.59,1431.79 1503.29,1441.83 1568.98,1443.87 1634.68,1437.69 1700.38,1423.4 1766.08,1401.37 1831.77,1372.24 1897.47,1336.82 1963.17,1296.08 2028.87,1251.07 2094.56,1202.88 2160.26,1152.6 2225.96,1101.24 2291.66,1049.74 "></polyline>
<polyline clip-path="url(#clip783)" style="stroke:#0000ff; stroke-linecap:round; stroke-linejoin:round; stroke-width:4; stroke-opacity:1; fill:none" points="255.035,905.653 320.732,906.758 386.43,908.011 452.127,909.473 517.825,911.21 583.522,913.296 649.22,915.812 714.917,918.849 780.615,922.523 846.312,926.986 912.01,932.433 977.707,939.082 1043.4,947.135 1109.1,956.713 1174.8,967.797 1240.5,980.207 1306.19,993.628 1371.89,1007.68 1437.59,1022.02 1503.29,1036.35 1568.98,1050.48 1634.68,1064.24 1700.38,1077.51 1766.08,1090.15 1831.77,1102.03 1897.47,1113.06 1963.17,1123.13 2028.87,1132.23 2094.56,1140.36 2160.26,1147.58 2225.96,1153.97 2291.66,1159.63 "></polyline>
<polyline clip-path="url(#clip783)" style="stroke:#ffa500; stroke-linecap:round; stroke-linejoin:round; stroke-width:4; stroke-opacity:1; fill:none" points="255.035,985.621 320.732,994.313 386.43,1001.81 452.127,1011.5 517.825,1023.71 583.522,1039.28 649.22,1060.23 714.917,1084.84 780.615,1112.52 846.312,1144.38 912.01,1179.64 977.707,1216.41 1043.4,1254.01 1109.1,1292.13 1174.8,1329.45 1240.5,1364.05 1306.19,1394.33 1371.89,1418.67 1437.59,1435.74 1503.29,1445.72 1568.98,1448.68 1634.68,1443.1 1700.38,1427.96 1766.08,1404.27 1831.77,1374.07 1897.47,1338.99 1963.17,1299.97 2028.87,1256.85 2094.56,1208.36 2160.26,1155.18 2225.96,1102.97 2291.66,1058.54 "></polyline>
<circle clip-path="url(#clip783)" cx="255.035" cy="919.9" r="14.4" fill="#800080" fill-rule="evenodd" fill-opacity="1" stroke="#000000" stroke-opacity="1" stroke-width="3.2"></circle>
<circle clip-path="url(#clip783)" cx="320.732" cy="939.178" r="14.4" fill="#800080" fill-rule="evenodd" fill-opacity="1" stroke="#000000" stroke-opacity="1" stroke-width="3.2"></circle>
<circle clip-path="url(#clip783)" cx="386.43" cy="910.112" r="14.4" fill="#800080" fill-rule="evenodd" fill-opacity="1" stroke="#000000" stroke-opacity="1" stroke-width="3.2"></circle>
<circle clip-path="url(#clip783)" cx="452.127" cy="909.941" r="14.4" fill="#800080" fill-rule="evenodd" fill-opacity="1" stroke="#000000" stroke-opacity="1" stroke-width="3.2"></circle>
<circle clip-path="url(#clip783)" cx="517.825" cy="912.217" r="14.4" fill="#800080" fill-rule="evenodd" fill-opacity="1" stroke="#000000" stroke-opacity="1" stroke-width="3.2"></circle>
<circle clip-path="url(#clip783)" cx="583.522" cy="902.37" r="14.4" fill="#800080" fill-rule="evenodd" fill-opacity="1" stroke="#000000" stroke-opacity="1" stroke-width="3.2"></circle>
<circle clip-path="url(#clip783)" cx="649.22" cy="930.321" r="14.4" fill="#800080" fill-rule="evenodd" fill-opacity="1" stroke="#000000" stroke-opacity="1" stroke-width="3.2"></circle>
<circle clip-path="url(#clip783)" cx="714.917" cy="925.615" r="14.4" fill="#800080" fill-rule="evenodd" fill-opacity="1" stroke="#000000" stroke-opacity="1" stroke-width="3.2"></circle>
<circle clip-path="url(#clip783)" cx="780.615" cy="920.906" r="14.4" fill="#800080" fill-rule="evenodd" fill-opacity="1" stroke="#000000" stroke-opacity="1" stroke-width="3.2"></circle>
<circle clip-path="url(#clip783)" cx="846.312" cy="920.404" r="14.4" fill="#800080" fill-rule="evenodd" fill-opacity="1" stroke="#000000" stroke-opacity="1" stroke-width="3.2"></circle>
<circle clip-path="url(#clip783)" cx="912.01" cy="912.623" r="14.4" fill="#800080" fill-rule="evenodd" fill-opacity="1" stroke="#000000" stroke-opacity="1" stroke-width="3.2"></circle>
<circle clip-path="url(#clip783)" cx="977.707" cy="949.258" r="14.4" fill="#800080" fill-rule="evenodd" fill-opacity="1" stroke="#000000" stroke-opacity="1" stroke-width="3.2"></circle>
<circle clip-path="url(#clip783)" cx="1043.4" cy="974.277" r="14.4" fill="#800080" fill-rule="evenodd" fill-opacity="1" stroke="#000000" stroke-opacity="1" stroke-width="3.2"></circle>
<circle clip-path="url(#clip783)" cx="1109.1" cy="949.633" r="14.4" fill="#800080" fill-rule="evenodd" fill-opacity="1" stroke="#000000" stroke-opacity="1" stroke-width="3.2"></circle>
<circle clip-path="url(#clip783)" cx="1174.8" cy="968.718" r="14.4" fill="#800080" fill-rule="evenodd" fill-opacity="1" stroke="#000000" stroke-opacity="1" stroke-width="3.2"></circle>
<circle clip-path="url(#clip783)" cx="1240.5" cy="955.668" r="14.4" fill="#800080" fill-rule="evenodd" fill-opacity="1" stroke="#000000" stroke-opacity="1" stroke-width="3.2"></circle>
<circle clip-path="url(#clip783)" cx="1306.19" cy="1030.91" r="14.4" fill="#800080" fill-rule="evenodd" fill-opacity="1" stroke="#000000" stroke-opacity="1" stroke-width="3.2"></circle>
<circle clip-path="url(#clip783)" cx="1371.89" cy="999.386" r="14.4" fill="#800080" fill-rule="evenodd" fill-opacity="1" stroke="#000000" stroke-opacity="1" stroke-width="3.2"></circle>
<circle clip-path="url(#clip783)" cx="1437.59" cy="982.305" r="14.4" fill="#800080" fill-rule="evenodd" fill-opacity="1" stroke="#000000" stroke-opacity="1" stroke-width="3.2"></circle>
<circle clip-path="url(#clip783)" cx="1503.29" cy="1025.47" r="14.4" fill="#800080" fill-rule="evenodd" fill-opacity="1" stroke="#000000" stroke-opacity="1" stroke-width="3.2"></circle>
<circle clip-path="url(#clip783)" cx="1568.98" cy="1054.97" r="14.4" fill="#800080" fill-rule="evenodd" fill-opacity="1" stroke="#000000" stroke-opacity="1" stroke-width="3.2"></circle>
<circle clip-path="url(#clip783)" cx="1634.68" cy="1068.07" r="14.4" fill="#800080" fill-rule="evenodd" fill-opacity="1" stroke="#000000" stroke-opacity="1" stroke-width="3.2"></circle>
<circle clip-path="url(#clip783)" cx="1700.38" cy="1051.75" r="14.4" fill="#800080" fill-rule="evenodd" fill-opacity="1" stroke="#000000" stroke-opacity="1" stroke-width="3.2"></circle>
<circle clip-path="url(#clip783)" cx="1766.08" cy="1102.52" r="14.4" fill="#800080" fill-rule="evenodd" fill-opacity="1" stroke="#000000" stroke-opacity="1" stroke-width="3.2"></circle>
<circle clip-path="url(#clip783)" cx="1831.77" cy="1091.95" r="14.4" fill="#800080" fill-rule="evenodd" fill-opacity="1" stroke="#000000" stroke-opacity="1" stroke-width="3.2"></circle>
<circle clip-path="url(#clip783)" cx="1897.47" cy="1141.05" r="14.4" fill="#800080" fill-rule="evenodd" fill-opacity="1" stroke="#000000" stroke-opacity="1" stroke-width="3.2"></circle>
<circle clip-path="url(#clip783)" cx="1963.17" cy="1126.39" r="14.4" fill="#800080" fill-rule="evenodd" fill-opacity="1" stroke="#000000" stroke-opacity="1" stroke-width="3.2"></circle>
<circle clip-path="url(#clip783)" cx="2028.87" cy="1118.72" r="14.4" fill="#800080" fill-rule="evenodd" fill-opacity="1" stroke="#000000" stroke-opacity="1" stroke-width="3.2"></circle>
<circle clip-path="url(#clip783)" cx="2094.56" cy="1137.49" r="14.4" fill="#800080" fill-rule="evenodd" fill-opacity="1" stroke="#000000" stroke-opacity="1" stroke-width="3.2"></circle>
<circle clip-path="url(#clip783)" cx="2160.26" cy="1139.55" r="14.4" fill="#800080" fill-rule="evenodd" fill-opacity="1" stroke="#000000" stroke-opacity="1" stroke-width="3.2"></circle>
<circle clip-path="url(#clip783)" cx="2225.96" cy="1130.17" r="14.4" fill="#800080" fill-rule="evenodd" fill-opacity="1" stroke="#000000" stroke-opacity="1" stroke-width="3.2"></circle>
<circle clip-path="url(#clip783)" cx="2291.66" cy="1141.78" r="14.4" fill="#800080" fill-rule="evenodd" fill-opacity="1" stroke="#000000" stroke-opacity="1" stroke-width="3.2"></circle>
<circle clip-path="url(#clip783)" cx="255.035" cy="986.646" r="14.4" fill="#ffff00" fill-rule="evenodd" fill-opacity="1" stroke="#000000" stroke-opacity="1" stroke-width="3.2"></circle>
<circle clip-path="url(#clip783)" cx="320.732" cy="966.648" r="14.4" fill="#ffff00" fill-rule="evenodd" fill-opacity="1" stroke="#000000" stroke-opacity="1" stroke-width="3.2"></circle>
<circle clip-path="url(#clip783)" cx="386.43" cy="1028.25" r="14.4" fill="#ffff00" fill-rule="evenodd" fill-opacity="1" stroke="#000000" stroke-opacity="1" stroke-width="3.2"></circle>
<circle clip-path="url(#clip783)" cx="452.127" cy="1013.81" r="14.4" fill="#ffff00" fill-rule="evenodd" fill-opacity="1" stroke="#000000" stroke-opacity="1" stroke-width="3.2"></circle>
<circle clip-path="url(#clip783)" cx="517.825" cy="1023.9" r="14.4" fill="#ffff00" fill-rule="evenodd" fill-opacity="1" stroke="#000000" stroke-opacity="1" stroke-width="3.2"></circle>
<circle clip-path="url(#clip783)" cx="583.522" cy="1026.9" r="14.4" fill="#ffff00" fill-rule="evenodd" fill-opacity="1" stroke="#000000" stroke-opacity="1" stroke-width="3.2"></circle>
<circle clip-path="url(#clip783)" cx="649.22" cy="1028.47" r="14.4" fill="#ffff00" fill-rule="evenodd" fill-opacity="1" stroke="#000000" stroke-opacity="1" stroke-width="3.2"></circle>
<circle clip-path="url(#clip783)" cx="714.917" cy="1068.12" r="14.4" fill="#ffff00" fill-rule="evenodd" fill-opacity="1" stroke="#000000" stroke-opacity="1" stroke-width="3.2"></circle>
<circle clip-path="url(#clip783)" cx="780.615" cy="1118.72" r="14.4" fill="#ffff00" fill-rule="evenodd" fill-opacity="1" stroke="#000000" stroke-opacity="1" stroke-width="3.2"></circle>
<circle clip-path="url(#clip783)" cx="846.312" cy="1134.8" r="14.4" fill="#ffff00" fill-rule="evenodd" fill-opacity="1" stroke="#000000" stroke-opacity="1" stroke-width="3.2"></circle>
<circle clip-path="url(#clip783)" cx="912.01" cy="1171.27" r="14.4" fill="#ffff00" fill-rule="evenodd" fill-opacity="1" stroke="#000000" stroke-opacity="1" stroke-width="3.2"></circle>
<circle clip-path="url(#clip783)" cx="977.707" cy="1198.69" r="14.4" fill="#ffff00" fill-rule="evenodd" fill-opacity="1" stroke="#000000" stroke-opacity="1" stroke-width="3.2"></circle>
<circle clip-path="url(#clip783)" cx="1043.4" cy="1225.67" r="14.4" fill="#ffff00" fill-rule="evenodd" fill-opacity="1" stroke="#000000" stroke-opacity="1" stroke-width="3.2"></circle>
<circle clip-path="url(#clip783)" cx="1109.1" cy="1301.08" r="14.4" fill="#ffff00" fill-rule="evenodd" fill-opacity="1" stroke="#000000" stroke-opacity="1" stroke-width="3.2"></circle>
<circle clip-path="url(#clip783)" cx="1174.8" cy="1300.88" r="14.4" fill="#ffff00" fill-rule="evenodd" fill-opacity="1" stroke="#000000" stroke-opacity="1" stroke-width="3.2"></circle>
<circle clip-path="url(#clip783)" cx="1240.5" cy="1352.21" r="14.4" fill="#ffff00" fill-rule="evenodd" fill-opacity="1" stroke="#000000" stroke-opacity="1" stroke-width="3.2"></circle>
<circle clip-path="url(#clip783)" cx="1306.19" cy="1412.33" r="14.4" fill="#ffff00" fill-rule="evenodd" fill-opacity="1" stroke="#000000" stroke-opacity="1" stroke-width="3.2"></circle>
<circle clip-path="url(#clip783)" cx="1371.89" cy="1408.83" r="14.4" fill="#ffff00" fill-rule="evenodd" fill-opacity="1" stroke="#000000" stroke-opacity="1" stroke-width="3.2"></circle>
<circle clip-path="url(#clip783)" cx="1437.59" cy="1469.42" r="14.4" fill="#ffff00" fill-rule="evenodd" fill-opacity="1" stroke="#000000" stroke-opacity="1" stroke-width="3.2"></circle>
<circle clip-path="url(#clip783)" cx="1503.29" cy="1429.16" r="14.4" fill="#ffff00" fill-rule="evenodd" fill-opacity="1" stroke="#000000" stroke-opacity="1" stroke-width="3.2"></circle>
<circle clip-path="url(#clip783)" cx="1568.98" cy="1469.44" r="14.4" fill="#ffff00" fill-rule="evenodd" fill-opacity="1" stroke="#000000" stroke-opacity="1" stroke-width="3.2"></circle>
<circle clip-path="url(#clip783)" cx="1634.68" cy="1422.66" r="14.4" fill="#ffff00" fill-rule="evenodd" fill-opacity="1" stroke="#000000" stroke-opacity="1" stroke-width="3.2"></circle>
<circle clip-path="url(#clip783)" cx="1700.38" cy="1400.15" r="14.4" fill="#ffff00" fill-rule="evenodd" fill-opacity="1" stroke="#000000" stroke-opacity="1" stroke-width="3.2"></circle>
<circle clip-path="url(#clip783)" cx="1766.08" cy="1416.53" r="14.4" fill="#ffff00" fill-rule="evenodd" fill-opacity="1" stroke="#000000" stroke-opacity="1" stroke-width="3.2"></circle>
<circle clip-path="url(#clip783)" cx="1831.77" cy="1361.41" r="14.4" fill="#ffff00" fill-rule="evenodd" fill-opacity="1" stroke="#000000" stroke-opacity="1" stroke-width="3.2"></circle>
<circle clip-path="url(#clip783)" cx="1897.47" cy="1336.19" r="14.4" fill="#ffff00" fill-rule="evenodd" fill-opacity="1" stroke="#000000" stroke-opacity="1" stroke-width="3.2"></circle>
<circle clip-path="url(#clip783)" cx="1963.17" cy="1302.6" r="14.4" fill="#ffff00" fill-rule="evenodd" fill-opacity="1" stroke="#000000" stroke-opacity="1" stroke-width="3.2"></circle>
<circle clip-path="url(#clip783)" cx="2028.87" cy="1245.08" r="14.4" fill="#ffff00" fill-rule="evenodd" fill-opacity="1" stroke="#000000" stroke-opacity="1" stroke-width="3.2"></circle>
<circle clip-path="url(#clip783)" cx="2094.56" cy="1234.6" r="14.4" fill="#ffff00" fill-rule="evenodd" fill-opacity="1" stroke="#000000" stroke-opacity="1" stroke-width="3.2"></circle>
<circle clip-path="url(#clip783)" cx="2160.26" cy="1160.6" r="14.4" fill="#ffff00" fill-rule="evenodd" fill-opacity="1" stroke="#000000" stroke-opacity="1" stroke-width="3.2"></circle>
<circle clip-path="url(#clip783)" cx="2225.96" cy="1064.09" r="14.4" fill="#ffff00" fill-rule="evenodd" fill-opacity="1" stroke="#000000" stroke-opacity="1" stroke-width="3.2"></circle>
<circle clip-path="url(#clip783)" cx="2291.66" cy="1037.92" r="14.4" fill="#ffff00" fill-rule="evenodd" fill-opacity="1" stroke="#000000" stroke-opacity="1" stroke-width="3.2"></circle>
<path clip-path="url(#clip780)" d="M1919.45 1268.27 L2280.8 1268.27 L2280.8 905.394 L1919.45 905.394  Z" fill="#ffffff" fill-rule="evenodd" fill-opacity="1"></path>
<polyline clip-path="url(#clip780)" style="stroke:#000000; stroke-linecap:round; stroke-linejoin:round; stroke-width:4; stroke-opacity:1; fill:none" points="1919.45,1268.27 2280.8,1268.27 2280.8,905.394 1919.45,905.394 1919.45,1268.27 "></polyline>
<polyline clip-path="url(#clip780)" style="stroke:#000000; stroke-linecap:round; stroke-linejoin:round; stroke-width:4; stroke-opacity:1; fill:none" points="1943.44,957.234 2087.36,957.234 "></polyline>
<path clip-path="url(#clip780)" d="M2130.61 958.079 L2115.86 958.079 Q2116.21 965.001 2117.8 967.94 Q2119.8 971.551 2123.24 971.551 Q2126.72 971.551 2128.64 967.917 Q2130.33 964.723 2130.61 958.079 M2130.54 954.144 Q2129.89 947.57 2128.64 945.255 Q2126.65 941.598 2123.24 941.598 Q2119.7 941.598 2117.83 945.209 Q2116.35 948.126 2115.91 954.144 L2130.54 954.144 M2123.24 938.126 Q2128.8 938.126 2131.97 943.033 Q2135.14 947.917 2135.14 956.575 Q2135.14 965.209 2131.97 970.116 Q2128.8 975.047 2123.24 975.047 Q2117.67 975.047 2114.52 970.116 Q2111.35 965.209 2111.35 956.575 Q2111.35 947.917 2114.52 943.033 Q2117.67 938.126 2123.24 938.126 Z" fill="#000000" fill-rule="nonzero" fill-opacity="1"></path><path clip-path="url(#clip780)" d="M2165.95 969.584 L2165.95 960.302 L2158.31 960.302 L2158.31 956.459 L2170.58 956.459 L2170.58 971.297 Q2167.87 973.218 2164.61 974.214 Q2161.35 975.186 2157.64 975.186 Q2149.54 975.186 2144.96 970.464 Q2140.4 965.718 2140.4 957.269 Q2140.4 948.797 2144.96 944.075 Q2149.54 939.329 2157.64 939.329 Q2161.02 939.329 2164.05 940.163 Q2167.11 940.996 2169.68 942.616 L2169.68 947.593 Q2167.09 945.394 2164.17 944.283 Q2161.25 943.172 2158.04 943.172 Q2151.69 943.172 2148.5 946.714 Q2145.33 950.255 2145.33 957.269 Q2145.33 964.26 2148.5 967.802 Q2151.69 971.343 2158.04 971.343 Q2160.51 971.343 2162.46 970.926 Q2164.4 970.487 2165.95 969.584 Z" fill="#000000" fill-rule="nonzero" fill-opacity="1"></path><path clip-path="url(#clip780)" d="M2172.64 939.954 L2201.88 939.954 L2201.88 943.89 L2189.61 943.89 L2189.61 974.514 L2184.91 974.514 L2184.91 943.89 L2172.64 943.89 L2172.64 939.954 Z" fill="#000000" fill-rule="nonzero" fill-opacity="1"></path><polyline clip-path="url(#clip780)" style="stroke:#ff0000; stroke-linecap:round; stroke-linejoin:round; stroke-width:4; stroke-opacity:1; fill:none" points="1943.44,1009.07 2087.36,1009.07 "></polyline>
<path clip-path="url(#clip780)" d="M2120.95 1027.03 Q2111.35 1027.03 2111.35 1013.28 Q2111.35 1007.84 2114.93 1000.43 L2119.52 1000.43 Q2116.21 1007.84 2116.21 1013.39 Q2116.21 1023.41 2121.35 1023.41 Q2126.05 1023.41 2126.05 1010.96 L2129.98 1010.96 Q2129.98 1023.41 2134.68 1023.41 Q2139.82 1023.41 2139.82 1013.39 Q2139.82 1007.84 2136.51 1000.43 L2141.09 1000.43 Q2144.68 1007.84 2144.68 1013.28 Q2144.68 1027.03 2135.07 1027.03 Q2128.78 1027.03 2128.01 1020.1 Q2127.06 1027.03 2120.95 1027.03 Z" fill="#000000" fill-rule="nonzero" fill-opacity="1"></path><path clip-path="url(#clip780)" d="M2176.14 1021.42 L2176.14 1012.14 L2168.5 1012.14 L2168.5 1008.3 L2180.77 1008.3 L2180.77 1023.14 Q2178.06 1025.06 2174.79 1026.05 Q2171.53 1027.03 2167.83 1027.03 Q2159.73 1027.03 2155.14 1022.3 Q2150.58 1017.56 2150.58 1009.11 Q2150.58 1000.64 2155.14 995.915 Q2159.73 991.169 2167.83 991.169 Q2171.21 991.169 2174.24 992.003 Q2177.29 992.836 2179.86 994.456 L2179.86 999.433 Q2177.27 997.234 2174.36 996.123 Q2171.44 995.012 2168.22 995.012 Q2161.88 995.012 2158.68 998.554 Q2155.51 1002.1 2155.51 1009.11 Q2155.51 1016.1 2158.68 1019.64 Q2161.88 1023.18 2168.22 1023.18 Q2170.7 1023.18 2172.64 1022.77 Q2174.59 1022.33 2176.14 1021.42 Z" fill="#000000" fill-rule="nonzero" fill-opacity="1"></path><path clip-path="url(#clip780)" d="M2182.83 991.794 L2212.06 991.794 L2212.06 995.73 L2199.79 995.73 L2199.79 1026.35 L2195.1 1026.35 L2195.1 995.73 L2182.83 995.73 L2182.83 991.794 Z" fill="#000000" fill-rule="nonzero" fill-opacity="1"></path><polyline clip-path="url(#clip780)" style="stroke:#0000ff; stroke-linecap:round; stroke-linejoin:round; stroke-width:4; stroke-opacity:1; fill:none" points="1943.44,1060.91 2087.36,1060.91 "></polyline>
<path clip-path="url(#clip780)" d="M2130.61 1061.76 L2115.86 1061.76 Q2116.21 1068.68 2117.8 1071.62 Q2119.8 1075.23 2123.24 1075.23 Q2126.72 1075.23 2128.64 1071.6 Q2130.33 1068.4 2130.61 1061.76 M2130.54 1057.82 Q2129.89 1051.25 2128.64 1048.94 Q2126.65 1045.28 2123.24 1045.28 Q2119.7 1045.28 2117.83 1048.89 Q2116.35 1051.81 2115.91 1057.82 L2130.54 1057.82 M2123.24 1041.81 Q2128.8 1041.81 2131.97 1046.71 Q2135.14 1051.6 2135.14 1060.25 Q2135.14 1068.89 2131.97 1073.8 Q2128.8 1078.73 2123.24 1078.73 Q2117.67 1078.73 2114.52 1073.8 Q2111.35 1068.89 2111.35 1060.25 Q2111.35 1051.6 2114.52 1046.71 Q2117.67 1041.81 2123.24 1041.81 Z" fill="#000000" fill-rule="nonzero" fill-opacity="1"></path><path clip-path="url(#clip780)" d="M2147.06 1047.48 L2147.06 1060.46 L2152.94 1060.46 Q2156.21 1060.46 2157.99 1058.77 Q2159.77 1057.08 2159.77 1053.96 Q2159.77 1050.86 2157.99 1049.17 Q2156.21 1047.48 2152.94 1047.48 L2147.06 1047.48 M2142.39 1043.63 L2152.94 1043.63 Q2158.75 1043.63 2161.72 1046.27 Q2164.7 1048.89 2164.7 1053.96 Q2164.7 1059.07 2161.72 1061.69 Q2158.75 1064.31 2152.94 1064.31 L2147.06 1064.31 L2147.06 1078.19 L2142.39 1078.19 L2142.39 1043.63 Z" fill="#000000" fill-rule="nonzero" fill-opacity="1"></path><path clip-path="url(#clip780)" d="M2184.98 1056.25 Q2184.26 1055.83 2183.41 1055.65 Q2182.57 1055.44 2181.55 1055.44 Q2177.94 1055.44 2176 1057.8 Q2174.08 1060.14 2174.08 1064.54 L2174.08 1078.19 L2169.79 1078.19 L2169.79 1052.27 L2174.08 1052.27 L2174.08 1056.3 Q2175.42 1053.94 2177.57 1052.8 Q2179.73 1051.64 2182.8 1051.64 Q2183.24 1051.64 2183.78 1051.71 Q2184.31 1051.76 2184.96 1051.88 L2184.98 1056.25 Z" fill="#000000" fill-rule="nonzero" fill-opacity="1"></path><path clip-path="url(#clip780)" d="M2210.58 1064.17 L2210.58 1066.25 L2191 1066.25 Q2191.28 1070.65 2193.64 1072.96 Q2196.02 1075.25 2200.26 1075.25 Q2202.71 1075.25 2205 1074.65 Q2207.32 1074.05 2209.59 1072.85 L2209.59 1076.87 Q2207.29 1077.85 2204.89 1078.36 Q2202.48 1078.87 2200 1078.87 Q2193.8 1078.87 2190.17 1075.25 Q2186.55 1071.64 2186.55 1065.49 Q2186.55 1059.12 2189.98 1055.39 Q2193.43 1051.64 2199.26 1051.64 Q2204.49 1051.64 2207.53 1055.02 Q2210.58 1058.38 2210.58 1064.17 M2206.32 1062.92 Q2206.28 1059.42 2204.35 1057.34 Q2202.46 1055.25 2199.31 1055.25 Q2195.74 1055.25 2193.59 1057.27 Q2191.46 1059.28 2191.14 1062.94 L2206.32 1062.92 Z" fill="#000000" fill-rule="nonzero" fill-opacity="1"></path><path clip-path="url(#clip780)" d="M2234.63 1056.2 L2234.63 1042.18 L2238.89 1042.18 L2238.89 1078.19 L2234.63 1078.19 L2234.63 1074.31 Q2233.29 1076.62 2231.23 1077.75 Q2229.19 1078.87 2226.32 1078.87 Q2221.62 1078.87 2218.66 1075.12 Q2215.72 1071.37 2215.72 1065.25 Q2215.72 1059.14 2218.66 1055.39 Q2221.62 1051.64 2226.32 1051.64 Q2229.19 1051.64 2231.23 1052.78 Q2233.29 1053.89 2234.63 1056.2 M2220.12 1065.25 Q2220.12 1069.95 2222.04 1072.64 Q2223.98 1075.3 2227.36 1075.3 Q2230.74 1075.3 2232.69 1072.64 Q2234.63 1069.95 2234.63 1065.25 Q2234.63 1060.56 2232.69 1057.89 Q2230.74 1055.21 2227.36 1055.21 Q2223.98 1055.21 2222.04 1057.89 Q2220.12 1060.56 2220.12 1065.25 Z" fill="#000000" fill-rule="nonzero" fill-opacity="1"></path><polyline clip-path="url(#clip780)" style="stroke:#ffa500; stroke-linecap:round; stroke-linejoin:round; stroke-width:4; stroke-opacity:1; fill:none" points="1943.44,1112.75 2087.36,1112.75 "></polyline>
<path clip-path="url(#clip780)" d="M2120.95 1130.71 Q2111.35 1130.71 2111.35 1116.96 Q2111.35 1111.52 2114.93 1104.11 L2119.52 1104.11 Q2116.21 1111.52 2116.21 1117.07 Q2116.21 1127.09 2121.35 1127.09 Q2126.05 1127.09 2126.05 1114.64 L2129.98 1114.64 Q2129.98 1127.09 2134.68 1127.09 Q2139.82 1127.09 2139.82 1117.07 Q2139.82 1111.52 2136.51 1104.11 L2141.09 1104.11 Q2144.68 1111.52 2144.68 1116.96 Q2144.68 1130.71 2135.07 1130.71 Q2128.78 1130.71 2128.01 1123.78 Q2127.06 1130.71 2120.95 1130.71 Z" fill="#000000" fill-rule="nonzero" fill-opacity="1"></path><path clip-path="url(#clip780)" d="M2157.25 1099.32 L2157.25 1112.3 L2163.13 1112.3 Q2166.39 1112.3 2168.17 1110.61 Q2169.96 1108.92 2169.96 1105.8 Q2169.96 1102.7 2168.17 1101.01 Q2166.39 1099.32 2163.13 1099.32 L2157.25 1099.32 M2152.57 1095.47 L2163.13 1095.47 Q2168.94 1095.47 2171.9 1098.11 Q2174.89 1100.73 2174.89 1105.8 Q2174.89 1110.91 2171.9 1113.53 Q2168.94 1116.15 2163.13 1116.15 L2157.25 1116.15 L2157.25 1130.03 L2152.57 1130.03 L2152.57 1095.47 Z" fill="#000000" fill-rule="nonzero" fill-opacity="1"></path><path clip-path="url(#clip780)" d="M2195.17 1108.09 Q2194.45 1107.67 2193.59 1107.49 Q2192.76 1107.28 2191.74 1107.28 Q2188.13 1107.28 2186.18 1109.64 Q2184.26 1111.98 2184.26 1116.38 L2184.26 1130.03 L2179.98 1130.03 L2179.98 1104.11 L2184.26 1104.11 L2184.26 1108.14 Q2185.61 1105.78 2187.76 1104.64 Q2189.91 1103.48 2192.99 1103.48 Q2193.43 1103.48 2193.96 1103.55 Q2194.49 1103.6 2195.14 1103.72 L2195.17 1108.09 Z" fill="#000000" fill-rule="nonzero" fill-opacity="1"></path><path clip-path="url(#clip780)" d="M2220.77 1116.01 L2220.77 1118.09 L2201.18 1118.09 Q2201.46 1122.49 2203.82 1124.8 Q2206.21 1127.09 2210.44 1127.09 Q2212.9 1127.09 2215.19 1126.49 Q2217.5 1125.89 2219.77 1124.69 L2219.77 1128.71 Q2217.48 1129.69 2215.07 1130.2 Q2212.67 1130.71 2210.19 1130.71 Q2203.98 1130.71 2200.35 1127.09 Q2196.74 1123.48 2196.74 1117.33 Q2196.74 1110.96 2200.17 1107.23 Q2203.61 1103.48 2209.45 1103.48 Q2214.68 1103.48 2217.71 1106.86 Q2220.77 1110.22 2220.77 1116.01 M2216.51 1114.76 Q2216.46 1111.26 2214.54 1109.18 Q2212.64 1107.09 2209.49 1107.09 Q2205.93 1107.09 2203.78 1109.11 Q2201.65 1111.12 2201.32 1114.78 L2216.51 1114.76 Z" fill="#000000" fill-rule="nonzero" fill-opacity="1"></path><path clip-path="url(#clip780)" d="M2244.82 1108.04 L2244.82 1094.02 L2249.08 1094.02 L2249.08 1130.03 L2244.82 1130.03 L2244.82 1126.15 Q2243.48 1128.46 2241.41 1129.59 Q2239.38 1130.71 2236.51 1130.71 Q2231.81 1130.71 2228.85 1126.96 Q2225.91 1123.21 2225.91 1117.09 Q2225.91 1110.98 2228.85 1107.23 Q2231.81 1103.48 2236.51 1103.48 Q2239.38 1103.48 2241.41 1104.62 Q2243.48 1105.73 2244.82 1108.04 M2230.3 1117.09 Q2230.3 1121.79 2232.23 1124.48 Q2234.17 1127.14 2237.55 1127.14 Q2240.93 1127.14 2242.87 1124.48 Q2244.82 1121.79 2244.82 1117.09 Q2244.82 1112.4 2242.87 1109.73 Q2240.93 1107.05 2237.55 1107.05 Q2234.17 1107.05 2232.23 1109.73 Q2230.3 1112.4 2230.3 1117.09 Z" fill="#000000" fill-rule="nonzero" fill-opacity="1"></path><circle clip-path="url(#clip780)" cx="2015.4" cy="1164.59" r="20.48" fill="#800080" fill-rule="evenodd" fill-opacity="1" stroke="#000000" stroke-opacity="1" stroke-width="4.55111"></circle>
<path clip-path="url(#clip780)" d="M2130.61 1165.44 L2115.86 1165.44 Q2116.21 1172.36 2117.8 1175.3 Q2119.8 1178.91 2123.24 1178.91 Q2126.72 1178.91 2128.64 1175.28 Q2130.33 1172.08 2130.61 1165.44 M2130.54 1161.5 Q2129.89 1154.93 2128.64 1152.62 Q2126.65 1148.96 2123.24 1148.96 Q2119.7 1148.96 2117.83 1152.57 Q2116.35 1155.49 2115.91 1161.5 L2130.54 1161.5 M2123.24 1145.49 Q2128.8 1145.49 2131.97 1150.39 Q2135.14 1155.28 2135.14 1163.93 Q2135.14 1172.57 2131.97 1177.48 Q2128.8 1182.41 2123.24 1182.41 Q2117.67 1182.41 2114.52 1177.48 Q2111.35 1172.57 2111.35 1163.93 Q2111.35 1155.28 2114.52 1150.39 Q2117.67 1145.49 2123.24 1145.49 Z" fill="#000000" fill-rule="nonzero" fill-opacity="1"></path><path clip-path="url(#clip780)" d="M2147.06 1151.16 L2147.06 1178.03 L2152.71 1178.03 Q2159.86 1178.03 2163.17 1174.79 Q2166.51 1171.55 2166.51 1164.56 Q2166.51 1157.62 2163.17 1154.4 Q2159.86 1151.16 2152.71 1151.16 L2147.06 1151.16 M2142.39 1147.31 L2151.99 1147.31 Q2162.04 1147.31 2166.74 1151.5 Q2171.44 1155.67 2171.44 1164.56 Q2171.44 1173.49 2166.72 1177.68 Q2161.99 1181.87 2151.99 1181.87 L2142.39 1181.87 L2142.39 1147.31 Z" fill="#000000" fill-rule="nonzero" fill-opacity="1"></path><path clip-path="url(#clip780)" d="M2190.49 1168.84 Q2185.33 1168.84 2183.34 1170.02 Q2181.35 1171.2 2181.35 1174.05 Q2181.35 1176.32 2182.83 1177.66 Q2184.33 1178.98 2186.9 1178.98 Q2190.44 1178.98 2192.57 1176.48 Q2194.73 1173.96 2194.73 1169.79 L2194.73 1168.84 L2190.49 1168.84 M2198.98 1167.08 L2198.98 1181.87 L2194.73 1181.87 L2194.73 1177.94 Q2193.27 1180.3 2191.09 1181.43 Q2188.92 1182.55 2185.77 1182.55 Q2181.79 1182.55 2179.42 1180.32 Q2177.09 1178.08 2177.09 1174.33 Q2177.09 1169.95 2180 1167.73 Q2182.94 1165.51 2188.75 1165.51 L2194.73 1165.51 L2194.73 1165.09 Q2194.73 1162.15 2192.78 1160.56 Q2190.86 1158.93 2187.36 1158.93 Q2185.14 1158.93 2183.04 1159.47 Q2180.93 1160 2178.98 1161.06 L2178.98 1157.13 Q2181.32 1156.23 2183.52 1155.79 Q2185.72 1155.32 2187.8 1155.32 Q2193.43 1155.32 2196.21 1158.24 Q2198.98 1161.16 2198.98 1167.08 Z" fill="#000000" fill-rule="nonzero" fill-opacity="1"></path><path clip-path="url(#clip780)" d="M2211.97 1148.59 L2211.97 1155.95 L2220.74 1155.95 L2220.74 1159.26 L2211.97 1159.26 L2211.97 1173.33 Q2211.97 1176.5 2212.83 1177.41 Q2213.71 1178.31 2216.37 1178.31 L2220.74 1178.31 L2220.74 1181.87 L2216.37 1181.87 Q2211.44 1181.87 2209.56 1180.05 Q2207.69 1178.19 2207.69 1173.33 L2207.69 1159.26 L2204.56 1159.26 L2204.56 1155.95 L2207.69 1155.95 L2207.69 1148.59 L2211.97 1148.59 Z" fill="#000000" fill-rule="nonzero" fill-opacity="1"></path><path clip-path="url(#clip780)" d="M2238.13 1168.84 Q2232.97 1168.84 2230.98 1170.02 Q2228.98 1171.2 2228.98 1174.05 Q2228.98 1176.32 2230.47 1177.66 Q2231.97 1178.98 2234.54 1178.98 Q2238.08 1178.98 2240.21 1176.48 Q2242.36 1173.96 2242.36 1169.79 L2242.36 1168.84 L2238.13 1168.84 M2246.62 1167.08 L2246.62 1181.87 L2242.36 1181.87 L2242.36 1177.94 Q2240.91 1180.3 2238.73 1181.43 Q2236.55 1182.55 2233.41 1182.55 Q2229.42 1182.55 2227.06 1180.32 Q2224.73 1178.08 2224.73 1174.33 Q2224.73 1169.95 2227.64 1167.73 Q2230.58 1165.51 2236.39 1165.51 L2242.36 1165.51 L2242.36 1165.09 Q2242.36 1162.15 2240.42 1160.56 Q2238.5 1158.93 2235 1158.93 Q2232.78 1158.93 2230.67 1159.47 Q2228.57 1160 2226.62 1161.06 L2226.62 1157.13 Q2228.96 1156.23 2231.16 1155.79 Q2233.36 1155.32 2235.44 1155.32 Q2241.07 1155.32 2243.85 1158.24 Q2246.62 1161.16 2246.62 1167.08 Z" fill="#000000" fill-rule="nonzero" fill-opacity="1"></path><circle clip-path="url(#clip780)" cx="2015.4" cy="1216.43" r="20.48" fill="#ffff00" fill-rule="evenodd" fill-opacity="1" stroke="#000000" stroke-opacity="1" stroke-width="4.55111"></circle>
<path clip-path="url(#clip780)" d="M2120.95 1234.39 Q2111.35 1234.39 2111.35 1220.64 Q2111.35 1215.2 2114.93 1207.79 L2119.52 1207.79 Q2116.21 1215.2 2116.21 1220.75 Q2116.21 1230.77 2121.35 1230.77 Q2126.05 1230.77 2126.05 1218.32 L2129.98 1218.32 Q2129.98 1230.77 2134.68 1230.77 Q2139.82 1230.77 2139.82 1220.75 Q2139.82 1215.2 2136.51 1207.79 L2141.09 1207.79 Q2144.68 1215.2 2144.68 1220.64 Q2144.68 1234.39 2135.07 1234.39 Q2128.78 1234.39 2128.01 1227.46 Q2127.06 1234.39 2120.95 1234.39 Z" fill="#000000" fill-rule="nonzero" fill-opacity="1"></path><path clip-path="url(#clip780)" d="M2157.25 1203 L2157.25 1229.87 L2162.9 1229.87 Q2170.05 1229.87 2173.36 1226.63 Q2176.69 1223.39 2176.69 1216.4 Q2176.69 1209.46 2173.36 1206.24 Q2170.05 1203 2162.9 1203 L2157.25 1203 M2152.57 1199.15 L2162.18 1199.15 Q2172.23 1199.15 2176.92 1203.34 Q2181.62 1207.51 2181.62 1216.4 Q2181.62 1225.33 2176.9 1229.52 Q2172.18 1233.71 2162.18 1233.71 L2152.57 1233.71 L2152.57 1199.15 Z" fill="#000000" fill-rule="nonzero" fill-opacity="1"></path><path clip-path="url(#clip780)" d="M2200.67 1220.68 Q2195.51 1220.68 2193.52 1221.86 Q2191.53 1223.04 2191.53 1225.89 Q2191.53 1228.16 2193.01 1229.5 Q2194.52 1230.82 2197.09 1230.82 Q2200.63 1230.82 2202.76 1228.32 Q2204.91 1225.8 2204.91 1221.63 L2204.91 1220.68 L2200.67 1220.68 M2209.17 1218.92 L2209.17 1233.71 L2204.91 1233.71 L2204.91 1229.78 Q2203.45 1232.14 2201.28 1233.27 Q2199.1 1234.39 2195.95 1234.39 Q2191.97 1234.39 2189.61 1232.16 Q2187.27 1229.92 2187.27 1226.17 Q2187.27 1221.79 2190.19 1219.57 Q2193.13 1217.35 2198.94 1217.35 L2204.91 1217.35 L2204.91 1216.93 Q2204.91 1213.99 2202.97 1212.4 Q2201.04 1210.77 2197.55 1210.77 Q2195.33 1210.77 2193.22 1211.31 Q2191.11 1211.84 2189.17 1212.9 L2189.17 1208.97 Q2191.51 1208.07 2193.71 1207.63 Q2195.91 1207.16 2197.99 1207.16 Q2203.61 1207.16 2206.39 1210.08 Q2209.17 1213 2209.17 1218.92 Z" fill="#000000" fill-rule="nonzero" fill-opacity="1"></path><path clip-path="url(#clip780)" d="M2222.16 1200.43 L2222.16 1207.79 L2230.93 1207.79 L2230.93 1211.1 L2222.16 1211.1 L2222.16 1225.17 Q2222.16 1228.34 2223.01 1229.25 Q2223.89 1230.15 2226.55 1230.15 L2230.93 1230.15 L2230.93 1233.71 L2226.55 1233.71 Q2221.62 1233.71 2219.75 1231.89 Q2217.87 1230.03 2217.87 1225.17 L2217.87 1211.1 L2214.75 1211.1 L2214.75 1207.79 L2217.87 1207.79 L2217.87 1200.43 L2222.16 1200.43 Z" fill="#000000" fill-rule="nonzero" fill-opacity="1"></path><path clip-path="url(#clip780)" d="M2248.31 1220.68 Q2243.15 1220.68 2241.16 1221.86 Q2239.17 1223.04 2239.17 1225.89 Q2239.17 1228.16 2240.65 1229.5 Q2242.16 1230.82 2244.73 1230.82 Q2248.27 1230.82 2250.4 1228.32 Q2252.55 1225.8 2252.55 1221.63 L2252.55 1220.68 L2248.31 1220.68 M2256.81 1218.92 L2256.81 1233.71 L2252.55 1233.71 L2252.55 1229.78 Q2251.09 1232.14 2248.91 1233.27 Q2246.74 1234.39 2243.59 1234.39 Q2239.61 1234.39 2237.25 1232.16 Q2234.91 1229.92 2234.91 1226.17 Q2234.91 1221.79 2237.83 1219.57 Q2240.77 1217.35 2246.58 1217.35 L2252.55 1217.35 L2252.55 1216.93 Q2252.55 1213.99 2250.6 1212.4 Q2248.68 1210.77 2245.19 1210.77 Q2242.97 1210.77 2240.86 1211.31 Q2238.75 1211.84 2236.81 1212.9 L2236.81 1208.97 Q2239.15 1208.07 2241.35 1207.63 Q2243.54 1207.16 2245.63 1207.16 Q2251.25 1207.16 2254.03 1210.08 Q2256.81 1213 2256.81 1218.92 Z" fill="#000000" fill-rule="nonzero" fill-opacity="1"></path></svg>