<svg xmlns="http://www.w3.org/2000/svg" xmlns:xlink="http://www.w3.org/1999/xlink" width="600" height="400" viewBox="0 0 2400 1600">
<defs>
  <clipPath id="clip260">
    <rect x="0" y="0" width="2400" height="1600"></rect>
  </clipPath>
</defs>
<path clip-path="url(#clip260)" d="M0 1600 L2400 1600 L2400 0 L0 0  Z" fill="#ffffff" fill-rule="evenodd" fill-opacity="1"></path>
<defs>
  <clipPath id="clip261">
    <rect x="480" y="0" width="1681" height="1600"></rect>
  </clipPath>
</defs>
<path clip-path="url(#clip260)" d="M149.191 724.562 L2352.76 724.562 L2352.76 123.472 L149.191 123.472  Z" fill="#ffffff" fill-rule="evenodd" fill-opacity="1"></path>
<defs>
  <clipPath id="clip262">
    <rect x="149" y="123" width="2205" height="602"></rect>
  </clipPath>
</defs>
<polyline clip-path="url(#clip262)" style="stroke:#000000; stroke-linecap:round; stroke-linejoin:round; stroke-width:2; stroke-opacity:0.1; fill:none" points="211.556,724.562 211.556,123.472 "></polyline>
<polyline clip-path="url(#clip262)" style="stroke:#000000; stroke-linecap:round; stroke-linejoin:round; stroke-width:2; stroke-opacity:0.1; fill:none" points="731.265,724.562 731.265,123.472 "></polyline>
<polyline clip-path="url(#clip262)" style="stroke:#000000; stroke-linecap:round; stroke-linejoin:round; stroke-width:2; stroke-opacity:0.1; fill:none" points="1250.97,724.562 1250.97,123.472 "></polyline>
<polyline clip-path="url(#clip262)" style="stroke:#000000; stroke-linecap:round; stroke-linejoin:round; stroke-width:2; stroke-opacity:0.1; fill:none" points="1770.68,724.562 1770.68,123.472 "></polyline>
<polyline clip-path="url(#clip262)" style="stroke:#000000; stroke-linecap:round; stroke-linejoin:round; stroke-width:2; stroke-opacity:0.1; fill:none" points="2290.39,724.562 2290.39,123.472 "></polyline>
<polyline clip-path="url(#clip260)" style="stroke:#000000; stroke-linecap:round; stroke-linejoin:round; stroke-width:4; stroke-opacity:1; fill:none" points="149.191,724.562 2352.76,724.562 "></polyline>
<polyline clip-path="url(#clip260)" style="stroke:#000000; stroke-linecap:round; stroke-linejoin:round; stroke-width:4; stroke-opacity:1; fill:none" points="211.556,724.562 211.556,705.664 "></polyline>
<polyline clip-path="url(#clip260)" style="stroke:#000000; stroke-linecap:round; stroke-linejoin:round; stroke-width:4; stroke-opacity:1; fill:none" points="731.265,724.562 731.265,705.664 "></polyline>
<polyline clip-path="url(#clip260)" style="stroke:#000000; stroke-linecap:round; stroke-linejoin:round; stroke-width:4; stroke-opacity:1; fill:none" points="1250.97,724.562 1250.97,705.664 "></polyline>
<polyline clip-path="url(#clip260)" style="stroke:#000000; stroke-linecap:round; stroke-linejoin:round; stroke-width:4; stroke-opacity:1; fill:none" points="1770.68,724.562 1770.68,705.664 "></polyline>
<polyline clip-path="url(#clip260)" style="stroke:#000000; stroke-linecap:round; stroke-linejoin:round; stroke-width:4; stroke-opacity:1; fill:none" points="2290.39,724.562 2290.39,705.664 "></polyline>
<path clip-path="url(#clip260)" d="M173.859 755.481 Q170.248 755.481 168.42 759.045 Q166.614 762.587 166.614 769.717 Q166.614 776.823 168.42 780.388 Q170.248 783.929 173.859 783.929 Q177.494 783.929 179.299 780.388 Q181.128 776.823 181.128 769.717 Q181.128 762.587 179.299 759.045 Q177.494 755.481 173.859 755.481 M173.859 751.777 Q179.67 751.777 182.725 756.383 Q185.804 760.967 185.804 769.717 Q185.804 778.443 182.725 783.05 Q179.67 787.633 173.859 787.633 Q168.049 787.633 164.971 783.05 Q161.915 778.443 161.915 769.717 Q161.915 760.967 164.971 756.383 Q168.049 751.777 173.859 751.777 Z" fill="#000000" fill-rule="nonzero" fill-opacity="1"></path><path clip-path="url(#clip260)" d="M194.021 781.082 L198.906 781.082 L198.906 786.962 L194.021 786.962 L194.021 781.082 Z" fill="#000000" fill-rule="nonzero" fill-opacity="1"></path><path clip-path="url(#clip260)" d="M219.091 755.481 Q215.48 755.481 213.651 759.045 Q211.845 762.587 211.845 769.717 Q211.845 776.823 213.651 780.388 Q215.48 783.929 219.091 783.929 Q222.725 783.929 224.53 780.388 Q226.359 776.823 226.359 769.717 Q226.359 762.587 224.53 759.045 Q222.725 755.481 219.091 755.481 M219.091 751.777 Q224.901 751.777 227.956 756.383 Q231.035 760.967 231.035 769.717 Q231.035 778.443 227.956 783.05 Q224.901 787.633 219.091 787.633 Q213.28 787.633 210.202 783.05 Q207.146 778.443 207.146 769.717 Q207.146 760.967 210.202 756.383 Q213.28 751.777 219.091 751.777 Z" fill="#000000" fill-rule="nonzero" fill-opacity="1"></path><path clip-path="url(#clip260)" d="M249.252 755.481 Q245.641 755.481 243.813 759.045 Q242.007 762.587 242.007 769.717 Q242.007 776.823 243.813 780.388 Q245.641 783.929 249.252 783.929 Q252.887 783.929 254.692 780.388 Q256.521 776.823 256.521 769.717 Q256.521 762.587 254.692 759.045 Q252.887 755.481 249.252 755.481 M249.252 751.777 Q255.063 751.777 258.118 756.383 Q261.197 760.967 261.197 769.717 Q261.197 778.443 258.118 783.05 Q255.063 787.633 249.252 787.633 Q243.442 787.633 240.364 783.05 Q237.308 778.443 237.308 769.717 Q237.308 760.967 240.364 756.383 Q243.442 751.777 249.252 751.777 Z" fill="#000000" fill-rule="nonzero" fill-opacity="1"></path><path clip-path="url(#clip260)" d="M694.066 755.481 Q690.455 755.481 688.626 759.045 Q686.82 762.587 686.82 769.717 Q686.82 776.823 688.626 780.388 Q690.455 783.929 694.066 783.929 Q697.7 783.929 699.506 780.388 Q701.334 776.823 701.334 769.717 Q701.334 762.587 699.506 759.045 Q697.7 755.481 694.066 755.481 M694.066 751.777 Q699.876 751.777 702.931 756.383 Q706.01 760.967 706.01 769.717 Q706.01 778.443 702.931 783.05 Q699.876 787.633 694.066 787.633 Q688.256 787.633 685.177 783.05 Q682.121 778.443 682.121 769.717 Q682.121 760.967 685.177 756.383 Q688.256 751.777 694.066 751.777 Z" fill="#000000" fill-rule="nonzero" fill-opacity="1"></path><path clip-path="url(#clip260)" d="M714.228 781.082 L719.112 781.082 L719.112 786.962 L714.228 786.962 L714.228 781.082 Z" fill="#000000" fill-rule="nonzero" fill-opacity="1"></path><path clip-path="url(#clip260)" d="M733.325 783.027 L749.644 783.027 L749.644 786.962 L727.7 786.962 L727.7 783.027 Q730.362 780.272 734.945 775.643 Q739.552 770.99 740.732 769.647 Q742.978 767.124 743.857 765.388 Q744.76 763.629 744.76 761.939 Q744.76 759.184 742.816 757.448 Q740.894 755.712 737.792 755.712 Q735.593 755.712 733.14 756.476 Q730.709 757.24 727.931 758.791 L727.931 754.069 Q730.755 752.934 733.209 752.356 Q735.663 751.777 737.7 751.777 Q743.07 751.777 746.265 754.462 Q749.459 757.147 749.459 761.638 Q749.459 763.768 748.649 765.689 Q747.862 767.587 745.755 770.18 Q745.177 770.851 742.075 774.068 Q738.973 777.263 733.325 783.027 Z" fill="#000000" fill-rule="nonzero" fill-opacity="1"></path><path clip-path="url(#clip260)" d="M759.505 752.402 L777.862 752.402 L777.862 756.337 L763.788 756.337 L763.788 764.809 Q764.806 764.462 765.825 764.3 Q766.843 764.115 767.862 764.115 Q773.649 764.115 777.028 767.286 Q780.408 770.457 780.408 775.874 Q780.408 781.453 776.936 784.554 Q773.463 787.633 767.144 787.633 Q764.968 787.633 762.7 787.263 Q760.454 786.892 758.047 786.152 L758.047 781.453 Q760.13 782.587 762.352 783.142 Q764.575 783.698 767.051 783.698 Q771.056 783.698 773.394 781.592 Q775.732 779.485 775.732 775.874 Q775.732 772.263 773.394 770.156 Q771.056 768.05 767.051 768.05 Q765.177 768.05 763.302 768.467 Q761.45 768.883 759.505 769.763 L759.505 752.402 Z" fill="#000000" fill-rule="nonzero" fill-opacity="1"></path><path clip-path="url(#clip260)" d="M1213.28 755.481 Q1209.67 755.481 1207.84 759.045 Q1206.03 762.587 1206.03 769.717 Q1206.03 776.823 1207.84 780.388 Q1209.67 783.929 1213.28 783.929 Q1216.91 783.929 1218.72 780.388 Q1220.55 776.823 1220.55 769.717 Q1220.55 762.587 1218.72 759.045 Q1216.91 755.481 1213.28 755.481 M1213.28 751.777 Q1219.09 751.777 1222.14 756.383 Q1225.22 760.967 1225.22 769.717 Q1225.22 778.443 1222.14 783.05 Q1219.09 787.633 1213.28 787.633 Q1207.47 787.633 1204.39 783.05 Q1201.33 778.443 1201.33 769.717 Q1201.33 760.967 1204.39 756.383 Q1207.47 751.777 1213.28 751.777 Z" fill="#000000" fill-rule="nonzero" fill-opacity="1"></path><path clip-path="url(#clip260)" d="M1233.44 781.082 L1238.32 781.082 L1238.32 786.962 L1233.44 786.962 L1233.44 781.082 Z" fill="#000000" fill-rule="nonzero" fill-opacity="1"></path><path clip-path="url(#clip260)" d="M1248.55 752.402 L1266.91 752.402 L1266.91 756.337 L1252.84 756.337 L1252.84 764.809 Q1253.86 764.462 1254.87 764.3 Q1255.89 764.115 1256.91 764.115 Q1262.7 764.115 1266.08 767.286 Q1269.46 770.457 1269.46 775.874 Q1269.46 781.453 1265.98 784.554 Q1262.51 787.633 1256.19 787.633 Q1254.02 787.633 1251.75 787.263 Q1249.5 786.892 1247.1 786.152 L1247.1 781.453 Q1249.18 782.587 1251.4 783.142 Q1253.62 783.698 1256.1 783.698 Q1260.11 783.698 1262.44 781.592 Q1264.78 779.485 1264.78 775.874 Q1264.78 772.263 1262.44 770.156 Q1260.11 768.05 1256.1 768.05 Q1254.23 768.05 1252.35 768.467 Q1250.5 768.883 1248.55 769.763 L1248.55 752.402 Z" fill="#000000" fill-rule="nonzero" fill-opacity="1"></path><path clip-path="url(#clip260)" d="M1288.67 755.481 Q1285.06 755.481 1283.23 759.045 Q1281.42 762.587 1281.42 769.717 Q1281.42 776.823 1283.23 780.388 Q1285.06 783.929 1288.67 783.929 Q1292.3 783.929 1294.11 780.388 Q1295.94 776.823 1295.94 769.717 Q1295.94 762.587 1294.11 759.045 Q1292.3 755.481 1288.67 755.481 M1288.67 751.777 Q1294.48 751.777 1297.54 756.383 Q1300.61 760.967 1300.61 769.717 Q1300.61 778.443 1297.54 783.05 Q1294.48 787.633 1288.67 787.633 Q1282.86 787.633 1279.78 783.05 Q1276.73 778.443 1276.73 769.717 Q1276.73 760.967 1279.78 756.383 Q1282.86 751.777 1288.67 751.777 Z" fill="#000000" fill-rule="nonzero" fill-opacity="1"></path><path clip-path="url(#clip260)" d="M1733.48 755.481 Q1729.87 755.481 1728.04 759.045 Q1726.24 762.587 1726.24 769.717 Q1726.24 776.823 1728.04 780.388 Q1729.87 783.929 1733.48 783.929 Q1737.12 783.929 1738.92 780.388 Q1740.75 776.823 1740.75 769.717 Q1740.75 762.587 1738.92 759.045 Q1737.12 755.481 1733.48 755.481 M1733.48 751.777 Q1739.29 751.777 1742.35 756.383 Q1745.43 760.967 1745.43 769.717 Q1745.43 778.443 1742.35 783.05 Q1739.29 787.633 1733.48 787.633 Q1727.67 787.633 1724.59 783.05 Q1721.54 778.443 1721.54 769.717 Q1721.54 760.967 1724.59 756.383 Q1727.67 751.777 1733.48 751.777 Z" fill="#000000" fill-rule="nonzero" fill-opacity="1"></path><path clip-path="url(#clip260)" d="M1753.65 781.082 L1758.53 781.082 L1758.53 786.962 L1753.65 786.962 L1753.65 781.082 Z" fill="#000000" fill-rule="nonzero" fill-opacity="1"></path><path clip-path="url(#clip260)" d="M1767.53 752.402 L1789.76 752.402 L1789.76 754.393 L1777.21 786.962 L1772.33 786.962 L1784.13 756.337 L1767.53 756.337 L1767.53 752.402 Z" fill="#000000" fill-rule="nonzero" fill-opacity="1"></path><path clip-path="url(#clip260)" d="M1798.92 752.402 L1817.28 752.402 L1817.28 756.337 L1803.21 756.337 L1803.21 764.809 Q1804.22 764.462 1805.24 764.3 Q1806.26 764.115 1807.28 764.115 Q1813.07 764.115 1816.45 767.286 Q1819.83 770.457 1819.83 775.874 Q1819.83 781.453 1816.35 784.554 Q1812.88 787.633 1806.56 787.633 Q1804.39 787.633 1802.12 787.263 Q1799.87 786.892 1797.46 786.152 L1797.46 781.453 Q1799.55 782.587 1801.77 783.142 Q1803.99 783.698 1806.47 783.698 Q1810.47 783.698 1812.81 781.592 Q1815.15 779.485 1815.15 775.874 Q1815.15 772.263 1812.81 770.156 Q1810.47 768.05 1806.47 768.05 Q1804.59 768.05 1802.72 768.467 Q1800.87 768.883 1798.92 769.763 L1798.92 752.402 Z" fill="#000000" fill-rule="nonzero" fill-opacity="1"></path><path clip-path="url(#clip260)" d="M2242.46 783.027 L2250.1 783.027 L2250.1 756.661 L2241.79 758.328 L2241.79 754.069 L2250.06 752.402 L2254.73 752.402 L2254.73 783.027 L2262.37 783.027 L2262.37 786.962 L2242.46 786.962 L2242.46 783.027 Z" fill="#000000" fill-rule="nonzero" fill-opacity="1"></path><path clip-path="url(#clip260)" d="M2271.81 781.082 L2276.7 781.082 L2276.7 786.962 L2271.81 786.962 L2271.81 781.082 Z" fill="#000000" fill-rule="nonzero" fill-opacity="1"></path><path clip-path="url(#clip260)" d="M2296.88 755.481 Q2293.27 755.481 2291.44 759.045 Q2289.64 762.587 2289.64 769.717 Q2289.64 776.823 2291.44 780.388 Q2293.27 783.929 2296.88 783.929 Q2300.52 783.929 2302.32 780.388 Q2304.15 776.823 2304.15 769.717 Q2304.15 762.587 2302.32 759.045 Q2300.52 755.481 2296.88 755.481 M2296.88 751.777 Q2302.69 751.777 2305.75 756.383 Q2308.83 760.967 2308.83 769.717 Q2308.83 778.443 2305.75 783.05 Q2302.69 787.633 2296.88 787.633 Q2291.07 787.633 2288 783.05 Q2284.94 778.443 2284.94 769.717 Q2284.94 760.967 2288 756.383 Q2291.07 751.777 2296.88 751.777 Z" fill="#000000" fill-rule="nonzero" fill-opacity="1"></path><path clip-path="url(#clip260)" d="M2327.05 755.481 Q2323.43 755.481 2321.61 759.045 Q2319.8 762.587 2319.8 769.717 Q2319.8 776.823 2321.61 780.388 Q2323.43 783.929 2327.05 783.929 Q2330.68 783.929 2332.49 780.388 Q2334.31 776.823 2334.31 769.717 Q2334.31 762.587 2332.49 759.045 Q2330.68 755.481 2327.05 755.481 M2327.05 751.777 Q2332.86 751.777 2335.91 756.383 Q2338.99 760.967 2338.99 769.717 Q2338.99 778.443 2335.91 783.05 Q2332.86 787.633 2327.05 787.633 Q2321.24 787.633 2318.16 783.05 Q2315.1 778.443 2315.1 769.717 Q2315.1 760.967 2318.16 756.383 Q2321.24 751.777 2327.05 751.777 Z" fill="#000000" fill-rule="nonzero" fill-opacity="1"></path><polyline clip-path="url(#clip262)" style="stroke:#000000; stroke-linecap:round; stroke-linejoin:round; stroke-width:2; stroke-opacity:0.1; fill:none" points="149.191,688.706 2352.76,688.706 "></polyline>
<polyline clip-path="url(#clip262)" style="stroke:#000000; stroke-linecap:round; stroke-linejoin:round; stroke-width:2; stroke-opacity:0.1; fill:none" points="149.191,571.575 2352.76,571.575 "></polyline>
<polyline clip-path="url(#clip262)" style="stroke:#000000; stroke-linecap:round; stroke-linejoin:round; stroke-width:2; stroke-opacity:0.1; fill:none" points="149.191,454.443 2352.76,454.443 "></polyline>
<polyline clip-path="url(#clip262)" style="stroke:#000000; stroke-linecap:round; stroke-linejoin:round; stroke-width:2; stroke-opacity:0.1; fill:none" points="149.191,337.311 2352.76,337.311 "></polyline>
<polyline clip-path="url(#clip262)" style="stroke:#000000; stroke-linecap:round; stroke-linejoin:round; stroke-width:2; stroke-opacity:0.1; fill:none" points="149.191,220.179 2352.76,220.179 "></polyline>
<polyline clip-path="url(#clip260)" style="stroke:#000000; stroke-linecap:round; stroke-linejoin:round; stroke-width:4; stroke-opacity:1; fill:none" points="149.191,724.562 149.191,123.472 "></polyline>
<polyline clip-path="url(#clip260)" style="stroke:#000000; stroke-linecap:round; stroke-linejoin:round; stroke-width:4; stroke-opacity:1; fill:none" points="149.191,688.706 168.089,688.706 "></polyline>
<polyline clip-path="url(#clip260)" style="stroke:#000000; stroke-linecap:round; stroke-linejoin:round; stroke-width:4; stroke-opacity:1; fill:none" points="149.191,571.575 168.089,571.575 "></polyline>
<polyline clip-path="url(#clip260)" style="stroke:#000000; stroke-linecap:round; stroke-linejoin:round; stroke-width:4; stroke-opacity:1; fill:none" points="149.191,454.443 168.089,454.443 "></polyline>
<polyline clip-path="url(#clip260)" style="stroke:#000000; stroke-linecap:round; stroke-linejoin:round; stroke-width:4; stroke-opacity:1; fill:none" points="149.191,337.311 168.089,337.311 "></polyline>
<polyline clip-path="url(#clip260)" style="stroke:#000000; stroke-linecap:round; stroke-linejoin:round; stroke-width:4; stroke-opacity:1; fill:none" points="149.191,220.179 168.089,220.179 "></polyline>
<path clip-path="url(#clip260)" d="M50.9921 689.158 L80.6679 689.158 L80.6679 693.093 L50.9921 693.093 L50.9921 689.158 Z" fill="#000000" fill-rule="nonzero" fill-opacity="1"></path><path clip-path="url(#clip260)" d="M103.608 675.5 L91.8021 693.949 L103.608 693.949 L103.608 675.5 M102.381 671.426 L108.26 671.426 L108.26 693.949 L113.191 693.949 L113.191 697.838 L108.26 697.838 L108.26 705.986 L103.608 705.986 L103.608 697.838 L88.0058 697.838 L88.0058 693.324 L102.381 671.426 Z" fill="#000000" fill-rule="nonzero" fill-opacity="1"></path><path clip-path="url(#clip260)" d="M53.0754 572.026 L82.7512 572.026 L82.7512 575.961 L53.0754 575.961 L53.0754 572.026 Z" fill="#000000" fill-rule="nonzero" fill-opacity="1"></path><path clip-path="url(#clip260)" d="M96.8715 584.919 L113.191 584.919 L113.191 588.855 L91.2465 588.855 L91.2465 584.919 Q93.9086 582.165 98.4919 577.535 Q103.098 572.882 104.279 571.54 Q106.524 569.017 107.404 567.281 Q108.307 565.521 108.307 563.832 Q108.307 561.077 106.362 559.341 Q104.441 557.605 101.339 557.605 Q99.14 557.605 96.6863 558.369 Q94.2558 559.132 91.478 560.683 L91.478 555.961 Q94.3021 554.827 96.7558 554.248 Q99.2095 553.67 101.246 553.67 Q106.617 553.67 109.811 556.355 Q113.006 559.04 113.006 563.531 Q113.006 565.66 112.196 567.582 Q111.408 569.48 109.302 572.072 Q108.723 572.744 105.621 575.961 Q102.52 579.156 96.8715 584.919 Z" fill="#000000" fill-rule="nonzero" fill-opacity="1"></path><path clip-path="url(#clip260)" d="M101.246 440.241 Q97.6354 440.241 95.8067 443.806 Q94.0012 447.348 94.0012 454.477 Q94.0012 461.584 95.8067 465.149 Q97.6354 468.69 101.246 468.69 Q104.881 468.69 106.686 465.149 Q108.515 461.584 108.515 454.477 Q108.515 447.348 106.686 443.806 Q104.881 440.241 101.246 440.241 M101.246 436.538 Q107.057 436.538 110.112 441.144 Q113.191 445.727 113.191 454.477 Q113.191 463.204 110.112 467.811 Q107.057 472.394 101.246 472.394 Q95.4363 472.394 92.3576 467.811 Q89.3021 463.204 89.3021 454.477 Q89.3021 445.727 92.3576 441.144 Q95.4363 436.538 101.246 436.538 Z" fill="#000000" fill-rule="nonzero" fill-opacity="1"></path><path clip-path="url(#clip260)" d="M96.8715 350.656 L113.191 350.656 L113.191 354.591 L91.2465 354.591 L91.2465 350.656 Q93.9086 347.901 98.4919 343.272 Q103.098 338.619 104.279 337.276 Q106.524 334.753 107.404 333.017 Q108.307 331.258 108.307 329.568 Q108.307 326.813 106.362 325.077 Q104.441 323.341 101.339 323.341 Q99.14 323.341 96.6863 324.105 Q94.2558 324.869 91.478 326.42 L91.478 321.698 Q94.3021 320.563 96.7558 319.985 Q99.2095 319.406 101.246 319.406 Q106.617 319.406 109.811 322.091 Q113.006 324.776 113.006 329.267 Q113.006 331.397 112.196 333.318 Q111.408 335.216 109.302 337.809 Q108.723 338.48 105.621 341.697 Q102.52 344.892 96.8715 350.656 Z" fill="#000000" fill-rule="nonzero" fill-opacity="1"></path><path clip-path="url(#clip260)" d="M103.608 206.973 L91.8021 225.422 L103.608 225.422 L103.608 206.973 M102.381 202.899 L108.26 202.899 L108.26 225.422 L113.191 225.422 L113.191 229.311 L108.26 229.311 L108.26 237.459 L103.608 237.459 L103.608 229.311 L88.0058 229.311 L88.0058 224.797 L102.381 202.899 Z" fill="#000000" fill-rule="nonzero" fill-opacity="1"></path><path clip-path="url(#clip260)" d="M940.877 12.096 L992.04 12.096 L992.04 18.9825 L970.57 18.9825 L970.57 72.576 L962.346 72.576 L962.346 18.9825 L940.877 18.9825 L940.877 12.096 Z" fill="#000000" fill-rule="nonzero" fill-opacity="1"></path><path clip-path="url(#clip260)" d="M1003.1 32.4315 Q997.103 32.4315 993.619 37.1306 Q990.136 41.7891 990.136 49.9314 Q990.136 58.0738 993.579 62.7728 Q997.063 67.4314 1003.1 67.4314 Q1009.05 67.4314 1012.54 62.7323 Q1016.02 58.0333 1016.02 49.9314 Q1016.02 41.8701 1012.54 37.1711 Q1009.05 32.4315 1003.1 32.4315 M1003.1 26.1121 Q1012.82 26.1121 1018.37 32.4315 Q1023.92 38.7509 1023.92 49.9314 Q1023.92 61.0714 1018.37 67.4314 Q1012.82 73.7508 1003.1 73.7508 Q993.336 73.7508 987.786 67.4314 Q982.277 61.0714 982.277 49.9314 Q982.277 38.7509 987.786 32.4315 Q993.336 26.1121 1003.1 26.1121 Z" fill="#000000" fill-rule="nonzero" fill-opacity="1"></path><path clip-path="url(#clip260)" d="M1062.57 34.1734 Q1061.31 33.4443 1059.81 33.1202 Q1058.35 32.7556 1056.57 32.7556 Q1050.25 32.7556 1046.85 36.8875 Q1043.49 40.9789 1043.49 48.6757 L1043.49 72.576 L1035.99 72.576 L1035.99 27.2059 L1043.49 27.2059 L1043.49 34.2544 Q1045.84 30.1225 1049.6 28.1376 Q1053.37 26.1121 1058.76 26.1121 Q1059.53 26.1121 1060.46 26.2337 Q1061.39 26.3147 1062.53 26.5172 L1062.57 34.1734 Z" fill="#000000" fill-rule="nonzero" fill-opacity="1"></path><path clip-path="url(#clip260)" d="M1073.38 49.9314 Q1073.38 58.1548 1076.74 62.8538 Q1080.15 67.5124 1086.06 67.5124 Q1091.98 67.5124 1095.38 62.8538 Q1098.78 58.1548 1098.78 49.9314 Q1098.78 41.7081 1095.38 37.0496 Q1091.98 32.3505 1086.06 32.3505 Q1080.15 32.3505 1076.74 37.0496 Q1073.38 41.7081 1073.38 49.9314 M1098.78 65.7705 Q1096.43 69.8214 1092.83 71.8063 Q1089.26 73.7508 1084.24 73.7508 Q1076.01 73.7508 1070.83 67.1883 Q1065.69 60.6258 1065.69 49.9314 Q1065.69 39.2371 1070.83 32.6746 Q1076.01 26.1121 1084.24 26.1121 Q1089.26 26.1121 1092.83 28.0971 Q1096.43 30.0415 1098.78 34.0924 L1098.78 27.2059 L1106.23 27.2059 L1106.23 89.8329 L1098.78 89.8329 L1098.78 65.7705 Z" fill="#000000" fill-rule="nonzero" fill-opacity="1"></path><path clip-path="url(#clip260)" d="M1120.82 54.671 L1120.82 27.2059 L1128.27 27.2059 L1128.27 54.3874 Q1128.27 60.8284 1130.78 64.0691 Q1133.29 67.2693 1138.32 67.2693 Q1144.35 67.2693 1147.84 63.421 Q1151.36 59.5726 1151.36 52.9291 L1151.36 27.2059 L1158.82 27.2059 L1158.82 72.576 L1151.36 72.576 L1151.36 65.6084 Q1148.65 69.7404 1145.04 71.7658 Q1141.48 73.7508 1136.74 73.7508 Q1128.92 73.7508 1124.87 68.8897 Q1120.82 64.0286 1120.82 54.671 M1139.57 26.1121 L1139.57 26.1121 Z" fill="#000000" fill-rule="nonzero" fill-opacity="1"></path><path clip-path="url(#clip260)" d="M1212.98 48.0275 L1212.98 51.6733 L1178.71 51.6733 Q1179.19 59.3701 1183.32 63.421 Q1187.5 67.4314 1194.91 67.4314 Q1199.2 67.4314 1203.21 66.3781 Q1207.26 65.3249 1211.23 63.2184 L1211.23 70.267 Q1207.22 71.9684 1203.01 72.8596 Q1198.8 73.7508 1194.46 73.7508 Q1183.61 73.7508 1177.25 67.4314 Q1170.93 61.1119 1170.93 50.3365 Q1170.93 39.1965 1176.92 32.6746 Q1182.96 26.1121 1193.17 26.1121 Q1202.32 26.1121 1207.63 32.0264 Q1212.98 37.9003 1212.98 48.0275 M1205.52 45.84 Q1205.44 39.7232 1202.08 36.0774 Q1198.76 32.4315 1193.25 32.4315 Q1187.01 32.4315 1183.24 35.9558 Q1179.52 39.4801 1178.95 45.8805 L1205.52 45.84 Z" fill="#000000" fill-rule="nonzero" fill-opacity="1"></path><path clip-path="url(#clip260)" d="M1246.23 27.2059 L1254.13 27.2059 L1268.31 65.2844 L1282.49 27.2059 L1290.39 27.2059 L1273.37 72.576 L1263.25 72.576 L1246.23 27.2059 Z" fill="#000000" fill-rule="nonzero" fill-opacity="1"></path><path clip-path="url(#clip260)" d="M1329.6 28.5427 L1329.6 35.5912 Q1326.44 33.9709 1323.04 33.1607 Q1319.64 32.3505 1315.99 32.3505 Q1310.44 32.3505 1307.65 34.0519 Q1304.89 35.7533 1304.89 39.156 Q1304.89 41.7486 1306.88 43.2475 Q1308.86 44.7058 1314.86 46.0426 L1317.41 46.6097 Q1325.35 48.3111 1328.67 51.4303 Q1332.03 54.509 1332.03 60.0587 Q1332.03 66.3781 1327.01 70.0644 Q1322.03 73.7508 1313.28 73.7508 Q1309.63 73.7508 1305.66 73.0216 Q1301.73 72.3329 1297.36 70.9151 L1297.36 63.2184 Q1301.49 65.3654 1305.5 66.4591 Q1309.51 67.5124 1313.44 67.5124 Q1318.7 67.5124 1321.54 65.73 Q1324.38 63.9071 1324.38 60.6258 Q1324.38 57.5877 1322.31 55.9673 Q1320.28 54.3469 1313.36 52.8481 L1310.76 52.2405 Q1303.84 50.7821 1300.76 47.7845 Q1297.68 44.7463 1297.68 39.4801 Q1297.68 33.0797 1302.22 29.5959 Q1306.75 26.1121 1315.1 26.1121 Q1319.23 26.1121 1322.88 26.7198 Q1326.52 27.3274 1329.6 28.5427 Z" fill="#000000" fill-rule="nonzero" fill-opacity="1"></path><path clip-path="url(#clip260)" d="M1362.21 12.096 L1413.37 12.096 L1413.37 18.9825 L1391.9 18.9825 L1391.9 72.576 L1383.68 72.576 L1383.68 18.9825 L1362.21 18.9825 L1362.21 12.096 Z" fill="#000000" fill-rule="nonzero" fill-opacity="1"></path><path clip-path="url(#clip260)" d="M1418.4 27.2059 L1425.85 27.2059 L1425.85 72.576 L1418.4 72.576 L1418.4 27.2059 M1418.4 9.54393 L1425.85 9.54393 L1425.85 18.9825 L1418.4 18.9825 L1418.4 9.54393 Z" fill="#000000" fill-rule="nonzero" fill-opacity="1"></path><path clip-path="url(#clip260)" d="M1476.77 35.9153 Q1479.57 30.8922 1483.45 28.5022 Q1487.34 26.1121 1492.61 26.1121 Q1499.7 26.1121 1503.55 31.0947 Q1507.4 36.0368 1507.4 45.1919 L1507.4 72.576 L1499.9 72.576 L1499.9 45.4349 Q1499.9 38.913 1497.59 35.7533 Q1495.28 32.5936 1490.54 32.5936 Q1484.75 32.5936 1481.39 36.4419 Q1478.03 40.2903 1478.03 46.9338 L1478.03 72.576 L1470.53 72.576 L1470.53 45.4349 Q1470.53 38.8725 1468.22 35.7533 Q1465.91 32.5936 1461.09 32.5936 Q1455.38 32.5936 1452.02 36.4824 Q1448.66 40.3308 1448.66 46.9338 L1448.66 72.576 L1441.16 72.576 L1441.16 27.2059 L1448.66 27.2059 L1448.66 34.2544 Q1451.21 30.082 1454.77 28.0971 Q1458.34 26.1121 1463.24 26.1121 Q1468.18 26.1121 1471.63 28.6237 Q1475.11 31.1352 1476.77 35.9153 Z" fill="#000000" fill-rule="nonzero" fill-opacity="1"></path><path clip-path="url(#clip260)" d="M1561.07 48.0275 L1561.07 51.6733 L1526.8 51.6733 Q1527.29 59.3701 1531.42 63.421 Q1535.59 67.4314 1543 67.4314 Q1547.3 67.4314 1551.31 66.3781 Q1555.36 65.3249 1559.33 63.2184 L1559.33 70.267 Q1555.32 71.9684 1551.1 72.8596 Q1546.89 73.7508 1542.56 73.7508 Q1531.7 73.7508 1525.34 67.4314 Q1519.02 61.1119 1519.02 50.3365 Q1519.02 39.1965 1525.02 32.6746 Q1531.05 26.1121 1541.26 26.1121 Q1550.42 26.1121 1555.72 32.0264 Q1561.07 37.9003 1561.07 48.0275 M1553.62 45.84 Q1553.54 39.7232 1550.17 36.0774 Q1546.85 32.4315 1541.34 32.4315 Q1535.1 32.4315 1531.34 35.9558 Q1527.61 39.4801 1527.04 45.8805 L1553.62 45.84 Z" fill="#000000" fill-rule="nonzero" fill-opacity="1"></path><polyline clip-path="url(#clip262)" style="stroke:#009af9; stroke-linecap:round; stroke-linejoin:round; stroke-width:4; stroke-opacity:1; fill:none" points="211.556,140.484 278.615,184.68 345.674,236.183 412.733,293.041 479.793,353.085 546.852,414.037 613.911,473.62 680.97,529.666 748.029,580.221 815.089,623.642 882.148,658.666 949.207,684.476 1016.27,700.725 1083.33,707.55 1150.38,705.548 1217.44,695.738 1284.5,679.494 1351.56,658.458 1418.62,634.45 1485.68,609.357 1552.74,585.028 1619.8,563.172 1686.86,545.262 1753.92,532.461 1820.98,525.558 1888.04,524.936 1955.09,530.556 2022.15,541.972 2089.21,558.365 2156.27,578.602 2223.33,601.305 2290.39,624.944 "></polyline>
<path clip-path="url(#clip260)" d="M1849.43 247.188 L2279.3 247.188 L2279.3 143.508 L1849.43 143.508  Z" fill="#ffffff" fill-rule="evenodd" fill-opacity="1"></path>
<polyline clip-path="url(#clip260)" style="stroke:#000000; stroke-linecap:round; stroke-linejoin:round; stroke-width:4; stroke-opacity:1; fill:none" points="1849.43,247.188 2279.3,247.188 2279.3,143.508 1849.43,143.508 1849.43,247.188 "></polyline>
<polyline clip-path="url(#clip260)" style="stroke:#009af9; stroke-linecap:round; stroke-linejoin:round; stroke-width:4; stroke-opacity:1; fill:none" points="1873.92,195.348 2020.82,195.348 "></polyline>
<path clip-path="url(#clip260)" d="M2045.31 178.068 L2074.54 178.068 L2074.54 182.004 L2062.27 182.004 L2062.27 212.628 L2057.58 212.628 L2057.58 182.004 L2045.31 182.004 L2045.31 178.068 Z" fill="#000000" fill-rule="nonzero" fill-opacity="1"></path><path clip-path="url(#clip260)" d="M2080.86 189.689 Q2077.44 189.689 2075.45 192.374 Q2073.45 195.036 2073.45 199.689 Q2073.45 204.341 2075.42 207.027 Q2077.41 209.689 2080.86 209.689 Q2084.27 209.689 2086.26 207.003 Q2088.25 204.318 2088.25 199.689 Q2088.25 195.082 2086.26 192.397 Q2084.27 189.689 2080.86 189.689 M2080.86 186.078 Q2086.42 186.078 2089.59 189.689 Q2092.76 193.3 2092.76 199.689 Q2092.76 206.054 2089.59 209.689 Q2086.42 213.3 2080.86 213.3 Q2075.28 213.3 2072.11 209.689 Q2068.96 206.054 2068.96 199.689 Q2068.96 193.3 2072.11 189.689 Q2075.28 186.078 2080.86 186.078 Z" fill="#000000" fill-rule="nonzero" fill-opacity="1"></path><path clip-path="url(#clip260)" d="M2114.84 190.684 Q2114.13 190.267 2113.27 190.082 Q2112.44 189.874 2111.42 189.874 Q2107.81 189.874 2105.86 192.235 Q2103.94 194.573 2103.94 198.971 L2103.94 212.628 L2099.66 212.628 L2099.66 186.703 L2103.94 186.703 L2103.94 190.73 Q2105.28 188.369 2107.44 187.235 Q2109.59 186.078 2112.67 186.078 Q2113.11 186.078 2113.64 186.147 Q2114.17 186.193 2114.82 186.309 L2114.84 190.684 Z" fill="#000000" fill-rule="nonzero" fill-opacity="1"></path><path clip-path="url(#clip260)" d="M2121.02 199.689 Q2121.02 204.388 2122.95 207.073 Q2124.89 209.735 2128.27 209.735 Q2131.65 209.735 2133.59 207.073 Q2135.54 204.388 2135.54 199.689 Q2135.54 194.99 2133.59 192.328 Q2131.65 189.642 2128.27 189.642 Q2124.89 189.642 2122.95 192.328 Q2121.02 194.99 2121.02 199.689 M2135.54 208.74 Q2134.2 211.054 2132.14 212.189 Q2130.1 213.3 2127.23 213.3 Q2122.53 213.3 2119.57 209.55 Q2116.63 205.8 2116.63 199.689 Q2116.63 193.578 2119.57 189.828 Q2122.53 186.078 2127.23 186.078 Q2130.1 186.078 2132.14 187.212 Q2134.2 188.323 2135.54 190.638 L2135.54 186.703 L2139.8 186.703 L2139.8 222.49 L2135.54 222.49 L2135.54 208.74 Z" fill="#000000" fill-rule="nonzero" fill-opacity="1"></path><path clip-path="url(#clip260)" d="M2148.13 202.397 L2148.13 186.703 L2152.39 186.703 L2152.39 202.235 Q2152.39 205.916 2153.82 207.767 Q2155.26 209.596 2158.13 209.596 Q2161.58 209.596 2163.57 207.397 Q2165.58 205.198 2165.58 201.402 L2165.58 186.703 L2169.84 186.703 L2169.84 212.628 L2165.58 212.628 L2165.58 208.647 Q2164.03 211.008 2161.97 212.165 Q2159.94 213.3 2157.23 213.3 Q2152.76 213.3 2150.45 210.522 Q2148.13 207.744 2148.13 202.397 M2158.85 186.078 L2158.85 186.078 Z" fill="#000000" fill-rule="nonzero" fill-opacity="1"></path><path clip-path="url(#clip260)" d="M2200.79 198.601 L2200.79 200.684 L2181.21 200.684 Q2181.49 205.082 2183.85 207.397 Q2186.23 209.689 2190.47 209.689 Q2192.92 209.689 2195.21 209.087 Q2197.53 208.485 2199.8 207.281 L2199.8 211.309 Q2197.51 212.281 2195.1 212.79 Q2192.69 213.3 2190.21 213.3 Q2184.01 213.3 2180.38 209.689 Q2176.76 206.078 2176.76 199.92 Q2176.76 193.554 2180.19 189.828 Q2183.64 186.078 2189.47 186.078 Q2194.7 186.078 2197.74 189.457 Q2200.79 192.814 2200.79 198.601 M2196.53 197.351 Q2196.49 193.855 2194.57 191.772 Q2192.67 189.689 2189.52 189.689 Q2185.95 189.689 2183.8 191.703 Q2181.67 193.717 2181.35 197.374 L2196.53 197.351 Z" fill="#000000" fill-rule="nonzero" fill-opacity="1"></path><path clip-path="url(#clip260)" d="M2218.01 176.656 Q2214.91 181.98 2213.41 187.189 Q2211.9 192.397 2211.9 197.744 Q2211.9 203.091 2213.41 208.346 Q2214.94 213.578 2218.01 218.878 L2214.31 218.878 Q2210.84 213.439 2209.1 208.184 Q2207.39 202.929 2207.39 197.744 Q2207.39 192.582 2209.1 187.351 Q2210.82 182.119 2214.31 176.656 L2218.01 176.656 Z" fill="#000000" fill-rule="nonzero" fill-opacity="1"></path><path clip-path="url(#clip260)" d="M2230.49 179.342 L2230.49 186.703 L2239.26 186.703 L2239.26 190.013 L2230.49 190.013 L2230.49 204.087 Q2230.49 207.258 2231.35 208.161 Q2232.23 209.064 2234.89 209.064 L2239.26 209.064 L2239.26 212.628 L2234.89 212.628 Q2229.96 212.628 2228.08 210.8 Q2226.21 208.948 2226.21 204.087 L2226.21 190.013 L2223.08 190.013 L2223.08 186.703 L2226.21 186.703 L2226.21 179.342 L2230.49 179.342 Z" fill="#000000" fill-rule="nonzero" fill-opacity="1"></path><path clip-path="url(#clip260)" d="M2244.19 176.656 L2247.9 176.656 Q2251.37 182.119 2253.08 187.351 Q2254.82 192.582 2254.82 197.744 Q2254.82 202.929 2253.08 208.184 Q2251.37 213.439 2247.9 218.878 L2244.19 218.878 Q2247.27 213.578 2248.78 208.346 Q2250.31 203.091 2250.31 197.744 Q2250.31 192.397 2248.78 187.189 Q2247.27 181.98 2244.19 176.656 Z" fill="#000000" fill-rule="nonzero" fill-opacity="1"></path><path clip-path="url(#clip260)" d="M149.191 1486.45 L2352.76 1486.45 L2352.76 885.358 L149.191 885.358  Z" fill="#ffffff" fill-rule="evenodd" fill-opacity="1"></path>
<defs>
  <clipPath id="clip263">
    <rect x="149" y="885" width="2205" height="602"></rect>
  </clipPath>
</defs>
<polyline clip-path="url(#clip263)" style="stroke:#000000; stroke-linecap:round; stroke-linejoin:round; stroke-width:2; stroke-opacity:0.1; fill:none" points="211.556,1486.45 211.556,885.358 "></polyline>
<polyline clip-path="url(#clip263)" style="stroke:#000000; stroke-linecap:round; stroke-linejoin:round; stroke-width:2; stroke-opacity:0.1; fill:none" points="731.265,1486.45 731.265,885.358 "></polyline>
<polyline clip-path="url(#clip263)" style="stroke:#000000; stroke-linecap:round; stroke-linejoin:round; stroke-width:2; stroke-opacity:0.1; fill:none" points="1250.97,1486.45 1250.97,885.358 "></polyline>
<polyline clip-path="url(#clip263)" style="stroke:#000000; stroke-linecap:round; stroke-linejoin:round; stroke-width:2; stroke-opacity:0.1; fill:none" points="1770.68,1486.45 1770.68,885.358 "></polyline>
<polyline clip-path="url(#clip263)" style="stroke:#000000; stroke-linecap:round; stroke-linejoin:round; stroke-width:2; stroke-opacity:0.1; fill:none" points="2290.39,1486.45 2290.39,885.358 "></polyline>
<polyline clip-path="url(#clip260)" style="stroke:#000000; stroke-linecap:round; stroke-linejoin:round; stroke-width:4; stroke-opacity:1; fill:none" points="149.191,1486.45 2352.76,1486.45 "></polyline>
<polyline clip-path="url(#clip260)" style="stroke:#000000; stroke-linecap:round; stroke-linejoin:round; stroke-width:4; stroke-opacity:1; fill:none" points="211.556,1486.45 211.556,1467.55 "></polyline>
<polyline clip-path="url(#clip260)" style="stroke:#000000; stroke-linecap:round; stroke-linejoin:round; stroke-width:4; stroke-opacity:1; fill:none" points="731.265,1486.45 731.265,1467.55 "></polyline>
<polyline clip-path="url(#clip260)" style="stroke:#000000; stroke-linecap:round; stroke-linejoin:round; stroke-width:4; stroke-opacity:1; fill:none" points="1250.97,1486.45 1250.97,1467.55 "></polyline>
<polyline clip-path="url(#clip260)" style="stroke:#000000; stroke-linecap:round; stroke-linejoin:round; stroke-width:4; stroke-opacity:1; fill:none" points="1770.68,1486.45 1770.68,1467.55 "></polyline>
<polyline clip-path="url(#clip260)" style="stroke:#000000; stroke-linecap:round; stroke-linejoin:round; stroke-width:4; stroke-opacity:1; fill:none" points="2290.39,1486.45 2290.39,1467.55 "></polyline>
<path clip-path="url(#clip260)" d="M173.859 1517.37 Q170.248 1517.37 168.42 1520.93 Q166.614 1524.47 166.614 1531.6 Q166.614 1538.71 168.42 1542.27 Q170.248 1545.82 173.859 1545.82 Q177.494 1545.82 179.299 1542.27 Q181.128 1538.71 181.128 1531.6 Q181.128 1524.47 179.299 1520.93 Q177.494 1517.37 173.859 1517.37 M173.859 1513.66 Q179.67 1513.66 182.725 1518.27 Q185.804 1522.85 185.804 1531.6 Q185.804 1540.33 182.725 1544.94 Q179.67 1549.52 173.859 1549.52 Q168.049 1549.52 164.971 1544.94 Q161.915 1540.33 161.915 1531.6 Q161.915 1522.85 164.971 1518.27 Q168.049 1513.66 173.859 1513.66 Z" fill="#000000" fill-rule="nonzero" fill-opacity="1"></path><path clip-path="url(#clip260)" d="M194.021 1542.97 L198.906 1542.97 L198.906 1548.85 L194.021 1548.85 L194.021 1542.97 Z" fill="#000000" fill-rule="nonzero" fill-opacity="1"></path><path clip-path="url(#clip260)" d="M219.091 1517.37 Q215.48 1517.37 213.651 1520.93 Q211.845 1524.47 211.845 1531.6 Q211.845 1538.71 213.651 1542.27 Q215.48 1545.82 219.091 1545.82 Q222.725 1545.82 224.53 1542.27 Q226.359 1538.71 226.359 1531.6 Q226.359 1524.47 224.53 1520.93 Q222.725 1517.37 219.091 1517.37 M219.091 1513.66 Q224.901 1513.66 227.956 1518.27 Q231.035 1522.85 231.035 1531.6 Q231.035 1540.33 227.956 1544.94 Q224.901 1549.52 219.091 1549.52 Q213.28 1549.52 210.202 1544.94 Q207.146 1540.33 207.146 1531.6 Q207.146 1522.85 210.202 1518.27 Q213.28 1513.66 219.091 1513.66 Z" fill="#000000" fill-rule="nonzero" fill-opacity="1"></path><path clip-path="url(#clip260)" d="M249.252 1517.37 Q245.641 1517.37 243.813 1520.93 Q242.007 1524.47 242.007 1531.6 Q242.007 1538.71 243.813 1542.27 Q245.641 1545.82 249.252 1545.82 Q252.887 1545.82 254.692 1542.27 Q256.521 1538.71 256.521 1531.6 Q256.521 1524.47 254.692 1520.93 Q252.887 1517.37 249.252 1517.37 M249.252 1513.66 Q255.063 1513.66 258.118 1518.27 Q261.197 1522.85 261.197 1531.6 Q261.197 1540.33 258.118 1544.94 Q255.063 1549.52 249.252 1549.52 Q243.442 1549.52 240.364 1544.94 Q237.308 1540.33 237.308 1531.6 Q237.308 1522.85 240.364 1518.27 Q243.442 1513.66 249.252 1513.66 Z" fill="#000000" fill-rule="nonzero" fill-opacity="1"></path><path clip-path="url(#clip260)" d="M694.066 1517.37 Q690.455 1517.37 688.626 1520.93 Q686.82 1524.47 686.82 1531.6 Q686.82 1538.71 688.626 1542.27 Q690.455 1545.82 694.066 1545.82 Q697.7 1545.82 699.506 1542.27 Q701.334 1538.71 701.334 1531.6 Q701.334 1524.47 699.506 1520.93 Q697.7 1517.37 694.066 1517.37 M694.066 1513.66 Q699.876 1513.66 702.931 1518.27 Q706.01 1522.85 706.01 1531.6 Q706.01 1540.33 702.931 1544.94 Q699.876 1549.52 694.066 1549.52 Q688.256 1549.52 685.177 1544.94 Q682.121 1540.33 682.121 1531.6 Q682.121 1522.85 685.177 1518.27 Q688.256 1513.66 694.066 1513.66 Z" fill="#000000" fill-rule="nonzero" fill-opacity="1"></path><path clip-path="url(#clip260)" d="M714.228 1542.97 L719.112 1542.97 L719.112 1548.85 L714.228 1548.85 L714.228 1542.97 Z" fill="#000000" fill-rule="nonzero" fill-opacity="1"></path><path clip-path="url(#clip260)" d="M733.325 1544.91 L749.644 1544.91 L749.644 1548.85 L727.7 1548.85 L727.7 1544.91 Q730.362 1542.16 734.945 1537.53 Q739.552 1532.88 740.732 1531.53 Q742.978 1529.01 743.857 1527.27 Q744.76 1525.51 744.76 1523.82 Q744.76 1521.07 742.816 1519.33 Q740.894 1517.6 737.792 1517.6 Q735.593 1517.6 733.14 1518.36 Q730.709 1519.13 727.931 1520.68 L727.931 1515.95 Q730.755 1514.82 733.209 1514.24 Q735.663 1513.66 737.7 1513.66 Q743.07 1513.66 746.265 1516.35 Q749.459 1519.03 749.459 1523.52 Q749.459 1525.65 748.649 1527.57 Q747.862 1529.47 745.755 1532.07 Q745.177 1532.74 742.075 1535.95 Q738.973 1539.15 733.325 1544.91 Z" fill="#000000" fill-rule="nonzero" fill-opacity="1"></path><path clip-path="url(#clip260)" d="M759.505 1514.29 L777.862 1514.29 L777.862 1518.22 L763.788 1518.22 L763.788 1526.7 Q764.806 1526.35 765.825 1526.19 Q766.843 1526 767.862 1526 Q773.649 1526 777.028 1529.17 Q780.408 1532.34 780.408 1537.76 Q780.408 1543.34 776.936 1546.44 Q773.463 1549.52 767.144 1549.52 Q764.968 1549.52 762.7 1549.15 Q760.454 1548.78 758.047 1548.04 L758.047 1543.34 Q760.13 1544.47 762.352 1545.03 Q764.575 1545.58 767.051 1545.58 Q771.056 1545.58 773.394 1543.48 Q775.732 1541.37 775.732 1537.76 Q775.732 1534.15 773.394 1532.04 Q771.056 1529.94 767.051 1529.94 Q765.177 1529.94 763.302 1530.35 Q761.45 1530.77 759.505 1531.65 L759.505 1514.29 Z" fill="#000000" fill-rule="nonzero" fill-opacity="1"></path><path clip-path="url(#clip260)" d="M1213.28 1517.37 Q1209.67 1517.37 1207.84 1520.93 Q1206.03 1524.47 1206.03 1531.6 Q1206.03 1538.71 1207.84 1542.27 Q1209.67 1545.82 1213.28 1545.82 Q1216.91 1545.82 1218.72 1542.27 Q1220.55 1538.71 1220.55 1531.6 Q1220.55 1524.47 1218.72 1520.93 Q1216.91 1517.37 1213.28 1517.37 M1213.28 1513.66 Q1219.09 1513.66 1222.14 1518.27 Q1225.22 1522.85 1225.22 1531.6 Q1225.22 1540.33 1222.14 1544.94 Q1219.09 1549.52 1213.28 1549.52 Q1207.47 1549.52 1204.39 1544.94 Q1201.33 1540.33 1201.33 1531.6 Q1201.33 1522.85 1204.39 1518.27 Q1207.47 1513.66 1213.28 1513.66 Z" fill="#000000" fill-rule="nonzero" fill-opacity="1"></path><path clip-path="url(#clip260)" d="M1233.44 1542.97 L1238.32 1542.97 L1238.32 1548.85 L1233.44 1548.85 L1233.44 1542.97 Z" fill="#000000" fill-rule="nonzero" fill-opacity="1"></path><path clip-path="url(#clip260)" d="M1248.55 1514.29 L1266.91 1514.29 L1266.91 1518.22 L1252.84 1518.22 L1252.84 1526.7 Q1253.86 1526.35 1254.87 1526.19 Q1255.89 1526 1256.91 1526 Q1262.7 1526 1266.08 1529.17 Q1269.46 1532.34 1269.46 1537.76 Q1269.46 1543.34 1265.98 1546.44 Q1262.51 1549.52 1256.19 1549.52 Q1254.02 1549.52 1251.75 1549.15 Q1249.5 1548.78 1247.1 1548.04 L1247.1 1543.34 Q1249.18 1544.47 1251.4 1545.03 Q1253.62 1545.58 1256.1 1545.58 Q1260.11 1545.58 1262.44 1543.48 Q1264.78 1541.37 1264.78 1537.76 Q1264.78 1534.15 1262.44 1532.04 Q1260.11 1529.94 1256.1 1529.94 Q1254.23 1529.94 1252.35 1530.35 Q1250.5 1530.77 1248.55 1531.65 L1248.55 1514.29 Z" fill="#000000" fill-rule="nonzero" fill-opacity="1"></path><path clip-path="url(#clip260)" d="M1288.67 1517.37 Q1285.06 1517.37 1283.23 1520.93 Q1281.42 1524.47 1281.42 1531.6 Q1281.42 1538.71 1283.23 1542.27 Q1285.06 1545.82 1288.67 1545.82 Q1292.3 1545.82 1294.11 1542.27 Q1295.94 1538.71 1295.94 1531.6 Q1295.94 1524.47 1294.11 1520.93 Q1292.3 1517.37 1288.67 1517.37 M1288.67 1513.66 Q1294.48 1513.66 1297.54 1518.27 Q1300.61 1522.85 1300.61 1531.6 Q1300.61 1540.33 1297.54 1544.94 Q1294.48 1549.52 1288.67 1549.52 Q1282.86 1549.52 1279.78 1544.94 Q1276.73 1540.33 1276.73 1531.6 Q1276.73 1522.85 1279.78 1518.27 Q1282.86 1513.66 1288.67 1513.66 Z" fill="#000000" fill-rule="nonzero" fill-opacity="1"></path><path clip-path="url(#clip260)" d="M1733.48 1517.37 Q1729.87 1517.37 1728.04 1520.93 Q1726.24 1524.47 1726.24 1531.6 Q1726.24 1538.71 1728.04 1542.27 Q1729.87 1545.82 1733.48 1545.82 Q1737.12 1545.82 1738.92 1542.27 Q1740.75 1538.71 1740.75 1531.6 Q1740.75 1524.47 1738.92 1520.93 Q1737.12 1517.37 1733.48 1517.37 M1733.48 1513.66 Q1739.29 1513.66 1742.35 1518.27 Q1745.43 1522.85 1745.43 1531.6 Q1745.43 1540.33 1742.35 1544.94 Q1739.29 1549.52 1733.48 1549.52 Q1727.67 1549.52 1724.59 1544.94 Q1721.54 1540.33 1721.54 1531.6 Q1721.54 1522.85 1724.59 1518.27 Q1727.67 1513.66 1733.48 1513.66 Z" fill="#000000" fill-rule="nonzero" fill-opacity="1"></path><path clip-path="url(#clip260)" d="M1753.65 1542.97 L1758.53 1542.97 L1758.53 1548.85 L1753.65 1548.85 L1753.65 1542.97 Z" fill="#000000" fill-rule="nonzero" fill-opacity="1"></path><path clip-path="url(#clip260)" d="M1767.53 1514.29 L1789.76 1514.29 L1789.76 1516.28 L1777.21 1548.85 L1772.33 1548.85 L1784.13 1518.22 L1767.53 1518.22 L1767.53 1514.29 Z" fill="#000000" fill-rule="nonzero" fill-opacity="1"></path><path clip-path="url(#clip260)" d="M1798.92 1514.29 L1817.28 1514.29 L1817.28 1518.22 L1803.21 1518.22 L1803.21 1526.7 Q1804.22 1526.35 1805.24 1526.19 Q1806.26 1526 1807.28 1526 Q1813.07 1526 1816.45 1529.17 Q1819.83 1532.34 1819.83 1537.76 Q1819.83 1543.34 1816.35 1546.44 Q1812.88 1549.52 1806.56 1549.52 Q1804.39 1549.52 1802.12 1549.15 Q1799.87 1548.78 1797.46 1548.04 L1797.46 1543.34 Q1799.55 1544.47 1801.77 1545.03 Q1803.99 1545.58 1806.47 1545.58 Q1810.47 1545.58 1812.81 1543.48 Q1815.15 1541.37 1815.15 1537.76 Q1815.15 1534.15 1812.81 1532.04 Q1810.47 1529.94 1806.47 1529.94 Q1804.59 1529.94 1802.72 1530.35 Q1800.87 1530.77 1798.92 1531.65 L1798.92 1514.29 Z" fill="#000000" fill-rule="nonzero" fill-opacity="1"></path><path clip-path="url(#clip260)" d="M2242.46 1544.91 L2250.1 1544.91 L2250.1 1518.55 L2241.79 1520.21 L2241.79 1515.95 L2250.06 1514.29 L2254.73 1514.29 L2254.73 1544.91 L2262.37 1544.91 L2262.37 1548.85 L2242.46 1548.85 L2242.46 1544.91 Z" fill="#000000" fill-rule="nonzero" fill-opacity="1"></path><path clip-path="url(#clip260)" d="M2271.81 1542.97 L2276.7 1542.97 L2276.7 1548.85 L2271.81 1548.85 L2271.81 1542.97 Z" fill="#000000" fill-rule="nonzero" fill-opacity="1"></path><path clip-path="url(#clip260)" d="M2296.88 1517.37 Q2293.27 1517.37 2291.44 1520.93 Q2289.64 1524.47 2289.64 1531.6 Q2289.64 1538.71 2291.44 1542.27 Q2293.27 1545.82 2296.88 1545.82 Q2300.52 1545.82 2302.32 1542.27 Q2304.15 1538.71 2304.15 1531.6 Q2304.15 1524.47 2302.32 1520.93 Q2300.52 1517.37 2296.88 1517.37 M2296.88 1513.66 Q2302.69 1513.66 2305.75 1518.27 Q2308.83 1522.85 2308.83 1531.6 Q2308.83 1540.33 2305.75 1544.94 Q2302.69 1549.52 2296.88 1549.52 Q2291.07 1549.52 2288 1544.94 Q2284.94 1540.33 2284.94 1531.6 Q2284.94 1522.85 2288 1518.27 Q2291.07 1513.66 2296.88 1513.66 Z" fill="#000000" fill-rule="nonzero" fill-opacity="1"></path><path clip-path="url(#clip260)" d="M2327.05 1517.37 Q2323.43 1517.37 2321.61 1520.93 Q2319.8 1524.47 2319.8 1531.6 Q2319.8 1538.71 2321.61 1542.27 Q2323.43 1545.82 2327.05 1545.82 Q2330.68 1545.82 2332.49 1542.27 Q2334.31 1538.71 2334.31 1531.6 Q2334.31 1524.47 2332.49 1520.93 Q2330.68 1517.37 2327.05 1517.37 M2327.05 1513.66 Q2332.86 1513.66 2335.91 1518.27 Q2338.99 1522.85 2338.99 1531.6 Q2338.99 1540.33 2335.91 1544.94 Q2332.86 1549.52 2327.05 1549.52 Q2321.24 1549.52 2318.16 1544.94 Q2315.1 1540.33 2315.1 1531.6 Q2315.1 1522.85 2318.16 1518.27 Q2321.24 1513.66 2327.05 1513.66 Z" fill="#000000" fill-rule="nonzero" fill-opacity="1"></path><polyline clip-path="url(#clip263)" style="stroke:#000000; stroke-linecap:round; stroke-linejoin:round; stroke-width:2; stroke-opacity:0.1; fill:none" points="149.191,1484.76 2352.76,1484.76 "></polyline>
<polyline clip-path="url(#clip263)" style="stroke:#000000; stroke-linecap:round; stroke-linejoin:round; stroke-width:2; stroke-opacity:0.1; fill:none" points="149.191,1372.08 2352.76,1372.08 "></polyline>
<polyline clip-path="url(#clip263)" style="stroke:#000000; stroke-linecap:round; stroke-linejoin:round; stroke-width:2; stroke-opacity:0.1; fill:none" points="149.191,1259.41 2352.76,1259.41 "></polyline>
<polyline clip-path="url(#clip263)" style="stroke:#000000; stroke-linecap:round; stroke-linejoin:round; stroke-width:2; stroke-opacity:0.1; fill:none" points="149.191,1146.73 2352.76,1146.73 "></polyline>
<polyline clip-path="url(#clip263)" style="stroke:#000000; stroke-linecap:round; stroke-linejoin:round; stroke-width:2; stroke-opacity:0.1; fill:none" points="149.191,1034.05 2352.76,1034.05 "></polyline>
<polyline clip-path="url(#clip263)" style="stroke:#000000; stroke-linecap:round; stroke-linejoin:round; stroke-width:2; stroke-opacity:0.1; fill:none" points="149.191,921.366 2352.76,921.366 "></polyline>
<polyline clip-path="url(#clip260)" style="stroke:#000000; stroke-linecap:round; stroke-linejoin:round; stroke-width:4; stroke-opacity:1; fill:none" points="149.191,1486.45 149.191,885.358 "></polyline>
<polyline clip-path="url(#clip260)" style="stroke:#000000; stroke-linecap:round; stroke-linejoin:round; stroke-width:4; stroke-opacity:1; fill:none" points="149.191,1484.76 168.089,1484.76 "></polyline>
<polyline clip-path="url(#clip260)" style="stroke:#000000; stroke-linecap:round; stroke-linejoin:round; stroke-width:4; stroke-opacity:1; fill:none" points="149.191,1372.08 168.089,1372.08 "></polyline>
<polyline clip-path="url(#clip260)" style="stroke:#000000; stroke-linecap:round; stroke-linejoin:round; stroke-width:4; stroke-opacity:1; fill:none" points="149.191,1259.41 168.089,1259.41 "></polyline>
<polyline clip-path="url(#clip260)" style="stroke:#000000; stroke-linecap:round; stroke-linejoin:round; stroke-width:4; stroke-opacity:1; fill:none" points="149.191,1146.73 168.089,1146.73 "></polyline>
<polyline clip-path="url(#clip260)" style="stroke:#000000; stroke-linecap:round; stroke-linejoin:round; stroke-width:4; stroke-opacity:1; fill:none" points="149.191,1034.05 168.089,1034.05 "></polyline>
<polyline clip-path="url(#clip260)" style="stroke:#000000; stroke-linecap:round; stroke-linejoin:round; stroke-width:4; stroke-opacity:1; fill:none" points="149.191,921.366 168.089,921.366 "></polyline>
<path clip-path="url(#clip260)" d="M50.9921 1485.22 L80.6679 1485.22 L80.6679 1489.15 L50.9921 1489.15 L50.9921 1485.22 Z" fill="#000000" fill-rule="nonzero" fill-opacity="1"></path><path clip-path="url(#clip260)" d="M103.608 1471.56 L91.8021 1490.01 L103.608 1490.01 L103.608 1471.56 M102.381 1467.48 L108.26 1467.48 L108.26 1490.01 L113.191 1490.01 L113.191 1493.9 L108.26 1493.9 L108.26 1502.04 L103.608 1502.04 L103.608 1493.9 L88.0058 1493.9 L88.0058 1489.38 L102.381 1467.48 Z" fill="#000000" fill-rule="nonzero" fill-opacity="1"></path><path clip-path="url(#clip260)" d="M52.1264 1372.54 L81.8021 1372.54 L81.8021 1376.47 L52.1264 1376.47 L52.1264 1372.54 Z" fill="#000000" fill-rule="nonzero" fill-opacity="1"></path><path clip-path="url(#clip260)" d="M106.061 1370.73 Q109.418 1371.45 111.293 1373.72 Q113.191 1375.99 113.191 1379.32 Q113.191 1384.43 109.672 1387.24 Q106.154 1390.04 99.6724 1390.04 Q97.4965 1390.04 95.1817 1389.6 Q92.89 1389.18 90.4364 1388.32 L90.4364 1383.81 Q92.3808 1384.94 94.6956 1385.52 Q97.0104 1386.1 99.5335 1386.1 Q103.932 1386.1 106.223 1384.36 Q108.538 1382.63 108.538 1379.32 Q108.538 1376.26 106.385 1374.55 Q104.256 1372.81 100.436 1372.81 L96.4085 1372.81 L96.4085 1368.97 L100.621 1368.97 Q104.071 1368.97 105.899 1367.61 Q107.728 1366.22 107.728 1363.62 Q107.728 1360.96 105.83 1359.55 Q103.955 1358.11 100.436 1358.11 Q98.515 1358.11 96.316 1358.53 Q94.1169 1358.95 91.478 1359.83 L91.478 1355.66 Q94.14 1354.92 96.4548 1354.55 Q98.7928 1354.18 100.853 1354.18 Q106.177 1354.18 109.279 1356.61 Q112.381 1359.02 112.381 1363.14 Q112.381 1366.01 110.737 1368 Q109.094 1369.97 106.061 1370.73 Z" fill="#000000" fill-rule="nonzero" fill-opacity="1"></path><path clip-path="url(#clip260)" d="M53.0754 1259.86 L82.7512 1259.86 L82.7512 1263.79 L53.0754 1263.79 L53.0754 1259.86 Z" fill="#000000" fill-rule="nonzero" fill-opacity="1"></path><path clip-path="url(#clip260)" d="M96.8715 1272.75 L113.191 1272.75 L113.191 1276.69 L91.2465 1276.69 L91.2465 1272.75 Q93.9086 1270 98.4919 1265.37 Q103.098 1260.71 104.279 1259.37 Q106.524 1256.85 107.404 1255.11 Q108.307 1253.35 108.307 1251.66 Q108.307 1248.91 106.362 1247.17 Q104.441 1245.44 101.339 1245.44 Q99.14 1245.44 96.6863 1246.2 Q94.2558 1246.96 91.478 1248.51 L91.478 1243.79 Q94.3021 1242.66 96.7558 1242.08 Q99.2095 1241.5 101.246 1241.5 Q106.617 1241.5 109.811 1244.19 Q113.006 1246.87 113.006 1251.36 Q113.006 1253.49 112.196 1255.41 Q111.408 1257.31 109.302 1259.9 Q108.723 1260.57 105.621 1263.79 Q102.52 1266.99 96.8715 1272.75 Z" fill="#000000" fill-rule="nonzero" fill-opacity="1"></path><path clip-path="url(#clip260)" d="M52.7051 1147.18 L82.3808 1147.18 L82.3808 1151.11 L52.7051 1151.11 L52.7051 1147.18 Z" fill="#000000" fill-rule="nonzero" fill-opacity="1"></path><path clip-path="url(#clip260)" d="M93.2836 1160.07 L100.922 1160.07 L100.922 1133.7 L92.6123 1135.37 L92.6123 1131.11 L100.876 1129.45 L105.552 1129.45 L105.552 1160.07 L113.191 1160.07 L113.191 1164.01 L93.2836 1164.01 L93.2836 1160.07 Z" fill="#000000" fill-rule="nonzero" fill-opacity="1"></path><path clip-path="url(#clip260)" d="M101.246 1019.84 Q97.6354 1019.84 95.8067 1023.41 Q94.0012 1026.95 94.0012 1034.08 Q94.0012 1041.19 95.8067 1044.75 Q97.6354 1048.29 101.246 1048.29 Q104.881 1048.29 106.686 1044.75 Q108.515 1041.19 108.515 1034.08 Q108.515 1026.95 106.686 1023.41 Q104.881 1019.84 101.246 1019.84 M101.246 1016.14 Q107.057 1016.14 110.112 1020.75 Q113.191 1025.33 113.191 1034.08 Q113.191 1042.81 110.112 1047.41 Q107.057 1052 101.246 1052 Q95.4363 1052 92.3576 1047.41 Q89.3021 1042.81 89.3021 1034.08 Q89.3021 1025.33 92.3576 1020.75 Q95.4363 1016.14 101.246 1016.14 Z" fill="#000000" fill-rule="nonzero" fill-opacity="1"></path><path clip-path="url(#clip260)" d="M93.2836 934.711 L100.922 934.711 L100.922 908.345 L92.6123 910.012 L92.6123 905.753 L100.876 904.086 L105.552 904.086 L105.552 934.711 L113.191 934.711 L113.191 938.646 L93.2836 938.646 L93.2836 934.711 Z" fill="#000000" fill-rule="nonzero" fill-opacity="1"></path><polyline clip-path="url(#clip263)" style="stroke:#000000; stroke-linecap:round; stroke-linejoin:round; stroke-width:4; stroke-opacity:1; fill:none" points="211.556,902.667 278.615,906.311 345.674,910.394 412.733,914.994 479.793,920.193 546.852,926.072 613.911,932.709 680.97,940.169 748.029,948.501 815.089,957.732 882.148,967.863 949.207,978.867 1016.27,990.685 1083.33,1003.23 1150.38,1016.38 1217.44,1029.99 1284.5,1043.91 1351.56,1057.95 1418.62,1071.93 1485.68,1085.66 1552.74,1098.99 1619.8,1111.74 1686.86,1123.77 1753.92,1134.98 1820.98,1145.28 1888.04,1154.61 1955.09,1162.93 2022.15,1170.23 2089.21,1176.52 2156.27,1181.84 2223.33,1186.21 2290.39,1189.7 "></polyline>
<polyline clip-path="url(#clip263)" style="stroke:#ff0000; stroke-linecap:round; stroke-linejoin:round; stroke-width:4; stroke-opacity:1; fill:none" points="211.556,1140.91 278.615,1153.45 345.674,1168.23 412.733,1185.49 479.793,1205.34 546.852,1227.68 613.911,1252.25 680.97,1278.62 748.029,1306.19 815.089,1334.23 882.148,1361.86 949.207,1388.16 1016.27,1412.18 1083.33,1432.99 1150.38,1449.72 1217.44,1461.66 1284.5,1468.28 1351.56,1469.28 1418.62,1464.58 1485.68,1454.33 1552.74,1438.91 1619.8,1418.87 1686.86,1394.91 1753.92,1367.83 1820.98,1338.49 1888.04,1307.68 1955.09,1276.17 2022.15,1244.68 2089.21,1213.79 2156.27,1183.99 2223.33,1155.59 2290.39,1128.82 "></polyline>
<polyline clip-path="url(#clip263)" style="stroke:#0000ff; stroke-linecap:round; stroke-linejoin:round; stroke-width:4; stroke-opacity:1; fill:none" points="211.556,903.068 278.615,906.364 345.674,910.162 412.733,914.523 479.793,919.513 546.852,925.201 613.911,931.659 680.97,938.959 748.029,947.16 815.089,956.305 882.148,966.411 949.207,977.463 1016.27,989.409 1083.33,1002.16 1150.38,1015.57 1217.44,1029.48 1284.5,1043.68 1351.56,1057.96 1418.62,1072.09 1485.68,1085.89 1552.74,1099.16 1619.8,1111.77 1686.86,1123.61 1753.92,1134.6 1820.98,1144.71 1888.04,1153.95 1955.09,1162.36 2022.15,1169.99 2089.21,1176.91 2156.27,1183.18 2223.33,1188.83 2290.39,1193.91 "></polyline>
<polyline clip-path="url(#clip263)" style="stroke:#ffa500; stroke-linecap:round; stroke-linejoin:round; stroke-width:4; stroke-opacity:1; fill:none" points="211.556,1136.35 278.615,1151.39 345.674,1168.59 412.733,1186.98 479.793,1207.08 546.852,1229.24 613.911,1253.18 680.97,1278.63 748.029,1305.44 815.089,1333.31 882.148,1361.44 949.207,1388.14 1016.27,1411.44 1083.33,1430.51 1150.38,1445.94 1217.44,1458.32 1284.5,1466.71 1351.56,1469.23 1418.62,1464.87 1485.68,1454.29 1552.74,1438.98 1619.8,1419.88 1686.86,1396.99 1753.92,1370.29 1820.98,1340.67 1888.04,1309.74 1955.09,1278.93 2022.15,1248.36 2089.21,1216.45 2156.27,1182.22 2223.33,1148.97 2290.39,1122.76 "></polyline>
<circle clip-path="url(#clip263)" cx="211.556" cy="902.37" r="14.4" fill="#800080" fill-rule="evenodd" fill-opacity="1" stroke="#000000" stroke-opacity="1" stroke-width="3.2"></circle>
<circle clip-path="url(#clip263)" cx="278.615" cy="928.144" r="14.4" fill="#800080" fill-rule="evenodd" fill-opacity="1" stroke="#000000" stroke-opacity="1" stroke-width="3.2"></circle>
<circle clip-path="url(#clip263)" cx="345.674" cy="908.967" r="14.4" fill="#800080" fill-rule="evenodd" fill-opacity="1" stroke="#000000" stroke-opacity="1" stroke-width="3.2"></circle>
<circle clip-path="url(#clip263)" cx="412.733" cy="914.897" r="14.4" fill="#800080" fill-rule="evenodd" fill-opacity="1" stroke="#000000" stroke-opacity="1" stroke-width="3.2"></circle>
<circle clip-path="url(#clip263)" cx="479.793" cy="913.079" r="14.4" fill="#800080" fill-rule="evenodd" fill-opacity="1" stroke="#000000" stroke-opacity="1" stroke-width="3.2"></circle>
<circle clip-path="url(#clip263)" cx="546.852" cy="926.753" r="14.4" fill="#800080" fill-rule="evenodd" fill-opacity="1" stroke="#000000" stroke-opacity="1" stroke-width="3.2"></circle>
<circle clip-path="url(#clip263)" cx="613.911" cy="950.25" r="14.4" fill="#800080" fill-rule="evenodd" fill-opacity="1" stroke="#000000" stroke-opacity="1" stroke-width="3.2"></circle>
<circle clip-path="url(#clip263)" cx="680.97" cy="931.115" r="14.4" fill="#800080" fill-rule="evenodd" fill-opacity="1" stroke="#000000" stroke-opacity="1" stroke-width="3.2"></circle>
<circle clip-path="url(#clip263)" cx="748.029" cy="944.822" r="14.4" fill="#800080" fill-rule="evenodd" fill-opacity="1" stroke="#000000" stroke-opacity="1" stroke-width="3.2"></circle>
<circle clip-path="url(#clip263)" cx="815.089" cy="961.797" r="14.4" fill="#800080" fill-rule="evenodd" fill-opacity="1" stroke="#000000" stroke-opacity="1" stroke-width="3.2"></circle>
<circle clip-path="url(#clip263)" cx="882.148" cy="976.7" r="14.4" fill="#800080" fill-rule="evenodd" fill-opacity="1" stroke="#000000" stroke-opacity="1" stroke-width="3.2"></circle>
<circle clip-path="url(#clip263)" cx="949.207" cy="953.886" r="14.4" fill="#800080" fill-rule="evenodd" fill-opacity="1" stroke="#000000" stroke-opacity="1" stroke-width="3.2"></circle>
<circle clip-path="url(#clip263)" cx="1016.27" cy="972.904" r="14.4" fill="#800080" fill-rule="evenodd" fill-opacity="1" stroke="#000000" stroke-opacity="1" stroke-width="3.2"></circle>
<circle clip-path="url(#clip263)" cx="1083.33" cy="990.714" r="14.4" fill="#800080" fill-rule="evenodd" fill-opacity="1" stroke="#000000" stroke-opacity="1" stroke-width="3.2"></circle>
<circle clip-path="url(#clip263)" cx="1150.38" cy="1018.56" r="14.4" fill="#800080" fill-rule="evenodd" fill-opacity="1" stroke="#000000" stroke-opacity="1" stroke-width="3.2"></circle>
<circle clip-path="url(#clip263)" cx="1217.44" cy="1029.49" r="14.4" fill="#800080" fill-rule="evenodd" fill-opacity="1" stroke="#000000" stroke-opacity="1" stroke-width="3.2"></circle>
<circle clip-path="url(#clip263)" cx="1284.5" cy="1051.28" r="14.4" fill="#800080" fill-rule="evenodd" fill-opacity="1" stroke="#000000" stroke-opacity="1" stroke-width="3.2"></circle>
<circle clip-path="url(#clip263)" cx="1351.56" cy="1086.72" r="14.4" fill="#800080" fill-rule="evenodd" fill-opacity="1" stroke="#000000" stroke-opacity="1" stroke-width="3.2"></circle>
<circle clip-path="url(#clip263)" cx="1418.62" cy="1060.21" r="14.4" fill="#800080" fill-rule="evenodd" fill-opacity="1" stroke="#000000" stroke-opacity="1" stroke-width="3.2"></circle>
<circle clip-path="url(#clip263)" cx="1485.68" cy="1085.32" r="14.4" fill="#800080" fill-rule="evenodd" fill-opacity="1" stroke="#000000" stroke-opacity="1" stroke-width="3.2"></circle>
<circle clip-path="url(#clip263)" cx="1552.74" cy="1087.39" r="14.4" fill="#800080" fill-rule="evenodd" fill-opacity="1" stroke="#000000" stroke-opacity="1" stroke-width="3.2"></circle>
<circle clip-path="url(#clip263)" cx="1619.8" cy="1103.36" r="14.4" fill="#800080" fill-rule="evenodd" fill-opacity="1" stroke="#000000" stroke-opacity="1" stroke-width="3.2"></circle>
<circle clip-path="url(#clip263)" cx="1686.86" cy="1118.04" r="14.4" fill="#800080" fill-rule="evenodd" fill-opacity="1" stroke="#000000" stroke-opacity="1" stroke-width="3.2"></circle>
<circle clip-path="url(#clip263)" cx="1753.92" cy="1152.06" r="14.4" fill="#800080" fill-rule="evenodd" fill-opacity="1" stroke="#000000" stroke-opacity="1" stroke-width="3.2"></circle>
<circle clip-path="url(#clip263)" cx="1820.98" cy="1154.09" r="14.4" fill="#800080" fill-rule="evenodd" fill-opacity="1" stroke="#000000" stroke-opacity="1" stroke-width="3.2"></circle>
<circle clip-path="url(#clip263)" cx="1888.04" cy="1150.63" r="14.4" fill="#800080" fill-rule="evenodd" fill-opacity="1" stroke="#000000" stroke-opacity="1" stroke-width="3.2"></circle>
<circle clip-path="url(#clip263)" cx="1955.09" cy="1166.91" r="14.4" fill="#800080" fill-rule="evenodd" fill-opacity="1" stroke="#000000" stroke-opacity="1" stroke-width="3.2"></circle>
<circle clip-path="url(#clip263)" cx="2022.15" cy="1165.04" r="14.4" fill="#800080" fill-rule="evenodd" fill-opacity="1" stroke="#000000" stroke-opacity="1" stroke-width="3.2"></circle>
<circle clip-path="url(#clip263)" cx="2089.21" cy="1168.99" r="14.4" fill="#800080" fill-rule="evenodd" fill-opacity="1" stroke="#000000" stroke-opacity="1" stroke-width="3.2"></circle>
<circle clip-path="url(#clip263)" cx="2156.27" cy="1175.72" r="14.4" fill="#800080" fill-rule="evenodd" fill-opacity="1" stroke="#000000" stroke-opacity="1" stroke-width="3.2"></circle>
<circle clip-path="url(#clip263)" cx="2223.33" cy="1197.91" r="14.4" fill="#800080" fill-rule="evenodd" fill-opacity="1" stroke="#000000" stroke-opacity="1" stroke-width="3.2"></circle>
<circle clip-path="url(#clip263)" cx="2290.39" cy="1173.6" r="14.4" fill="#800080" fill-rule="evenodd" fill-opacity="1" stroke="#000000" stroke-opacity="1" stroke-width="3.2"></circle>
<circle clip-path="url(#clip263)" cx="211.556" cy="1179.65" r="14.4" fill="#ffff00" fill-rule="evenodd" fill-opacity="1" stroke="#000000" stroke-opacity="1" stroke-width="3.2"></circle>
<circle clip-path="url(#clip263)" cx="278.615" cy="1151.02" r="14.4" fill="#ffff00" fill-rule="evenodd" fill-opacity="1" stroke="#000000" stroke-opacity="1" stroke-width="3.2"></circle>
<circle clip-path="url(#clip263)" cx="345.674" cy="1190.88" r="14.4" fill="#ffff00" fill-rule="evenodd" fill-opacity="1" stroke="#000000" stroke-opacity="1" stroke-width="3.2"></circle>
<circle clip-path="url(#clip263)" cx="412.733" cy="1204.9" r="14.4" fill="#ffff00" fill-rule="evenodd" fill-opacity="1" stroke="#000000" stroke-opacity="1" stroke-width="3.2"></circle>
<circle clip-path="url(#clip263)" cx="479.793" cy="1182.29" r="14.4" fill="#ffff00" fill-rule="evenodd" fill-opacity="1" stroke="#000000" stroke-opacity="1" stroke-width="3.2"></circle>
<circle clip-path="url(#clip263)" cx="546.852" cy="1214.9" r="14.4" fill="#ffff00" fill-rule="evenodd" fill-opacity="1" stroke="#000000" stroke-opacity="1" stroke-width="3.2"></circle>
<circle clip-path="url(#clip263)" cx="613.911" cy="1241.94" r="14.4" fill="#ffff00" fill-rule="evenodd" fill-opacity="1" stroke="#000000" stroke-opacity="1" stroke-width="3.2"></circle>
<circle clip-path="url(#clip263)" cx="680.97" cy="1296.63" r="14.4" fill="#ffff00" fill-rule="evenodd" fill-opacity="1" stroke="#000000" stroke-opacity="1" stroke-width="3.2"></circle>
<circle clip-path="url(#clip263)" cx="748.029" cy="1279.47" r="14.4" fill="#ffff00" fill-rule="evenodd" fill-opacity="1" stroke="#000000" stroke-opacity="1" stroke-width="3.2"></circle>
<circle clip-path="url(#clip263)" cx="815.089" cy="1347.92" r="14.4" fill="#ffff00" fill-rule="evenodd" fill-opacity="1" stroke="#000000" stroke-opacity="1" stroke-width="3.2"></circle>
<circle clip-path="url(#clip263)" cx="882.148" cy="1376.23" r="14.4" fill="#ffff00" fill-rule="evenodd" fill-opacity="1" stroke="#000000" stroke-opacity="1" stroke-width="3.2"></circle>
<circle clip-path="url(#clip263)" cx="949.207" cy="1410.14" r="14.4" fill="#ffff00" fill-rule="evenodd" fill-opacity="1" stroke="#000000" stroke-opacity="1" stroke-width="3.2"></circle>
<circle clip-path="url(#clip263)" cx="1016.27" cy="1405.05" r="14.4" fill="#ffff00" fill-rule="evenodd" fill-opacity="1" stroke="#000000" stroke-opacity="1" stroke-width="3.2"></circle>
<circle clip-path="url(#clip263)" cx="1083.33" cy="1422.05" r="14.4" fill="#ffff00" fill-rule="evenodd" fill-opacity="1" stroke="#000000" stroke-opacity="1" stroke-width="3.2"></circle>
<circle clip-path="url(#clip263)" cx="1150.38" cy="1445.9" r="14.4" fill="#ffff00" fill-rule="evenodd" fill-opacity="1" stroke="#000000" stroke-opacity="1" stroke-width="3.2"></circle>
<circle clip-path="url(#clip263)" cx="1217.44" cy="1453.41" r="14.4" fill="#ffff00" fill-rule="evenodd" fill-opacity="1" stroke="#000000" stroke-opacity="1" stroke-width="3.2"></circle>
<circle clip-path="url(#clip263)" cx="1284.5" cy="1463.32" r="14.4" fill="#ffff00" fill-rule="evenodd" fill-opacity="1" stroke="#000000" stroke-opacity="1" stroke-width="3.2"></circle>
<circle clip-path="url(#clip263)" cx="1351.56" cy="1469.44" r="14.4" fill="#ffff00" fill-rule="evenodd" fill-opacity="1" stroke="#000000" stroke-opacity="1" stroke-width="3.2"></circle>
<circle clip-path="url(#clip263)" cx="1418.62" cy="1448.14" r="14.4" fill="#ffff00" fill-rule="evenodd" fill-opacity="1" stroke="#000000" stroke-opacity="1" stroke-width="3.2"></circle>
<circle clip-path="url(#clip263)" cx="1485.68" cy="1436.84" r="14.4" fill="#ffff00" fill-rule="evenodd" fill-opacity="1" stroke="#000000" stroke-opacity="1" stroke-width="3.2"></circle>
<circle clip-path="url(#clip263)" cx="1552.74" cy="1404.25" r="14.4" fill="#ffff00" fill-rule="evenodd" fill-opacity="1" stroke="#000000" stroke-opacity="1" stroke-width="3.2"></circle>
<circle clip-path="url(#clip263)" cx="1619.8" cy="1450.75" r="14.4" fill="#ffff00" fill-rule="evenodd" fill-opacity="1" stroke="#000000" stroke-opacity="1" stroke-width="3.2"></circle>
<circle clip-path="url(#clip263)" cx="1686.86" cy="1395.72" r="14.4" fill="#ffff00" fill-rule="evenodd" fill-opacity="1" stroke="#000000" stroke-opacity="1" stroke-width="3.2"></circle>
<circle clip-path="url(#clip263)" cx="1753.92" cy="1377.45" r="14.4" fill="#ffff00" fill-rule="evenodd" fill-opacity="1" stroke="#000000" stroke-opacity="1" stroke-width="3.2"></circle>
<circle clip-path="url(#clip263)" cx="1820.98" cy="1333.75" r="14.4" fill="#ffff00" fill-rule="evenodd" fill-opacity="1" stroke="#000000" stroke-opacity="1" stroke-width="3.2"></circle>
<circle clip-path="url(#clip263)" cx="1888.04" cy="1314.13" r="14.4" fill="#ffff00" fill-rule="evenodd" fill-opacity="1" stroke="#000000" stroke-opacity="1" stroke-width="3.2"></circle>
<circle clip-path="url(#clip263)" cx="1955.09" cy="1300.18" r="14.4" fill="#ffff00" fill-rule="evenodd" fill-opacity="1" stroke="#000000" stroke-opacity="1" stroke-width="3.2"></circle>
<circle clip-path="url(#clip263)" cx="2022.15" cy="1244.61" r="14.4" fill="#ffff00" fill-rule="evenodd" fill-opacity="1" stroke="#000000" stroke-opacity="1" stroke-width="3.2"></circle>
<circle clip-path="url(#clip263)" cx="2089.21" cy="1240.62" r="14.4" fill="#ffff00" fill-rule="evenodd" fill-opacity="1" stroke="#000000" stroke-opacity="1" stroke-width="3.2"></circle>
<circle clip-path="url(#clip263)" cx="2156.27" cy="1157.78" r="14.4" fill="#ffff00" fill-rule="evenodd" fill-opacity="1" stroke="#000000" stroke-opacity="1" stroke-width="3.2"></circle>
<circle clip-path="url(#clip263)" cx="2223.33" cy="1127.49" r="14.4" fill="#ffff00" fill-rule="evenodd" fill-opacity="1" stroke="#000000" stroke-opacity="1" stroke-width="3.2"></circle>
<circle clip-path="url(#clip263)" cx="2290.39" cy="1141.09" r="14.4" fill="#ffff00" fill-rule="evenodd" fill-opacity="1" stroke="#000000" stroke-opacity="1" stroke-width="3.2"></circle>
<path clip-path="url(#clip260)" d="M1913.49 1268.27 L2279.3 1268.27 L2279.3 905.394 L1913.49 905.394  Z" fill="#ffffff" fill-rule="evenodd" fill-opacity="1"></path>
<polyline clip-path="url(#clip260)" style="stroke:#000000; stroke-linecap:round; stroke-linejoin:round; stroke-width:4; stroke-opacity:1; fill:none" points="1913.49,1268.27 2279.3,1268.27 2279.3,905.394 1913.49,905.394 1913.49,1268.27 "></polyline>
<polyline clip-path="url(#clip260)" style="stroke:#000000; stroke-linecap:round; stroke-linejoin:round; stroke-width:4; stroke-opacity:1; fill:none" points="1937.97,957.234 2084.87,957.234 "></polyline>
<path clip-path="url(#clip260)" d="M2128.62 958.079 L2113.87 958.079 Q2114.22 965.001 2115.82 967.94 Q2117.81 971.551 2121.26 971.551 Q2124.73 971.551 2126.65 967.917 Q2128.34 964.723 2128.62 958.079 M2128.55 954.144 Q2127.9 947.57 2126.65 945.255 Q2124.66 941.598 2121.26 941.598 Q2117.71 941.598 2115.84 945.209 Q2114.36 948.126 2113.92 954.144 L2128.55 954.144 M2121.26 938.126 Q2126.81 938.126 2129.98 943.033 Q2133.15 947.917 2133.15 956.575 Q2133.15 965.209 2129.98 970.116 Q2126.81 975.047 2121.26 975.047 Q2115.68 975.047 2112.53 970.116 Q2109.36 965.209 2109.36 956.575 Q2109.36 947.917 2112.53 943.033 Q2115.68 938.126 2121.26 938.126 Z" fill="#000000" fill-rule="nonzero" fill-opacity="1"></path><path clip-path="url(#clip260)" d="M2163.96 969.584 L2163.96 960.302 L2156.32 960.302 L2156.32 956.459 L2168.59 956.459 L2168.59 971.297 Q2165.88 973.218 2162.62 974.214 Q2159.36 975.186 2155.65 975.186 Q2147.55 975.186 2142.97 970.464 Q2138.41 965.718 2138.41 957.269 Q2138.41 948.797 2142.97 944.075 Q2147.55 939.329 2155.65 939.329 Q2159.03 939.329 2162.07 940.163 Q2165.12 940.996 2167.69 942.616 L2167.69 947.593 Q2165.1 945.394 2162.18 944.283 Q2159.26 943.172 2156.05 943.172 Q2149.7 943.172 2146.51 946.714 Q2143.34 950.255 2143.34 957.269 Q2143.34 964.26 2146.51 967.802 Q2149.7 971.343 2156.05 971.343 Q2158.52 971.343 2160.47 970.926 Q2162.41 970.487 2163.96 969.584 Z" fill="#000000" fill-rule="nonzero" fill-opacity="1"></path><path clip-path="url(#clip260)" d="M2170.65 939.954 L2199.89 939.954 L2199.89 943.89 L2187.62 943.89 L2187.62 974.514 L2182.92 974.514 L2182.92 943.89 L2170.65 943.89 L2170.65 939.954 Z" fill="#000000" fill-rule="nonzero" fill-opacity="1"></path><polyline clip-path="url(#clip260)" style="stroke:#ff0000; stroke-linecap:round; stroke-linejoin:round; stroke-width:4; stroke-opacity:1; fill:none" points="1937.97,1009.07 2084.87,1009.07 "></polyline>
<path clip-path="url(#clip260)" d="M2118.96 1027.03 Q2109.36 1027.03 2109.36 1013.28 Q2109.36 1007.84 2112.95 1000.43 L2117.53 1000.43 Q2114.22 1007.84 2114.22 1013.39 Q2114.22 1023.41 2119.36 1023.41 Q2124.06 1023.41 2124.06 1010.96 L2127.99 1010.96 Q2127.99 1023.41 2132.69 1023.41 Q2137.83 1023.41 2137.83 1013.39 Q2137.83 1007.84 2134.52 1000.43 L2139.1 1000.43 Q2142.69 1007.84 2142.69 1013.28 Q2142.69 1027.03 2133.08 1027.03 Q2126.79 1027.03 2126.02 1020.1 Q2125.08 1027.03 2118.96 1027.03 Z" fill="#000000" fill-rule="nonzero" fill-opacity="1"></path><path clip-path="url(#clip260)" d="M2174.15 1021.42 L2174.15 1012.14 L2166.51 1012.14 L2166.51 1008.3 L2178.78 1008.3 L2178.78 1023.14 Q2176.07 1025.06 2172.81 1026.05 Q2169.54 1027.03 2165.84 1027.03 Q2157.74 1027.03 2153.15 1022.3 Q2148.59 1017.56 2148.59 1009.11 Q2148.59 1000.64 2153.15 995.915 Q2157.74 991.169 2165.84 991.169 Q2169.22 991.169 2172.25 992.003 Q2175.31 992.836 2177.88 994.456 L2177.88 999.433 Q2175.28 997.234 2172.37 996.123 Q2169.45 995.012 2166.23 995.012 Q2159.89 995.012 2156.7 998.554 Q2153.52 1002.1 2153.52 1009.11 Q2153.52 1016.1 2156.7 1019.64 Q2159.89 1023.18 2166.23 1023.18 Q2168.71 1023.18 2170.65 1022.77 Q2172.6 1022.33 2174.15 1021.42 Z" fill="#000000" fill-rule="nonzero" fill-opacity="1"></path><path clip-path="url(#clip260)" d="M2180.84 991.794 L2210.07 991.794 L2210.07 995.73 L2197.81 995.73 L2197.81 1026.35 L2193.11 1026.35 L2193.11 995.73 L2180.84 995.73 L2180.84 991.794 Z" fill="#000000" fill-rule="nonzero" fill-opacity="1"></path><polyline clip-path="url(#clip260)" style="stroke:#0000ff; stroke-linecap:round; stroke-linejoin:round; stroke-width:4; stroke-opacity:1; fill:none" points="1937.97,1060.91 2084.87,1060.91 "></polyline>
<path clip-path="url(#clip260)" d="M2128.62 1061.76 L2113.87 1061.76 Q2114.22 1068.68 2115.82 1071.62 Q2117.81 1075.23 2121.26 1075.23 Q2124.73 1075.23 2126.65 1071.6 Q2128.34 1068.4 2128.62 1061.76 M2128.55 1057.82 Q2127.9 1051.25 2126.65 1048.94 Q2124.66 1045.28 2121.26 1045.28 Q2117.71 1045.28 2115.84 1048.89 Q2114.36 1051.81 2113.92 1057.82 L2128.55 1057.82 M2121.26 1041.81 Q2126.81 1041.81 2129.98 1046.71 Q2133.15 1051.6 2133.15 1060.25 Q2133.15 1068.89 2129.98 1073.8 Q2126.81 1078.73 2121.26 1078.73 Q2115.68 1078.73 2112.53 1073.8 Q2109.36 1068.89 2109.36 1060.25 Q2109.36 1051.6 2112.53 1046.71 Q2115.68 1041.81 2121.26 1041.81 Z" fill="#000000" fill-rule="nonzero" fill-opacity="1"></path><path clip-path="url(#clip260)" d="M2145.07 1047.48 L2145.07 1060.46 L2150.95 1060.46 Q2154.22 1060.46 2156 1058.77 Q2157.78 1057.08 2157.78 1053.96 Q2157.78 1050.86 2156 1049.17 Q2154.22 1047.48 2150.95 1047.48 L2145.07 1047.48 M2140.4 1043.63 L2150.95 1043.63 Q2156.76 1043.63 2159.73 1046.27 Q2162.71 1048.89 2162.71 1053.96 Q2162.71 1059.07 2159.73 1061.69 Q2156.76 1064.31 2150.95 1064.31 L2145.07 1064.31 L2145.07 1078.19 L2140.4 1078.19 L2140.4 1043.63 Z" fill="#000000" fill-rule="nonzero" fill-opacity="1"></path><path clip-path="url(#clip260)" d="M2182.99 1056.25 Q2182.27 1055.83 2181.42 1055.65 Q2180.58 1055.44 2179.57 1055.44 Q2175.95 1055.44 2174.01 1057.8 Q2172.09 1060.14 2172.09 1064.54 L2172.09 1078.19 L2167.81 1078.19 L2167.81 1052.27 L2172.09 1052.27 L2172.09 1056.3 Q2173.43 1053.94 2175.58 1052.8 Q2177.74 1051.64 2180.82 1051.64 Q2181.26 1051.64 2181.79 1051.71 Q2182.32 1051.76 2182.97 1051.88 L2182.99 1056.25 Z" fill="#000000" fill-rule="nonzero" fill-opacity="1"></path><path clip-path="url(#clip260)" d="M2208.59 1064.17 L2208.59 1066.25 L2189.01 1066.25 Q2189.29 1070.65 2191.65 1072.96 Q2194.03 1075.25 2198.27 1075.25 Q2200.72 1075.25 2203.01 1074.65 Q2205.33 1074.05 2207.6 1072.85 L2207.6 1076.87 Q2205.31 1077.85 2202.9 1078.36 Q2200.49 1078.87 2198.01 1078.87 Q2191.81 1078.87 2188.18 1075.25 Q2184.57 1071.64 2184.57 1065.49 Q2184.57 1059.12 2187.99 1055.39 Q2191.44 1051.64 2197.27 1051.64 Q2202.51 1051.64 2205.54 1055.02 Q2208.59 1058.38 2208.59 1064.17 M2204.33 1062.92 Q2204.29 1059.42 2202.37 1057.34 Q2200.47 1055.25 2197.32 1055.25 Q2193.76 1055.25 2191.6 1057.27 Q2189.47 1059.28 2189.15 1062.94 L2204.33 1062.92 Z" fill="#000000" fill-rule="nonzero" fill-opacity="1"></path><path clip-path="url(#clip260)" d="M2232.64 1056.2 L2232.64 1042.18 L2236.9 1042.18 L2236.9 1078.19 L2232.64 1078.19 L2232.64 1074.31 Q2231.3 1076.62 2229.24 1077.75 Q2227.2 1078.87 2224.33 1078.87 Q2219.63 1078.87 2216.67 1075.12 Q2213.73 1071.37 2213.73 1065.25 Q2213.73 1059.14 2216.67 1055.39 Q2219.63 1051.64 2224.33 1051.64 Q2227.2 1051.64 2229.24 1052.78 Q2231.3 1053.89 2232.64 1056.2 M2218.13 1065.25 Q2218.13 1069.95 2220.05 1072.64 Q2222 1075.3 2225.38 1075.3 Q2228.76 1075.3 2230.7 1072.64 Q2232.64 1069.95 2232.64 1065.25 Q2232.64 1060.56 2230.7 1057.89 Q2228.76 1055.21 2225.38 1055.21 Q2222 1055.21 2220.05 1057.89 Q2218.13 1060.56 2218.13 1065.25 Z" fill="#000000" fill-rule="nonzero" fill-opacity="1"></path><polyline clip-path="url(#clip260)" style="stroke:#ffa500; stroke-linecap:round; stroke-linejoin:round; stroke-width:4; stroke-opacity:1; fill:none" points="1937.97,1112.75 2084.87,1112.75 "></polyline>
<path clip-path="url(#clip260)" d="M2118.96 1130.71 Q2109.36 1130.71 2109.36 1116.96 Q2109.36 1111.52 2112.95 1104.11 L2117.53 1104.11 Q2114.22 1111.52 2114.22 1117.07 Q2114.22 1127.09 2119.36 1127.09 Q2124.06 1127.09 2124.06 1114.64 L2127.99 1114.64 Q2127.99 1127.09 2132.69 1127.09 Q2137.83 1127.09 2137.83 1117.07 Q2137.83 1111.52 2134.52 1104.11 L2139.1 1104.11 Q2142.69 1111.52 2142.69 1116.96 Q2142.69 1130.71 2133.08 1130.71 Q2126.79 1130.71 2126.02 1123.78 Q2125.08 1130.71 2118.96 1130.71 Z" fill="#000000" fill-rule="nonzero" fill-opacity="1"></path><path clip-path="url(#clip260)" d="M2155.26 1099.32 L2155.26 1112.3 L2161.14 1112.3 Q2164.4 1112.3 2166.19 1110.61 Q2167.97 1108.92 2167.97 1105.8 Q2167.97 1102.7 2166.19 1101.01 Q2164.4 1099.32 2161.14 1099.32 L2155.26 1099.32 M2150.58 1095.47 L2161.14 1095.47 Q2166.95 1095.47 2169.91 1098.11 Q2172.9 1100.73 2172.9 1105.8 Q2172.9 1110.91 2169.91 1113.53 Q2166.95 1116.15 2161.14 1116.15 L2155.26 1116.15 L2155.26 1130.03 L2150.58 1130.03 L2150.58 1095.47 Z" fill="#000000" fill-rule="nonzero" fill-opacity="1"></path><path clip-path="url(#clip260)" d="M2193.18 1108.09 Q2192.46 1107.67 2191.6 1107.49 Q2190.77 1107.28 2189.75 1107.28 Q2186.14 1107.28 2184.2 1109.64 Q2182.27 1111.98 2182.27 1116.38 L2182.27 1130.03 L2177.99 1130.03 L2177.99 1104.11 L2182.27 1104.11 L2182.27 1108.14 Q2183.62 1105.78 2185.77 1104.64 Q2187.92 1103.48 2191 1103.48 Q2191.44 1103.48 2191.97 1103.55 Q2192.51 1103.6 2193.15 1103.72 L2193.18 1108.09 Z" fill="#000000" fill-rule="nonzero" fill-opacity="1"></path><path clip-path="url(#clip260)" d="M2218.78 1116.01 L2218.78 1118.09 L2199.19 1118.09 Q2199.47 1122.49 2201.83 1124.8 Q2204.22 1127.09 2208.45 1127.09 Q2210.91 1127.09 2213.2 1126.49 Q2215.51 1125.89 2217.78 1124.69 L2217.78 1128.71 Q2215.49 1129.69 2213.08 1130.2 Q2210.68 1130.71 2208.2 1130.71 Q2202 1130.71 2198.36 1127.09 Q2194.75 1123.48 2194.75 1117.33 Q2194.75 1110.96 2198.18 1107.23 Q2201.63 1103.48 2207.46 1103.48 Q2212.69 1103.48 2215.72 1106.86 Q2218.78 1110.22 2218.78 1116.01 M2214.52 1114.76 Q2214.47 1111.26 2212.55 1109.18 Q2210.65 1107.09 2207.51 1107.09 Q2203.94 1107.09 2201.79 1109.11 Q2199.66 1111.12 2199.33 1114.78 L2214.52 1114.76 Z" fill="#000000" fill-rule="nonzero" fill-opacity="1"></path><path clip-path="url(#clip260)" d="M2242.83 1108.04 L2242.83 1094.02 L2247.09 1094.02 L2247.09 1130.03 L2242.83 1130.03 L2242.83 1126.15 Q2241.49 1128.46 2239.43 1129.59 Q2237.39 1130.71 2234.52 1130.71 Q2229.82 1130.71 2226.86 1126.96 Q2223.92 1123.21 2223.92 1117.09 Q2223.92 1110.98 2226.86 1107.23 Q2229.82 1103.48 2234.52 1103.48 Q2237.39 1103.48 2239.43 1104.62 Q2241.49 1105.73 2242.83 1108.04 M2228.32 1117.09 Q2228.32 1121.79 2230.24 1124.48 Q2232.18 1127.14 2235.56 1127.14 Q2238.94 1127.14 2240.88 1124.48 Q2242.83 1121.79 2242.83 1117.09 Q2242.83 1112.4 2240.88 1109.73 Q2238.94 1107.05 2235.56 1107.05 Q2232.18 1107.05 2230.24 1109.73 Q2228.32 1112.4 2228.32 1117.09 Z" fill="#000000" fill-rule="nonzero" fill-opacity="1"></path><circle clip-path="url(#clip260)" cx="2011.42" cy="1164.59" r="20.48" fill="#800080" fill-rule="evenodd" fill-opacity="1" stroke="#000000" stroke-opacity="1" stroke-width="4.55111"></circle>
<path clip-path="url(#clip260)" d="M2128.62 1165.44 L2113.87 1165.44 Q2114.22 1172.36 2115.82 1175.3 Q2117.81 1178.91 2121.26 1178.91 Q2124.73 1178.91 2126.65 1175.28 Q2128.34 1172.08 2128.62 1165.44 M2128.55 1161.5 Q2127.9 1154.93 2126.65 1152.62 Q2124.66 1148.96 2121.26 1148.96 Q2117.71 1148.96 2115.84 1152.57 Q2114.36 1155.49 2113.92 1161.5 L2128.55 1161.5 M2121.26 1145.49 Q2126.81 1145.49 2129.98 1150.39 Q2133.15 1155.28 2133.15 1163.93 Q2133.15 1172.57 2129.98 1177.48 Q2126.81 1182.41 2121.26 1182.41 Q2115.68 1182.41 2112.53 1177.48 Q2109.36 1172.57 2109.36 1163.93 Q2109.36 1155.28 2112.53 1150.39 Q2115.68 1145.49 2121.26 1145.49 Z" fill="#000000" fill-rule="nonzero" fill-opacity="1"></path><path clip-path="url(#clip260)" d="M2145.07 1151.16 L2145.07 1178.03 L2150.72 1178.03 Q2157.88 1178.03 2161.19 1174.79 Q2164.52 1171.55 2164.52 1164.56 Q2164.52 1157.62 2161.19 1154.4 Q2157.88 1151.16 2150.72 1151.16 L2145.07 1151.16 M2140.4 1147.31 L2150.01 1147.31 Q2160.05 1147.31 2164.75 1151.5 Q2169.45 1155.67 2169.45 1164.56 Q2169.45 1173.49 2164.73 1177.68 Q2160.01 1181.87 2150.01 1181.87 L2140.4 1181.87 L2140.4 1147.31 Z" fill="#000000" fill-rule="nonzero" fill-opacity="1"></path><path clip-path="url(#clip260)" d="M2188.5 1168.84 Q2183.34 1168.84 2181.35 1170.02 Q2179.36 1171.2 2179.36 1174.05 Q2179.36 1176.32 2180.84 1177.66 Q2182.34 1178.98 2184.91 1178.98 Q2188.45 1178.98 2190.58 1176.48 Q2192.74 1173.96 2192.74 1169.79 L2192.74 1168.84 L2188.5 1168.84 M2197 1167.08 L2197 1181.87 L2192.74 1181.87 L2192.74 1177.94 Q2191.28 1180.3 2189.1 1181.43 Q2186.93 1182.55 2183.78 1182.55 Q2179.8 1182.55 2177.44 1180.32 Q2175.1 1178.08 2175.1 1174.33 Q2175.1 1169.95 2178.01 1167.73 Q2180.95 1165.51 2186.76 1165.51 L2192.74 1165.51 L2192.74 1165.09 Q2192.74 1162.15 2190.79 1160.56 Q2188.87 1158.93 2185.38 1158.93 Q2183.15 1158.93 2181.05 1159.47 Q2178.94 1160 2177 1161.06 L2177 1157.13 Q2179.33 1156.23 2181.53 1155.79 Q2183.73 1155.32 2185.82 1155.32 Q2191.44 1155.32 2194.22 1158.24 Q2197 1161.16 2197 1167.08 Z" fill="#000000" fill-rule="nonzero" fill-opacity="1"></path><path clip-path="url(#clip260)" d="M2209.98 1148.59 L2209.98 1155.95 L2218.76 1155.95 L2218.76 1159.26 L2209.98 1159.26 L2209.98 1173.33 Q2209.98 1176.5 2210.84 1177.41 Q2211.72 1178.31 2214.38 1178.31 L2218.76 1178.31 L2218.76 1181.87 L2214.38 1181.87 Q2209.45 1181.87 2207.57 1180.05 Q2205.7 1178.19 2205.7 1173.33 L2205.7 1159.26 L2202.57 1159.26 L2202.57 1155.95 L2205.7 1155.95 L2205.7 1148.59 L2209.98 1148.59 Z" fill="#000000" fill-rule="nonzero" fill-opacity="1"></path><path clip-path="url(#clip260)" d="M2236.14 1168.84 Q2230.98 1168.84 2228.99 1170.02 Q2227 1171.2 2227 1174.05 Q2227 1176.32 2228.48 1177.66 Q2229.98 1178.98 2232.55 1178.98 Q2236.09 1178.98 2238.22 1176.48 Q2240.38 1173.96 2240.38 1169.79 L2240.38 1168.84 L2236.14 1168.84 M2244.63 1167.08 L2244.63 1181.87 L2240.38 1181.87 L2240.38 1177.94 Q2238.92 1180.3 2236.74 1181.43 Q2234.57 1182.55 2231.42 1182.55 Q2227.44 1182.55 2225.07 1180.32 Q2222.74 1178.08 2222.74 1174.33 Q2222.74 1169.95 2225.65 1167.73 Q2228.59 1165.51 2234.4 1165.51 L2240.38 1165.51 L2240.38 1165.09 Q2240.38 1162.15 2238.43 1160.56 Q2236.51 1158.93 2233.01 1158.93 Q2230.79 1158.93 2228.69 1159.47 Q2226.58 1160 2224.63 1161.06 L2224.63 1157.13 Q2226.97 1156.23 2229.17 1155.79 Q2231.37 1155.32 2233.45 1155.32 Q2239.08 1155.32 2241.86 1158.24 Q2244.63 1161.16 2244.63 1167.08 Z" fill="#000000" fill-rule="nonzero" fill-opacity="1"></path><circle clip-path="url(#clip260)" cx="2011.42" cy="1216.43" r="20.48" fill="#ffff00" fill-rule="evenodd" fill-opacity="1" stroke="#000000" stroke-opacity="1" stroke-width="4.55111"></circle>
<path clip-path="url(#clip260)" d="M2118.96 1234.39 Q2109.36 1234.39 2109.36 1220.64 Q2109.36 1215.2 2112.95 1207.79 L2117.53 1207.79 Q2114.22 1215.2 2114.22 1220.75 Q2114.22 1230.77 2119.36 1230.77 Q2124.06 1230.77 2124.06 1218.32 L2127.99 1218.32 Q2127.99 1230.77 2132.69 1230.77 Q2137.83 1230.77 2137.83 1220.75 Q2137.83 1215.2 2134.52 1207.79 L2139.1 1207.79 Q2142.69 1215.2 2142.69 1220.64 Q2142.69 1234.39 2133.08 1234.39 Q2126.79 1234.39 2126.02 1227.46 Q2125.08 1234.39 2118.96 1234.39 Z" fill="#000000" fill-rule="nonzero" fill-opacity="1"></path><path clip-path="url(#clip260)" d="M2155.26 1203 L2155.26 1229.87 L2160.91 1229.87 Q2168.06 1229.87 2171.37 1226.63 Q2174.7 1223.39 2174.7 1216.4 Q2174.7 1209.46 2171.37 1206.24 Q2168.06 1203 2160.91 1203 L2155.26 1203 M2150.58 1199.15 L2160.19 1199.15 Q2170.24 1199.15 2174.94 1203.34 Q2179.63 1207.51 2179.63 1216.4 Q2179.63 1225.33 2174.91 1229.52 Q2170.19 1233.71 2160.19 1233.71 L2150.58 1233.71 L2150.58 1199.15 Z" fill="#000000" fill-rule="nonzero" fill-opacity="1"></path><path clip-path="url(#clip260)" d="M2198.69 1220.68 Q2193.52 1220.68 2191.53 1221.86 Q2189.54 1223.04 2189.54 1225.89 Q2189.54 1228.16 2191.02 1229.5 Q2192.53 1230.82 2195.1 1230.82 Q2198.64 1230.82 2200.77 1228.32 Q2202.92 1225.8 2202.92 1221.63 L2202.92 1220.68 L2198.69 1220.68 M2207.18 1218.92 L2207.18 1233.71 L2202.92 1233.71 L2202.92 1229.78 Q2201.46 1232.14 2199.29 1233.27 Q2197.11 1234.39 2193.96 1234.39 Q2189.98 1234.39 2187.62 1232.16 Q2185.28 1229.92 2185.28 1226.17 Q2185.28 1221.79 2188.2 1219.57 Q2191.14 1217.35 2196.95 1217.35 L2202.92 1217.35 L2202.92 1216.93 Q2202.92 1213.99 2200.98 1212.4 Q2199.06 1210.77 2195.56 1210.77 Q2193.34 1210.77 2191.23 1211.31 Q2189.13 1211.84 2187.18 1212.9 L2187.18 1208.97 Q2189.52 1208.07 2191.72 1207.63 Q2193.92 1207.16 2196 1207.16 Q2201.63 1207.16 2204.4 1210.08 Q2207.18 1213 2207.18 1218.92 Z" fill="#000000" fill-rule="nonzero" fill-opacity="1"></path><path clip-path="url(#clip260)" d="M2220.17 1200.43 L2220.17 1207.79 L2228.94 1207.79 L2228.94 1211.1 L2220.17 1211.1 L2220.17 1225.17 Q2220.17 1228.34 2221.02 1229.25 Q2221.9 1230.15 2224.57 1230.15 L2228.94 1230.15 L2228.94 1233.71 L2224.57 1233.71 Q2219.63 1233.71 2217.76 1231.89 Q2215.88 1230.03 2215.88 1225.17 L2215.88 1211.1 L2212.76 1211.1 L2212.76 1207.79 L2215.88 1207.79 L2215.88 1200.43 L2220.17 1200.43 Z" fill="#000000" fill-rule="nonzero" fill-opacity="1"></path><path clip-path="url(#clip260)" d="M2246.32 1220.68 Q2241.16 1220.68 2239.17 1221.86 Q2237.18 1223.04 2237.18 1225.89 Q2237.18 1228.16 2238.66 1229.5 Q2240.17 1230.82 2242.74 1230.82 Q2246.28 1230.82 2248.41 1228.32 Q2250.56 1225.8 2250.56 1221.63 L2250.56 1220.68 L2246.32 1220.68 M2254.82 1218.92 L2254.82 1233.71 L2250.56 1233.71 L2250.56 1229.78 Q2249.1 1232.14 2246.93 1233.27 Q2244.75 1234.39 2241.6 1234.39 Q2237.62 1234.39 2235.26 1232.16 Q2232.92 1229.92 2232.92 1226.17 Q2232.92 1221.79 2235.84 1219.57 Q2238.78 1217.35 2244.59 1217.35 L2250.56 1217.35 L2250.56 1216.93 Q2250.56 1213.99 2248.62 1212.4 Q2246.69 1210.77 2243.2 1210.77 Q2240.98 1210.77 2238.87 1211.31 Q2236.76 1211.84 2234.82 1212.9 L2234.82 1208.97 Q2237.16 1208.07 2239.36 1207.63 Q2241.56 1207.16 2243.64 1207.16 Q2249.26 1207.16 2252.04 1210.08 Q2254.82 1213 2254.82 1218.92 Z" fill="#000000" fill-rule="nonzero" fill-opacity="1"></path></svg>