<svg xmlns="http://www.w3.org/2000/svg" xmlns:xlink="http://www.w3.org/1999/xlink" width="600" height="400" viewBox="0 0 2400 1600">
<defs>
  <clipPath id="clip740">
    <rect x="0" y="0" width="2400" height="1600"></rect>
  </clipPath>
</defs>
<path clip-path="url(#clip740)" d="M0 1600 L2400 1600 L2400 0 L0 0  Z" fill="#ffffff" fill-rule="evenodd" fill-opacity="1"></path>
<defs>
  <clipPath id="clip741">
    <rect x="480" y="0" width="1681" height="1600"></rect>
  </clipPath>
</defs>
<path clip-path="url(#clip740)" d="M192.941 724.562 L2352.76 724.562 L2352.76 123.472 L192.941 123.472  Z" fill="#ffffff" fill-rule="evenodd" fill-opacity="1"></path>
<defs>
  <clipPath id="clip742">
    <rect x="192" y="123" width="2161" height="602"></rect>
  </clipPath>
</defs>
<polyline clip-path="url(#clip742)" style="stroke:#000000; stroke-linecap:round; stroke-linejoin:round; stroke-width:2; stroke-opacity:0.1; fill:none" points="254.067,724.562 254.067,123.472 "></polyline>
<polyline clip-path="url(#clip742)" style="stroke:#000000; stroke-linecap:round; stroke-linejoin:round; stroke-width:2; stroke-opacity:0.1; fill:none" points="763.458,724.562 763.458,123.472 "></polyline>
<polyline clip-path="url(#clip742)" style="stroke:#000000; stroke-linecap:round; stroke-linejoin:round; stroke-width:2; stroke-opacity:0.1; fill:none" points="1272.85,724.562 1272.85,123.472 "></polyline>
<polyline clip-path="url(#clip742)" style="stroke:#000000; stroke-linecap:round; stroke-linejoin:round; stroke-width:2; stroke-opacity:0.1; fill:none" points="1782.24,724.562 1782.24,123.472 "></polyline>
<polyline clip-path="url(#clip742)" style="stroke:#000000; stroke-linecap:round; stroke-linejoin:round; stroke-width:2; stroke-opacity:0.1; fill:none" points="2291.63,724.562 2291.63,123.472 "></polyline>
<polyline clip-path="url(#clip740)" style="stroke:#000000; stroke-linecap:round; stroke-linejoin:round; stroke-width:4; stroke-opacity:1; fill:none" points="192.941,724.562 2352.76,724.562 "></polyline>
<polyline clip-path="url(#clip740)" style="stroke:#000000; stroke-linecap:round; stroke-linejoin:round; stroke-width:4; stroke-opacity:1; fill:none" points="254.067,724.562 254.067,705.664 "></polyline>
<polyline clip-path="url(#clip740)" style="stroke:#000000; stroke-linecap:round; stroke-linejoin:round; stroke-width:4; stroke-opacity:1; fill:none" points="763.458,724.562 763.458,705.664 "></polyline>
<polyline clip-path="url(#clip740)" style="stroke:#000000; stroke-linecap:round; stroke-linejoin:round; stroke-width:4; stroke-opacity:1; fill:none" points="1272.85,724.562 1272.85,705.664 "></polyline>
<polyline clip-path="url(#clip740)" style="stroke:#000000; stroke-linecap:round; stroke-linejoin:round; stroke-width:4; stroke-opacity:1; fill:none" points="1782.24,724.562 1782.24,705.664 "></polyline>
<polyline clip-path="url(#clip740)" style="stroke:#000000; stroke-linecap:round; stroke-linejoin:round; stroke-width:4; stroke-opacity:1; fill:none" points="2291.63,724.562 2291.63,705.664 "></polyline>
<path clip-path="url(#clip740)" d="M216.371 755.481 Q212.76 755.481 210.931 759.045 Q209.126 762.587 209.126 769.717 Q209.126 776.823 210.931 780.388 Q212.76 783.929 216.371 783.929 Q220.005 783.929 221.811 780.388 Q223.639 776.823 223.639 769.717 Q223.639 762.587 221.811 759.045 Q220.005 755.481 216.371 755.481 M216.371 751.777 Q222.181 751.777 225.237 756.383 Q228.315 760.967 228.315 769.717 Q228.315 778.443 225.237 783.05 Q222.181 787.633 216.371 787.633 Q210.561 787.633 207.482 783.05 Q204.427 778.443 204.427 769.717 Q204.427 760.967 207.482 756.383 Q210.561 751.777 216.371 751.777 Z" fill="#000000" fill-rule="nonzero" fill-opacity="1"></path><path clip-path="url(#clip740)" d="M236.533 781.082 L241.417 781.082 L241.417 786.962 L236.533 786.962 L236.533 781.082 Z" fill="#000000" fill-rule="nonzero" fill-opacity="1"></path><path clip-path="url(#clip740)" d="M261.602 755.481 Q257.991 755.481 256.162 759.045 Q254.357 762.587 254.357 769.717 Q254.357 776.823 256.162 780.388 Q257.991 783.929 261.602 783.929 Q265.236 783.929 267.042 780.388 Q268.871 776.823 268.871 769.717 Q268.871 762.587 267.042 759.045 Q265.236 755.481 261.602 755.481 M261.602 751.777 Q267.412 751.777 270.468 756.383 Q273.547 760.967 273.547 769.717 Q273.547 778.443 270.468 783.05 Q267.412 787.633 261.602 787.633 Q255.792 787.633 252.713 783.05 Q249.658 778.443 249.658 769.717 Q249.658 760.967 252.713 756.383 Q255.792 751.777 261.602 751.777 Z" fill="#000000" fill-rule="nonzero" fill-opacity="1"></path><path clip-path="url(#clip740)" d="M291.764 755.481 Q288.153 755.481 286.324 759.045 Q284.519 762.587 284.519 769.717 Q284.519 776.823 286.324 780.388 Q288.153 783.929 291.764 783.929 Q295.398 783.929 297.204 780.388 Q299.033 776.823 299.033 769.717 Q299.033 762.587 297.204 759.045 Q295.398 755.481 291.764 755.481 M291.764 751.777 Q297.574 751.777 300.63 756.383 Q303.708 760.967 303.708 769.717 Q303.708 778.443 300.63 783.05 Q297.574 787.633 291.764 787.633 Q285.954 787.633 282.875 783.05 Q279.82 778.443 279.82 769.717 Q279.82 760.967 282.875 756.383 Q285.954 751.777 291.764 751.777 Z" fill="#000000" fill-rule="nonzero" fill-opacity="1"></path><path clip-path="url(#clip740)" d="M726.259 755.481 Q722.648 755.481 720.819 759.045 Q719.014 762.587 719.014 769.717 Q719.014 776.823 720.819 780.388 Q722.648 783.929 726.259 783.929 Q729.893 783.929 731.699 780.388 Q733.527 776.823 733.527 769.717 Q733.527 762.587 731.699 759.045 Q729.893 755.481 726.259 755.481 M726.259 751.777 Q732.069 751.777 735.125 756.383 Q738.203 760.967 738.203 769.717 Q738.203 778.443 735.125 783.05 Q732.069 787.633 726.259 787.633 Q720.449 787.633 717.37 783.05 Q714.315 778.443 714.315 769.717 Q714.315 760.967 717.37 756.383 Q720.449 751.777 726.259 751.777 Z" fill="#000000" fill-rule="nonzero" fill-opacity="1"></path><path clip-path="url(#clip740)" d="M746.421 781.082 L751.305 781.082 L751.305 786.962 L746.421 786.962 L746.421 781.082 Z" fill="#000000" fill-rule="nonzero" fill-opacity="1"></path><path clip-path="url(#clip740)" d="M765.518 783.027 L781.837 783.027 L781.837 786.962 L759.893 786.962 L759.893 783.027 Q762.555 780.272 767.138 775.643 Q771.745 770.99 772.925 769.647 Q775.171 767.124 776.05 765.388 Q776.953 763.629 776.953 761.939 Q776.953 759.184 775.009 757.448 Q773.087 755.712 769.986 755.712 Q767.787 755.712 765.333 756.476 Q762.902 757.24 760.125 758.791 L760.125 754.069 Q762.949 752.934 765.402 752.356 Q767.856 751.777 769.893 751.777 Q775.263 751.777 778.458 754.462 Q781.652 757.147 781.652 761.638 Q781.652 763.768 780.842 765.689 Q780.055 767.587 777.949 770.18 Q777.37 770.851 774.268 774.068 Q771.166 777.263 765.518 783.027 Z" fill="#000000" fill-rule="nonzero" fill-opacity="1"></path><path clip-path="url(#clip740)" d="M791.698 752.402 L810.055 752.402 L810.055 756.337 L795.981 756.337 L795.981 764.809 Q796.999 764.462 798.018 764.3 Q799.036 764.115 800.055 764.115 Q805.842 764.115 809.222 767.286 Q812.601 770.457 812.601 775.874 Q812.601 781.453 809.129 784.554 Q805.657 787.633 799.337 787.633 Q797.161 787.633 794.893 787.263 Q792.648 786.892 790.24 786.152 L790.24 781.453 Q792.323 782.587 794.546 783.142 Q796.768 783.698 799.245 783.698 Q803.249 783.698 805.587 781.592 Q807.925 779.485 807.925 775.874 Q807.925 772.263 805.587 770.156 Q803.249 768.05 799.245 768.05 Q797.37 768.05 795.495 768.467 Q793.643 768.883 791.698 769.763 L791.698 752.402 Z" fill="#000000" fill-rule="nonzero" fill-opacity="1"></path><path clip-path="url(#clip740)" d="M1235.15 755.481 Q1231.54 755.481 1229.71 759.045 Q1227.91 762.587 1227.91 769.717 Q1227.91 776.823 1229.71 780.388 Q1231.54 783.929 1235.15 783.929 Q1238.79 783.929 1240.59 780.388 Q1242.42 776.823 1242.42 769.717 Q1242.42 762.587 1240.59 759.045 Q1238.79 755.481 1235.15 755.481 M1235.15 751.777 Q1240.96 751.777 1244.02 756.383 Q1247.1 760.967 1247.1 769.717 Q1247.1 778.443 1244.02 783.05 Q1240.96 787.633 1235.15 787.633 Q1229.34 787.633 1226.26 783.05 Q1223.21 778.443 1223.21 769.717 Q1223.21 760.967 1226.26 756.383 Q1229.34 751.777 1235.15 751.777 Z" fill="#000000" fill-rule="nonzero" fill-opacity="1"></path><path clip-path="url(#clip740)" d="M1255.31 781.082 L1260.2 781.082 L1260.2 786.962 L1255.31 786.962 L1255.31 781.082 Z" fill="#000000" fill-rule="nonzero" fill-opacity="1"></path><path clip-path="url(#clip740)" d="M1270.43 752.402 L1288.79 752.402 L1288.79 756.337 L1274.71 756.337 L1274.71 764.809 Q1275.73 764.462 1276.75 764.3 Q1277.77 764.115 1278.79 764.115 Q1284.57 764.115 1287.95 767.286 Q1291.33 770.457 1291.33 775.874 Q1291.33 781.453 1287.86 784.554 Q1284.39 787.633 1278.07 787.633 Q1275.89 787.633 1273.62 787.263 Q1271.38 786.892 1268.97 786.152 L1268.97 781.453 Q1271.05 782.587 1273.28 783.142 Q1275.5 783.698 1277.98 783.698 Q1281.98 783.698 1284.32 781.592 Q1286.66 779.485 1286.66 775.874 Q1286.66 772.263 1284.32 770.156 Q1281.98 768.05 1277.98 768.05 Q1276.1 768.05 1274.23 768.467 Q1272.37 768.883 1270.43 769.763 L1270.43 752.402 Z" fill="#000000" fill-rule="nonzero" fill-opacity="1"></path><path clip-path="url(#clip740)" d="M1310.54 755.481 Q1306.93 755.481 1305.11 759.045 Q1303.3 762.587 1303.3 769.717 Q1303.3 776.823 1305.11 780.388 Q1306.93 783.929 1310.54 783.929 Q1314.18 783.929 1315.98 780.388 Q1317.81 776.823 1317.81 769.717 Q1317.81 762.587 1315.98 759.045 Q1314.18 755.481 1310.54 755.481 M1310.54 751.777 Q1316.35 751.777 1319.41 756.383 Q1322.49 760.967 1322.49 769.717 Q1322.49 778.443 1319.41 783.05 Q1316.35 787.633 1310.54 787.633 Q1304.73 787.633 1301.66 783.05 Q1298.6 778.443 1298.6 769.717 Q1298.6 760.967 1301.66 756.383 Q1304.73 751.777 1310.54 751.777 Z" fill="#000000" fill-rule="nonzero" fill-opacity="1"></path><path clip-path="url(#clip740)" d="M1745.04 755.481 Q1741.43 755.481 1739.6 759.045 Q1737.79 762.587 1737.79 769.717 Q1737.79 776.823 1739.6 780.388 Q1741.43 783.929 1745.04 783.929 Q1748.67 783.929 1750.48 780.388 Q1752.31 776.823 1752.31 769.717 Q1752.31 762.587 1750.48 759.045 Q1748.67 755.481 1745.04 755.481 M1745.04 751.777 Q1750.85 751.777 1753.91 756.383 Q1756.98 760.967 1756.98 769.717 Q1756.98 778.443 1753.91 783.05 Q1750.85 787.633 1745.04 787.633 Q1739.23 787.633 1736.15 783.05 Q1733.1 778.443 1733.1 769.717 Q1733.1 760.967 1736.15 756.383 Q1739.23 751.777 1745.04 751.777 Z" fill="#000000" fill-rule="nonzero" fill-opacity="1"></path><path clip-path="url(#clip740)" d="M1765.2 781.082 L1770.09 781.082 L1770.09 786.962 L1765.2 786.962 L1765.2 781.082 Z" fill="#000000" fill-rule="nonzero" fill-opacity="1"></path><path clip-path="url(#clip740)" d="M1779.09 752.402 L1801.31 752.402 L1801.31 754.393 L1788.77 786.962 L1783.88 786.962 L1795.69 756.337 L1779.09 756.337 L1779.09 752.402 Z" fill="#000000" fill-rule="nonzero" fill-opacity="1"></path><path clip-path="url(#clip740)" d="M1810.48 752.402 L1828.84 752.402 L1828.84 756.337 L1814.76 756.337 L1814.76 764.809 Q1815.78 764.462 1816.8 764.3 Q1817.82 764.115 1818.84 764.115 Q1824.62 764.115 1828 767.286 Q1831.38 770.457 1831.38 775.874 Q1831.38 781.453 1827.91 784.554 Q1824.44 787.633 1818.12 787.633 Q1815.94 787.633 1813.67 787.263 Q1811.43 786.892 1809.02 786.152 L1809.02 781.453 Q1811.1 782.587 1813.33 783.142 Q1815.55 783.698 1818.03 783.698 Q1822.03 783.698 1824.37 781.592 Q1826.71 779.485 1826.71 775.874 Q1826.71 772.263 1824.37 770.156 Q1822.03 768.05 1818.03 768.05 Q1816.15 768.05 1814.28 768.467 Q1812.42 768.883 1810.48 769.763 L1810.48 752.402 Z" fill="#000000" fill-rule="nonzero" fill-opacity="1"></path><path clip-path="url(#clip740)" d="M2243.7 783.027 L2251.34 783.027 L2251.34 756.661 L2243.03 758.328 L2243.03 754.069 L2251.29 752.402 L2255.97 752.402 L2255.97 783.027 L2263.61 783.027 L2263.61 786.962 L2243.7 786.962 L2243.7 783.027 Z" fill="#000000" fill-rule="nonzero" fill-opacity="1"></path><path clip-path="url(#clip740)" d="M2273.05 781.082 L2277.94 781.082 L2277.94 786.962 L2273.05 786.962 L2273.05 781.082 Z" fill="#000000" fill-rule="nonzero" fill-opacity="1"></path><path clip-path="url(#clip740)" d="M2298.12 755.481 Q2294.51 755.481 2292.68 759.045 Q2290.88 762.587 2290.88 769.717 Q2290.88 776.823 2292.68 780.388 Q2294.51 783.929 2298.12 783.929 Q2301.76 783.929 2303.56 780.388 Q2305.39 776.823 2305.39 769.717 Q2305.39 762.587 2303.56 759.045 Q2301.76 755.481 2298.12 755.481 M2298.12 751.777 Q2303.93 751.777 2306.99 756.383 Q2310.07 760.967 2310.07 769.717 Q2310.07 778.443 2306.99 783.05 Q2303.93 787.633 2298.12 787.633 Q2292.31 787.633 2289.23 783.05 Q2286.18 778.443 2286.18 769.717 Q2286.18 760.967 2289.23 756.383 Q2292.31 751.777 2298.12 751.777 Z" fill="#000000" fill-rule="nonzero" fill-opacity="1"></path><path clip-path="url(#clip740)" d="M2328.28 755.481 Q2324.67 755.481 2322.84 759.045 Q2321.04 762.587 2321.04 769.717 Q2321.04 776.823 2322.84 780.388 Q2324.67 783.929 2328.28 783.929 Q2331.92 783.929 2333.72 780.388 Q2335.55 776.823 2335.55 769.717 Q2335.55 762.587 2333.72 759.045 Q2331.92 755.481 2328.28 755.481 M2328.28 751.777 Q2334.09 751.777 2337.15 756.383 Q2340.23 760.967 2340.23 769.717 Q2340.23 778.443 2337.15 783.05 Q2334.09 787.633 2328.28 787.633 Q2322.47 787.633 2319.4 783.05 Q2316.34 778.443 2316.34 769.717 Q2316.34 760.967 2319.4 756.383 Q2322.47 751.777 2328.28 751.777 Z" fill="#000000" fill-rule="nonzero" fill-opacity="1"></path><polyline clip-path="url(#clip742)" style="stroke:#000000; stroke-linecap:round; stroke-linejoin:round; stroke-width:2; stroke-opacity:0.1; fill:none" points="192.941,585.343 2352.76,585.343 "></polyline>
<polyline clip-path="url(#clip742)" style="stroke:#000000; stroke-linecap:round; stroke-linejoin:round; stroke-width:2; stroke-opacity:0.1; fill:none" points="192.941,431.41 2352.76,431.41 "></polyline>
<polyline clip-path="url(#clip742)" style="stroke:#000000; stroke-linecap:round; stroke-linejoin:round; stroke-width:2; stroke-opacity:0.1; fill:none" points="192.941,277.476 2352.76,277.476 "></polyline>
<polyline clip-path="url(#clip742)" style="stroke:#000000; stroke-linecap:round; stroke-linejoin:round; stroke-width:2; stroke-opacity:0.1; fill:none" points="192.941,123.543 2352.76,123.543 "></polyline>
<polyline clip-path="url(#clip740)" style="stroke:#000000; stroke-linecap:round; stroke-linejoin:round; stroke-width:4; stroke-opacity:1; fill:none" points="192.941,724.562 192.941,123.472 "></polyline>
<polyline clip-path="url(#clip740)" style="stroke:#000000; stroke-linecap:round; stroke-linejoin:round; stroke-width:4; stroke-opacity:1; fill:none" points="192.941,585.343 211.838,585.343 "></polyline>
<polyline clip-path="url(#clip740)" style="stroke:#000000; stroke-linecap:round; stroke-linejoin:round; stroke-width:4; stroke-opacity:1; fill:none" points="192.941,431.41 211.838,431.41 "></polyline>
<polyline clip-path="url(#clip740)" style="stroke:#000000; stroke-linecap:round; stroke-linejoin:round; stroke-width:4; stroke-opacity:1; fill:none" points="192.941,277.476 211.838,277.476 "></polyline>
<polyline clip-path="url(#clip740)" style="stroke:#000000; stroke-linecap:round; stroke-linejoin:round; stroke-width:4; stroke-opacity:1; fill:none" points="192.941,123.543 211.838,123.543 "></polyline>
<path clip-path="url(#clip740)" d="M96.8252 585.794 L126.501 585.794 L126.501 589.729 L96.8252 589.729 L96.8252 585.794 Z" fill="#000000" fill-rule="nonzero" fill-opacity="1"></path><path clip-path="url(#clip740)" d="M140.621 598.688 L156.941 598.688 L156.941 602.623 L134.996 602.623 L134.996 598.688 Q137.658 595.933 142.242 591.303 Q146.848 586.651 148.029 585.308 Q150.274 582.785 151.154 581.049 Q152.056 579.29 152.056 577.6 Q152.056 574.845 150.112 573.109 Q148.191 571.373 145.089 571.373 Q142.89 571.373 140.436 572.137 Q138.006 572.901 135.228 574.452 L135.228 569.73 Q138.052 568.595 140.506 568.017 Q142.959 567.438 144.996 567.438 Q150.367 567.438 153.561 570.123 Q156.755 572.808 156.755 577.299 Q156.755 579.429 155.945 581.35 Q155.158 583.248 153.052 585.841 Q152.473 586.512 149.371 589.729 Q146.269 592.924 140.621 598.688 Z" fill="#000000" fill-rule="nonzero" fill-opacity="1"></path><path clip-path="url(#clip740)" d="M144.996 417.208 Q141.385 417.208 139.556 420.773 Q137.751 424.315 137.751 431.444 Q137.751 438.551 139.556 442.116 Q141.385 445.657 144.996 445.657 Q148.63 445.657 150.436 442.116 Q152.265 438.551 152.265 431.444 Q152.265 424.315 150.436 420.773 Q148.63 417.208 144.996 417.208 M144.996 413.505 Q150.806 413.505 153.862 418.111 Q156.941 422.694 156.941 431.444 Q156.941 440.171 153.862 444.778 Q150.806 449.361 144.996 449.361 Q139.186 449.361 136.107 444.778 Q133.052 440.171 133.052 431.444 Q133.052 422.694 136.107 418.111 Q139.186 413.505 144.996 413.505 Z" fill="#000000" fill-rule="nonzero" fill-opacity="1"></path><path clip-path="url(#clip740)" d="M140.621 290.821 L156.941 290.821 L156.941 294.756 L134.996 294.756 L134.996 290.821 Q137.658 288.067 142.242 283.437 Q146.848 278.784 148.029 277.442 Q150.274 274.919 151.154 273.182 Q152.056 271.423 152.056 269.733 Q152.056 266.979 150.112 265.243 Q148.191 263.507 145.089 263.507 Q142.89 263.507 140.436 264.27 Q138.006 265.034 135.228 266.585 L135.228 261.863 Q138.052 260.729 140.506 260.15 Q142.959 259.571 144.996 259.571 Q150.367 259.571 153.561 262.257 Q156.755 264.942 156.755 269.432 Q156.755 271.562 155.945 273.483 Q155.158 275.382 153.052 277.974 Q152.473 278.645 149.371 281.863 Q146.269 285.057 140.621 290.821 Z" fill="#000000" fill-rule="nonzero" fill-opacity="1"></path><path clip-path="url(#clip740)" d="M147.357 110.337 L135.552 128.786 L147.357 128.786 L147.357 110.337 M146.131 106.263 L152.01 106.263 L152.01 128.786 L156.941 128.786 L156.941 132.675 L152.01 132.675 L152.01 140.823 L147.357 140.823 L147.357 132.675 L131.756 132.675 L131.756 128.161 L146.131 106.263 Z" fill="#000000" fill-rule="nonzero" fill-opacity="1"></path><path clip-path="url(#clip740)" d="M962.752 12.096 L1013.91 12.096 L1013.91 18.9825 L992.445 18.9825 L992.445 72.576 L984.221 72.576 L984.221 18.9825 L962.752 18.9825 L962.752 12.096 Z" fill="#000000" fill-rule="nonzero" fill-opacity="1"></path><path clip-path="url(#clip740)" d="M1024.97 32.4315 Q1018.98 32.4315 1015.49 37.1306 Q1012.01 41.7891 1012.01 49.9314 Q1012.01 58.0738 1015.45 62.7728 Q1018.94 67.4314 1024.97 67.4314 Q1030.93 67.4314 1034.41 62.7323 Q1037.9 58.0333 1037.9 49.9314 Q1037.9 41.8701 1034.41 37.1711 Q1030.93 32.4315 1024.97 32.4315 M1024.97 26.1121 Q1034.7 26.1121 1040.25 32.4315 Q1045.8 38.7509 1045.8 49.9314 Q1045.8 61.0714 1040.25 67.4314 Q1034.7 73.7508 1024.97 73.7508 Q1015.21 73.7508 1009.66 67.4314 Q1004.15 61.0714 1004.15 49.9314 Q1004.15 38.7509 1009.66 32.4315 Q1015.21 26.1121 1024.97 26.1121 Z" fill="#000000" fill-rule="nonzero" fill-opacity="1"></path><path clip-path="url(#clip740)" d="M1084.44 34.1734 Q1083.18 33.4443 1081.69 33.1202 Q1080.23 32.7556 1078.45 32.7556 Q1072.13 32.7556 1068.72 36.8875 Q1065.36 40.9789 1065.36 48.6757 L1065.36 72.576 L1057.87 72.576 L1057.87 27.2059 L1065.36 27.2059 L1065.36 34.2544 Q1067.71 30.1225 1071.48 28.1376 Q1075.25 26.1121 1080.63 26.1121 Q1081.4 26.1121 1082.33 26.2337 Q1083.27 26.3147 1084.4 26.5172 L1084.44 34.1734 Z" fill="#000000" fill-rule="nonzero" fill-opacity="1"></path><path clip-path="url(#clip740)" d="M1095.26 49.9314 Q1095.26 58.1548 1098.62 62.8538 Q1102.02 67.5124 1107.94 67.5124 Q1113.85 67.5124 1117.25 62.8538 Q1120.66 58.1548 1120.66 49.9314 Q1120.66 41.7081 1117.25 37.0496 Q1113.85 32.3505 1107.94 32.3505 Q1102.02 32.3505 1098.62 37.0496 Q1095.26 41.7081 1095.26 49.9314 M1120.66 65.7705 Q1118.31 69.8214 1114.7 71.8063 Q1111.14 73.7508 1106.11 73.7508 Q1097.89 73.7508 1092.7 67.1883 Q1087.56 60.6258 1087.56 49.9314 Q1087.56 39.2371 1092.7 32.6746 Q1097.89 26.1121 1106.11 26.1121 Q1111.14 26.1121 1114.7 28.0971 Q1118.31 30.0415 1120.66 34.0924 L1120.66 27.2059 L1128.11 27.2059 L1128.11 89.8329 L1120.66 89.8329 L1120.66 65.7705 Z" fill="#000000" fill-rule="nonzero" fill-opacity="1"></path><path clip-path="url(#clip740)" d="M1142.69 54.671 L1142.69 27.2059 L1150.15 27.2059 L1150.15 54.3874 Q1150.15 60.8284 1152.66 64.0691 Q1155.17 67.2693 1160.19 67.2693 Q1166.23 67.2693 1169.71 63.421 Q1173.24 59.5726 1173.24 52.9291 L1173.24 27.2059 L1180.69 27.2059 L1180.69 72.576 L1173.24 72.576 L1173.24 65.6084 Q1170.52 69.7404 1166.92 71.7658 Q1163.35 73.7508 1158.61 73.7508 Q1150.79 73.7508 1146.74 68.8897 Q1142.69 64.0286 1142.69 54.671 M1161.45 26.1121 L1161.45 26.1121 Z" fill="#000000" fill-rule="nonzero" fill-opacity="1"></path><path clip-path="url(#clip740)" d="M1234.85 48.0275 L1234.85 51.6733 L1200.58 51.6733 Q1201.07 59.3701 1205.2 63.421 Q1209.37 67.4314 1216.78 67.4314 Q1221.08 67.4314 1225.09 66.3781 Q1229.14 65.3249 1233.11 63.2184 L1233.11 70.267 Q1229.1 71.9684 1224.89 72.8596 Q1220.67 73.7508 1216.34 73.7508 Q1205.48 73.7508 1199.12 67.4314 Q1192.8 61.1119 1192.8 50.3365 Q1192.8 39.1965 1198.8 32.6746 Q1204.83 26.1121 1215.04 26.1121 Q1224.2 26.1121 1229.5 32.0264 Q1234.85 37.9003 1234.85 48.0275 M1227.4 45.84 Q1227.32 39.7232 1223.95 36.0774 Q1220.63 32.4315 1215.12 32.4315 Q1208.88 32.4315 1205.12 35.9558 Q1201.39 39.4801 1200.82 45.8805 L1227.4 45.84 Z" fill="#000000" fill-rule="nonzero" fill-opacity="1"></path><path clip-path="url(#clip740)" d="M1268.11 27.2059 L1276.01 27.2059 L1290.19 65.2844 L1304.36 27.2059 L1312.26 27.2059 L1295.25 72.576 L1285.12 72.576 L1268.11 27.2059 Z" fill="#000000" fill-rule="nonzero" fill-opacity="1"></path><path clip-path="url(#clip740)" d="M1351.48 28.5427 L1351.48 35.5912 Q1348.32 33.9709 1344.91 33.1607 Q1341.51 32.3505 1337.87 32.3505 Q1332.32 32.3505 1329.52 34.0519 Q1326.77 35.7533 1326.77 39.156 Q1326.77 41.7486 1328.75 43.2475 Q1330.74 44.7058 1336.73 46.0426 L1339.28 46.6097 Q1347.22 48.3111 1350.54 51.4303 Q1353.91 54.509 1353.91 60.0587 Q1353.91 66.3781 1348.88 70.0644 Q1343.9 73.7508 1335.15 73.7508 Q1331.51 73.7508 1327.54 73.0216 Q1323.61 72.3329 1319.23 70.9151 L1319.23 63.2184 Q1323.36 65.3654 1327.37 66.4591 Q1331.38 67.5124 1335.31 67.5124 Q1340.58 67.5124 1343.42 65.73 Q1346.25 63.9071 1346.25 60.6258 Q1346.25 57.5877 1344.18 55.9673 Q1342.16 54.3469 1335.23 52.8481 L1332.64 52.2405 Q1325.71 50.7821 1322.63 47.7845 Q1319.56 44.7463 1319.56 39.4801 Q1319.56 33.0797 1324.09 29.5959 Q1328.63 26.1121 1336.97 26.1121 Q1341.11 26.1121 1344.75 26.7198 Q1348.4 27.3274 1351.48 28.5427 Z" fill="#000000" fill-rule="nonzero" fill-opacity="1"></path><path clip-path="url(#clip740)" d="M1384.09 12.096 L1435.25 12.096 L1435.25 18.9825 L1413.78 18.9825 L1413.78 72.576 L1405.56 72.576 L1405.56 18.9825 L1384.09 18.9825 L1384.09 12.096 Z" fill="#000000" fill-rule="nonzero" fill-opacity="1"></path><path clip-path="url(#clip740)" d="M1440.27 27.2059 L1447.73 27.2059 L1447.73 72.576 L1440.27 72.576 L1440.27 27.2059 M1440.27 9.54393 L1447.73 9.54393 L1447.73 18.9825 L1440.27 18.9825 L1440.27 9.54393 Z" fill="#000000" fill-rule="nonzero" fill-opacity="1"></path><path clip-path="url(#clip740)" d="M1498.65 35.9153 Q1501.44 30.8922 1505.33 28.5022 Q1509.22 26.1121 1514.48 26.1121 Q1521.57 26.1121 1525.42 31.0947 Q1529.27 36.0368 1529.27 45.1919 L1529.27 72.576 L1521.78 72.576 L1521.78 45.4349 Q1521.78 38.913 1519.47 35.7533 Q1517.16 32.5936 1512.42 32.5936 Q1506.63 32.5936 1503.26 36.4419 Q1499.9 40.2903 1499.9 46.9338 L1499.9 72.576 L1492.41 72.576 L1492.41 45.4349 Q1492.41 38.8725 1490.1 35.7533 Q1487.79 32.5936 1482.97 32.5936 Q1477.26 32.5936 1473.89 36.4824 Q1470.53 40.3308 1470.53 46.9338 L1470.53 72.576 L1463.04 72.576 L1463.04 27.2059 L1470.53 27.2059 L1470.53 34.2544 Q1473.08 30.082 1476.65 28.0971 Q1480.21 26.1121 1485.12 26.1121 Q1490.06 26.1121 1493.5 28.6237 Q1496.98 31.1352 1498.65 35.9153 Z" fill="#000000" fill-rule="nonzero" fill-opacity="1"></path><path clip-path="url(#clip740)" d="M1582.94 48.0275 L1582.94 51.6733 L1548.67 51.6733 Q1549.16 59.3701 1553.29 63.421 Q1557.46 67.4314 1564.88 67.4314 Q1569.17 67.4314 1573.18 66.3781 Q1577.23 65.3249 1581.2 63.2184 L1581.2 70.267 Q1577.19 71.9684 1572.98 72.8596 Q1568.77 73.7508 1564.43 73.7508 Q1553.58 73.7508 1547.22 67.4314 Q1540.9 61.1119 1540.9 50.3365 Q1540.9 39.1965 1546.89 32.6746 Q1552.93 26.1121 1563.14 26.1121 Q1572.29 26.1121 1577.6 32.0264 Q1582.94 37.9003 1582.94 48.0275 M1575.49 45.84 Q1575.41 39.7232 1572.05 36.0774 Q1568.73 32.4315 1563.22 32.4315 Q1556.98 32.4315 1553.21 35.9558 Q1549.48 39.4801 1548.92 45.8805 L1575.49 45.84 Z" fill="#000000" fill-rule="nonzero" fill-opacity="1"></path><polyline clip-path="url(#clip742)" style="stroke:#009af9; stroke-linecap:round; stroke-linejoin:round; stroke-width:4; stroke-opacity:1; fill:none" points="254.067,286.299 319.795,306.814 385.523,338.825 451.251,380.555 516.979,429.544 582.706,482.801 648.434,536.985 714.162,588.618 779.89,634.309 845.618,670.969 911.345,696.018 977.073,707.55 1042.8,704.47 1108.53,686.566 1174.26,654.531 1239.98,609.93 1305.71,555.103 1371.44,493.027 1437.17,427.128 1502.9,361.069 1568.62,298.524 1634.35,242.946 1700.08,197.352 1765.81,164.137 1831.53,144.928 1897.26,140.484 1962.99,150.658 2028.72,174.413 2094.45,209.895 2160.17,254.563 2225.9,305.358 2291.63,358.904 "></polyline>
<path clip-path="url(#clip740)" d="M264.934 247.188 L690.429 247.188 L690.429 143.508 L264.934 143.508  Z" fill="#ffffff" fill-rule="evenodd" fill-opacity="1"></path>
<polyline clip-path="url(#clip740)" style="stroke:#000000; stroke-linecap:round; stroke-linejoin:round; stroke-width:4; stroke-opacity:1; fill:none" points="264.934,247.188 690.429,247.188 690.429,143.508 264.934,143.508 264.934,247.188 "></polyline>
<polyline clip-path="url(#clip740)" style="stroke:#009af9; stroke-linecap:round; stroke-linejoin:round; stroke-width:4; stroke-opacity:1; fill:none" points="288.932,195.348 432.92,195.348 "></polyline>
<path clip-path="url(#clip740)" d="M456.918 178.068 L486.154 178.068 L486.154 182.004 L473.886 182.004 L473.886 212.628 L469.187 212.628 L469.187 182.004 L456.918 182.004 L456.918 178.068 Z" fill="#000000" fill-rule="nonzero" fill-opacity="1"></path><path clip-path="url(#clip740)" d="M492.473 189.689 Q489.048 189.689 487.057 192.374 Q485.066 195.036 485.066 199.689 Q485.066 204.341 487.034 207.027 Q489.024 209.689 492.473 209.689 Q495.876 209.689 497.867 207.003 Q499.858 204.318 499.858 199.689 Q499.858 195.082 497.867 192.397 Q495.876 189.689 492.473 189.689 M492.473 186.078 Q498.029 186.078 501.2 189.689 Q504.372 193.3 504.372 199.689 Q504.372 206.054 501.2 209.689 Q498.029 213.3 492.473 213.3 Q486.895 213.3 483.723 209.689 Q480.575 206.054 480.575 199.689 Q480.575 193.3 483.723 189.689 Q486.895 186.078 492.473 186.078 Z" fill="#000000" fill-rule="nonzero" fill-opacity="1"></path><path clip-path="url(#clip740)" d="M526.455 190.684 Q525.737 190.267 524.881 190.082 Q524.047 189.874 523.029 189.874 Q519.418 189.874 517.473 192.235 Q515.552 194.573 515.552 198.971 L515.552 212.628 L511.27 212.628 L511.27 186.703 L515.552 186.703 L515.552 190.73 Q516.895 188.369 519.047 187.235 Q521.2 186.078 524.279 186.078 Q524.719 186.078 525.251 186.147 Q525.783 186.193 526.432 186.309 L526.455 190.684 Z" fill="#000000" fill-rule="nonzero" fill-opacity="1"></path><path clip-path="url(#clip740)" d="M532.635 199.689 Q532.635 204.388 534.557 207.073 Q536.501 209.735 539.881 209.735 Q543.26 209.735 545.205 207.073 Q547.149 204.388 547.149 199.689 Q547.149 194.99 545.205 192.328 Q543.26 189.642 539.881 189.642 Q536.501 189.642 534.557 192.328 Q532.635 194.99 532.635 199.689 M547.149 208.74 Q545.806 211.054 543.746 212.189 Q541.709 213.3 538.839 213.3 Q534.14 213.3 531.177 209.55 Q528.237 205.8 528.237 199.689 Q528.237 193.578 531.177 189.828 Q534.14 186.078 538.839 186.078 Q541.709 186.078 543.746 187.212 Q545.806 188.323 547.149 190.638 L547.149 186.703 L551.408 186.703 L551.408 222.49 L547.149 222.49 L547.149 208.74 Z" fill="#000000" fill-rule="nonzero" fill-opacity="1"></path><path clip-path="url(#clip740)" d="M559.742 202.397 L559.742 186.703 L564.001 186.703 L564.001 202.235 Q564.001 205.916 565.436 207.767 Q566.871 209.596 569.742 209.596 Q573.191 209.596 575.181 207.397 Q577.195 205.198 577.195 201.402 L577.195 186.703 L581.454 186.703 L581.454 212.628 L577.195 212.628 L577.195 208.647 Q575.644 211.008 573.584 212.165 Q571.547 213.3 568.839 213.3 Q564.371 213.3 562.056 210.522 Q559.742 207.744 559.742 202.397 M570.459 186.078 L570.459 186.078 Z" fill="#000000" fill-rule="nonzero" fill-opacity="1"></path><path clip-path="url(#clip740)" d="M612.403 198.601 L612.403 200.684 L592.82 200.684 Q593.098 205.082 595.459 207.397 Q597.843 209.689 602.079 209.689 Q604.533 209.689 606.825 209.087 Q609.139 208.485 611.408 207.281 L611.408 211.309 Q609.116 212.281 606.709 212.79 Q604.302 213.3 601.825 213.3 Q595.621 213.3 591.987 209.689 Q588.376 206.078 588.376 199.92 Q588.376 193.554 591.802 189.828 Q595.251 186.078 601.084 186.078 Q606.315 186.078 609.348 189.457 Q612.403 192.814 612.403 198.601 M608.144 197.351 Q608.098 193.855 606.177 191.772 Q604.278 189.689 601.13 189.689 Q597.565 189.689 595.413 191.703 Q593.283 193.717 592.959 197.374 L608.144 197.351 Z" fill="#000000" fill-rule="nonzero" fill-opacity="1"></path><path clip-path="url(#clip740)" d="M629.625 176.656 Q626.524 181.98 625.019 187.189 Q623.514 192.397 623.514 197.744 Q623.514 203.091 625.019 208.346 Q626.547 213.578 629.625 218.878 L625.922 218.878 Q622.45 213.439 620.713 208.184 Q619.001 202.929 619.001 197.744 Q619.001 192.582 620.713 187.351 Q622.426 182.119 625.922 176.656 L629.625 176.656 Z" fill="#000000" fill-rule="nonzero" fill-opacity="1"></path><path clip-path="url(#clip740)" d="M642.102 179.342 L642.102 186.703 L650.875 186.703 L650.875 190.013 L642.102 190.013 L642.102 204.087 Q642.102 207.258 642.959 208.161 Q643.838 209.064 646.5 209.064 L650.875 209.064 L650.875 212.628 L646.5 212.628 Q641.57 212.628 639.695 210.8 Q637.82 208.948 637.82 204.087 L637.82 190.013 L634.695 190.013 L634.695 186.703 L637.82 186.703 L637.82 179.342 L642.102 179.342 Z" fill="#000000" fill-rule="nonzero" fill-opacity="1"></path><path clip-path="url(#clip740)" d="M655.806 176.656 L659.51 176.656 Q662.982 182.119 664.695 187.351 Q666.431 192.582 666.431 197.744 Q666.431 202.929 664.695 208.184 Q662.982 213.439 659.51 218.878 L655.806 218.878 Q658.885 213.578 660.389 208.346 Q661.917 203.091 661.917 197.744 Q661.917 192.397 660.389 187.189 Q658.885 181.98 655.806 176.656 Z" fill="#000000" fill-rule="nonzero" fill-opacity="1"></path><path clip-path="url(#clip740)" d="M192.941 1486.45 L2352.76 1486.45 L2352.76 885.358 L192.941 885.358  Z" fill="#ffffff" fill-rule="evenodd" fill-opacity="1"></path>
<defs>
  <clipPath id="clip743">
    <rect x="192" y="885" width="2161" height="602"></rect>
  </clipPath>
</defs>
<polyline clip-path="url(#clip743)" style="stroke:#000000; stroke-linecap:round; stroke-linejoin:round; stroke-width:2; stroke-opacity:0.1; fill:none" points="254.067,1486.45 254.067,885.358 "></polyline>
<polyline clip-path="url(#clip743)" style="stroke:#000000; stroke-linecap:round; stroke-linejoin:round; stroke-width:2; stroke-opacity:0.1; fill:none" points="763.458,1486.45 763.458,885.358 "></polyline>
<polyline clip-path="url(#clip743)" style="stroke:#000000; stroke-linecap:round; stroke-linejoin:round; stroke-width:2; stroke-opacity:0.1; fill:none" points="1272.85,1486.45 1272.85,885.358 "></polyline>
<polyline clip-path="url(#clip743)" style="stroke:#000000; stroke-linecap:round; stroke-linejoin:round; stroke-width:2; stroke-opacity:0.1; fill:none" points="1782.24,1486.45 1782.24,885.358 "></polyline>
<polyline clip-path="url(#clip743)" style="stroke:#000000; stroke-linecap:round; stroke-linejoin:round; stroke-width:2; stroke-opacity:0.1; fill:none" points="2291.63,1486.45 2291.63,885.358 "></polyline>
<polyline clip-path="url(#clip740)" style="stroke:#000000; stroke-linecap:round; stroke-linejoin:round; stroke-width:4; stroke-opacity:1; fill:none" points="192.941,1486.45 2352.76,1486.45 "></polyline>
<polyline clip-path="url(#clip740)" style="stroke:#000000; stroke-linecap:round; stroke-linejoin:round; stroke-width:4; stroke-opacity:1; fill:none" points="254.067,1486.45 254.067,1467.55 "></polyline>
<polyline clip-path="url(#clip740)" style="stroke:#000000; stroke-linecap:round; stroke-linejoin:round; stroke-width:4; stroke-opacity:1; fill:none" points="763.458,1486.45 763.458,1467.55 "></polyline>
<polyline clip-path="url(#clip740)" style="stroke:#000000; stroke-linecap:round; stroke-linejoin:round; stroke-width:4; stroke-opacity:1; fill:none" points="1272.85,1486.45 1272.85,1467.55 "></polyline>
<polyline clip-path="url(#clip740)" style="stroke:#000000; stroke-linecap:round; stroke-linejoin:round; stroke-width:4; stroke-opacity:1; fill:none" points="1782.24,1486.45 1782.24,1467.55 "></polyline>
<polyline clip-path="url(#clip740)" style="stroke:#000000; stroke-linecap:round; stroke-linejoin:round; stroke-width:4; stroke-opacity:1; fill:none" points="2291.63,1486.45 2291.63,1467.55 "></polyline>
<path clip-path="url(#clip740)" d="M216.371 1517.37 Q212.76 1517.37 210.931 1520.93 Q209.126 1524.47 209.126 1531.6 Q209.126 1538.71 210.931 1542.27 Q212.76 1545.82 216.371 1545.82 Q220.005 1545.82 221.811 1542.27 Q223.639 1538.71 223.639 1531.6 Q223.639 1524.47 221.811 1520.93 Q220.005 1517.37 216.371 1517.37 M216.371 1513.66 Q222.181 1513.66 225.237 1518.27 Q228.315 1522.85 228.315 1531.6 Q228.315 1540.33 225.237 1544.94 Q222.181 1549.52 216.371 1549.52 Q210.561 1549.52 207.482 1544.94 Q204.427 1540.33 204.427 1531.6 Q204.427 1522.85 207.482 1518.27 Q210.561 1513.66 216.371 1513.66 Z" fill="#000000" fill-rule="nonzero" fill-opacity="1"></path><path clip-path="url(#clip740)" d="M236.533 1542.97 L241.417 1542.97 L241.417 1548.85 L236.533 1548.85 L236.533 1542.97 Z" fill="#000000" fill-rule="nonzero" fill-opacity="1"></path><path clip-path="url(#clip740)" d="M261.602 1517.37 Q257.991 1517.37 256.162 1520.93 Q254.357 1524.47 254.357 1531.6 Q254.357 1538.71 256.162 1542.27 Q257.991 1545.82 261.602 1545.82 Q265.236 1545.82 267.042 1542.27 Q268.871 1538.71 268.871 1531.6 Q268.871 1524.47 267.042 1520.93 Q265.236 1517.37 261.602 1517.37 M261.602 1513.66 Q267.412 1513.66 270.468 1518.27 Q273.547 1522.85 273.547 1531.6 Q273.547 1540.33 270.468 1544.94 Q267.412 1549.52 261.602 1549.52 Q255.792 1549.52 252.713 1544.94 Q249.658 1540.33 249.658 1531.6 Q249.658 1522.85 252.713 1518.27 Q255.792 1513.66 261.602 1513.66 Z" fill="#000000" fill-rule="nonzero" fill-opacity="1"></path><path clip-path="url(#clip740)" d="M291.764 1517.37 Q288.153 1517.37 286.324 1520.93 Q284.519 1524.47 284.519 1531.6 Q284.519 1538.71 286.324 1542.27 Q288.153 1545.82 291.764 1545.82 Q295.398 1545.82 297.204 1542.27 Q299.033 1538.71 299.033 1531.6 Q299.033 1524.47 297.204 1520.93 Q295.398 1517.37 291.764 1517.37 M291.764 1513.66 Q297.574 1513.66 300.63 1518.27 Q303.708 1522.85 303.708 1531.6 Q303.708 1540.33 300.63 1544.94 Q297.574 1549.52 291.764 1549.52 Q285.954 1549.52 282.875 1544.94 Q279.82 1540.33 279.82 1531.6 Q279.82 1522.85 282.875 1518.27 Q285.954 1513.66 291.764 1513.66 Z" fill="#000000" fill-rule="nonzero" fill-opacity="1"></path><path clip-path="url(#clip740)" d="M726.259 1517.37 Q722.648 1517.37 720.819 1520.93 Q719.014 1524.47 719.014 1531.6 Q719.014 1538.71 720.819 1542.27 Q722.648 1545.82 726.259 1545.82 Q729.893 1545.82 731.699 1542.27 Q733.527 1538.71 733.527 1531.6 Q733.527 1524.47 731.699 1520.93 Q729.893 1517.37 726.259 1517.37 M726.259 1513.66 Q732.069 1513.66 735.125 1518.27 Q738.203 1522.85 738.203 1531.6 Q738.203 1540.33 735.125 1544.94 Q732.069 1549.52 726.259 1549.52 Q720.449 1549.52 717.37 1544.94 Q714.315 1540.33 714.315 1531.6 Q714.315 1522.85 717.37 1518.27 Q720.449 1513.66 726.259 1513.66 Z" fill="#000000" fill-rule="nonzero" fill-opacity="1"></path><path clip-path="url(#clip740)" d="M746.421 1542.97 L751.305 1542.97 L751.305 1548.85 L746.421 1548.85 L746.421 1542.97 Z" fill="#000000" fill-rule="nonzero" fill-opacity="1"></path><path clip-path="url(#clip740)" d="M765.518 1544.91 L781.837 1544.91 L781.837 1548.85 L759.893 1548.85 L759.893 1544.91 Q762.555 1542.16 767.138 1537.53 Q771.745 1532.88 772.925 1531.53 Q775.171 1529.01 776.05 1527.27 Q776.953 1525.51 776.953 1523.82 Q776.953 1521.07 775.009 1519.33 Q773.087 1517.6 769.986 1517.6 Q767.787 1517.6 765.333 1518.36 Q762.902 1519.13 760.125 1520.68 L760.125 1515.95 Q762.949 1514.82 765.402 1514.24 Q767.856 1513.66 769.893 1513.66 Q775.263 1513.66 778.458 1516.35 Q781.652 1519.03 781.652 1523.52 Q781.652 1525.65 780.842 1527.57 Q780.055 1529.47 777.949 1532.07 Q777.37 1532.74 774.268 1535.95 Q771.166 1539.15 765.518 1544.91 Z" fill="#000000" fill-rule="nonzero" fill-opacity="1"></path><path clip-path="url(#clip740)" d="M791.698 1514.29 L810.055 1514.29 L810.055 1518.22 L795.981 1518.22 L795.981 1526.7 Q796.999 1526.35 798.018 1526.19 Q799.036 1526 800.055 1526 Q805.842 1526 809.222 1529.17 Q812.601 1532.34 812.601 1537.76 Q812.601 1543.34 809.129 1546.44 Q805.657 1549.52 799.337 1549.52 Q797.161 1549.52 794.893 1549.15 Q792.648 1548.78 790.24 1548.04 L790.24 1543.34 Q792.323 1544.47 794.546 1545.03 Q796.768 1545.58 799.245 1545.58 Q803.249 1545.58 805.587 1543.48 Q807.925 1541.37 807.925 1537.76 Q807.925 1534.15 805.587 1532.04 Q803.249 1529.94 799.245 1529.94 Q797.37 1529.94 795.495 1530.35 Q793.643 1530.77 791.698 1531.65 L791.698 1514.29 Z" fill="#000000" fill-rule="nonzero" fill-opacity="1"></path><path clip-path="url(#clip740)" d="M1235.15 1517.37 Q1231.54 1517.37 1229.71 1520.93 Q1227.91 1524.47 1227.91 1531.6 Q1227.91 1538.71 1229.71 1542.27 Q1231.54 1545.82 1235.15 1545.82 Q1238.79 1545.82 1240.59 1542.27 Q1242.42 1538.71 1242.42 1531.6 Q1242.42 1524.47 1240.59 1520.93 Q1238.79 1517.37 1235.15 1517.37 M1235.15 1513.66 Q1240.96 1513.66 1244.02 1518.27 Q1247.1 1522.85 1247.1 1531.6 Q1247.1 1540.33 1244.02 1544.94 Q1240.96 1549.52 1235.15 1549.52 Q1229.34 1549.52 1226.26 1544.94 Q1223.21 1540.33 1223.21 1531.6 Q1223.21 1522.85 1226.26 1518.27 Q1229.34 1513.66 1235.15 1513.66 Z" fill="#000000" fill-rule="nonzero" fill-opacity="1"></path><path clip-path="url(#clip740)" d="M1255.31 1542.97 L1260.2 1542.97 L1260.2 1548.85 L1255.31 1548.85 L1255.31 1542.97 Z" fill="#000000" fill-rule="nonzero" fill-opacity="1"></path><path clip-path="url(#clip740)" d="M1270.43 1514.29 L1288.79 1514.29 L1288.79 1518.22 L1274.71 1518.22 L1274.71 1526.7 Q1275.73 1526.35 1276.75 1526.19 Q1277.77 1526 1278.79 1526 Q1284.57 1526 1287.95 1529.17 Q1291.33 1532.34 1291.33 1537.76 Q1291.33 1543.34 1287.86 1546.44 Q1284.39 1549.52 1278.07 1549.52 Q1275.89 1549.52 1273.62 1549.15 Q1271.38 1548.78 1268.97 1548.04 L1268.97 1543.34 Q1271.05 1544.47 1273.28 1545.03 Q1275.5 1545.58 1277.98 1545.58 Q1281.98 1545.58 1284.32 1543.48 Q1286.66 1541.37 1286.66 1537.76 Q1286.66 1534.15 1284.32 1532.04 Q1281.98 1529.94 1277.98 1529.94 Q1276.1 1529.94 1274.23 1530.35 Q1272.37 1530.77 1270.43 1531.65 L1270.43 1514.29 Z" fill="#000000" fill-rule="nonzero" fill-opacity="1"></path><path clip-path="url(#clip740)" d="M1310.54 1517.37 Q1306.93 1517.37 1305.11 1520.93 Q1303.3 1524.47 1303.3 1531.6 Q1303.3 1538.71 1305.11 1542.27 Q1306.93 1545.82 1310.54 1545.82 Q1314.18 1545.82 1315.98 1542.27 Q1317.81 1538.71 1317.81 1531.6 Q1317.81 1524.47 1315.98 1520.93 Q1314.18 1517.37 1310.54 1517.37 M1310.54 1513.66 Q1316.35 1513.66 1319.41 1518.27 Q1322.49 1522.85 1322.49 1531.6 Q1322.49 1540.33 1319.41 1544.94 Q1316.35 1549.52 1310.54 1549.52 Q1304.73 1549.52 1301.66 1544.94 Q1298.6 1540.33 1298.6 1531.6 Q1298.6 1522.85 1301.66 1518.27 Q1304.73 1513.66 1310.54 1513.66 Z" fill="#000000" fill-rule="nonzero" fill-opacity="1"></path><path clip-path="url(#clip740)" d="M1745.04 1517.37 Q1741.43 1517.37 1739.6 1520.93 Q1737.79 1524.47 1737.79 1531.6 Q1737.79 1538.71 1739.6 1542.27 Q1741.43 1545.82 1745.04 1545.82 Q1748.67 1545.82 1750.48 1542.27 Q1752.31 1538.71 1752.31 1531.6 Q1752.31 1524.47 1750.48 1520.93 Q1748.67 1517.37 1745.04 1517.37 M1745.04 1513.66 Q1750.85 1513.66 1753.91 1518.27 Q1756.98 1522.85 1756.98 1531.6 Q1756.98 1540.33 1753.91 1544.94 Q1750.85 1549.52 1745.04 1549.52 Q1739.23 1549.52 1736.15 1544.94 Q1733.1 1540.33 1733.1 1531.6 Q1733.1 1522.85 1736.15 1518.27 Q1739.23 1513.66 1745.04 1513.66 Z" fill="#000000" fill-rule="nonzero" fill-opacity="1"></path><path clip-path="url(#clip740)" d="M1765.2 1542.97 L1770.09 1542.97 L1770.09 1548.85 L1765.2 1548.85 L1765.2 1542.97 Z" fill="#000000" fill-rule="nonzero" fill-opacity="1"></path><path clip-path="url(#clip740)" d="M1779.09 1514.29 L1801.31 1514.29 L1801.31 1516.28 L1788.77 1548.85 L1783.88 1548.85 L1795.69 1518.22 L1779.09 1518.22 L1779.09 1514.29 Z" fill="#000000" fill-rule="nonzero" fill-opacity="1"></path><path clip-path="url(#clip740)" d="M1810.48 1514.29 L1828.84 1514.29 L1828.84 1518.22 L1814.76 1518.22 L1814.76 1526.7 Q1815.78 1526.35 1816.8 1526.19 Q1817.82 1526 1818.84 1526 Q1824.62 1526 1828 1529.17 Q1831.38 1532.34 1831.38 1537.76 Q1831.38 1543.34 1827.91 1546.44 Q1824.44 1549.52 1818.12 1549.52 Q1815.94 1549.52 1813.67 1549.15 Q1811.43 1548.78 1809.02 1548.04 L1809.02 1543.34 Q1811.1 1544.47 1813.33 1545.03 Q1815.55 1545.58 1818.03 1545.58 Q1822.03 1545.58 1824.37 1543.48 Q1826.71 1541.37 1826.71 1537.76 Q1826.71 1534.15 1824.37 1532.04 Q1822.03 1529.94 1818.03 1529.94 Q1816.15 1529.94 1814.28 1530.35 Q1812.42 1530.77 1810.48 1531.65 L1810.48 1514.29 Z" fill="#000000" fill-rule="nonzero" fill-opacity="1"></path><path clip-path="url(#clip740)" d="M2243.7 1544.91 L2251.34 1544.91 L2251.34 1518.55 L2243.03 1520.21 L2243.03 1515.95 L2251.29 1514.29 L2255.97 1514.29 L2255.97 1544.91 L2263.61 1544.91 L2263.61 1548.85 L2243.7 1548.85 L2243.7 1544.91 Z" fill="#000000" fill-rule="nonzero" fill-opacity="1"></path><path clip-path="url(#clip740)" d="M2273.05 1542.97 L2277.94 1542.97 L2277.94 1548.85 L2273.05 1548.85 L2273.05 1542.97 Z" fill="#000000" fill-rule="nonzero" fill-opacity="1"></path><path clip-path="url(#clip740)" d="M2298.12 1517.37 Q2294.51 1517.37 2292.68 1520.93 Q2290.88 1524.47 2290.88 1531.6 Q2290.88 1538.71 2292.68 1542.27 Q2294.51 1545.82 2298.12 1545.82 Q2301.76 1545.82 2303.56 1542.27 Q2305.39 1538.71 2305.39 1531.6 Q2305.39 1524.47 2303.56 1520.93 Q2301.76 1517.37 2298.12 1517.37 M2298.12 1513.66 Q2303.93 1513.66 2306.99 1518.27 Q2310.07 1522.85 2310.07 1531.6 Q2310.07 1540.33 2306.99 1544.94 Q2303.93 1549.52 2298.12 1549.52 Q2292.31 1549.52 2289.23 1544.94 Q2286.18 1540.33 2286.18 1531.6 Q2286.18 1522.85 2289.23 1518.27 Q2292.31 1513.66 2298.12 1513.66 Z" fill="#000000" fill-rule="nonzero" fill-opacity="1"></path><path clip-path="url(#clip740)" d="M2328.28 1517.37 Q2324.67 1517.37 2322.84 1520.93 Q2321.04 1524.47 2321.04 1531.6 Q2321.04 1538.71 2322.84 1542.27 Q2324.67 1545.82 2328.28 1545.82 Q2331.92 1545.82 2333.72 1542.27 Q2335.55 1538.71 2335.55 1531.6 Q2335.55 1524.47 2333.72 1520.93 Q2331.92 1517.37 2328.28 1517.37 M2328.28 1513.66 Q2334.09 1513.66 2337.15 1518.27 Q2340.23 1522.85 2340.23 1531.6 Q2340.23 1540.33 2337.15 1544.94 Q2334.09 1549.52 2328.28 1549.52 Q2322.47 1549.52 2319.4 1544.94 Q2316.34 1540.33 2316.34 1531.6 Q2316.34 1522.85 2319.4 1518.27 Q2322.47 1513.66 2328.28 1513.66 Z" fill="#000000" fill-rule="nonzero" fill-opacity="1"></path><polyline clip-path="url(#clip743)" style="stroke:#000000; stroke-linecap:round; stroke-linejoin:round; stroke-width:2; stroke-opacity:0.1; fill:none" points="192.941,1385.53 2352.76,1385.53 "></polyline>
<polyline clip-path="url(#clip743)" style="stroke:#000000; stroke-linecap:round; stroke-linejoin:round; stroke-width:2; stroke-opacity:0.1; fill:none" points="192.941,1277.11 2352.76,1277.11 "></polyline>
<polyline clip-path="url(#clip743)" style="stroke:#000000; stroke-linecap:round; stroke-linejoin:round; stroke-width:2; stroke-opacity:0.1; fill:none" points="192.941,1168.68 2352.76,1168.68 "></polyline>
<polyline clip-path="url(#clip743)" style="stroke:#000000; stroke-linecap:round; stroke-linejoin:round; stroke-width:2; stroke-opacity:0.1; fill:none" points="192.941,1060.26 2352.76,1060.26 "></polyline>
<polyline clip-path="url(#clip743)" style="stroke:#000000; stroke-linecap:round; stroke-linejoin:round; stroke-width:2; stroke-opacity:0.1; fill:none" points="192.941,951.835 2352.76,951.835 "></polyline>
<polyline clip-path="url(#clip740)" style="stroke:#000000; stroke-linecap:round; stroke-linejoin:round; stroke-width:4; stroke-opacity:1; fill:none" points="192.941,1486.45 192.941,885.358 "></polyline>
<polyline clip-path="url(#clip740)" style="stroke:#000000; stroke-linecap:round; stroke-linejoin:round; stroke-width:4; stroke-opacity:1; fill:none" points="192.941,1385.53 211.838,1385.53 "></polyline>
<polyline clip-path="url(#clip740)" style="stroke:#000000; stroke-linecap:round; stroke-linejoin:round; stroke-width:4; stroke-opacity:1; fill:none" points="192.941,1277.11 211.838,1277.11 "></polyline>
<polyline clip-path="url(#clip740)" style="stroke:#000000; stroke-linecap:round; stroke-linejoin:round; stroke-width:4; stroke-opacity:1; fill:none" points="192.941,1168.68 211.838,1168.68 "></polyline>
<polyline clip-path="url(#clip740)" style="stroke:#000000; stroke-linecap:round; stroke-linejoin:round; stroke-width:4; stroke-opacity:1; fill:none" points="192.941,1060.26 211.838,1060.26 "></polyline>
<polyline clip-path="url(#clip740)" style="stroke:#000000; stroke-linecap:round; stroke-linejoin:round; stroke-width:4; stroke-opacity:1; fill:none" points="192.941,951.835 211.838,951.835 "></polyline>
<path clip-path="url(#clip740)" d="M50.9921 1385.98 L80.6679 1385.98 L80.6679 1389.92 L50.9921 1389.92 L50.9921 1385.98 Z" fill="#000000" fill-rule="nonzero" fill-opacity="1"></path><path clip-path="url(#clip740)" d="M100.76 1371.33 Q97.1493 1371.33 95.3206 1374.9 Q93.515 1378.44 93.515 1385.57 Q93.515 1392.67 95.3206 1396.24 Q97.1493 1399.78 100.76 1399.78 Q104.395 1399.78 106.2 1396.24 Q108.029 1392.67 108.029 1385.57 Q108.029 1378.44 106.2 1374.9 Q104.395 1371.33 100.76 1371.33 M100.76 1367.63 Q106.571 1367.63 109.626 1372.23 Q112.705 1376.82 112.705 1385.57 Q112.705 1394.29 109.626 1398.9 Q106.571 1403.48 100.76 1403.48 Q94.9502 1403.48 91.8715 1398.9 Q88.816 1394.29 88.816 1385.57 Q88.816 1376.82 91.8715 1372.23 Q94.9502 1367.63 100.76 1367.63 Z" fill="#000000" fill-rule="nonzero" fill-opacity="1"></path><path clip-path="url(#clip740)" d="M120.922 1396.93 L125.807 1396.93 L125.807 1402.81 L120.922 1402.81 L120.922 1396.93 Z" fill="#000000" fill-rule="nonzero" fill-opacity="1"></path><path clip-path="url(#clip740)" d="M136.038 1368.25 L154.394 1368.25 L154.394 1372.19 L140.32 1372.19 L140.32 1380.66 Q141.339 1380.31 142.357 1380.15 Q143.376 1379.97 144.394 1379.97 Q150.181 1379.97 153.561 1383.14 Q156.941 1386.31 156.941 1391.72 Q156.941 1397.3 153.468 1400.41 Q149.996 1403.48 143.677 1403.48 Q141.501 1403.48 139.232 1403.11 Q136.987 1402.74 134.58 1402 L134.58 1397.3 Q136.663 1398.44 138.885 1398.99 Q141.107 1399.55 143.584 1399.55 Q147.589 1399.55 149.927 1397.44 Q152.265 1395.34 152.265 1391.72 Q152.265 1388.11 149.927 1386.01 Q147.589 1383.9 143.584 1383.9 Q141.709 1383.9 139.834 1384.32 Q137.982 1384.73 136.038 1385.61 L136.038 1368.25 Z" fill="#000000" fill-rule="nonzero" fill-opacity="1"></path><path clip-path="url(#clip740)" d="M99.765 1262.91 Q96.1539 1262.91 94.3252 1266.47 Q92.5197 1270.01 92.5197 1277.14 Q92.5197 1284.25 94.3252 1287.81 Q96.1539 1291.36 99.765 1291.36 Q103.399 1291.36 105.205 1287.81 Q107.033 1284.25 107.033 1277.14 Q107.033 1270.01 105.205 1266.47 Q103.399 1262.91 99.765 1262.91 M99.765 1259.2 Q105.575 1259.2 108.631 1263.81 Q111.709 1268.39 111.709 1277.14 Q111.709 1285.87 108.631 1290.48 Q105.575 1295.06 99.765 1295.06 Q93.9549 1295.06 90.8762 1290.48 Q87.8206 1285.87 87.8206 1277.14 Q87.8206 1268.39 90.8762 1263.81 Q93.9549 1259.2 99.765 1259.2 Z" fill="#000000" fill-rule="nonzero" fill-opacity="1"></path><path clip-path="url(#clip740)" d="M119.927 1288.51 L124.811 1288.51 L124.811 1294.39 L119.927 1294.39 L119.927 1288.51 Z" fill="#000000" fill-rule="nonzero" fill-opacity="1"></path><path clip-path="url(#clip740)" d="M144.996 1262.91 Q141.385 1262.91 139.556 1266.47 Q137.751 1270.01 137.751 1277.14 Q137.751 1284.25 139.556 1287.81 Q141.385 1291.36 144.996 1291.36 Q148.63 1291.36 150.436 1287.81 Q152.265 1284.25 152.265 1277.14 Q152.265 1270.01 150.436 1266.47 Q148.63 1262.91 144.996 1262.91 M144.996 1259.2 Q150.806 1259.2 153.862 1263.81 Q156.941 1268.39 156.941 1277.14 Q156.941 1285.87 153.862 1290.48 Q150.806 1295.06 144.996 1295.06 Q139.186 1295.06 136.107 1290.48 Q133.052 1285.87 133.052 1277.14 Q133.052 1268.39 136.107 1263.81 Q139.186 1259.2 144.996 1259.2 Z" fill="#000000" fill-rule="nonzero" fill-opacity="1"></path><path clip-path="url(#clip740)" d="M100.76 1154.48 Q97.1493 1154.48 95.3206 1158.05 Q93.515 1161.59 93.515 1168.72 Q93.515 1175.82 95.3206 1179.39 Q97.1493 1182.93 100.76 1182.93 Q104.395 1182.93 106.2 1179.39 Q108.029 1175.82 108.029 1168.72 Q108.029 1161.59 106.2 1158.05 Q104.395 1154.48 100.76 1154.48 M100.76 1150.78 Q106.571 1150.78 109.626 1155.39 Q112.705 1159.97 112.705 1168.72 Q112.705 1177.45 109.626 1182.05 Q106.571 1186.63 100.76 1186.63 Q94.9502 1186.63 91.8715 1182.05 Q88.816 1177.45 88.816 1168.72 Q88.816 1159.97 91.8715 1155.39 Q94.9502 1150.78 100.76 1150.78 Z" fill="#000000" fill-rule="nonzero" fill-opacity="1"></path><path clip-path="url(#clip740)" d="M120.922 1180.08 L125.807 1180.08 L125.807 1185.96 L120.922 1185.96 L120.922 1180.08 Z" fill="#000000" fill-rule="nonzero" fill-opacity="1"></path><path clip-path="url(#clip740)" d="M136.038 1151.4 L154.394 1151.4 L154.394 1155.34 L140.32 1155.34 L140.32 1163.81 Q141.339 1163.46 142.357 1163.3 Q143.376 1163.12 144.394 1163.12 Q150.181 1163.12 153.561 1166.29 Q156.941 1169.46 156.941 1174.88 Q156.941 1180.45 153.468 1183.56 Q149.996 1186.63 143.677 1186.63 Q141.501 1186.63 139.232 1186.26 Q136.987 1185.89 134.58 1185.15 L134.58 1180.45 Q136.663 1181.59 138.885 1182.14 Q141.107 1182.7 143.584 1182.7 Q147.589 1182.7 149.927 1180.59 Q152.265 1178.49 152.265 1174.88 Q152.265 1171.26 149.927 1169.16 Q147.589 1167.05 143.584 1167.05 Q141.709 1167.05 139.834 1167.47 Q137.982 1167.89 136.038 1168.76 L136.038 1151.4 Z" fill="#000000" fill-rule="nonzero" fill-opacity="1"></path><path clip-path="url(#clip740)" d="M90.5752 1073.6 L98.2141 1073.6 L98.2141 1047.24 L89.904 1048.91 L89.904 1044.65 L98.1678 1042.98 L102.844 1042.98 L102.844 1073.6 L110.483 1073.6 L110.483 1077.54 L90.5752 1077.54 L90.5752 1073.6 Z" fill="#000000" fill-rule="nonzero" fill-opacity="1"></path><path clip-path="url(#clip740)" d="M119.927 1071.66 L124.811 1071.66 L124.811 1077.54 L119.927 1077.54 L119.927 1071.66 Z" fill="#000000" fill-rule="nonzero" fill-opacity="1"></path><path clip-path="url(#clip740)" d="M144.996 1046.06 Q141.385 1046.06 139.556 1049.62 Q137.751 1053.16 137.751 1060.29 Q137.751 1067.4 139.556 1070.97 Q141.385 1074.51 144.996 1074.51 Q148.63 1074.51 150.436 1070.97 Q152.265 1067.4 152.265 1060.29 Q152.265 1053.16 150.436 1049.62 Q148.63 1046.06 144.996 1046.06 M144.996 1042.35 Q150.806 1042.35 153.862 1046.96 Q156.941 1051.54 156.941 1060.29 Q156.941 1069.02 153.862 1073.63 Q150.806 1078.21 144.996 1078.21 Q139.186 1078.21 136.107 1073.63 Q133.052 1069.02 133.052 1060.29 Q133.052 1051.54 136.107 1046.96 Q139.186 1042.35 144.996 1042.35 Z" fill="#000000" fill-rule="nonzero" fill-opacity="1"></path><path clip-path="url(#clip740)" d="M91.5706 965.179 L99.2095 965.179 L99.2095 938.814 L90.8993 940.48 L90.8993 936.221 L99.1632 934.555 L103.839 934.555 L103.839 965.179 L111.478 965.179 L111.478 969.115 L91.5706 969.115 L91.5706 965.179 Z" fill="#000000" fill-rule="nonzero" fill-opacity="1"></path><path clip-path="url(#clip740)" d="M120.922 963.235 L125.807 963.235 L125.807 969.115 L120.922 969.115 L120.922 963.235 Z" fill="#000000" fill-rule="nonzero" fill-opacity="1"></path><path clip-path="url(#clip740)" d="M136.038 934.555 L154.394 934.555 L154.394 938.49 L140.32 938.49 L140.32 946.962 Q141.339 946.615 142.357 946.453 Q143.376 946.268 144.394 946.268 Q150.181 946.268 153.561 949.439 Q156.941 952.61 156.941 958.027 Q156.941 963.605 153.468 966.707 Q149.996 969.786 143.677 969.786 Q141.501 969.786 139.232 969.416 Q136.987 969.045 134.58 968.304 L134.58 963.605 Q136.663 964.74 138.885 965.295 Q141.107 965.851 143.584 965.851 Q147.589 965.851 149.927 963.744 Q152.265 961.638 152.265 958.027 Q152.265 954.416 149.927 952.309 Q147.589 950.203 143.584 950.203 Q141.709 950.203 139.834 950.619 Q137.982 951.036 136.038 951.916 L136.038 934.555 Z" fill="#000000" fill-rule="nonzero" fill-opacity="1"></path><polyline clip-path="url(#clip743)" style="stroke:#000000; stroke-linecap:round; stroke-linejoin:round; stroke-width:4; stroke-opacity:1; fill:none" points="254.067,1447.81 319.795,1446.13 385.523,1442.58 451.251,1437.31 516.979,1430.49 582.706,1422.36 648.434,1413.15 714.162,1403.1 779.89,1392.47 845.618,1381.49 911.345,1370.35 977.073,1359.25 1042.8,1348.32 1108.53,1337.64 1174.26,1327.27 1239.98,1317.2 1305.71,1307.42 1371.44,1297.84 1437.17,1288.38 1502.9,1278.94 1568.62,1269.44 1634.35,1259.78 1700.08,1249.9 1765.81,1239.78 1831.53,1229.43 1897.26,1218.88 1962.99,1208.25 2028.72,1197.65 2094.45,1187.27 2160.17,1177.3 2225.9,1167.95 2291.63,1159.43 "></polyline>
<polyline clip-path="url(#clip743)" style="stroke:#ff0000; stroke-linecap:round; stroke-linejoin:round; stroke-width:4; stroke-opacity:1; fill:none" points="254.067,1255.36 319.795,1195.45 385.523,1139.45 451.251,1088.7 516.979,1044.28 582.706,1007 648.434,977.314 714.162,955.353 779.89,940.873 845.618,933.287 911.345,931.693 977.073,934.949 1042.8,941.761 1108.53,950.728 1174.26,960.453 1239.98,969.656 1305.71,977.278 1371.44,982.492 1437.17,984.792 1502.9,984.044 1568.62,980.451 1634.35,974.549 1700.08,967.209 1765.81,959.531 1831.53,952.79 1897.26,948.288 1962.99,947.309 2028.72,951.051 2094.45,960.502 2160.17,976.376 2225.9,999.043 2291.63,1028.53 "></polyline>
<polyline clip-path="url(#clip743)" style="stroke:#0000ff; stroke-linecap:round; stroke-linejoin:round; stroke-width:4; stroke-opacity:1; fill:none" points="254.067,1450.81 319.795,1446.31 385.523,1441.08 451.251,1435.04 516.979,1428.14 582.706,1420.31 648.434,1411.55 714.162,1401.88 779.89,1391.42 845.618,1380.36 911.345,1369.03 977.073,1357.76 1042.8,1346.89 1108.53,1336.62 1174.26,1326.94 1239.98,1317.69 1305.71,1308.56 1371.44,1299.27 1437.17,1289.63 1502.9,1279.62 1568.62,1269.31 1634.35,1258.81 1700.08,1248.2 1765.81,1237.54 1831.53,1226.83 1897.26,1216.07 1962.99,1205.32 2028.72,1194.69 2094.45,1184.36 2160.17,1174.57 2225.9,1165.53 2291.63,1157.44 "></polyline>
<polyline clip-path="url(#clip743)" style="stroke:#ffa500; stroke-linecap:round; stroke-linejoin:round; stroke-width:4; stroke-opacity:1; fill:none" points="254.067,1243.58 319.795,1192.66 385.523,1132.25 451.251,1083.15 516.979,1042.3 582.706,1005.4 648.434,976.226 714.162,954.405 779.89,939.197 845.618,931.632 911.345,930.759 977.073,934.136 1042.8,940.588 1108.53,949.775 1174.26,960.455 1239.98,970.758 1305.71,979.405 1371.44,985.136 1437.17,986.882 1502.9,985.508 1568.62,982.387 1634.35,977.439 1700.08,970.525 1765.81,962.569 1831.53,954.756 1897.26,948.195 1962.99,944.982 2028.72,947.806 2094.45,957.427 2160.17,972.408 2225.9,990.932 2291.63,1009.86 "></polyline>
<circle clip-path="url(#clip743)" cx="254.067" cy="1439.33" r="14.4" fill="#800080" fill-rule="evenodd" fill-opacity="1" stroke="#000000" stroke-opacity="1" stroke-width="3.2"></circle>
<circle clip-path="url(#clip743)" cx="319.795" cy="1453.2" r="14.4" fill="#800080" fill-rule="evenodd" fill-opacity="1" stroke="#000000" stroke-opacity="1" stroke-width="3.2"></circle>
<circle clip-path="url(#clip743)" cx="385.523" cy="1411.93" r="14.4" fill="#800080" fill-rule="evenodd" fill-opacity="1" stroke="#000000" stroke-opacity="1" stroke-width="3.2"></circle>
<circle clip-path="url(#clip743)" cx="451.251" cy="1402.26" r="14.4" fill="#800080" fill-rule="evenodd" fill-opacity="1" stroke="#000000" stroke-opacity="1" stroke-width="3.2"></circle>
<circle clip-path="url(#clip743)" cx="516.979" cy="1431.48" r="14.4" fill="#800080" fill-rule="evenodd" fill-opacity="1" stroke="#000000" stroke-opacity="1" stroke-width="3.2"></circle>
<circle clip-path="url(#clip743)" cx="582.706" cy="1469.44" r="14.4" fill="#800080" fill-rule="evenodd" fill-opacity="1" stroke="#000000" stroke-opacity="1" stroke-width="3.2"></circle>
<circle clip-path="url(#clip743)" cx="648.434" cy="1459.48" r="14.4" fill="#800080" fill-rule="evenodd" fill-opacity="1" stroke="#000000" stroke-opacity="1" stroke-width="3.2"></circle>
<circle clip-path="url(#clip743)" cx="714.162" cy="1421.48" r="14.4" fill="#800080" fill-rule="evenodd" fill-opacity="1" stroke="#000000" stroke-opacity="1" stroke-width="3.2"></circle>
<circle clip-path="url(#clip743)" cx="779.89" cy="1390.43" r="14.4" fill="#800080" fill-rule="evenodd" fill-opacity="1" stroke="#000000" stroke-opacity="1" stroke-width="3.2"></circle>
<circle clip-path="url(#clip743)" cx="845.618" cy="1400.17" r="14.4" fill="#800080" fill-rule="evenodd" fill-opacity="1" stroke="#000000" stroke-opacity="1" stroke-width="3.2"></circle>
<circle clip-path="url(#clip743)" cx="911.345" cy="1362.18" r="14.4" fill="#800080" fill-rule="evenodd" fill-opacity="1" stroke="#000000" stroke-opacity="1" stroke-width="3.2"></circle>
<circle clip-path="url(#clip743)" cx="977.073" cy="1365.48" r="14.4" fill="#800080" fill-rule="evenodd" fill-opacity="1" stroke="#000000" stroke-opacity="1" stroke-width="3.2"></circle>
<circle clip-path="url(#clip743)" cx="1042.8" cy="1383.08" r="14.4" fill="#800080" fill-rule="evenodd" fill-opacity="1" stroke="#000000" stroke-opacity="1" stroke-width="3.2"></circle>
<circle clip-path="url(#clip743)" cx="1108.53" cy="1339.39" r="14.4" fill="#800080" fill-rule="evenodd" fill-opacity="1" stroke="#000000" stroke-opacity="1" stroke-width="3.2"></circle>
<circle clip-path="url(#clip743)" cx="1174.26" cy="1332.17" r="14.4" fill="#800080" fill-rule="evenodd" fill-opacity="1" stroke="#000000" stroke-opacity="1" stroke-width="3.2"></circle>
<circle clip-path="url(#clip743)" cx="1239.98" cy="1313.02" r="14.4" fill="#800080" fill-rule="evenodd" fill-opacity="1" stroke="#000000" stroke-opacity="1" stroke-width="3.2"></circle>
<circle clip-path="url(#clip743)" cx="1305.71" cy="1350.22" r="14.4" fill="#800080" fill-rule="evenodd" fill-opacity="1" stroke="#000000" stroke-opacity="1" stroke-width="3.2"></circle>
<circle clip-path="url(#clip743)" cx="1371.44" cy="1274.08" r="14.4" fill="#800080" fill-rule="evenodd" fill-opacity="1" stroke="#000000" stroke-opacity="1" stroke-width="3.2"></circle>
<circle clip-path="url(#clip743)" cx="1437.17" cy="1279.94" r="14.4" fill="#800080" fill-rule="evenodd" fill-opacity="1" stroke="#000000" stroke-opacity="1" stroke-width="3.2"></circle>
<circle clip-path="url(#clip743)" cx="1502.9" cy="1266.22" r="14.4" fill="#800080" fill-rule="evenodd" fill-opacity="1" stroke="#000000" stroke-opacity="1" stroke-width="3.2"></circle>
<circle clip-path="url(#clip743)" cx="1568.62" cy="1263.65" r="14.4" fill="#800080" fill-rule="evenodd" fill-opacity="1" stroke="#000000" stroke-opacity="1" stroke-width="3.2"></circle>
<circle clip-path="url(#clip743)" cx="1634.35" cy="1249.17" r="14.4" fill="#800080" fill-rule="evenodd" fill-opacity="1" stroke="#000000" stroke-opacity="1" stroke-width="3.2"></circle>
<circle clip-path="url(#clip743)" cx="1700.08" cy="1272.97" r="14.4" fill="#800080" fill-rule="evenodd" fill-opacity="1" stroke="#000000" stroke-opacity="1" stroke-width="3.2"></circle>
<circle clip-path="url(#clip743)" cx="1765.81" cy="1210.24" r="14.4" fill="#800080" fill-rule="evenodd" fill-opacity="1" stroke="#000000" stroke-opacity="1" stroke-width="3.2"></circle>
<circle clip-path="url(#clip743)" cx="1831.53" cy="1213.37" r="14.4" fill="#800080" fill-rule="evenodd" fill-opacity="1" stroke="#000000" stroke-opacity="1" stroke-width="3.2"></circle>
<circle clip-path="url(#clip743)" cx="1897.26" cy="1187.83" r="14.4" fill="#800080" fill-rule="evenodd" fill-opacity="1" stroke="#000000" stroke-opacity="1" stroke-width="3.2"></circle>
<circle clip-path="url(#clip743)" cx="1962.99" cy="1269.79" r="14.4" fill="#800080" fill-rule="evenodd" fill-opacity="1" stroke="#000000" stroke-opacity="1" stroke-width="3.2"></circle>
<circle clip-path="url(#clip743)" cx="2028.72" cy="1171.78" r="14.4" fill="#800080" fill-rule="evenodd" fill-opacity="1" stroke="#000000" stroke-opacity="1" stroke-width="3.2"></circle>
<circle clip-path="url(#clip743)" cx="2094.45" cy="1219.6" r="14.4" fill="#800080" fill-rule="evenodd" fill-opacity="1" stroke="#000000" stroke-opacity="1" stroke-width="3.2"></circle>
<circle clip-path="url(#clip743)" cx="2160.17" cy="1176.97" r="14.4" fill="#800080" fill-rule="evenodd" fill-opacity="1" stroke="#000000" stroke-opacity="1" stroke-width="3.2"></circle>
<circle clip-path="url(#clip743)" cx="2225.9" cy="1125.18" r="14.4" fill="#800080" fill-rule="evenodd" fill-opacity="1" stroke="#000000" stroke-opacity="1" stroke-width="3.2"></circle>
<circle clip-path="url(#clip743)" cx="2291.63" cy="1164.05" r="14.4" fill="#800080" fill-rule="evenodd" fill-opacity="1" stroke="#000000" stroke-opacity="1" stroke-width="3.2"></circle>
<circle clip-path="url(#clip743)" cx="254.067" cy="1245.52" r="14.4" fill="#ffff00" fill-rule="evenodd" fill-opacity="1" stroke="#000000" stroke-opacity="1" stroke-width="3.2"></circle>
<circle clip-path="url(#clip743)" cx="319.795" cy="1200.01" r="14.4" fill="#ffff00" fill-rule="evenodd" fill-opacity="1" stroke="#000000" stroke-opacity="1" stroke-width="3.2"></circle>
<circle clip-path="url(#clip743)" cx="385.523" cy="1155.53" r="14.4" fill="#ffff00" fill-rule="evenodd" fill-opacity="1" stroke="#000000" stroke-opacity="1" stroke-width="3.2"></circle>
<circle clip-path="url(#clip743)" cx="451.251" cy="1113.74" r="14.4" fill="#ffff00" fill-rule="evenodd" fill-opacity="1" stroke="#000000" stroke-opacity="1" stroke-width="3.2"></circle>
<circle clip-path="url(#clip743)" cx="516.979" cy="1016.15" r="14.4" fill="#ffff00" fill-rule="evenodd" fill-opacity="1" stroke="#000000" stroke-opacity="1" stroke-width="3.2"></circle>
<circle clip-path="url(#clip743)" cx="582.706" cy="1013.4" r="14.4" fill="#ffff00" fill-rule="evenodd" fill-opacity="1" stroke="#000000" stroke-opacity="1" stroke-width="3.2"></circle>
<circle clip-path="url(#clip743)" cx="648.434" cy="969.204" r="14.4" fill="#ffff00" fill-rule="evenodd" fill-opacity="1" stroke="#000000" stroke-opacity="1" stroke-width="3.2"></circle>
<circle clip-path="url(#clip743)" cx="714.162" cy="964.428" r="14.4" fill="#ffff00" fill-rule="evenodd" fill-opacity="1" stroke="#000000" stroke-opacity="1" stroke-width="3.2"></circle>
<circle clip-path="url(#clip743)" cx="779.89" cy="928.727" r="14.4" fill="#ffff00" fill-rule="evenodd" fill-opacity="1" stroke="#000000" stroke-opacity="1" stroke-width="3.2"></circle>
<circle clip-path="url(#clip743)" cx="845.618" cy="943.755" r="14.4" fill="#ffff00" fill-rule="evenodd" fill-opacity="1" stroke="#000000" stroke-opacity="1" stroke-width="3.2"></circle>
<circle clip-path="url(#clip743)" cx="911.345" cy="945.406" r="14.4" fill="#ffff00" fill-rule="evenodd" fill-opacity="1" stroke="#000000" stroke-opacity="1" stroke-width="3.2"></circle>
<circle clip-path="url(#clip743)" cx="977.073" cy="931.571" r="14.4" fill="#ffff00" fill-rule="evenodd" fill-opacity="1" stroke="#000000" stroke-opacity="1" stroke-width="3.2"></circle>
<circle clip-path="url(#clip743)" cx="1042.8" cy="929.322" r="14.4" fill="#ffff00" fill-rule="evenodd" fill-opacity="1" stroke="#000000" stroke-opacity="1" stroke-width="3.2"></circle>
<circle clip-path="url(#clip743)" cx="1108.53" cy="940.446" r="14.4" fill="#ffff00" fill-rule="evenodd" fill-opacity="1" stroke="#000000" stroke-opacity="1" stroke-width="3.2"></circle>
<circle clip-path="url(#clip743)" cx="1174.26" cy="985.255" r="14.4" fill="#ffff00" fill-rule="evenodd" fill-opacity="1" stroke="#000000" stroke-opacity="1" stroke-width="3.2"></circle>
<circle clip-path="url(#clip743)" cx="1239.98" cy="949.902" r="14.4" fill="#ffff00" fill-rule="evenodd" fill-opacity="1" stroke="#000000" stroke-opacity="1" stroke-width="3.2"></circle>
<circle clip-path="url(#clip743)" cx="1305.71" cy="967.453" r="14.4" fill="#ffff00" fill-rule="evenodd" fill-opacity="1" stroke="#000000" stroke-opacity="1" stroke-width="3.2"></circle>
<circle clip-path="url(#clip743)" cx="1371.44" cy="974.747" r="14.4" fill="#ffff00" fill-rule="evenodd" fill-opacity="1" stroke="#000000" stroke-opacity="1" stroke-width="3.2"></circle>
<circle clip-path="url(#clip743)" cx="1437.17" cy="976.448" r="14.4" fill="#ffff00" fill-rule="evenodd" fill-opacity="1" stroke="#000000" stroke-opacity="1" stroke-width="3.2"></circle>
<circle clip-path="url(#clip743)" cx="1502.9" cy="1012.14" r="14.4" fill="#ffff00" fill-rule="evenodd" fill-opacity="1" stroke="#000000" stroke-opacity="1" stroke-width="3.2"></circle>
<circle clip-path="url(#clip743)" cx="1568.62" cy="974.39" r="14.4" fill="#ffff00" fill-rule="evenodd" fill-opacity="1" stroke="#000000" stroke-opacity="1" stroke-width="3.2"></circle>
<circle clip-path="url(#clip743)" cx="1634.35" cy="993.917" r="14.4" fill="#ffff00" fill-rule="evenodd" fill-opacity="1" stroke="#000000" stroke-opacity="1" stroke-width="3.2"></circle>
<circle clip-path="url(#clip743)" cx="1700.08" cy="982.79" r="14.4" fill="#ffff00" fill-rule="evenodd" fill-opacity="1" stroke="#000000" stroke-opacity="1" stroke-width="3.2"></circle>
<circle clip-path="url(#clip743)" cx="1765.81" cy="969.36" r="14.4" fill="#ffff00" fill-rule="evenodd" fill-opacity="1" stroke="#000000" stroke-opacity="1" stroke-width="3.2"></circle>
<circle clip-path="url(#clip743)" cx="1831.53" cy="965.089" r="14.4" fill="#ffff00" fill-rule="evenodd" fill-opacity="1" stroke="#000000" stroke-opacity="1" stroke-width="3.2"></circle>
<circle clip-path="url(#clip743)" cx="1897.26" cy="933.777" r="14.4" fill="#ffff00" fill-rule="evenodd" fill-opacity="1" stroke="#000000" stroke-opacity="1" stroke-width="3.2"></circle>
<circle clip-path="url(#clip743)" cx="1962.99" cy="948.732" r="14.4" fill="#ffff00" fill-rule="evenodd" fill-opacity="1" stroke="#000000" stroke-opacity="1" stroke-width="3.2"></circle>
<circle clip-path="url(#clip743)" cx="2028.72" cy="902.37" r="14.4" fill="#ffff00" fill-rule="evenodd" fill-opacity="1" stroke="#000000" stroke-opacity="1" stroke-width="3.2"></circle>
<circle clip-path="url(#clip743)" cx="2094.45" cy="924.726" r="14.4" fill="#ffff00" fill-rule="evenodd" fill-opacity="1" stroke="#000000" stroke-opacity="1" stroke-width="3.2"></circle>
<circle clip-path="url(#clip743)" cx="2160.17" cy="947.664" r="14.4" fill="#ffff00" fill-rule="evenodd" fill-opacity="1" stroke="#000000" stroke-opacity="1" stroke-width="3.2"></circle>
<circle clip-path="url(#clip743)" cx="2225.9" cy="1066.18" r="14.4" fill="#ffff00" fill-rule="evenodd" fill-opacity="1" stroke="#000000" stroke-opacity="1" stroke-width="3.2"></circle>
<circle clip-path="url(#clip743)" cx="2291.63" cy="1023.02" r="14.4" fill="#ffff00" fill-rule="evenodd" fill-opacity="1" stroke="#000000" stroke-opacity="1" stroke-width="3.2"></circle>
<path clip-path="url(#clip740)" d="M1919.32 1466.41 L2280.76 1466.41 L2280.76 1103.53 L1919.32 1103.53  Z" fill="#ffffff" fill-rule="evenodd" fill-opacity="1"></path>
<polyline clip-path="url(#clip740)" style="stroke:#000000; stroke-linecap:round; stroke-linejoin:round; stroke-width:4; stroke-opacity:1; fill:none" points="1919.32,1466.41 2280.76,1466.41 2280.76,1103.53 1919.32,1103.53 1919.32,1466.41 "></polyline>
<polyline clip-path="url(#clip740)" style="stroke:#000000; stroke-linecap:round; stroke-linejoin:round; stroke-width:4; stroke-opacity:1; fill:none" points="1943.32,1155.37 2087.3,1155.37 "></polyline>
<path clip-path="url(#clip740)" d="M2130.56 1156.22 L2115.82 1156.22 Q2116.16 1163.14 2117.76 1166.08 Q2119.75 1169.69 2123.2 1169.69 Q2126.67 1169.69 2128.59 1166.05 Q2130.28 1162.86 2130.56 1156.22 M2130.49 1152.28 Q2129.84 1145.71 2128.59 1143.39 Q2126.6 1139.74 2123.2 1139.74 Q2119.66 1139.74 2117.78 1143.35 Q2116.3 1146.26 2115.86 1152.28 L2130.49 1152.28 M2123.2 1136.26 Q2128.76 1136.26 2131.93 1141.17 Q2135.1 1146.05 2135.1 1154.71 Q2135.1 1163.35 2131.93 1168.25 Q2128.76 1173.18 2123.2 1173.18 Q2117.62 1173.18 2114.47 1168.25 Q2111.3 1163.35 2111.3 1154.71 Q2111.3 1146.05 2114.47 1141.17 Q2117.62 1136.26 2123.2 1136.26 Z" fill="#000000" fill-rule="nonzero" fill-opacity="1"></path><path clip-path="url(#clip740)" d="M2165.91 1167.72 L2165.91 1158.44 L2158.27 1158.44 L2158.27 1154.6 L2170.54 1154.6 L2170.54 1169.43 Q2167.83 1171.36 2164.57 1172.35 Q2161.3 1173.32 2157.6 1173.32 Q2149.5 1173.32 2144.91 1168.6 Q2140.35 1163.86 2140.35 1155.41 Q2140.35 1146.93 2144.91 1142.21 Q2149.5 1137.47 2157.6 1137.47 Q2160.98 1137.47 2164.01 1138.3 Q2167.07 1139.13 2169.63 1140.75 L2169.63 1145.73 Q2167.04 1143.53 2164.13 1142.42 Q2161.21 1141.31 2157.99 1141.31 Q2151.65 1141.31 2148.45 1144.85 Q2145.28 1148.39 2145.28 1155.41 Q2145.28 1162.4 2148.45 1165.94 Q2151.65 1169.48 2157.99 1169.48 Q2160.47 1169.48 2162.41 1169.06 Q2164.36 1168.62 2165.91 1167.72 Z" fill="#000000" fill-rule="nonzero" fill-opacity="1"></path><path clip-path="url(#clip740)" d="M2172.6 1138.09 L2201.83 1138.09 L2201.83 1142.03 L2189.57 1142.03 L2189.57 1172.65 L2184.87 1172.65 L2184.87 1142.03 L2172.6 1142.03 L2172.6 1138.09 Z" fill="#000000" fill-rule="nonzero" fill-opacity="1"></path><polyline clip-path="url(#clip740)" style="stroke:#ff0000; stroke-linecap:round; stroke-linejoin:round; stroke-width:4; stroke-opacity:1; fill:none" points="1943.32,1207.21 2087.3,1207.21 "></polyline>
<path clip-path="url(#clip740)" d="M2120.91 1225.16 Q2111.3 1225.16 2111.3 1211.41 Q2111.3 1205.97 2114.89 1198.57 L2119.47 1198.57 Q2116.16 1205.97 2116.16 1211.53 Q2116.16 1221.55 2121.3 1221.55 Q2126 1221.55 2126 1209.1 L2129.94 1209.1 Q2129.94 1221.55 2134.64 1221.55 Q2139.77 1221.55 2139.77 1211.53 Q2139.77 1205.97 2136.46 1198.57 L2141.05 1198.57 Q2144.64 1205.97 2144.64 1211.41 Q2144.64 1225.16 2135.03 1225.16 Q2128.73 1225.16 2127.97 1218.24 Q2127.02 1225.16 2120.91 1225.16 Z" fill="#000000" fill-rule="nonzero" fill-opacity="1"></path><path clip-path="url(#clip740)" d="M2176.09 1219.56 L2176.09 1210.28 L2168.45 1210.28 L2168.45 1206.44 L2180.72 1206.44 L2180.72 1221.27 Q2178.01 1223.2 2174.75 1224.19 Q2171.49 1225.16 2167.78 1225.16 Q2159.68 1225.16 2155.1 1220.44 Q2150.54 1215.7 2150.54 1207.25 Q2150.54 1198.77 2155.1 1194.05 Q2159.68 1189.31 2167.78 1189.31 Q2171.16 1189.31 2174.2 1190.14 Q2177.25 1190.97 2179.82 1192.59 L2179.82 1197.57 Q2177.23 1195.37 2174.31 1194.26 Q2171.39 1193.15 2168.18 1193.15 Q2161.83 1193.15 2158.64 1196.69 Q2155.47 1200.23 2155.47 1207.25 Q2155.47 1214.24 2158.64 1217.78 Q2161.83 1221.32 2168.18 1221.32 Q2170.65 1221.32 2172.6 1220.9 Q2174.54 1220.46 2176.09 1219.56 Z" fill="#000000" fill-rule="nonzero" fill-opacity="1"></path><path clip-path="url(#clip740)" d="M2182.78 1189.93 L2212.02 1189.93 L2212.02 1193.87 L2199.75 1193.87 L2199.75 1224.49 L2195.05 1224.49 L2195.05 1193.87 L2182.78 1193.87 L2182.78 1189.93 Z" fill="#000000" fill-rule="nonzero" fill-opacity="1"></path><polyline clip-path="url(#clip740)" style="stroke:#0000ff; stroke-linecap:round; stroke-linejoin:round; stroke-width:4; stroke-opacity:1; fill:none" points="1943.32,1259.05 2087.3,1259.05 "></polyline>
<path clip-path="url(#clip740)" d="M2130.56 1259.9 L2115.82 1259.9 Q2116.16 1266.82 2117.76 1269.76 Q2119.75 1273.37 2123.2 1273.37 Q2126.67 1273.37 2128.59 1269.73 Q2130.28 1266.54 2130.56 1259.9 M2130.49 1255.96 Q2129.84 1249.39 2128.59 1247.07 Q2126.6 1243.42 2123.2 1243.42 Q2119.66 1243.42 2117.78 1247.03 Q2116.3 1249.94 2115.86 1255.96 L2130.49 1255.96 M2123.2 1239.94 Q2128.76 1239.94 2131.93 1244.85 Q2135.1 1249.73 2135.1 1258.39 Q2135.1 1267.03 2131.93 1271.93 Q2128.76 1276.86 2123.2 1276.86 Q2117.62 1276.86 2114.47 1271.93 Q2111.3 1267.03 2111.3 1258.39 Q2111.3 1249.73 2114.47 1244.85 Q2117.62 1239.94 2123.2 1239.94 Z" fill="#000000" fill-rule="nonzero" fill-opacity="1"></path><path clip-path="url(#clip740)" d="M2147.02 1245.61 L2147.02 1258.6 L2152.9 1258.6 Q2156.16 1258.6 2157.95 1256.91 Q2159.73 1255.22 2159.73 1252.1 Q2159.73 1248.99 2157.95 1247.3 Q2156.16 1245.61 2152.9 1245.61 L2147.02 1245.61 M2142.34 1241.77 L2152.9 1241.77 Q2158.71 1241.77 2161.67 1244.41 Q2164.66 1247.03 2164.66 1252.1 Q2164.66 1257.21 2161.67 1259.83 Q2158.71 1262.44 2152.9 1262.44 L2147.02 1262.44 L2147.02 1276.33 L2142.34 1276.33 L2142.34 1241.77 Z" fill="#000000" fill-rule="nonzero" fill-opacity="1"></path><path clip-path="url(#clip740)" d="M2184.94 1254.39 Q2184.22 1253.97 2183.36 1253.79 Q2182.53 1253.58 2181.51 1253.58 Q2177.9 1253.58 2175.95 1255.94 Q2174.03 1258.28 2174.03 1262.67 L2174.03 1276.33 L2169.75 1276.33 L2169.75 1250.41 L2174.03 1250.41 L2174.03 1254.43 Q2175.38 1252.07 2177.53 1250.94 Q2179.68 1249.78 2182.76 1249.78 Q2183.2 1249.78 2183.73 1249.85 Q2184.26 1249.9 2184.91 1250.01 L2184.94 1254.39 Z" fill="#000000" fill-rule="nonzero" fill-opacity="1"></path><path clip-path="url(#clip740)" d="M2210.54 1262.3 L2210.54 1264.39 L2190.95 1264.39 Q2191.23 1268.79 2193.59 1271.1 Q2195.98 1273.39 2200.21 1273.39 Q2202.67 1273.39 2204.96 1272.79 Q2207.27 1272.19 2209.54 1270.98 L2209.54 1275.01 Q2207.25 1275.98 2204.84 1276.49 Q2202.44 1277 2199.96 1277 Q2193.76 1277 2190.12 1273.39 Q2186.51 1269.78 2186.51 1263.62 Q2186.51 1257.26 2189.94 1253.53 Q2193.38 1249.78 2199.22 1249.78 Q2204.45 1249.78 2207.48 1253.16 Q2210.54 1256.52 2210.54 1262.3 M2206.28 1261.05 Q2206.23 1257.56 2204.31 1255.48 Q2202.41 1253.39 2199.26 1253.39 Q2195.7 1253.39 2193.55 1255.41 Q2191.42 1257.42 2191.09 1261.08 L2206.28 1261.05 Z" fill="#000000" fill-rule="nonzero" fill-opacity="1"></path><path clip-path="url(#clip740)" d="M2234.59 1254.34 L2234.59 1240.31 L2238.85 1240.31 L2238.85 1276.33 L2234.59 1276.33 L2234.59 1272.44 Q2233.25 1274.76 2231.19 1275.89 Q2229.15 1277 2226.28 1277 Q2221.58 1277 2218.62 1273.25 Q2215.68 1269.5 2215.68 1263.39 Q2215.68 1257.28 2218.62 1253.53 Q2221.58 1249.78 2226.28 1249.78 Q2229.15 1249.78 2231.19 1250.92 Q2233.25 1252.03 2234.59 1254.34 M2220.07 1263.39 Q2220.07 1268.09 2222 1270.78 Q2223.94 1273.44 2227.32 1273.44 Q2230.7 1273.44 2232.64 1270.78 Q2234.59 1268.09 2234.59 1263.39 Q2234.59 1258.69 2232.64 1256.03 Q2230.7 1253.35 2227.32 1253.35 Q2223.94 1253.35 2222 1256.03 Q2220.07 1258.69 2220.07 1263.39 Z" fill="#000000" fill-rule="nonzero" fill-opacity="1"></path><polyline clip-path="url(#clip740)" style="stroke:#ffa500; stroke-linecap:round; stroke-linejoin:round; stroke-width:4; stroke-opacity:1; fill:none" points="1943.32,1310.89 2087.3,1310.89 "></polyline>
<path clip-path="url(#clip740)" d="M2120.91 1328.84 Q2111.3 1328.84 2111.3 1315.09 Q2111.3 1309.65 2114.89 1302.25 L2119.47 1302.25 Q2116.16 1309.65 2116.16 1315.21 Q2116.16 1325.23 2121.3 1325.23 Q2126 1325.23 2126 1312.78 L2129.94 1312.78 Q2129.94 1325.23 2134.64 1325.23 Q2139.77 1325.23 2139.77 1315.21 Q2139.77 1309.65 2136.46 1302.25 L2141.05 1302.25 Q2144.64 1309.65 2144.64 1315.09 Q2144.64 1328.84 2135.03 1328.84 Q2128.73 1328.84 2127.97 1321.92 Q2127.02 1328.84 2120.91 1328.84 Z" fill="#000000" fill-rule="nonzero" fill-opacity="1"></path><path clip-path="url(#clip740)" d="M2157.2 1297.45 L2157.2 1310.44 L2163.08 1310.44 Q2166.35 1310.44 2168.13 1308.75 Q2169.91 1307.06 2169.91 1303.94 Q2169.91 1300.83 2168.13 1299.14 Q2166.35 1297.45 2163.08 1297.45 L2157.2 1297.45 M2152.53 1293.61 L2163.08 1293.61 Q2168.89 1293.61 2171.86 1296.25 Q2174.84 1298.87 2174.84 1303.94 Q2174.84 1309.05 2171.86 1311.67 Q2168.89 1314.28 2163.08 1314.28 L2157.2 1314.28 L2157.2 1328.17 L2152.53 1328.17 L2152.53 1293.61 Z" fill="#000000" fill-rule="nonzero" fill-opacity="1"></path><path clip-path="url(#clip740)" d="M2195.12 1306.23 Q2194.4 1305.81 2193.55 1305.63 Q2192.71 1305.42 2191.7 1305.42 Q2188.08 1305.42 2186.14 1307.78 Q2184.22 1310.12 2184.22 1314.51 L2184.22 1328.17 L2179.94 1328.17 L2179.94 1302.25 L2184.22 1302.25 L2184.22 1306.27 Q2185.56 1303.91 2187.71 1302.78 Q2189.87 1301.62 2192.95 1301.62 Q2193.38 1301.62 2193.92 1301.69 Q2194.45 1301.74 2195.1 1301.85 L2195.12 1306.23 Z" fill="#000000" fill-rule="nonzero" fill-opacity="1"></path><path clip-path="url(#clip740)" d="M2220.72 1314.14 L2220.72 1316.23 L2201.14 1316.23 Q2201.42 1320.63 2203.78 1322.94 Q2206.16 1325.23 2210.4 1325.23 Q2212.85 1325.23 2215.14 1324.63 Q2217.46 1324.03 2219.73 1322.82 L2219.73 1326.85 Q2217.44 1327.82 2215.03 1328.33 Q2212.62 1328.84 2210.14 1328.84 Q2203.94 1328.84 2200.31 1325.23 Q2196.69 1321.62 2196.69 1315.46 Q2196.69 1309.1 2200.12 1305.37 Q2203.57 1301.62 2209.4 1301.62 Q2214.63 1301.62 2217.67 1305 Q2220.72 1308.36 2220.72 1314.14 M2216.46 1312.89 Q2216.42 1309.4 2214.5 1307.32 Q2212.6 1305.23 2209.45 1305.23 Q2205.88 1305.23 2203.73 1307.25 Q2201.6 1309.26 2201.28 1312.92 L2216.46 1312.89 Z" fill="#000000" fill-rule="nonzero" fill-opacity="1"></path><path clip-path="url(#clip740)" d="M2244.77 1306.18 L2244.77 1292.15 L2249.03 1292.15 L2249.03 1328.17 L2244.77 1328.17 L2244.77 1324.28 Q2243.43 1326.6 2241.37 1327.73 Q2239.33 1328.84 2236.46 1328.84 Q2231.76 1328.84 2228.8 1325.09 Q2225.86 1321.34 2225.86 1315.23 Q2225.86 1309.12 2228.8 1305.37 Q2231.76 1301.62 2236.46 1301.62 Q2239.33 1301.62 2241.37 1302.76 Q2243.43 1303.87 2244.77 1306.18 M2230.26 1315.23 Q2230.26 1319.93 2232.18 1322.62 Q2234.13 1325.28 2237.5 1325.28 Q2240.88 1325.28 2242.83 1322.62 Q2244.77 1319.93 2244.77 1315.23 Q2244.77 1310.53 2242.83 1307.87 Q2240.88 1305.19 2237.5 1305.19 Q2234.13 1305.19 2232.18 1307.87 Q2230.26 1310.53 2230.26 1315.23 Z" fill="#000000" fill-rule="nonzero" fill-opacity="1"></path><circle clip-path="url(#clip740)" cx="2015.31" cy="1362.73" r="20.48" fill="#800080" fill-rule="evenodd" fill-opacity="1" stroke="#000000" stroke-opacity="1" stroke-width="4.55111"></circle>
<path clip-path="url(#clip740)" d="M2130.56 1363.58 L2115.82 1363.58 Q2116.16 1370.5 2117.76 1373.44 Q2119.75 1377.05 2123.2 1377.05 Q2126.67 1377.05 2128.59 1373.41 Q2130.28 1370.22 2130.56 1363.58 M2130.49 1359.64 Q2129.84 1353.07 2128.59 1350.75 Q2126.6 1347.1 2123.2 1347.1 Q2119.66 1347.1 2117.78 1350.71 Q2116.3 1353.62 2115.86 1359.64 L2130.49 1359.64 M2123.2 1343.62 Q2128.76 1343.62 2131.93 1348.53 Q2135.1 1353.41 2135.1 1362.07 Q2135.1 1370.71 2131.93 1375.61 Q2128.76 1380.54 2123.2 1380.54 Q2117.62 1380.54 2114.47 1375.61 Q2111.3 1370.71 2111.3 1362.07 Q2111.3 1353.41 2114.47 1348.53 Q2117.62 1343.62 2123.2 1343.62 Z" fill="#000000" fill-rule="nonzero" fill-opacity="1"></path><path clip-path="url(#clip740)" d="M2147.02 1349.29 L2147.02 1376.17 L2152.67 1376.17 Q2159.82 1376.17 2163.13 1372.93 Q2166.46 1369.69 2166.46 1362.7 Q2166.46 1355.75 2163.13 1352.53 Q2159.82 1349.29 2152.67 1349.29 L2147.02 1349.29 M2142.34 1345.45 L2151.95 1345.45 Q2162 1345.45 2166.7 1349.64 Q2171.39 1353.81 2171.39 1362.7 Q2171.39 1371.63 2166.67 1375.82 Q2161.95 1380.01 2151.95 1380.01 L2142.34 1380.01 L2142.34 1345.45 Z" fill="#000000" fill-rule="nonzero" fill-opacity="1"></path><path clip-path="url(#clip740)" d="M2190.45 1366.98 Q2185.28 1366.98 2183.29 1368.16 Q2181.3 1369.34 2181.3 1372.19 Q2181.3 1374.46 2182.78 1375.8 Q2184.29 1377.12 2186.86 1377.12 Q2190.4 1377.12 2192.53 1374.62 Q2194.68 1372.09 2194.68 1367.93 L2194.68 1366.98 L2190.45 1366.98 M2198.94 1365.22 L2198.94 1380.01 L2194.68 1380.01 L2194.68 1376.08 Q2193.22 1378.44 2191.05 1379.57 Q2188.87 1380.68 2185.72 1380.68 Q2181.74 1380.68 2179.38 1378.46 Q2177.04 1376.22 2177.04 1372.47 Q2177.04 1368.09 2179.96 1365.87 Q2182.9 1363.65 2188.71 1363.65 L2194.68 1363.65 L2194.68 1363.23 Q2194.68 1360.29 2192.74 1358.69 Q2190.82 1357.07 2187.32 1357.07 Q2185.1 1357.07 2182.99 1357.6 Q2180.88 1358.14 2178.94 1359.2 L2178.94 1355.27 Q2181.28 1354.36 2183.48 1353.92 Q2185.68 1353.46 2187.76 1353.46 Q2193.38 1353.46 2196.16 1356.38 Q2198.94 1359.29 2198.94 1365.22 Z" fill="#000000" fill-rule="nonzero" fill-opacity="1"></path><path clip-path="url(#clip740)" d="M2211.93 1346.72 L2211.93 1354.09 L2220.7 1354.09 L2220.7 1357.4 L2211.93 1357.4 L2211.93 1371.47 Q2211.93 1374.64 2212.78 1375.54 Q2213.66 1376.45 2216.32 1376.45 L2220.7 1376.45 L2220.7 1380.01 L2216.32 1380.01 Q2211.39 1380.01 2209.52 1378.18 Q2207.64 1376.33 2207.64 1371.47 L2207.64 1357.4 L2204.52 1357.4 L2204.52 1354.09 L2207.64 1354.09 L2207.64 1346.72 L2211.93 1346.72 Z" fill="#000000" fill-rule="nonzero" fill-opacity="1"></path><path clip-path="url(#clip740)" d="M2238.08 1366.98 Q2232.92 1366.98 2230.93 1368.16 Q2228.94 1369.34 2228.94 1372.19 Q2228.94 1374.46 2230.42 1375.8 Q2231.93 1377.12 2234.5 1377.12 Q2238.04 1377.12 2240.17 1374.62 Q2242.32 1372.09 2242.32 1367.93 L2242.32 1366.98 L2238.08 1366.98 M2246.58 1365.22 L2246.58 1380.01 L2242.32 1380.01 L2242.32 1376.08 Q2240.86 1378.44 2238.69 1379.57 Q2236.51 1380.68 2233.36 1380.68 Q2229.38 1380.68 2227.02 1378.46 Q2224.68 1376.22 2224.68 1372.47 Q2224.68 1368.09 2227.6 1365.87 Q2230.54 1363.65 2236.35 1363.65 L2242.32 1363.65 L2242.32 1363.23 Q2242.32 1360.29 2240.38 1358.69 Q2238.45 1357.07 2234.96 1357.07 Q2232.74 1357.07 2230.63 1357.6 Q2228.52 1358.14 2226.58 1359.2 L2226.58 1355.27 Q2228.92 1354.36 2231.12 1353.92 Q2233.32 1353.46 2235.4 1353.46 Q2241.02 1353.46 2243.8 1356.38 Q2246.58 1359.29 2246.58 1365.22 Z" fill="#000000" fill-rule="nonzero" fill-opacity="1"></path><circle clip-path="url(#clip740)" cx="2015.31" cy="1414.57" r="20.48" fill="#ffff00" fill-rule="evenodd" fill-opacity="1" stroke="#000000" stroke-opacity="1" stroke-width="4.55111"></circle>
<path clip-path="url(#clip740)" d="M2120.91 1432.52 Q2111.3 1432.52 2111.3 1418.77 Q2111.3 1413.33 2114.89 1405.93 L2119.47 1405.93 Q2116.16 1413.33 2116.16 1418.89 Q2116.16 1428.91 2121.3 1428.91 Q2126 1428.91 2126 1416.46 L2129.94 1416.46 Q2129.94 1428.91 2134.64 1428.91 Q2139.77 1428.91 2139.77 1418.89 Q2139.77 1413.33 2136.46 1405.93 L2141.05 1405.93 Q2144.64 1413.33 2144.64 1418.77 Q2144.64 1432.52 2135.03 1432.52 Q2128.73 1432.52 2127.97 1425.6 Q2127.02 1432.52 2120.91 1432.52 Z" fill="#000000" fill-rule="nonzero" fill-opacity="1"></path><path clip-path="url(#clip740)" d="M2157.2 1401.13 L2157.2 1428.01 L2162.85 1428.01 Q2170.01 1428.01 2173.32 1424.77 Q2176.65 1421.53 2176.65 1414.54 Q2176.65 1407.59 2173.32 1404.37 Q2170.01 1401.13 2162.85 1401.13 L2157.2 1401.13 M2152.53 1397.29 L2162.13 1397.29 Q2172.18 1397.29 2176.88 1401.48 Q2181.58 1405.65 2181.58 1414.54 Q2181.58 1423.47 2176.86 1427.66 Q2172.13 1431.85 2162.13 1431.85 L2152.53 1431.85 L2152.53 1397.29 Z" fill="#000000" fill-rule="nonzero" fill-opacity="1"></path><path clip-path="url(#clip740)" d="M2200.63 1418.82 Q2195.47 1418.82 2193.48 1420 Q2191.49 1421.18 2191.49 1424.03 Q2191.49 1426.3 2192.97 1427.64 Q2194.47 1428.96 2197.04 1428.96 Q2200.58 1428.96 2202.71 1426.46 Q2204.87 1423.93 2204.87 1419.77 L2204.87 1418.82 L2200.63 1418.82 M2209.13 1417.06 L2209.13 1431.85 L2204.87 1431.85 L2204.87 1427.92 Q2203.41 1430.28 2201.23 1431.41 Q2199.06 1432.52 2195.91 1432.52 Q2191.93 1432.52 2189.57 1430.3 Q2187.23 1428.06 2187.23 1424.31 Q2187.23 1419.93 2190.14 1417.71 Q2193.08 1415.49 2198.89 1415.49 L2204.87 1415.49 L2204.87 1415.07 Q2204.87 1412.13 2202.92 1410.53 Q2201 1408.91 2197.51 1408.91 Q2195.28 1408.91 2193.18 1409.44 Q2191.07 1409.98 2189.13 1411.04 L2189.13 1407.11 Q2191.46 1406.2 2193.66 1405.76 Q2195.86 1405.3 2197.94 1405.3 Q2203.57 1405.3 2206.35 1408.22 Q2209.13 1411.13 2209.13 1417.06 Z" fill="#000000" fill-rule="nonzero" fill-opacity="1"></path><path clip-path="url(#clip740)" d="M2222.11 1398.56 L2222.11 1405.93 L2230.88 1405.93 L2230.88 1409.24 L2222.11 1409.24 L2222.11 1423.31 Q2222.11 1426.48 2222.97 1427.38 Q2223.85 1428.29 2226.51 1428.29 L2230.88 1428.29 L2230.88 1431.85 L2226.51 1431.85 Q2221.58 1431.85 2219.7 1430.02 Q2217.83 1428.17 2217.83 1423.31 L2217.83 1409.24 L2214.7 1409.24 L2214.7 1405.93 L2217.83 1405.93 L2217.83 1398.56 L2222.11 1398.56 Z" fill="#000000" fill-rule="nonzero" fill-opacity="1"></path><path clip-path="url(#clip740)" d="M2248.27 1418.82 Q2243.11 1418.82 2241.12 1420 Q2239.13 1421.18 2239.13 1424.03 Q2239.13 1426.3 2240.61 1427.64 Q2242.11 1428.96 2244.68 1428.96 Q2248.22 1428.96 2250.35 1426.46 Q2252.5 1423.93 2252.5 1419.77 L2252.5 1418.82 L2248.27 1418.82 M2256.76 1417.06 L2256.76 1431.85 L2252.5 1431.85 L2252.5 1427.92 Q2251.05 1430.28 2248.87 1431.41 Q2246.69 1432.52 2243.55 1432.52 Q2239.57 1432.52 2237.2 1430.3 Q2234.87 1428.06 2234.87 1424.31 Q2234.87 1419.93 2237.78 1417.71 Q2240.72 1415.49 2246.53 1415.49 L2252.5 1415.49 L2252.5 1415.07 Q2252.5 1412.13 2250.56 1410.53 Q2248.64 1408.91 2245.14 1408.91 Q2242.92 1408.91 2240.82 1409.44 Q2238.71 1409.98 2236.76 1411.04 L2236.76 1407.11 Q2239.1 1406.2 2241.3 1405.76 Q2243.5 1405.3 2245.58 1405.3 Q2251.21 1405.3 2253.99 1408.22 Q2256.76 1411.13 2256.76 1417.06 Z" fill="#000000" fill-rule="nonzero" fill-opacity="1"></path></svg>