<svg xmlns="http://www.w3.org/2000/svg" xmlns:xlink="http://www.w3.org/1999/xlink" width="600" height="400" viewBox="0 0 2400 1600">
<defs>
  <clipPath id="clip300">
    <rect x="0" y="0" width="2400" height="1600"></rect>
  </clipPath>
</defs>
<path clip-path="url(#clip300)" d="M0 1600 L2400 1600 L2400 0 L0 0  Z" fill="#ffffff" fill-rule="evenodd" fill-opacity="1"></path>
<defs>
  <clipPath id="clip301">
    <rect x="480" y="0" width="1681" height="1600"></rect>
  </clipPath>
</defs>
<path clip-path="url(#clip300)" d="M148.057 724.562 L2352.76 724.562 L2352.76 123.472 L148.057 123.472  Z" fill="#ffffff" fill-rule="evenodd" fill-opacity="1"></path>
<defs>
  <clipPath id="clip302">
    <rect x="148" y="123" width="2206" height="602"></rect>
  </clipPath>
</defs>
<polyline clip-path="url(#clip302)" style="stroke:#000000; stroke-linecap:round; stroke-linejoin:round; stroke-width:2; stroke-opacity:0.1; fill:none" points="210.454,724.562 210.454,123.472 "></polyline>
<polyline clip-path="url(#clip302)" style="stroke:#000000; stroke-linecap:round; stroke-linejoin:round; stroke-width:2; stroke-opacity:0.1; fill:none" points="730.43,724.562 730.43,123.472 "></polyline>
<polyline clip-path="url(#clip302)" style="stroke:#000000; stroke-linecap:round; stroke-linejoin:round; stroke-width:2; stroke-opacity:0.1; fill:none" points="1250.41,724.562 1250.41,123.472 "></polyline>
<polyline clip-path="url(#clip302)" style="stroke:#000000; stroke-linecap:round; stroke-linejoin:round; stroke-width:2; stroke-opacity:0.1; fill:none" points="1770.38,724.562 1770.38,123.472 "></polyline>
<polyline clip-path="url(#clip302)" style="stroke:#000000; stroke-linecap:round; stroke-linejoin:round; stroke-width:2; stroke-opacity:0.1; fill:none" points="2290.36,724.562 2290.36,123.472 "></polyline>
<polyline clip-path="url(#clip300)" style="stroke:#000000; stroke-linecap:round; stroke-linejoin:round; stroke-width:4; stroke-opacity:1; fill:none" points="148.057,724.562 2352.76,724.562 "></polyline>
<polyline clip-path="url(#clip300)" style="stroke:#000000; stroke-linecap:round; stroke-linejoin:round; stroke-width:4; stroke-opacity:1; fill:none" points="210.454,724.562 210.454,705.664 "></polyline>
<polyline clip-path="url(#clip300)" style="stroke:#000000; stroke-linecap:round; stroke-linejoin:round; stroke-width:4; stroke-opacity:1; fill:none" points="730.43,724.562 730.43,705.664 "></polyline>
<polyline clip-path="url(#clip300)" style="stroke:#000000; stroke-linecap:round; stroke-linejoin:round; stroke-width:4; stroke-opacity:1; fill:none" points="1250.41,724.562 1250.41,705.664 "></polyline>
<polyline clip-path="url(#clip300)" style="stroke:#000000; stroke-linecap:round; stroke-linejoin:round; stroke-width:4; stroke-opacity:1; fill:none" points="1770.38,724.562 1770.38,705.664 "></polyline>
<polyline clip-path="url(#clip300)" style="stroke:#000000; stroke-linecap:round; stroke-linejoin:round; stroke-width:4; stroke-opacity:1; fill:none" points="2290.36,724.562 2290.36,705.664 "></polyline>
<path clip-path="url(#clip300)" d="M172.757 755.481 Q169.146 755.481 167.317 759.045 Q165.512 762.587 165.512 769.717 Q165.512 776.823 167.317 780.388 Q169.146 783.929 172.757 783.929 Q176.391 783.929 178.197 780.388 Q180.026 776.823 180.026 769.717 Q180.026 762.587 178.197 759.045 Q176.391 755.481 172.757 755.481 M172.757 751.777 Q178.567 751.777 181.623 756.383 Q184.702 760.967 184.702 769.717 Q184.702 778.443 181.623 783.05 Q178.567 787.633 172.757 787.633 Q166.947 787.633 163.868 783.05 Q160.813 778.443 160.813 769.717 Q160.813 760.967 163.868 756.383 Q166.947 751.777 172.757 751.777 Z" fill="#000000" fill-rule="nonzero" fill-opacity="1"></path><path clip-path="url(#clip300)" d="M192.919 781.082 L197.803 781.082 L197.803 786.962 L192.919 786.962 L192.919 781.082 Z" fill="#000000" fill-rule="nonzero" fill-opacity="1"></path><path clip-path="url(#clip300)" d="M217.988 755.481 Q214.377 755.481 212.549 759.045 Q210.743 762.587 210.743 769.717 Q210.743 776.823 212.549 780.388 Q214.377 783.929 217.988 783.929 Q221.623 783.929 223.428 780.388 Q225.257 776.823 225.257 769.717 Q225.257 762.587 223.428 759.045 Q221.623 755.481 217.988 755.481 M217.988 751.777 Q223.799 751.777 226.854 756.383 Q229.933 760.967 229.933 769.717 Q229.933 778.443 226.854 783.05 Q223.799 787.633 217.988 787.633 Q212.178 787.633 209.1 783.05 Q206.044 778.443 206.044 769.717 Q206.044 760.967 209.1 756.383 Q212.178 751.777 217.988 751.777 Z" fill="#000000" fill-rule="nonzero" fill-opacity="1"></path><path clip-path="url(#clip300)" d="M248.15 755.481 Q244.539 755.481 242.711 759.045 Q240.905 762.587 240.905 769.717 Q240.905 776.823 242.711 780.388 Q244.539 783.929 248.15 783.929 Q251.785 783.929 253.59 780.388 Q255.419 776.823 255.419 769.717 Q255.419 762.587 253.59 759.045 Q251.785 755.481 248.15 755.481 M248.15 751.777 Q253.96 751.777 257.016 756.383 Q260.095 760.967 260.095 769.717 Q260.095 778.443 257.016 783.05 Q253.96 787.633 248.15 787.633 Q242.34 787.633 239.261 783.05 Q236.206 778.443 236.206 769.717 Q236.206 760.967 239.261 756.383 Q242.34 751.777 248.15 751.777 Z" fill="#000000" fill-rule="nonzero" fill-opacity="1"></path><path clip-path="url(#clip300)" d="M693.231 755.481 Q689.62 755.481 687.791 759.045 Q685.986 762.587 685.986 769.717 Q685.986 776.823 687.791 780.388 Q689.62 783.929 693.231 783.929 Q696.865 783.929 698.671 780.388 Q700.5 776.823 700.5 769.717 Q700.5 762.587 698.671 759.045 Q696.865 755.481 693.231 755.481 M693.231 751.777 Q699.041 751.777 702.097 756.383 Q705.176 760.967 705.176 769.717 Q705.176 778.443 702.097 783.05 Q699.041 787.633 693.231 787.633 Q687.421 787.633 684.342 783.05 Q681.287 778.443 681.287 769.717 Q681.287 760.967 684.342 756.383 Q687.421 751.777 693.231 751.777 Z" fill="#000000" fill-rule="nonzero" fill-opacity="1"></path><path clip-path="url(#clip300)" d="M713.393 781.082 L718.277 781.082 L718.277 786.962 L713.393 786.962 L713.393 781.082 Z" fill="#000000" fill-rule="nonzero" fill-opacity="1"></path><path clip-path="url(#clip300)" d="M732.49 783.027 L748.81 783.027 L748.81 786.962 L726.865 786.962 L726.865 783.027 Q729.527 780.272 734.111 775.643 Q738.717 770.99 739.898 769.647 Q742.143 767.124 743.023 765.388 Q743.925 763.629 743.925 761.939 Q743.925 759.184 741.981 757.448 Q740.06 755.712 736.958 755.712 Q734.759 755.712 732.305 756.476 Q729.874 757.24 727.097 758.791 L727.097 754.069 Q729.921 752.934 732.374 752.356 Q734.828 751.777 736.865 751.777 Q742.236 751.777 745.43 754.462 Q748.624 757.147 748.624 761.638 Q748.624 763.768 747.814 765.689 Q747.027 767.587 744.921 770.18 Q744.342 770.851 741.24 774.068 Q738.138 777.263 732.49 783.027 Z" fill="#000000" fill-rule="nonzero" fill-opacity="1"></path><path clip-path="url(#clip300)" d="M758.671 752.402 L777.027 752.402 L777.027 756.337 L762.953 756.337 L762.953 764.809 Q763.971 764.462 764.99 764.3 Q766.009 764.115 767.027 764.115 Q772.814 764.115 776.194 767.286 Q779.573 770.457 779.573 775.874 Q779.573 781.453 776.101 784.554 Q772.629 787.633 766.309 787.633 Q764.134 787.633 761.865 787.263 Q759.62 786.892 757.212 786.152 L757.212 781.453 Q759.296 782.587 761.518 783.142 Q763.74 783.698 766.217 783.698 Q770.221 783.698 772.559 781.592 Q774.897 779.485 774.897 775.874 Q774.897 772.263 772.559 770.156 Q770.221 768.05 766.217 768.05 Q764.342 768.05 762.467 768.467 Q760.615 768.883 758.671 769.763 L758.671 752.402 Z" fill="#000000" fill-rule="nonzero" fill-opacity="1"></path><path clip-path="url(#clip300)" d="M1212.71 755.481 Q1209.1 755.481 1207.27 759.045 Q1205.46 762.587 1205.46 769.717 Q1205.46 776.823 1207.27 780.388 Q1209.1 783.929 1212.71 783.929 Q1216.34 783.929 1218.15 780.388 Q1219.98 776.823 1219.98 769.717 Q1219.98 762.587 1218.15 759.045 Q1216.34 755.481 1212.71 755.481 M1212.71 751.777 Q1218.52 751.777 1221.58 756.383 Q1224.65 760.967 1224.65 769.717 Q1224.65 778.443 1221.58 783.05 Q1218.52 787.633 1212.71 787.633 Q1206.9 787.633 1203.82 783.05 Q1200.77 778.443 1200.77 769.717 Q1200.77 760.967 1203.82 756.383 Q1206.9 751.777 1212.71 751.777 Z" fill="#000000" fill-rule="nonzero" fill-opacity="1"></path><path clip-path="url(#clip300)" d="M1232.87 781.082 L1237.76 781.082 L1237.76 786.962 L1232.87 786.962 L1232.87 781.082 Z" fill="#000000" fill-rule="nonzero" fill-opacity="1"></path><path clip-path="url(#clip300)" d="M1247.99 752.402 L1266.34 752.402 L1266.34 756.337 L1252.27 756.337 L1252.27 764.809 Q1253.29 764.462 1254.31 764.3 Q1255.33 764.115 1256.34 764.115 Q1262.13 764.115 1265.51 767.286 Q1268.89 770.457 1268.89 775.874 Q1268.89 781.453 1265.42 784.554 Q1261.95 787.633 1255.63 787.633 Q1253.45 787.633 1251.18 787.263 Q1248.94 786.892 1246.53 786.152 L1246.53 781.453 Q1248.61 782.587 1250.83 783.142 Q1253.06 783.698 1255.53 783.698 Q1259.54 783.698 1261.88 781.592 Q1264.21 779.485 1264.21 775.874 Q1264.21 772.263 1261.88 770.156 Q1259.54 768.05 1255.53 768.05 Q1253.66 768.05 1251.78 768.467 Q1249.93 768.883 1247.99 769.763 L1247.99 752.402 Z" fill="#000000" fill-rule="nonzero" fill-opacity="1"></path><path clip-path="url(#clip300)" d="M1288.1 755.481 Q1284.49 755.481 1282.66 759.045 Q1280.86 762.587 1280.86 769.717 Q1280.86 776.823 1282.66 780.388 Q1284.49 783.929 1288.1 783.929 Q1291.74 783.929 1293.54 780.388 Q1295.37 776.823 1295.37 769.717 Q1295.37 762.587 1293.54 759.045 Q1291.74 755.481 1288.1 755.481 M1288.1 751.777 Q1293.91 751.777 1296.97 756.383 Q1300.05 760.967 1300.05 769.717 Q1300.05 778.443 1296.97 783.05 Q1293.91 787.633 1288.1 787.633 Q1282.29 787.633 1279.21 783.05 Q1276.16 778.443 1276.16 769.717 Q1276.16 760.967 1279.21 756.383 Q1282.29 751.777 1288.1 751.777 Z" fill="#000000" fill-rule="nonzero" fill-opacity="1"></path><path clip-path="url(#clip300)" d="M1733.18 755.481 Q1729.57 755.481 1727.74 759.045 Q1725.94 762.587 1725.94 769.717 Q1725.94 776.823 1727.74 780.388 Q1729.57 783.929 1733.18 783.929 Q1736.82 783.929 1738.62 780.388 Q1740.45 776.823 1740.45 769.717 Q1740.45 762.587 1738.62 759.045 Q1736.82 755.481 1733.18 755.481 M1733.18 751.777 Q1738.99 751.777 1742.05 756.383 Q1745.13 760.967 1745.13 769.717 Q1745.13 778.443 1742.05 783.05 Q1738.99 787.633 1733.18 787.633 Q1727.37 787.633 1724.29 783.05 Q1721.24 778.443 1721.24 769.717 Q1721.24 760.967 1724.29 756.383 Q1727.37 751.777 1733.18 751.777 Z" fill="#000000" fill-rule="nonzero" fill-opacity="1"></path><path clip-path="url(#clip300)" d="M1753.35 781.082 L1758.23 781.082 L1758.23 786.962 L1753.35 786.962 L1753.35 781.082 Z" fill="#000000" fill-rule="nonzero" fill-opacity="1"></path><path clip-path="url(#clip300)" d="M1767.23 752.402 L1789.46 752.402 L1789.46 754.393 L1776.91 786.962 L1772.03 786.962 L1783.83 756.337 L1767.23 756.337 L1767.23 752.402 Z" fill="#000000" fill-rule="nonzero" fill-opacity="1"></path><path clip-path="url(#clip300)" d="M1798.62 752.402 L1816.98 752.402 L1816.98 756.337 L1802.91 756.337 L1802.91 764.809 Q1803.92 764.462 1804.94 764.3 Q1805.96 764.115 1806.98 764.115 Q1812.77 764.115 1816.15 767.286 Q1819.53 770.457 1819.53 775.874 Q1819.53 781.453 1816.05 784.554 Q1812.58 787.633 1806.26 787.633 Q1804.09 787.633 1801.82 787.263 Q1799.57 786.892 1797.16 786.152 L1797.16 781.453 Q1799.25 782.587 1801.47 783.142 Q1803.69 783.698 1806.17 783.698 Q1810.17 783.698 1812.51 781.592 Q1814.85 779.485 1814.85 775.874 Q1814.85 772.263 1812.51 770.156 Q1810.17 768.05 1806.17 768.05 Q1804.29 768.05 1802.42 768.467 Q1800.57 768.883 1798.62 769.763 L1798.62 752.402 Z" fill="#000000" fill-rule="nonzero" fill-opacity="1"></path><path clip-path="url(#clip300)" d="M2242.43 783.027 L2250.07 783.027 L2250.07 756.661 L2241.76 758.328 L2241.76 754.069 L2250.02 752.402 L2254.7 752.402 L2254.7 783.027 L2262.34 783.027 L2262.34 786.962 L2242.43 786.962 L2242.43 783.027 Z" fill="#000000" fill-rule="nonzero" fill-opacity="1"></path><path clip-path="url(#clip300)" d="M2271.78 781.082 L2276.67 781.082 L2276.67 786.962 L2271.78 786.962 L2271.78 781.082 Z" fill="#000000" fill-rule="nonzero" fill-opacity="1"></path><path clip-path="url(#clip300)" d="M2296.85 755.481 Q2293.24 755.481 2291.41 759.045 Q2289.61 762.587 2289.61 769.717 Q2289.61 776.823 2291.41 780.388 Q2293.24 783.929 2296.85 783.929 Q2300.49 783.929 2302.29 780.388 Q2304.12 776.823 2304.12 769.717 Q2304.12 762.587 2302.29 759.045 Q2300.49 755.481 2296.85 755.481 M2296.85 751.777 Q2302.66 751.777 2305.72 756.383 Q2308.8 760.967 2308.8 769.717 Q2308.8 778.443 2305.72 783.05 Q2302.66 787.633 2296.85 787.633 Q2291.04 787.633 2287.96 783.05 Q2284.91 778.443 2284.91 769.717 Q2284.91 760.967 2287.96 756.383 Q2291.04 751.777 2296.85 751.777 Z" fill="#000000" fill-rule="nonzero" fill-opacity="1"></path><path clip-path="url(#clip300)" d="M2327.01 755.481 Q2323.4 755.481 2321.57 759.045 Q2319.77 762.587 2319.77 769.717 Q2319.77 776.823 2321.57 780.388 Q2323.4 783.929 2327.01 783.929 Q2330.65 783.929 2332.45 780.388 Q2334.28 776.823 2334.28 769.717 Q2334.28 762.587 2332.45 759.045 Q2330.65 755.481 2327.01 755.481 M2327.01 751.777 Q2332.82 751.777 2335.88 756.383 Q2338.96 760.967 2338.96 769.717 Q2338.96 778.443 2335.88 783.05 Q2332.82 787.633 2327.01 787.633 Q2321.2 787.633 2318.12 783.05 Q2315.07 778.443 2315.07 769.717 Q2315.07 760.967 2318.12 756.383 Q2321.2 751.777 2327.01 751.777 Z" fill="#000000" fill-rule="nonzero" fill-opacity="1"></path><polyline clip-path="url(#clip302)" style="stroke:#000000; stroke-linecap:round; stroke-linejoin:round; stroke-width:2; stroke-opacity:0.1; fill:none" points="148.057,718.353 2352.76,718.353 "></polyline>
<polyline clip-path="url(#clip302)" style="stroke:#000000; stroke-linecap:round; stroke-linejoin:round; stroke-width:2; stroke-opacity:0.1; fill:none" points="148.057,615.595 2352.76,615.595 "></polyline>
<polyline clip-path="url(#clip302)" style="stroke:#000000; stroke-linecap:round; stroke-linejoin:round; stroke-width:2; stroke-opacity:0.1; fill:none" points="148.057,512.838 2352.76,512.838 "></polyline>
<polyline clip-path="url(#clip302)" style="stroke:#000000; stroke-linecap:round; stroke-linejoin:round; stroke-width:2; stroke-opacity:0.1; fill:none" points="148.057,410.081 2352.76,410.081 "></polyline>
<polyline clip-path="url(#clip302)" style="stroke:#000000; stroke-linecap:round; stroke-linejoin:round; stroke-width:2; stroke-opacity:0.1; fill:none" points="148.057,307.324 2352.76,307.324 "></polyline>
<polyline clip-path="url(#clip302)" style="stroke:#000000; stroke-linecap:round; stroke-linejoin:round; stroke-width:2; stroke-opacity:0.1; fill:none" points="148.057,204.567 2352.76,204.567 "></polyline>
<polyline clip-path="url(#clip300)" style="stroke:#000000; stroke-linecap:round; stroke-linejoin:round; stroke-width:4; stroke-opacity:1; fill:none" points="148.057,724.562 148.057,123.472 "></polyline>
<polyline clip-path="url(#clip300)" style="stroke:#000000; stroke-linecap:round; stroke-linejoin:round; stroke-width:4; stroke-opacity:1; fill:none" points="148.057,718.353 166.954,718.353 "></polyline>
<polyline clip-path="url(#clip300)" style="stroke:#000000; stroke-linecap:round; stroke-linejoin:round; stroke-width:4; stroke-opacity:1; fill:none" points="148.057,615.595 166.954,615.595 "></polyline>
<polyline clip-path="url(#clip300)" style="stroke:#000000; stroke-linecap:round; stroke-linejoin:round; stroke-width:4; stroke-opacity:1; fill:none" points="148.057,512.838 166.954,512.838 "></polyline>
<polyline clip-path="url(#clip300)" style="stroke:#000000; stroke-linecap:round; stroke-linejoin:round; stroke-width:4; stroke-opacity:1; fill:none" points="148.057,410.081 166.954,410.081 "></polyline>
<polyline clip-path="url(#clip300)" style="stroke:#000000; stroke-linecap:round; stroke-linejoin:round; stroke-width:4; stroke-opacity:1; fill:none" points="148.057,307.324 166.954,307.324 "></polyline>
<polyline clip-path="url(#clip300)" style="stroke:#000000; stroke-linecap:round; stroke-linejoin:round; stroke-width:4; stroke-opacity:1; fill:none" points="148.057,204.567 166.954,204.567 "></polyline>
<path clip-path="url(#clip300)" d="M50.9921 718.804 L80.6679 718.804 L80.6679 722.739 L50.9921 722.739 L50.9921 718.804 Z" fill="#000000" fill-rule="nonzero" fill-opacity="1"></path><path clip-path="url(#clip300)" d="M104.927 716.999 Q108.283 717.716 110.158 719.985 Q112.057 722.253 112.057 725.586 Q112.057 730.702 108.538 733.503 Q105.02 736.304 98.5382 736.304 Q96.3623 736.304 94.0475 735.864 Q91.7558 735.447 89.3021 734.591 L89.3021 730.077 Q91.2465 731.211 93.5613 731.79 Q95.8761 732.369 98.3993 732.369 Q102.797 732.369 105.089 730.633 Q107.404 728.897 107.404 725.586 Q107.404 722.531 105.251 720.818 Q103.121 719.082 99.3021 719.082 L95.2743 719.082 L95.2743 715.239 L99.4872 715.239 Q102.936 715.239 104.765 713.874 Q106.594 712.485 106.594 709.892 Q106.594 707.23 104.696 705.818 Q102.821 704.383 99.3021 704.383 Q97.3808 704.383 95.1817 704.799 Q92.9826 705.216 90.3438 706.096 L90.3438 701.929 Q93.0058 701.188 95.3206 700.818 Q97.6585 700.448 99.7187 700.448 Q105.043 700.448 108.145 702.878 Q111.246 705.286 111.246 709.406 Q111.246 712.276 109.603 714.267 Q107.959 716.235 104.927 716.999 Z" fill="#000000" fill-rule="nonzero" fill-opacity="1"></path><path clip-path="url(#clip300)" d="M51.9412 616.047 L81.617 616.047 L81.617 619.982 L51.9412 619.982 L51.9412 616.047 Z" fill="#000000" fill-rule="nonzero" fill-opacity="1"></path><path clip-path="url(#clip300)" d="M95.7373 628.94 L112.057 628.94 L112.057 632.875 L90.1123 632.875 L90.1123 628.94 Q92.7743 626.186 97.3576 621.556 Q101.964 616.903 103.145 615.561 Q105.39 613.038 106.27 611.301 Q107.172 609.542 107.172 607.852 Q107.172 605.098 105.228 603.362 Q103.307 601.626 100.205 601.626 Q98.0058 601.626 95.5521 602.389 Q93.1215 603.153 90.3438 604.704 L90.3438 599.982 Q93.1678 598.848 95.6215 598.269 Q98.0752 597.69 100.112 597.69 Q105.483 597.69 108.677 600.376 Q111.871 603.061 111.871 607.552 Q111.871 609.681 111.061 611.602 Q110.274 613.501 108.168 616.093 Q107.589 616.764 104.487 619.982 Q101.385 623.176 95.7373 628.94 Z" fill="#000000" fill-rule="nonzero" fill-opacity="1"></path><path clip-path="url(#clip300)" d="M51.5708 513.29 L81.2466 513.29 L81.2466 517.225 L51.5708 517.225 L51.5708 513.29 Z" fill="#000000" fill-rule="nonzero" fill-opacity="1"></path><path clip-path="url(#clip300)" d="M92.1493 526.183 L99.7882 526.183 L99.7882 499.817 L91.478 501.484 L91.478 497.225 L99.7419 495.558 L104.418 495.558 L104.418 526.183 L112.057 526.183 L112.057 530.118 L92.1493 530.118 L92.1493 526.183 Z" fill="#000000" fill-rule="nonzero" fill-opacity="1"></path><path clip-path="url(#clip300)" d="M100.112 395.88 Q96.5011 395.88 94.6724 399.444 Q92.8669 402.986 92.8669 410.116 Q92.8669 417.222 94.6724 420.787 Q96.5011 424.329 100.112 424.329 Q103.746 424.329 105.552 420.787 Q107.381 417.222 107.381 410.116 Q107.381 402.986 105.552 399.444 Q103.746 395.88 100.112 395.88 M100.112 392.176 Q105.922 392.176 108.978 396.782 Q112.057 401.366 112.057 410.116 Q112.057 418.843 108.978 423.449 Q105.922 428.032 100.112 428.032 Q94.3021 428.032 91.2234 423.449 Q88.1679 418.843 88.1679 410.116 Q88.1679 401.366 91.2234 396.782 Q94.3021 392.176 100.112 392.176 Z" fill="#000000" fill-rule="nonzero" fill-opacity="1"></path><path clip-path="url(#clip300)" d="M92.1493 320.669 L99.7882 320.669 L99.7882 294.303 L91.478 295.97 L91.478 291.71 L99.7419 290.044 L104.418 290.044 L104.418 320.669 L112.057 320.669 L112.057 324.604 L92.1493 324.604 L92.1493 320.669 Z" fill="#000000" fill-rule="nonzero" fill-opacity="1"></path><path clip-path="url(#clip300)" d="M95.7373 217.911 L112.057 217.911 L112.057 221.847 L90.1123 221.847 L90.1123 217.911 Q92.7743 215.157 97.3576 210.527 Q101.964 205.874 103.145 204.532 Q105.39 202.009 106.27 200.273 Q107.172 198.513 107.172 196.824 Q107.172 194.069 105.228 192.333 Q103.307 190.597 100.205 190.597 Q98.0058 190.597 95.5521 191.361 Q93.1215 192.125 90.3438 193.675 L90.3438 188.953 Q93.1678 187.819 95.6215 187.24 Q98.0752 186.662 100.112 186.662 Q105.483 186.662 108.677 189.347 Q111.871 192.032 111.871 196.523 Q111.871 198.652 111.061 200.574 Q110.274 202.472 108.168 205.064 Q107.589 205.736 104.487 208.953 Q101.385 212.148 95.7373 217.911 Z" fill="#000000" fill-rule="nonzero" fill-opacity="1"></path><path clip-path="url(#clip300)" d="M940.31 12.096 L991.472 12.096 L991.472 18.9825 L970.003 18.9825 L970.003 72.576 L961.779 72.576 L961.779 18.9825 L940.31 18.9825 L940.31 12.096 Z" fill="#000000" fill-rule="nonzero" fill-opacity="1"></path><path clip-path="url(#clip300)" d="M1002.53 32.4315 Q996.536 32.4315 993.052 37.1306 Q989.569 41.7891 989.569 49.9314 Q989.569 58.0738 993.012 62.7728 Q996.496 67.4314 1002.53 67.4314 Q1008.49 67.4314 1011.97 62.7323 Q1015.45 58.0333 1015.45 49.9314 Q1015.45 41.8701 1011.97 37.1711 Q1008.49 32.4315 1002.53 32.4315 M1002.53 26.1121 Q1012.25 26.1121 1017.8 32.4315 Q1023.35 38.7509 1023.35 49.9314 Q1023.35 61.0714 1017.8 67.4314 Q1012.25 73.7508 1002.53 73.7508 Q992.769 73.7508 987.219 67.4314 Q981.71 61.0714 981.71 49.9314 Q981.71 38.7509 987.219 32.4315 Q992.769 26.1121 1002.53 26.1121 Z" fill="#000000" fill-rule="nonzero" fill-opacity="1"></path><path clip-path="url(#clip300)" d="M1062 34.1734 Q1060.74 33.4443 1059.24 33.1202 Q1057.79 32.7556 1056 32.7556 Q1049.68 32.7556 1046.28 36.8875 Q1042.92 40.9789 1042.92 48.6757 L1042.92 72.576 L1035.42 72.576 L1035.42 27.2059 L1042.92 27.2059 L1042.92 34.2544 Q1045.27 30.1225 1049.04 28.1376 Q1052.8 26.1121 1058.19 26.1121 Q1058.96 26.1121 1059.89 26.2337 Q1060.82 26.3147 1061.96 26.5172 L1062 34.1734 Z" fill="#000000" fill-rule="nonzero" fill-opacity="1"></path><path clip-path="url(#clip300)" d="M1072.81 49.9314 Q1072.81 58.1548 1076.18 62.8538 Q1079.58 67.5124 1085.49 67.5124 Q1091.41 67.5124 1094.81 62.8538 Q1098.21 58.1548 1098.21 49.9314 Q1098.21 41.7081 1094.81 37.0496 Q1091.41 32.3505 1085.49 32.3505 Q1079.58 32.3505 1076.18 37.0496 Q1072.81 41.7081 1072.81 49.9314 M1098.21 65.7705 Q1095.86 69.8214 1092.26 71.8063 Q1088.69 73.7508 1083.67 73.7508 Q1075.45 73.7508 1070.26 67.1883 Q1065.12 60.6258 1065.12 49.9314 Q1065.12 39.2371 1070.26 32.6746 Q1075.45 26.1121 1083.67 26.1121 Q1088.69 26.1121 1092.26 28.0971 Q1095.86 30.0415 1098.21 34.0924 L1098.21 27.2059 L1105.67 27.2059 L1105.67 89.8329 L1098.21 89.8329 L1098.21 65.7705 Z" fill="#000000" fill-rule="nonzero" fill-opacity="1"></path><path clip-path="url(#clip300)" d="M1120.25 54.671 L1120.25 27.2059 L1127.7 27.2059 L1127.7 54.3874 Q1127.7 60.8284 1130.22 64.0691 Q1132.73 67.2693 1137.75 67.2693 Q1143.79 67.2693 1147.27 63.421 Q1150.79 59.5726 1150.79 52.9291 L1150.79 27.2059 L1158.25 27.2059 L1158.25 72.576 L1150.79 72.576 L1150.79 65.6084 Q1148.08 69.7404 1144.48 71.7658 Q1140.91 73.7508 1136.17 73.7508 Q1128.35 73.7508 1124.3 68.8897 Q1120.25 64.0286 1120.25 54.671 M1139.01 26.1121 L1139.01 26.1121 Z" fill="#000000" fill-rule="nonzero" fill-opacity="1"></path><path clip-path="url(#clip300)" d="M1212.41 48.0275 L1212.41 51.6733 L1178.14 51.6733 Q1178.62 59.3701 1182.76 63.421 Q1186.93 67.4314 1194.34 67.4314 Q1198.64 67.4314 1202.65 66.3781 Q1206.7 65.3249 1210.67 63.2184 L1210.67 70.267 Q1206.66 71.9684 1202.44 72.8596 Q1198.23 73.7508 1193.9 73.7508 Q1183.04 73.7508 1176.68 67.4314 Q1170.36 61.1119 1170.36 50.3365 Q1170.36 39.1965 1176.36 32.6746 Q1182.39 26.1121 1192.6 26.1121 Q1201.75 26.1121 1207.06 32.0264 Q1212.41 37.9003 1212.41 48.0275 M1204.96 45.84 Q1204.87 39.7232 1201.51 36.0774 Q1198.19 32.4315 1192.68 32.4315 Q1186.44 32.4315 1182.68 35.9558 Q1178.95 39.4801 1178.38 45.8805 L1204.96 45.84 Z" fill="#000000" fill-rule="nonzero" fill-opacity="1"></path><path clip-path="url(#clip300)" d="M1245.67 27.2059 L1253.57 27.2059 L1267.74 65.2844 L1281.92 27.2059 L1289.82 27.2059 L1272.81 72.576 L1262.68 72.576 L1245.67 27.2059 Z" fill="#000000" fill-rule="nonzero" fill-opacity="1"></path><path clip-path="url(#clip300)" d="M1329.03 28.5427 L1329.03 35.5912 Q1325.87 33.9709 1322.47 33.1607 Q1319.07 32.3505 1315.42 32.3505 Q1309.87 32.3505 1307.08 34.0519 Q1304.32 35.7533 1304.32 39.156 Q1304.32 41.7486 1306.31 43.2475 Q1308.29 44.7058 1314.29 46.0426 L1316.84 46.6097 Q1324.78 48.3111 1328.1 51.4303 Q1331.46 54.509 1331.46 60.0587 Q1331.46 66.3781 1326.44 70.0644 Q1321.46 73.7508 1312.71 73.7508 Q1309.06 73.7508 1305.09 73.0216 Q1301.16 72.3329 1296.79 70.9151 L1296.79 63.2184 Q1300.92 65.3654 1304.93 66.4591 Q1308.94 67.5124 1312.87 67.5124 Q1318.14 67.5124 1320.97 65.73 Q1323.81 63.9071 1323.81 60.6258 Q1323.81 57.5877 1321.74 55.9673 Q1319.72 54.3469 1312.79 52.8481 L1310.2 52.2405 Q1303.27 50.7821 1300.19 47.7845 Q1297.11 44.7463 1297.11 39.4801 Q1297.11 33.0797 1301.65 29.5959 Q1306.19 26.1121 1314.53 26.1121 Q1318.66 26.1121 1322.31 26.7198 Q1325.96 27.3274 1329.03 28.5427 Z" fill="#000000" fill-rule="nonzero" fill-opacity="1"></path><path clip-path="url(#clip300)" d="M1361.64 12.096 L1412.81 12.096 L1412.81 18.9825 L1391.34 18.9825 L1391.34 72.576 L1383.11 72.576 L1383.11 18.9825 L1361.64 18.9825 L1361.64 12.096 Z" fill="#000000" fill-rule="nonzero" fill-opacity="1"></path><path clip-path="url(#clip300)" d="M1417.83 27.2059 L1425.28 27.2059 L1425.28 72.576 L1417.83 72.576 L1417.83 27.2059 M1417.83 9.54393 L1425.28 9.54393 L1425.28 18.9825 L1417.83 18.9825 L1417.83 9.54393 Z" fill="#000000" fill-rule="nonzero" fill-opacity="1"></path><path clip-path="url(#clip300)" d="M1476.2 35.9153 Q1479 30.8922 1482.89 28.5022 Q1486.78 26.1121 1492.04 26.1121 Q1499.13 26.1121 1502.98 31.0947 Q1506.83 36.0368 1506.83 45.1919 L1506.83 72.576 L1499.33 72.576 L1499.33 45.4349 Q1499.33 38.913 1497.03 35.7533 Q1494.72 32.5936 1489.98 32.5936 Q1484.18 32.5936 1480.82 36.4419 Q1477.46 40.2903 1477.46 46.9338 L1477.46 72.576 L1469.97 72.576 L1469.97 45.4349 Q1469.97 38.8725 1467.66 35.7533 Q1465.35 32.5936 1460.53 32.5936 Q1454.81 32.5936 1451.45 36.4824 Q1448.09 40.3308 1448.09 46.9338 L1448.09 72.576 L1440.6 72.576 L1440.6 27.2059 L1448.09 27.2059 L1448.09 34.2544 Q1450.64 30.082 1454.21 28.0971 Q1457.77 26.1121 1462.67 26.1121 Q1467.62 26.1121 1471.06 28.6237 Q1474.54 31.1352 1476.2 35.9153 Z" fill="#000000" fill-rule="nonzero" fill-opacity="1"></path><path clip-path="url(#clip300)" d="M1560.5 48.0275 L1560.5 51.6733 L1526.23 51.6733 Q1526.72 59.3701 1530.85 63.421 Q1535.02 67.4314 1542.44 67.4314 Q1546.73 67.4314 1550.74 66.3781 Q1554.79 65.3249 1558.76 63.2184 L1558.76 70.267 Q1554.75 71.9684 1550.54 72.8596 Q1546.32 73.7508 1541.99 73.7508 Q1531.13 73.7508 1524.77 67.4314 Q1518.45 61.1119 1518.45 50.3365 Q1518.45 39.1965 1524.45 32.6746 Q1530.49 26.1121 1540.69 26.1121 Q1549.85 26.1121 1555.16 32.0264 Q1560.5 37.9003 1560.5 48.0275 M1553.05 45.84 Q1552.97 39.7232 1549.61 36.0774 Q1546.28 32.4315 1540.78 32.4315 Q1534.54 32.4315 1530.77 35.9558 Q1527.04 39.4801 1526.48 45.8805 L1553.05 45.84 Z" fill="#000000" fill-rule="nonzero" fill-opacity="1"></path><polyline clip-path="url(#clip302)" style="stroke:#009af9; stroke-linecap:round; stroke-linejoin:round; stroke-width:4; stroke-opacity:1; fill:none" points="210.454,466.643 277.547,424.792 344.641,378.486 411.735,330.18 478.829,282.507 545.922,238.141 613.016,199.645 680.11,169.333 747.203,149.136 814.297,140.484 881.391,144.225 948.485,160.56 1015.58,189.027 1082.67,228.511 1149.77,277.3 1216.86,333.166 1283.95,393.484 1351.05,455.37 1418.14,515.836 1485.23,571.95 1552.33,620.998 1619.42,660.633 1686.52,688.998 1753.61,704.836 1820.7,707.55 1887.8,697.236 1954.89,674.675 2021.98,641.288 2089.08,599.048 2156.17,550.371 2223.27,497.973 2290.36,444.72 "></polyline>
<path clip-path="url(#clip300)" d="M1849.28 247.188 L2279.27 247.188 L2279.27 143.508 L1849.28 143.508  Z" fill="#ffffff" fill-rule="evenodd" fill-opacity="1"></path>
<polyline clip-path="url(#clip300)" style="stroke:#000000; stroke-linecap:round; stroke-linejoin:round; stroke-width:4; stroke-opacity:1; fill:none" points="1849.28,247.188 2279.27,247.188 2279.27,143.508 1849.28,143.508 1849.28,247.188 "></polyline>
<polyline clip-path="url(#clip300)" style="stroke:#009af9; stroke-linecap:round; stroke-linejoin:round; stroke-width:4; stroke-opacity:1; fill:none" points="1873.78,195.348 2020.76,195.348 "></polyline>
<path clip-path="url(#clip300)" d="M2045.26 178.068 L2074.49 178.068 L2074.49 182.004 L2062.22 182.004 L2062.22 212.628 L2057.52 212.628 L2057.52 182.004 L2045.26 182.004 L2045.26 178.068 Z" fill="#000000" fill-rule="nonzero" fill-opacity="1"></path><path clip-path="url(#clip300)" d="M2080.81 189.689 Q2077.39 189.689 2075.4 192.374 Q2073.4 195.036 2073.4 199.689 Q2073.4 204.341 2075.37 207.027 Q2077.36 209.689 2080.81 209.689 Q2084.21 209.689 2086.21 207.003 Q2088.2 204.318 2088.2 199.689 Q2088.2 195.082 2086.21 192.397 Q2084.21 189.689 2080.81 189.689 M2080.81 186.078 Q2086.37 186.078 2089.54 189.689 Q2092.71 193.3 2092.71 199.689 Q2092.71 206.054 2089.54 209.689 Q2086.37 213.3 2080.81 213.3 Q2075.23 213.3 2072.06 209.689 Q2068.91 206.054 2068.91 199.689 Q2068.91 193.3 2072.06 189.689 Q2075.23 186.078 2080.81 186.078 Z" fill="#000000" fill-rule="nonzero" fill-opacity="1"></path><path clip-path="url(#clip300)" d="M2114.79 190.684 Q2114.08 190.267 2113.22 190.082 Q2112.39 189.874 2111.37 189.874 Q2107.76 189.874 2105.81 192.235 Q2103.89 194.573 2103.89 198.971 L2103.89 212.628 L2099.61 212.628 L2099.61 186.703 L2103.89 186.703 L2103.89 190.73 Q2105.23 188.369 2107.39 187.235 Q2109.54 186.078 2112.62 186.078 Q2113.06 186.078 2113.59 186.147 Q2114.12 186.193 2114.77 186.309 L2114.79 190.684 Z" fill="#000000" fill-rule="nonzero" fill-opacity="1"></path><path clip-path="url(#clip300)" d="M2120.97 199.689 Q2120.97 204.388 2122.89 207.073 Q2124.84 209.735 2128.22 209.735 Q2131.6 209.735 2133.54 207.073 Q2135.49 204.388 2135.49 199.689 Q2135.49 194.99 2133.54 192.328 Q2131.6 189.642 2128.22 189.642 Q2124.84 189.642 2122.89 192.328 Q2120.97 194.99 2120.97 199.689 M2135.49 208.74 Q2134.14 211.054 2132.08 212.189 Q2130.05 213.3 2127.18 213.3 Q2122.48 213.3 2119.52 209.55 Q2116.58 205.8 2116.58 199.689 Q2116.58 193.578 2119.52 189.828 Q2122.48 186.078 2127.18 186.078 Q2130.05 186.078 2132.08 187.212 Q2134.14 188.323 2135.49 190.638 L2135.49 186.703 L2139.75 186.703 L2139.75 222.49 L2135.49 222.49 L2135.49 208.74 Z" fill="#000000" fill-rule="nonzero" fill-opacity="1"></path><path clip-path="url(#clip300)" d="M2148.08 202.397 L2148.08 186.703 L2152.34 186.703 L2152.34 202.235 Q2152.34 205.916 2153.77 207.767 Q2155.21 209.596 2158.08 209.596 Q2161.53 209.596 2163.52 207.397 Q2165.53 205.198 2165.53 201.402 L2165.53 186.703 L2169.79 186.703 L2169.79 212.628 L2165.53 212.628 L2165.53 208.647 Q2163.98 211.008 2161.92 212.165 Q2159.89 213.3 2157.18 213.3 Q2152.71 213.3 2150.39 210.522 Q2148.08 207.744 2148.08 202.397 M2158.8 186.078 L2158.8 186.078 Z" fill="#000000" fill-rule="nonzero" fill-opacity="1"></path><path clip-path="url(#clip300)" d="M2200.74 198.601 L2200.74 200.684 L2181.16 200.684 Q2181.44 205.082 2183.8 207.397 Q2186.18 209.689 2190.42 209.689 Q2192.87 209.689 2195.16 209.087 Q2197.48 208.485 2199.75 207.281 L2199.75 211.309 Q2197.45 212.281 2195.05 212.79 Q2192.64 213.3 2190.16 213.3 Q2183.96 213.3 2180.33 209.689 Q2176.71 206.078 2176.71 199.92 Q2176.71 193.554 2180.14 189.828 Q2183.59 186.078 2189.42 186.078 Q2194.65 186.078 2197.69 189.457 Q2200.74 192.814 2200.74 198.601 M2196.48 197.351 Q2196.44 193.855 2194.51 191.772 Q2192.62 189.689 2189.47 189.689 Q2185.9 189.689 2183.75 191.703 Q2181.62 193.717 2181.3 197.374 L2196.48 197.351 Z" fill="#000000" fill-rule="nonzero" fill-opacity="1"></path><path clip-path="url(#clip300)" d="M2217.96 176.656 Q2214.86 181.98 2213.36 187.189 Q2211.85 192.397 2211.85 197.744 Q2211.85 203.091 2213.36 208.346 Q2214.89 213.578 2217.96 218.878 L2214.26 218.878 Q2210.79 213.439 2209.05 208.184 Q2207.34 202.929 2207.34 197.744 Q2207.34 192.582 2209.05 187.351 Q2210.76 182.119 2214.26 176.656 L2217.96 176.656 Z" fill="#000000" fill-rule="nonzero" fill-opacity="1"></path><path clip-path="url(#clip300)" d="M2230.44 179.342 L2230.44 186.703 L2239.21 186.703 L2239.21 190.013 L2230.44 190.013 L2230.44 204.087 Q2230.44 207.258 2231.3 208.161 Q2232.18 209.064 2234.84 209.064 L2239.21 209.064 L2239.21 212.628 L2234.84 212.628 Q2229.91 212.628 2228.03 210.8 Q2226.16 208.948 2226.16 204.087 L2226.16 190.013 L2223.03 190.013 L2223.03 186.703 L2226.16 186.703 L2226.16 179.342 L2230.44 179.342 Z" fill="#000000" fill-rule="nonzero" fill-opacity="1"></path><path clip-path="url(#clip300)" d="M2244.14 176.656 L2247.85 176.656 Q2251.32 182.119 2253.03 187.351 Q2254.77 192.582 2254.77 197.744 Q2254.77 202.929 2253.03 208.184 Q2251.32 213.439 2247.85 218.878 L2244.14 218.878 Q2247.22 213.578 2248.73 208.346 Q2250.26 203.091 2250.26 197.744 Q2250.26 192.397 2248.73 187.189 Q2247.22 181.98 2244.14 176.656 Z" fill="#000000" fill-rule="nonzero" fill-opacity="1"></path><path clip-path="url(#clip300)" d="M148.057 1486.45 L2352.76 1486.45 L2352.76 885.358 L148.057 885.358  Z" fill="#ffffff" fill-rule="evenodd" fill-opacity="1"></path>
<defs>
  <clipPath id="clip303">
    <rect x="148" y="885" width="2206" height="602"></rect>
  </clipPath>
</defs>
<polyline clip-path="url(#clip303)" style="stroke:#000000; stroke-linecap:round; stroke-linejoin:round; stroke-width:2; stroke-opacity:0.1; fill:none" points="210.454,1486.45 210.454,885.358 "></polyline>
<polyline clip-path="url(#clip303)" style="stroke:#000000; stroke-linecap:round; stroke-linejoin:round; stroke-width:2; stroke-opacity:0.1; fill:none" points="730.43,1486.45 730.43,885.358 "></polyline>
<polyline clip-path="url(#clip303)" style="stroke:#000000; stroke-linecap:round; stroke-linejoin:round; stroke-width:2; stroke-opacity:0.1; fill:none" points="1250.41,1486.45 1250.41,885.358 "></polyline>
<polyline clip-path="url(#clip303)" style="stroke:#000000; stroke-linecap:round; stroke-linejoin:round; stroke-width:2; stroke-opacity:0.1; fill:none" points="1770.38,1486.45 1770.38,885.358 "></polyline>
<polyline clip-path="url(#clip303)" style="stroke:#000000; stroke-linecap:round; stroke-linejoin:round; stroke-width:2; stroke-opacity:0.1; fill:none" points="2290.36,1486.45 2290.36,885.358 "></polyline>
<polyline clip-path="url(#clip300)" style="stroke:#000000; stroke-linecap:round; stroke-linejoin:round; stroke-width:4; stroke-opacity:1; fill:none" points="148.057,1486.45 2352.76,1486.45 "></polyline>
<polyline clip-path="url(#clip300)" style="stroke:#000000; stroke-linecap:round; stroke-linejoin:round; stroke-width:4; stroke-opacity:1; fill:none" points="210.454,1486.45 210.454,1467.55 "></polyline>
<polyline clip-path="url(#clip300)" style="stroke:#000000; stroke-linecap:round; stroke-linejoin:round; stroke-width:4; stroke-opacity:1; fill:none" points="730.43,1486.45 730.43,1467.55 "></polyline>
<polyline clip-path="url(#clip300)" style="stroke:#000000; stroke-linecap:round; stroke-linejoin:round; stroke-width:4; stroke-opacity:1; fill:none" points="1250.41,1486.45 1250.41,1467.55 "></polyline>
<polyline clip-path="url(#clip300)" style="stroke:#000000; stroke-linecap:round; stroke-linejoin:round; stroke-width:4; stroke-opacity:1; fill:none" points="1770.38,1486.45 1770.38,1467.55 "></polyline>
<polyline clip-path="url(#clip300)" style="stroke:#000000; stroke-linecap:round; stroke-linejoin:round; stroke-width:4; stroke-opacity:1; fill:none" points="2290.36,1486.45 2290.36,1467.55 "></polyline>
<path clip-path="url(#clip300)" d="M172.757 1517.37 Q169.146 1517.37 167.317 1520.93 Q165.512 1524.47 165.512 1531.6 Q165.512 1538.71 167.317 1542.27 Q169.146 1545.82 172.757 1545.82 Q176.391 1545.82 178.197 1542.27 Q180.026 1538.71 180.026 1531.6 Q180.026 1524.47 178.197 1520.93 Q176.391 1517.37 172.757 1517.37 M172.757 1513.66 Q178.567 1513.66 181.623 1518.27 Q184.702 1522.85 184.702 1531.6 Q184.702 1540.33 181.623 1544.94 Q178.567 1549.52 172.757 1549.52 Q166.947 1549.52 163.868 1544.94 Q160.813 1540.33 160.813 1531.6 Q160.813 1522.85 163.868 1518.27 Q166.947 1513.66 172.757 1513.66 Z" fill="#000000" fill-rule="nonzero" fill-opacity="1"></path><path clip-path="url(#clip300)" d="M192.919 1542.97 L197.803 1542.97 L197.803 1548.85 L192.919 1548.85 L192.919 1542.97 Z" fill="#000000" fill-rule="nonzero" fill-opacity="1"></path><path clip-path="url(#clip300)" d="M217.988 1517.37 Q214.377 1517.37 212.549 1520.93 Q210.743 1524.47 210.743 1531.6 Q210.743 1538.71 212.549 1542.27 Q214.377 1545.82 217.988 1545.82 Q221.623 1545.82 223.428 1542.27 Q225.257 1538.71 225.257 1531.6 Q225.257 1524.47 223.428 1520.93 Q221.623 1517.37 217.988 1517.37 M217.988 1513.66 Q223.799 1513.66 226.854 1518.27 Q229.933 1522.85 229.933 1531.6 Q229.933 1540.33 226.854 1544.94 Q223.799 1549.52 217.988 1549.52 Q212.178 1549.52 209.1 1544.94 Q206.044 1540.33 206.044 1531.6 Q206.044 1522.85 209.1 1518.27 Q212.178 1513.66 217.988 1513.66 Z" fill="#000000" fill-rule="nonzero" fill-opacity="1"></path><path clip-path="url(#clip300)" d="M248.15 1517.37 Q244.539 1517.37 242.711 1520.93 Q240.905 1524.47 240.905 1531.6 Q240.905 1538.71 242.711 1542.27 Q244.539 1545.82 248.15 1545.82 Q251.785 1545.82 253.59 1542.27 Q255.419 1538.71 255.419 1531.6 Q255.419 1524.47 253.59 1520.93 Q251.785 1517.37 248.15 1517.37 M248.15 1513.66 Q253.96 1513.66 257.016 1518.27 Q260.095 1522.85 260.095 1531.6 Q260.095 1540.33 257.016 1544.94 Q253.96 1549.52 248.15 1549.52 Q242.34 1549.52 239.261 1544.94 Q236.206 1540.33 236.206 1531.6 Q236.206 1522.85 239.261 1518.27 Q242.34 1513.66 248.15 1513.66 Z" fill="#000000" fill-rule="nonzero" fill-opacity="1"></path><path clip-path="url(#clip300)" d="M693.231 1517.37 Q689.62 1517.37 687.791 1520.93 Q685.986 1524.47 685.986 1531.6 Q685.986 1538.71 687.791 1542.27 Q689.62 1545.82 693.231 1545.82 Q696.865 1545.82 698.671 1542.27 Q700.5 1538.71 700.5 1531.6 Q700.5 1524.47 698.671 1520.93 Q696.865 1517.37 693.231 1517.37 M693.231 1513.66 Q699.041 1513.66 702.097 1518.27 Q705.176 1522.85 705.176 1531.6 Q705.176 1540.33 702.097 1544.94 Q699.041 1549.52 693.231 1549.52 Q687.421 1549.52 684.342 1544.94 Q681.287 1540.33 681.287 1531.6 Q681.287 1522.85 684.342 1518.27 Q687.421 1513.66 693.231 1513.66 Z" fill="#000000" fill-rule="nonzero" fill-opacity="1"></path><path clip-path="url(#clip300)" d="M713.393 1542.97 L718.277 1542.97 L718.277 1548.85 L713.393 1548.85 L713.393 1542.97 Z" fill="#000000" fill-rule="nonzero" fill-opacity="1"></path><path clip-path="url(#clip300)" d="M732.49 1544.91 L748.81 1544.91 L748.81 1548.85 L726.865 1548.85 L726.865 1544.91 Q729.527 1542.16 734.111 1537.53 Q738.717 1532.88 739.898 1531.53 Q742.143 1529.01 743.023 1527.27 Q743.925 1525.51 743.925 1523.82 Q743.925 1521.07 741.981 1519.33 Q740.06 1517.6 736.958 1517.6 Q734.759 1517.6 732.305 1518.36 Q729.874 1519.13 727.097 1520.68 L727.097 1515.95 Q729.921 1514.82 732.374 1514.24 Q734.828 1513.66 736.865 1513.66 Q742.236 1513.66 745.43 1516.35 Q748.624 1519.03 748.624 1523.52 Q748.624 1525.65 747.814 1527.57 Q747.027 1529.47 744.921 1532.07 Q744.342 1532.74 741.24 1535.95 Q738.138 1539.15 732.49 1544.91 Z" fill="#000000" fill-rule="nonzero" fill-opacity="1"></path><path clip-path="url(#clip300)" d="M758.671 1514.29 L777.027 1514.29 L777.027 1518.22 L762.953 1518.22 L762.953 1526.7 Q763.971 1526.35 764.99 1526.19 Q766.009 1526 767.027 1526 Q772.814 1526 776.194 1529.17 Q779.573 1532.34 779.573 1537.76 Q779.573 1543.34 776.101 1546.44 Q772.629 1549.52 766.309 1549.52 Q764.134 1549.52 761.865 1549.15 Q759.62 1548.78 757.212 1548.04 L757.212 1543.34 Q759.296 1544.47 761.518 1545.03 Q763.74 1545.58 766.217 1545.58 Q770.221 1545.58 772.559 1543.48 Q774.897 1541.37 774.897 1537.76 Q774.897 1534.15 772.559 1532.04 Q770.221 1529.94 766.217 1529.94 Q764.342 1529.94 762.467 1530.35 Q760.615 1530.77 758.671 1531.65 L758.671 1514.29 Z" fill="#000000" fill-rule="nonzero" fill-opacity="1"></path><path clip-path="url(#clip300)" d="M1212.71 1517.37 Q1209.1 1517.37 1207.27 1520.93 Q1205.46 1524.47 1205.46 1531.6 Q1205.46 1538.71 1207.27 1542.27 Q1209.1 1545.82 1212.71 1545.82 Q1216.34 1545.82 1218.15 1542.27 Q1219.98 1538.71 1219.98 1531.6 Q1219.98 1524.47 1218.15 1520.93 Q1216.34 1517.37 1212.71 1517.37 M1212.71 1513.66 Q1218.52 1513.66 1221.58 1518.27 Q1224.65 1522.85 1224.65 1531.6 Q1224.65 1540.33 1221.58 1544.94 Q1218.52 1549.52 1212.71 1549.52 Q1206.9 1549.52 1203.82 1544.94 Q1200.77 1540.33 1200.77 1531.6 Q1200.77 1522.85 1203.82 1518.27 Q1206.9 1513.66 1212.71 1513.66 Z" fill="#000000" fill-rule="nonzero" fill-opacity="1"></path><path clip-path="url(#clip300)" d="M1232.87 1542.97 L1237.76 1542.97 L1237.76 1548.85 L1232.87 1548.85 L1232.87 1542.97 Z" fill="#000000" fill-rule="nonzero" fill-opacity="1"></path><path clip-path="url(#clip300)" d="M1247.99 1514.29 L1266.34 1514.29 L1266.34 1518.22 L1252.27 1518.22 L1252.27 1526.7 Q1253.29 1526.35 1254.31 1526.19 Q1255.33 1526 1256.34 1526 Q1262.13 1526 1265.51 1529.17 Q1268.89 1532.34 1268.89 1537.76 Q1268.89 1543.34 1265.42 1546.44 Q1261.95 1549.52 1255.63 1549.52 Q1253.45 1549.52 1251.18 1549.15 Q1248.94 1548.78 1246.53 1548.04 L1246.53 1543.34 Q1248.61 1544.47 1250.83 1545.03 Q1253.06 1545.58 1255.53 1545.58 Q1259.54 1545.58 1261.88 1543.48 Q1264.21 1541.37 1264.21 1537.76 Q1264.21 1534.15 1261.88 1532.04 Q1259.54 1529.94 1255.53 1529.94 Q1253.66 1529.94 1251.78 1530.35 Q1249.93 1530.77 1247.99 1531.65 L1247.99 1514.29 Z" fill="#000000" fill-rule="nonzero" fill-opacity="1"></path><path clip-path="url(#clip300)" d="M1288.1 1517.37 Q1284.49 1517.37 1282.66 1520.93 Q1280.86 1524.47 1280.86 1531.6 Q1280.86 1538.71 1282.66 1542.27 Q1284.49 1545.82 1288.1 1545.82 Q1291.74 1545.82 1293.54 1542.27 Q1295.37 1538.71 1295.37 1531.6 Q1295.37 1524.47 1293.54 1520.93 Q1291.74 1517.37 1288.1 1517.37 M1288.1 1513.66 Q1293.91 1513.66 1296.97 1518.27 Q1300.05 1522.85 1300.05 1531.6 Q1300.05 1540.33 1296.97 1544.94 Q1293.91 1549.52 1288.1 1549.52 Q1282.29 1549.52 1279.21 1544.94 Q1276.16 1540.33 1276.16 1531.6 Q1276.16 1522.85 1279.21 1518.27 Q1282.29 1513.66 1288.1 1513.66 Z" fill="#000000" fill-rule="nonzero" fill-opacity="1"></path><path clip-path="url(#clip300)" d="M1733.18 1517.37 Q1729.57 1517.37 1727.74 1520.93 Q1725.94 1524.47 1725.94 1531.6 Q1725.94 1538.71 1727.74 1542.27 Q1729.57 1545.82 1733.18 1545.82 Q1736.82 1545.82 1738.62 1542.27 Q1740.45 1538.71 1740.45 1531.6 Q1740.45 1524.47 1738.62 1520.93 Q1736.82 1517.37 1733.18 1517.37 M1733.18 1513.66 Q1738.99 1513.66 1742.05 1518.27 Q1745.13 1522.85 1745.13 1531.6 Q1745.13 1540.33 1742.05 1544.94 Q1738.99 1549.52 1733.18 1549.52 Q1727.37 1549.52 1724.29 1544.94 Q1721.24 1540.33 1721.24 1531.6 Q1721.24 1522.85 1724.29 1518.27 Q1727.37 1513.66 1733.18 1513.66 Z" fill="#000000" fill-rule="nonzero" fill-opacity="1"></path><path clip-path="url(#clip300)" d="M1753.35 1542.97 L1758.23 1542.97 L1758.23 1548.85 L1753.35 1548.85 L1753.35 1542.97 Z" fill="#000000" fill-rule="nonzero" fill-opacity="1"></path><path clip-path="url(#clip300)" d="M1767.23 1514.29 L1789.46 1514.29 L1789.46 1516.28 L1776.91 1548.85 L1772.03 1548.85 L1783.83 1518.22 L1767.23 1518.22 L1767.23 1514.29 Z" fill="#000000" fill-rule="nonzero" fill-opacity="1"></path><path clip-path="url(#clip300)" d="M1798.62 1514.29 L1816.98 1514.29 L1816.98 1518.22 L1802.91 1518.22 L1802.91 1526.7 Q1803.92 1526.35 1804.94 1526.19 Q1805.96 1526 1806.98 1526 Q1812.77 1526 1816.15 1529.17 Q1819.53 1532.34 1819.53 1537.76 Q1819.53 1543.34 1816.05 1546.44 Q1812.58 1549.52 1806.26 1549.52 Q1804.09 1549.52 1801.82 1549.15 Q1799.57 1548.78 1797.16 1548.04 L1797.16 1543.34 Q1799.25 1544.47 1801.47 1545.03 Q1803.69 1545.58 1806.17 1545.58 Q1810.17 1545.58 1812.51 1543.48 Q1814.85 1541.37 1814.85 1537.76 Q1814.85 1534.15 1812.51 1532.04 Q1810.17 1529.94 1806.17 1529.94 Q1804.29 1529.94 1802.42 1530.35 Q1800.57 1530.77 1798.62 1531.65 L1798.62 1514.29 Z" fill="#000000" fill-rule="nonzero" fill-opacity="1"></path><path clip-path="url(#clip300)" d="M2242.43 1544.91 L2250.07 1544.91 L2250.07 1518.55 L2241.76 1520.21 L2241.76 1515.95 L2250.02 1514.29 L2254.7 1514.29 L2254.7 1544.91 L2262.34 1544.91 L2262.34 1548.85 L2242.43 1548.85 L2242.43 1544.91 Z" fill="#000000" fill-rule="nonzero" fill-opacity="1"></path><path clip-path="url(#clip300)" d="M2271.78 1542.97 L2276.67 1542.97 L2276.67 1548.85 L2271.78 1548.85 L2271.78 1542.97 Z" fill="#000000" fill-rule="nonzero" fill-opacity="1"></path><path clip-path="url(#clip300)" d="M2296.85 1517.37 Q2293.24 1517.37 2291.41 1520.93 Q2289.61 1524.47 2289.61 1531.6 Q2289.61 1538.71 2291.41 1542.27 Q2293.24 1545.82 2296.85 1545.82 Q2300.49 1545.82 2302.29 1542.27 Q2304.12 1538.71 2304.12 1531.6 Q2304.12 1524.47 2302.29 1520.93 Q2300.49 1517.37 2296.85 1517.37 M2296.85 1513.66 Q2302.66 1513.66 2305.72 1518.27 Q2308.8 1522.85 2308.8 1531.6 Q2308.8 1540.33 2305.72 1544.94 Q2302.66 1549.52 2296.85 1549.52 Q2291.04 1549.52 2287.96 1544.94 Q2284.91 1540.33 2284.91 1531.6 Q2284.91 1522.85 2287.96 1518.27 Q2291.04 1513.66 2296.85 1513.66 Z" fill="#000000" fill-rule="nonzero" fill-opacity="1"></path><path clip-path="url(#clip300)" d="M2327.01 1517.37 Q2323.4 1517.37 2321.57 1520.93 Q2319.77 1524.47 2319.77 1531.6 Q2319.77 1538.71 2321.57 1542.27 Q2323.4 1545.82 2327.01 1545.82 Q2330.65 1545.82 2332.45 1542.27 Q2334.28 1538.71 2334.28 1531.6 Q2334.28 1524.47 2332.45 1520.93 Q2330.65 1517.37 2327.01 1517.37 M2327.01 1513.66 Q2332.82 1513.66 2335.88 1518.27 Q2338.96 1522.85 2338.96 1531.6 Q2338.96 1540.33 2335.88 1544.94 Q2332.82 1549.52 2327.01 1549.52 Q2321.2 1549.52 2318.12 1544.94 Q2315.07 1540.33 2315.07 1531.6 Q2315.07 1522.85 2318.12 1518.27 Q2321.2 1513.66 2327.01 1513.66 Z" fill="#000000" fill-rule="nonzero" fill-opacity="1"></path><polyline clip-path="url(#clip303)" style="stroke:#000000; stroke-linecap:round; stroke-linejoin:round; stroke-width:2; stroke-opacity:0.1; fill:none" points="148.057,1398.51 2352.76,1398.51 "></polyline>
<polyline clip-path="url(#clip303)" style="stroke:#000000; stroke-linecap:round; stroke-linejoin:round; stroke-width:2; stroke-opacity:0.1; fill:none" points="148.057,1290.54 2352.76,1290.54 "></polyline>
<polyline clip-path="url(#clip303)" style="stroke:#000000; stroke-linecap:round; stroke-linejoin:round; stroke-width:2; stroke-opacity:0.1; fill:none" points="148.057,1182.56 2352.76,1182.56 "></polyline>
<polyline clip-path="url(#clip303)" style="stroke:#000000; stroke-linecap:round; stroke-linejoin:round; stroke-width:2; stroke-opacity:0.1; fill:none" points="148.057,1074.59 2352.76,1074.59 "></polyline>
<polyline clip-path="url(#clip303)" style="stroke:#000000; stroke-linecap:round; stroke-linejoin:round; stroke-width:2; stroke-opacity:0.1; fill:none" points="148.057,966.611 2352.76,966.611 "></polyline>
<polyline clip-path="url(#clip300)" style="stroke:#000000; stroke-linecap:round; stroke-linejoin:round; stroke-width:4; stroke-opacity:1; fill:none" points="148.057,1486.45 148.057,885.358 "></polyline>
<polyline clip-path="url(#clip300)" style="stroke:#000000; stroke-linecap:round; stroke-linejoin:round; stroke-width:4; stroke-opacity:1; fill:none" points="148.057,1398.51 166.954,1398.51 "></polyline>
<polyline clip-path="url(#clip300)" style="stroke:#000000; stroke-linecap:round; stroke-linejoin:round; stroke-width:4; stroke-opacity:1; fill:none" points="148.057,1290.54 166.954,1290.54 "></polyline>
<polyline clip-path="url(#clip300)" style="stroke:#000000; stroke-linecap:round; stroke-linejoin:round; stroke-width:4; stroke-opacity:1; fill:none" points="148.057,1182.56 166.954,1182.56 "></polyline>
<polyline clip-path="url(#clip300)" style="stroke:#000000; stroke-linecap:round; stroke-linejoin:round; stroke-width:4; stroke-opacity:1; fill:none" points="148.057,1074.59 166.954,1074.59 "></polyline>
<polyline clip-path="url(#clip300)" style="stroke:#000000; stroke-linecap:round; stroke-linejoin:round; stroke-width:4; stroke-opacity:1; fill:none" points="148.057,966.611 166.954,966.611 "></polyline>
<path clip-path="url(#clip300)" d="M50.9921 1398.96 L80.6679 1398.96 L80.6679 1402.9 L50.9921 1402.9 L50.9921 1398.96 Z" fill="#000000" fill-rule="nonzero" fill-opacity="1"></path><path clip-path="url(#clip300)" d="M104.927 1397.16 Q108.283 1397.88 110.158 1400.14 Q112.057 1402.41 112.057 1405.75 Q112.057 1410.86 108.538 1413.66 Q105.02 1416.46 98.5382 1416.46 Q96.3623 1416.46 94.0475 1416.02 Q91.7558 1415.61 89.3021 1414.75 L89.3021 1410.24 Q91.2465 1411.37 93.5613 1411.95 Q95.8761 1412.53 98.3993 1412.53 Q102.797 1412.53 105.089 1410.79 Q107.404 1409.06 107.404 1405.75 Q107.404 1402.69 105.251 1400.98 Q103.121 1399.24 99.3021 1399.24 L95.2743 1399.24 L95.2743 1395.4 L99.4872 1395.4 Q102.936 1395.4 104.765 1394.03 Q106.594 1392.64 106.594 1390.05 Q106.594 1387.39 104.696 1385.98 Q102.821 1384.54 99.3021 1384.54 Q97.3808 1384.54 95.1817 1384.96 Q92.9826 1385.38 90.3438 1386.26 L90.3438 1382.09 Q93.0058 1381.35 95.3206 1380.98 Q97.6585 1380.61 99.7187 1380.61 Q105.043 1380.61 108.145 1383.04 Q111.246 1385.45 111.246 1389.57 Q111.246 1392.44 109.603 1394.43 Q107.959 1396.39 104.927 1397.16 Z" fill="#000000" fill-rule="nonzero" fill-opacity="1"></path><path clip-path="url(#clip300)" d="M51.9412 1290.99 L81.617 1290.99 L81.617 1294.92 L51.9412 1294.92 L51.9412 1290.99 Z" fill="#000000" fill-rule="nonzero" fill-opacity="1"></path><path clip-path="url(#clip300)" d="M95.7373 1303.88 L112.057 1303.88 L112.057 1307.82 L90.1123 1307.82 L90.1123 1303.88 Q92.7743 1301.13 97.3576 1296.5 Q101.964 1291.85 103.145 1290.5 Q105.39 1287.98 106.27 1286.24 Q107.172 1284.48 107.172 1282.79 Q107.172 1280.04 105.228 1278.3 Q103.307 1276.57 100.205 1276.57 Q98.0058 1276.57 95.5521 1277.33 Q93.1215 1278.1 90.3438 1279.65 L90.3438 1274.92 Q93.1678 1273.79 95.6215 1273.21 Q98.0752 1272.63 100.112 1272.63 Q105.483 1272.63 108.677 1275.32 Q111.871 1278 111.871 1282.49 Q111.871 1284.62 111.061 1286.54 Q110.274 1288.44 108.168 1291.04 Q107.589 1291.71 104.487 1294.92 Q101.385 1298.12 95.7373 1303.88 Z" fill="#000000" fill-rule="nonzero" fill-opacity="1"></path><path clip-path="url(#clip300)" d="M51.5708 1183.01 L81.2466 1183.01 L81.2466 1186.95 L51.5708 1186.95 L51.5708 1183.01 Z" fill="#000000" fill-rule="nonzero" fill-opacity="1"></path><path clip-path="url(#clip300)" d="M92.1493 1195.91 L99.7882 1195.91 L99.7882 1169.54 L91.478 1171.21 L91.478 1166.95 L99.7419 1165.28 L104.418 1165.28 L104.418 1195.91 L112.057 1195.91 L112.057 1199.84 L92.1493 1199.84 L92.1493 1195.91 Z" fill="#000000" fill-rule="nonzero" fill-opacity="1"></path><path clip-path="url(#clip300)" d="M100.112 1060.38 Q96.5011 1060.38 94.6724 1063.95 Q92.8669 1067.49 92.8669 1074.62 Q92.8669 1081.73 94.6724 1085.29 Q96.5011 1088.83 100.112 1088.83 Q103.746 1088.83 105.552 1085.29 Q107.381 1081.73 107.381 1074.62 Q107.381 1067.49 105.552 1063.95 Q103.746 1060.38 100.112 1060.38 M100.112 1056.68 Q105.922 1056.68 108.978 1061.29 Q112.057 1065.87 112.057 1074.62 Q112.057 1083.35 108.978 1087.95 Q105.922 1092.54 100.112 1092.54 Q94.3021 1092.54 91.2234 1087.95 Q88.1679 1083.35 88.1679 1074.62 Q88.1679 1065.87 91.2234 1061.29 Q94.3021 1056.68 100.112 1056.68 Z" fill="#000000" fill-rule="nonzero" fill-opacity="1"></path><path clip-path="url(#clip300)" d="M92.1493 979.956 L99.7882 979.956 L99.7882 953.59 L91.478 955.257 L91.478 950.997 L99.7419 949.331 L104.418 949.331 L104.418 979.956 L112.057 979.956 L112.057 983.891 L92.1493 983.891 L92.1493 979.956 Z" fill="#000000" fill-rule="nonzero" fill-opacity="1"></path><polyline clip-path="url(#clip303)" style="stroke:#000000; stroke-linecap:round; stroke-linejoin:round; stroke-width:4; stroke-opacity:1; fill:none" points="210.454,918.296 277.547,918.302 344.641,919.407 411.735,921.543 478.829,924.636 545.922,928.616 613.016,933.412 680.11,938.959 747.203,945.194 814.297,952.064 881.391,959.523 948.485,967.53 1015.58,976.053 1082.67,985.065 1149.77,994.54 1216.86,1004.46 1283.95,1014.79 1351.05,1025.52 1418.14,1036.6 1485.23,1048 1552.33,1059.65 1619.42,1071.49 1686.52,1083.45 1753.61,1095.43 1820.7,1107.32 1887.8,1119.02 1954.89,1130.41 2021.98,1141.36 2089.08,1151.76 2156.17,1161.47 2223.27,1170.4 2290.36,1178.43 "></polyline>
<polyline clip-path="url(#clip303)" style="stroke:#ff0000; stroke-linecap:round; stroke-linejoin:round; stroke-width:4; stroke-opacity:1; fill:none" points="210.454,1057.05 277.547,1092.15 344.641,1125.18 411.735,1156.01 478.829,1184.6 545.922,1210.97 613.016,1235.22 680.11,1257.5 747.203,1277.99 814.297,1296.91 881.391,1314.49 948.485,1330.96 1015.58,1346.49 1082.67,1361.25 1149.77,1375.29 1216.86,1388.64 1283.95,1401.2 1351.05,1412.8 1418.14,1423.21 1485.23,1432.13 1552.33,1439.18 1619.42,1443.97 1686.52,1446.1 1753.61,1445.19 1820.7,1440.92 1887.8,1433.06 1954.89,1421.47 2021.98,1406.07 2089.08,1386.9 2156.17,1364.13 2223.27,1337.97 2290.36,1308.77 "></polyline>
<polyline clip-path="url(#clip303)" style="stroke:#0000ff; stroke-linecap:round; stroke-linejoin:round; stroke-width:4; stroke-opacity:1; fill:none" points="210.454,912.899 277.547,915.673 344.641,918.728 411.735,922.098 478.829,925.827 545.922,929.964 613.016,934.57 680.11,939.707 747.203,945.434 814.297,951.8 881.391,958.84 948.485,966.568 1015.58,974.976 1082.67,984.04 1149.77,993.719 1216.86,1003.96 1283.95,1014.71 1351.05,1025.89 1418.14,1037.43 1485.23,1049.23 1552.33,1061.22 1619.42,1073.27 1686.52,1085.28 1753.61,1097.13 1820.7,1108.72 1887.8,1119.98 1954.89,1130.84 2021.98,1141.24 2089.08,1151.15 2156.17,1160.53 2223.27,1169.34 2290.36,1177.57 "></polyline>
<polyline clip-path="url(#clip303)" style="stroke:#ffa500; stroke-linecap:round; stroke-linejoin:round; stroke-width:4; stroke-opacity:1; fill:none" points="210.454,1057.08 277.547,1088.47 344.641,1123.46 411.735,1157.01 478.829,1187.12 545.922,1213.92 613.016,1238.01 680.11,1260 747.203,1280.3 814.297,1299.22 881.391,1317.08 948.485,1333.91 1015.58,1349.25 1082.67,1362.94 1149.77,1375.71 1216.86,1388.44 1283.95,1401.01 1351.05,1412.4 1418.14,1422 1485.23,1430.15 1552.33,1437.39 1619.42,1443.29 1686.52,1446.32 1753.61,1445.23 1820.7,1440.04 1887.8,1431.78 1954.89,1421.3 2021.98,1408.03 2089.08,1389.82 2156.17,1365.6 2223.27,1339.4 2290.36,1318.56 "></polyline>
<circle clip-path="url(#clip303)" cx="210.454" cy="918.198" r="14.4" fill="#800080" fill-rule="evenodd" fill-opacity="1" stroke="#000000" stroke-opacity="1" stroke-width="3.2"></circle>
<circle clip-path="url(#clip303)" cx="277.547" cy="902.37" r="14.4" fill="#800080" fill-rule="evenodd" fill-opacity="1" stroke="#000000" stroke-opacity="1" stroke-width="3.2"></circle>
<circle clip-path="url(#clip303)" cx="344.641" cy="911.58" r="14.4" fill="#800080" fill-rule="evenodd" fill-opacity="1" stroke="#000000" stroke-opacity="1" stroke-width="3.2"></circle>
<circle clip-path="url(#clip303)" cx="411.735" cy="910.619" r="14.4" fill="#800080" fill-rule="evenodd" fill-opacity="1" stroke="#000000" stroke-opacity="1" stroke-width="3.2"></circle>
<circle clip-path="url(#clip303)" cx="478.829" cy="932.394" r="14.4" fill="#800080" fill-rule="evenodd" fill-opacity="1" stroke="#000000" stroke-opacity="1" stroke-width="3.2"></circle>
<circle clip-path="url(#clip303)" cx="545.922" cy="940.153" r="14.4" fill="#800080" fill-rule="evenodd" fill-opacity="1" stroke="#000000" stroke-opacity="1" stroke-width="3.2"></circle>
<circle clip-path="url(#clip303)" cx="613.016" cy="935.273" r="14.4" fill="#800080" fill-rule="evenodd" fill-opacity="1" stroke="#000000" stroke-opacity="1" stroke-width="3.2"></circle>
<circle clip-path="url(#clip303)" cx="680.11" cy="931.984" r="14.4" fill="#800080" fill-rule="evenodd" fill-opacity="1" stroke="#000000" stroke-opacity="1" stroke-width="3.2"></circle>
<circle clip-path="url(#clip303)" cx="747.203" cy="943.61" r="14.4" fill="#800080" fill-rule="evenodd" fill-opacity="1" stroke="#000000" stroke-opacity="1" stroke-width="3.2"></circle>
<circle clip-path="url(#clip303)" cx="814.297" cy="953.374" r="14.4" fill="#800080" fill-rule="evenodd" fill-opacity="1" stroke="#000000" stroke-opacity="1" stroke-width="3.2"></circle>
<circle clip-path="url(#clip303)" cx="881.391" cy="974.614" r="14.4" fill="#800080" fill-rule="evenodd" fill-opacity="1" stroke="#000000" stroke-opacity="1" stroke-width="3.2"></circle>
<circle clip-path="url(#clip303)" cx="948.485" cy="953.767" r="14.4" fill="#800080" fill-rule="evenodd" fill-opacity="1" stroke="#000000" stroke-opacity="1" stroke-width="3.2"></circle>
<circle clip-path="url(#clip303)" cx="1015.58" cy="970.228" r="14.4" fill="#800080" fill-rule="evenodd" fill-opacity="1" stroke="#000000" stroke-opacity="1" stroke-width="3.2"></circle>
<circle clip-path="url(#clip303)" cx="1082.67" cy="979.395" r="14.4" fill="#800080" fill-rule="evenodd" fill-opacity="1" stroke="#000000" stroke-opacity="1" stroke-width="3.2"></circle>
<circle clip-path="url(#clip303)" cx="1149.77" cy="982.104" r="14.4" fill="#800080" fill-rule="evenodd" fill-opacity="1" stroke="#000000" stroke-opacity="1" stroke-width="3.2"></circle>
<circle clip-path="url(#clip303)" cx="1216.86" cy="998.246" r="14.4" fill="#800080" fill-rule="evenodd" fill-opacity="1" stroke="#000000" stroke-opacity="1" stroke-width="3.2"></circle>
<circle clip-path="url(#clip303)" cx="1283.95" cy="1031.13" r="14.4" fill="#800080" fill-rule="evenodd" fill-opacity="1" stroke="#000000" stroke-opacity="1" stroke-width="3.2"></circle>
<circle clip-path="url(#clip303)" cx="1351.05" cy="1006.9" r="14.4" fill="#800080" fill-rule="evenodd" fill-opacity="1" stroke="#000000" stroke-opacity="1" stroke-width="3.2"></circle>
<circle clip-path="url(#clip303)" cx="1418.14" cy="1034.44" r="14.4" fill="#800080" fill-rule="evenodd" fill-opacity="1" stroke="#000000" stroke-opacity="1" stroke-width="3.2"></circle>
<circle clip-path="url(#clip303)" cx="1485.23" cy="1042.82" r="14.4" fill="#800080" fill-rule="evenodd" fill-opacity="1" stroke="#000000" stroke-opacity="1" stroke-width="3.2"></circle>
<circle clip-path="url(#clip303)" cx="1552.33" cy="1056.14" r="14.4" fill="#800080" fill-rule="evenodd" fill-opacity="1" stroke="#000000" stroke-opacity="1" stroke-width="3.2"></circle>
<circle clip-path="url(#clip303)" cx="1619.42" cy="1092.03" r="14.4" fill="#800080" fill-rule="evenodd" fill-opacity="1" stroke="#000000" stroke-opacity="1" stroke-width="3.2"></circle>
<circle clip-path="url(#clip303)" cx="1686.52" cy="1081.09" r="14.4" fill="#800080" fill-rule="evenodd" fill-opacity="1" stroke="#000000" stroke-opacity="1" stroke-width="3.2"></circle>
<circle clip-path="url(#clip303)" cx="1753.61" cy="1098.34" r="14.4" fill="#800080" fill-rule="evenodd" fill-opacity="1" stroke="#000000" stroke-opacity="1" stroke-width="3.2"></circle>
<circle clip-path="url(#clip303)" cx="1820.7" cy="1101.91" r="14.4" fill="#800080" fill-rule="evenodd" fill-opacity="1" stroke="#000000" stroke-opacity="1" stroke-width="3.2"></circle>
<circle clip-path="url(#clip303)" cx="1887.8" cy="1118.96" r="14.4" fill="#800080" fill-rule="evenodd" fill-opacity="1" stroke="#000000" stroke-opacity="1" stroke-width="3.2"></circle>
<circle clip-path="url(#clip303)" cx="1954.89" cy="1146.8" r="14.4" fill="#800080" fill-rule="evenodd" fill-opacity="1" stroke="#000000" stroke-opacity="1" stroke-width="3.2"></circle>
<circle clip-path="url(#clip303)" cx="2021.98" cy="1123.98" r="14.4" fill="#800080" fill-rule="evenodd" fill-opacity="1" stroke="#000000" stroke-opacity="1" stroke-width="3.2"></circle>
<circle clip-path="url(#clip303)" cx="2089.08" cy="1154.88" r="14.4" fill="#800080" fill-rule="evenodd" fill-opacity="1" stroke="#000000" stroke-opacity="1" stroke-width="3.2"></circle>
<circle clip-path="url(#clip303)" cx="2156.17" cy="1167.58" r="14.4" fill="#800080" fill-rule="evenodd" fill-opacity="1" stroke="#000000" stroke-opacity="1" stroke-width="3.2"></circle>
<circle clip-path="url(#clip303)" cx="2223.27" cy="1152.5" r="14.4" fill="#800080" fill-rule="evenodd" fill-opacity="1" stroke="#000000" stroke-opacity="1" stroke-width="3.2"></circle>
<circle clip-path="url(#clip303)" cx="2290.36" cy="1182.95" r="14.4" fill="#800080" fill-rule="evenodd" fill-opacity="1" stroke="#000000" stroke-opacity="1" stroke-width="3.2"></circle>
<circle clip-path="url(#clip303)" cx="210.454" cy="1049.33" r="14.4" fill="#ffff00" fill-rule="evenodd" fill-opacity="1" stroke="#000000" stroke-opacity="1" stroke-width="3.2"></circle>
<circle clip-path="url(#clip303)" cx="277.547" cy="1089.01" r="14.4" fill="#ffff00" fill-rule="evenodd" fill-opacity="1" stroke="#000000" stroke-opacity="1" stroke-width="3.2"></circle>
<circle clip-path="url(#clip303)" cx="344.641" cy="1120.01" r="14.4" fill="#ffff00" fill-rule="evenodd" fill-opacity="1" stroke="#000000" stroke-opacity="1" stroke-width="3.2"></circle>
<circle clip-path="url(#clip303)" cx="411.735" cy="1177.84" r="14.4" fill="#ffff00" fill-rule="evenodd" fill-opacity="1" stroke="#000000" stroke-opacity="1" stroke-width="3.2"></circle>
<circle clip-path="url(#clip303)" cx="478.829" cy="1179.23" r="14.4" fill="#ffff00" fill-rule="evenodd" fill-opacity="1" stroke="#000000" stroke-opacity="1" stroke-width="3.2"></circle>
<circle clip-path="url(#clip303)" cx="545.922" cy="1185.5" r="14.4" fill="#ffff00" fill-rule="evenodd" fill-opacity="1" stroke="#000000" stroke-opacity="1" stroke-width="3.2"></circle>
<circle clip-path="url(#clip303)" cx="613.016" cy="1234.47" r="14.4" fill="#ffff00" fill-rule="evenodd" fill-opacity="1" stroke="#000000" stroke-opacity="1" stroke-width="3.2"></circle>
<circle clip-path="url(#clip303)" cx="680.11" cy="1263.71" r="14.4" fill="#ffff00" fill-rule="evenodd" fill-opacity="1" stroke="#000000" stroke-opacity="1" stroke-width="3.2"></circle>
<circle clip-path="url(#clip303)" cx="747.203" cy="1292.75" r="14.4" fill="#ffff00" fill-rule="evenodd" fill-opacity="1" stroke="#000000" stroke-opacity="1" stroke-width="3.2"></circle>
<circle clip-path="url(#clip303)" cx="814.297" cy="1297.86" r="14.4" fill="#ffff00" fill-rule="evenodd" fill-opacity="1" stroke="#000000" stroke-opacity="1" stroke-width="3.2"></circle>
<circle clip-path="url(#clip303)" cx="881.391" cy="1318.9" r="14.4" fill="#ffff00" fill-rule="evenodd" fill-opacity="1" stroke="#000000" stroke-opacity="1" stroke-width="3.2"></circle>
<circle clip-path="url(#clip303)" cx="948.485" cy="1350.68" r="14.4" fill="#ffff00" fill-rule="evenodd" fill-opacity="1" stroke="#000000" stroke-opacity="1" stroke-width="3.2"></circle>
<circle clip-path="url(#clip303)" cx="1015.58" cy="1336.46" r="14.4" fill="#ffff00" fill-rule="evenodd" fill-opacity="1" stroke="#000000" stroke-opacity="1" stroke-width="3.2"></circle>
<circle clip-path="url(#clip303)" cx="1082.67" cy="1349.92" r="14.4" fill="#ffff00" fill-rule="evenodd" fill-opacity="1" stroke="#000000" stroke-opacity="1" stroke-width="3.2"></circle>
<circle clip-path="url(#clip303)" cx="1149.77" cy="1395.5" r="14.4" fill="#ffff00" fill-rule="evenodd" fill-opacity="1" stroke="#000000" stroke-opacity="1" stroke-width="3.2"></circle>
<circle clip-path="url(#clip303)" cx="1216.86" cy="1417.56" r="14.4" fill="#ffff00" fill-rule="evenodd" fill-opacity="1" stroke="#000000" stroke-opacity="1" stroke-width="3.2"></circle>
<circle clip-path="url(#clip303)" cx="1283.95" cy="1418.23" r="14.4" fill="#ffff00" fill-rule="evenodd" fill-opacity="1" stroke="#000000" stroke-opacity="1" stroke-width="3.2"></circle>
<circle clip-path="url(#clip303)" cx="1351.05" cy="1392.52" r="14.4" fill="#ffff00" fill-rule="evenodd" fill-opacity="1" stroke="#000000" stroke-opacity="1" stroke-width="3.2"></circle>
<circle clip-path="url(#clip303)" cx="1418.14" cy="1434.6" r="14.4" fill="#ffff00" fill-rule="evenodd" fill-opacity="1" stroke="#000000" stroke-opacity="1" stroke-width="3.2"></circle>
<circle clip-path="url(#clip303)" cx="1485.23" cy="1417.14" r="14.4" fill="#ffff00" fill-rule="evenodd" fill-opacity="1" stroke="#000000" stroke-opacity="1" stroke-width="3.2"></circle>
<circle clip-path="url(#clip303)" cx="1552.33" cy="1467.11" r="14.4" fill="#ffff00" fill-rule="evenodd" fill-opacity="1" stroke="#000000" stroke-opacity="1" stroke-width="3.2"></circle>
<circle clip-path="url(#clip303)" cx="1619.42" cy="1438.79" r="14.4" fill="#ffff00" fill-rule="evenodd" fill-opacity="1" stroke="#000000" stroke-opacity="1" stroke-width="3.2"></circle>
<circle clip-path="url(#clip303)" cx="1686.52" cy="1469.44" r="14.4" fill="#ffff00" fill-rule="evenodd" fill-opacity="1" stroke="#000000" stroke-opacity="1" stroke-width="3.2"></circle>
<circle clip-path="url(#clip303)" cx="1753.61" cy="1456.44" r="14.4" fill="#ffff00" fill-rule="evenodd" fill-opacity="1" stroke="#000000" stroke-opacity="1" stroke-width="3.2"></circle>
<circle clip-path="url(#clip303)" cx="1820.7" cy="1440.39" r="14.4" fill="#ffff00" fill-rule="evenodd" fill-opacity="1" stroke="#000000" stroke-opacity="1" stroke-width="3.2"></circle>
<circle clip-path="url(#clip303)" cx="1887.8" cy="1461.04" r="14.4" fill="#ffff00" fill-rule="evenodd" fill-opacity="1" stroke="#000000" stroke-opacity="1" stroke-width="3.2"></circle>
<circle clip-path="url(#clip303)" cx="1954.89" cy="1440.13" r="14.4" fill="#ffff00" fill-rule="evenodd" fill-opacity="1" stroke="#000000" stroke-opacity="1" stroke-width="3.2"></circle>
<circle clip-path="url(#clip303)" cx="2021.98" cy="1423.34" r="14.4" fill="#ffff00" fill-rule="evenodd" fill-opacity="1" stroke="#000000" stroke-opacity="1" stroke-width="3.2"></circle>
<circle clip-path="url(#clip303)" cx="2089.08" cy="1388.94" r="14.4" fill="#ffff00" fill-rule="evenodd" fill-opacity="1" stroke="#000000" stroke-opacity="1" stroke-width="3.2"></circle>
<circle clip-path="url(#clip303)" cx="2156.17" cy="1349.91" r="14.4" fill="#ffff00" fill-rule="evenodd" fill-opacity="1" stroke="#000000" stroke-opacity="1" stroke-width="3.2"></circle>
<circle clip-path="url(#clip303)" cx="2223.27" cy="1335.4" r="14.4" fill="#ffff00" fill-rule="evenodd" fill-opacity="1" stroke="#000000" stroke-opacity="1" stroke-width="3.2"></circle>
<circle clip-path="url(#clip303)" cx="2290.36" cy="1292.12" r="14.4" fill="#ffff00" fill-rule="evenodd" fill-opacity="1" stroke="#000000" stroke-opacity="1" stroke-width="3.2"></circle>
<path clip-path="url(#clip300)" d="M1913.33 1268.27 L2279.27 1268.27 L2279.27 905.394 L1913.33 905.394  Z" fill="#ffffff" fill-rule="evenodd" fill-opacity="1"></path>
<polyline clip-path="url(#clip300)" style="stroke:#000000; stroke-linecap:round; stroke-linejoin:round; stroke-width:4; stroke-opacity:1; fill:none" points="1913.33,1268.27 2279.27,1268.27 2279.27,905.394 1913.33,905.394 1913.33,1268.27 "></polyline>
<polyline clip-path="url(#clip300)" style="stroke:#000000; stroke-linecap:round; stroke-linejoin:round; stroke-width:4; stroke-opacity:1; fill:none" points="1937.83,957.234 2084.81,957.234 "></polyline>
<path clip-path="url(#clip300)" d="M2128.57 958.079 L2113.82 958.079 Q2114.17 965.001 2115.77 967.94 Q2117.76 971.551 2121.21 971.551 Q2124.68 971.551 2126.6 967.917 Q2128.29 964.723 2128.57 958.079 M2128.5 954.144 Q2127.85 947.57 2126.6 945.255 Q2124.61 941.598 2121.21 941.598 Q2117.66 941.598 2115.79 945.209 Q2114.31 948.126 2113.87 954.144 L2128.5 954.144 M2121.21 938.126 Q2126.76 938.126 2129.93 943.033 Q2133.1 947.917 2133.1 956.575 Q2133.1 965.209 2129.93 970.116 Q2126.76 975.047 2121.21 975.047 Q2115.63 975.047 2112.48 970.116 Q2109.31 965.209 2109.31 956.575 Q2109.31 947.917 2112.48 943.033 Q2115.63 938.126 2121.21 938.126 Z" fill="#000000" fill-rule="nonzero" fill-opacity="1"></path><path clip-path="url(#clip300)" d="M2163.91 969.584 L2163.91 960.302 L2156.27 960.302 L2156.27 956.459 L2168.54 956.459 L2168.54 971.297 Q2165.83 973.218 2162.57 974.214 Q2159.31 975.186 2155.6 975.186 Q2147.5 975.186 2142.92 970.464 Q2138.36 965.718 2138.36 957.269 Q2138.36 948.797 2142.92 944.075 Q2147.5 939.329 2155.6 939.329 Q2158.98 939.329 2162.02 940.163 Q2165.07 940.996 2167.64 942.616 L2167.64 947.593 Q2165.05 945.394 2162.13 944.283 Q2159.21 943.172 2156 943.172 Q2149.65 943.172 2146.46 946.714 Q2143.29 950.255 2143.29 957.269 Q2143.29 964.26 2146.46 967.802 Q2149.65 971.343 2156 971.343 Q2158.47 971.343 2160.42 970.926 Q2162.36 970.487 2163.91 969.584 Z" fill="#000000" fill-rule="nonzero" fill-opacity="1"></path><path clip-path="url(#clip300)" d="M2170.6 939.954 L2199.84 939.954 L2199.84 943.89 L2187.57 943.89 L2187.57 974.514 L2182.87 974.514 L2182.87 943.89 L2170.6 943.89 L2170.6 939.954 Z" fill="#000000" fill-rule="nonzero" fill-opacity="1"></path><polyline clip-path="url(#clip300)" style="stroke:#ff0000; stroke-linecap:round; stroke-linejoin:round; stroke-width:4; stroke-opacity:1; fill:none" points="1937.83,1009.07 2084.81,1009.07 "></polyline>
<path clip-path="url(#clip300)" d="M2118.91 1027.03 Q2109.31 1027.03 2109.31 1013.28 Q2109.31 1007.84 2112.9 1000.43 L2117.48 1000.43 Q2114.17 1007.84 2114.17 1013.39 Q2114.17 1023.41 2119.31 1023.41 Q2124.01 1023.41 2124.01 1010.96 L2127.94 1010.96 Q2127.94 1023.41 2132.64 1023.41 Q2137.78 1023.41 2137.78 1013.39 Q2137.78 1007.84 2134.47 1000.43 L2139.05 1000.43 Q2142.64 1007.84 2142.64 1013.28 Q2142.64 1027.03 2133.03 1027.03 Q2126.74 1027.03 2125.97 1020.1 Q2125.02 1027.03 2118.91 1027.03 Z" fill="#000000" fill-rule="nonzero" fill-opacity="1"></path><path clip-path="url(#clip300)" d="M2174.1 1021.42 L2174.1 1012.14 L2166.46 1012.14 L2166.46 1008.3 L2178.73 1008.3 L2178.73 1023.14 Q2176.02 1025.06 2172.76 1026.05 Q2169.49 1027.03 2165.79 1027.03 Q2157.69 1027.03 2153.1 1022.3 Q2148.54 1017.56 2148.54 1009.11 Q2148.54 1000.64 2153.1 995.915 Q2157.69 991.169 2165.79 991.169 Q2169.17 991.169 2172.2 992.003 Q2175.26 992.836 2177.83 994.456 L2177.83 999.433 Q2175.23 997.234 2172.32 996.123 Q2169.4 995.012 2166.18 995.012 Q2159.84 995.012 2156.64 998.554 Q2153.47 1002.1 2153.47 1009.11 Q2153.47 1016.1 2156.64 1019.64 Q2159.84 1023.18 2166.18 1023.18 Q2168.66 1023.18 2170.6 1022.77 Q2172.55 1022.33 2174.1 1021.42 Z" fill="#000000" fill-rule="nonzero" fill-opacity="1"></path><path clip-path="url(#clip300)" d="M2180.79 991.794 L2210.02 991.794 L2210.02 995.73 L2197.76 995.73 L2197.76 1026.35 L2193.06 1026.35 L2193.06 995.73 L2180.79 995.73 L2180.79 991.794 Z" fill="#000000" fill-rule="nonzero" fill-opacity="1"></path><polyline clip-path="url(#clip300)" style="stroke:#0000ff; stroke-linecap:round; stroke-linejoin:round; stroke-width:4; stroke-opacity:1; fill:none" points="1937.83,1060.91 2084.81,1060.91 "></polyline>
<path clip-path="url(#clip300)" d="M2128.57 1061.76 L2113.82 1061.76 Q2114.17 1068.68 2115.77 1071.62 Q2117.76 1075.23 2121.21 1075.23 Q2124.68 1075.23 2126.6 1071.6 Q2128.29 1068.4 2128.57 1061.76 M2128.5 1057.82 Q2127.85 1051.25 2126.6 1048.94 Q2124.61 1045.28 2121.21 1045.28 Q2117.66 1045.28 2115.79 1048.89 Q2114.31 1051.81 2113.87 1057.82 L2128.5 1057.82 M2121.21 1041.81 Q2126.76 1041.81 2129.93 1046.71 Q2133.1 1051.6 2133.1 1060.25 Q2133.1 1068.89 2129.93 1073.8 Q2126.76 1078.73 2121.21 1078.73 Q2115.63 1078.73 2112.48 1073.8 Q2109.31 1068.89 2109.31 1060.25 Q2109.31 1051.6 2112.48 1046.71 Q2115.63 1041.81 2121.21 1041.81 Z" fill="#000000" fill-rule="nonzero" fill-opacity="1"></path><path clip-path="url(#clip300)" d="M2145.02 1047.48 L2145.02 1060.46 L2150.9 1060.46 Q2154.17 1060.46 2155.95 1058.77 Q2157.73 1057.08 2157.73 1053.96 Q2157.73 1050.86 2155.95 1049.17 Q2154.17 1047.48 2150.9 1047.48 L2145.02 1047.48 M2140.35 1043.63 L2150.9 1043.63 Q2156.71 1043.63 2159.68 1046.27 Q2162.66 1048.89 2162.66 1053.96 Q2162.66 1059.07 2159.68 1061.69 Q2156.71 1064.31 2150.9 1064.31 L2145.02 1064.31 L2145.02 1078.19 L2140.35 1078.19 L2140.35 1043.63 Z" fill="#000000" fill-rule="nonzero" fill-opacity="1"></path><path clip-path="url(#clip300)" d="M2182.94 1056.25 Q2182.22 1055.83 2181.37 1055.65 Q2180.53 1055.44 2179.52 1055.44 Q2175.9 1055.44 2173.96 1057.8 Q2172.04 1060.14 2172.04 1064.54 L2172.04 1078.19 L2167.76 1078.19 L2167.76 1052.27 L2172.04 1052.27 L2172.04 1056.3 Q2173.38 1053.94 2175.53 1052.8 Q2177.69 1051.64 2180.77 1051.64 Q2181.2 1051.64 2181.74 1051.71 Q2182.27 1051.76 2182.92 1051.88 L2182.94 1056.25 Z" fill="#000000" fill-rule="nonzero" fill-opacity="1"></path><path clip-path="url(#clip300)" d="M2208.54 1064.17 L2208.54 1066.25 L2188.96 1066.25 Q2189.24 1070.65 2191.6 1072.96 Q2193.98 1075.25 2198.22 1075.25 Q2200.67 1075.25 2202.96 1074.65 Q2205.28 1074.05 2207.55 1072.85 L2207.55 1076.87 Q2205.26 1077.85 2202.85 1078.36 Q2200.44 1078.87 2197.96 1078.87 Q2191.76 1078.87 2188.13 1075.25 Q2184.52 1071.64 2184.52 1065.49 Q2184.52 1059.12 2187.94 1055.39 Q2191.39 1051.64 2197.22 1051.64 Q2202.45 1051.64 2205.49 1055.02 Q2208.54 1058.38 2208.54 1064.17 M2204.28 1062.92 Q2204.24 1059.42 2202.32 1057.34 Q2200.42 1055.25 2197.27 1055.25 Q2193.7 1055.25 2191.55 1057.27 Q2189.42 1059.28 2189.1 1062.94 L2204.28 1062.92 Z" fill="#000000" fill-rule="nonzero" fill-opacity="1"></path><path clip-path="url(#clip300)" d="M2232.59 1056.2 L2232.59 1042.18 L2236.85 1042.18 L2236.85 1078.19 L2232.59 1078.19 L2232.59 1074.31 Q2231.25 1076.62 2229.19 1077.75 Q2227.15 1078.87 2224.28 1078.87 Q2219.58 1078.87 2216.62 1075.12 Q2213.68 1071.37 2213.68 1065.25 Q2213.68 1059.14 2216.62 1055.39 Q2219.58 1051.64 2224.28 1051.64 Q2227.15 1051.64 2229.19 1052.78 Q2231.25 1053.89 2232.59 1056.2 M2218.08 1065.25 Q2218.08 1069.95 2220 1072.64 Q2221.95 1075.3 2225.32 1075.3 Q2228.7 1075.3 2230.65 1072.64 Q2232.59 1069.95 2232.59 1065.25 Q2232.59 1060.56 2230.65 1057.89 Q2228.7 1055.21 2225.32 1055.21 Q2221.95 1055.21 2220 1057.89 Q2218.08 1060.56 2218.08 1065.25 Z" fill="#000000" fill-rule="nonzero" fill-opacity="1"></path><polyline clip-path="url(#clip300)" style="stroke:#ffa500; stroke-linecap:round; stroke-linejoin:round; stroke-width:4; stroke-opacity:1; fill:none" points="1937.83,1112.75 2084.81,1112.75 "></polyline>
<path clip-path="url(#clip300)" d="M2118.91 1130.71 Q2109.31 1130.71 2109.31 1116.96 Q2109.31 1111.52 2112.9 1104.11 L2117.48 1104.11 Q2114.17 1111.52 2114.17 1117.07 Q2114.17 1127.09 2119.31 1127.09 Q2124.01 1127.09 2124.01 1114.64 L2127.94 1114.64 Q2127.94 1127.09 2132.64 1127.09 Q2137.78 1127.09 2137.78 1117.07 Q2137.78 1111.52 2134.47 1104.11 L2139.05 1104.11 Q2142.64 1111.52 2142.64 1116.96 Q2142.64 1130.71 2133.03 1130.71 Q2126.74 1130.71 2125.97 1123.78 Q2125.02 1130.71 2118.91 1130.71 Z" fill="#000000" fill-rule="nonzero" fill-opacity="1"></path><path clip-path="url(#clip300)" d="M2155.21 1099.32 L2155.21 1112.3 L2161.09 1112.3 Q2164.35 1112.3 2166.14 1110.61 Q2167.92 1108.92 2167.92 1105.8 Q2167.92 1102.7 2166.14 1101.01 Q2164.35 1099.32 2161.09 1099.32 L2155.21 1099.32 M2150.53 1095.47 L2161.09 1095.47 Q2166.9 1095.47 2169.86 1098.11 Q2172.85 1100.73 2172.85 1105.8 Q2172.85 1110.91 2169.86 1113.53 Q2166.9 1116.15 2161.09 1116.15 L2155.21 1116.15 L2155.21 1130.03 L2150.53 1130.03 L2150.53 1095.47 Z" fill="#000000" fill-rule="nonzero" fill-opacity="1"></path><path clip-path="url(#clip300)" d="M2193.13 1108.09 Q2192.41 1107.67 2191.55 1107.49 Q2190.72 1107.28 2189.7 1107.28 Q2186.09 1107.28 2184.14 1109.64 Q2182.22 1111.98 2182.22 1116.38 L2182.22 1130.03 L2177.94 1130.03 L2177.94 1104.11 L2182.22 1104.11 L2182.22 1108.14 Q2183.57 1105.78 2185.72 1104.64 Q2187.87 1103.48 2190.95 1103.48 Q2191.39 1103.48 2191.92 1103.55 Q2192.45 1103.6 2193.1 1103.72 L2193.13 1108.09 Z" fill="#000000" fill-rule="nonzero" fill-opacity="1"></path><path clip-path="url(#clip300)" d="M2218.73 1116.01 L2218.73 1118.09 L2199.14 1118.09 Q2199.42 1122.49 2201.78 1124.8 Q2204.17 1127.09 2208.4 1127.09 Q2210.86 1127.09 2213.15 1126.49 Q2215.46 1125.89 2217.73 1124.69 L2217.73 1128.71 Q2215.44 1129.69 2213.03 1130.2 Q2210.63 1130.71 2208.15 1130.71 Q2201.95 1130.71 2198.31 1127.09 Q2194.7 1123.48 2194.7 1117.33 Q2194.7 1110.96 2198.13 1107.23 Q2201.58 1103.48 2207.41 1103.48 Q2212.64 1103.48 2215.67 1106.86 Q2218.73 1110.22 2218.73 1116.01 M2214.47 1114.76 Q2214.42 1111.26 2212.5 1109.18 Q2210.6 1107.09 2207.45 1107.09 Q2203.89 1107.09 2201.74 1109.11 Q2199.61 1111.12 2199.28 1114.78 L2214.47 1114.76 Z" fill="#000000" fill-rule="nonzero" fill-opacity="1"></path><path clip-path="url(#clip300)" d="M2242.78 1108.04 L2242.78 1094.02 L2247.04 1094.02 L2247.04 1130.03 L2242.78 1130.03 L2242.78 1126.15 Q2241.44 1128.46 2239.38 1129.59 Q2237.34 1130.71 2234.47 1130.71 Q2229.77 1130.71 2226.81 1126.96 Q2223.87 1123.21 2223.87 1117.09 Q2223.87 1110.98 2226.81 1107.23 Q2229.77 1103.48 2234.47 1103.48 Q2237.34 1103.48 2239.38 1104.62 Q2241.44 1105.73 2242.78 1108.04 M2228.26 1117.09 Q2228.26 1121.79 2230.19 1124.48 Q2232.13 1127.14 2235.51 1127.14 Q2238.89 1127.14 2240.83 1124.48 Q2242.78 1121.79 2242.78 1117.09 Q2242.78 1112.4 2240.83 1109.73 Q2238.89 1107.05 2235.51 1107.05 Q2232.13 1107.05 2230.19 1109.73 Q2228.26 1112.4 2228.26 1117.09 Z" fill="#000000" fill-rule="nonzero" fill-opacity="1"></path><circle clip-path="url(#clip300)" cx="2011.32" cy="1164.59" r="20.48" fill="#800080" fill-rule="evenodd" fill-opacity="1" stroke="#000000" stroke-opacity="1" stroke-width="4.55111"></circle>
<path clip-path="url(#clip300)" d="M2128.57 1165.44 L2113.82 1165.44 Q2114.17 1172.36 2115.77 1175.3 Q2117.76 1178.91 2121.21 1178.91 Q2124.68 1178.91 2126.6 1175.28 Q2128.29 1172.08 2128.57 1165.44 M2128.5 1161.5 Q2127.85 1154.93 2126.6 1152.62 Q2124.61 1148.96 2121.21 1148.96 Q2117.66 1148.96 2115.79 1152.57 Q2114.31 1155.49 2113.87 1161.5 L2128.5 1161.5 M2121.21 1145.49 Q2126.76 1145.49 2129.93 1150.39 Q2133.1 1155.28 2133.1 1163.93 Q2133.1 1172.57 2129.93 1177.48 Q2126.76 1182.41 2121.21 1182.41 Q2115.63 1182.41 2112.48 1177.48 Q2109.31 1172.57 2109.31 1163.93 Q2109.31 1155.28 2112.48 1150.39 Q2115.63 1145.49 2121.21 1145.49 Z" fill="#000000" fill-rule="nonzero" fill-opacity="1"></path><path clip-path="url(#clip300)" d="M2145.02 1151.16 L2145.02 1178.03 L2150.67 1178.03 Q2157.83 1178.03 2161.14 1174.79 Q2164.47 1171.55 2164.47 1164.56 Q2164.47 1157.62 2161.14 1154.4 Q2157.83 1151.16 2150.67 1151.16 L2145.02 1151.16 M2140.35 1147.31 L2149.96 1147.31 Q2160 1147.31 2164.7 1151.5 Q2169.4 1155.67 2169.4 1164.56 Q2169.4 1173.49 2164.68 1177.68 Q2159.95 1181.87 2149.96 1181.87 L2140.35 1181.87 L2140.35 1147.31 Z" fill="#000000" fill-rule="nonzero" fill-opacity="1"></path><path clip-path="url(#clip300)" d="M2188.45 1168.84 Q2183.29 1168.84 2181.3 1170.02 Q2179.31 1171.2 2179.31 1174.05 Q2179.31 1176.32 2180.79 1177.66 Q2182.29 1178.98 2184.86 1178.98 Q2188.4 1178.98 2190.53 1176.48 Q2192.69 1173.96 2192.69 1169.79 L2192.69 1168.84 L2188.45 1168.84 M2196.95 1167.08 L2196.95 1181.87 L2192.69 1181.87 L2192.69 1177.94 Q2191.23 1180.3 2189.05 1181.43 Q2186.88 1182.55 2183.73 1182.55 Q2179.75 1182.55 2177.39 1180.32 Q2175.05 1178.08 2175.05 1174.33 Q2175.05 1169.95 2177.96 1167.73 Q2180.9 1165.51 2186.71 1165.51 L2192.69 1165.51 L2192.69 1165.09 Q2192.69 1162.15 2190.74 1160.56 Q2188.82 1158.93 2185.33 1158.93 Q2183.1 1158.93 2181 1159.47 Q2178.89 1160 2176.95 1161.06 L2176.95 1157.13 Q2179.28 1156.23 2181.48 1155.79 Q2183.68 1155.32 2185.77 1155.32 Q2191.39 1155.32 2194.17 1158.24 Q2196.95 1161.16 2196.95 1167.08 Z" fill="#000000" fill-rule="nonzero" fill-opacity="1"></path><path clip-path="url(#clip300)" d="M2209.93 1148.59 L2209.93 1155.95 L2218.7 1155.95 L2218.7 1159.26 L2209.93 1159.26 L2209.93 1173.33 Q2209.93 1176.5 2210.79 1177.41 Q2211.67 1178.31 2214.33 1178.31 L2218.7 1178.31 L2218.7 1181.87 L2214.33 1181.87 Q2209.4 1181.87 2207.52 1180.05 Q2205.65 1178.19 2205.65 1173.33 L2205.65 1159.26 L2202.52 1159.26 L2202.52 1155.95 L2205.65 1155.95 L2205.65 1148.59 L2209.93 1148.59 Z" fill="#000000" fill-rule="nonzero" fill-opacity="1"></path><path clip-path="url(#clip300)" d="M2236.09 1168.84 Q2230.93 1168.84 2228.94 1170.02 Q2226.95 1171.2 2226.95 1174.05 Q2226.95 1176.32 2228.43 1177.66 Q2229.93 1178.98 2232.5 1178.98 Q2236.04 1178.98 2238.17 1176.48 Q2240.32 1173.96 2240.32 1169.79 L2240.32 1168.84 L2236.09 1168.84 M2244.58 1167.08 L2244.58 1181.87 L2240.32 1181.87 L2240.32 1177.94 Q2238.87 1180.3 2236.69 1181.43 Q2234.51 1182.55 2231.37 1182.55 Q2227.39 1182.55 2225.02 1180.32 Q2222.69 1178.08 2222.69 1174.33 Q2222.69 1169.95 2225.6 1167.73 Q2228.54 1165.51 2234.35 1165.51 L2240.32 1165.51 L2240.32 1165.09 Q2240.32 1162.15 2238.38 1160.56 Q2236.46 1158.93 2232.96 1158.93 Q2230.74 1158.93 2228.64 1159.47 Q2226.53 1160 2224.58 1161.06 L2224.58 1157.13 Q2226.92 1156.23 2229.12 1155.79 Q2231.32 1155.32 2233.4 1155.32 Q2239.03 1155.32 2241.81 1158.24 Q2244.58 1161.16 2244.58 1167.08 Z" fill="#000000" fill-rule="nonzero" fill-opacity="1"></path><circle clip-path="url(#clip300)" cx="2011.32" cy="1216.43" r="20.48" fill="#ffff00" fill-rule="evenodd" fill-opacity="1" stroke="#000000" stroke-opacity="1" stroke-width="4.55111"></circle>
<path clip-path="url(#clip300)" d="M2118.91 1234.39 Q2109.31 1234.39 2109.31 1220.64 Q2109.31 1215.2 2112.9 1207.79 L2117.48 1207.79 Q2114.17 1215.2 2114.17 1220.75 Q2114.17 1230.77 2119.31 1230.77 Q2124.01 1230.77 2124.01 1218.32 L2127.94 1218.32 Q2127.94 1230.77 2132.64 1230.77 Q2137.78 1230.77 2137.78 1220.75 Q2137.78 1215.2 2134.47 1207.79 L2139.05 1207.79 Q2142.64 1215.2 2142.64 1220.64 Q2142.64 1234.39 2133.03 1234.39 Q2126.74 1234.39 2125.97 1227.46 Q2125.02 1234.39 2118.91 1234.39 Z" fill="#000000" fill-rule="nonzero" fill-opacity="1"></path><path clip-path="url(#clip300)" d="M2155.21 1203 L2155.21 1229.87 L2160.86 1229.87 Q2168.01 1229.87 2171.32 1226.63 Q2174.65 1223.39 2174.65 1216.4 Q2174.65 1209.46 2171.32 1206.24 Q2168.01 1203 2160.86 1203 L2155.21 1203 M2150.53 1199.15 L2160.14 1199.15 Q2170.19 1199.15 2174.89 1203.34 Q2179.58 1207.51 2179.58 1216.4 Q2179.58 1225.33 2174.86 1229.52 Q2170.14 1233.71 2160.14 1233.71 L2150.53 1233.71 L2150.53 1199.15 Z" fill="#000000" fill-rule="nonzero" fill-opacity="1"></path><path clip-path="url(#clip300)" d="M2198.64 1220.68 Q2193.47 1220.68 2191.48 1221.86 Q2189.49 1223.04 2189.49 1225.89 Q2189.49 1228.16 2190.97 1229.5 Q2192.48 1230.82 2195.05 1230.82 Q2198.59 1230.82 2200.72 1228.32 Q2202.87 1225.8 2202.87 1221.63 L2202.87 1220.68 L2198.64 1220.68 M2207.13 1218.92 L2207.13 1233.71 L2202.87 1233.71 L2202.87 1229.78 Q2201.41 1232.14 2199.24 1233.27 Q2197.06 1234.39 2193.91 1234.39 Q2189.93 1234.39 2187.57 1232.16 Q2185.23 1229.92 2185.23 1226.17 Q2185.23 1221.79 2188.15 1219.57 Q2191.09 1217.35 2196.9 1217.35 L2202.87 1217.35 L2202.87 1216.93 Q2202.87 1213.99 2200.93 1212.4 Q2199.01 1210.77 2195.51 1210.77 Q2193.29 1210.77 2191.18 1211.31 Q2189.08 1211.84 2187.13 1212.9 L2187.13 1208.97 Q2189.47 1208.07 2191.67 1207.63 Q2193.87 1207.16 2195.95 1207.16 Q2201.58 1207.16 2204.35 1210.08 Q2207.13 1213 2207.13 1218.92 Z" fill="#000000" fill-rule="nonzero" fill-opacity="1"></path><path clip-path="url(#clip300)" d="M2220.12 1200.43 L2220.12 1207.79 L2228.89 1207.79 L2228.89 1211.1 L2220.12 1211.1 L2220.12 1225.17 Q2220.12 1228.34 2220.97 1229.25 Q2221.85 1230.15 2224.51 1230.15 L2228.89 1230.15 L2228.89 1233.71 L2224.51 1233.71 Q2219.58 1233.71 2217.71 1231.89 Q2215.83 1230.03 2215.83 1225.17 L2215.83 1211.1 L2212.71 1211.1 L2212.71 1207.79 L2215.83 1207.79 L2215.83 1200.43 L2220.12 1200.43 Z" fill="#000000" fill-rule="nonzero" fill-opacity="1"></path><path clip-path="url(#clip300)" d="M2246.27 1220.68 Q2241.11 1220.68 2239.12 1221.86 Q2237.13 1223.04 2237.13 1225.89 Q2237.13 1228.16 2238.61 1229.5 Q2240.12 1230.82 2242.69 1230.82 Q2246.23 1230.82 2248.36 1228.32 Q2250.51 1225.8 2250.51 1221.63 L2250.51 1220.68 L2246.27 1220.68 M2254.77 1218.92 L2254.77 1233.71 L2250.51 1233.71 L2250.51 1229.78 Q2249.05 1232.14 2246.88 1233.27 Q2244.7 1234.39 2241.55 1234.39 Q2237.57 1234.39 2235.21 1232.16 Q2232.87 1229.92 2232.87 1226.17 Q2232.87 1221.79 2235.79 1219.57 Q2238.73 1217.35 2244.54 1217.35 L2250.51 1217.35 L2250.51 1216.93 Q2250.51 1213.99 2248.57 1212.4 Q2246.64 1210.77 2243.15 1210.77 Q2240.93 1210.77 2238.82 1211.31 Q2236.71 1211.84 2234.77 1212.9 L2234.77 1208.97 Q2237.11 1208.07 2239.31 1207.63 Q2241.51 1207.16 2243.59 1207.16 Q2249.21 1207.16 2251.99 1210.08 Q2254.77 1213 2254.77 1218.92 Z" fill="#000000" fill-rule="nonzero" fill-opacity="1"></path></svg>