<svg xmlns="http://www.w3.org/2000/svg" xmlns:xlink="http://www.w3.org/1999/xlink" width="600" height="400" viewBox="0 0 2400 1600">
<defs>
  <clipPath id="clip820">
    <rect x="0" y="0" width="2400" height="1600"></rect>
  </clipPath>
</defs>
<path clip-path="url(#clip820)" d="M0 1600 L2400 1600 L2400 0 L0 0  Z" fill="#ffffff" fill-rule="evenodd" fill-opacity="1"></path>
<defs>
  <clipPath id="clip821">
    <rect x="480" y="0" width="1681" height="1600"></rect>
  </clipPath>
</defs>
<path clip-path="url(#clip820)" d="M156.112 724.562 L2352.76 724.562 L2352.76 123.472 L156.112 123.472  Z" fill="#ffffff" fill-rule="evenodd" fill-opacity="1"></path>
<defs>
  <clipPath id="clip822">
    <rect x="156" y="123" width="2198" height="602"></rect>
  </clipPath>
</defs>
<polyline clip-path="url(#clip822)" style="stroke:#000000; stroke-linecap:round; stroke-linejoin:round; stroke-width:2; stroke-opacity:0.1; fill:none" points="218.281,724.562 218.281,123.472 "></polyline>
<polyline clip-path="url(#clip822)" style="stroke:#000000; stroke-linecap:round; stroke-linejoin:round; stroke-width:2; stroke-opacity:0.1; fill:none" points="736.358,724.562 736.358,123.472 "></polyline>
<polyline clip-path="url(#clip822)" style="stroke:#000000; stroke-linecap:round; stroke-linejoin:round; stroke-width:2; stroke-opacity:0.1; fill:none" points="1254.43,724.562 1254.43,123.472 "></polyline>
<polyline clip-path="url(#clip822)" style="stroke:#000000; stroke-linecap:round; stroke-linejoin:round; stroke-width:2; stroke-opacity:0.1; fill:none" points="1772.51,724.562 1772.51,123.472 "></polyline>
<polyline clip-path="url(#clip822)" style="stroke:#000000; stroke-linecap:round; stroke-linejoin:round; stroke-width:2; stroke-opacity:0.1; fill:none" points="2290.59,724.562 2290.59,123.472 "></polyline>
<polyline clip-path="url(#clip820)" style="stroke:#000000; stroke-linecap:round; stroke-linejoin:round; stroke-width:4; stroke-opacity:1; fill:none" points="156.112,724.562 2352.76,724.562 "></polyline>
<polyline clip-path="url(#clip820)" style="stroke:#000000; stroke-linecap:round; stroke-linejoin:round; stroke-width:4; stroke-opacity:1; fill:none" points="218.281,724.562 218.281,705.664 "></polyline>
<polyline clip-path="url(#clip820)" style="stroke:#000000; stroke-linecap:round; stroke-linejoin:round; stroke-width:4; stroke-opacity:1; fill:none" points="736.358,724.562 736.358,705.664 "></polyline>
<polyline clip-path="url(#clip820)" style="stroke:#000000; stroke-linecap:round; stroke-linejoin:round; stroke-width:4; stroke-opacity:1; fill:none" points="1254.43,724.562 1254.43,705.664 "></polyline>
<polyline clip-path="url(#clip820)" style="stroke:#000000; stroke-linecap:round; stroke-linejoin:round; stroke-width:4; stroke-opacity:1; fill:none" points="1772.51,724.562 1772.51,705.664 "></polyline>
<polyline clip-path="url(#clip820)" style="stroke:#000000; stroke-linecap:round; stroke-linejoin:round; stroke-width:4; stroke-opacity:1; fill:none" points="2290.59,724.562 2290.59,705.664 "></polyline>
<path clip-path="url(#clip820)" d="M180.585 755.481 Q176.974 755.481 175.145 759.045 Q173.339 762.587 173.339 769.717 Q173.339 776.823 175.145 780.388 Q176.974 783.929 180.585 783.929 Q184.219 783.929 186.025 780.388 Q187.853 776.823 187.853 769.717 Q187.853 762.587 186.025 759.045 Q184.219 755.481 180.585 755.481 M180.585 751.777 Q186.395 751.777 189.45 756.383 Q192.529 760.967 192.529 769.717 Q192.529 778.443 189.45 783.05 Q186.395 787.633 180.585 787.633 Q174.775 787.633 171.696 783.05 Q168.64 778.443 168.64 769.717 Q168.64 760.967 171.696 756.383 Q174.775 751.777 180.585 751.777 Z" fill="#000000" fill-rule="nonzero" fill-opacity="1"></path><path clip-path="url(#clip820)" d="M200.747 781.082 L205.631 781.082 L205.631 786.962 L200.747 786.962 L200.747 781.082 Z" fill="#000000" fill-rule="nonzero" fill-opacity="1"></path><path clip-path="url(#clip820)" d="M225.816 755.481 Q222.205 755.481 220.376 759.045 Q218.571 762.587 218.571 769.717 Q218.571 776.823 220.376 780.388 Q222.205 783.929 225.816 783.929 Q229.45 783.929 231.256 780.388 Q233.084 776.823 233.084 769.717 Q233.084 762.587 231.256 759.045 Q229.45 755.481 225.816 755.481 M225.816 751.777 Q231.626 751.777 234.682 756.383 Q237.76 760.967 237.76 769.717 Q237.76 778.443 234.682 783.05 Q231.626 787.633 225.816 787.633 Q220.006 787.633 216.927 783.05 Q213.872 778.443 213.872 769.717 Q213.872 760.967 216.927 756.383 Q220.006 751.777 225.816 751.777 Z" fill="#000000" fill-rule="nonzero" fill-opacity="1"></path><path clip-path="url(#clip820)" d="M255.978 755.481 Q252.367 755.481 250.538 759.045 Q248.733 762.587 248.733 769.717 Q248.733 776.823 250.538 780.388 Q252.367 783.929 255.978 783.929 Q259.612 783.929 261.418 780.388 Q263.246 776.823 263.246 769.717 Q263.246 762.587 261.418 759.045 Q259.612 755.481 255.978 755.481 M255.978 751.777 Q261.788 751.777 264.844 756.383 Q267.922 760.967 267.922 769.717 Q267.922 778.443 264.844 783.05 Q261.788 787.633 255.978 787.633 Q250.168 787.633 247.089 783.05 Q244.033 778.443 244.033 769.717 Q244.033 760.967 247.089 756.383 Q250.168 751.777 255.978 751.777 Z" fill="#000000" fill-rule="nonzero" fill-opacity="1"></path><path clip-path="url(#clip820)" d="M699.159 755.481 Q695.548 755.481 693.719 759.045 Q691.913 762.587 691.913 769.717 Q691.913 776.823 693.719 780.388 Q695.548 783.929 699.159 783.929 Q702.793 783.929 704.599 780.388 Q706.427 776.823 706.427 769.717 Q706.427 762.587 704.599 759.045 Q702.793 755.481 699.159 755.481 M699.159 751.777 Q704.969 751.777 708.024 756.383 Q711.103 760.967 711.103 769.717 Q711.103 778.443 708.024 783.05 Q704.969 787.633 699.159 787.633 Q693.349 787.633 690.27 783.05 Q687.214 778.443 687.214 769.717 Q687.214 760.967 690.27 756.383 Q693.349 751.777 699.159 751.777 Z" fill="#000000" fill-rule="nonzero" fill-opacity="1"></path><path clip-path="url(#clip820)" d="M719.321 781.082 L724.205 781.082 L724.205 786.962 L719.321 786.962 L719.321 781.082 Z" fill="#000000" fill-rule="nonzero" fill-opacity="1"></path><path clip-path="url(#clip820)" d="M738.418 783.027 L754.737 783.027 L754.737 786.962 L732.793 786.962 L732.793 783.027 Q735.455 780.272 740.038 775.643 Q744.645 770.99 745.825 769.647 Q748.071 767.124 748.95 765.388 Q749.853 763.629 749.853 761.939 Q749.853 759.184 747.909 757.448 Q745.987 755.712 742.885 755.712 Q740.686 755.712 738.233 756.476 Q735.802 757.24 733.024 758.791 L733.024 754.069 Q735.848 752.934 738.302 752.356 Q740.756 751.777 742.793 751.777 Q748.163 751.777 751.358 754.462 Q754.552 757.147 754.552 761.638 Q754.552 763.768 753.742 765.689 Q752.955 767.587 750.848 770.18 Q750.27 770.851 747.168 774.068 Q744.066 777.263 738.418 783.027 Z" fill="#000000" fill-rule="nonzero" fill-opacity="1"></path><path clip-path="url(#clip820)" d="M764.598 752.402 L782.955 752.402 L782.955 756.337 L768.881 756.337 L768.881 764.809 Q769.899 764.462 770.918 764.3 Q771.936 764.115 772.955 764.115 Q778.742 764.115 782.121 767.286 Q785.501 770.457 785.501 775.874 Q785.501 781.453 782.029 784.554 Q778.557 787.633 772.237 787.633 Q770.061 787.633 767.793 787.263 Q765.547 786.892 763.14 786.152 L763.14 781.453 Q765.223 782.587 767.445 783.142 Q769.668 783.698 772.144 783.698 Q776.149 783.698 778.487 781.592 Q780.825 779.485 780.825 775.874 Q780.825 772.263 778.487 770.156 Q776.149 768.05 772.144 768.05 Q770.27 768.05 768.395 768.467 Q766.543 768.883 764.598 769.763 L764.598 752.402 Z" fill="#000000" fill-rule="nonzero" fill-opacity="1"></path><path clip-path="url(#clip820)" d="M1216.74 755.481 Q1213.13 755.481 1211.3 759.045 Q1209.49 762.587 1209.49 769.717 Q1209.49 776.823 1211.3 780.388 Q1213.13 783.929 1216.74 783.929 Q1220.37 783.929 1222.18 780.388 Q1224.01 776.823 1224.01 769.717 Q1224.01 762.587 1222.18 759.045 Q1220.37 755.481 1216.74 755.481 M1216.74 751.777 Q1222.55 751.777 1225.6 756.383 Q1228.68 760.967 1228.68 769.717 Q1228.68 778.443 1225.6 783.05 Q1222.55 787.633 1216.74 787.633 Q1210.93 787.633 1207.85 783.05 Q1204.79 778.443 1204.79 769.717 Q1204.79 760.967 1207.85 756.383 Q1210.93 751.777 1216.74 751.777 Z" fill="#000000" fill-rule="nonzero" fill-opacity="1"></path><path clip-path="url(#clip820)" d="M1236.9 781.082 L1241.78 781.082 L1241.78 786.962 L1236.9 786.962 L1236.9 781.082 Z" fill="#000000" fill-rule="nonzero" fill-opacity="1"></path><path clip-path="url(#clip820)" d="M1252.02 752.402 L1270.37 752.402 L1270.37 756.337 L1256.3 756.337 L1256.3 764.809 Q1257.32 764.462 1258.33 764.3 Q1259.35 764.115 1260.37 764.115 Q1266.16 764.115 1269.54 767.286 Q1272.92 770.457 1272.92 775.874 Q1272.92 781.453 1269.45 784.554 Q1265.97 787.633 1259.65 787.633 Q1257.48 787.633 1255.21 787.263 Q1252.96 786.892 1250.56 786.152 L1250.56 781.453 Q1252.64 782.587 1254.86 783.142 Q1257.08 783.698 1259.56 783.698 Q1263.57 783.698 1265.9 781.592 Q1268.24 779.485 1268.24 775.874 Q1268.24 772.263 1265.9 770.156 Q1263.57 768.05 1259.56 768.05 Q1257.69 768.05 1255.81 768.467 Q1253.96 768.883 1252.02 769.763 L1252.02 752.402 Z" fill="#000000" fill-rule="nonzero" fill-opacity="1"></path><path clip-path="url(#clip820)" d="M1292.13 755.481 Q1288.52 755.481 1286.69 759.045 Q1284.89 762.587 1284.89 769.717 Q1284.89 776.823 1286.69 780.388 Q1288.52 783.929 1292.13 783.929 Q1295.76 783.929 1297.57 780.388 Q1299.4 776.823 1299.4 769.717 Q1299.4 762.587 1297.57 759.045 Q1295.76 755.481 1292.13 755.481 M1292.13 751.777 Q1297.94 751.777 1301 756.383 Q1304.07 760.967 1304.07 769.717 Q1304.07 778.443 1301 783.05 Q1297.94 787.633 1292.13 787.633 Q1286.32 787.633 1283.24 783.05 Q1280.19 778.443 1280.19 769.717 Q1280.19 760.967 1283.24 756.383 Q1286.32 751.777 1292.13 751.777 Z" fill="#000000" fill-rule="nonzero" fill-opacity="1"></path><path clip-path="url(#clip820)" d="M1735.31 755.481 Q1731.7 755.481 1729.87 759.045 Q1728.07 762.587 1728.07 769.717 Q1728.07 776.823 1729.87 780.388 Q1731.7 783.929 1735.31 783.929 Q1738.95 783.929 1740.75 780.388 Q1742.58 776.823 1742.58 769.717 Q1742.58 762.587 1740.75 759.045 Q1738.95 755.481 1735.31 755.481 M1735.31 751.777 Q1741.12 751.777 1744.18 756.383 Q1747.26 760.967 1747.26 769.717 Q1747.26 778.443 1744.18 783.05 Q1741.12 787.633 1735.31 787.633 Q1729.5 787.633 1726.42 783.05 Q1723.37 778.443 1723.37 769.717 Q1723.37 760.967 1726.42 756.383 Q1729.5 751.777 1735.31 751.777 Z" fill="#000000" fill-rule="nonzero" fill-opacity="1"></path><path clip-path="url(#clip820)" d="M1755.47 781.082 L1760.36 781.082 L1760.36 786.962 L1755.47 786.962 L1755.47 781.082 Z" fill="#000000" fill-rule="nonzero" fill-opacity="1"></path><path clip-path="url(#clip820)" d="M1769.36 752.402 L1791.58 752.402 L1791.58 754.393 L1779.04 786.962 L1774.15 786.962 L1785.96 756.337 L1769.36 756.337 L1769.36 752.402 Z" fill="#000000" fill-rule="nonzero" fill-opacity="1"></path><path clip-path="url(#clip820)" d="M1800.75 752.402 L1819.11 752.402 L1819.11 756.337 L1805.03 756.337 L1805.03 764.809 Q1806.05 764.462 1807.07 764.3 Q1808.09 764.115 1809.11 764.115 Q1814.89 764.115 1818.27 767.286 Q1821.65 770.457 1821.65 775.874 Q1821.65 781.453 1818.18 784.554 Q1814.71 787.633 1808.39 787.633 Q1806.21 787.633 1803.95 787.263 Q1801.7 786.892 1799.29 786.152 L1799.29 781.453 Q1801.38 782.587 1803.6 783.142 Q1805.82 783.698 1808.3 783.698 Q1812.3 783.698 1814.64 781.592 Q1816.98 779.485 1816.98 775.874 Q1816.98 772.263 1814.64 770.156 Q1812.3 768.05 1808.3 768.05 Q1806.42 768.05 1804.55 768.467 Q1802.7 768.883 1800.75 769.763 L1800.75 752.402 Z" fill="#000000" fill-rule="nonzero" fill-opacity="1"></path><path clip-path="url(#clip820)" d="M2242.66 783.027 L2250.3 783.027 L2250.3 756.661 L2241.99 758.328 L2241.99 754.069 L2250.25 752.402 L2254.93 752.402 L2254.93 783.027 L2262.57 783.027 L2262.57 786.962 L2242.66 786.962 L2242.66 783.027 Z" fill="#000000" fill-rule="nonzero" fill-opacity="1"></path><path clip-path="url(#clip820)" d="M2272.01 781.082 L2276.89 781.082 L2276.89 786.962 L2272.01 786.962 L2272.01 781.082 Z" fill="#000000" fill-rule="nonzero" fill-opacity="1"></path><path clip-path="url(#clip820)" d="M2297.08 755.481 Q2293.47 755.481 2291.64 759.045 Q2289.83 762.587 2289.83 769.717 Q2289.83 776.823 2291.64 780.388 Q2293.47 783.929 2297.08 783.929 Q2300.71 783.929 2302.52 780.388 Q2304.35 776.823 2304.35 769.717 Q2304.35 762.587 2302.52 759.045 Q2300.71 755.481 2297.08 755.481 M2297.08 751.777 Q2302.89 751.777 2305.95 756.383 Q2309.02 760.967 2309.02 769.717 Q2309.02 778.443 2305.95 783.05 Q2302.89 787.633 2297.08 787.633 Q2291.27 787.633 2288.19 783.05 Q2285.14 778.443 2285.14 769.717 Q2285.14 760.967 2288.19 756.383 Q2291.27 751.777 2297.08 751.777 Z" fill="#000000" fill-rule="nonzero" fill-opacity="1"></path><path clip-path="url(#clip820)" d="M2327.24 755.481 Q2323.63 755.481 2321.8 759.045 Q2320 762.587 2320 769.717 Q2320 776.823 2321.8 780.388 Q2323.63 783.929 2327.24 783.929 Q2330.88 783.929 2332.68 780.388 Q2334.51 776.823 2334.51 769.717 Q2334.51 762.587 2332.68 759.045 Q2330.88 755.481 2327.24 755.481 M2327.24 751.777 Q2333.05 751.777 2336.11 756.383 Q2339.19 760.967 2339.19 769.717 Q2339.19 778.443 2336.11 783.05 Q2333.05 787.633 2327.24 787.633 Q2321.43 787.633 2318.35 783.05 Q2315.3 778.443 2315.3 769.717 Q2315.3 760.967 2318.35 756.383 Q2321.43 751.777 2327.24 751.777 Z" fill="#000000" fill-rule="nonzero" fill-opacity="1"></path><polyline clip-path="url(#clip822)" style="stroke:#000000; stroke-linecap:round; stroke-linejoin:round; stroke-width:2; stroke-opacity:0.1; fill:none" points="156.112,655.545 2352.76,655.545 "></polyline>
<polyline clip-path="url(#clip822)" style="stroke:#000000; stroke-linecap:round; stroke-linejoin:round; stroke-width:2; stroke-opacity:0.1; fill:none" points="156.112,497.461 2352.76,497.461 "></polyline>
<polyline clip-path="url(#clip822)" style="stroke:#000000; stroke-linecap:round; stroke-linejoin:round; stroke-width:2; stroke-opacity:0.1; fill:none" points="156.112,339.378 2352.76,339.378 "></polyline>
<polyline clip-path="url(#clip822)" style="stroke:#000000; stroke-linecap:round; stroke-linejoin:round; stroke-width:2; stroke-opacity:0.1; fill:none" points="156.112,181.294 2352.76,181.294 "></polyline>
<polyline clip-path="url(#clip820)" style="stroke:#000000; stroke-linecap:round; stroke-linejoin:round; stroke-width:4; stroke-opacity:1; fill:none" points="156.112,724.562 156.112,123.472 "></polyline>
<polyline clip-path="url(#clip820)" style="stroke:#000000; stroke-linecap:round; stroke-linejoin:round; stroke-width:4; stroke-opacity:1; fill:none" points="156.112,655.545 175.01,655.545 "></polyline>
<polyline clip-path="url(#clip820)" style="stroke:#000000; stroke-linecap:round; stroke-linejoin:round; stroke-width:4; stroke-opacity:1; fill:none" points="156.112,497.461 175.01,497.461 "></polyline>
<polyline clip-path="url(#clip820)" style="stroke:#000000; stroke-linecap:round; stroke-linejoin:round; stroke-width:4; stroke-opacity:1; fill:none" points="156.112,339.378 175.01,339.378 "></polyline>
<polyline clip-path="url(#clip820)" style="stroke:#000000; stroke-linecap:round; stroke-linejoin:round; stroke-width:4; stroke-opacity:1; fill:none" points="156.112,181.294 175.01,181.294 "></polyline>
<path clip-path="url(#clip820)" d="M103.793 668.89 L120.112 668.89 L120.112 672.825 L98.1678 672.825 L98.1678 668.89 Q100.83 666.135 105.413 661.506 Q110.02 656.853 111.2 655.51 Q113.445 652.987 114.325 651.251 Q115.228 649.492 115.228 647.802 Q115.228 645.047 113.283 643.311 Q111.362 641.575 108.26 641.575 Q106.061 641.575 103.608 642.339 Q101.177 643.103 98.3993 644.654 L98.3993 639.932 Q101.223 638.797 103.677 638.219 Q106.131 637.64 108.168 637.64 Q113.538 637.64 116.733 640.325 Q119.927 643.01 119.927 647.501 Q119.927 649.631 119.117 651.552 Q118.33 653.45 116.223 656.043 Q115.645 656.714 112.543 659.932 Q109.441 663.126 103.793 668.89 Z" fill="#000000" fill-rule="nonzero" fill-opacity="1"></path><path clip-path="url(#clip820)" d="M112.983 496.107 Q116.339 496.825 118.214 499.093 Q120.112 501.362 120.112 504.695 Q120.112 509.811 116.594 512.612 Q113.075 515.413 106.594 515.413 Q104.418 515.413 102.103 514.973 Q99.8113 514.556 97.3576 513.7 L97.3576 509.186 Q99.3021 510.32 101.617 510.899 Q103.932 511.478 106.455 511.478 Q110.853 511.478 113.145 509.741 Q115.459 508.005 115.459 504.695 Q115.459 501.64 113.307 499.927 Q111.177 498.191 107.358 498.191 L103.33 498.191 L103.33 494.348 L107.543 494.348 Q110.992 494.348 112.82 492.982 Q114.649 491.593 114.649 489.001 Q114.649 486.339 112.751 484.927 Q110.876 483.492 107.358 483.492 Q105.436 483.492 103.237 483.908 Q101.038 484.325 98.3993 485.205 L98.3993 481.038 Q101.061 480.297 103.376 479.927 Q105.714 479.556 107.774 479.556 Q113.098 479.556 116.2 481.987 Q119.302 484.394 119.302 488.515 Q119.302 491.385 117.658 493.376 Q116.015 495.343 112.983 496.107 Z" fill="#000000" fill-rule="nonzero" fill-opacity="1"></path><path clip-path="url(#clip820)" d="M110.529 326.172 L98.7234 344.621 L110.529 344.621 L110.529 326.172 M109.302 322.098 L115.182 322.098 L115.182 344.621 L120.112 344.621 L120.112 348.51 L115.182 348.51 L115.182 356.658 L110.529 356.658 L110.529 348.51 L94.9271 348.51 L94.9271 343.996 L109.302 322.098 Z" fill="#000000" fill-rule="nonzero" fill-opacity="1"></path><path clip-path="url(#clip820)" d="M99.2095 164.014 L117.566 164.014 L117.566 167.949 L103.492 167.949 L103.492 176.422 Q104.51 176.074 105.529 175.912 Q106.547 175.727 107.566 175.727 Q113.353 175.727 116.733 178.898 Q120.112 182.07 120.112 187.486 Q120.112 193.065 116.64 196.167 Q113.168 199.246 106.848 199.246 Q104.672 199.246 102.404 198.875 Q100.159 198.505 97.7511 197.764 L97.7511 193.065 Q99.8345 194.199 102.057 194.755 Q104.279 195.31 106.756 195.31 Q110.76 195.31 113.098 193.204 Q115.436 191.097 115.436 187.486 Q115.436 183.875 113.098 181.769 Q110.76 179.662 106.756 179.662 Q104.881 179.662 103.006 180.079 Q101.154 180.496 99.2095 181.375 L99.2095 164.014 Z" fill="#000000" fill-rule="nonzero" fill-opacity="1"></path><path clip-path="url(#clip820)" d="M944.337 12.096 L995.5 12.096 L995.5 18.9825 L974.03 18.9825 L974.03 72.576 L965.807 72.576 L965.807 18.9825 L944.337 18.9825 L944.337 12.096 Z" fill="#000000" fill-rule="nonzero" fill-opacity="1"></path><path clip-path="url(#clip820)" d="M1006.56 32.4315 Q1000.56 32.4315 997.08 37.1306 Q993.596 41.7891 993.596 49.9314 Q993.596 58.0738 997.04 62.7728 Q1000.52 67.4314 1006.56 67.4314 Q1012.51 67.4314 1016 62.7323 Q1019.48 58.0333 1019.48 49.9314 Q1019.48 41.8701 1016 37.1711 Q1012.51 32.4315 1006.56 32.4315 M1006.56 26.1121 Q1016.28 26.1121 1021.83 32.4315 Q1027.38 38.7509 1027.38 49.9314 Q1027.38 61.0714 1021.83 67.4314 Q1016.28 73.7508 1006.56 73.7508 Q996.797 73.7508 991.247 67.4314 Q985.738 61.0714 985.738 49.9314 Q985.738 38.7509 991.247 32.4315 Q996.797 26.1121 1006.56 26.1121 Z" fill="#000000" fill-rule="nonzero" fill-opacity="1"></path><path clip-path="url(#clip820)" d="M1066.03 34.1734 Q1064.77 33.4443 1063.27 33.1202 Q1061.81 32.7556 1060.03 32.7556 Q1053.71 32.7556 1050.31 36.8875 Q1046.95 40.9789 1046.95 48.6757 L1046.95 72.576 L1039.45 72.576 L1039.45 27.2059 L1046.95 27.2059 L1046.95 34.2544 Q1049.3 30.1225 1053.06 28.1376 Q1056.83 26.1121 1062.22 26.1121 Q1062.99 26.1121 1063.92 26.2337 Q1064.85 26.3147 1065.99 26.5172 L1066.03 34.1734 Z" fill="#000000" fill-rule="nonzero" fill-opacity="1"></path><path clip-path="url(#clip820)" d="M1076.84 49.9314 Q1076.84 58.1548 1080.2 62.8538 Q1083.61 67.5124 1089.52 67.5124 Q1095.44 67.5124 1098.84 62.8538 Q1102.24 58.1548 1102.24 49.9314 Q1102.24 41.7081 1098.84 37.0496 Q1095.44 32.3505 1089.52 32.3505 Q1083.61 32.3505 1080.2 37.0496 Q1076.84 41.7081 1076.84 49.9314 M1102.24 65.7705 Q1099.89 69.8214 1096.29 71.8063 Q1092.72 73.7508 1087.7 73.7508 Q1079.48 73.7508 1074.29 67.1883 Q1069.15 60.6258 1069.15 49.9314 Q1069.15 39.2371 1074.29 32.6746 Q1079.48 26.1121 1087.7 26.1121 Q1092.72 26.1121 1096.29 28.0971 Q1099.89 30.0415 1102.24 34.0924 L1102.24 27.2059 L1109.7 27.2059 L1109.7 89.8329 L1102.24 89.8329 L1102.24 65.7705 Z" fill="#000000" fill-rule="nonzero" fill-opacity="1"></path><path clip-path="url(#clip820)" d="M1124.28 54.671 L1124.28 27.2059 L1131.73 27.2059 L1131.73 54.3874 Q1131.73 60.8284 1134.24 64.0691 Q1136.76 67.2693 1141.78 67.2693 Q1147.81 67.2693 1151.3 63.421 Q1154.82 59.5726 1154.82 52.9291 L1154.82 27.2059 L1162.28 27.2059 L1162.28 72.576 L1154.82 72.576 L1154.82 65.6084 Q1152.11 69.7404 1148.5 71.7658 Q1144.94 73.7508 1140.2 73.7508 Q1132.38 73.7508 1128.33 68.8897 Q1124.28 64.0286 1124.28 54.671 M1143.03 26.1121 L1143.03 26.1121 Z" fill="#000000" fill-rule="nonzero" fill-opacity="1"></path><path clip-path="url(#clip820)" d="M1216.44 48.0275 L1216.44 51.6733 L1182.17 51.6733 Q1182.65 59.3701 1186.78 63.421 Q1190.96 67.4314 1198.37 67.4314 Q1202.66 67.4314 1206.67 66.3781 Q1210.72 65.3249 1214.69 63.2184 L1214.69 70.267 Q1210.68 71.9684 1206.47 72.8596 Q1202.26 73.7508 1197.92 73.7508 Q1187.07 73.7508 1180.71 67.4314 Q1174.39 61.1119 1174.39 50.3365 Q1174.39 39.1965 1180.38 32.6746 Q1186.42 26.1121 1196.63 26.1121 Q1205.78 26.1121 1211.09 32.0264 Q1216.44 37.9003 1216.44 48.0275 M1208.98 45.84 Q1208.9 39.7232 1205.54 36.0774 Q1202.22 32.4315 1196.71 32.4315 Q1190.47 32.4315 1186.7 35.9558 Q1182.98 39.4801 1182.41 45.8805 L1208.98 45.84 Z" fill="#000000" fill-rule="nonzero" fill-opacity="1"></path><path clip-path="url(#clip820)" d="M1249.69 27.2059 L1257.59 27.2059 L1271.77 65.2844 L1285.95 27.2059 L1293.85 27.2059 L1276.84 72.576 L1266.71 72.576 L1249.69 27.2059 Z" fill="#000000" fill-rule="nonzero" fill-opacity="1"></path><path clip-path="url(#clip820)" d="M1333.06 28.5427 L1333.06 35.5912 Q1329.9 33.9709 1326.5 33.1607 Q1323.1 32.3505 1319.45 32.3505 Q1313.9 32.3505 1311.11 34.0519 Q1308.35 35.7533 1308.35 39.156 Q1308.35 41.7486 1310.34 43.2475 Q1312.32 44.7058 1318.32 46.0426 L1320.87 46.6097 Q1328.81 48.3111 1332.13 51.4303 Q1335.49 54.509 1335.49 60.0587 Q1335.49 66.3781 1330.47 70.0644 Q1325.49 73.7508 1316.74 73.7508 Q1313.09 73.7508 1309.12 73.0216 Q1305.19 72.3329 1300.82 70.9151 L1300.82 63.2184 Q1304.95 65.3654 1308.96 66.4591 Q1312.97 67.5124 1316.9 67.5124 Q1322.17 67.5124 1325 65.73 Q1327.84 63.9071 1327.84 60.6258 Q1327.84 57.5877 1325.77 55.9673 Q1323.74 54.3469 1316.82 52.8481 L1314.23 52.2405 Q1307.3 50.7821 1304.22 47.7845 Q1301.14 44.7463 1301.14 39.4801 Q1301.14 33.0797 1305.68 29.5959 Q1310.21 26.1121 1318.56 26.1121 Q1322.69 26.1121 1326.34 26.7198 Q1329.98 27.3274 1333.06 28.5427 Z" fill="#000000" fill-rule="nonzero" fill-opacity="1"></path><path clip-path="url(#clip820)" d="M1365.67 12.096 L1416.83 12.096 L1416.83 18.9825 L1395.36 18.9825 L1395.36 72.576 L1387.14 72.576 L1387.14 18.9825 L1365.67 18.9825 L1365.67 12.096 Z" fill="#000000" fill-rule="nonzero" fill-opacity="1"></path><path clip-path="url(#clip820)" d="M1421.86 27.2059 L1429.31 27.2059 L1429.31 72.576 L1421.86 72.576 L1421.86 27.2059 M1421.86 9.54393 L1429.31 9.54393 L1429.31 18.9825 L1421.86 18.9825 L1421.86 9.54393 Z" fill="#000000" fill-rule="nonzero" fill-opacity="1"></path><path clip-path="url(#clip820)" d="M1480.23 35.9153 Q1483.03 30.8922 1486.92 28.5022 Q1490.8 26.1121 1496.07 26.1121 Q1503.16 26.1121 1507.01 31.0947 Q1510.86 36.0368 1510.86 45.1919 L1510.86 72.576 L1503.36 72.576 L1503.36 45.4349 Q1503.36 38.913 1501.05 35.7533 Q1498.74 32.5936 1494 32.5936 Q1488.21 32.5936 1484.85 36.4419 Q1481.49 40.2903 1481.49 46.9338 L1481.49 72.576 L1473.99 72.576 L1473.99 45.4349 Q1473.99 38.8725 1471.68 35.7533 Q1469.37 32.5936 1464.55 32.5936 Q1458.84 32.5936 1455.48 36.4824 Q1452.12 40.3308 1452.12 46.9338 L1452.12 72.576 L1444.62 72.576 L1444.62 27.2059 L1452.12 27.2059 L1452.12 34.2544 Q1454.67 30.082 1458.24 28.0971 Q1461.8 26.1121 1466.7 26.1121 Q1471.64 26.1121 1475.09 28.6237 Q1478.57 31.1352 1480.23 35.9153 Z" fill="#000000" fill-rule="nonzero" fill-opacity="1"></path><path clip-path="url(#clip820)" d="M1564.53 48.0275 L1564.53 51.6733 L1530.26 51.6733 Q1530.75 59.3701 1534.88 63.421 Q1539.05 67.4314 1546.46 67.4314 Q1550.76 67.4314 1554.77 66.3781 Q1558.82 65.3249 1562.79 63.2184 L1562.79 70.267 Q1558.78 71.9684 1554.57 72.8596 Q1550.35 73.7508 1546.02 73.7508 Q1535.16 73.7508 1528.8 67.4314 Q1522.48 61.1119 1522.48 50.3365 Q1522.48 39.1965 1528.48 32.6746 Q1534.51 26.1121 1544.72 26.1121 Q1553.88 26.1121 1559.18 32.0264 Q1564.53 37.9003 1564.53 48.0275 M1557.08 45.84 Q1557 39.7232 1553.63 36.0774 Q1550.31 32.4315 1544.8 32.4315 Q1538.56 32.4315 1534.8 35.9558 Q1531.07 39.4801 1530.5 45.8805 L1557.08 45.84 Z" fill="#000000" fill-rule="nonzero" fill-opacity="1"></path><polyline clip-path="url(#clip822)" style="stroke:#009af9; stroke-linecap:round; stroke-linejoin:round; stroke-width:4; stroke-opacity:1; fill:none" points="218.281,241.166 285.13,225.156 351.978,210.14 418.827,195.832 485.676,182.251 552.524,169.676 619.373,158.59 686.221,149.6 753.07,143.359 819.918,140.484 886.767,141.486 953.615,146.709 1020.46,156.292 1087.31,170.147 1154.16,187.966 1221.01,209.244 1287.86,233.324 1354.71,259.46 1421.56,286.888 1488.4,314.897 1555.25,342.908 1622.1,370.532 1688.95,397.619 1755.8,424.29 1822.65,450.937 1889.5,478.205 1956.34,506.95 2023.19,538.166 2090.04,572.906 2156.89,612.179 2223.74,656.854 2290.59,707.55 "></polyline>
<path clip-path="url(#clip820)" d="M1850.36 247.188 L2279.53 247.188 L2279.53 143.508 L1850.36 143.508  Z" fill="#ffffff" fill-rule="evenodd" fill-opacity="1"></path>
<polyline clip-path="url(#clip820)" style="stroke:#000000; stroke-linecap:round; stroke-linejoin:round; stroke-width:4; stroke-opacity:1; fill:none" points="1850.36,247.188 2279.53,247.188 2279.53,143.508 1850.36,143.508 1850.36,247.188 "></polyline>
<polyline clip-path="url(#clip820)" style="stroke:#009af9; stroke-linecap:round; stroke-linejoin:round; stroke-width:4; stroke-opacity:1; fill:none" points="1874.76,195.348 2021.21,195.348 "></polyline>
<path clip-path="url(#clip820)" d="M2045.61 178.068 L2074.85 178.068 L2074.85 182.004 L2062.58 182.004 L2062.58 212.628 L2057.88 212.628 L2057.88 182.004 L2045.61 182.004 L2045.61 178.068 Z" fill="#000000" fill-rule="nonzero" fill-opacity="1"></path><path clip-path="url(#clip820)" d="M2081.17 189.689 Q2077.74 189.689 2075.75 192.374 Q2073.76 195.036 2073.76 199.689 Q2073.76 204.341 2075.73 207.027 Q2077.72 209.689 2081.17 209.689 Q2084.57 209.689 2086.56 207.003 Q2088.55 204.318 2088.55 199.689 Q2088.55 195.082 2086.56 192.397 Q2084.57 189.689 2081.17 189.689 M2081.17 186.078 Q2086.73 186.078 2089.9 189.689 Q2093.07 193.3 2093.07 199.689 Q2093.07 206.054 2089.9 209.689 Q2086.73 213.3 2081.17 213.3 Q2075.59 213.3 2072.42 209.689 Q2069.27 206.054 2069.27 199.689 Q2069.27 193.3 2072.42 189.689 Q2075.59 186.078 2081.17 186.078 Z" fill="#000000" fill-rule="nonzero" fill-opacity="1"></path><path clip-path="url(#clip820)" d="M2115.15 190.684 Q2114.43 190.267 2113.58 190.082 Q2112.74 189.874 2111.73 189.874 Q2108.11 189.874 2106.17 192.235 Q2104.25 194.573 2104.25 198.971 L2104.25 212.628 L2099.97 212.628 L2099.97 186.703 L2104.25 186.703 L2104.25 190.73 Q2105.59 188.369 2107.74 187.235 Q2109.9 186.078 2112.98 186.078 Q2113.42 186.078 2113.95 186.147 Q2114.48 186.193 2115.13 186.309 L2115.15 190.684 Z" fill="#000000" fill-rule="nonzero" fill-opacity="1"></path><path clip-path="url(#clip820)" d="M2121.33 199.689 Q2121.33 204.388 2123.25 207.073 Q2125.2 209.735 2128.58 209.735 Q2131.96 209.735 2133.9 207.073 Q2135.85 204.388 2135.85 199.689 Q2135.85 194.99 2133.9 192.328 Q2131.96 189.642 2128.58 189.642 Q2125.2 189.642 2123.25 192.328 Q2121.33 194.99 2121.33 199.689 M2135.85 208.74 Q2134.5 211.054 2132.44 212.189 Q2130.41 213.3 2127.54 213.3 Q2122.84 213.3 2119.87 209.55 Q2116.93 205.8 2116.93 199.689 Q2116.93 193.578 2119.87 189.828 Q2122.84 186.078 2127.54 186.078 Q2130.41 186.078 2132.44 187.212 Q2134.5 188.323 2135.85 190.638 L2135.85 186.703 L2140.1 186.703 L2140.1 222.49 L2135.85 222.49 L2135.85 208.74 Z" fill="#000000" fill-rule="nonzero" fill-opacity="1"></path><path clip-path="url(#clip820)" d="M2148.44 202.397 L2148.44 186.703 L2152.7 186.703 L2152.7 202.235 Q2152.7 205.916 2154.13 207.767 Q2155.57 209.596 2158.44 209.596 Q2161.89 209.596 2163.88 207.397 Q2165.89 205.198 2165.89 201.402 L2165.89 186.703 L2170.15 186.703 L2170.15 212.628 L2165.89 212.628 L2165.89 208.647 Q2164.34 211.008 2162.28 212.165 Q2160.24 213.3 2157.54 213.3 Q2153.07 213.3 2150.75 210.522 Q2148.44 207.744 2148.44 202.397 M2159.16 186.078 L2159.16 186.078 Z" fill="#000000" fill-rule="nonzero" fill-opacity="1"></path><path clip-path="url(#clip820)" d="M2201.1 198.601 L2201.1 200.684 L2181.52 200.684 Q2181.79 205.082 2184.16 207.397 Q2186.54 209.689 2190.78 209.689 Q2193.23 209.689 2195.52 209.087 Q2197.84 208.485 2200.1 207.281 L2200.1 211.309 Q2197.81 212.281 2195.41 212.79 Q2193 213.3 2190.52 213.3 Q2184.32 213.3 2180.68 209.689 Q2177.07 206.078 2177.07 199.92 Q2177.07 193.554 2180.5 189.828 Q2183.95 186.078 2189.78 186.078 Q2195.01 186.078 2198.04 189.457 Q2201.1 192.814 2201.1 198.601 M2196.84 197.351 Q2196.79 193.855 2194.87 191.772 Q2192.97 189.689 2189.83 189.689 Q2186.26 189.689 2184.11 191.703 Q2181.98 193.717 2181.66 197.374 L2196.84 197.351 Z" fill="#000000" fill-rule="nonzero" fill-opacity="1"></path><path clip-path="url(#clip820)" d="M2218.32 176.656 Q2215.22 181.98 2213.72 187.189 Q2212.21 192.397 2212.21 197.744 Q2212.21 203.091 2213.72 208.346 Q2215.24 213.578 2218.32 218.878 L2214.62 218.878 Q2211.15 213.439 2209.41 208.184 Q2207.7 202.929 2207.7 197.744 Q2207.7 192.582 2209.41 187.351 Q2211.12 182.119 2214.62 176.656 L2218.32 176.656 Z" fill="#000000" fill-rule="nonzero" fill-opacity="1"></path><path clip-path="url(#clip820)" d="M2230.8 179.342 L2230.8 186.703 L2239.57 186.703 L2239.57 190.013 L2230.8 190.013 L2230.8 204.087 Q2230.8 207.258 2231.66 208.161 Q2232.53 209.064 2235.2 209.064 L2239.57 209.064 L2239.57 212.628 L2235.2 212.628 Q2230.27 212.628 2228.39 210.8 Q2226.52 208.948 2226.52 204.087 L2226.52 190.013 L2223.39 190.013 L2223.39 186.703 L2226.52 186.703 L2226.52 179.342 L2230.8 179.342 Z" fill="#000000" fill-rule="nonzero" fill-opacity="1"></path><path clip-path="url(#clip820)" d="M2244.5 176.656 L2248.21 176.656 Q2251.68 182.119 2253.39 187.351 Q2255.13 192.582 2255.13 197.744 Q2255.13 202.929 2253.39 208.184 Q2251.68 213.439 2248.21 218.878 L2244.5 218.878 Q2247.58 213.578 2249.09 208.346 Q2250.61 203.091 2250.61 197.744 Q2250.61 192.397 2249.09 187.189 Q2247.58 181.98 2244.5 176.656 Z" fill="#000000" fill-rule="nonzero" fill-opacity="1"></path><path clip-path="url(#clip820)" d="M156.112 1486.45 L2352.76 1486.45 L2352.76 885.358 L156.112 885.358  Z" fill="#ffffff" fill-rule="evenodd" fill-opacity="1"></path>
<defs>
  <clipPath id="clip823">
    <rect x="156" y="885" width="2198" height="602"></rect>
  </clipPath>
</defs>
<polyline clip-path="url(#clip823)" style="stroke:#000000; stroke-linecap:round; stroke-linejoin:round; stroke-width:2; stroke-opacity:0.1; fill:none" points="218.281,1486.45 218.281,885.358 "></polyline>
<polyline clip-path="url(#clip823)" style="stroke:#000000; stroke-linecap:round; stroke-linejoin:round; stroke-width:2; stroke-opacity:0.1; fill:none" points="736.358,1486.45 736.358,885.358 "></polyline>
<polyline clip-path="url(#clip823)" style="stroke:#000000; stroke-linecap:round; stroke-linejoin:round; stroke-width:2; stroke-opacity:0.1; fill:none" points="1254.43,1486.45 1254.43,885.358 "></polyline>
<polyline clip-path="url(#clip823)" style="stroke:#000000; stroke-linecap:round; stroke-linejoin:round; stroke-width:2; stroke-opacity:0.1; fill:none" points="1772.51,1486.45 1772.51,885.358 "></polyline>
<polyline clip-path="url(#clip823)" style="stroke:#000000; stroke-linecap:round; stroke-linejoin:round; stroke-width:2; stroke-opacity:0.1; fill:none" points="2290.59,1486.45 2290.59,885.358 "></polyline>
<polyline clip-path="url(#clip820)" style="stroke:#000000; stroke-linecap:round; stroke-linejoin:round; stroke-width:4; stroke-opacity:1; fill:none" points="156.112,1486.45 2352.76,1486.45 "></polyline>
<polyline clip-path="url(#clip820)" style="stroke:#000000; stroke-linecap:round; stroke-linejoin:round; stroke-width:4; stroke-opacity:1; fill:none" points="218.281,1486.45 218.281,1467.55 "></polyline>
<polyline clip-path="url(#clip820)" style="stroke:#000000; stroke-linecap:round; stroke-linejoin:round; stroke-width:4; stroke-opacity:1; fill:none" points="736.358,1486.45 736.358,1467.55 "></polyline>
<polyline clip-path="url(#clip820)" style="stroke:#000000; stroke-linecap:round; stroke-linejoin:round; stroke-width:4; stroke-opacity:1; fill:none" points="1254.43,1486.45 1254.43,1467.55 "></polyline>
<polyline clip-path="url(#clip820)" style="stroke:#000000; stroke-linecap:round; stroke-linejoin:round; stroke-width:4; stroke-opacity:1; fill:none" points="1772.51,1486.45 1772.51,1467.55 "></polyline>
<polyline clip-path="url(#clip820)" style="stroke:#000000; stroke-linecap:round; stroke-linejoin:round; stroke-width:4; stroke-opacity:1; fill:none" points="2290.59,1486.45 2290.59,1467.55 "></polyline>
<path clip-path="url(#clip820)" d="M180.585 1517.37 Q176.974 1517.37 175.145 1520.93 Q173.339 1524.47 173.339 1531.6 Q173.339 1538.71 175.145 1542.27 Q176.974 1545.82 180.585 1545.82 Q184.219 1545.82 186.025 1542.27 Q187.853 1538.71 187.853 1531.6 Q187.853 1524.47 186.025 1520.93 Q184.219 1517.37 180.585 1517.37 M180.585 1513.66 Q186.395 1513.66 189.45 1518.27 Q192.529 1522.85 192.529 1531.6 Q192.529 1540.33 189.45 1544.94 Q186.395 1549.52 180.585 1549.52 Q174.775 1549.52 171.696 1544.94 Q168.64 1540.33 168.64 1531.6 Q168.64 1522.85 171.696 1518.27 Q174.775 1513.66 180.585 1513.66 Z" fill="#000000" fill-rule="nonzero" fill-opacity="1"></path><path clip-path="url(#clip820)" d="M200.747 1542.97 L205.631 1542.97 L205.631 1548.85 L200.747 1548.85 L200.747 1542.97 Z" fill="#000000" fill-rule="nonzero" fill-opacity="1"></path><path clip-path="url(#clip820)" d="M225.816 1517.37 Q222.205 1517.37 220.376 1520.93 Q218.571 1524.47 218.571 1531.6 Q218.571 1538.71 220.376 1542.27 Q222.205 1545.82 225.816 1545.82 Q229.45 1545.82 231.256 1542.27 Q233.084 1538.71 233.084 1531.6 Q233.084 1524.47 231.256 1520.93 Q229.45 1517.37 225.816 1517.37 M225.816 1513.66 Q231.626 1513.66 234.682 1518.27 Q237.76 1522.85 237.76 1531.6 Q237.76 1540.33 234.682 1544.94 Q231.626 1549.52 225.816 1549.52 Q220.006 1549.52 216.927 1544.94 Q213.872 1540.33 213.872 1531.6 Q213.872 1522.85 216.927 1518.27 Q220.006 1513.66 225.816 1513.66 Z" fill="#000000" fill-rule="nonzero" fill-opacity="1"></path><path clip-path="url(#clip820)" d="M255.978 1517.37 Q252.367 1517.37 250.538 1520.93 Q248.733 1524.47 248.733 1531.6 Q248.733 1538.71 250.538 1542.27 Q252.367 1545.82 255.978 1545.82 Q259.612 1545.82 261.418 1542.27 Q263.246 1538.71 263.246 1531.6 Q263.246 1524.47 261.418 1520.93 Q259.612 1517.37 255.978 1517.37 M255.978 1513.66 Q261.788 1513.66 264.844 1518.27 Q267.922 1522.85 267.922 1531.6 Q267.922 1540.33 264.844 1544.94 Q261.788 1549.52 255.978 1549.52 Q250.168 1549.52 247.089 1544.94 Q244.033 1540.33 244.033 1531.6 Q244.033 1522.85 247.089 1518.27 Q250.168 1513.66 255.978 1513.66 Z" fill="#000000" fill-rule="nonzero" fill-opacity="1"></path><path clip-path="url(#clip820)" d="M699.159 1517.37 Q695.548 1517.37 693.719 1520.93 Q691.913 1524.47 691.913 1531.6 Q691.913 1538.71 693.719 1542.27 Q695.548 1545.82 699.159 1545.82 Q702.793 1545.82 704.599 1542.27 Q706.427 1538.71 706.427 1531.6 Q706.427 1524.47 704.599 1520.93 Q702.793 1517.37 699.159 1517.37 M699.159 1513.66 Q704.969 1513.66 708.024 1518.27 Q711.103 1522.85 711.103 1531.6 Q711.103 1540.33 708.024 1544.94 Q704.969 1549.52 699.159 1549.52 Q693.349 1549.52 690.27 1544.94 Q687.214 1540.33 687.214 1531.6 Q687.214 1522.85 690.27 1518.27 Q693.349 1513.66 699.159 1513.66 Z" fill="#000000" fill-rule="nonzero" fill-opacity="1"></path><path clip-path="url(#clip820)" d="M719.321 1542.97 L724.205 1542.97 L724.205 1548.85 L719.321 1548.85 L719.321 1542.97 Z" fill="#000000" fill-rule="nonzero" fill-opacity="1"></path><path clip-path="url(#clip820)" d="M738.418 1544.91 L754.737 1544.91 L754.737 1548.85 L732.793 1548.85 L732.793 1544.91 Q735.455 1542.16 740.038 1537.53 Q744.645 1532.88 745.825 1531.53 Q748.071 1529.01 748.95 1527.27 Q749.853 1525.51 749.853 1523.82 Q749.853 1521.07 747.909 1519.33 Q745.987 1517.6 742.885 1517.6 Q740.686 1517.6 738.233 1518.36 Q735.802 1519.13 733.024 1520.68 L733.024 1515.95 Q735.848 1514.82 738.302 1514.24 Q740.756 1513.66 742.793 1513.66 Q748.163 1513.66 751.358 1516.35 Q754.552 1519.03 754.552 1523.52 Q754.552 1525.65 753.742 1527.57 Q752.955 1529.47 750.848 1532.07 Q750.27 1532.74 747.168 1535.95 Q744.066 1539.15 738.418 1544.91 Z" fill="#000000" fill-rule="nonzero" fill-opacity="1"></path><path clip-path="url(#clip820)" d="M764.598 1514.29 L782.955 1514.29 L782.955 1518.22 L768.881 1518.22 L768.881 1526.7 Q769.899 1526.35 770.918 1526.19 Q771.936 1526 772.955 1526 Q778.742 1526 782.121 1529.17 Q785.501 1532.34 785.501 1537.76 Q785.501 1543.34 782.029 1546.44 Q778.557 1549.52 772.237 1549.52 Q770.061 1549.52 767.793 1549.15 Q765.547 1548.78 763.14 1548.04 L763.14 1543.34 Q765.223 1544.47 767.445 1545.03 Q769.668 1545.58 772.144 1545.58 Q776.149 1545.58 778.487 1543.48 Q780.825 1541.37 780.825 1537.76 Q780.825 1534.15 778.487 1532.04 Q776.149 1529.94 772.144 1529.94 Q770.27 1529.94 768.395 1530.35 Q766.543 1530.77 764.598 1531.65 L764.598 1514.29 Z" fill="#000000" fill-rule="nonzero" fill-opacity="1"></path><path clip-path="url(#clip820)" d="M1216.74 1517.37 Q1213.13 1517.37 1211.3 1520.93 Q1209.49 1524.47 1209.49 1531.6 Q1209.49 1538.71 1211.3 1542.27 Q1213.13 1545.82 1216.74 1545.82 Q1220.37 1545.82 1222.18 1542.27 Q1224.01 1538.71 1224.01 1531.6 Q1224.01 1524.47 1222.18 1520.93 Q1220.37 1517.37 1216.74 1517.37 M1216.74 1513.66 Q1222.55 1513.66 1225.6 1518.27 Q1228.68 1522.85 1228.68 1531.6 Q1228.68 1540.33 1225.6 1544.94 Q1222.55 1549.52 1216.74 1549.52 Q1210.93 1549.52 1207.85 1544.94 Q1204.79 1540.33 1204.79 1531.6 Q1204.79 1522.85 1207.85 1518.27 Q1210.93 1513.66 1216.74 1513.66 Z" fill="#000000" fill-rule="nonzero" fill-opacity="1"></path><path clip-path="url(#clip820)" d="M1236.9 1542.97 L1241.78 1542.97 L1241.78 1548.85 L1236.9 1548.85 L1236.9 1542.97 Z" fill="#000000" fill-rule="nonzero" fill-opacity="1"></path><path clip-path="url(#clip820)" d="M1252.02 1514.29 L1270.37 1514.29 L1270.37 1518.22 L1256.3 1518.22 L1256.3 1526.7 Q1257.32 1526.35 1258.33 1526.19 Q1259.35 1526 1260.37 1526 Q1266.16 1526 1269.54 1529.17 Q1272.92 1532.34 1272.92 1537.76 Q1272.92 1543.34 1269.45 1546.44 Q1265.97 1549.52 1259.65 1549.52 Q1257.48 1549.52 1255.21 1549.15 Q1252.96 1548.78 1250.56 1548.04 L1250.56 1543.34 Q1252.64 1544.47 1254.86 1545.03 Q1257.08 1545.58 1259.56 1545.58 Q1263.57 1545.58 1265.9 1543.48 Q1268.24 1541.37 1268.24 1537.76 Q1268.24 1534.15 1265.9 1532.04 Q1263.57 1529.94 1259.56 1529.94 Q1257.69 1529.94 1255.81 1530.35 Q1253.96 1530.77 1252.02 1531.65 L1252.02 1514.29 Z" fill="#000000" fill-rule="nonzero" fill-opacity="1"></path><path clip-path="url(#clip820)" d="M1292.13 1517.37 Q1288.52 1517.37 1286.69 1520.93 Q1284.89 1524.47 1284.89 1531.6 Q1284.89 1538.71 1286.69 1542.27 Q1288.52 1545.82 1292.13 1545.82 Q1295.76 1545.82 1297.57 1542.27 Q1299.4 1538.71 1299.4 1531.6 Q1299.4 1524.47 1297.57 1520.93 Q1295.76 1517.37 1292.13 1517.37 M1292.13 1513.66 Q1297.94 1513.66 1301 1518.27 Q1304.07 1522.85 1304.07 1531.6 Q1304.07 1540.33 1301 1544.94 Q1297.94 1549.52 1292.13 1549.52 Q1286.32 1549.52 1283.24 1544.94 Q1280.19 1540.33 1280.19 1531.6 Q1280.19 1522.85 1283.24 1518.27 Q1286.32 1513.66 1292.13 1513.66 Z" fill="#000000" fill-rule="nonzero" fill-opacity="1"></path><path clip-path="url(#clip820)" d="M1735.31 1517.37 Q1731.7 1517.37 1729.87 1520.93 Q1728.07 1524.47 1728.07 1531.6 Q1728.07 1538.71 1729.87 1542.27 Q1731.7 1545.82 1735.31 1545.82 Q1738.95 1545.82 1740.75 1542.27 Q1742.58 1538.71 1742.58 1531.6 Q1742.58 1524.47 1740.75 1520.93 Q1738.95 1517.37 1735.31 1517.37 M1735.31 1513.66 Q1741.12 1513.66 1744.18 1518.27 Q1747.26 1522.85 1747.26 1531.6 Q1747.26 1540.33 1744.18 1544.94 Q1741.12 1549.52 1735.31 1549.52 Q1729.5 1549.52 1726.42 1544.94 Q1723.37 1540.33 1723.37 1531.6 Q1723.37 1522.85 1726.42 1518.27 Q1729.5 1513.66 1735.31 1513.66 Z" fill="#000000" fill-rule="nonzero" fill-opacity="1"></path><path clip-path="url(#clip820)" d="M1755.47 1542.97 L1760.36 1542.97 L1760.36 1548.85 L1755.47 1548.85 L1755.47 1542.97 Z" fill="#000000" fill-rule="nonzero" fill-opacity="1"></path><path clip-path="url(#clip820)" d="M1769.36 1514.29 L1791.58 1514.29 L1791.58 1516.28 L1779.04 1548.85 L1774.15 1548.85 L1785.96 1518.22 L1769.36 1518.22 L1769.36 1514.29 Z" fill="#000000" fill-rule="nonzero" fill-opacity="1"></path><path clip-path="url(#clip820)" d="M1800.75 1514.29 L1819.11 1514.29 L1819.11 1518.22 L1805.03 1518.22 L1805.03 1526.7 Q1806.05 1526.35 1807.07 1526.19 Q1808.09 1526 1809.11 1526 Q1814.89 1526 1818.27 1529.17 Q1821.65 1532.34 1821.65 1537.76 Q1821.65 1543.34 1818.18 1546.44 Q1814.71 1549.52 1808.39 1549.52 Q1806.21 1549.52 1803.95 1549.15 Q1801.7 1548.78 1799.29 1548.04 L1799.29 1543.34 Q1801.38 1544.47 1803.6 1545.03 Q1805.82 1545.58 1808.3 1545.58 Q1812.3 1545.58 1814.64 1543.48 Q1816.98 1541.37 1816.98 1537.76 Q1816.98 1534.15 1814.64 1532.04 Q1812.3 1529.94 1808.3 1529.94 Q1806.42 1529.94 1804.55 1530.35 Q1802.7 1530.77 1800.75 1531.65 L1800.75 1514.29 Z" fill="#000000" fill-rule="nonzero" fill-opacity="1"></path><path clip-path="url(#clip820)" d="M2242.66 1544.91 L2250.3 1544.91 L2250.3 1518.55 L2241.99 1520.21 L2241.99 1515.95 L2250.25 1514.29 L2254.93 1514.29 L2254.93 1544.91 L2262.57 1544.91 L2262.57 1548.85 L2242.66 1548.85 L2242.66 1544.91 Z" fill="#000000" fill-rule="nonzero" fill-opacity="1"></path><path clip-path="url(#clip820)" d="M2272.01 1542.97 L2276.89 1542.97 L2276.89 1548.85 L2272.01 1548.85 L2272.01 1542.97 Z" fill="#000000" fill-rule="nonzero" fill-opacity="1"></path><path clip-path="url(#clip820)" d="M2297.08 1517.37 Q2293.47 1517.37 2291.64 1520.93 Q2289.83 1524.47 2289.83 1531.6 Q2289.83 1538.71 2291.64 1542.27 Q2293.47 1545.82 2297.08 1545.82 Q2300.71 1545.82 2302.52 1542.27 Q2304.35 1538.71 2304.35 1531.6 Q2304.35 1524.47 2302.52 1520.93 Q2300.71 1517.37 2297.08 1517.37 M2297.08 1513.66 Q2302.89 1513.66 2305.95 1518.27 Q2309.02 1522.85 2309.02 1531.6 Q2309.02 1540.33 2305.95 1544.94 Q2302.89 1549.52 2297.08 1549.52 Q2291.27 1549.52 2288.19 1544.94 Q2285.14 1540.33 2285.14 1531.6 Q2285.14 1522.85 2288.19 1518.27 Q2291.27 1513.66 2297.08 1513.66 Z" fill="#000000" fill-rule="nonzero" fill-opacity="1"></path><path clip-path="url(#clip820)" d="M2327.24 1517.37 Q2323.63 1517.37 2321.8 1520.93 Q2320 1524.47 2320 1531.6 Q2320 1538.71 2321.8 1542.27 Q2323.63 1545.82 2327.24 1545.82 Q2330.88 1545.82 2332.68 1542.27 Q2334.51 1538.71 2334.51 1531.6 Q2334.51 1524.47 2332.68 1520.93 Q2330.88 1517.37 2327.24 1517.37 M2327.24 1513.66 Q2333.05 1513.66 2336.11 1518.27 Q2339.19 1522.85 2339.19 1531.6 Q2339.19 1540.33 2336.11 1544.94 Q2333.05 1549.52 2327.24 1549.52 Q2321.43 1549.52 2318.35 1544.94 Q2315.3 1540.33 2315.3 1531.6 Q2315.3 1522.85 2318.35 1518.27 Q2321.43 1513.66 2327.24 1513.66 Z" fill="#000000" fill-rule="nonzero" fill-opacity="1"></path><polyline clip-path="url(#clip823)" style="stroke:#000000; stroke-linecap:round; stroke-linejoin:round; stroke-width:2; stroke-opacity:0.1; fill:none" points="156.112,1380.9 2352.76,1380.9 "></polyline>
<polyline clip-path="url(#clip823)" style="stroke:#000000; stroke-linecap:round; stroke-linejoin:round; stroke-width:2; stroke-opacity:0.1; fill:none" points="156.112,1275.1 2352.76,1275.1 "></polyline>
<polyline clip-path="url(#clip823)" style="stroke:#000000; stroke-linecap:round; stroke-linejoin:round; stroke-width:2; stroke-opacity:0.1; fill:none" points="156.112,1169.31 2352.76,1169.31 "></polyline>
<polyline clip-path="url(#clip823)" style="stroke:#000000; stroke-linecap:round; stroke-linejoin:round; stroke-width:2; stroke-opacity:0.1; fill:none" points="156.112,1063.51 2352.76,1063.51 "></polyline>
<polyline clip-path="url(#clip823)" style="stroke:#000000; stroke-linecap:round; stroke-linejoin:round; stroke-width:2; stroke-opacity:0.1; fill:none" points="156.112,957.718 2352.76,957.718 "></polyline>
<polyline clip-path="url(#clip820)" style="stroke:#000000; stroke-linecap:round; stroke-linejoin:round; stroke-width:4; stroke-opacity:1; fill:none" points="156.112,1486.45 156.112,885.358 "></polyline>
<polyline clip-path="url(#clip820)" style="stroke:#000000; stroke-linecap:round; stroke-linejoin:round; stroke-width:4; stroke-opacity:1; fill:none" points="156.112,1380.9 175.01,1380.9 "></polyline>
<polyline clip-path="url(#clip820)" style="stroke:#000000; stroke-linecap:round; stroke-linejoin:round; stroke-width:4; stroke-opacity:1; fill:none" points="156.112,1275.1 175.01,1275.1 "></polyline>
<polyline clip-path="url(#clip820)" style="stroke:#000000; stroke-linecap:round; stroke-linejoin:round; stroke-width:4; stroke-opacity:1; fill:none" points="156.112,1169.31 175.01,1169.31 "></polyline>
<polyline clip-path="url(#clip820)" style="stroke:#000000; stroke-linecap:round; stroke-linejoin:round; stroke-width:4; stroke-opacity:1; fill:none" points="156.112,1063.51 175.01,1063.51 "></polyline>
<polyline clip-path="url(#clip820)" style="stroke:#000000; stroke-linecap:round; stroke-linejoin:round; stroke-width:4; stroke-opacity:1; fill:none" points="156.112,957.718 175.01,957.718 "></polyline>
<path clip-path="url(#clip820)" d="M62.9365 1366.69 Q59.3254 1366.69 57.4967 1370.26 Q55.6912 1373.8 55.6912 1380.93 Q55.6912 1388.04 57.4967 1391.6 Q59.3254 1395.14 62.9365 1395.14 Q66.5707 1395.14 68.3763 1391.6 Q70.205 1388.04 70.205 1380.93 Q70.205 1373.8 68.3763 1370.26 Q66.5707 1366.69 62.9365 1366.69 M62.9365 1362.99 Q68.7467 1362.99 71.8022 1367.6 Q74.8809 1372.18 74.8809 1380.93 Q74.8809 1389.66 71.8022 1394.26 Q68.7467 1398.85 62.9365 1398.85 Q57.1264 1398.85 54.0477 1394.26 Q50.9921 1389.66 50.9921 1380.93 Q50.9921 1372.18 54.0477 1367.6 Q57.1264 1362.99 62.9365 1362.99 Z" fill="#000000" fill-rule="nonzero" fill-opacity="1"></path><path clip-path="url(#clip820)" d="M83.0984 1392.3 L87.9827 1392.3 L87.9827 1398.18 L83.0984 1398.18 L83.0984 1392.3 Z" fill="#000000" fill-rule="nonzero" fill-opacity="1"></path><path clip-path="url(#clip820)" d="M108.168 1366.69 Q104.557 1366.69 102.728 1370.26 Q100.922 1373.8 100.922 1380.93 Q100.922 1388.04 102.728 1391.6 Q104.557 1395.14 108.168 1395.14 Q111.802 1395.14 113.608 1391.6 Q115.436 1388.04 115.436 1380.93 Q115.436 1373.8 113.608 1370.26 Q111.802 1366.69 108.168 1366.69 M108.168 1362.99 Q113.978 1362.99 117.033 1367.6 Q120.112 1372.18 120.112 1380.93 Q120.112 1389.66 117.033 1394.26 Q113.978 1398.85 108.168 1398.85 Q102.358 1398.85 99.2789 1394.26 Q96.2234 1389.66 96.2234 1380.93 Q96.2234 1372.18 99.2789 1367.6 Q102.358 1362.99 108.168 1362.99 Z" fill="#000000" fill-rule="nonzero" fill-opacity="1"></path><path clip-path="url(#clip820)" d="M63.9319 1260.9 Q60.3208 1260.9 58.4921 1264.46 Q56.6865 1268.01 56.6865 1275.14 Q56.6865 1282.24 58.4921 1285.81 Q60.3208 1289.35 63.9319 1289.35 Q67.5661 1289.35 69.3717 1285.81 Q71.2004 1282.24 71.2004 1275.14 Q71.2004 1268.01 69.3717 1264.46 Q67.5661 1260.9 63.9319 1260.9 M63.9319 1257.2 Q69.742 1257.2 72.7976 1261.8 Q75.8763 1266.39 75.8763 1275.14 Q75.8763 1283.86 72.7976 1288.47 Q69.742 1293.05 63.9319 1293.05 Q58.1217 1293.05 55.043 1288.47 Q51.9875 1283.86 51.9875 1275.14 Q51.9875 1266.39 55.043 1261.8 Q58.1217 1257.2 63.9319 1257.2 Z" fill="#000000" fill-rule="nonzero" fill-opacity="1"></path><path clip-path="url(#clip820)" d="M84.0938 1286.5 L88.978 1286.5 L88.978 1292.38 L84.0938 1292.38 L84.0938 1286.5 Z" fill="#000000" fill-rule="nonzero" fill-opacity="1"></path><path clip-path="url(#clip820)" d="M99.2095 1257.82 L117.566 1257.82 L117.566 1261.76 L103.492 1261.76 L103.492 1270.23 Q104.51 1269.88 105.529 1269.72 Q106.547 1269.53 107.566 1269.53 Q113.353 1269.53 116.733 1272.71 Q120.112 1275.88 120.112 1281.29 Q120.112 1286.87 116.64 1289.97 Q113.168 1293.05 106.848 1293.05 Q104.672 1293.05 102.404 1292.68 Q100.159 1292.31 97.7511 1291.57 L97.7511 1286.87 Q99.8345 1288.01 102.057 1288.56 Q104.279 1289.12 106.756 1289.12 Q110.76 1289.12 113.098 1287.01 Q115.436 1284.9 115.436 1281.29 Q115.436 1277.68 113.098 1275.58 Q110.76 1273.47 106.756 1273.47 Q104.881 1273.47 103.006 1273.89 Q101.154 1274.3 99.2095 1275.18 L99.2095 1257.82 Z" fill="#000000" fill-rule="nonzero" fill-opacity="1"></path><path clip-path="url(#clip820)" d="M53.7467 1182.65 L61.3856 1182.65 L61.3856 1156.29 L53.0754 1157.95 L53.0754 1153.69 L61.3393 1152.03 L66.0152 1152.03 L66.0152 1182.65 L73.654 1182.65 L73.654 1186.59 L53.7467 1186.59 L53.7467 1182.65 Z" fill="#000000" fill-rule="nonzero" fill-opacity="1"></path><path clip-path="url(#clip820)" d="M83.0984 1180.71 L87.9827 1180.71 L87.9827 1186.59 L83.0984 1186.59 L83.0984 1180.71 Z" fill="#000000" fill-rule="nonzero" fill-opacity="1"></path><path clip-path="url(#clip820)" d="M108.168 1155.11 Q104.557 1155.11 102.728 1158.67 Q100.922 1162.21 100.922 1169.34 Q100.922 1176.45 102.728 1180.01 Q104.557 1183.55 108.168 1183.55 Q111.802 1183.55 113.608 1180.01 Q115.436 1176.45 115.436 1169.34 Q115.436 1162.21 113.608 1158.67 Q111.802 1155.11 108.168 1155.11 M108.168 1151.4 Q113.978 1151.4 117.033 1156.01 Q120.112 1160.59 120.112 1169.34 Q120.112 1178.07 117.033 1182.67 Q113.978 1187.26 108.168 1187.26 Q102.358 1187.26 99.2789 1182.67 Q96.2234 1178.07 96.2234 1169.34 Q96.2234 1160.59 99.2789 1156.01 Q102.358 1151.4 108.168 1151.4 Z" fill="#000000" fill-rule="nonzero" fill-opacity="1"></path><path clip-path="url(#clip820)" d="M54.7421 1076.86 L62.381 1076.86 L62.381 1050.49 L54.0708 1052.16 L54.0708 1047.9 L62.3347 1046.23 L67.0106 1046.23 L67.0106 1076.86 L74.6494 1076.86 L74.6494 1080.79 L54.7421 1080.79 L54.7421 1076.86 Z" fill="#000000" fill-rule="nonzero" fill-opacity="1"></path><path clip-path="url(#clip820)" d="M84.0938 1074.91 L88.978 1074.91 L88.978 1080.79 L84.0938 1080.79 L84.0938 1074.91 Z" fill="#000000" fill-rule="nonzero" fill-opacity="1"></path><path clip-path="url(#clip820)" d="M99.2095 1046.23 L117.566 1046.23 L117.566 1050.17 L103.492 1050.17 L103.492 1058.64 Q104.51 1058.29 105.529 1058.13 Q106.547 1057.95 107.566 1057.95 Q113.353 1057.95 116.733 1061.12 Q120.112 1064.29 120.112 1069.7 Q120.112 1075.28 116.64 1078.39 Q113.168 1081.46 106.848 1081.46 Q104.672 1081.46 102.404 1081.09 Q100.159 1080.72 97.7511 1079.98 L97.7511 1075.28 Q99.8345 1076.42 102.057 1076.97 Q104.279 1077.53 106.756 1077.53 Q110.76 1077.53 113.098 1075.42 Q115.436 1073.32 115.436 1069.7 Q115.436 1066.09 113.098 1063.99 Q110.76 1061.88 106.756 1061.88 Q104.881 1061.88 103.006 1062.3 Q101.154 1062.71 99.2095 1063.59 L99.2095 1046.23 Z" fill="#000000" fill-rule="nonzero" fill-opacity="1"></path><path clip-path="url(#clip820)" d="M56.9643 971.063 L73.2837 971.063 L73.2837 974.998 L51.3393 974.998 L51.3393 971.063 Q54.0014 968.308 58.5847 963.679 Q63.1911 959.026 64.3717 957.684 Q66.617 955.16 67.4967 953.424 Q68.3994 951.665 68.3994 949.975 Q68.3994 947.221 66.455 945.485 Q64.5337 943.748 61.4319 943.748 Q59.2328 943.748 56.7791 944.512 Q54.3486 945.276 51.5708 946.827 L51.5708 942.105 Q54.3949 940.971 56.8486 940.392 Q59.3023 939.813 61.3393 939.813 Q66.7096 939.813 69.9041 942.498 Q73.0985 945.184 73.0985 949.674 Q73.0985 951.804 72.2883 953.725 Q71.5013 955.623 69.3948 958.216 Q68.8161 958.887 65.7143 962.105 Q62.6124 965.299 56.9643 971.063 Z" fill="#000000" fill-rule="nonzero" fill-opacity="1"></path><path clip-path="url(#clip820)" d="M83.0984 969.119 L87.9827 969.119 L87.9827 974.998 L83.0984 974.998 L83.0984 969.119 Z" fill="#000000" fill-rule="nonzero" fill-opacity="1"></path><path clip-path="url(#clip820)" d="M108.168 943.517 Q104.557 943.517 102.728 947.082 Q100.922 950.623 100.922 957.753 Q100.922 964.859 102.728 968.424 Q104.557 971.966 108.168 971.966 Q111.802 971.966 113.608 968.424 Q115.436 964.859 115.436 957.753 Q115.436 950.623 113.608 947.082 Q111.802 943.517 108.168 943.517 M108.168 939.813 Q113.978 939.813 117.033 944.42 Q120.112 949.003 120.112 957.753 Q120.112 966.48 117.033 971.086 Q113.978 975.67 108.168 975.67 Q102.358 975.67 99.2789 971.086 Q96.2234 966.48 96.2234 957.753 Q96.2234 949.003 99.2789 944.42 Q102.358 939.813 108.168 939.813 Z" fill="#000000" fill-rule="nonzero" fill-opacity="1"></path><polyline clip-path="url(#clip823)" style="stroke:#000000; stroke-linecap:round; stroke-linejoin:round; stroke-width:4; stroke-opacity:1; fill:none" points="218.281,1429.13 285.13,1430.23 351.978,1429.79 418.827,1427.81 485.676,1424.33 552.524,1419.37 619.373,1413 686.221,1405.29 753.07,1396.32 819.918,1386.19 886.767,1375.03 953.615,1362.96 1020.46,1350.12 1087.31,1336.67 1154.16,1322.78 1221.01,1308.61 1287.86,1294.33 1354.71,1280.1 1421.56,1266.11 1488.4,1252.49 1555.25,1239.41 1622.1,1226.99 1688.95,1215.36 1755.8,1204.64 1822.65,1194.91 1889.5,1186.27 1956.34,1178.78 2023.19,1172.52 2090.04,1167.54 2156.89,1163.9 2223.74,1161.66 2290.59,1160.86 "></polyline>
<polyline clip-path="url(#clip823)" style="stroke:#ff0000; stroke-linecap:round; stroke-linejoin:round; stroke-width:4; stroke-opacity:1; fill:none" points="218.281,1438.88 285.13,1391.11 351.978,1343.34 418.827,1296.08 485.676,1249.82 552.524,1205.03 619.373,1162.2 686.221,1121.81 753.07,1084.33 819.918,1050.25 886.767,1020.02 953.615,994.042 1020.46,972.693 1087.31,956.272 1154.16,944.988 1221.01,938.962 1287.86,938.211 1354.71,942.652 1421.56,952.111 1488.4,966.32 1555.25,984.949 1622.1,1007.61 1688.95,1033.88 1755.8,1063.39 1822.65,1095.73 1889.5,1130.54 1956.34,1167.52 2023.19,1206.45 2090.04,1247.15 2156.89,1289.49 2223.74,1333.41 2290.59,1378.92 "></polyline>
<polyline clip-path="url(#clip823)" style="stroke:#0000ff; stroke-linecap:round; stroke-linejoin:round; stroke-width:4; stroke-opacity:1; fill:none" points="218.281,1435.08 285.13,1431.83 351.978,1428.19 418.827,1424.08 485.676,1419.43 552.524,1414.15 619.373,1408.11 686.221,1401.17 753.07,1393.2 819.918,1384.13 886.767,1373.95 953.615,1362.71 1020.46,1350.51 1087.31,1337.45 1154.16,1323.6 1221.01,1309.03 1287.86,1293.87 1354.71,1278.37 1421.56,1262.94 1488.4,1248.04 1555.25,1234.12 1622.1,1221.5 1688.95,1210.34 1755.8,1200.62 1822.65,1192.2 1889.5,1184.91 1956.34,1178.58 2023.19,1173.09 2090.04,1168.39 2156.89,1164.47 2223.74,1161.37 2290.59,1159.11 "></polyline>
<polyline clip-path="url(#clip823)" style="stroke:#ffa500; stroke-linecap:round; stroke-linejoin:round; stroke-width:4; stroke-opacity:1; fill:none" points="218.281,1439.18 285.13,1398.22 351.978,1345.75 418.827,1297.45 485.676,1251.69 552.524,1205.44 619.373,1162.53 686.221,1122.81 753.07,1085.05 819.918,1050.48 886.767,1020.25 953.615,994.204 1020.46,972.492 1087.31,955.854 1154.16,944.432 1221.01,937.972 1287.86,936.813 1354.71,940.846 1421.56,949.211 1488.4,962.199 1555.25,980.473 1622.1,1003.28 1688.95,1029.54 1755.8,1058.88 1822.65,1090.66 1889.5,1123.33 1956.34,1156.69 2023.19,1193.11 2090.04,1234.17 2156.89,1278.14 2223.74,1321.36 2290.59,1359.03 "></polyline>
<circle clip-path="url(#clip823)" cx="218.281" cy="1432.28" r="14.4" fill="#800080" fill-rule="evenodd" fill-opacity="1" stroke="#000000" stroke-opacity="1" stroke-width="3.2"></circle>
<circle clip-path="url(#clip823)" cx="285.13" cy="1389.81" r="14.4" fill="#800080" fill-rule="evenodd" fill-opacity="1" stroke="#000000" stroke-opacity="1" stroke-width="3.2"></circle>
<circle clip-path="url(#clip823)" cx="351.978" cy="1388.3" r="14.4" fill="#800080" fill-rule="evenodd" fill-opacity="1" stroke="#000000" stroke-opacity="1" stroke-width="3.2"></circle>
<circle clip-path="url(#clip823)" cx="418.827" cy="1408.24" r="14.4" fill="#800080" fill-rule="evenodd" fill-opacity="1" stroke="#000000" stroke-opacity="1" stroke-width="3.2"></circle>
<circle clip-path="url(#clip823)" cx="485.676" cy="1404.86" r="14.4" fill="#800080" fill-rule="evenodd" fill-opacity="1" stroke="#000000" stroke-opacity="1" stroke-width="3.2"></circle>
<circle clip-path="url(#clip823)" cx="552.524" cy="1418.13" r="14.4" fill="#800080" fill-rule="evenodd" fill-opacity="1" stroke="#000000" stroke-opacity="1" stroke-width="3.2"></circle>
<circle clip-path="url(#clip823)" cx="619.373" cy="1414.42" r="14.4" fill="#800080" fill-rule="evenodd" fill-opacity="1" stroke="#000000" stroke-opacity="1" stroke-width="3.2"></circle>
<circle clip-path="url(#clip823)" cx="686.221" cy="1447.95" r="14.4" fill="#800080" fill-rule="evenodd" fill-opacity="1" stroke="#000000" stroke-opacity="1" stroke-width="3.2"></circle>
<circle clip-path="url(#clip823)" cx="753.07" cy="1398.63" r="14.4" fill="#800080" fill-rule="evenodd" fill-opacity="1" stroke="#000000" stroke-opacity="1" stroke-width="3.2"></circle>
<circle clip-path="url(#clip823)" cx="819.918" cy="1378.29" r="14.4" fill="#800080" fill-rule="evenodd" fill-opacity="1" stroke="#000000" stroke-opacity="1" stroke-width="3.2"></circle>
<circle clip-path="url(#clip823)" cx="886.767" cy="1376.03" r="14.4" fill="#800080" fill-rule="evenodd" fill-opacity="1" stroke="#000000" stroke-opacity="1" stroke-width="3.2"></circle>
<circle clip-path="url(#clip823)" cx="953.615" cy="1363.87" r="14.4" fill="#800080" fill-rule="evenodd" fill-opacity="1" stroke="#000000" stroke-opacity="1" stroke-width="3.2"></circle>
<circle clip-path="url(#clip823)" cx="1020.46" cy="1341.36" r="14.4" fill="#800080" fill-rule="evenodd" fill-opacity="1" stroke="#000000" stroke-opacity="1" stroke-width="3.2"></circle>
<circle clip-path="url(#clip823)" cx="1087.31" cy="1316.53" r="14.4" fill="#800080" fill-rule="evenodd" fill-opacity="1" stroke="#000000" stroke-opacity="1" stroke-width="3.2"></circle>
<circle clip-path="url(#clip823)" cx="1154.16" cy="1349.7" r="14.4" fill="#800080" fill-rule="evenodd" fill-opacity="1" stroke="#000000" stroke-opacity="1" stroke-width="3.2"></circle>
<circle clip-path="url(#clip823)" cx="1221.01" cy="1372.8" r="14.4" fill="#800080" fill-rule="evenodd" fill-opacity="1" stroke="#000000" stroke-opacity="1" stroke-width="3.2"></circle>
<circle clip-path="url(#clip823)" cx="1287.86" cy="1277.45" r="14.4" fill="#800080" fill-rule="evenodd" fill-opacity="1" stroke="#000000" stroke-opacity="1" stroke-width="3.2"></circle>
<circle clip-path="url(#clip823)" cx="1354.71" cy="1269.9" r="14.4" fill="#800080" fill-rule="evenodd" fill-opacity="1" stroke="#000000" stroke-opacity="1" stroke-width="3.2"></circle>
<circle clip-path="url(#clip823)" cx="1421.56" cy="1254.91" r="14.4" fill="#800080" fill-rule="evenodd" fill-opacity="1" stroke="#000000" stroke-opacity="1" stroke-width="3.2"></circle>
<circle clip-path="url(#clip823)" cx="1488.4" cy="1214.99" r="14.4" fill="#800080" fill-rule="evenodd" fill-opacity="1" stroke="#000000" stroke-opacity="1" stroke-width="3.2"></circle>
<circle clip-path="url(#clip823)" cx="1555.25" cy="1229.71" r="14.4" fill="#800080" fill-rule="evenodd" fill-opacity="1" stroke="#000000" stroke-opacity="1" stroke-width="3.2"></circle>
<circle clip-path="url(#clip823)" cx="1622.1" cy="1216.63" r="14.4" fill="#800080" fill-rule="evenodd" fill-opacity="1" stroke="#000000" stroke-opacity="1" stroke-width="3.2"></circle>
<circle clip-path="url(#clip823)" cx="1688.95" cy="1193" r="14.4" fill="#800080" fill-rule="evenodd" fill-opacity="1" stroke="#000000" stroke-opacity="1" stroke-width="3.2"></circle>
<circle clip-path="url(#clip823)" cx="1755.8" cy="1204.82" r="14.4" fill="#800080" fill-rule="evenodd" fill-opacity="1" stroke="#000000" stroke-opacity="1" stroke-width="3.2"></circle>
<circle clip-path="url(#clip823)" cx="1822.65" cy="1200.23" r="14.4" fill="#800080" fill-rule="evenodd" fill-opacity="1" stroke="#000000" stroke-opacity="1" stroke-width="3.2"></circle>
<circle clip-path="url(#clip823)" cx="1889.5" cy="1222.38" r="14.4" fill="#800080" fill-rule="evenodd" fill-opacity="1" stroke="#000000" stroke-opacity="1" stroke-width="3.2"></circle>
<circle clip-path="url(#clip823)" cx="1956.34" cy="1196.24" r="14.4" fill="#800080" fill-rule="evenodd" fill-opacity="1" stroke="#000000" stroke-opacity="1" stroke-width="3.2"></circle>
<circle clip-path="url(#clip823)" cx="2023.19" cy="1134.82" r="14.4" fill="#800080" fill-rule="evenodd" fill-opacity="1" stroke="#000000" stroke-opacity="1" stroke-width="3.2"></circle>
<circle clip-path="url(#clip823)" cx="2090.04" cy="1160.18" r="14.4" fill="#800080" fill-rule="evenodd" fill-opacity="1" stroke="#000000" stroke-opacity="1" stroke-width="3.2"></circle>
<circle clip-path="url(#clip823)" cx="2156.89" cy="1162.42" r="14.4" fill="#800080" fill-rule="evenodd" fill-opacity="1" stroke="#000000" stroke-opacity="1" stroke-width="3.2"></circle>
<circle clip-path="url(#clip823)" cx="2223.74" cy="1139.61" r="14.4" fill="#800080" fill-rule="evenodd" fill-opacity="1" stroke="#000000" stroke-opacity="1" stroke-width="3.2"></circle>
<circle clip-path="url(#clip823)" cx="2290.59" cy="1187.41" r="14.4" fill="#800080" fill-rule="evenodd" fill-opacity="1" stroke="#000000" stroke-opacity="1" stroke-width="3.2"></circle>
<circle clip-path="url(#clip823)" cx="218.281" cy="1469.44" r="14.4" fill="#ffff00" fill-rule="evenodd" fill-opacity="1" stroke="#000000" stroke-opacity="1" stroke-width="3.2"></circle>
<circle clip-path="url(#clip823)" cx="285.13" cy="1360.86" r="14.4" fill="#ffff00" fill-rule="evenodd" fill-opacity="1" stroke="#000000" stroke-opacity="1" stroke-width="3.2"></circle>
<circle clip-path="url(#clip823)" cx="351.978" cy="1350.74" r="14.4" fill="#ffff00" fill-rule="evenodd" fill-opacity="1" stroke="#000000" stroke-opacity="1" stroke-width="3.2"></circle>
<circle clip-path="url(#clip823)" cx="418.827" cy="1270.5" r="14.4" fill="#ffff00" fill-rule="evenodd" fill-opacity="1" stroke="#000000" stroke-opacity="1" stroke-width="3.2"></circle>
<circle clip-path="url(#clip823)" cx="485.676" cy="1231.73" r="14.4" fill="#ffff00" fill-rule="evenodd" fill-opacity="1" stroke="#000000" stroke-opacity="1" stroke-width="3.2"></circle>
<circle clip-path="url(#clip823)" cx="552.524" cy="1150.4" r="14.4" fill="#ffff00" fill-rule="evenodd" fill-opacity="1" stroke="#000000" stroke-opacity="1" stroke-width="3.2"></circle>
<circle clip-path="url(#clip823)" cx="619.373" cy="1183.04" r="14.4" fill="#ffff00" fill-rule="evenodd" fill-opacity="1" stroke="#000000" stroke-opacity="1" stroke-width="3.2"></circle>
<circle clip-path="url(#clip823)" cx="686.221" cy="1077.03" r="14.4" fill="#ffff00" fill-rule="evenodd" fill-opacity="1" stroke="#000000" stroke-opacity="1" stroke-width="3.2"></circle>
<circle clip-path="url(#clip823)" cx="753.07" cy="1107.24" r="14.4" fill="#ffff00" fill-rule="evenodd" fill-opacity="1" stroke="#000000" stroke-opacity="1" stroke-width="3.2"></circle>
<circle clip-path="url(#clip823)" cx="819.918" cy="1021.88" r="14.4" fill="#ffff00" fill-rule="evenodd" fill-opacity="1" stroke="#000000" stroke-opacity="1" stroke-width="3.2"></circle>
<circle clip-path="url(#clip823)" cx="886.767" cy="987.642" r="14.4" fill="#ffff00" fill-rule="evenodd" fill-opacity="1" stroke="#000000" stroke-opacity="1" stroke-width="3.2"></circle>
<circle clip-path="url(#clip823)" cx="953.615" cy="964.327" r="14.4" fill="#ffff00" fill-rule="evenodd" fill-opacity="1" stroke="#000000" stroke-opacity="1" stroke-width="3.2"></circle>
<circle clip-path="url(#clip823)" cx="1020.46" cy="999.653" r="14.4" fill="#ffff00" fill-rule="evenodd" fill-opacity="1" stroke="#000000" stroke-opacity="1" stroke-width="3.2"></circle>
<circle clip-path="url(#clip823)" cx="1087.31" cy="954.086" r="14.4" fill="#ffff00" fill-rule="evenodd" fill-opacity="1" stroke="#000000" stroke-opacity="1" stroke-width="3.2"></circle>
<circle clip-path="url(#clip823)" cx="1154.16" cy="928.255" r="14.4" fill="#ffff00" fill-rule="evenodd" fill-opacity="1" stroke="#000000" stroke-opacity="1" stroke-width="3.2"></circle>
<circle clip-path="url(#clip823)" cx="1221.01" cy="960.234" r="14.4" fill="#ffff00" fill-rule="evenodd" fill-opacity="1" stroke="#000000" stroke-opacity="1" stroke-width="3.2"></circle>
<circle clip-path="url(#clip823)" cx="1287.86" cy="902.37" r="14.4" fill="#ffff00" fill-rule="evenodd" fill-opacity="1" stroke="#000000" stroke-opacity="1" stroke-width="3.2"></circle>
<circle clip-path="url(#clip823)" cx="1354.71" cy="943.931" r="14.4" fill="#ffff00" fill-rule="evenodd" fill-opacity="1" stroke="#000000" stroke-opacity="1" stroke-width="3.2"></circle>
<circle clip-path="url(#clip823)" cx="1421.56" cy="945.552" r="14.4" fill="#ffff00" fill-rule="evenodd" fill-opacity="1" stroke="#000000" stroke-opacity="1" stroke-width="3.2"></circle>
<circle clip-path="url(#clip823)" cx="1488.4" cy="911.713" r="14.4" fill="#ffff00" fill-rule="evenodd" fill-opacity="1" stroke="#000000" stroke-opacity="1" stroke-width="3.2"></circle>
<circle clip-path="url(#clip823)" cx="1555.25" cy="1035.1" r="14.4" fill="#ffff00" fill-rule="evenodd" fill-opacity="1" stroke="#000000" stroke-opacity="1" stroke-width="3.2"></circle>
<circle clip-path="url(#clip823)" cx="1622.1" cy="964.451" r="14.4" fill="#ffff00" fill-rule="evenodd" fill-opacity="1" stroke="#000000" stroke-opacity="1" stroke-width="3.2"></circle>
<circle clip-path="url(#clip823)" cx="1688.95" cy="1046.6" r="14.4" fill="#ffff00" fill-rule="evenodd" fill-opacity="1" stroke="#000000" stroke-opacity="1" stroke-width="3.2"></circle>
<circle clip-path="url(#clip823)" cx="1755.8" cy="1077.76" r="14.4" fill="#ffff00" fill-rule="evenodd" fill-opacity="1" stroke="#000000" stroke-opacity="1" stroke-width="3.2"></circle>
<circle clip-path="url(#clip823)" cx="1822.65" cy="1100.5" r="14.4" fill="#ffff00" fill-rule="evenodd" fill-opacity="1" stroke="#000000" stroke-opacity="1" stroke-width="3.2"></circle>
<circle clip-path="url(#clip823)" cx="1889.5" cy="1108.93" r="14.4" fill="#ffff00" fill-rule="evenodd" fill-opacity="1" stroke="#000000" stroke-opacity="1" stroke-width="3.2"></circle>
<circle clip-path="url(#clip823)" cx="1956.34" cy="1197.95" r="14.4" fill="#ffff00" fill-rule="evenodd" fill-opacity="1" stroke="#000000" stroke-opacity="1" stroke-width="3.2"></circle>
<circle clip-path="url(#clip823)" cx="2023.19" cy="1211.25" r="14.4" fill="#ffff00" fill-rule="evenodd" fill-opacity="1" stroke="#000000" stroke-opacity="1" stroke-width="3.2"></circle>
<circle clip-path="url(#clip823)" cx="2090.04" cy="1225.99" r="14.4" fill="#ffff00" fill-rule="evenodd" fill-opacity="1" stroke="#000000" stroke-opacity="1" stroke-width="3.2"></circle>
<circle clip-path="url(#clip823)" cx="2156.89" cy="1244.08" r="14.4" fill="#ffff00" fill-rule="evenodd" fill-opacity="1" stroke="#000000" stroke-opacity="1" stroke-width="3.2"></circle>
<circle clip-path="url(#clip823)" cx="2223.74" cy="1296.28" r="14.4" fill="#ffff00" fill-rule="evenodd" fill-opacity="1" stroke="#000000" stroke-opacity="1" stroke-width="3.2"></circle>
<circle clip-path="url(#clip823)" cx="2290.59" cy="1388.22" r="14.4" fill="#ffff00" fill-rule="evenodd" fill-opacity="1" stroke="#000000" stroke-opacity="1" stroke-width="3.2"></circle>
<path clip-path="url(#clip820)" d="M1914.41 1268.27 L2279.53 1268.27 L2279.53 905.394 L1914.41 905.394  Z" fill="#ffffff" fill-rule="evenodd" fill-opacity="1"></path>
<polyline clip-path="url(#clip820)" style="stroke:#000000; stroke-linecap:round; stroke-linejoin:round; stroke-width:4; stroke-opacity:1; fill:none" points="1914.41,1268.27 2279.53,1268.27 2279.53,905.394 1914.41,905.394 1914.41,1268.27 "></polyline>
<polyline clip-path="url(#clip820)" style="stroke:#000000; stroke-linecap:round; stroke-linejoin:round; stroke-width:4; stroke-opacity:1; fill:none" points="1938.82,957.234 2085.26,957.234 "></polyline>
<path clip-path="url(#clip820)" d="M2128.92 958.079 L2114.18 958.079 Q2114.53 965.001 2116.12 967.94 Q2118.11 971.551 2121.56 971.551 Q2125.04 971.551 2126.96 967.917 Q2128.65 964.723 2128.92 958.079 M2128.85 954.144 Q2128.21 947.57 2126.96 945.255 Q2124.97 941.598 2121.56 941.598 Q2118.02 941.598 2116.15 945.209 Q2114.67 948.126 2114.23 954.144 L2128.85 954.144 M2121.56 938.126 Q2127.12 938.126 2130.29 943.033 Q2133.46 947.917 2133.46 956.575 Q2133.46 965.209 2130.29 970.116 Q2127.12 975.047 2121.56 975.047 Q2115.98 975.047 2112.84 970.116 Q2109.67 965.209 2109.67 956.575 Q2109.67 947.917 2112.84 943.033 Q2115.98 938.126 2121.56 938.126 Z" fill="#000000" fill-rule="nonzero" fill-opacity="1"></path><path clip-path="url(#clip820)" d="M2164.27 969.584 L2164.27 960.302 L2156.63 960.302 L2156.63 956.459 L2168.9 956.459 L2168.9 971.297 Q2166.19 973.218 2162.93 974.214 Q2159.66 975.186 2155.96 975.186 Q2147.86 975.186 2143.28 970.464 Q2138.72 965.718 2138.72 957.269 Q2138.72 948.797 2143.28 944.075 Q2147.86 939.329 2155.96 939.329 Q2159.34 939.329 2162.37 940.163 Q2165.43 940.996 2168 942.616 L2168 947.593 Q2165.41 945.394 2162.49 944.283 Q2159.57 943.172 2156.35 943.172 Q2150.01 943.172 2146.82 946.714 Q2143.65 950.255 2143.65 957.269 Q2143.65 964.26 2146.82 967.802 Q2150.01 971.343 2156.35 971.343 Q2158.83 971.343 2160.78 970.926 Q2162.72 970.487 2164.27 969.584 Z" fill="#000000" fill-rule="nonzero" fill-opacity="1"></path><path clip-path="url(#clip820)" d="M2170.96 939.954 L2200.2 939.954 L2200.2 943.89 L2187.93 943.89 L2187.93 974.514 L2183.23 974.514 L2183.23 943.89 L2170.96 943.89 L2170.96 939.954 Z" fill="#000000" fill-rule="nonzero" fill-opacity="1"></path><polyline clip-path="url(#clip820)" style="stroke:#ff0000; stroke-linecap:round; stroke-linejoin:round; stroke-width:4; stroke-opacity:1; fill:none" points="1938.82,1009.07 2085.26,1009.07 "></polyline>
<path clip-path="url(#clip820)" d="M2119.27 1027.03 Q2109.67 1027.03 2109.67 1013.28 Q2109.67 1007.84 2113.25 1000.43 L2117.84 1000.43 Q2114.53 1007.84 2114.53 1013.39 Q2114.53 1023.41 2119.67 1023.41 Q2124.36 1023.41 2124.36 1010.96 L2128.3 1010.96 Q2128.3 1023.41 2133 1023.41 Q2138.14 1023.41 2138.14 1013.39 Q2138.14 1007.84 2134.83 1000.43 L2139.41 1000.43 Q2143 1007.84 2143 1013.28 Q2143 1027.03 2133.39 1027.03 Q2127.1 1027.03 2126.33 1020.1 Q2125.38 1027.03 2119.27 1027.03 Z" fill="#000000" fill-rule="nonzero" fill-opacity="1"></path><path clip-path="url(#clip820)" d="M2174.46 1021.42 L2174.46 1012.14 L2166.82 1012.14 L2166.82 1008.3 L2179.09 1008.3 L2179.09 1023.14 Q2176.38 1025.06 2173.11 1026.05 Q2169.85 1027.03 2166.15 1027.03 Q2158.04 1027.03 2153.46 1022.3 Q2148.9 1017.56 2148.9 1009.11 Q2148.9 1000.64 2153.46 995.915 Q2158.04 991.169 2166.15 991.169 Q2169.53 991.169 2172.56 992.003 Q2175.61 992.836 2178.18 994.456 L2178.18 999.433 Q2175.59 997.234 2172.67 996.123 Q2169.76 995.012 2166.54 995.012 Q2160.2 995.012 2157 998.554 Q2153.83 1002.1 2153.83 1009.11 Q2153.83 1016.1 2157 1019.64 Q2160.2 1023.18 2166.54 1023.18 Q2169.02 1023.18 2170.96 1022.77 Q2172.91 1022.33 2174.46 1021.42 Z" fill="#000000" fill-rule="nonzero" fill-opacity="1"></path><path clip-path="url(#clip820)" d="M2181.15 991.794 L2210.38 991.794 L2210.38 995.73 L2198.11 995.73 L2198.11 1026.35 L2193.41 1026.35 L2193.41 995.73 L2181.15 995.73 L2181.15 991.794 Z" fill="#000000" fill-rule="nonzero" fill-opacity="1"></path><polyline clip-path="url(#clip820)" style="stroke:#0000ff; stroke-linecap:round; stroke-linejoin:round; stroke-width:4; stroke-opacity:1; fill:none" points="1938.82,1060.91 2085.26,1060.91 "></polyline>
<path clip-path="url(#clip820)" d="M2128.92 1061.76 L2114.18 1061.76 Q2114.53 1068.68 2116.12 1071.62 Q2118.11 1075.23 2121.56 1075.23 Q2125.04 1075.23 2126.96 1071.6 Q2128.65 1068.4 2128.92 1061.76 M2128.85 1057.82 Q2128.21 1051.25 2126.96 1048.94 Q2124.97 1045.28 2121.56 1045.28 Q2118.02 1045.28 2116.15 1048.89 Q2114.67 1051.81 2114.23 1057.82 L2128.85 1057.82 M2121.56 1041.81 Q2127.12 1041.81 2130.29 1046.71 Q2133.46 1051.6 2133.46 1060.25 Q2133.46 1068.89 2130.29 1073.8 Q2127.12 1078.73 2121.56 1078.73 Q2115.98 1078.73 2112.84 1073.8 Q2109.67 1068.89 2109.67 1060.25 Q2109.67 1051.6 2112.84 1046.71 Q2115.98 1041.81 2121.56 1041.81 Z" fill="#000000" fill-rule="nonzero" fill-opacity="1"></path><path clip-path="url(#clip820)" d="M2145.38 1047.48 L2145.38 1060.46 L2151.26 1060.46 Q2154.53 1060.46 2156.31 1058.77 Q2158.09 1057.08 2158.09 1053.96 Q2158.09 1050.86 2156.31 1049.17 Q2154.53 1047.48 2151.26 1047.48 L2145.38 1047.48 M2140.71 1043.63 L2151.26 1043.63 Q2157.07 1043.63 2160.04 1046.27 Q2163.02 1048.89 2163.02 1053.96 Q2163.02 1059.07 2160.04 1061.69 Q2157.07 1064.31 2151.26 1064.31 L2145.38 1064.31 L2145.38 1078.19 L2140.71 1078.19 L2140.71 1043.63 Z" fill="#000000" fill-rule="nonzero" fill-opacity="1"></path><path clip-path="url(#clip820)" d="M2183.3 1056.25 Q2182.58 1055.83 2181.72 1055.65 Q2180.89 1055.44 2179.87 1055.44 Q2176.26 1055.44 2174.32 1057.8 Q2172.4 1060.14 2172.4 1064.54 L2172.4 1078.19 L2168.11 1078.19 L2168.11 1052.27 L2172.4 1052.27 L2172.4 1056.3 Q2173.74 1053.94 2175.89 1052.8 Q2178.04 1051.64 2181.12 1051.64 Q2181.56 1051.64 2182.1 1051.71 Q2182.63 1051.76 2183.28 1051.88 L2183.3 1056.25 Z" fill="#000000" fill-rule="nonzero" fill-opacity="1"></path><path clip-path="url(#clip820)" d="M2208.9 1064.17 L2208.9 1066.25 L2189.32 1066.25 Q2189.6 1070.65 2191.96 1072.96 Q2194.34 1075.25 2198.58 1075.25 Q2201.03 1075.25 2203.32 1074.65 Q2205.64 1074.05 2207.91 1072.85 L2207.91 1076.87 Q2205.61 1077.85 2203.21 1078.36 Q2200.8 1078.87 2198.32 1078.87 Q2192.12 1078.87 2188.48 1075.25 Q2184.87 1071.64 2184.87 1065.49 Q2184.87 1059.12 2188.3 1055.39 Q2191.75 1051.64 2197.58 1051.64 Q2202.81 1051.64 2205.85 1055.02 Q2208.9 1058.38 2208.9 1064.17 M2204.64 1062.92 Q2204.6 1059.42 2202.67 1057.34 Q2200.78 1055.25 2197.63 1055.25 Q2194.06 1055.25 2191.91 1057.27 Q2189.78 1059.28 2189.46 1062.94 L2204.64 1062.92 Z" fill="#000000" fill-rule="nonzero" fill-opacity="1"></path><path clip-path="url(#clip820)" d="M2232.95 1056.2 L2232.95 1042.18 L2237.21 1042.18 L2237.21 1078.19 L2232.95 1078.19 L2232.95 1074.31 Q2231.61 1076.62 2229.55 1077.75 Q2227.51 1078.87 2224.64 1078.87 Q2219.94 1078.87 2216.98 1075.12 Q2214.04 1071.37 2214.04 1065.25 Q2214.04 1059.14 2216.98 1055.39 Q2219.94 1051.64 2224.64 1051.64 Q2227.51 1051.64 2229.55 1052.78 Q2231.61 1053.89 2232.95 1056.2 M2218.44 1065.25 Q2218.44 1069.95 2220.36 1072.64 Q2222.3 1075.3 2225.68 1075.3 Q2229.06 1075.3 2231.01 1072.64 Q2232.95 1069.95 2232.95 1065.25 Q2232.95 1060.56 2231.01 1057.89 Q2229.06 1055.21 2225.68 1055.21 Q2222.3 1055.21 2220.36 1057.89 Q2218.44 1060.56 2218.44 1065.25 Z" fill="#000000" fill-rule="nonzero" fill-opacity="1"></path><polyline clip-path="url(#clip820)" style="stroke:#ffa500; stroke-linecap:round; stroke-linejoin:round; stroke-width:4; stroke-opacity:1; fill:none" points="1938.82,1112.75 2085.26,1112.75 "></polyline>
<path clip-path="url(#clip820)" d="M2119.27 1130.71 Q2109.67 1130.71 2109.67 1116.96 Q2109.67 1111.52 2113.25 1104.11 L2117.84 1104.11 Q2114.53 1111.52 2114.53 1117.07 Q2114.53 1127.09 2119.67 1127.09 Q2124.36 1127.09 2124.36 1114.64 L2128.3 1114.64 Q2128.3 1127.09 2133 1127.09 Q2138.14 1127.09 2138.14 1117.07 Q2138.14 1111.52 2134.83 1104.11 L2139.41 1104.11 Q2143 1111.52 2143 1116.96 Q2143 1130.71 2133.39 1130.71 Q2127.1 1130.71 2126.33 1123.78 Q2125.38 1130.71 2119.27 1130.71 Z" fill="#000000" fill-rule="nonzero" fill-opacity="1"></path><path clip-path="url(#clip820)" d="M2155.57 1099.32 L2155.57 1112.3 L2161.45 1112.3 Q2164.71 1112.3 2166.49 1110.61 Q2168.28 1108.92 2168.28 1105.8 Q2168.28 1102.7 2166.49 1101.01 Q2164.71 1099.32 2161.45 1099.32 L2155.57 1099.32 M2150.89 1095.47 L2161.45 1095.47 Q2167.26 1095.47 2170.22 1098.11 Q2173.21 1100.73 2173.21 1105.8 Q2173.21 1110.91 2170.22 1113.53 Q2167.26 1116.15 2161.45 1116.15 L2155.57 1116.15 L2155.57 1130.03 L2150.89 1130.03 L2150.89 1095.47 Z" fill="#000000" fill-rule="nonzero" fill-opacity="1"></path><path clip-path="url(#clip820)" d="M2193.48 1108.09 Q2192.77 1107.67 2191.91 1107.49 Q2191.08 1107.28 2190.06 1107.28 Q2186.45 1107.28 2184.5 1109.64 Q2182.58 1111.98 2182.58 1116.38 L2182.58 1130.03 L2178.3 1130.03 L2178.3 1104.11 L2182.58 1104.11 L2182.58 1108.14 Q2183.92 1105.78 2186.08 1104.64 Q2188.23 1103.48 2191.31 1103.48 Q2191.75 1103.48 2192.28 1103.55 Q2192.81 1103.6 2193.46 1103.72 L2193.48 1108.09 Z" fill="#000000" fill-rule="nonzero" fill-opacity="1"></path><path clip-path="url(#clip820)" d="M2219.09 1116.01 L2219.09 1118.09 L2199.5 1118.09 Q2199.78 1122.49 2202.14 1124.8 Q2204.53 1127.09 2208.76 1127.09 Q2211.22 1127.09 2213.51 1126.49 Q2215.82 1125.89 2218.09 1124.69 L2218.09 1128.71 Q2215.8 1129.69 2213.39 1130.2 Q2210.98 1130.71 2208.51 1130.71 Q2202.3 1130.71 2198.67 1127.09 Q2195.06 1123.48 2195.06 1117.33 Q2195.06 1110.96 2198.48 1107.23 Q2201.93 1103.48 2207.77 1103.48 Q2213 1103.48 2216.03 1106.86 Q2219.09 1110.22 2219.09 1116.01 M2214.83 1114.76 Q2214.78 1111.26 2212.86 1109.18 Q2210.96 1107.09 2207.81 1107.09 Q2204.25 1107.09 2202.1 1109.11 Q2199.97 1111.12 2199.64 1114.78 L2214.83 1114.76 Z" fill="#000000" fill-rule="nonzero" fill-opacity="1"></path><path clip-path="url(#clip820)" d="M2243.14 1108.04 L2243.14 1094.02 L2247.4 1094.02 L2247.4 1130.03 L2243.14 1130.03 L2243.14 1126.15 Q2241.79 1128.46 2239.73 1129.59 Q2237.7 1130.71 2234.83 1130.71 Q2230.13 1130.71 2227.16 1126.96 Q2224.22 1123.21 2224.22 1117.09 Q2224.22 1110.98 2227.16 1107.23 Q2230.13 1103.48 2234.83 1103.48 Q2237.7 1103.48 2239.73 1104.62 Q2241.79 1105.73 2243.14 1108.04 M2228.62 1117.09 Q2228.62 1121.79 2230.54 1124.48 Q2232.49 1127.14 2235.87 1127.14 Q2239.25 1127.14 2241.19 1124.48 Q2243.14 1121.79 2243.14 1117.09 Q2243.14 1112.4 2241.19 1109.73 Q2239.25 1107.05 2235.87 1107.05 Q2232.49 1107.05 2230.54 1109.73 Q2228.62 1112.4 2228.62 1117.09 Z" fill="#000000" fill-rule="nonzero" fill-opacity="1"></path><circle clip-path="url(#clip820)" cx="2012.04" cy="1164.59" r="20.48" fill="#800080" fill-rule="evenodd" fill-opacity="1" stroke="#000000" stroke-opacity="1" stroke-width="4.55111"></circle>
<path clip-path="url(#clip820)" d="M2128.92 1165.44 L2114.18 1165.44 Q2114.53 1172.36 2116.12 1175.3 Q2118.11 1178.91 2121.56 1178.91 Q2125.04 1178.91 2126.96 1175.28 Q2128.65 1172.08 2128.92 1165.44 M2128.85 1161.5 Q2128.21 1154.93 2126.96 1152.62 Q2124.97 1148.96 2121.56 1148.96 Q2118.02 1148.96 2116.15 1152.57 Q2114.67 1155.49 2114.23 1161.5 L2128.85 1161.5 M2121.56 1145.49 Q2127.12 1145.49 2130.29 1150.39 Q2133.46 1155.28 2133.46 1163.93 Q2133.46 1172.57 2130.29 1177.48 Q2127.12 1182.41 2121.56 1182.41 Q2115.98 1182.41 2112.84 1177.48 Q2109.67 1172.57 2109.67 1163.93 Q2109.67 1155.28 2112.84 1150.39 Q2115.98 1145.49 2121.56 1145.49 Z" fill="#000000" fill-rule="nonzero" fill-opacity="1"></path><path clip-path="url(#clip820)" d="M2145.38 1151.16 L2145.38 1178.03 L2151.03 1178.03 Q2158.18 1178.03 2161.49 1174.79 Q2164.83 1171.55 2164.83 1164.56 Q2164.83 1157.62 2161.49 1154.4 Q2158.18 1151.16 2151.03 1151.16 L2145.38 1151.16 M2140.71 1147.31 L2150.31 1147.31 Q2160.36 1147.31 2165.06 1151.5 Q2169.76 1155.67 2169.76 1164.56 Q2169.76 1173.49 2165.04 1177.68 Q2160.31 1181.87 2150.31 1181.87 L2140.71 1181.87 L2140.71 1147.31 Z" fill="#000000" fill-rule="nonzero" fill-opacity="1"></path><path clip-path="url(#clip820)" d="M2188.81 1168.84 Q2183.65 1168.84 2181.66 1170.02 Q2179.66 1171.2 2179.66 1174.05 Q2179.66 1176.32 2181.15 1177.66 Q2182.65 1178.98 2185.22 1178.98 Q2188.76 1178.98 2190.89 1176.48 Q2193.04 1173.96 2193.04 1169.79 L2193.04 1168.84 L2188.81 1168.84 M2197.3 1167.08 L2197.3 1181.87 L2193.04 1181.87 L2193.04 1177.94 Q2191.59 1180.3 2189.41 1181.43 Q2187.23 1182.55 2184.09 1182.55 Q2180.1 1182.55 2177.74 1180.32 Q2175.41 1178.08 2175.41 1174.33 Q2175.41 1169.95 2178.32 1167.73 Q2181.26 1165.51 2187.07 1165.51 L2193.04 1165.51 L2193.04 1165.09 Q2193.04 1162.15 2191.1 1160.56 Q2189.18 1158.93 2185.68 1158.93 Q2183.46 1158.93 2181.35 1159.47 Q2179.25 1160 2177.3 1161.06 L2177.3 1157.13 Q2179.64 1156.23 2181.84 1155.79 Q2184.04 1155.32 2186.12 1155.32 Q2191.75 1155.32 2194.53 1158.24 Q2197.3 1161.16 2197.3 1167.08 Z" fill="#000000" fill-rule="nonzero" fill-opacity="1"></path><path clip-path="url(#clip820)" d="M2210.29 1148.59 L2210.29 1155.95 L2219.06 1155.95 L2219.06 1159.26 L2210.29 1159.26 L2210.29 1173.33 Q2210.29 1176.5 2211.15 1177.41 Q2212.03 1178.31 2214.69 1178.31 L2219.06 1178.31 L2219.06 1181.87 L2214.69 1181.87 Q2209.76 1181.87 2207.88 1180.05 Q2206.01 1178.19 2206.01 1173.33 L2206.01 1159.26 L2202.88 1159.26 L2202.88 1155.95 L2206.01 1155.95 L2206.01 1148.59 L2210.29 1148.59 Z" fill="#000000" fill-rule="nonzero" fill-opacity="1"></path><path clip-path="url(#clip820)" d="M2236.45 1168.84 Q2231.28 1168.84 2229.29 1170.02 Q2227.3 1171.2 2227.3 1174.05 Q2227.3 1176.32 2228.78 1177.66 Q2230.29 1178.98 2232.86 1178.98 Q2236.4 1178.98 2238.53 1176.48 Q2240.68 1173.96 2240.68 1169.79 L2240.68 1168.84 L2236.45 1168.84 M2244.94 1167.08 L2244.94 1181.87 L2240.68 1181.87 L2240.68 1177.94 Q2239.22 1180.3 2237.05 1181.43 Q2234.87 1182.55 2231.72 1182.55 Q2227.74 1182.55 2225.38 1180.32 Q2223.04 1178.08 2223.04 1174.33 Q2223.04 1169.95 2225.96 1167.73 Q2228.9 1165.51 2234.71 1165.51 L2240.68 1165.51 L2240.68 1165.09 Q2240.68 1162.15 2238.74 1160.56 Q2236.82 1158.93 2233.32 1158.93 Q2231.1 1158.93 2228.99 1159.47 Q2226.89 1160 2224.94 1161.06 L2224.94 1157.13 Q2227.28 1156.23 2229.48 1155.79 Q2231.68 1155.32 2233.76 1155.32 Q2239.39 1155.32 2242.16 1158.24 Q2244.94 1161.16 2244.94 1167.08 Z" fill="#000000" fill-rule="nonzero" fill-opacity="1"></path><circle clip-path="url(#clip820)" cx="2012.04" cy="1216.43" r="20.48" fill="#ffff00" fill-rule="evenodd" fill-opacity="1" stroke="#000000" stroke-opacity="1" stroke-width="4.55111"></circle>
<path clip-path="url(#clip820)" d="M2119.27 1234.39 Q2109.67 1234.39 2109.67 1220.64 Q2109.67 1215.2 2113.25 1207.79 L2117.84 1207.79 Q2114.53 1215.2 2114.53 1220.75 Q2114.53 1230.77 2119.67 1230.77 Q2124.36 1230.77 2124.36 1218.32 L2128.3 1218.32 Q2128.3 1230.77 2133 1230.77 Q2138.14 1230.77 2138.14 1220.75 Q2138.14 1215.2 2134.83 1207.79 L2139.41 1207.79 Q2143 1215.2 2143 1220.64 Q2143 1234.39 2133.39 1234.39 Q2127.1 1234.39 2126.33 1227.46 Q2125.38 1234.39 2119.27 1234.39 Z" fill="#000000" fill-rule="nonzero" fill-opacity="1"></path><path clip-path="url(#clip820)" d="M2155.57 1203 L2155.57 1229.87 L2161.22 1229.87 Q2168.37 1229.87 2171.68 1226.63 Q2175.01 1223.39 2175.01 1216.4 Q2175.01 1209.46 2171.68 1206.24 Q2168.37 1203 2161.22 1203 L2155.57 1203 M2150.89 1199.15 L2160.5 1199.15 Q2170.54 1199.15 2175.24 1203.34 Q2179.94 1207.51 2179.94 1216.4 Q2179.94 1225.33 2175.22 1229.52 Q2170.5 1233.71 2160.5 1233.71 L2150.89 1233.71 L2150.89 1199.15 Z" fill="#000000" fill-rule="nonzero" fill-opacity="1"></path><path clip-path="url(#clip820)" d="M2198.99 1220.68 Q2193.83 1220.68 2191.84 1221.86 Q2189.85 1223.04 2189.85 1225.89 Q2189.85 1228.16 2191.33 1229.5 Q2192.84 1230.82 2195.41 1230.82 Q2198.95 1230.82 2201.08 1228.32 Q2203.23 1225.8 2203.23 1221.63 L2203.23 1220.68 L2198.99 1220.68 M2207.49 1218.92 L2207.49 1233.71 L2203.23 1233.71 L2203.23 1229.78 Q2201.77 1232.14 2199.6 1233.27 Q2197.42 1234.39 2194.27 1234.39 Q2190.29 1234.39 2187.93 1232.16 Q2185.59 1229.92 2185.59 1226.17 Q2185.59 1221.79 2188.51 1219.57 Q2191.45 1217.35 2197.26 1217.35 L2203.23 1217.35 L2203.23 1216.93 Q2203.23 1213.99 2201.28 1212.4 Q2199.36 1210.77 2195.87 1210.77 Q2193.65 1210.77 2191.54 1211.31 Q2189.43 1211.84 2187.49 1212.9 L2187.49 1208.97 Q2189.83 1208.07 2192.03 1207.63 Q2194.22 1207.16 2196.31 1207.16 Q2201.93 1207.16 2204.71 1210.08 Q2207.49 1213 2207.49 1218.92 Z" fill="#000000" fill-rule="nonzero" fill-opacity="1"></path><path clip-path="url(#clip820)" d="M2220.47 1200.43 L2220.47 1207.79 L2229.25 1207.79 L2229.25 1211.1 L2220.47 1211.1 L2220.47 1225.17 Q2220.47 1228.34 2221.33 1229.25 Q2222.21 1230.15 2224.87 1230.15 L2229.25 1230.15 L2229.25 1233.71 L2224.87 1233.71 Q2219.94 1233.71 2218.07 1231.89 Q2216.19 1230.03 2216.19 1225.17 L2216.19 1211.1 L2213.07 1211.1 L2213.07 1207.79 L2216.19 1207.79 L2216.19 1200.43 L2220.47 1200.43 Z" fill="#000000" fill-rule="nonzero" fill-opacity="1"></path><path clip-path="url(#clip820)" d="M2246.63 1220.68 Q2241.47 1220.68 2239.48 1221.86 Q2237.49 1223.04 2237.49 1225.89 Q2237.49 1228.16 2238.97 1229.5 Q2240.47 1230.82 2243.04 1230.82 Q2246.59 1230.82 2248.72 1228.32 Q2250.87 1225.8 2250.87 1221.63 L2250.87 1220.68 L2246.63 1220.68 M2255.13 1218.92 L2255.13 1233.71 L2250.87 1233.71 L2250.87 1229.78 Q2249.41 1232.14 2247.23 1233.27 Q2245.06 1234.39 2241.91 1234.39 Q2237.93 1234.39 2235.57 1232.16 Q2233.23 1229.92 2233.23 1226.17 Q2233.23 1221.79 2236.15 1219.57 Q2239.09 1217.35 2244.9 1217.35 L2250.87 1217.35 L2250.87 1216.93 Q2250.87 1213.99 2248.92 1212.4 Q2247 1210.77 2243.51 1210.77 Q2241.28 1210.77 2239.18 1211.31 Q2237.07 1211.84 2235.13 1212.9 L2235.13 1208.97 Q2237.47 1208.07 2239.66 1207.63 Q2241.86 1207.16 2243.95 1207.16 Q2249.57 1207.16 2252.35 1210.08 Q2255.13 1213 2255.13 1218.92 Z" fill="#000000" fill-rule="nonzero" fill-opacity="1"></path></svg>