<svg xmlns="http://www.w3.org/2000/svg" xmlns:xlink="http://www.w3.org/1999/xlink" width="600" height="400" viewBox="0 0 2400 1600">
<defs>
  <clipPath id="clip620">
    <rect x="0" y="0" width="2400" height="1600"></rect>
  </clipPath>
</defs>
<path clip-path="url(#clip620)" d="M0 1600 L2400 1600 L2400 0 L0 0  Z" fill="#ffffff" fill-rule="evenodd" fill-opacity="1"></path>
<defs>
  <clipPath id="clip621">
    <rect x="480" y="0" width="1681" height="1600"></rect>
  </clipPath>
</defs>
<path clip-path="url(#clip620)" d="M149.191 724.562 L2352.76 724.562 L2352.76 123.472 L149.191 123.472  Z" fill="#ffffff" fill-rule="evenodd" fill-opacity="1"></path>
<defs>
  <clipPath id="clip622">
    <rect x="149" y="123" width="2205" height="602"></rect>
  </clipPath>
</defs>
<polyline clip-path="url(#clip622)" style="stroke:#000000; stroke-linecap:round; stroke-linejoin:round; stroke-width:2; stroke-opacity:0.1; fill:none" points="211.556,724.562 211.556,123.472 "></polyline>
<polyline clip-path="url(#clip622)" style="stroke:#000000; stroke-linecap:round; stroke-linejoin:round; stroke-width:2; stroke-opacity:0.1; fill:none" points="731.265,724.562 731.265,123.472 "></polyline>
<polyline clip-path="url(#clip622)" style="stroke:#000000; stroke-linecap:round; stroke-linejoin:round; stroke-width:2; stroke-opacity:0.1; fill:none" points="1250.97,724.562 1250.97,123.472 "></polyline>
<polyline clip-path="url(#clip622)" style="stroke:#000000; stroke-linecap:round; stroke-linejoin:round; stroke-width:2; stroke-opacity:0.1; fill:none" points="1770.68,724.562 1770.68,123.472 "></polyline>
<polyline clip-path="url(#clip622)" style="stroke:#000000; stroke-linecap:round; stroke-linejoin:round; stroke-width:2; stroke-opacity:0.1; fill:none" points="2290.39,724.562 2290.39,123.472 "></polyline>
<polyline clip-path="url(#clip620)" style="stroke:#000000; stroke-linecap:round; stroke-linejoin:round; stroke-width:4; stroke-opacity:1; fill:none" points="149.191,724.562 2352.76,724.562 "></polyline>
<polyline clip-path="url(#clip620)" style="stroke:#000000; stroke-linecap:round; stroke-linejoin:round; stroke-width:4; stroke-opacity:1; fill:none" points="211.556,724.562 211.556,705.664 "></polyline>
<polyline clip-path="url(#clip620)" style="stroke:#000000; stroke-linecap:round; stroke-linejoin:round; stroke-width:4; stroke-opacity:1; fill:none" points="731.265,724.562 731.265,705.664 "></polyline>
<polyline clip-path="url(#clip620)" style="stroke:#000000; stroke-linecap:round; stroke-linejoin:round; stroke-width:4; stroke-opacity:1; fill:none" points="1250.97,724.562 1250.97,705.664 "></polyline>
<polyline clip-path="url(#clip620)" style="stroke:#000000; stroke-linecap:round; stroke-linejoin:round; stroke-width:4; stroke-opacity:1; fill:none" points="1770.68,724.562 1770.68,705.664 "></polyline>
<polyline clip-path="url(#clip620)" style="stroke:#000000; stroke-linecap:round; stroke-linejoin:round; stroke-width:4; stroke-opacity:1; fill:none" points="2290.39,724.562 2290.39,705.664 "></polyline>
<path clip-path="url(#clip620)" d="M173.859 755.481 Q170.248 755.481 168.42 759.045 Q166.614 762.587 166.614 769.717 Q166.614 776.823 168.42 780.388 Q170.248 783.929 173.859 783.929 Q177.494 783.929 179.299 780.388 Q181.128 776.823 181.128 769.717 Q181.128 762.587 179.299 759.045 Q177.494 755.481 173.859 755.481 M173.859 751.777 Q179.67 751.777 182.725 756.383 Q185.804 760.967 185.804 769.717 Q185.804 778.443 182.725 783.05 Q179.67 787.633 173.859 787.633 Q168.049 787.633 164.971 783.05 Q161.915 778.443 161.915 769.717 Q161.915 760.967 164.971 756.383 Q168.049 751.777 173.859 751.777 Z" fill="#000000" fill-rule="nonzero" fill-opacity="1"></path><path clip-path="url(#clip620)" d="M194.021 781.082 L198.906 781.082 L198.906 786.962 L194.021 786.962 L194.021 781.082 Z" fill="#000000" fill-rule="nonzero" fill-opacity="1"></path><path clip-path="url(#clip620)" d="M219.091 755.481 Q215.48 755.481 213.651 759.045 Q211.845 762.587 211.845 769.717 Q211.845 776.823 213.651 780.388 Q215.48 783.929 219.091 783.929 Q222.725 783.929 224.53 780.388 Q226.359 776.823 226.359 769.717 Q226.359 762.587 224.53 759.045 Q222.725 755.481 219.091 755.481 M219.091 751.777 Q224.901 751.777 227.956 756.383 Q231.035 760.967 231.035 769.717 Q231.035 778.443 227.956 783.05 Q224.901 787.633 219.091 787.633 Q213.28 787.633 210.202 783.05 Q207.146 778.443 207.146 769.717 Q207.146 760.967 210.202 756.383 Q213.28 751.777 219.091 751.777 Z" fill="#000000" fill-rule="nonzero" fill-opacity="1"></path><path clip-path="url(#clip620)" d="M249.252 755.481 Q245.641 755.481 243.813 759.045 Q242.007 762.587 242.007 769.717 Q242.007 776.823 243.813 780.388 Q245.641 783.929 249.252 783.929 Q252.887 783.929 254.692 780.388 Q256.521 776.823 256.521 769.717 Q256.521 762.587 254.692 759.045 Q252.887 755.481 249.252 755.481 M249.252 751.777 Q255.063 751.777 258.118 756.383 Q261.197 760.967 261.197 769.717 Q261.197 778.443 258.118 783.05 Q255.063 787.633 249.252 787.633 Q243.442 787.633 240.364 783.05 Q237.308 778.443 237.308 769.717 Q237.308 760.967 240.364 756.383 Q243.442 751.777 249.252 751.777 Z" fill="#000000" fill-rule="nonzero" fill-opacity="1"></path><path clip-path="url(#clip620)" d="M694.066 755.481 Q690.455 755.481 688.626 759.045 Q686.82 762.587 686.82 769.717 Q686.82 776.823 688.626 780.388 Q690.455 783.929 694.066 783.929 Q697.7 783.929 699.506 780.388 Q701.334 776.823 701.334 769.717 Q701.334 762.587 699.506 759.045 Q697.7 755.481 694.066 755.481 M694.066 751.777 Q699.876 751.777 702.931 756.383 Q706.01 760.967 706.01 769.717 Q706.01 778.443 702.931 783.05 Q699.876 787.633 694.066 787.633 Q688.256 787.633 685.177 783.05 Q682.121 778.443 682.121 769.717 Q682.121 760.967 685.177 756.383 Q688.256 751.777 694.066 751.777 Z" fill="#000000" fill-rule="nonzero" fill-opacity="1"></path><path clip-path="url(#clip620)" d="M714.228 781.082 L719.112 781.082 L719.112 786.962 L714.228 786.962 L714.228 781.082 Z" fill="#000000" fill-rule="nonzero" fill-opacity="1"></path><path clip-path="url(#clip620)" d="M733.325 783.027 L749.644 783.027 L749.644 786.962 L727.7 786.962 L727.7 783.027 Q730.362 780.272 734.945 775.643 Q739.552 770.99 740.732 769.647 Q742.978 767.124 743.857 765.388 Q744.76 763.629 744.76 761.939 Q744.76 759.184 742.816 757.448 Q740.894 755.712 737.792 755.712 Q735.593 755.712 733.14 756.476 Q730.709 757.24 727.931 758.791 L727.931 754.069 Q730.755 752.934 733.209 752.356 Q735.663 751.777 737.7 751.777 Q743.07 751.777 746.265 754.462 Q749.459 757.147 749.459 761.638 Q749.459 763.768 748.649 765.689 Q747.862 767.587 745.755 770.18 Q745.177 770.851 742.075 774.068 Q738.973 777.263 733.325 783.027 Z" fill="#000000" fill-rule="nonzero" fill-opacity="1"></path><path clip-path="url(#clip620)" d="M759.505 752.402 L777.862 752.402 L777.862 756.337 L763.788 756.337 L763.788 764.809 Q764.806 764.462 765.825 764.3 Q766.843 764.115 767.862 764.115 Q773.649 764.115 777.028 767.286 Q780.408 770.457 780.408 775.874 Q780.408 781.453 776.936 784.554 Q773.463 787.633 767.144 787.633 Q764.968 787.633 762.7 787.263 Q760.454 786.892 758.047 786.152 L758.047 781.453 Q760.13 782.587 762.352 783.142 Q764.575 783.698 767.051 783.698 Q771.056 783.698 773.394 781.592 Q775.732 779.485 775.732 775.874 Q775.732 772.263 773.394 770.156 Q771.056 768.05 767.051 768.05 Q765.177 768.05 763.302 768.467 Q761.45 768.883 759.505 769.763 L759.505 752.402 Z" fill="#000000" fill-rule="nonzero" fill-opacity="1"></path><path clip-path="url(#clip620)" d="M1213.28 755.481 Q1209.67 755.481 1207.84 759.045 Q1206.03 762.587 1206.03 769.717 Q1206.03 776.823 1207.84 780.388 Q1209.67 783.929 1213.28 783.929 Q1216.91 783.929 1218.72 780.388 Q1220.55 776.823 1220.55 769.717 Q1220.55 762.587 1218.72 759.045 Q1216.91 755.481 1213.28 755.481 M1213.28 751.777 Q1219.09 751.777 1222.14 756.383 Q1225.22 760.967 1225.22 769.717 Q1225.22 778.443 1222.14 783.05 Q1219.09 787.633 1213.28 787.633 Q1207.47 787.633 1204.39 783.05 Q1201.33 778.443 1201.33 769.717 Q1201.33 760.967 1204.39 756.383 Q1207.47 751.777 1213.28 751.777 Z" fill="#000000" fill-rule="nonzero" fill-opacity="1"></path><path clip-path="url(#clip620)" d="M1233.44 781.082 L1238.32 781.082 L1238.32 786.962 L1233.44 786.962 L1233.44 781.082 Z" fill="#000000" fill-rule="nonzero" fill-opacity="1"></path><path clip-path="url(#clip620)" d="M1248.55 752.402 L1266.91 752.402 L1266.91 756.337 L1252.84 756.337 L1252.84 764.809 Q1253.86 764.462 1254.87 764.3 Q1255.89 764.115 1256.91 764.115 Q1262.7 764.115 1266.08 767.286 Q1269.46 770.457 1269.46 775.874 Q1269.46 781.453 1265.98 784.554 Q1262.51 787.633 1256.19 787.633 Q1254.02 787.633 1251.75 787.263 Q1249.5 786.892 1247.1 786.152 L1247.1 781.453 Q1249.18 782.587 1251.4 783.142 Q1253.62 783.698 1256.1 783.698 Q1260.11 783.698 1262.44 781.592 Q1264.78 779.485 1264.78 775.874 Q1264.78 772.263 1262.44 770.156 Q1260.11 768.05 1256.1 768.05 Q1254.23 768.05 1252.35 768.467 Q1250.5 768.883 1248.55 769.763 L1248.55 752.402 Z" fill="#000000" fill-rule="nonzero" fill-opacity="1"></path><path clip-path="url(#clip620)" d="M1288.67 755.481 Q1285.06 755.481 1283.23 759.045 Q1281.42 762.587 1281.42 769.717 Q1281.42 776.823 1283.23 780.388 Q1285.06 783.929 1288.67 783.929 Q1292.3 783.929 1294.11 780.388 Q1295.94 776.823 1295.94 769.717 Q1295.94 762.587 1294.11 759.045 Q1292.3 755.481 1288.67 755.481 M1288.67 751.777 Q1294.48 751.777 1297.54 756.383 Q1300.61 760.967 1300.61 769.717 Q1300.61 778.443 1297.54 783.05 Q1294.48 787.633 1288.67 787.633 Q1282.86 787.633 1279.78 783.05 Q1276.73 778.443 1276.73 769.717 Q1276.73 760.967 1279.78 756.383 Q1282.86 751.777 1288.67 751.777 Z" fill="#000000" fill-rule="nonzero" fill-opacity="1"></path><path clip-path="url(#clip620)" d="M1733.48 755.481 Q1729.87 755.481 1728.04 759.045 Q1726.24 762.587 1726.24 769.717 Q1726.24 776.823 1728.04 780.388 Q1729.87 783.929 1733.48 783.929 Q1737.12 783.929 1738.92 780.388 Q1740.75 776.823 1740.75 769.717 Q1740.75 762.587 1738.92 759.045 Q1737.12 755.481 1733.48 755.481 M1733.48 751.777 Q1739.29 751.777 1742.35 756.383 Q1745.43 760.967 1745.43 769.717 Q1745.43 778.443 1742.35 783.05 Q1739.29 787.633 1733.48 787.633 Q1727.67 787.633 1724.59 783.05 Q1721.54 778.443 1721.54 769.717 Q1721.54 760.967 1724.59 756.383 Q1727.67 751.777 1733.48 751.777 Z" fill="#000000" fill-rule="nonzero" fill-opacity="1"></path><path clip-path="url(#clip620)" d="M1753.65 781.082 L1758.53 781.082 L1758.53 786.962 L1753.65 786.962 L1753.65 781.082 Z" fill="#000000" fill-rule="nonzero" fill-opacity="1"></path><path clip-path="url(#clip620)" d="M1767.53 752.402 L1789.76 752.402 L1789.76 754.393 L1777.21 786.962 L1772.33 786.962 L1784.13 756.337 L1767.53 756.337 L1767.53 752.402 Z" fill="#000000" fill-rule="nonzero" fill-opacity="1"></path><path clip-path="url(#clip620)" d="M1798.92 752.402 L1817.28 752.402 L1817.28 756.337 L1803.21 756.337 L1803.21 764.809 Q1804.22 764.462 1805.24 764.3 Q1806.26 764.115 1807.28 764.115 Q1813.07 764.115 1816.45 767.286 Q1819.83 770.457 1819.83 775.874 Q1819.83 781.453 1816.35 784.554 Q1812.88 787.633 1806.56 787.633 Q1804.39 787.633 1802.12 787.263 Q1799.87 786.892 1797.46 786.152 L1797.46 781.453 Q1799.55 782.587 1801.77 783.142 Q1803.99 783.698 1806.47 783.698 Q1810.47 783.698 1812.81 781.592 Q1815.15 779.485 1815.15 775.874 Q1815.15 772.263 1812.81 770.156 Q1810.47 768.05 1806.47 768.05 Q1804.59 768.05 1802.72 768.467 Q1800.87 768.883 1798.92 769.763 L1798.92 752.402 Z" fill="#000000" fill-rule="nonzero" fill-opacity="1"></path><path clip-path="url(#clip620)" d="M2242.46 783.027 L2250.1 783.027 L2250.1 756.661 L2241.79 758.328 L2241.79 754.069 L2250.06 752.402 L2254.73 752.402 L2254.73 783.027 L2262.37 783.027 L2262.37 786.962 L2242.46 786.962 L2242.46 783.027 Z" fill="#000000" fill-rule="nonzero" fill-opacity="1"></path><path clip-path="url(#clip620)" d="M2271.81 781.082 L2276.7 781.082 L2276.7 786.962 L2271.81 786.962 L2271.81 781.082 Z" fill="#000000" fill-rule="nonzero" fill-opacity="1"></path><path clip-path="url(#clip620)" d="M2296.88 755.481 Q2293.27 755.481 2291.44 759.045 Q2289.64 762.587 2289.64 769.717 Q2289.64 776.823 2291.44 780.388 Q2293.27 783.929 2296.88 783.929 Q2300.52 783.929 2302.32 780.388 Q2304.15 776.823 2304.15 769.717 Q2304.15 762.587 2302.32 759.045 Q2300.52 755.481 2296.88 755.481 M2296.88 751.777 Q2302.69 751.777 2305.75 756.383 Q2308.83 760.967 2308.83 769.717 Q2308.83 778.443 2305.75 783.05 Q2302.69 787.633 2296.88 787.633 Q2291.07 787.633 2288 783.05 Q2284.94 778.443 2284.94 769.717 Q2284.94 760.967 2288 756.383 Q2291.07 751.777 2296.88 751.777 Z" fill="#000000" fill-rule="nonzero" fill-opacity="1"></path><path clip-path="url(#clip620)" d="M2327.05 755.481 Q2323.43 755.481 2321.61 759.045 Q2319.8 762.587 2319.8 769.717 Q2319.8 776.823 2321.61 780.388 Q2323.43 783.929 2327.05 783.929 Q2330.68 783.929 2332.49 780.388 Q2334.31 776.823 2334.31 769.717 Q2334.31 762.587 2332.49 759.045 Q2330.68 755.481 2327.05 755.481 M2327.05 751.777 Q2332.86 751.777 2335.91 756.383 Q2338.99 760.967 2338.99 769.717 Q2338.99 778.443 2335.91 783.05 Q2332.86 787.633 2327.05 787.633 Q2321.24 787.633 2318.16 783.05 Q2315.1 778.443 2315.1 769.717 Q2315.1 760.967 2318.16 756.383 Q2321.24 751.777 2327.05 751.777 Z" fill="#000000" fill-rule="nonzero" fill-opacity="1"></path><polyline clip-path="url(#clip622)" style="stroke:#000000; stroke-linecap:round; stroke-linejoin:round; stroke-width:2; stroke-opacity:0.1; fill:none" points="149.191,711.21 2352.76,711.21 "></polyline>
<polyline clip-path="url(#clip622)" style="stroke:#000000; stroke-linecap:round; stroke-linejoin:round; stroke-width:2; stroke-opacity:0.1; fill:none" points="149.191,547.883 2352.76,547.883 "></polyline>
<polyline clip-path="url(#clip622)" style="stroke:#000000; stroke-linecap:round; stroke-linejoin:round; stroke-width:2; stroke-opacity:0.1; fill:none" points="149.191,384.555 2352.76,384.555 "></polyline>
<polyline clip-path="url(#clip622)" style="stroke:#000000; stroke-linecap:round; stroke-linejoin:round; stroke-width:2; stroke-opacity:0.1; fill:none" points="149.191,221.227 2352.76,221.227 "></polyline>
<polyline clip-path="url(#clip620)" style="stroke:#000000; stroke-linecap:round; stroke-linejoin:round; stroke-width:4; stroke-opacity:1; fill:none" points="149.191,724.562 149.191,123.472 "></polyline>
<polyline clip-path="url(#clip620)" style="stroke:#000000; stroke-linecap:round; stroke-linejoin:round; stroke-width:4; stroke-opacity:1; fill:none" points="149.191,711.21 168.089,711.21 "></polyline>
<polyline clip-path="url(#clip620)" style="stroke:#000000; stroke-linecap:round; stroke-linejoin:round; stroke-width:4; stroke-opacity:1; fill:none" points="149.191,547.883 168.089,547.883 "></polyline>
<polyline clip-path="url(#clip620)" style="stroke:#000000; stroke-linecap:round; stroke-linejoin:round; stroke-width:4; stroke-opacity:1; fill:none" points="149.191,384.555 168.089,384.555 "></polyline>
<polyline clip-path="url(#clip620)" style="stroke:#000000; stroke-linecap:round; stroke-linejoin:round; stroke-width:4; stroke-opacity:1; fill:none" points="149.191,221.227 168.089,221.227 "></polyline>
<path clip-path="url(#clip620)" d="M50.9921 711.662 L80.6679 711.662 L80.6679 715.597 L50.9921 715.597 L50.9921 711.662 Z" fill="#000000" fill-rule="nonzero" fill-opacity="1"></path><path clip-path="url(#clip620)" d="M103.608 698.004 L91.8021 716.453 L103.608 716.453 L103.608 698.004 M102.381 693.93 L108.26 693.93 L108.26 716.453 L113.191 716.453 L113.191 720.342 L108.26 720.342 L108.26 728.49 L103.608 728.49 L103.608 720.342 L88.0058 720.342 L88.0058 715.828 L102.381 693.93 Z" fill="#000000" fill-rule="nonzero" fill-opacity="1"></path><path clip-path="url(#clip620)" d="M53.0754 548.334 L82.7512 548.334 L82.7512 552.269 L53.0754 552.269 L53.0754 548.334 Z" fill="#000000" fill-rule="nonzero" fill-opacity="1"></path><path clip-path="url(#clip620)" d="M96.8715 561.227 L113.191 561.227 L113.191 565.163 L91.2465 565.163 L91.2465 561.227 Q93.9086 558.473 98.4919 553.843 Q103.098 549.19 104.279 547.848 Q106.524 545.325 107.404 543.589 Q108.307 541.829 108.307 540.14 Q108.307 537.385 106.362 535.649 Q104.441 533.913 101.339 533.913 Q99.14 533.913 96.6863 534.677 Q94.2558 535.441 91.478 536.991 L91.478 532.269 Q94.3021 531.135 96.7558 530.556 Q99.2095 529.978 101.246 529.978 Q106.617 529.978 109.811 532.663 Q113.006 535.348 113.006 539.839 Q113.006 541.968 112.196 543.89 Q111.408 545.788 109.302 548.38 Q108.723 549.052 105.621 552.269 Q102.52 555.464 96.8715 561.227 Z" fill="#000000" fill-rule="nonzero" fill-opacity="1"></path><path clip-path="url(#clip620)" d="M101.246 370.354 Q97.6354 370.354 95.8067 373.918 Q94.0012 377.46 94.0012 384.59 Q94.0012 391.696 95.8067 395.261 Q97.6354 398.803 101.246 398.803 Q104.881 398.803 106.686 395.261 Q108.515 391.696 108.515 384.59 Q108.515 377.46 106.686 373.918 Q104.881 370.354 101.246 370.354 M101.246 366.65 Q107.057 366.65 110.112 371.256 Q113.191 375.84 113.191 384.59 Q113.191 393.316 110.112 397.923 Q107.057 402.506 101.246 402.506 Q95.4363 402.506 92.3576 397.923 Q89.3021 393.316 89.3021 384.59 Q89.3021 375.84 92.3576 371.256 Q95.4363 366.65 101.246 366.65 Z" fill="#000000" fill-rule="nonzero" fill-opacity="1"></path><path clip-path="url(#clip620)" d="M96.8715 234.572 L113.191 234.572 L113.191 238.507 L91.2465 238.507 L91.2465 234.572 Q93.9086 231.817 98.4919 227.188 Q103.098 222.535 104.279 221.193 Q106.524 218.669 107.404 216.933 Q108.307 215.174 108.307 213.484 Q108.307 210.73 106.362 208.994 Q104.441 207.257 101.339 207.257 Q99.14 207.257 96.6863 208.021 Q94.2558 208.785 91.478 210.336 L91.478 205.614 Q94.3021 204.48 96.7558 203.901 Q99.2095 203.322 101.246 203.322 Q106.617 203.322 109.811 206.007 Q113.006 208.693 113.006 213.183 Q113.006 215.313 112.196 217.234 Q111.408 219.132 109.302 221.725 Q108.723 222.396 105.621 225.614 Q102.52 228.808 96.8715 234.572 Z" fill="#000000" fill-rule="nonzero" fill-opacity="1"></path><path clip-path="url(#clip620)" d="M940.877 12.096 L992.04 12.096 L992.04 18.9825 L970.57 18.9825 L970.57 72.576 L962.346 72.576 L962.346 18.9825 L940.877 18.9825 L940.877 12.096 Z" fill="#000000" fill-rule="nonzero" fill-opacity="1"></path><path clip-path="url(#clip620)" d="M1003.1 32.4315 Q997.103 32.4315 993.619 37.1306 Q990.136 41.7891 990.136 49.9314 Q990.136 58.0738 993.579 62.7728 Q997.063 67.4314 1003.1 67.4314 Q1009.05 67.4314 1012.54 62.7323 Q1016.02 58.0333 1016.02 49.9314 Q1016.02 41.8701 1012.54 37.1711 Q1009.05 32.4315 1003.1 32.4315 M1003.1 26.1121 Q1012.82 26.1121 1018.37 32.4315 Q1023.92 38.7509 1023.92 49.9314 Q1023.92 61.0714 1018.37 67.4314 Q1012.82 73.7508 1003.1 73.7508 Q993.336 73.7508 987.786 67.4314 Q982.277 61.0714 982.277 49.9314 Q982.277 38.7509 987.786 32.4315 Q993.336 26.1121 1003.1 26.1121 Z" fill="#000000" fill-rule="nonzero" fill-opacity="1"></path><path clip-path="url(#clip620)" d="M1062.57 34.1734 Q1061.31 33.4443 1059.81 33.1202 Q1058.35 32.7556 1056.57 32.7556 Q1050.25 32.7556 1046.85 36.8875 Q1043.49 40.9789 1043.49 48.6757 L1043.49 72.576 L1035.99 72.576 L1035.99 27.2059 L1043.49 27.2059 L1043.49 34.2544 Q1045.84 30.1225 1049.6 28.1376 Q1053.37 26.1121 1058.76 26.1121 Q1059.53 26.1121 1060.46 26.2337 Q1061.39 26.3147 1062.53 26.5172 L1062.57 34.1734 Z" fill="#000000" fill-rule="nonzero" fill-opacity="1"></path><path clip-path="url(#clip620)" d="M1073.38 49.9314 Q1073.38 58.1548 1076.74 62.8538 Q1080.15 67.5124 1086.06 67.5124 Q1091.98 67.5124 1095.38 62.8538 Q1098.78 58.1548 1098.78 49.9314 Q1098.78 41.7081 1095.38 37.0496 Q1091.98 32.3505 1086.06 32.3505 Q1080.15 32.3505 1076.74 37.0496 Q1073.38 41.7081 1073.38 49.9314 M1098.78 65.7705 Q1096.43 69.8214 1092.83 71.8063 Q1089.26 73.7508 1084.24 73.7508 Q1076.01 73.7508 1070.83 67.1883 Q1065.69 60.6258 1065.69 49.9314 Q1065.69 39.2371 1070.83 32.6746 Q1076.01 26.1121 1084.24 26.1121 Q1089.26 26.1121 1092.83 28.0971 Q1096.43 30.0415 1098.78 34.0924 L1098.78 27.2059 L1106.23 27.2059 L1106.23 89.8329 L1098.78 89.8329 L1098.78 65.7705 Z" fill="#000000" fill-rule="nonzero" fill-opacity="1"></path><path clip-path="url(#clip620)" d="M1120.82 54.671 L1120.82 27.2059 L1128.27 27.2059 L1128.27 54.3874 Q1128.27 60.8284 1130.78 64.0691 Q1133.29 67.2693 1138.32 67.2693 Q1144.35 67.2693 1147.84 63.421 Q1151.36 59.5726 1151.36 52.9291 L1151.36 27.2059 L1158.82 27.2059 L1158.82 72.576 L1151.36 72.576 L1151.36 65.6084 Q1148.65 69.7404 1145.04 71.7658 Q1141.48 73.7508 1136.74 73.7508 Q1128.92 73.7508 1124.87 68.8897 Q1120.82 64.0286 1120.82 54.671 M1139.57 26.1121 L1139.57 26.1121 Z" fill="#000000" fill-rule="nonzero" fill-opacity="1"></path><path clip-path="url(#clip620)" d="M1212.98 48.0275 L1212.98 51.6733 L1178.71 51.6733 Q1179.19 59.3701 1183.32 63.421 Q1187.5 67.4314 1194.91 67.4314 Q1199.2 67.4314 1203.21 66.3781 Q1207.26 65.3249 1211.23 63.2184 L1211.23 70.267 Q1207.22 71.9684 1203.01 72.8596 Q1198.8 73.7508 1194.46 73.7508 Q1183.61 73.7508 1177.25 67.4314 Q1170.93 61.1119 1170.93 50.3365 Q1170.93 39.1965 1176.92 32.6746 Q1182.96 26.1121 1193.17 26.1121 Q1202.32 26.1121 1207.63 32.0264 Q1212.98 37.9003 1212.98 48.0275 M1205.52 45.84 Q1205.44 39.7232 1202.08 36.0774 Q1198.76 32.4315 1193.25 32.4315 Q1187.01 32.4315 1183.24 35.9558 Q1179.52 39.4801 1178.95 45.8805 L1205.52 45.84 Z" fill="#000000" fill-rule="nonzero" fill-opacity="1"></path><path clip-path="url(#clip620)" d="M1246.23 27.2059 L1254.13 27.2059 L1268.31 65.2844 L1282.49 27.2059 L1290.39 27.2059 L1273.37 72.576 L1263.25 72.576 L1246.23 27.2059 Z" fill="#000000" fill-rule="nonzero" fill-opacity="1"></path><path clip-path="url(#clip620)" d="M1329.6 28.5427 L1329.6 35.5912 Q1326.44 33.9709 1323.04 33.1607 Q1319.64 32.3505 1315.99 32.3505 Q1310.44 32.3505 1307.65 34.0519 Q1304.89 35.7533 1304.89 39.156 Q1304.89 41.7486 1306.88 43.2475 Q1308.86 44.7058 1314.86 46.0426 L1317.41 46.6097 Q1325.35 48.3111 1328.67 51.4303 Q1332.03 54.509 1332.03 60.0587 Q1332.03 66.3781 1327.01 70.0644 Q1322.03 73.7508 1313.28 73.7508 Q1309.63 73.7508 1305.66 73.0216 Q1301.73 72.3329 1297.36 70.9151 L1297.36 63.2184 Q1301.49 65.3654 1305.5 66.4591 Q1309.51 67.5124 1313.44 67.5124 Q1318.7 67.5124 1321.54 65.73 Q1324.38 63.9071 1324.38 60.6258 Q1324.38 57.5877 1322.31 55.9673 Q1320.28 54.3469 1313.36 52.8481 L1310.76 52.2405 Q1303.84 50.7821 1300.76 47.7845 Q1297.68 44.7463 1297.68 39.4801 Q1297.68 33.0797 1302.22 29.5959 Q1306.75 26.1121 1315.1 26.1121 Q1319.23 26.1121 1322.88 26.7198 Q1326.52 27.3274 1329.6 28.5427 Z" fill="#000000" fill-rule="nonzero" fill-opacity="1"></path><path clip-path="url(#clip620)" d="M1362.21 12.096 L1413.37 12.096 L1413.37 18.9825 L1391.9 18.9825 L1391.9 72.576 L1383.68 72.576 L1383.68 18.9825 L1362.21 18.9825 L1362.21 12.096 Z" fill="#000000" fill-rule="nonzero" fill-opacity="1"></path><path clip-path="url(#clip620)" d="M1418.4 27.2059 L1425.85 27.2059 L1425.85 72.576 L1418.4 72.576 L1418.4 27.2059 M1418.4 9.54393 L1425.85 9.54393 L1425.85 18.9825 L1418.4 18.9825 L1418.4 9.54393 Z" fill="#000000" fill-rule="nonzero" fill-opacity="1"></path><path clip-path="url(#clip620)" d="M1476.77 35.9153 Q1479.57 30.8922 1483.45 28.5022 Q1487.34 26.1121 1492.61 26.1121 Q1499.7 26.1121 1503.55 31.0947 Q1507.4 36.0368 1507.4 45.1919 L1507.4 72.576 L1499.9 72.576 L1499.9 45.4349 Q1499.9 38.913 1497.59 35.7533 Q1495.28 32.5936 1490.54 32.5936 Q1484.75 32.5936 1481.39 36.4419 Q1478.03 40.2903 1478.03 46.9338 L1478.03 72.576 L1470.53 72.576 L1470.53 45.4349 Q1470.53 38.8725 1468.22 35.7533 Q1465.91 32.5936 1461.09 32.5936 Q1455.38 32.5936 1452.02 36.4824 Q1448.66 40.3308 1448.66 46.9338 L1448.66 72.576 L1441.16 72.576 L1441.16 27.2059 L1448.66 27.2059 L1448.66 34.2544 Q1451.21 30.082 1454.77 28.0971 Q1458.34 26.1121 1463.24 26.1121 Q1468.18 26.1121 1471.63 28.6237 Q1475.11 31.1352 1476.77 35.9153 Z" fill="#000000" fill-rule="nonzero" fill-opacity="1"></path><path clip-path="url(#clip620)" d="M1561.07 48.0275 L1561.07 51.6733 L1526.8 51.6733 Q1527.29 59.3701 1531.42 63.421 Q1535.59 67.4314 1543 67.4314 Q1547.3 67.4314 1551.31 66.3781 Q1555.36 65.3249 1559.33 63.2184 L1559.33 70.267 Q1555.32 71.9684 1551.1 72.8596 Q1546.89 73.7508 1542.56 73.7508 Q1531.7 73.7508 1525.34 67.4314 Q1519.02 61.1119 1519.02 50.3365 Q1519.02 39.1965 1525.02 32.6746 Q1531.05 26.1121 1541.26 26.1121 Q1550.42 26.1121 1555.72 32.0264 Q1561.07 37.9003 1561.07 48.0275 M1553.62 45.84 Q1553.54 39.7232 1550.17 36.0774 Q1546.85 32.4315 1541.34 32.4315 Q1535.1 32.4315 1531.34 35.9558 Q1527.61 39.4801 1527.04 45.8805 L1553.62 45.84 Z" fill="#000000" fill-rule="nonzero" fill-opacity="1"></path><polyline clip-path="url(#clip622)" style="stroke:#009af9; stroke-linecap:round; stroke-linejoin:round; stroke-width:4; stroke-opacity:1; fill:none" points="211.556,707.55 278.615,705.673 345.674,692.981 412.733,670.8 479.793,640.777 546.852,604.791 613.911,564.85 680.97,522.989 748.029,481.166 815.089,441.17 882.148,404.535 949.207,372.473 1016.27,345.83 1083.33,325.054 1150.38,310.191 1217.44,300.908 1284.5,296.523 1351.56,296.07 1418.62,298.365 1485.68,302.093 1552.74,305.89 1619.8,308.442 1686.86,308.561 1753.92,305.268 1820.98,297.853 1888.04,285.925 1955.09,269.438 2022.15,248.7 2089.21,224.36 2156.27,197.372 2223.33,168.947 2290.39,140.484 "></polyline>
<path clip-path="url(#clip620)" d="M222.643 247.188 L652.512 247.188 L652.512 143.508 L222.643 143.508  Z" fill="#ffffff" fill-rule="evenodd" fill-opacity="1"></path>
<polyline clip-path="url(#clip620)" style="stroke:#000000; stroke-linecap:round; stroke-linejoin:round; stroke-width:4; stroke-opacity:1; fill:none" points="222.643,247.188 652.512,247.188 652.512,143.508 222.643,143.508 222.643,247.188 "></polyline>
<polyline clip-path="url(#clip620)" style="stroke:#009af9; stroke-linecap:round; stroke-linejoin:round; stroke-width:4; stroke-opacity:1; fill:none" points="247.127,195.348 394.031,195.348 "></polyline>
<path clip-path="url(#clip620)" d="M418.515 178.068 L447.751 178.068 L447.751 182.004 L435.483 182.004 L435.483 212.628 L430.784 212.628 L430.784 182.004 L418.515 182.004 L418.515 178.068 Z" fill="#000000" fill-rule="nonzero" fill-opacity="1"></path><path clip-path="url(#clip620)" d="M454.071 189.689 Q450.645 189.689 448.654 192.374 Q446.663 195.036 446.663 199.689 Q446.663 204.341 448.631 207.027 Q450.622 209.689 454.071 209.689 Q457.474 209.689 459.464 207.003 Q461.455 204.318 461.455 199.689 Q461.455 195.082 459.464 192.397 Q457.474 189.689 454.071 189.689 M454.071 186.078 Q459.626 186.078 462.798 189.689 Q465.969 193.3 465.969 199.689 Q465.969 206.054 462.798 209.689 Q459.626 213.3 454.071 213.3 Q448.492 213.3 445.321 209.689 Q442.173 206.054 442.173 199.689 Q442.173 193.3 445.321 189.689 Q448.492 186.078 454.071 186.078 Z" fill="#000000" fill-rule="nonzero" fill-opacity="1"></path><path clip-path="url(#clip620)" d="M488.052 190.684 Q487.335 190.267 486.478 190.082 Q485.645 189.874 484.626 189.874 Q481.015 189.874 479.071 192.235 Q477.149 194.573 477.149 198.971 L477.149 212.628 L472.867 212.628 L472.867 186.703 L477.149 186.703 L477.149 190.73 Q478.492 188.369 480.645 187.235 Q482.798 186.078 485.876 186.078 Q486.316 186.078 486.848 186.147 Q487.381 186.193 488.029 186.309 L488.052 190.684 Z" fill="#000000" fill-rule="nonzero" fill-opacity="1"></path><path clip-path="url(#clip620)" d="M494.233 199.689 Q494.233 204.388 496.154 207.073 Q498.098 209.735 501.478 209.735 Q504.858 209.735 506.802 207.073 Q508.746 204.388 508.746 199.689 Q508.746 194.99 506.802 192.328 Q504.858 189.642 501.478 189.642 Q498.098 189.642 496.154 192.328 Q494.233 194.99 494.233 199.689 M508.746 208.74 Q507.404 211.054 505.344 212.189 Q503.307 213.3 500.436 213.3 Q495.737 213.3 492.774 209.55 Q489.835 205.8 489.835 199.689 Q489.835 193.578 492.774 189.828 Q495.737 186.078 500.436 186.078 Q503.307 186.078 505.344 187.212 Q507.404 188.323 508.746 190.638 L508.746 186.703 L513.006 186.703 L513.006 222.49 L508.746 222.49 L508.746 208.74 Z" fill="#000000" fill-rule="nonzero" fill-opacity="1"></path><path clip-path="url(#clip620)" d="M521.339 202.397 L521.339 186.703 L525.598 186.703 L525.598 202.235 Q525.598 205.916 527.033 207.767 Q528.469 209.596 531.339 209.596 Q534.788 209.596 536.779 207.397 Q538.793 205.198 538.793 201.402 L538.793 186.703 L543.052 186.703 L543.052 212.628 L538.793 212.628 L538.793 208.647 Q537.242 211.008 535.182 212.165 Q533.144 213.3 530.436 213.3 Q525.969 213.3 523.654 210.522 Q521.339 207.744 521.339 202.397 M532.057 186.078 L532.057 186.078 Z" fill="#000000" fill-rule="nonzero" fill-opacity="1"></path><path clip-path="url(#clip620)" d="M574.001 198.601 L574.001 200.684 L554.418 200.684 Q554.695 205.082 557.056 207.397 Q559.441 209.689 563.677 209.689 Q566.13 209.689 568.422 209.087 Q570.737 208.485 573.005 207.281 L573.005 211.309 Q570.714 212.281 568.306 212.79 Q565.899 213.3 563.422 213.3 Q557.218 213.3 553.584 209.689 Q549.973 206.078 549.973 199.92 Q549.973 193.554 553.399 189.828 Q556.848 186.078 562.681 186.078 Q567.913 186.078 570.945 189.457 Q574.001 192.814 574.001 198.601 M569.742 197.351 Q569.695 193.855 567.774 191.772 Q565.876 189.689 562.728 189.689 Q559.163 189.689 557.01 191.703 Q554.88 193.717 554.556 197.374 L569.742 197.351 Z" fill="#000000" fill-rule="nonzero" fill-opacity="1"></path><path clip-path="url(#clip620)" d="M591.223 176.656 Q588.121 181.98 586.616 187.189 Q585.112 192.397 585.112 197.744 Q585.112 203.091 586.616 208.346 Q588.144 213.578 591.223 218.878 L587.519 218.878 Q584.047 213.439 582.311 208.184 Q580.598 202.929 580.598 197.744 Q580.598 192.582 582.311 187.351 Q584.024 182.119 587.519 176.656 L591.223 176.656 Z" fill="#000000" fill-rule="nonzero" fill-opacity="1"></path><path clip-path="url(#clip620)" d="M603.7 179.342 L603.7 186.703 L612.473 186.703 L612.473 190.013 L603.7 190.013 L603.7 204.087 Q603.7 207.258 604.556 208.161 Q605.436 209.064 608.098 209.064 L612.473 209.064 L612.473 212.628 L608.098 212.628 Q603.167 212.628 601.292 210.8 Q599.417 208.948 599.417 204.087 L599.417 190.013 L596.292 190.013 L596.292 186.703 L599.417 186.703 L599.417 179.342 L603.7 179.342 Z" fill="#000000" fill-rule="nonzero" fill-opacity="1"></path><path clip-path="url(#clip620)" d="M617.403 176.656 L621.107 176.656 Q624.579 182.119 626.292 187.351 Q628.028 192.582 628.028 197.744 Q628.028 202.929 626.292 208.184 Q624.579 213.439 621.107 218.878 L617.403 218.878 Q620.482 213.578 621.987 208.346 Q623.514 203.091 623.514 197.744 Q623.514 192.397 621.987 187.189 Q620.482 181.98 617.403 176.656 Z" fill="#000000" fill-rule="nonzero" fill-opacity="1"></path><path clip-path="url(#clip620)" d="M149.191 1486.45 L2352.76 1486.45 L2352.76 885.358 L149.191 885.358  Z" fill="#ffffff" fill-rule="evenodd" fill-opacity="1"></path>
<defs>
  <clipPath id="clip623">
    <rect x="149" y="885" width="2205" height="602"></rect>
  </clipPath>
</defs>
<polyline clip-path="url(#clip623)" style="stroke:#000000; stroke-linecap:round; stroke-linejoin:round; stroke-width:2; stroke-opacity:0.1; fill:none" points="211.556,1486.45 211.556,885.358 "></polyline>
<polyline clip-path="url(#clip623)" style="stroke:#000000; stroke-linecap:round; stroke-linejoin:round; stroke-width:2; stroke-opacity:0.1; fill:none" points="731.265,1486.45 731.265,885.358 "></polyline>
<polyline clip-path="url(#clip623)" style="stroke:#000000; stroke-linecap:round; stroke-linejoin:round; stroke-width:2; stroke-opacity:0.1; fill:none" points="1250.97,1486.45 1250.97,885.358 "></polyline>
<polyline clip-path="url(#clip623)" style="stroke:#000000; stroke-linecap:round; stroke-linejoin:round; stroke-width:2; stroke-opacity:0.1; fill:none" points="1770.68,1486.45 1770.68,885.358 "></polyline>
<polyline clip-path="url(#clip623)" style="stroke:#000000; stroke-linecap:round; stroke-linejoin:round; stroke-width:2; stroke-opacity:0.1; fill:none" points="2290.39,1486.45 2290.39,885.358 "></polyline>
<polyline clip-path="url(#clip620)" style="stroke:#000000; stroke-linecap:round; stroke-linejoin:round; stroke-width:4; stroke-opacity:1; fill:none" points="149.191,1486.45 2352.76,1486.45 "></polyline>
<polyline clip-path="url(#clip620)" style="stroke:#000000; stroke-linecap:round; stroke-linejoin:round; stroke-width:4; stroke-opacity:1; fill:none" points="211.556,1486.45 211.556,1467.55 "></polyline>
<polyline clip-path="url(#clip620)" style="stroke:#000000; stroke-linecap:round; stroke-linejoin:round; stroke-width:4; stroke-opacity:1; fill:none" points="731.265,1486.45 731.265,1467.55 "></polyline>
<polyline clip-path="url(#clip620)" style="stroke:#000000; stroke-linecap:round; stroke-linejoin:round; stroke-width:4; stroke-opacity:1; fill:none" points="1250.97,1486.45 1250.97,1467.55 "></polyline>
<polyline clip-path="url(#clip620)" style="stroke:#000000; stroke-linecap:round; stroke-linejoin:round; stroke-width:4; stroke-opacity:1; fill:none" points="1770.68,1486.45 1770.68,1467.55 "></polyline>
<polyline clip-path="url(#clip620)" style="stroke:#000000; stroke-linecap:round; stroke-linejoin:round; stroke-width:4; stroke-opacity:1; fill:none" points="2290.39,1486.45 2290.39,1467.55 "></polyline>
<path clip-path="url(#clip620)" d="M173.859 1517.37 Q170.248 1517.37 168.42 1520.93 Q166.614 1524.47 166.614 1531.6 Q166.614 1538.71 168.42 1542.27 Q170.248 1545.82 173.859 1545.82 Q177.494 1545.82 179.299 1542.27 Q181.128 1538.71 181.128 1531.6 Q181.128 1524.47 179.299 1520.93 Q177.494 1517.37 173.859 1517.37 M173.859 1513.66 Q179.67 1513.66 182.725 1518.27 Q185.804 1522.85 185.804 1531.6 Q185.804 1540.33 182.725 1544.94 Q179.67 1549.52 173.859 1549.52 Q168.049 1549.52 164.971 1544.94 Q161.915 1540.33 161.915 1531.6 Q161.915 1522.85 164.971 1518.27 Q168.049 1513.66 173.859 1513.66 Z" fill="#000000" fill-rule="nonzero" fill-opacity="1"></path><path clip-path="url(#clip620)" d="M194.021 1542.97 L198.906 1542.97 L198.906 1548.85 L194.021 1548.85 L194.021 1542.97 Z" fill="#000000" fill-rule="nonzero" fill-opacity="1"></path><path clip-path="url(#clip620)" d="M219.091 1517.37 Q215.48 1517.37 213.651 1520.93 Q211.845 1524.47 211.845 1531.6 Q211.845 1538.71 213.651 1542.27 Q215.48 1545.82 219.091 1545.82 Q222.725 1545.82 224.53 1542.27 Q226.359 1538.71 226.359 1531.6 Q226.359 1524.47 224.53 1520.93 Q222.725 1517.37 219.091 1517.37 M219.091 1513.66 Q224.901 1513.66 227.956 1518.27 Q231.035 1522.85 231.035 1531.6 Q231.035 1540.33 227.956 1544.94 Q224.901 1549.52 219.091 1549.52 Q213.28 1549.52 210.202 1544.94 Q207.146 1540.33 207.146 1531.6 Q207.146 1522.85 210.202 1518.27 Q213.28 1513.66 219.091 1513.66 Z" fill="#000000" fill-rule="nonzero" fill-opacity="1"></path><path clip-path="url(#clip620)" d="M249.252 1517.37 Q245.641 1517.37 243.813 1520.93 Q242.007 1524.47 242.007 1531.6 Q242.007 1538.71 243.813 1542.27 Q245.641 1545.82 249.252 1545.82 Q252.887 1545.82 254.692 1542.27 Q256.521 1538.71 256.521 1531.6 Q256.521 1524.47 254.692 1520.93 Q252.887 1517.37 249.252 1517.37 M249.252 1513.66 Q255.063 1513.66 258.118 1518.27 Q261.197 1522.85 261.197 1531.6 Q261.197 1540.33 258.118 1544.94 Q255.063 1549.52 249.252 1549.52 Q243.442 1549.52 240.364 1544.94 Q237.308 1540.33 237.308 1531.6 Q237.308 1522.85 240.364 1518.27 Q243.442 1513.66 249.252 1513.66 Z" fill="#000000" fill-rule="nonzero" fill-opacity="1"></path><path clip-path="url(#clip620)" d="M694.066 1517.37 Q690.455 1517.37 688.626 1520.93 Q686.82 1524.47 686.82 1531.6 Q686.82 1538.71 688.626 1542.27 Q690.455 1545.82 694.066 1545.82 Q697.7 1545.82 699.506 1542.27 Q701.334 1538.71 701.334 1531.6 Q701.334 1524.47 699.506 1520.93 Q697.7 1517.37 694.066 1517.37 M694.066 1513.66 Q699.876 1513.66 702.931 1518.27 Q706.01 1522.85 706.01 1531.6 Q706.01 1540.33 702.931 1544.94 Q699.876 1549.52 694.066 1549.52 Q688.256 1549.52 685.177 1544.94 Q682.121 1540.33 682.121 1531.6 Q682.121 1522.85 685.177 1518.27 Q688.256 1513.66 694.066 1513.66 Z" fill="#000000" fill-rule="nonzero" fill-opacity="1"></path><path clip-path="url(#clip620)" d="M714.228 1542.97 L719.112 1542.97 L719.112 1548.85 L714.228 1548.85 L714.228 1542.97 Z" fill="#000000" fill-rule="nonzero" fill-opacity="1"></path><path clip-path="url(#clip620)" d="M733.325 1544.91 L749.644 1544.91 L749.644 1548.85 L727.7 1548.85 L727.7 1544.91 Q730.362 1542.16 734.945 1537.53 Q739.552 1532.88 740.732 1531.53 Q742.978 1529.01 743.857 1527.27 Q744.76 1525.51 744.76 1523.82 Q744.76 1521.07 742.816 1519.33 Q740.894 1517.6 737.792 1517.6 Q735.593 1517.6 733.14 1518.36 Q730.709 1519.13 727.931 1520.68 L727.931 1515.95 Q730.755 1514.82 733.209 1514.24 Q735.663 1513.66 737.7 1513.66 Q743.07 1513.66 746.265 1516.35 Q749.459 1519.03 749.459 1523.52 Q749.459 1525.65 748.649 1527.57 Q747.862 1529.47 745.755 1532.07 Q745.177 1532.74 742.075 1535.95 Q738.973 1539.15 733.325 1544.91 Z" fill="#000000" fill-rule="nonzero" fill-opacity="1"></path><path clip-path="url(#clip620)" d="M759.505 1514.29 L777.862 1514.29 L777.862 1518.22 L763.788 1518.22 L763.788 1526.7 Q764.806 1526.35 765.825 1526.19 Q766.843 1526 767.862 1526 Q773.649 1526 777.028 1529.17 Q780.408 1532.34 780.408 1537.76 Q780.408 1543.34 776.936 1546.44 Q773.463 1549.52 767.144 1549.52 Q764.968 1549.52 762.7 1549.15 Q760.454 1548.78 758.047 1548.04 L758.047 1543.34 Q760.13 1544.47 762.352 1545.03 Q764.575 1545.58 767.051 1545.58 Q771.056 1545.58 773.394 1543.48 Q775.732 1541.37 775.732 1537.76 Q775.732 1534.15 773.394 1532.04 Q771.056 1529.94 767.051 1529.94 Q765.177 1529.94 763.302 1530.35 Q761.45 1530.77 759.505 1531.65 L759.505 1514.29 Z" fill="#000000" fill-rule="nonzero" fill-opacity="1"></path><path clip-path="url(#clip620)" d="M1213.28 1517.37 Q1209.67 1517.37 1207.84 1520.93 Q1206.03 1524.47 1206.03 1531.6 Q1206.03 1538.71 1207.84 1542.27 Q1209.67 1545.82 1213.28 1545.82 Q1216.91 1545.82 1218.72 1542.27 Q1220.55 1538.71 1220.55 1531.6 Q1220.55 1524.47 1218.72 1520.93 Q1216.91 1517.37 1213.28 1517.37 M1213.28 1513.66 Q1219.09 1513.66 1222.14 1518.27 Q1225.22 1522.85 1225.22 1531.6 Q1225.22 1540.33 1222.14 1544.94 Q1219.09 1549.52 1213.28 1549.52 Q1207.47 1549.52 1204.39 1544.94 Q1201.33 1540.33 1201.33 1531.6 Q1201.33 1522.85 1204.39 1518.27 Q1207.47 1513.66 1213.28 1513.66 Z" fill="#000000" fill-rule="nonzero" fill-opacity="1"></path><path clip-path="url(#clip620)" d="M1233.44 1542.97 L1238.32 1542.97 L1238.32 1548.85 L1233.44 1548.85 L1233.44 1542.97 Z" fill="#000000" fill-rule="nonzero" fill-opacity="1"></path><path clip-path="url(#clip620)" d="M1248.55 1514.29 L1266.91 1514.29 L1266.91 1518.22 L1252.84 1518.22 L1252.84 1526.7 Q1253.86 1526.35 1254.87 1526.19 Q1255.89 1526 1256.91 1526 Q1262.7 1526 1266.08 1529.17 Q1269.46 1532.34 1269.46 1537.76 Q1269.46 1543.34 1265.98 1546.44 Q1262.51 1549.52 1256.19 1549.52 Q1254.02 1549.52 1251.75 1549.15 Q1249.5 1548.78 1247.1 1548.04 L1247.1 1543.34 Q1249.18 1544.47 1251.4 1545.03 Q1253.62 1545.58 1256.1 1545.58 Q1260.11 1545.58 1262.44 1543.48 Q1264.78 1541.37 1264.78 1537.76 Q1264.78 1534.15 1262.44 1532.04 Q1260.11 1529.94 1256.1 1529.94 Q1254.23 1529.94 1252.35 1530.35 Q1250.5 1530.77 1248.55 1531.65 L1248.55 1514.29 Z" fill="#000000" fill-rule="nonzero" fill-opacity="1"></path><path clip-path="url(#clip620)" d="M1288.67 1517.37 Q1285.06 1517.37 1283.23 1520.93 Q1281.42 1524.47 1281.42 1531.6 Q1281.42 1538.71 1283.23 1542.27 Q1285.06 1545.82 1288.67 1545.82 Q1292.3 1545.82 1294.11 1542.27 Q1295.94 1538.71 1295.94 1531.6 Q1295.94 1524.47 1294.11 1520.93 Q1292.3 1517.37 1288.67 1517.37 M1288.67 1513.66 Q1294.48 1513.66 1297.54 1518.27 Q1300.61 1522.85 1300.61 1531.6 Q1300.61 1540.33 1297.54 1544.94 Q1294.48 1549.52 1288.67 1549.52 Q1282.86 1549.52 1279.78 1544.94 Q1276.73 1540.33 1276.73 1531.6 Q1276.73 1522.85 1279.78 1518.27 Q1282.86 1513.66 1288.67 1513.66 Z" fill="#000000" fill-rule="nonzero" fill-opacity="1"></path><path clip-path="url(#clip620)" d="M1733.48 1517.37 Q1729.87 1517.37 1728.04 1520.93 Q1726.24 1524.47 1726.24 1531.6 Q1726.24 1538.71 1728.04 1542.27 Q1729.87 1545.82 1733.48 1545.82 Q1737.12 1545.82 1738.92 1542.27 Q1740.75 1538.71 1740.75 1531.6 Q1740.75 1524.47 1738.92 1520.93 Q1737.12 1517.37 1733.48 1517.37 M1733.48 1513.66 Q1739.29 1513.66 1742.35 1518.27 Q1745.43 1522.85 1745.43 1531.6 Q1745.43 1540.33 1742.35 1544.94 Q1739.29 1549.52 1733.48 1549.52 Q1727.67 1549.52 1724.59 1544.94 Q1721.54 1540.33 1721.54 1531.6 Q1721.54 1522.85 1724.59 1518.27 Q1727.67 1513.66 1733.48 1513.66 Z" fill="#000000" fill-rule="nonzero" fill-opacity="1"></path><path clip-path="url(#clip620)" d="M1753.65 1542.97 L1758.53 1542.97 L1758.53 1548.85 L1753.65 1548.85 L1753.65 1542.97 Z" fill="#000000" fill-rule="nonzero" fill-opacity="1"></path><path clip-path="url(#clip620)" d="M1767.53 1514.29 L1789.76 1514.29 L1789.76 1516.28 L1777.21 1548.85 L1772.33 1548.85 L1784.13 1518.22 L1767.53 1518.22 L1767.53 1514.29 Z" fill="#000000" fill-rule="nonzero" fill-opacity="1"></path><path clip-path="url(#clip620)" d="M1798.92 1514.29 L1817.28 1514.29 L1817.28 1518.22 L1803.21 1518.22 L1803.21 1526.7 Q1804.22 1526.35 1805.24 1526.19 Q1806.26 1526 1807.28 1526 Q1813.07 1526 1816.45 1529.17 Q1819.83 1532.34 1819.83 1537.76 Q1819.83 1543.34 1816.35 1546.44 Q1812.88 1549.52 1806.56 1549.52 Q1804.39 1549.52 1802.12 1549.15 Q1799.87 1548.78 1797.46 1548.04 L1797.46 1543.34 Q1799.55 1544.47 1801.77 1545.03 Q1803.99 1545.58 1806.47 1545.58 Q1810.47 1545.58 1812.81 1543.48 Q1815.15 1541.37 1815.15 1537.76 Q1815.15 1534.15 1812.81 1532.04 Q1810.47 1529.94 1806.47 1529.94 Q1804.59 1529.94 1802.72 1530.35 Q1800.87 1530.77 1798.92 1531.65 L1798.92 1514.29 Z" fill="#000000" fill-rule="nonzero" fill-opacity="1"></path><path clip-path="url(#clip620)" d="M2242.46 1544.91 L2250.1 1544.91 L2250.1 1518.55 L2241.79 1520.21 L2241.79 1515.95 L2250.06 1514.29 L2254.73 1514.29 L2254.73 1544.91 L2262.37 1544.91 L2262.37 1548.85 L2242.46 1548.85 L2242.46 1544.91 Z" fill="#000000" fill-rule="nonzero" fill-opacity="1"></path><path clip-path="url(#clip620)" d="M2271.81 1542.97 L2276.7 1542.97 L2276.7 1548.85 L2271.81 1548.85 L2271.81 1542.97 Z" fill="#000000" fill-rule="nonzero" fill-opacity="1"></path><path clip-path="url(#clip620)" d="M2296.88 1517.37 Q2293.27 1517.37 2291.44 1520.93 Q2289.64 1524.47 2289.64 1531.6 Q2289.64 1538.71 2291.44 1542.27 Q2293.27 1545.82 2296.88 1545.82 Q2300.52 1545.82 2302.32 1542.27 Q2304.15 1538.71 2304.15 1531.6 Q2304.15 1524.47 2302.32 1520.93 Q2300.52 1517.37 2296.88 1517.37 M2296.88 1513.66 Q2302.69 1513.66 2305.75 1518.27 Q2308.83 1522.85 2308.83 1531.6 Q2308.83 1540.33 2305.75 1544.94 Q2302.69 1549.52 2296.88 1549.52 Q2291.07 1549.52 2288 1544.94 Q2284.94 1540.33 2284.94 1531.6 Q2284.94 1522.85 2288 1518.27 Q2291.07 1513.66 2296.88 1513.66 Z" fill="#000000" fill-rule="nonzero" fill-opacity="1"></path><path clip-path="url(#clip620)" d="M2327.05 1517.37 Q2323.43 1517.37 2321.61 1520.93 Q2319.8 1524.47 2319.8 1531.6 Q2319.8 1538.71 2321.61 1542.27 Q2323.43 1545.82 2327.05 1545.82 Q2330.68 1545.82 2332.49 1542.27 Q2334.31 1538.71 2334.31 1531.6 Q2334.31 1524.47 2332.49 1520.93 Q2330.68 1517.37 2327.05 1517.37 M2327.05 1513.66 Q2332.86 1513.66 2335.91 1518.27 Q2338.99 1522.85 2338.99 1531.6 Q2338.99 1540.33 2335.91 1544.94 Q2332.86 1549.52 2327.05 1549.52 Q2321.24 1549.52 2318.16 1544.94 Q2315.1 1540.33 2315.1 1531.6 Q2315.1 1522.85 2318.16 1518.27 Q2321.24 1513.66 2327.05 1513.66 Z" fill="#000000" fill-rule="nonzero" fill-opacity="1"></path><polyline clip-path="url(#clip623)" style="stroke:#000000; stroke-linecap:round; stroke-linejoin:round; stroke-width:2; stroke-opacity:0.1; fill:none" points="149.191,1415.15 2352.76,1415.15 "></polyline>
<polyline clip-path="url(#clip623)" style="stroke:#000000; stroke-linecap:round; stroke-linejoin:round; stroke-width:2; stroke-opacity:0.1; fill:none" points="149.191,1239.61 2352.76,1239.61 "></polyline>
<polyline clip-path="url(#clip623)" style="stroke:#000000; stroke-linecap:round; stroke-linejoin:round; stroke-width:2; stroke-opacity:0.1; fill:none" points="149.191,1064.07 2352.76,1064.07 "></polyline>
<polyline clip-path="url(#clip623)" style="stroke:#000000; stroke-linecap:round; stroke-linejoin:round; stroke-width:2; stroke-opacity:0.1; fill:none" points="149.191,888.525 2352.76,888.525 "></polyline>
<polyline clip-path="url(#clip620)" style="stroke:#000000; stroke-linecap:round; stroke-linejoin:round; stroke-width:4; stroke-opacity:1; fill:none" points="149.191,1486.45 149.191,885.358 "></polyline>
<polyline clip-path="url(#clip620)" style="stroke:#000000; stroke-linecap:round; stroke-linejoin:round; stroke-width:4; stroke-opacity:1; fill:none" points="149.191,1415.15 168.089,1415.15 "></polyline>
<polyline clip-path="url(#clip620)" style="stroke:#000000; stroke-linecap:round; stroke-linejoin:round; stroke-width:4; stroke-opacity:1; fill:none" points="149.191,1239.61 168.089,1239.61 "></polyline>
<polyline clip-path="url(#clip620)" style="stroke:#000000; stroke-linecap:round; stroke-linejoin:round; stroke-width:4; stroke-opacity:1; fill:none" points="149.191,1064.07 168.089,1064.07 "></polyline>
<polyline clip-path="url(#clip620)" style="stroke:#000000; stroke-linecap:round; stroke-linejoin:round; stroke-width:4; stroke-opacity:1; fill:none" points="149.191,888.525 168.089,888.525 "></polyline>
<path clip-path="url(#clip620)" d="M53.0754 1415.6 L82.7512 1415.6 L82.7512 1419.53 L53.0754 1419.53 L53.0754 1415.6 Z" fill="#000000" fill-rule="nonzero" fill-opacity="1"></path><path clip-path="url(#clip620)" d="M96.8715 1428.49 L113.191 1428.49 L113.191 1432.43 L91.2465 1432.43 L91.2465 1428.49 Q93.9086 1425.74 98.4919 1421.11 Q103.098 1416.45 104.279 1415.11 Q106.524 1412.59 107.404 1410.85 Q108.307 1409.09 108.307 1407.4 Q108.307 1404.65 106.362 1402.91 Q104.441 1401.18 101.339 1401.18 Q99.14 1401.18 96.6863 1401.94 Q94.2558 1402.7 91.478 1404.26 L91.478 1399.53 Q94.3021 1398.4 96.7558 1397.82 Q99.2095 1397.24 101.246 1397.24 Q106.617 1397.24 109.811 1399.93 Q113.006 1402.61 113.006 1407.1 Q113.006 1409.23 112.196 1411.15 Q111.408 1413.05 109.302 1415.64 Q108.723 1416.32 105.621 1419.53 Q102.52 1422.73 96.8715 1428.49 Z" fill="#000000" fill-rule="nonzero" fill-opacity="1"></path><path clip-path="url(#clip620)" d="M52.7051 1240.06 L82.3808 1240.06 L82.3808 1243.99 L52.7051 1243.99 L52.7051 1240.06 Z" fill="#000000" fill-rule="nonzero" fill-opacity="1"></path><path clip-path="url(#clip620)" d="M93.2836 1252.95 L100.922 1252.95 L100.922 1226.59 L92.6123 1228.25 L92.6123 1223.99 L100.876 1222.33 L105.552 1222.33 L105.552 1252.95 L113.191 1252.95 L113.191 1256.89 L93.2836 1256.89 L93.2836 1252.95 Z" fill="#000000" fill-rule="nonzero" fill-opacity="1"></path><path clip-path="url(#clip620)" d="M101.246 1049.86 Q97.6354 1049.86 95.8067 1053.43 Q94.0012 1056.97 94.0012 1064.1 Q94.0012 1071.21 95.8067 1074.77 Q97.6354 1078.31 101.246 1078.31 Q104.881 1078.31 106.686 1074.77 Q108.515 1071.21 108.515 1064.1 Q108.515 1056.97 106.686 1053.43 Q104.881 1049.86 101.246 1049.86 M101.246 1046.16 Q107.057 1046.16 110.112 1050.77 Q113.191 1055.35 113.191 1064.1 Q113.191 1072.83 110.112 1077.43 Q107.057 1082.02 101.246 1082.02 Q95.4363 1082.02 92.3576 1077.43 Q89.3021 1072.83 89.3021 1064.1 Q89.3021 1055.35 92.3576 1050.77 Q95.4363 1046.16 101.246 1046.16 Z" fill="#000000" fill-rule="nonzero" fill-opacity="1"></path><path clip-path="url(#clip620)" d="M93.2836 901.87 L100.922 901.87 L100.922 875.504 L92.6123 877.171 L92.6123 872.912 L100.876 871.245 L105.552 871.245 L105.552 901.87 L113.191 901.87 L113.191 905.805 L93.2836 905.805 L93.2836 901.87 Z" fill="#000000" fill-rule="nonzero" fill-opacity="1"></path><polyline clip-path="url(#clip623)" style="stroke:#000000; stroke-linecap:round; stroke-linejoin:round; stroke-width:4; stroke-opacity:1; fill:none" points="211.556,938.053 278.615,936.642 345.674,937.142 412.733,939.489 479.793,943.589 546.852,949.315 613.911,956.515 680.97,965.02 748.029,974.645 815.089,985.194 882.148,996.472 949.207,1008.28 1016.27,1020.43 1083.33,1032.73 1150.38,1045.03 1217.44,1057.15 1284.5,1068.96 1351.56,1080.35 1418.62,1091.19 1485.68,1101.39 1552.74,1110.87 1619.8,1119.56 1686.86,1127.39 1753.92,1134.3 1820.98,1140.23 1888.04,1145.12 1955.09,1148.93 2022.15,1151.6 2089.21,1153.07 2156.27,1153.3 2223.33,1152.25 2290.39,1149.88 "></polyline>
<polyline clip-path="url(#clip623)" style="stroke:#ff0000; stroke-linecap:round; stroke-linejoin:round; stroke-width:4; stroke-opacity:1; fill:none" points="211.556,990.354 278.615,1050.16 345.674,1108.61 412.733,1164.58 479.793,1217.08 546.852,1265.26 613.911,1308.42 680.97,1346.05 748.029,1377.78 815.089,1403.42 882.148,1422.91 949.207,1436.36 1016.27,1443.99 1083.33,1446.16 1150.38,1443.28 1217.44,1435.79 1284.5,1424.22 1351.56,1409.03 1418.62,1390.69 1485.68,1369.59 1552.74,1346.07 1619.8,1320.42 1686.86,1292.8 1753.92,1263.35 1820.98,1232.15 1888.04,1199.26 1955.09,1164.69 2022.15,1128.49 2089.21,1090.73 2156.27,1051.56 2223.33,1011.23 2290.39,970.056 "></polyline>
<polyline clip-path="url(#clip623)" style="stroke:#0000ff; stroke-linecap:round; stroke-linejoin:round; stroke-width:4; stroke-opacity:1; fill:none" points="211.556,933.593 278.615,936.104 345.674,939.244 412.733,943.08 479.793,947.682 546.852,953.119 613.911,959.457 680.97,966.751 748.029,975.033 815.089,984.305 882.148,994.531 949.207,1005.63 1016.27,1017.48 1083.33,1029.92 1150.38,1042.74 1217.44,1055.72 1284.5,1068.59 1351.56,1081.1 1418.62,1093 1485.68,1104.05 1552.74,1114.05 1619.8,1122.87 1686.86,1130.4 1753.92,1136.61 1820.98,1141.56 1888.04,1145.36 1955.09,1148.22 2022.15,1150.33 2089.21,1151.91 2156.27,1153.16 2223.33,1154.2 2290.39,1155.13 "></polyline>
<polyline clip-path="url(#clip623)" style="stroke:#ffa500; stroke-linecap:round; stroke-linejoin:round; stroke-width:4; stroke-opacity:1; fill:none" points="211.556,997.971 278.615,1047.58 345.674,1105.98 412.733,1163.64 479.793,1216.29 546.852,1263.74 613.911,1306.4 680.97,1344.12 748.029,1376.4 815.089,1403.03 882.148,1424.32 949.207,1440.04 1016.27,1449.08 1083.33,1451 1150.38,1447.19 1217.44,1439.63 1284.5,1428.89 1351.56,1414.12 1418.62,1394.96 1485.68,1372.61 1552.74,1348.73 1619.8,1323.62 1686.86,1295.9 1753.92,1264.35 1820.98,1229.53 1888.04,1193.47 1955.09,1157.91 2022.15,1122.48 2089.21,1084.13 2156.27,1040.91 2223.33,997.948 2290.39,964.991 "></polyline>
<circle clip-path="url(#clip623)" cx="211.556" cy="930.54" r="14.4" fill="#800080" fill-rule="evenodd" fill-opacity="1" stroke="#000000" stroke-opacity="1" stroke-width="3.2"></circle>
<circle clip-path="url(#clip623)" cx="278.615" cy="940.613" r="14.4" fill="#800080" fill-rule="evenodd" fill-opacity="1" stroke="#000000" stroke-opacity="1" stroke-width="3.2"></circle>
<circle clip-path="url(#clip623)" cx="345.674" cy="944.63" r="14.4" fill="#800080" fill-rule="evenodd" fill-opacity="1" stroke="#000000" stroke-opacity="1" stroke-width="3.2"></circle>
<circle clip-path="url(#clip623)" cx="412.733" cy="959.444" r="14.4" fill="#800080" fill-rule="evenodd" fill-opacity="1" stroke="#000000" stroke-opacity="1" stroke-width="3.2"></circle>
<circle clip-path="url(#clip623)" cx="479.793" cy="902.37" r="14.4" fill="#800080" fill-rule="evenodd" fill-opacity="1" stroke="#000000" stroke-opacity="1" stroke-width="3.2"></circle>
<circle clip-path="url(#clip623)" cx="546.852" cy="961.537" r="14.4" fill="#800080" fill-rule="evenodd" fill-opacity="1" stroke="#000000" stroke-opacity="1" stroke-width="3.2"></circle>
<circle clip-path="url(#clip623)" cx="613.911" cy="936.195" r="14.4" fill="#800080" fill-rule="evenodd" fill-opacity="1" stroke="#000000" stroke-opacity="1" stroke-width="3.2"></circle>
<circle clip-path="url(#clip623)" cx="680.97" cy="990.765" r="14.4" fill="#800080" fill-rule="evenodd" fill-opacity="1" stroke="#000000" stroke-opacity="1" stroke-width="3.2"></circle>
<circle clip-path="url(#clip623)" cx="748.029" cy="972.595" r="14.4" fill="#800080" fill-rule="evenodd" fill-opacity="1" stroke="#000000" stroke-opacity="1" stroke-width="3.2"></circle>
<circle clip-path="url(#clip623)" cx="815.089" cy="971.372" r="14.4" fill="#800080" fill-rule="evenodd" fill-opacity="1" stroke="#000000" stroke-opacity="1" stroke-width="3.2"></circle>
<circle clip-path="url(#clip623)" cx="882.148" cy="971.914" r="14.4" fill="#800080" fill-rule="evenodd" fill-opacity="1" stroke="#000000" stroke-opacity="1" stroke-width="3.2"></circle>
<circle clip-path="url(#clip623)" cx="949.207" cy="1023.63" r="14.4" fill="#800080" fill-rule="evenodd" fill-opacity="1" stroke="#000000" stroke-opacity="1" stroke-width="3.2"></circle>
<circle clip-path="url(#clip623)" cx="1016.27" cy="1006.64" r="14.4" fill="#800080" fill-rule="evenodd" fill-opacity="1" stroke="#000000" stroke-opacity="1" stroke-width="3.2"></circle>
<circle clip-path="url(#clip623)" cx="1083.33" cy="1046.35" r="14.4" fill="#800080" fill-rule="evenodd" fill-opacity="1" stroke="#000000" stroke-opacity="1" stroke-width="3.2"></circle>
<circle clip-path="url(#clip623)" cx="1150.38" cy="1047.12" r="14.4" fill="#800080" fill-rule="evenodd" fill-opacity="1" stroke="#000000" stroke-opacity="1" stroke-width="3.2"></circle>
<circle clip-path="url(#clip623)" cx="1217.44" cy="1058.21" r="14.4" fill="#800080" fill-rule="evenodd" fill-opacity="1" stroke="#000000" stroke-opacity="1" stroke-width="3.2"></circle>
<circle clip-path="url(#clip623)" cx="1284.5" cy="1090.8" r="14.4" fill="#800080" fill-rule="evenodd" fill-opacity="1" stroke="#000000" stroke-opacity="1" stroke-width="3.2"></circle>
<circle clip-path="url(#clip623)" cx="1351.56" cy="1035.31" r="14.4" fill="#800080" fill-rule="evenodd" fill-opacity="1" stroke="#000000" stroke-opacity="1" stroke-width="3.2"></circle>
<circle clip-path="url(#clip623)" cx="1418.62" cy="1093.46" r="14.4" fill="#800080" fill-rule="evenodd" fill-opacity="1" stroke="#000000" stroke-opacity="1" stroke-width="3.2"></circle>
<circle clip-path="url(#clip623)" cx="1485.68" cy="1122.99" r="14.4" fill="#800080" fill-rule="evenodd" fill-opacity="1" stroke="#000000" stroke-opacity="1" stroke-width="3.2"></circle>
<circle clip-path="url(#clip623)" cx="1552.74" cy="1075.96" r="14.4" fill="#800080" fill-rule="evenodd" fill-opacity="1" stroke="#000000" stroke-opacity="1" stroke-width="3.2"></circle>
<circle clip-path="url(#clip623)" cx="1619.8" cy="1088.39" r="14.4" fill="#800080" fill-rule="evenodd" fill-opacity="1" stroke="#000000" stroke-opacity="1" stroke-width="3.2"></circle>
<circle clip-path="url(#clip623)" cx="1686.86" cy="1144.05" r="14.4" fill="#800080" fill-rule="evenodd" fill-opacity="1" stroke="#000000" stroke-opacity="1" stroke-width="3.2"></circle>
<circle clip-path="url(#clip623)" cx="1753.92" cy="1130.11" r="14.4" fill="#800080" fill-rule="evenodd" fill-opacity="1" stroke="#000000" stroke-opacity="1" stroke-width="3.2"></circle>
<circle clip-path="url(#clip623)" cx="1820.98" cy="1120.3" r="14.4" fill="#800080" fill-rule="evenodd" fill-opacity="1" stroke="#000000" stroke-opacity="1" stroke-width="3.2"></circle>
<circle clip-path="url(#clip623)" cx="1888.04" cy="1089.23" r="14.4" fill="#800080" fill-rule="evenodd" fill-opacity="1" stroke="#000000" stroke-opacity="1" stroke-width="3.2"></circle>
<circle clip-path="url(#clip623)" cx="1955.09" cy="1145.1" r="14.4" fill="#800080" fill-rule="evenodd" fill-opacity="1" stroke="#000000" stroke-opacity="1" stroke-width="3.2"></circle>
<circle clip-path="url(#clip623)" cx="2022.15" cy="1134.14" r="14.4" fill="#800080" fill-rule="evenodd" fill-opacity="1" stroke="#000000" stroke-opacity="1" stroke-width="3.2"></circle>
<circle clip-path="url(#clip623)" cx="2089.21" cy="1151.91" r="14.4" fill="#800080" fill-rule="evenodd" fill-opacity="1" stroke="#000000" stroke-opacity="1" stroke-width="3.2"></circle>
<circle clip-path="url(#clip623)" cx="2156.27" cy="1156.46" r="14.4" fill="#800080" fill-rule="evenodd" fill-opacity="1" stroke="#000000" stroke-opacity="1" stroke-width="3.2"></circle>
<circle clip-path="url(#clip623)" cx="2223.33" cy="1099.9" r="14.4" fill="#800080" fill-rule="evenodd" fill-opacity="1" stroke="#000000" stroke-opacity="1" stroke-width="3.2"></circle>
<circle clip-path="url(#clip623)" cx="2290.39" cy="1130.2" r="14.4" fill="#800080" fill-rule="evenodd" fill-opacity="1" stroke="#000000" stroke-opacity="1" stroke-width="3.2"></circle>
<circle clip-path="url(#clip623)" cx="211.556" cy="1008.02" r="14.4" fill="#ffff00" fill-rule="evenodd" fill-opacity="1" stroke="#000000" stroke-opacity="1" stroke-width="3.2"></circle>
<circle clip-path="url(#clip623)" cx="278.615" cy="1061.75" r="14.4" fill="#ffff00" fill-rule="evenodd" fill-opacity="1" stroke="#000000" stroke-opacity="1" stroke-width="3.2"></circle>
<circle clip-path="url(#clip623)" cx="345.674" cy="1145.22" r="14.4" fill="#ffff00" fill-rule="evenodd" fill-opacity="1" stroke="#000000" stroke-opacity="1" stroke-width="3.2"></circle>
<circle clip-path="url(#clip623)" cx="412.733" cy="1141.13" r="14.4" fill="#ffff00" fill-rule="evenodd" fill-opacity="1" stroke="#000000" stroke-opacity="1" stroke-width="3.2"></circle>
<circle clip-path="url(#clip623)" cx="479.793" cy="1204.08" r="14.4" fill="#ffff00" fill-rule="evenodd" fill-opacity="1" stroke="#000000" stroke-opacity="1" stroke-width="3.2"></circle>
<circle clip-path="url(#clip623)" cx="546.852" cy="1240.15" r="14.4" fill="#ffff00" fill-rule="evenodd" fill-opacity="1" stroke="#000000" stroke-opacity="1" stroke-width="3.2"></circle>
<circle clip-path="url(#clip623)" cx="613.911" cy="1276.61" r="14.4" fill="#ffff00" fill-rule="evenodd" fill-opacity="1" stroke="#000000" stroke-opacity="1" stroke-width="3.2"></circle>
<circle clip-path="url(#clip623)" cx="680.97" cy="1381.03" r="14.4" fill="#ffff00" fill-rule="evenodd" fill-opacity="1" stroke="#000000" stroke-opacity="1" stroke-width="3.2"></circle>
<circle clip-path="url(#clip623)" cx="748.029" cy="1406.66" r="14.4" fill="#ffff00" fill-rule="evenodd" fill-opacity="1" stroke="#000000" stroke-opacity="1" stroke-width="3.2"></circle>
<circle clip-path="url(#clip623)" cx="815.089" cy="1400.57" r="14.4" fill="#ffff00" fill-rule="evenodd" fill-opacity="1" stroke="#000000" stroke-opacity="1" stroke-width="3.2"></circle>
<circle clip-path="url(#clip623)" cx="882.148" cy="1389.73" r="14.4" fill="#ffff00" fill-rule="evenodd" fill-opacity="1" stroke="#000000" stroke-opacity="1" stroke-width="3.2"></circle>
<circle clip-path="url(#clip623)" cx="949.207" cy="1460.78" r="14.4" fill="#ffff00" fill-rule="evenodd" fill-opacity="1" stroke="#000000" stroke-opacity="1" stroke-width="3.2"></circle>
<circle clip-path="url(#clip623)" cx="1016.27" cy="1440.1" r="14.4" fill="#ffff00" fill-rule="evenodd" fill-opacity="1" stroke="#000000" stroke-opacity="1" stroke-width="3.2"></circle>
<circle clip-path="url(#clip623)" cx="1083.33" cy="1468.31" r="14.4" fill="#ffff00" fill-rule="evenodd" fill-opacity="1" stroke="#000000" stroke-opacity="1" stroke-width="3.2"></circle>
<circle clip-path="url(#clip623)" cx="1150.38" cy="1469.44" r="14.4" fill="#ffff00" fill-rule="evenodd" fill-opacity="1" stroke="#000000" stroke-opacity="1" stroke-width="3.2"></circle>
<circle clip-path="url(#clip623)" cx="1217.44" cy="1409.89" r="14.4" fill="#ffff00" fill-rule="evenodd" fill-opacity="1" stroke="#000000" stroke-opacity="1" stroke-width="3.2"></circle>
<circle clip-path="url(#clip623)" cx="1284.5" cy="1427.77" r="14.4" fill="#ffff00" fill-rule="evenodd" fill-opacity="1" stroke="#000000" stroke-opacity="1" stroke-width="3.2"></circle>
<circle clip-path="url(#clip623)" cx="1351.56" cy="1435.8" r="14.4" fill="#ffff00" fill-rule="evenodd" fill-opacity="1" stroke="#000000" stroke-opacity="1" stroke-width="3.2"></circle>
<circle clip-path="url(#clip623)" cx="1418.62" cy="1392.43" r="14.4" fill="#ffff00" fill-rule="evenodd" fill-opacity="1" stroke="#000000" stroke-opacity="1" stroke-width="3.2"></circle>
<circle clip-path="url(#clip623)" cx="1485.68" cy="1362.8" r="14.4" fill="#ffff00" fill-rule="evenodd" fill-opacity="1" stroke="#000000" stroke-opacity="1" stroke-width="3.2"></circle>
<circle clip-path="url(#clip623)" cx="1552.74" cy="1320.71" r="14.4" fill="#ffff00" fill-rule="evenodd" fill-opacity="1" stroke="#000000" stroke-opacity="1" stroke-width="3.2"></circle>
<circle clip-path="url(#clip623)" cx="1619.8" cy="1291.14" r="14.4" fill="#ffff00" fill-rule="evenodd" fill-opacity="1" stroke="#000000" stroke-opacity="1" stroke-width="3.2"></circle>
<circle clip-path="url(#clip623)" cx="1686.86" cy="1266.14" r="14.4" fill="#ffff00" fill-rule="evenodd" fill-opacity="1" stroke="#000000" stroke-opacity="1" stroke-width="3.2"></circle>
<circle clip-path="url(#clip623)" cx="1753.92" cy="1257.53" r="14.4" fill="#ffff00" fill-rule="evenodd" fill-opacity="1" stroke="#000000" stroke-opacity="1" stroke-width="3.2"></circle>
<circle clip-path="url(#clip623)" cx="1820.98" cy="1226.33" r="14.4" fill="#ffff00" fill-rule="evenodd" fill-opacity="1" stroke="#000000" stroke-opacity="1" stroke-width="3.2"></circle>
<circle clip-path="url(#clip623)" cx="1888.04" cy="1181.77" r="14.4" fill="#ffff00" fill-rule="evenodd" fill-opacity="1" stroke="#000000" stroke-opacity="1" stroke-width="3.2"></circle>
<circle clip-path="url(#clip623)" cx="1955.09" cy="1153.7" r="14.4" fill="#ffff00" fill-rule="evenodd" fill-opacity="1" stroke="#000000" stroke-opacity="1" stroke-width="3.2"></circle>
<circle clip-path="url(#clip623)" cx="2022.15" cy="1125.73" r="14.4" fill="#ffff00" fill-rule="evenodd" fill-opacity="1" stroke="#000000" stroke-opacity="1" stroke-width="3.2"></circle>
<circle clip-path="url(#clip623)" cx="2089.21" cy="1125.79" r="14.4" fill="#ffff00" fill-rule="evenodd" fill-opacity="1" stroke="#000000" stroke-opacity="1" stroke-width="3.2"></circle>
<circle clip-path="url(#clip623)" cx="2156.27" cy="1008.87" r="14.4" fill="#ffff00" fill-rule="evenodd" fill-opacity="1" stroke="#000000" stroke-opacity="1" stroke-width="3.2"></circle>
<circle clip-path="url(#clip623)" cx="2223.33" cy="1040.3" r="14.4" fill="#ffff00" fill-rule="evenodd" fill-opacity="1" stroke="#000000" stroke-opacity="1" stroke-width="3.2"></circle>
<circle clip-path="url(#clip623)" cx="2290.39" cy="950.706" r="14.4" fill="#ffff00" fill-rule="evenodd" fill-opacity="1" stroke="#000000" stroke-opacity="1" stroke-width="3.2"></circle>
<path clip-path="url(#clip620)" d="M1913.49 1466.41 L2279.3 1466.41 L2279.3 1103.53 L1913.49 1103.53  Z" fill="#ffffff" fill-rule="evenodd" fill-opacity="1"></path>
<polyline clip-path="url(#clip620)" style="stroke:#000000; stroke-linecap:round; stroke-linejoin:round; stroke-width:4; stroke-opacity:1; fill:none" points="1913.49,1466.41 2279.3,1466.41 2279.3,1103.53 1913.49,1103.53 1913.49,1466.41 "></polyline>
<polyline clip-path="url(#clip620)" style="stroke:#000000; stroke-linecap:round; stroke-linejoin:round; stroke-width:4; stroke-opacity:1; fill:none" points="1937.97,1155.37 2084.87,1155.37 "></polyline>
<path clip-path="url(#clip620)" d="M2128.62 1156.22 L2113.87 1156.22 Q2114.22 1163.14 2115.82 1166.08 Q2117.81 1169.69 2121.26 1169.69 Q2124.73 1169.69 2126.65 1166.05 Q2128.34 1162.86 2128.62 1156.22 M2128.55 1152.28 Q2127.9 1145.71 2126.65 1143.39 Q2124.66 1139.74 2121.26 1139.74 Q2117.71 1139.74 2115.84 1143.35 Q2114.36 1146.26 2113.92 1152.28 L2128.55 1152.28 M2121.26 1136.26 Q2126.81 1136.26 2129.98 1141.17 Q2133.15 1146.05 2133.15 1154.71 Q2133.15 1163.35 2129.98 1168.25 Q2126.81 1173.18 2121.26 1173.18 Q2115.68 1173.18 2112.53 1168.25 Q2109.36 1163.35 2109.36 1154.71 Q2109.36 1146.05 2112.53 1141.17 Q2115.68 1136.26 2121.26 1136.26 Z" fill="#000000" fill-rule="nonzero" fill-opacity="1"></path><path clip-path="url(#clip620)" d="M2163.96 1167.72 L2163.96 1158.44 L2156.32 1158.44 L2156.32 1154.6 L2168.59 1154.6 L2168.59 1169.43 Q2165.88 1171.36 2162.62 1172.35 Q2159.36 1173.32 2155.65 1173.32 Q2147.55 1173.32 2142.97 1168.6 Q2138.41 1163.86 2138.41 1155.41 Q2138.41 1146.93 2142.97 1142.21 Q2147.55 1137.47 2155.65 1137.47 Q2159.03 1137.47 2162.07 1138.3 Q2165.12 1139.13 2167.69 1140.75 L2167.69 1145.73 Q2165.1 1143.53 2162.18 1142.42 Q2159.26 1141.31 2156.05 1141.31 Q2149.7 1141.31 2146.51 1144.85 Q2143.34 1148.39 2143.34 1155.41 Q2143.34 1162.4 2146.51 1165.94 Q2149.7 1169.48 2156.05 1169.48 Q2158.52 1169.48 2160.47 1169.06 Q2162.41 1168.62 2163.96 1167.72 Z" fill="#000000" fill-rule="nonzero" fill-opacity="1"></path><path clip-path="url(#clip620)" d="M2170.65 1138.09 L2199.89 1138.09 L2199.89 1142.03 L2187.62 1142.03 L2187.62 1172.65 L2182.92 1172.65 L2182.92 1142.03 L2170.65 1142.03 L2170.65 1138.09 Z" fill="#000000" fill-rule="nonzero" fill-opacity="1"></path><polyline clip-path="url(#clip620)" style="stroke:#ff0000; stroke-linecap:round; stroke-linejoin:round; stroke-width:4; stroke-opacity:1; fill:none" points="1937.97,1207.21 2084.87,1207.21 "></polyline>
<path clip-path="url(#clip620)" d="M2118.96 1225.16 Q2109.36 1225.16 2109.36 1211.41 Q2109.36 1205.97 2112.95 1198.57 L2117.53 1198.57 Q2114.22 1205.97 2114.22 1211.53 Q2114.22 1221.55 2119.36 1221.55 Q2124.06 1221.55 2124.06 1209.1 L2127.99 1209.1 Q2127.99 1221.55 2132.69 1221.55 Q2137.83 1221.55 2137.83 1211.53 Q2137.83 1205.97 2134.52 1198.57 L2139.1 1198.57 Q2142.69 1205.97 2142.69 1211.41 Q2142.69 1225.16 2133.08 1225.16 Q2126.79 1225.16 2126.02 1218.24 Q2125.08 1225.16 2118.96 1225.16 Z" fill="#000000" fill-rule="nonzero" fill-opacity="1"></path><path clip-path="url(#clip620)" d="M2174.15 1219.56 L2174.15 1210.28 L2166.51 1210.28 L2166.51 1206.44 L2178.78 1206.44 L2178.78 1221.27 Q2176.07 1223.2 2172.81 1224.19 Q2169.54 1225.16 2165.84 1225.16 Q2157.74 1225.16 2153.15 1220.44 Q2148.59 1215.7 2148.59 1207.25 Q2148.59 1198.77 2153.15 1194.05 Q2157.74 1189.31 2165.84 1189.31 Q2169.22 1189.31 2172.25 1190.14 Q2175.31 1190.97 2177.88 1192.59 L2177.88 1197.57 Q2175.28 1195.37 2172.37 1194.26 Q2169.45 1193.15 2166.23 1193.15 Q2159.89 1193.15 2156.7 1196.69 Q2153.52 1200.23 2153.52 1207.25 Q2153.52 1214.24 2156.7 1217.78 Q2159.89 1221.32 2166.23 1221.32 Q2168.71 1221.32 2170.65 1220.9 Q2172.6 1220.46 2174.15 1219.56 Z" fill="#000000" fill-rule="nonzero" fill-opacity="1"></path><path clip-path="url(#clip620)" d="M2180.84 1189.93 L2210.07 1189.93 L2210.07 1193.87 L2197.81 1193.87 L2197.81 1224.49 L2193.11 1224.49 L2193.11 1193.87 L2180.84 1193.87 L2180.84 1189.93 Z" fill="#000000" fill-rule="nonzero" fill-opacity="1"></path><polyline clip-path="url(#clip620)" style="stroke:#0000ff; stroke-linecap:round; stroke-linejoin:round; stroke-width:4; stroke-opacity:1; fill:none" points="1937.97,1259.05 2084.87,1259.05 "></polyline>
<path clip-path="url(#clip620)" d="M2128.62 1259.9 L2113.87 1259.9 Q2114.22 1266.82 2115.82 1269.76 Q2117.81 1273.37 2121.26 1273.37 Q2124.73 1273.37 2126.65 1269.73 Q2128.34 1266.54 2128.62 1259.9 M2128.55 1255.96 Q2127.9 1249.39 2126.65 1247.07 Q2124.66 1243.42 2121.26 1243.42 Q2117.71 1243.42 2115.84 1247.03 Q2114.36 1249.94 2113.92 1255.96 L2128.55 1255.96 M2121.26 1239.94 Q2126.81 1239.94 2129.98 1244.85 Q2133.15 1249.73 2133.15 1258.39 Q2133.15 1267.03 2129.98 1271.93 Q2126.81 1276.86 2121.26 1276.86 Q2115.68 1276.86 2112.53 1271.93 Q2109.36 1267.03 2109.36 1258.39 Q2109.36 1249.73 2112.53 1244.85 Q2115.68 1239.94 2121.26 1239.94 Z" fill="#000000" fill-rule="nonzero" fill-opacity="1"></path><path clip-path="url(#clip620)" d="M2145.07 1245.61 L2145.07 1258.6 L2150.95 1258.6 Q2154.22 1258.6 2156 1256.91 Q2157.78 1255.22 2157.78 1252.1 Q2157.78 1248.99 2156 1247.3 Q2154.22 1245.61 2150.95 1245.61 L2145.07 1245.61 M2140.4 1241.77 L2150.95 1241.77 Q2156.76 1241.77 2159.73 1244.41 Q2162.71 1247.03 2162.71 1252.1 Q2162.71 1257.21 2159.73 1259.83 Q2156.76 1262.44 2150.95 1262.44 L2145.07 1262.44 L2145.07 1276.33 L2140.4 1276.33 L2140.4 1241.77 Z" fill="#000000" fill-rule="nonzero" fill-opacity="1"></path><path clip-path="url(#clip620)" d="M2182.99 1254.39 Q2182.27 1253.97 2181.42 1253.79 Q2180.58 1253.58 2179.57 1253.58 Q2175.95 1253.58 2174.01 1255.94 Q2172.09 1258.28 2172.09 1262.67 L2172.09 1276.33 L2167.81 1276.33 L2167.81 1250.41 L2172.09 1250.41 L2172.09 1254.43 Q2173.43 1252.07 2175.58 1250.94 Q2177.74 1249.78 2180.82 1249.78 Q2181.26 1249.78 2181.79 1249.85 Q2182.32 1249.9 2182.97 1250.01 L2182.99 1254.39 Z" fill="#000000" fill-rule="nonzero" fill-opacity="1"></path><path clip-path="url(#clip620)" d="M2208.59 1262.3 L2208.59 1264.39 L2189.01 1264.39 Q2189.29 1268.79 2191.65 1271.1 Q2194.03 1273.39 2198.27 1273.39 Q2200.72 1273.39 2203.01 1272.79 Q2205.33 1272.19 2207.6 1270.98 L2207.6 1275.01 Q2205.31 1275.98 2202.9 1276.49 Q2200.49 1277 2198.01 1277 Q2191.81 1277 2188.18 1273.39 Q2184.57 1269.78 2184.57 1263.62 Q2184.57 1257.26 2187.99 1253.53 Q2191.44 1249.78 2197.27 1249.78 Q2202.51 1249.78 2205.54 1253.16 Q2208.59 1256.52 2208.59 1262.3 M2204.33 1261.05 Q2204.29 1257.56 2202.37 1255.48 Q2200.47 1253.39 2197.32 1253.39 Q2193.76 1253.39 2191.6 1255.41 Q2189.47 1257.42 2189.15 1261.08 L2204.33 1261.05 Z" fill="#000000" fill-rule="nonzero" fill-opacity="1"></path><path clip-path="url(#clip620)" d="M2232.64 1254.34 L2232.64 1240.31 L2236.9 1240.31 L2236.9 1276.33 L2232.64 1276.33 L2232.64 1272.44 Q2231.3 1274.76 2229.24 1275.89 Q2227.2 1277 2224.33 1277 Q2219.63 1277 2216.67 1273.25 Q2213.73 1269.5 2213.73 1263.39 Q2213.73 1257.28 2216.67 1253.53 Q2219.63 1249.78 2224.33 1249.78 Q2227.2 1249.78 2229.24 1250.92 Q2231.3 1252.03 2232.64 1254.34 M2218.13 1263.39 Q2218.13 1268.09 2220.05 1270.78 Q2222 1273.44 2225.38 1273.44 Q2228.76 1273.44 2230.7 1270.78 Q2232.64 1268.09 2232.64 1263.39 Q2232.64 1258.69 2230.7 1256.03 Q2228.76 1253.35 2225.38 1253.35 Q2222 1253.35 2220.05 1256.03 Q2218.13 1258.69 2218.13 1263.39 Z" fill="#000000" fill-rule="nonzero" fill-opacity="1"></path><polyline clip-path="url(#clip620)" style="stroke:#ffa500; stroke-linecap:round; stroke-linejoin:round; stroke-width:4; stroke-opacity:1; fill:none" points="1937.97,1310.89 2084.87,1310.89 "></polyline>
<path clip-path="url(#clip620)" d="M2118.96 1328.84 Q2109.36 1328.84 2109.36 1315.09 Q2109.36 1309.65 2112.95 1302.25 L2117.53 1302.25 Q2114.22 1309.65 2114.22 1315.21 Q2114.22 1325.23 2119.36 1325.23 Q2124.06 1325.23 2124.06 1312.78 L2127.99 1312.78 Q2127.99 1325.23 2132.69 1325.23 Q2137.83 1325.23 2137.83 1315.21 Q2137.83 1309.65 2134.52 1302.25 L2139.1 1302.25 Q2142.69 1309.65 2142.69 1315.09 Q2142.69 1328.84 2133.08 1328.84 Q2126.79 1328.84 2126.02 1321.92 Q2125.08 1328.84 2118.96 1328.84 Z" fill="#000000" fill-rule="nonzero" fill-opacity="1"></path><path clip-path="url(#clip620)" d="M2155.26 1297.45 L2155.26 1310.44 L2161.14 1310.44 Q2164.4 1310.44 2166.19 1308.75 Q2167.97 1307.06 2167.97 1303.94 Q2167.97 1300.83 2166.19 1299.14 Q2164.4 1297.45 2161.14 1297.45 L2155.26 1297.45 M2150.58 1293.61 L2161.14 1293.61 Q2166.95 1293.61 2169.91 1296.25 Q2172.9 1298.87 2172.9 1303.94 Q2172.9 1309.05 2169.91 1311.67 Q2166.95 1314.28 2161.14 1314.28 L2155.26 1314.28 L2155.26 1328.17 L2150.58 1328.17 L2150.58 1293.61 Z" fill="#000000" fill-rule="nonzero" fill-opacity="1"></path><path clip-path="url(#clip620)" d="M2193.18 1306.23 Q2192.46 1305.81 2191.6 1305.63 Q2190.77 1305.42 2189.75 1305.42 Q2186.14 1305.42 2184.2 1307.78 Q2182.27 1310.12 2182.27 1314.51 L2182.27 1328.17 L2177.99 1328.17 L2177.99 1302.25 L2182.27 1302.25 L2182.27 1306.27 Q2183.62 1303.91 2185.77 1302.78 Q2187.92 1301.62 2191 1301.62 Q2191.44 1301.62 2191.97 1301.69 Q2192.51 1301.74 2193.15 1301.85 L2193.18 1306.23 Z" fill="#000000" fill-rule="nonzero" fill-opacity="1"></path><path clip-path="url(#clip620)" d="M2218.78 1314.14 L2218.78 1316.23 L2199.19 1316.23 Q2199.47 1320.63 2201.83 1322.94 Q2204.22 1325.23 2208.45 1325.23 Q2210.91 1325.23 2213.2 1324.63 Q2215.51 1324.03 2217.78 1322.82 L2217.78 1326.85 Q2215.49 1327.82 2213.08 1328.33 Q2210.68 1328.84 2208.2 1328.84 Q2202 1328.84 2198.36 1325.23 Q2194.75 1321.62 2194.75 1315.46 Q2194.75 1309.1 2198.18 1305.37 Q2201.63 1301.62 2207.46 1301.62 Q2212.69 1301.62 2215.72 1305 Q2218.78 1308.36 2218.78 1314.14 M2214.52 1312.89 Q2214.47 1309.4 2212.55 1307.32 Q2210.65 1305.23 2207.51 1305.23 Q2203.94 1305.23 2201.79 1307.25 Q2199.66 1309.26 2199.33 1312.92 L2214.52 1312.89 Z" fill="#000000" fill-rule="nonzero" fill-opacity="1"></path><path clip-path="url(#clip620)" d="M2242.83 1306.18 L2242.83 1292.15 L2247.09 1292.15 L2247.09 1328.17 L2242.83 1328.17 L2242.83 1324.28 Q2241.49 1326.6 2239.43 1327.73 Q2237.39 1328.84 2234.52 1328.84 Q2229.82 1328.84 2226.86 1325.09 Q2223.92 1321.34 2223.92 1315.23 Q2223.92 1309.12 2226.86 1305.37 Q2229.82 1301.62 2234.52 1301.62 Q2237.39 1301.62 2239.43 1302.76 Q2241.49 1303.87 2242.83 1306.18 M2228.32 1315.23 Q2228.32 1319.93 2230.24 1322.62 Q2232.18 1325.28 2235.56 1325.28 Q2238.94 1325.28 2240.88 1322.62 Q2242.83 1319.93 2242.83 1315.23 Q2242.83 1310.53 2240.88 1307.87 Q2238.94 1305.19 2235.56 1305.19 Q2232.18 1305.19 2230.24 1307.87 Q2228.32 1310.53 2228.32 1315.23 Z" fill="#000000" fill-rule="nonzero" fill-opacity="1"></path><circle clip-path="url(#clip620)" cx="2011.42" cy="1362.73" r="20.48" fill="#800080" fill-rule="evenodd" fill-opacity="1" stroke="#000000" stroke-opacity="1" stroke-width="4.55111"></circle>
<path clip-path="url(#clip620)" d="M2128.62 1363.58 L2113.87 1363.58 Q2114.22 1370.5 2115.82 1373.44 Q2117.81 1377.05 2121.26 1377.05 Q2124.73 1377.05 2126.65 1373.41 Q2128.34 1370.22 2128.62 1363.58 M2128.55 1359.64 Q2127.9 1353.07 2126.65 1350.75 Q2124.66 1347.1 2121.26 1347.1 Q2117.71 1347.1 2115.84 1350.71 Q2114.36 1353.62 2113.92 1359.64 L2128.55 1359.64 M2121.26 1343.62 Q2126.81 1343.62 2129.98 1348.53 Q2133.15 1353.41 2133.15 1362.07 Q2133.15 1370.71 2129.98 1375.61 Q2126.81 1380.54 2121.26 1380.54 Q2115.68 1380.54 2112.53 1375.61 Q2109.36 1370.71 2109.36 1362.07 Q2109.36 1353.41 2112.53 1348.53 Q2115.68 1343.62 2121.26 1343.62 Z" fill="#000000" fill-rule="nonzero" fill-opacity="1"></path><path clip-path="url(#clip620)" d="M2145.07 1349.29 L2145.07 1376.17 L2150.72 1376.17 Q2157.88 1376.17 2161.19 1372.93 Q2164.52 1369.69 2164.52 1362.7 Q2164.52 1355.75 2161.19 1352.53 Q2157.88 1349.29 2150.72 1349.29 L2145.07 1349.29 M2140.4 1345.45 L2150.01 1345.45 Q2160.05 1345.45 2164.75 1349.64 Q2169.45 1353.81 2169.45 1362.7 Q2169.45 1371.63 2164.73 1375.82 Q2160.01 1380.01 2150.01 1380.01 L2140.4 1380.01 L2140.4 1345.45 Z" fill="#000000" fill-rule="nonzero" fill-opacity="1"></path><path clip-path="url(#clip620)" d="M2188.5 1366.98 Q2183.34 1366.98 2181.35 1368.16 Q2179.36 1369.34 2179.36 1372.19 Q2179.36 1374.46 2180.84 1375.8 Q2182.34 1377.12 2184.91 1377.12 Q2188.45 1377.12 2190.58 1374.62 Q2192.74 1372.09 2192.74 1367.93 L2192.74 1366.98 L2188.5 1366.98 M2197 1365.22 L2197 1380.01 L2192.74 1380.01 L2192.74 1376.08 Q2191.28 1378.44 2189.1 1379.57 Q2186.93 1380.68 2183.78 1380.68 Q2179.8 1380.68 2177.44 1378.46 Q2175.1 1376.22 2175.1 1372.47 Q2175.1 1368.09 2178.01 1365.87 Q2180.95 1363.65 2186.76 1363.65 L2192.74 1363.65 L2192.74 1363.23 Q2192.74 1360.29 2190.79 1358.69 Q2188.87 1357.07 2185.38 1357.07 Q2183.15 1357.07 2181.05 1357.6 Q2178.94 1358.14 2177 1359.2 L2177 1355.27 Q2179.33 1354.36 2181.53 1353.92 Q2183.73 1353.46 2185.82 1353.46 Q2191.44 1353.46 2194.22 1356.38 Q2197 1359.29 2197 1365.22 Z" fill="#000000" fill-rule="nonzero" fill-opacity="1"></path><path clip-path="url(#clip620)" d="M2209.98 1346.72 L2209.98 1354.09 L2218.76 1354.09 L2218.76 1357.4 L2209.98 1357.4 L2209.98 1371.47 Q2209.98 1374.64 2210.84 1375.54 Q2211.72 1376.45 2214.38 1376.45 L2218.76 1376.45 L2218.76 1380.01 L2214.38 1380.01 Q2209.45 1380.01 2207.57 1378.18 Q2205.7 1376.33 2205.7 1371.47 L2205.7 1357.4 L2202.57 1357.4 L2202.57 1354.09 L2205.7 1354.09 L2205.7 1346.72 L2209.98 1346.72 Z" fill="#000000" fill-rule="nonzero" fill-opacity="1"></path><path clip-path="url(#clip620)" d="M2236.14 1366.98 Q2230.98 1366.98 2228.99 1368.16 Q2227 1369.34 2227 1372.19 Q2227 1374.46 2228.48 1375.8 Q2229.98 1377.12 2232.55 1377.12 Q2236.09 1377.12 2238.22 1374.62 Q2240.38 1372.09 2240.38 1367.93 L2240.38 1366.98 L2236.14 1366.98 M2244.63 1365.22 L2244.63 1380.01 L2240.38 1380.01 L2240.38 1376.08 Q2238.92 1378.44 2236.74 1379.57 Q2234.57 1380.68 2231.42 1380.68 Q2227.44 1380.68 2225.07 1378.46 Q2222.74 1376.22 2222.74 1372.47 Q2222.74 1368.09 2225.65 1365.87 Q2228.59 1363.65 2234.4 1363.65 L2240.38 1363.65 L2240.38 1363.23 Q2240.38 1360.29 2238.43 1358.69 Q2236.51 1357.07 2233.01 1357.07 Q2230.79 1357.07 2228.69 1357.6 Q2226.58 1358.14 2224.63 1359.2 L2224.63 1355.27 Q2226.97 1354.36 2229.17 1353.92 Q2231.37 1353.46 2233.45 1353.46 Q2239.08 1353.46 2241.86 1356.38 Q2244.63 1359.29 2244.63 1365.22 Z" fill="#000000" fill-rule="nonzero" fill-opacity="1"></path><circle clip-path="url(#clip620)" cx="2011.42" cy="1414.57" r="20.48" fill="#ffff00" fill-rule="evenodd" fill-opacity="1" stroke="#000000" stroke-opacity="1" stroke-width="4.55111"></circle>
<path clip-path="url(#clip620)" d="M2118.96 1432.52 Q2109.36 1432.52 2109.36 1418.77 Q2109.36 1413.33 2112.95 1405.93 L2117.53 1405.93 Q2114.22 1413.33 2114.22 1418.89 Q2114.22 1428.91 2119.36 1428.91 Q2124.06 1428.91 2124.06 1416.46 L2127.99 1416.46 Q2127.99 1428.91 2132.69 1428.91 Q2137.83 1428.91 2137.83 1418.89 Q2137.83 1413.33 2134.52 1405.93 L2139.1 1405.93 Q2142.69 1413.33 2142.69 1418.77 Q2142.69 1432.52 2133.08 1432.52 Q2126.79 1432.52 2126.02 1425.6 Q2125.08 1432.52 2118.96 1432.52 Z" fill="#000000" fill-rule="nonzero" fill-opacity="1"></path><path clip-path="url(#clip620)" d="M2155.26 1401.13 L2155.26 1428.01 L2160.91 1428.01 Q2168.06 1428.01 2171.37 1424.77 Q2174.7 1421.53 2174.7 1414.54 Q2174.7 1407.59 2171.37 1404.37 Q2168.06 1401.13 2160.91 1401.13 L2155.26 1401.13 M2150.58 1397.29 L2160.19 1397.29 Q2170.24 1397.29 2174.94 1401.48 Q2179.63 1405.65 2179.63 1414.54 Q2179.63 1423.47 2174.91 1427.66 Q2170.19 1431.85 2160.19 1431.85 L2150.58 1431.85 L2150.58 1397.29 Z" fill="#000000" fill-rule="nonzero" fill-opacity="1"></path><path clip-path="url(#clip620)" d="M2198.69 1418.82 Q2193.52 1418.82 2191.53 1420 Q2189.54 1421.18 2189.54 1424.03 Q2189.54 1426.3 2191.02 1427.64 Q2192.53 1428.96 2195.1 1428.96 Q2198.64 1428.96 2200.77 1426.46 Q2202.92 1423.93 2202.92 1419.77 L2202.92 1418.82 L2198.69 1418.82 M2207.18 1417.06 L2207.18 1431.85 L2202.92 1431.85 L2202.92 1427.92 Q2201.46 1430.28 2199.29 1431.41 Q2197.11 1432.52 2193.96 1432.52 Q2189.98 1432.52 2187.62 1430.3 Q2185.28 1428.06 2185.28 1424.31 Q2185.28 1419.93 2188.2 1417.71 Q2191.14 1415.49 2196.95 1415.49 L2202.92 1415.49 L2202.92 1415.07 Q2202.92 1412.13 2200.98 1410.53 Q2199.06 1408.91 2195.56 1408.91 Q2193.34 1408.91 2191.23 1409.44 Q2189.13 1409.98 2187.18 1411.04 L2187.18 1407.11 Q2189.52 1406.2 2191.72 1405.76 Q2193.92 1405.3 2196 1405.3 Q2201.63 1405.3 2204.4 1408.22 Q2207.18 1411.13 2207.18 1417.06 Z" fill="#000000" fill-rule="nonzero" fill-opacity="1"></path><path clip-path="url(#clip620)" d="M2220.17 1398.56 L2220.17 1405.93 L2228.94 1405.93 L2228.94 1409.24 L2220.17 1409.24 L2220.17 1423.31 Q2220.17 1426.48 2221.02 1427.38 Q2221.9 1428.29 2224.57 1428.29 L2228.94 1428.29 L2228.94 1431.85 L2224.57 1431.85 Q2219.63 1431.85 2217.76 1430.02 Q2215.88 1428.17 2215.88 1423.31 L2215.88 1409.24 L2212.76 1409.24 L2212.76 1405.93 L2215.88 1405.93 L2215.88 1398.56 L2220.17 1398.56 Z" fill="#000000" fill-rule="nonzero" fill-opacity="1"></path><path clip-path="url(#clip620)" d="M2246.32 1418.82 Q2241.16 1418.82 2239.17 1420 Q2237.18 1421.18 2237.18 1424.03 Q2237.18 1426.3 2238.66 1427.64 Q2240.17 1428.96 2242.74 1428.96 Q2246.28 1428.96 2248.41 1426.46 Q2250.56 1423.93 2250.56 1419.77 L2250.56 1418.82 L2246.32 1418.82 M2254.82 1417.06 L2254.82 1431.85 L2250.56 1431.85 L2250.56 1427.92 Q2249.1 1430.28 2246.93 1431.41 Q2244.75 1432.52 2241.6 1432.52 Q2237.62 1432.52 2235.26 1430.3 Q2232.92 1428.06 2232.92 1424.31 Q2232.92 1419.93 2235.84 1417.71 Q2238.78 1415.49 2244.59 1415.49 L2250.56 1415.49 L2250.56 1415.07 Q2250.56 1412.13 2248.62 1410.53 Q2246.69 1408.91 2243.2 1408.91 Q2240.98 1408.91 2238.87 1409.44 Q2236.76 1409.98 2234.82 1411.04 L2234.82 1407.11 Q2237.16 1406.2 2239.36 1405.76 Q2241.56 1405.3 2243.64 1405.3 Q2249.26 1405.3 2252.04 1408.22 Q2254.82 1411.13 2254.82 1417.06 Z" fill="#000000" fill-rule="nonzero" fill-opacity="1"></path></svg>