<svg xmlns="http://www.w3.org/2000/svg" xmlns:xlink="http://www.w3.org/1999/xlink" width="600" height="400" viewBox="0 0 2400 1600">
<defs>
  <clipPath id="clip820">
    <rect x="0" y="0" width="2400" height="1600"></rect>
  </clipPath>
</defs>
<path clip-path="url(#clip820)" d="M0 1600 L2400 1600 L2400 0 L0 0  Z" fill="#ffffff" fill-rule="evenodd" fill-opacity="1"></path>
<defs>
  <clipPath id="clip821">
    <rect x="480" y="0" width="1681" height="1600"></rect>
  </clipPath>
</defs>
<path clip-path="url(#clip820)" d="M149.191 724.562 L2352.76 724.562 L2352.76 123.472 L149.191 123.472  Z" fill="#ffffff" fill-rule="evenodd" fill-opacity="1"></path>
<defs>
  <clipPath id="clip822">
    <rect x="149" y="123" width="2205" height="602"></rect>
  </clipPath>
</defs>
<polyline clip-path="url(#clip822)" style="stroke:#000000; stroke-linecap:round; stroke-linejoin:round; stroke-width:2; stroke-opacity:0.1; fill:none" points="211.556,724.562 211.556,123.472 "></polyline>
<polyline clip-path="url(#clip822)" style="stroke:#000000; stroke-linecap:round; stroke-linejoin:round; stroke-width:2; stroke-opacity:0.1; fill:none" points="731.265,724.562 731.265,123.472 "></polyline>
<polyline clip-path="url(#clip822)" style="stroke:#000000; stroke-linecap:round; stroke-linejoin:round; stroke-width:2; stroke-opacity:0.1; fill:none" points="1250.97,724.562 1250.97,123.472 "></polyline>
<polyline clip-path="url(#clip822)" style="stroke:#000000; stroke-linecap:round; stroke-linejoin:round; stroke-width:2; stroke-opacity:0.1; fill:none" points="1770.68,724.562 1770.68,123.472 "></polyline>
<polyline clip-path="url(#clip822)" style="stroke:#000000; stroke-linecap:round; stroke-linejoin:round; stroke-width:2; stroke-opacity:0.1; fill:none" points="2290.39,724.562 2290.39,123.472 "></polyline>
<polyline clip-path="url(#clip820)" style="stroke:#000000; stroke-linecap:round; stroke-linejoin:round; stroke-width:4; stroke-opacity:1; fill:none" points="149.191,724.562 2352.76,724.562 "></polyline>
<polyline clip-path="url(#clip820)" style="stroke:#000000; stroke-linecap:round; stroke-linejoin:round; stroke-width:4; stroke-opacity:1; fill:none" points="211.556,724.562 211.556,705.664 "></polyline>
<polyline clip-path="url(#clip820)" style="stroke:#000000; stroke-linecap:round; stroke-linejoin:round; stroke-width:4; stroke-opacity:1; fill:none" points="731.265,724.562 731.265,705.664 "></polyline>
<polyline clip-path="url(#clip820)" style="stroke:#000000; stroke-linecap:round; stroke-linejoin:round; stroke-width:4; stroke-opacity:1; fill:none" points="1250.97,724.562 1250.97,705.664 "></polyline>
<polyline clip-path="url(#clip820)" style="stroke:#000000; stroke-linecap:round; stroke-linejoin:round; stroke-width:4; stroke-opacity:1; fill:none" points="1770.68,724.562 1770.68,705.664 "></polyline>
<polyline clip-path="url(#clip820)" style="stroke:#000000; stroke-linecap:round; stroke-linejoin:round; stroke-width:4; stroke-opacity:1; fill:none" points="2290.39,724.562 2290.39,705.664 "></polyline>
<path clip-path="url(#clip820)" d="M173.859 755.481 Q170.248 755.481 168.42 759.045 Q166.614 762.587 166.614 769.717 Q166.614 776.823 168.42 780.388 Q170.248 783.929 173.859 783.929 Q177.494 783.929 179.299 780.388 Q181.128 776.823 181.128 769.717 Q181.128 762.587 179.299 759.045 Q177.494 755.481 173.859 755.481 M173.859 751.777 Q179.67 751.777 182.725 756.383 Q185.804 760.967 185.804 769.717 Q185.804 778.443 182.725 783.05 Q179.67 787.633 173.859 787.633 Q168.049 787.633 164.971 783.05 Q161.915 778.443 161.915 769.717 Q161.915 760.967 164.971 756.383 Q168.049 751.777 173.859 751.777 Z" fill="#000000" fill-rule="nonzero" fill-opacity="1"></path><path clip-path="url(#clip820)" d="M194.021 781.082 L198.906 781.082 L198.906 786.962 L194.021 786.962 L194.021 781.082 Z" fill="#000000" fill-rule="nonzero" fill-opacity="1"></path><path clip-path="url(#clip820)" d="M219.091 755.481 Q215.48 755.481 213.651 759.045 Q211.845 762.587 211.845 769.717 Q211.845 776.823 213.651 780.388 Q215.48 783.929 219.091 783.929 Q222.725 783.929 224.53 780.388 Q226.359 776.823 226.359 769.717 Q226.359 762.587 224.53 759.045 Q222.725 755.481 219.091 755.481 M219.091 751.777 Q224.901 751.777 227.956 756.383 Q231.035 760.967 231.035 769.717 Q231.035 778.443 227.956 783.05 Q224.901 787.633 219.091 787.633 Q213.28 787.633 210.202 783.05 Q207.146 778.443 207.146 769.717 Q207.146 760.967 210.202 756.383 Q213.28 751.777 219.091 751.777 Z" fill="#000000" fill-rule="nonzero" fill-opacity="1"></path><path clip-path="url(#clip820)" d="M249.252 755.481 Q245.641 755.481 243.813 759.045 Q242.007 762.587 242.007 769.717 Q242.007 776.823 243.813 780.388 Q245.641 783.929 249.252 783.929 Q252.887 783.929 254.692 780.388 Q256.521 776.823 256.521 769.717 Q256.521 762.587 254.692 759.045 Q252.887 755.481 249.252 755.481 M249.252 751.777 Q255.063 751.777 258.118 756.383 Q261.197 760.967 261.197 769.717 Q261.197 778.443 258.118 783.05 Q255.063 787.633 249.252 787.633 Q243.442 787.633 240.364 783.05 Q237.308 778.443 237.308 769.717 Q237.308 760.967 240.364 756.383 Q243.442 751.777 249.252 751.777 Z" fill="#000000" fill-rule="nonzero" fill-opacity="1"></path><path clip-path="url(#clip820)" d="M694.066 755.481 Q690.455 755.481 688.626 759.045 Q686.82 762.587 686.82 769.717 Q686.82 776.823 688.626 780.388 Q690.455 783.929 694.066 783.929 Q697.7 783.929 699.506 780.388 Q701.334 776.823 701.334 769.717 Q701.334 762.587 699.506 759.045 Q697.7 755.481 694.066 755.481 M694.066 751.777 Q699.876 751.777 702.931 756.383 Q706.01 760.967 706.01 769.717 Q706.01 778.443 702.931 783.05 Q699.876 787.633 694.066 787.633 Q688.256 787.633 685.177 783.05 Q682.121 778.443 682.121 769.717 Q682.121 760.967 685.177 756.383 Q688.256 751.777 694.066 751.777 Z" fill="#000000" fill-rule="nonzero" fill-opacity="1"></path><path clip-path="url(#clip820)" d="M714.228 781.082 L719.112 781.082 L719.112 786.962 L714.228 786.962 L714.228 781.082 Z" fill="#000000" fill-rule="nonzero" fill-opacity="1"></path><path clip-path="url(#clip820)" d="M733.325 783.027 L749.644 783.027 L749.644 786.962 L727.7 786.962 L727.7 783.027 Q730.362 780.272 734.945 775.643 Q739.552 770.99 740.732 769.647 Q742.978 767.124 743.857 765.388 Q744.76 763.629 744.76 761.939 Q744.76 759.184 742.816 757.448 Q740.894 755.712 737.792 755.712 Q735.593 755.712 733.14 756.476 Q730.709 757.24 727.931 758.791 L727.931 754.069 Q730.755 752.934 733.209 752.356 Q735.663 751.777 737.7 751.777 Q743.07 751.777 746.265 754.462 Q749.459 757.147 749.459 761.638 Q749.459 763.768 748.649 765.689 Q747.862 767.587 745.755 770.18 Q745.177 770.851 742.075 774.068 Q738.973 777.263 733.325 783.027 Z" fill="#000000" fill-rule="nonzero" fill-opacity="1"></path><path clip-path="url(#clip820)" d="M759.505 752.402 L777.862 752.402 L777.862 756.337 L763.788 756.337 L763.788 764.809 Q764.806 764.462 765.825 764.3 Q766.843 764.115 767.862 764.115 Q773.649 764.115 777.028 767.286 Q780.408 770.457 780.408 775.874 Q780.408 781.453 776.936 784.554 Q773.463 787.633 767.144 787.633 Q764.968 787.633 762.7 787.263 Q760.454 786.892 758.047 786.152 L758.047 781.453 Q760.13 782.587 762.352 783.142 Q764.575 783.698 767.051 783.698 Q771.056 783.698 773.394 781.592 Q775.732 779.485 775.732 775.874 Q775.732 772.263 773.394 770.156 Q771.056 768.05 767.051 768.05 Q765.177 768.05 763.302 768.467 Q761.45 768.883 759.505 769.763 L759.505 752.402 Z" fill="#000000" fill-rule="nonzero" fill-opacity="1"></path><path clip-path="url(#clip820)" d="M1213.28 755.481 Q1209.67 755.481 1207.84 759.045 Q1206.03 762.587 1206.03 769.717 Q1206.03 776.823 1207.84 780.388 Q1209.67 783.929 1213.28 783.929 Q1216.91 783.929 1218.72 780.388 Q1220.55 776.823 1220.55 769.717 Q1220.55 762.587 1218.72 759.045 Q1216.91 755.481 1213.28 755.481 M1213.28 751.777 Q1219.09 751.777 1222.14 756.383 Q1225.22 760.967 1225.22 769.717 Q1225.22 778.443 1222.14 783.05 Q1219.09 787.633 1213.28 787.633 Q1207.47 787.633 1204.39 783.05 Q1201.33 778.443 1201.33 769.717 Q1201.33 760.967 1204.39 756.383 Q1207.47 751.777 1213.28 751.777 Z" fill="#000000" fill-rule="nonzero" fill-opacity="1"></path><path clip-path="url(#clip820)" d="M1233.44 781.082 L1238.32 781.082 L1238.32 786.962 L1233.44 786.962 L1233.44 781.082 Z" fill="#000000" fill-rule="nonzero" fill-opacity="1"></path><path clip-path="url(#clip820)" d="M1248.55 752.402 L1266.91 752.402 L1266.91 756.337 L1252.84 756.337 L1252.84 764.809 Q1253.86 764.462 1254.87 764.3 Q1255.89 764.115 1256.91 764.115 Q1262.7 764.115 1266.08 767.286 Q1269.46 770.457 1269.46 775.874 Q1269.46 781.453 1265.98 784.554 Q1262.51 787.633 1256.19 787.633 Q1254.02 787.633 1251.75 787.263 Q1249.5 786.892 1247.1 786.152 L1247.1 781.453 Q1249.18 782.587 1251.4 783.142 Q1253.62 783.698 1256.1 783.698 Q1260.11 783.698 1262.44 781.592 Q1264.78 779.485 1264.78 775.874 Q1264.78 772.263 1262.44 770.156 Q1260.11 768.05 1256.1 768.05 Q1254.23 768.05 1252.35 768.467 Q1250.5 768.883 1248.55 769.763 L1248.55 752.402 Z" fill="#000000" fill-rule="nonzero" fill-opacity="1"></path><path clip-path="url(#clip820)" d="M1288.67 755.481 Q1285.06 755.481 1283.23 759.045 Q1281.42 762.587 1281.42 769.717 Q1281.42 776.823 1283.23 780.388 Q1285.06 783.929 1288.67 783.929 Q1292.3 783.929 1294.11 780.388 Q1295.94 776.823 1295.94 769.717 Q1295.94 762.587 1294.11 759.045 Q1292.3 755.481 1288.67 755.481 M1288.67 751.777 Q1294.48 751.777 1297.54 756.383 Q1300.61 760.967 1300.61 769.717 Q1300.61 778.443 1297.54 783.05 Q1294.48 787.633 1288.67 787.633 Q1282.86 787.633 1279.78 783.05 Q1276.73 778.443 1276.73 769.717 Q1276.73 760.967 1279.78 756.383 Q1282.86 751.777 1288.67 751.777 Z" fill="#000000" fill-rule="nonzero" fill-opacity="1"></path><path clip-path="url(#clip820)" d="M1733.48 755.481 Q1729.87 755.481 1728.04 759.045 Q1726.24 762.587 1726.24 769.717 Q1726.24 776.823 1728.04 780.388 Q1729.87 783.929 1733.48 783.929 Q1737.12 783.929 1738.92 780.388 Q1740.75 776.823 1740.75 769.717 Q1740.75 762.587 1738.92 759.045 Q1737.12 755.481 1733.48 755.481 M1733.48 751.777 Q1739.29 751.777 1742.35 756.383 Q1745.43 760.967 1745.43 769.717 Q1745.43 778.443 1742.35 783.05 Q1739.29 787.633 1733.48 787.633 Q1727.67 787.633 1724.59 783.05 Q1721.54 778.443 1721.54 769.717 Q1721.54 760.967 1724.59 756.383 Q1727.67 751.777 1733.48 751.777 Z" fill="#000000" fill-rule="nonzero" fill-opacity="1"></path><path clip-path="url(#clip820)" d="M1753.65 781.082 L1758.53 781.082 L1758.53 786.962 L1753.65 786.962 L1753.65 781.082 Z" fill="#000000" fill-rule="nonzero" fill-opacity="1"></path><path clip-path="url(#clip820)" d="M1767.53 752.402 L1789.76 752.402 L1789.76 754.393 L1777.21 786.962 L1772.33 786.962 L1784.13 756.337 L1767.53 756.337 L1767.53 752.402 Z" fill="#000000" fill-rule="nonzero" fill-opacity="1"></path><path clip-path="url(#clip820)" d="M1798.92 752.402 L1817.28 752.402 L1817.28 756.337 L1803.21 756.337 L1803.21 764.809 Q1804.22 764.462 1805.24 764.3 Q1806.26 764.115 1807.28 764.115 Q1813.07 764.115 1816.45 767.286 Q1819.83 770.457 1819.83 775.874 Q1819.83 781.453 1816.35 784.554 Q1812.88 787.633 1806.56 787.633 Q1804.39 787.633 1802.12 787.263 Q1799.87 786.892 1797.46 786.152 L1797.46 781.453 Q1799.55 782.587 1801.77 783.142 Q1803.99 783.698 1806.47 783.698 Q1810.47 783.698 1812.81 781.592 Q1815.15 779.485 1815.15 775.874 Q1815.15 772.263 1812.81 770.156 Q1810.47 768.05 1806.47 768.05 Q1804.59 768.05 1802.72 768.467 Q1800.87 768.883 1798.92 769.763 L1798.92 752.402 Z" fill="#000000" fill-rule="nonzero" fill-opacity="1"></path><path clip-path="url(#clip820)" d="M2242.46 783.027 L2250.1 783.027 L2250.1 756.661 L2241.79 758.328 L2241.79 754.069 L2250.06 752.402 L2254.73 752.402 L2254.73 783.027 L2262.37 783.027 L2262.37 786.962 L2242.46 786.962 L2242.46 783.027 Z" fill="#000000" fill-rule="nonzero" fill-opacity="1"></path><path clip-path="url(#clip820)" d="M2271.81 781.082 L2276.7 781.082 L2276.7 786.962 L2271.81 786.962 L2271.81 781.082 Z" fill="#000000" fill-rule="nonzero" fill-opacity="1"></path><path clip-path="url(#clip820)" d="M2296.88 755.481 Q2293.27 755.481 2291.44 759.045 Q2289.64 762.587 2289.64 769.717 Q2289.64 776.823 2291.44 780.388 Q2293.27 783.929 2296.88 783.929 Q2300.52 783.929 2302.32 780.388 Q2304.15 776.823 2304.15 769.717 Q2304.15 762.587 2302.32 759.045 Q2300.52 755.481 2296.88 755.481 M2296.88 751.777 Q2302.69 751.777 2305.75 756.383 Q2308.83 760.967 2308.83 769.717 Q2308.83 778.443 2305.75 783.05 Q2302.69 787.633 2296.88 787.633 Q2291.07 787.633 2288 783.05 Q2284.94 778.443 2284.94 769.717 Q2284.94 760.967 2288 756.383 Q2291.07 751.777 2296.88 751.777 Z" fill="#000000" fill-rule="nonzero" fill-opacity="1"></path><path clip-path="url(#clip820)" d="M2327.05 755.481 Q2323.43 755.481 2321.61 759.045 Q2319.8 762.587 2319.8 769.717 Q2319.8 776.823 2321.61 780.388 Q2323.43 783.929 2327.05 783.929 Q2330.68 783.929 2332.49 780.388 Q2334.31 776.823 2334.31 769.717 Q2334.31 762.587 2332.49 759.045 Q2330.68 755.481 2327.05 755.481 M2327.05 751.777 Q2332.86 751.777 2335.91 756.383 Q2338.99 760.967 2338.99 769.717 Q2338.99 778.443 2335.91 783.05 Q2332.86 787.633 2327.05 787.633 Q2321.24 787.633 2318.16 783.05 Q2315.1 778.443 2315.1 769.717 Q2315.1 760.967 2318.16 756.383 Q2321.24 751.777 2327.05 751.777 Z" fill="#000000" fill-rule="nonzero" fill-opacity="1"></path><polyline clip-path="url(#clip822)" style="stroke:#000000; stroke-linecap:round; stroke-linejoin:round; stroke-width:2; stroke-opacity:0.1; fill:none" points="149.191,646.847 2352.76,646.847 "></polyline>
<polyline clip-path="url(#clip822)" style="stroke:#000000; stroke-linecap:round; stroke-linejoin:round; stroke-width:2; stroke-opacity:0.1; fill:none" points="149.191,508.773 2352.76,508.773 "></polyline>
<polyline clip-path="url(#clip822)" style="stroke:#000000; stroke-linecap:round; stroke-linejoin:round; stroke-width:2; stroke-opacity:0.1; fill:none" points="149.191,370.699 2352.76,370.699 "></polyline>
<polyline clip-path="url(#clip822)" style="stroke:#000000; stroke-linecap:round; stroke-linejoin:round; stroke-width:2; stroke-opacity:0.1; fill:none" points="149.191,232.625 2352.76,232.625 "></polyline>
<polyline clip-path="url(#clip820)" style="stroke:#000000; stroke-linecap:round; stroke-linejoin:round; stroke-width:4; stroke-opacity:1; fill:none" points="149.191,724.562 149.191,123.472 "></polyline>
<polyline clip-path="url(#clip820)" style="stroke:#000000; stroke-linecap:round; stroke-linejoin:round; stroke-width:4; stroke-opacity:1; fill:none" points="149.191,646.847 168.089,646.847 "></polyline>
<polyline clip-path="url(#clip820)" style="stroke:#000000; stroke-linecap:round; stroke-linejoin:round; stroke-width:4; stroke-opacity:1; fill:none" points="149.191,508.773 168.089,508.773 "></polyline>
<polyline clip-path="url(#clip820)" style="stroke:#000000; stroke-linecap:round; stroke-linejoin:round; stroke-width:4; stroke-opacity:1; fill:none" points="149.191,370.699 168.089,370.699 "></polyline>
<polyline clip-path="url(#clip820)" style="stroke:#000000; stroke-linecap:round; stroke-linejoin:round; stroke-width:4; stroke-opacity:1; fill:none" points="149.191,232.625 168.089,232.625 "></polyline>
<path clip-path="url(#clip820)" d="M51.3162 647.299 L80.992 647.299 L80.992 651.234 L51.3162 651.234 L51.3162 647.299 Z" fill="#000000" fill-rule="nonzero" fill-opacity="1"></path><path clip-path="url(#clip820)" d="M101.663 644.984 Q98.515 644.984 96.6632 647.137 Q94.8345 649.289 94.8345 653.039 Q94.8345 656.766 96.6632 658.942 Q98.515 661.095 101.663 661.095 Q104.811 661.095 106.64 658.942 Q108.492 656.766 108.492 653.039 Q108.492 649.289 106.64 647.137 Q104.811 644.984 101.663 644.984 M110.946 630.331 L110.946 634.59 Q109.186 633.757 107.381 633.317 Q105.598 632.877 103.839 632.877 Q99.2095 632.877 96.7558 636.002 Q94.3252 639.127 93.978 645.447 Q95.3437 643.433 97.4039 642.368 Q99.4641 641.28 101.941 641.28 Q107.149 641.28 110.158 644.451 Q113.191 647.6 113.191 653.039 Q113.191 658.363 110.043 661.581 Q106.895 664.799 101.663 664.799 Q95.6678 664.799 92.4965 660.215 Q89.3253 655.609 89.3253 646.882 Q89.3253 638.688 93.2141 633.827 Q97.103 628.942 103.654 628.942 Q105.413 628.942 107.196 629.29 Q109.001 629.637 110.946 630.331 Z" fill="#000000" fill-rule="nonzero" fill-opacity="1"></path><path clip-path="url(#clip820)" d="M50.9921 509.225 L80.6679 509.225 L80.6679 513.16 L50.9921 513.16 L50.9921 509.225 Z" fill="#000000" fill-rule="nonzero" fill-opacity="1"></path><path clip-path="url(#clip820)" d="M103.608 495.567 L91.8021 514.016 L103.608 514.016 L103.608 495.567 M102.381 491.493 L108.26 491.493 L108.26 514.016 L113.191 514.016 L113.191 517.905 L108.26 517.905 L108.26 526.053 L103.608 526.053 L103.608 517.905 L88.0058 517.905 L88.0058 513.391 L102.381 491.493 Z" fill="#000000" fill-rule="nonzero" fill-opacity="1"></path><path clip-path="url(#clip820)" d="M53.0754 371.151 L82.7512 371.151 L82.7512 375.086 L53.0754 375.086 L53.0754 371.151 Z" fill="#000000" fill-rule="nonzero" fill-opacity="1"></path><path clip-path="url(#clip820)" d="M96.8715 384.044 L113.191 384.044 L113.191 387.979 L91.2465 387.979 L91.2465 384.044 Q93.9086 381.29 98.4919 376.66 Q103.098 372.007 104.279 370.665 Q106.524 368.142 107.404 366.405 Q108.307 364.646 108.307 362.956 Q108.307 360.202 106.362 358.466 Q104.441 356.73 101.339 356.73 Q99.14 356.73 96.6863 357.493 Q94.2558 358.257 91.478 359.808 L91.478 355.086 Q94.3021 353.952 96.7558 353.373 Q99.2095 352.794 101.246 352.794 Q106.617 352.794 109.811 355.48 Q113.006 358.165 113.006 362.655 Q113.006 364.785 112.196 366.706 Q111.408 368.605 109.302 371.197 Q108.723 371.868 105.621 375.086 Q102.52 378.28 96.8715 384.044 Z" fill="#000000" fill-rule="nonzero" fill-opacity="1"></path><path clip-path="url(#clip820)" d="M101.246 218.424 Q97.6354 218.424 95.8067 221.989 Q94.0012 225.531 94.0012 232.66 Q94.0012 239.767 95.8067 243.331 Q97.6354 246.873 101.246 246.873 Q104.881 246.873 106.686 243.331 Q108.515 239.767 108.515 232.66 Q108.515 225.531 106.686 221.989 Q104.881 218.424 101.246 218.424 M101.246 214.72 Q107.057 214.72 110.112 219.327 Q113.191 223.91 113.191 232.66 Q113.191 241.387 110.112 245.993 Q107.057 250.577 101.246 250.577 Q95.4363 250.577 92.3576 245.993 Q89.3021 241.387 89.3021 232.66 Q89.3021 223.91 92.3576 219.327 Q95.4363 214.72 101.246 214.72 Z" fill="#000000" fill-rule="nonzero" fill-opacity="1"></path><path clip-path="url(#clip820)" d="M940.877 12.096 L992.04 12.096 L992.04 18.9825 L970.57 18.9825 L970.57 72.576 L962.346 72.576 L962.346 18.9825 L940.877 18.9825 L940.877 12.096 Z" fill="#000000" fill-rule="nonzero" fill-opacity="1"></path><path clip-path="url(#clip820)" d="M1003.1 32.4315 Q997.103 32.4315 993.619 37.1306 Q990.136 41.7891 990.136 49.9314 Q990.136 58.0738 993.579 62.7728 Q997.063 67.4314 1003.1 67.4314 Q1009.05 67.4314 1012.54 62.7323 Q1016.02 58.0333 1016.02 49.9314 Q1016.02 41.8701 1012.54 37.1711 Q1009.05 32.4315 1003.1 32.4315 M1003.1 26.1121 Q1012.82 26.1121 1018.37 32.4315 Q1023.92 38.7509 1023.92 49.9314 Q1023.92 61.0714 1018.37 67.4314 Q1012.82 73.7508 1003.1 73.7508 Q993.336 73.7508 987.786 67.4314 Q982.277 61.0714 982.277 49.9314 Q982.277 38.7509 987.786 32.4315 Q993.336 26.1121 1003.1 26.1121 Z" fill="#000000" fill-rule="nonzero" fill-opacity="1"></path><path clip-path="url(#clip820)" d="M1062.57 34.1734 Q1061.31 33.4443 1059.81 33.1202 Q1058.35 32.7556 1056.57 32.7556 Q1050.25 32.7556 1046.85 36.8875 Q1043.49 40.9789 1043.49 48.6757 L1043.49 72.576 L1035.99 72.576 L1035.99 27.2059 L1043.49 27.2059 L1043.49 34.2544 Q1045.84 30.1225 1049.6 28.1376 Q1053.37 26.1121 1058.76 26.1121 Q1059.53 26.1121 1060.46 26.2337 Q1061.39 26.3147 1062.53 26.5172 L1062.57 34.1734 Z" fill="#000000" fill-rule="nonzero" fill-opacity="1"></path><path clip-path="url(#clip820)" d="M1073.38 49.9314 Q1073.38 58.1548 1076.74 62.8538 Q1080.15 67.5124 1086.06 67.5124 Q1091.98 67.5124 1095.38 62.8538 Q1098.78 58.1548 1098.78 49.9314 Q1098.78 41.7081 1095.38 37.0496 Q1091.98 32.3505 1086.06 32.3505 Q1080.15 32.3505 1076.74 37.0496 Q1073.38 41.7081 1073.38 49.9314 M1098.78 65.7705 Q1096.43 69.8214 1092.83 71.8063 Q1089.26 73.7508 1084.24 73.7508 Q1076.01 73.7508 1070.83 67.1883 Q1065.69 60.6258 1065.69 49.9314 Q1065.69 39.2371 1070.83 32.6746 Q1076.01 26.1121 1084.24 26.1121 Q1089.26 26.1121 1092.83 28.0971 Q1096.43 30.0415 1098.78 34.0924 L1098.78 27.2059 L1106.23 27.2059 L1106.23 89.8329 L1098.78 89.8329 L1098.78 65.7705 Z" fill="#000000" fill-rule="nonzero" fill-opacity="1"></path><path clip-path="url(#clip820)" d="M1120.82 54.671 L1120.82 27.2059 L1128.27 27.2059 L1128.27 54.3874 Q1128.27 60.8284 1130.78 64.0691 Q1133.29 67.2693 1138.32 67.2693 Q1144.35 67.2693 1147.84 63.421 Q1151.36 59.5726 1151.36 52.9291 L1151.36 27.2059 L1158.82 27.2059 L1158.82 72.576 L1151.36 72.576 L1151.36 65.6084 Q1148.65 69.7404 1145.04 71.7658 Q1141.48 73.7508 1136.74 73.7508 Q1128.92 73.7508 1124.87 68.8897 Q1120.82 64.0286 1120.82 54.671 M1139.57 26.1121 L1139.57 26.1121 Z" fill="#000000" fill-rule="nonzero" fill-opacity="1"></path><path clip-path="url(#clip820)" d="M1212.98 48.0275 L1212.98 51.6733 L1178.71 51.6733 Q1179.19 59.3701 1183.32 63.421 Q1187.5 67.4314 1194.91 67.4314 Q1199.2 67.4314 1203.21 66.3781 Q1207.26 65.3249 1211.23 63.2184 L1211.23 70.267 Q1207.22 71.9684 1203.01 72.8596 Q1198.8 73.7508 1194.46 73.7508 Q1183.61 73.7508 1177.25 67.4314 Q1170.93 61.1119 1170.93 50.3365 Q1170.93 39.1965 1176.92 32.6746 Q1182.96 26.1121 1193.17 26.1121 Q1202.32 26.1121 1207.63 32.0264 Q1212.98 37.9003 1212.98 48.0275 M1205.52 45.84 Q1205.44 39.7232 1202.08 36.0774 Q1198.76 32.4315 1193.25 32.4315 Q1187.01 32.4315 1183.24 35.9558 Q1179.52 39.4801 1178.95 45.8805 L1205.52 45.84 Z" fill="#000000" fill-rule="nonzero" fill-opacity="1"></path><path clip-path="url(#clip820)" d="M1246.23 27.2059 L1254.13 27.2059 L1268.31 65.2844 L1282.49 27.2059 L1290.39 27.2059 L1273.37 72.576 L1263.25 72.576 L1246.23 27.2059 Z" fill="#000000" fill-rule="nonzero" fill-opacity="1"></path><path clip-path="url(#clip820)" d="M1329.6 28.5427 L1329.6 35.5912 Q1326.44 33.9709 1323.04 33.1607 Q1319.64 32.3505 1315.99 32.3505 Q1310.44 32.3505 1307.65 34.0519 Q1304.89 35.7533 1304.89 39.156 Q1304.89 41.7486 1306.88 43.2475 Q1308.86 44.7058 1314.86 46.0426 L1317.41 46.6097 Q1325.35 48.3111 1328.67 51.4303 Q1332.03 54.509 1332.03 60.0587 Q1332.03 66.3781 1327.01 70.0644 Q1322.03 73.7508 1313.28 73.7508 Q1309.63 73.7508 1305.66 73.0216 Q1301.73 72.3329 1297.36 70.9151 L1297.36 63.2184 Q1301.49 65.3654 1305.5 66.4591 Q1309.51 67.5124 1313.44 67.5124 Q1318.7 67.5124 1321.54 65.73 Q1324.38 63.9071 1324.38 60.6258 Q1324.38 57.5877 1322.31 55.9673 Q1320.28 54.3469 1313.36 52.8481 L1310.76 52.2405 Q1303.84 50.7821 1300.76 47.7845 Q1297.68 44.7463 1297.68 39.4801 Q1297.68 33.0797 1302.22 29.5959 Q1306.75 26.1121 1315.1 26.1121 Q1319.23 26.1121 1322.88 26.7198 Q1326.52 27.3274 1329.6 28.5427 Z" fill="#000000" fill-rule="nonzero" fill-opacity="1"></path><path clip-path="url(#clip820)" d="M1362.21 12.096 L1413.37 12.096 L1413.37 18.9825 L1391.9 18.9825 L1391.9 72.576 L1383.68 72.576 L1383.68 18.9825 L1362.21 18.9825 L1362.21 12.096 Z" fill="#000000" fill-rule="nonzero" fill-opacity="1"></path><path clip-path="url(#clip820)" d="M1418.4 27.2059 L1425.85 27.2059 L1425.85 72.576 L1418.4 72.576 L1418.4 27.2059 M1418.4 9.54393 L1425.85 9.54393 L1425.85 18.9825 L1418.4 18.9825 L1418.4 9.54393 Z" fill="#000000" fill-rule="nonzero" fill-opacity="1"></path><path clip-path="url(#clip820)" d="M1476.77 35.9153 Q1479.57 30.8922 1483.45 28.5022 Q1487.34 26.1121 1492.61 26.1121 Q1499.7 26.1121 1503.55 31.0947 Q1507.4 36.0368 1507.4 45.1919 L1507.4 72.576 L1499.9 72.576 L1499.9 45.4349 Q1499.9 38.913 1497.59 35.7533 Q1495.28 32.5936 1490.54 32.5936 Q1484.75 32.5936 1481.39 36.4419 Q1478.03 40.2903 1478.03 46.9338 L1478.03 72.576 L1470.53 72.576 L1470.53 45.4349 Q1470.53 38.8725 1468.22 35.7533 Q1465.91 32.5936 1461.09 32.5936 Q1455.38 32.5936 1452.02 36.4824 Q1448.66 40.3308 1448.66 46.9338 L1448.66 72.576 L1441.16 72.576 L1441.16 27.2059 L1448.66 27.2059 L1448.66 34.2544 Q1451.21 30.082 1454.77 28.0971 Q1458.34 26.1121 1463.24 26.1121 Q1468.18 26.1121 1471.63 28.6237 Q1475.11 31.1352 1476.77 35.9153 Z" fill="#000000" fill-rule="nonzero" fill-opacity="1"></path><path clip-path="url(#clip820)" d="M1561.07 48.0275 L1561.07 51.6733 L1526.8 51.6733 Q1527.29 59.3701 1531.42 63.421 Q1535.59 67.4314 1543 67.4314 Q1547.3 67.4314 1551.31 66.3781 Q1555.36 65.3249 1559.33 63.2184 L1559.33 70.267 Q1555.32 71.9684 1551.1 72.8596 Q1546.89 73.7508 1542.56 73.7508 Q1531.7 73.7508 1525.34 67.4314 Q1519.02 61.1119 1519.02 50.3365 Q1519.02 39.1965 1525.02 32.6746 Q1531.05 26.1121 1541.26 26.1121 Q1550.42 26.1121 1555.72 32.0264 Q1561.07 37.9003 1561.07 48.0275 M1553.62 45.84 Q1553.54 39.7232 1550.17 36.0774 Q1546.85 32.4315 1541.34 32.4315 Q1535.1 32.4315 1531.34 35.9558 Q1527.61 39.4801 1527.04 45.8805 L1553.62 45.84 Z" fill="#000000" fill-rule="nonzero" fill-opacity="1"></path><polyline clip-path="url(#clip822)" style="stroke:#009af9; stroke-linecap:round; stroke-linejoin:round; stroke-width:4; stroke-opacity:1; fill:none" points="211.556,555.562 278.615,595.758 345.674,630.4 412.733,658.852 479.793,680.753 546.852,696.02 613.911,704.821 680.97,707.55 748.029,704.774 815.089,697.187 882.148,685.553 949.207,670.648 1016.27,653.214 1083.33,633.908 1150.38,613.274 1217.44,591.716 1284.5,569.492 1351.56,546.719 1418.62,523.384 1485.68,499.377 1552.74,474.522 1619.8,448.618 1686.86,421.483 1753.92,392.991 1820.98,363.111 1888.04,331.936 1955.09,299.697 2022.15,266.777 2089.21,233.699 2156.27,201.114 2223.33,169.772 2290.39,140.484 "></polyline>
<path clip-path="url(#clip820)" d="M222.643 247.188 L652.512 247.188 L652.512 143.508 L222.643 143.508  Z" fill="#ffffff" fill-rule="evenodd" fill-opacity="1"></path>
<polyline clip-path="url(#clip820)" style="stroke:#000000; stroke-linecap:round; stroke-linejoin:round; stroke-width:4; stroke-opacity:1; fill:none" points="222.643,247.188 652.512,247.188 652.512,143.508 222.643,143.508 222.643,247.188 "></polyline>
<polyline clip-path="url(#clip820)" style="stroke:#009af9; stroke-linecap:round; stroke-linejoin:round; stroke-width:4; stroke-opacity:1; fill:none" points="247.127,195.348 394.031,195.348 "></polyline>
<path clip-path="url(#clip820)" d="M418.515 178.068 L447.751 178.068 L447.751 182.004 L435.483 182.004 L435.483 212.628 L430.784 212.628 L430.784 182.004 L418.515 182.004 L418.515 178.068 Z" fill="#000000" fill-rule="nonzero" fill-opacity="1"></path><path clip-path="url(#clip820)" d="M454.071 189.689 Q450.645 189.689 448.654 192.374 Q446.663 195.036 446.663 199.689 Q446.663 204.341 448.631 207.027 Q450.622 209.689 454.071 209.689 Q457.474 209.689 459.464 207.003 Q461.455 204.318 461.455 199.689 Q461.455 195.082 459.464 192.397 Q457.474 189.689 454.071 189.689 M454.071 186.078 Q459.626 186.078 462.798 189.689 Q465.969 193.3 465.969 199.689 Q465.969 206.054 462.798 209.689 Q459.626 213.3 454.071 213.3 Q448.492 213.3 445.321 209.689 Q442.173 206.054 442.173 199.689 Q442.173 193.3 445.321 189.689 Q448.492 186.078 454.071 186.078 Z" fill="#000000" fill-rule="nonzero" fill-opacity="1"></path><path clip-path="url(#clip820)" d="M488.052 190.684 Q487.335 190.267 486.478 190.082 Q485.645 189.874 484.626 189.874 Q481.015 189.874 479.071 192.235 Q477.149 194.573 477.149 198.971 L477.149 212.628 L472.867 212.628 L472.867 186.703 L477.149 186.703 L477.149 190.73 Q478.492 188.369 480.645 187.235 Q482.798 186.078 485.876 186.078 Q486.316 186.078 486.848 186.147 Q487.381 186.193 488.029 186.309 L488.052 190.684 Z" fill="#000000" fill-rule="nonzero" fill-opacity="1"></path><path clip-path="url(#clip820)" d="M494.233 199.689 Q494.233 204.388 496.154 207.073 Q498.098 209.735 501.478 209.735 Q504.858 209.735 506.802 207.073 Q508.746 204.388 508.746 199.689 Q508.746 194.99 506.802 192.328 Q504.858 189.642 501.478 189.642 Q498.098 189.642 496.154 192.328 Q494.233 194.99 494.233 199.689 M508.746 208.74 Q507.404 211.054 505.344 212.189 Q503.307 213.3 500.436 213.3 Q495.737 213.3 492.774 209.55 Q489.835 205.8 489.835 199.689 Q489.835 193.578 492.774 189.828 Q495.737 186.078 500.436 186.078 Q503.307 186.078 505.344 187.212 Q507.404 188.323 508.746 190.638 L508.746 186.703 L513.006 186.703 L513.006 222.49 L508.746 222.49 L508.746 208.74 Z" fill="#000000" fill-rule="nonzero" fill-opacity="1"></path><path clip-path="url(#clip820)" d="M521.339 202.397 L521.339 186.703 L525.598 186.703 L525.598 202.235 Q525.598 205.916 527.033 207.767 Q528.469 209.596 531.339 209.596 Q534.788 209.596 536.779 207.397 Q538.793 205.198 538.793 201.402 L538.793 186.703 L543.052 186.703 L543.052 212.628 L538.793 212.628 L538.793 208.647 Q537.242 211.008 535.182 212.165 Q533.144 213.3 530.436 213.3 Q525.969 213.3 523.654 210.522 Q521.339 207.744 521.339 202.397 M532.057 186.078 L532.057 186.078 Z" fill="#000000" fill-rule="nonzero" fill-opacity="1"></path><path clip-path="url(#clip820)" d="M574.001 198.601 L574.001 200.684 L554.418 200.684 Q554.695 205.082 557.056 207.397 Q559.441 209.689 563.677 209.689 Q566.13 209.689 568.422 209.087 Q570.737 208.485 573.005 207.281 L573.005 211.309 Q570.714 212.281 568.306 212.79 Q565.899 213.3 563.422 213.3 Q557.218 213.3 553.584 209.689 Q549.973 206.078 549.973 199.92 Q549.973 193.554 553.399 189.828 Q556.848 186.078 562.681 186.078 Q567.913 186.078 570.945 189.457 Q574.001 192.814 574.001 198.601 M569.742 197.351 Q569.695 193.855 567.774 191.772 Q565.876 189.689 562.728 189.689 Q559.163 189.689 557.01 191.703 Q554.88 193.717 554.556 197.374 L569.742 197.351 Z" fill="#000000" fill-rule="nonzero" fill-opacity="1"></path><path clip-path="url(#clip820)" d="M591.223 176.656 Q588.121 181.98 586.616 187.189 Q585.112 192.397 585.112 197.744 Q585.112 203.091 586.616 208.346 Q588.144 213.578 591.223 218.878 L587.519 218.878 Q584.047 213.439 582.311 208.184 Q580.598 202.929 580.598 197.744 Q580.598 192.582 582.311 187.351 Q584.024 182.119 587.519 176.656 L591.223 176.656 Z" fill="#000000" fill-rule="nonzero" fill-opacity="1"></path><path clip-path="url(#clip820)" d="M603.7 179.342 L603.7 186.703 L612.473 186.703 L612.473 190.013 L603.7 190.013 L603.7 204.087 Q603.7 207.258 604.556 208.161 Q605.436 209.064 608.098 209.064 L612.473 209.064 L612.473 212.628 L608.098 212.628 Q603.167 212.628 601.292 210.8 Q599.417 208.948 599.417 204.087 L599.417 190.013 L596.292 190.013 L596.292 186.703 L599.417 186.703 L599.417 179.342 L603.7 179.342 Z" fill="#000000" fill-rule="nonzero" fill-opacity="1"></path><path clip-path="url(#clip820)" d="M617.403 176.656 L621.107 176.656 Q624.579 182.119 626.292 187.351 Q628.028 192.582 628.028 197.744 Q628.028 202.929 626.292 208.184 Q624.579 213.439 621.107 218.878 L617.403 218.878 Q620.482 213.578 621.987 208.346 Q623.514 203.091 623.514 197.744 Q623.514 192.397 621.987 187.189 Q620.482 181.98 617.403 176.656 Z" fill="#000000" fill-rule="nonzero" fill-opacity="1"></path><path clip-path="url(#clip820)" d="M149.191 1486.45 L2352.76 1486.45 L2352.76 885.358 L149.191 885.358  Z" fill="#ffffff" fill-rule="evenodd" fill-opacity="1"></path>
<defs>
  <clipPath id="clip823">
    <rect x="149" y="885" width="2205" height="602"></rect>
  </clipPath>
</defs>
<polyline clip-path="url(#clip823)" style="stroke:#000000; stroke-linecap:round; stroke-linejoin:round; stroke-width:2; stroke-opacity:0.1; fill:none" points="211.556,1486.45 211.556,885.358 "></polyline>
<polyline clip-path="url(#clip823)" style="stroke:#000000; stroke-linecap:round; stroke-linejoin:round; stroke-width:2; stroke-opacity:0.1; fill:none" points="731.265,1486.45 731.265,885.358 "></polyline>
<polyline clip-path="url(#clip823)" style="stroke:#000000; stroke-linecap:round; stroke-linejoin:round; stroke-width:2; stroke-opacity:0.1; fill:none" points="1250.97,1486.45 1250.97,885.358 "></polyline>
<polyline clip-path="url(#clip823)" style="stroke:#000000; stroke-linecap:round; stroke-linejoin:round; stroke-width:2; stroke-opacity:0.1; fill:none" points="1770.68,1486.45 1770.68,885.358 "></polyline>
<polyline clip-path="url(#clip823)" style="stroke:#000000; stroke-linecap:round; stroke-linejoin:round; stroke-width:2; stroke-opacity:0.1; fill:none" points="2290.39,1486.45 2290.39,885.358 "></polyline>
<polyline clip-path="url(#clip820)" style="stroke:#000000; stroke-linecap:round; stroke-linejoin:round; stroke-width:4; stroke-opacity:1; fill:none" points="149.191,1486.45 2352.76,1486.45 "></polyline>
<polyline clip-path="url(#clip820)" style="stroke:#000000; stroke-linecap:round; stroke-linejoin:round; stroke-width:4; stroke-opacity:1; fill:none" points="211.556,1486.45 211.556,1467.55 "></polyline>
<polyline clip-path="url(#clip820)" style="stroke:#000000; stroke-linecap:round; stroke-linejoin:round; stroke-width:4; stroke-opacity:1; fill:none" points="731.265,1486.45 731.265,1467.55 "></polyline>
<polyline clip-path="url(#clip820)" style="stroke:#000000; stroke-linecap:round; stroke-linejoin:round; stroke-width:4; stroke-opacity:1; fill:none" points="1250.97,1486.45 1250.97,1467.55 "></polyline>
<polyline clip-path="url(#clip820)" style="stroke:#000000; stroke-linecap:round; stroke-linejoin:round; stroke-width:4; stroke-opacity:1; fill:none" points="1770.68,1486.45 1770.68,1467.55 "></polyline>
<polyline clip-path="url(#clip820)" style="stroke:#000000; stroke-linecap:round; stroke-linejoin:round; stroke-width:4; stroke-opacity:1; fill:none" points="2290.39,1486.45 2290.39,1467.55 "></polyline>
<path clip-path="url(#clip820)" d="M173.859 1517.37 Q170.248 1517.37 168.42 1520.93 Q166.614 1524.47 166.614 1531.6 Q166.614 1538.71 168.42 1542.27 Q170.248 1545.82 173.859 1545.82 Q177.494 1545.82 179.299 1542.27 Q181.128 1538.71 181.128 1531.6 Q181.128 1524.47 179.299 1520.93 Q177.494 1517.37 173.859 1517.37 M173.859 1513.66 Q179.67 1513.66 182.725 1518.27 Q185.804 1522.85 185.804 1531.6 Q185.804 1540.33 182.725 1544.94 Q179.67 1549.52 173.859 1549.52 Q168.049 1549.52 164.971 1544.94 Q161.915 1540.33 161.915 1531.6 Q161.915 1522.85 164.971 1518.27 Q168.049 1513.66 173.859 1513.66 Z" fill="#000000" fill-rule="nonzero" fill-opacity="1"></path><path clip-path="url(#clip820)" d="M194.021 1542.97 L198.906 1542.97 L198.906 1548.85 L194.021 1548.85 L194.021 1542.97 Z" fill="#000000" fill-rule="nonzero" fill-opacity="1"></path><path clip-path="url(#clip820)" d="M219.091 1517.37 Q215.48 1517.37 213.651 1520.93 Q211.845 1524.47 211.845 1531.6 Q211.845 1538.71 213.651 1542.27 Q215.48 1545.82 219.091 1545.82 Q222.725 1545.82 224.53 1542.27 Q226.359 1538.71 226.359 1531.6 Q226.359 1524.47 224.53 1520.93 Q222.725 1517.37 219.091 1517.37 M219.091 1513.66 Q224.901 1513.66 227.956 1518.27 Q231.035 1522.85 231.035 1531.6 Q231.035 1540.33 227.956 1544.94 Q224.901 1549.52 219.091 1549.52 Q213.28 1549.52 210.202 1544.94 Q207.146 1540.33 207.146 1531.6 Q207.146 1522.85 210.202 1518.27 Q213.28 1513.66 219.091 1513.66 Z" fill="#000000" fill-rule="nonzero" fill-opacity="1"></path><path clip-path="url(#clip820)" d="M249.252 1517.37 Q245.641 1517.37 243.813 1520.93 Q242.007 1524.47 242.007 1531.6 Q242.007 1538.71 243.813 1542.27 Q245.641 1545.82 249.252 1545.82 Q252.887 1545.82 254.692 1542.27 Q256.521 1538.71 256.521 1531.6 Q256.521 1524.47 254.692 1520.93 Q252.887 1517.37 249.252 1517.37 M249.252 1513.66 Q255.063 1513.66 258.118 1518.27 Q261.197 1522.85 261.197 1531.6 Q261.197 1540.33 258.118 1544.94 Q255.063 1549.52 249.252 1549.52 Q243.442 1549.52 240.364 1544.94 Q237.308 1540.33 237.308 1531.6 Q237.308 1522.85 240.364 1518.27 Q243.442 1513.66 249.252 1513.66 Z" fill="#000000" fill-rule="nonzero" fill-opacity="1"></path><path clip-path="url(#clip820)" d="M694.066 1517.37 Q690.455 1517.37 688.626 1520.93 Q686.82 1524.47 686.82 1531.6 Q686.82 1538.71 688.626 1542.27 Q690.455 1545.82 694.066 1545.82 Q697.7 1545.82 699.506 1542.27 Q701.334 1538.71 701.334 1531.6 Q701.334 1524.47 699.506 1520.93 Q697.7 1517.37 694.066 1517.37 M694.066 1513.66 Q699.876 1513.66 702.931 1518.27 Q706.01 1522.85 706.01 1531.6 Q706.01 1540.33 702.931 1544.94 Q699.876 1549.52 694.066 1549.52 Q688.256 1549.52 685.177 1544.94 Q682.121 1540.33 682.121 1531.6 Q682.121 1522.85 685.177 1518.27 Q688.256 1513.66 694.066 1513.66 Z" fill="#000000" fill-rule="nonzero" fill-opacity="1"></path><path clip-path="url(#clip820)" d="M714.228 1542.97 L719.112 1542.97 L719.112 1548.85 L714.228 1548.85 L714.228 1542.97 Z" fill="#000000" fill-rule="nonzero" fill-opacity="1"></path><path clip-path="url(#clip820)" d="M733.325 1544.91 L749.644 1544.91 L749.644 1548.85 L727.7 1548.85 L727.7 1544.91 Q730.362 1542.16 734.945 1537.53 Q739.552 1532.88 740.732 1531.53 Q742.978 1529.01 743.857 1527.27 Q744.76 1525.51 744.76 1523.82 Q744.76 1521.07 742.816 1519.33 Q740.894 1517.6 737.792 1517.6 Q735.593 1517.6 733.14 1518.36 Q730.709 1519.13 727.931 1520.68 L727.931 1515.95 Q730.755 1514.82 733.209 1514.24 Q735.663 1513.66 737.7 1513.66 Q743.07 1513.66 746.265 1516.35 Q749.459 1519.03 749.459 1523.52 Q749.459 1525.65 748.649 1527.57 Q747.862 1529.47 745.755 1532.07 Q745.177 1532.74 742.075 1535.95 Q738.973 1539.15 733.325 1544.91 Z" fill="#000000" fill-rule="nonzero" fill-opacity="1"></path><path clip-path="url(#clip820)" d="M759.505 1514.29 L777.862 1514.29 L777.862 1518.22 L763.788 1518.22 L763.788 1526.7 Q764.806 1526.35 765.825 1526.19 Q766.843 1526 767.862 1526 Q773.649 1526 777.028 1529.17 Q780.408 1532.34 780.408 1537.76 Q780.408 1543.34 776.936 1546.44 Q773.463 1549.52 767.144 1549.52 Q764.968 1549.52 762.7 1549.15 Q760.454 1548.78 758.047 1548.04 L758.047 1543.34 Q760.13 1544.47 762.352 1545.03 Q764.575 1545.58 767.051 1545.58 Q771.056 1545.58 773.394 1543.48 Q775.732 1541.37 775.732 1537.76 Q775.732 1534.15 773.394 1532.04 Q771.056 1529.94 767.051 1529.94 Q765.177 1529.94 763.302 1530.35 Q761.45 1530.77 759.505 1531.65 L759.505 1514.29 Z" fill="#000000" fill-rule="nonzero" fill-opacity="1"></path><path clip-path="url(#clip820)" d="M1213.28 1517.37 Q1209.67 1517.37 1207.84 1520.93 Q1206.03 1524.47 1206.03 1531.6 Q1206.03 1538.71 1207.84 1542.27 Q1209.67 1545.82 1213.28 1545.82 Q1216.91 1545.82 1218.72 1542.27 Q1220.55 1538.71 1220.55 1531.6 Q1220.55 1524.47 1218.72 1520.93 Q1216.91 1517.37 1213.28 1517.37 M1213.28 1513.66 Q1219.09 1513.66 1222.14 1518.27 Q1225.22 1522.85 1225.22 1531.6 Q1225.22 1540.33 1222.14 1544.94 Q1219.09 1549.52 1213.28 1549.52 Q1207.47 1549.52 1204.39 1544.94 Q1201.33 1540.33 1201.33 1531.6 Q1201.33 1522.85 1204.39 1518.27 Q1207.47 1513.66 1213.28 1513.66 Z" fill="#000000" fill-rule="nonzero" fill-opacity="1"></path><path clip-path="url(#clip820)" d="M1233.44 1542.97 L1238.32 1542.97 L1238.32 1548.85 L1233.44 1548.85 L1233.44 1542.97 Z" fill="#000000" fill-rule="nonzero" fill-opacity="1"></path><path clip-path="url(#clip820)" d="M1248.55 1514.29 L1266.91 1514.29 L1266.91 1518.22 L1252.84 1518.22 L1252.84 1526.7 Q1253.86 1526.35 1254.87 1526.19 Q1255.89 1526 1256.91 1526 Q1262.7 1526 1266.08 1529.17 Q1269.46 1532.34 1269.46 1537.76 Q1269.46 1543.34 1265.98 1546.44 Q1262.51 1549.52 1256.19 1549.52 Q1254.02 1549.52 1251.75 1549.15 Q1249.5 1548.78 1247.1 1548.04 L1247.1 1543.34 Q1249.18 1544.47 1251.4 1545.03 Q1253.62 1545.58 1256.1 1545.58 Q1260.11 1545.58 1262.44 1543.48 Q1264.78 1541.37 1264.78 1537.76 Q1264.78 1534.15 1262.44 1532.04 Q1260.11 1529.94 1256.1 1529.94 Q1254.23 1529.94 1252.35 1530.35 Q1250.5 1530.77 1248.55 1531.65 L1248.55 1514.29 Z" fill="#000000" fill-rule="nonzero" fill-opacity="1"></path><path clip-path="url(#clip820)" d="M1288.67 1517.37 Q1285.06 1517.37 1283.23 1520.93 Q1281.42 1524.47 1281.42 1531.6 Q1281.42 1538.71 1283.23 1542.27 Q1285.06 1545.82 1288.67 1545.82 Q1292.3 1545.82 1294.11 1542.27 Q1295.94 1538.71 1295.94 1531.6 Q1295.94 1524.47 1294.11 1520.93 Q1292.3 1517.37 1288.67 1517.37 M1288.67 1513.66 Q1294.48 1513.66 1297.54 1518.27 Q1300.61 1522.85 1300.61 1531.6 Q1300.61 1540.33 1297.54 1544.94 Q1294.48 1549.52 1288.67 1549.52 Q1282.86 1549.52 1279.78 1544.94 Q1276.73 1540.33 1276.73 1531.6 Q1276.73 1522.85 1279.78 1518.27 Q1282.86 1513.66 1288.67 1513.66 Z" fill="#000000" fill-rule="nonzero" fill-opacity="1"></path><path clip-path="url(#clip820)" d="M1733.48 1517.37 Q1729.87 1517.37 1728.04 1520.93 Q1726.24 1524.47 1726.24 1531.6 Q1726.24 1538.71 1728.04 1542.27 Q1729.87 1545.82 1733.48 1545.82 Q1737.12 1545.82 1738.92 1542.27 Q1740.75 1538.71 1740.75 1531.6 Q1740.75 1524.47 1738.92 1520.93 Q1737.12 1517.37 1733.48 1517.37 M1733.48 1513.66 Q1739.29 1513.66 1742.35 1518.27 Q1745.43 1522.85 1745.43 1531.6 Q1745.43 1540.33 1742.35 1544.94 Q1739.29 1549.52 1733.48 1549.52 Q1727.67 1549.52 1724.59 1544.94 Q1721.54 1540.33 1721.54 1531.6 Q1721.54 1522.85 1724.59 1518.27 Q1727.67 1513.66 1733.48 1513.66 Z" fill="#000000" fill-rule="nonzero" fill-opacity="1"></path><path clip-path="url(#clip820)" d="M1753.65 1542.97 L1758.53 1542.97 L1758.53 1548.85 L1753.65 1548.85 L1753.65 1542.97 Z" fill="#000000" fill-rule="nonzero" fill-opacity="1"></path><path clip-path="url(#clip820)" d="M1767.53 1514.29 L1789.76 1514.29 L1789.76 1516.28 L1777.21 1548.85 L1772.33 1548.85 L1784.13 1518.22 L1767.53 1518.22 L1767.53 1514.29 Z" fill="#000000" fill-rule="nonzero" fill-opacity="1"></path><path clip-path="url(#clip820)" d="M1798.92 1514.29 L1817.28 1514.29 L1817.28 1518.22 L1803.21 1518.22 L1803.21 1526.7 Q1804.22 1526.35 1805.24 1526.19 Q1806.26 1526 1807.28 1526 Q1813.07 1526 1816.45 1529.17 Q1819.83 1532.34 1819.83 1537.76 Q1819.83 1543.34 1816.35 1546.44 Q1812.88 1549.52 1806.56 1549.52 Q1804.39 1549.52 1802.12 1549.15 Q1799.87 1548.78 1797.46 1548.04 L1797.46 1543.34 Q1799.55 1544.47 1801.77 1545.03 Q1803.99 1545.58 1806.47 1545.58 Q1810.47 1545.58 1812.81 1543.48 Q1815.15 1541.37 1815.15 1537.76 Q1815.15 1534.15 1812.81 1532.04 Q1810.47 1529.94 1806.47 1529.94 Q1804.59 1529.94 1802.72 1530.35 Q1800.87 1530.77 1798.92 1531.65 L1798.92 1514.29 Z" fill="#000000" fill-rule="nonzero" fill-opacity="1"></path><path clip-path="url(#clip820)" d="M2242.46 1544.91 L2250.1 1544.91 L2250.1 1518.55 L2241.79 1520.21 L2241.79 1515.95 L2250.06 1514.29 L2254.73 1514.29 L2254.73 1544.91 L2262.37 1544.91 L2262.37 1548.85 L2242.46 1548.85 L2242.46 1544.91 Z" fill="#000000" fill-rule="nonzero" fill-opacity="1"></path><path clip-path="url(#clip820)" d="M2271.81 1542.97 L2276.7 1542.97 L2276.7 1548.85 L2271.81 1548.85 L2271.81 1542.97 Z" fill="#000000" fill-rule="nonzero" fill-opacity="1"></path><path clip-path="url(#clip820)" d="M2296.88 1517.37 Q2293.27 1517.37 2291.44 1520.93 Q2289.64 1524.47 2289.64 1531.6 Q2289.64 1538.71 2291.44 1542.27 Q2293.27 1545.82 2296.88 1545.82 Q2300.52 1545.82 2302.32 1542.27 Q2304.15 1538.71 2304.15 1531.6 Q2304.15 1524.47 2302.32 1520.93 Q2300.52 1517.37 2296.88 1517.37 M2296.88 1513.66 Q2302.69 1513.66 2305.75 1518.27 Q2308.83 1522.85 2308.83 1531.6 Q2308.83 1540.33 2305.75 1544.94 Q2302.69 1549.52 2296.88 1549.52 Q2291.07 1549.52 2288 1544.94 Q2284.94 1540.33 2284.94 1531.6 Q2284.94 1522.85 2288 1518.27 Q2291.07 1513.66 2296.88 1513.66 Z" fill="#000000" fill-rule="nonzero" fill-opacity="1"></path><path clip-path="url(#clip820)" d="M2327.05 1517.37 Q2323.43 1517.37 2321.61 1520.93 Q2319.8 1524.47 2319.8 1531.6 Q2319.8 1538.71 2321.61 1542.27 Q2323.43 1545.82 2327.05 1545.82 Q2330.68 1545.82 2332.49 1542.27 Q2334.31 1538.71 2334.31 1531.6 Q2334.31 1524.47 2332.49 1520.93 Q2330.68 1517.37 2327.05 1517.37 M2327.05 1513.66 Q2332.86 1513.66 2335.91 1518.27 Q2338.99 1522.85 2338.99 1531.6 Q2338.99 1540.33 2335.91 1544.94 Q2332.86 1549.52 2327.05 1549.52 Q2321.24 1549.52 2318.16 1544.94 Q2315.1 1540.33 2315.1 1531.6 Q2315.1 1522.85 2318.16 1518.27 Q2321.24 1513.66 2327.05 1513.66 Z" fill="#000000" fill-rule="nonzero" fill-opacity="1"></path><polyline clip-path="url(#clip823)" style="stroke:#000000; stroke-linecap:round; stroke-linejoin:round; stroke-width:2; stroke-opacity:0.1; fill:none" points="149.191,1450.66 2352.76,1450.66 "></polyline>
<polyline clip-path="url(#clip823)" style="stroke:#000000; stroke-linecap:round; stroke-linejoin:round; stroke-width:2; stroke-opacity:0.1; fill:none" points="149.191,1271.8 2352.76,1271.8 "></polyline>
<polyline clip-path="url(#clip823)" style="stroke:#000000; stroke-linecap:round; stroke-linejoin:round; stroke-width:2; stroke-opacity:0.1; fill:none" points="149.191,1092.94 2352.76,1092.94 "></polyline>
<polyline clip-path="url(#clip823)" style="stroke:#000000; stroke-linecap:round; stroke-linejoin:round; stroke-width:2; stroke-opacity:0.1; fill:none" points="149.191,914.076 2352.76,914.076 "></polyline>
<polyline clip-path="url(#clip820)" style="stroke:#000000; stroke-linecap:round; stroke-linejoin:round; stroke-width:4; stroke-opacity:1; fill:none" points="149.191,1486.45 149.191,885.358 "></polyline>
<polyline clip-path="url(#clip820)" style="stroke:#000000; stroke-linecap:round; stroke-linejoin:round; stroke-width:4; stroke-opacity:1; fill:none" points="149.191,1450.66 168.089,1450.66 "></polyline>
<polyline clip-path="url(#clip820)" style="stroke:#000000; stroke-linecap:round; stroke-linejoin:round; stroke-width:4; stroke-opacity:1; fill:none" points="149.191,1271.8 168.089,1271.8 "></polyline>
<polyline clip-path="url(#clip820)" style="stroke:#000000; stroke-linecap:round; stroke-linejoin:round; stroke-width:4; stroke-opacity:1; fill:none" points="149.191,1092.94 168.089,1092.94 "></polyline>
<polyline clip-path="url(#clip820)" style="stroke:#000000; stroke-linecap:round; stroke-linejoin:round; stroke-width:4; stroke-opacity:1; fill:none" points="149.191,914.076 168.089,914.076 "></polyline>
<path clip-path="url(#clip820)" d="M52.7051 1451.11 L82.3808 1451.11 L82.3808 1455.05 L52.7051 1455.05 L52.7051 1451.11 Z" fill="#000000" fill-rule="nonzero" fill-opacity="1"></path><path clip-path="url(#clip820)" d="M93.2836 1464.01 L100.922 1464.01 L100.922 1437.64 L92.6123 1439.31 L92.6123 1435.05 L100.876 1433.38 L105.552 1433.38 L105.552 1464.01 L113.191 1464.01 L113.191 1467.94 L93.2836 1467.94 L93.2836 1464.01 Z" fill="#000000" fill-rule="nonzero" fill-opacity="1"></path><path clip-path="url(#clip820)" d="M101.246 1257.6 Q97.6354 1257.6 95.8067 1261.16 Q94.0012 1264.71 94.0012 1271.84 Q94.0012 1278.94 95.8067 1282.51 Q97.6354 1286.05 101.246 1286.05 Q104.881 1286.05 106.686 1282.51 Q108.515 1278.94 108.515 1271.84 Q108.515 1264.71 106.686 1261.16 Q104.881 1257.6 101.246 1257.6 M101.246 1253.9 Q107.057 1253.9 110.112 1258.5 Q113.191 1263.09 113.191 1271.84 Q113.191 1280.56 110.112 1285.17 Q107.057 1289.75 101.246 1289.75 Q95.4363 1289.75 92.3576 1285.17 Q89.3021 1280.56 89.3021 1271.84 Q89.3021 1263.09 92.3576 1258.5 Q95.4363 1253.9 101.246 1253.9 Z" fill="#000000" fill-rule="nonzero" fill-opacity="1"></path><path clip-path="url(#clip820)" d="M93.2836 1106.28 L100.922 1106.28 L100.922 1079.92 L92.6123 1081.58 L92.6123 1077.32 L100.876 1075.66 L105.552 1075.66 L105.552 1106.28 L113.191 1106.28 L113.191 1110.22 L93.2836 1110.22 L93.2836 1106.28 Z" fill="#000000" fill-rule="nonzero" fill-opacity="1"></path><path clip-path="url(#clip820)" d="M96.8715 927.42 L113.191 927.42 L113.191 931.356 L91.2465 931.356 L91.2465 927.42 Q93.9086 924.666 98.4919 920.036 Q103.098 915.383 104.279 914.041 Q106.524 911.518 107.404 909.782 Q108.307 908.022 108.307 906.332 Q108.307 903.578 106.362 901.842 Q104.441 900.106 101.339 900.106 Q99.14 900.106 96.6863 900.87 Q94.2558 901.633 91.478 903.184 L91.478 898.462 Q94.3021 897.328 96.7558 896.749 Q99.2095 896.171 101.246 896.171 Q106.617 896.171 109.811 898.856 Q113.006 901.541 113.006 906.032 Q113.006 908.161 112.196 910.082 Q111.408 911.981 109.302 914.573 Q108.723 915.244 105.621 918.462 Q102.52 921.656 96.8715 927.42 Z" fill="#000000" fill-rule="nonzero" fill-opacity="1"></path><polyline clip-path="url(#clip823)" style="stroke:#000000; stroke-linecap:round; stroke-linejoin:round; stroke-width:4; stroke-opacity:1; fill:none" points="211.556,1386.89 278.615,1391.03 345.674,1394.96 412.733,1398.74 479.793,1402.42 546.852,1406.02 613.911,1409.58 680.97,1413.08 748.029,1416.51 815.089,1419.83 882.148,1423.01 949.207,1426 1016.27,1428.74 1083.33,1431.16 1150.38,1433.22 1217.44,1434.84 1284.5,1435.96 1351.56,1436.53 1418.62,1436.48 1485.68,1435.78 1552.74,1434.37 1619.8,1432.19 1686.86,1429.22 1753.92,1425.4 1820.98,1420.71 1888.04,1415.1 1955.09,1408.55 2022.15,1401.03 2089.21,1392.52 2156.27,1383.03 2223.33,1372.55 2290.39,1361.1 "></polyline>
<polyline clip-path="url(#clip823)" style="stroke:#ff0000; stroke-linecap:round; stroke-linejoin:round; stroke-width:4; stroke-opacity:1; fill:none" points="211.556,1404.36 278.615,1396.54 345.674,1390.97 412.733,1387.16 479.793,1384.62 546.852,1382.82 613.911,1381.21 680.97,1379.31 748.029,1376.66 815.089,1372.89 882.148,1367.69 949.207,1360.83 1016.27,1352.14 1083.33,1341.54 1150.38,1329.01 1217.44,1314.58 1284.5,1298.29 1351.56,1280.24 1418.62,1260.52 1485.68,1239.22 1552.74,1216.44 1619.8,1192.26 1686.86,1166.77 1753.92,1140.07 1820.98,1112.25 1888.04,1083.43 1955.09,1053.78 2022.15,1023.48 2089.21,992.811 2156.27,962.114 2223.33,931.804 2290.39,902.37 "></polyline>
<polyline clip-path="url(#clip823)" style="stroke:#0000ff; stroke-linecap:round; stroke-linejoin:round; stroke-width:4; stroke-opacity:1; fill:none" points="211.556,1393.86 278.615,1395.8 345.674,1398.02 412.733,1400.53 479.793,1403.31 546.852,1406.37 613.911,1409.67 680.97,1413.17 748.029,1416.81 815.089,1420.51 882.148,1424.17 949.207,1427.66 1016.27,1430.85 1083.33,1433.63 1150.38,1435.87 1217.44,1437.49 1284.5,1438.39 1351.56,1438.52 1418.62,1437.83 1485.68,1436.28 1552.74,1433.84 1619.8,1430.49 1686.86,1426.24 1753.92,1421.14 1820.98,1415.29 1888.04,1408.85 1955.09,1402.01 2022.15,1394.99 2089.21,1387.99 2156.27,1381.19 2223.33,1374.71 2290.39,1368.61 "></polyline>
<polyline clip-path="url(#clip823)" style="stroke:#ffa500; stroke-linecap:round; stroke-linejoin:round; stroke-width:4; stroke-opacity:1; fill:none" points="211.556,1401.64 278.615,1394.46 345.674,1388.78 412.733,1384.71 479.793,1383.53 546.852,1384.51 613.911,1385.25 680.97,1384.13 748.029,1380.84 815.089,1375.77 882.148,1369.57 949.207,1362.29 1016.27,1353.05 1083.33,1341.41 1150.38,1328.25 1217.44,1314.49 1284.5,1299.27 1351.56,1280.56 1418.62,1257.73 1485.68,1232.42 1552.74,1206.95 1619.8,1181.95 1686.86,1156 1753.92,1127.61 1820.98,1097.11 1888.04,1066.49 1955.09,1037.93 2022.15,1011.94 2089.21,986.64 2156.27,960.305 2223.33,935.959 2290.39,919.803 "></polyline>
<circle clip-path="url(#clip823)" cx="211.556" cy="1383.81" r="14.4" fill="#800080" fill-rule="evenodd" fill-opacity="1" stroke="#000000" stroke-opacity="1" stroke-width="3.2"></circle>
<circle clip-path="url(#clip823)" cx="278.615" cy="1379.41" r="14.4" fill="#800080" fill-rule="evenodd" fill-opacity="1" stroke="#000000" stroke-opacity="1" stroke-width="3.2"></circle>
<circle clip-path="url(#clip823)" cx="345.674" cy="1392.34" r="14.4" fill="#800080" fill-rule="evenodd" fill-opacity="1" stroke="#000000" stroke-opacity="1" stroke-width="3.2"></circle>
<circle clip-path="url(#clip823)" cx="412.733" cy="1361.16" r="14.4" fill="#800080" fill-rule="evenodd" fill-opacity="1" stroke="#000000" stroke-opacity="1" stroke-width="3.2"></circle>
<circle clip-path="url(#clip823)" cx="479.793" cy="1429.79" r="14.4" fill="#800080" fill-rule="evenodd" fill-opacity="1" stroke="#000000" stroke-opacity="1" stroke-width="3.2"></circle>
<circle clip-path="url(#clip823)" cx="546.852" cy="1401.53" r="14.4" fill="#800080" fill-rule="evenodd" fill-opacity="1" stroke="#000000" stroke-opacity="1" stroke-width="3.2"></circle>
<circle clip-path="url(#clip823)" cx="613.911" cy="1405.81" r="14.4" fill="#800080" fill-rule="evenodd" fill-opacity="1" stroke="#000000" stroke-opacity="1" stroke-width="3.2"></circle>
<circle clip-path="url(#clip823)" cx="680.97" cy="1409" r="14.4" fill="#800080" fill-rule="evenodd" fill-opacity="1" stroke="#000000" stroke-opacity="1" stroke-width="3.2"></circle>
<circle clip-path="url(#clip823)" cx="748.029" cy="1396.13" r="14.4" fill="#800080" fill-rule="evenodd" fill-opacity="1" stroke="#000000" stroke-opacity="1" stroke-width="3.2"></circle>
<circle clip-path="url(#clip823)" cx="815.089" cy="1469.44" r="14.4" fill="#800080" fill-rule="evenodd" fill-opacity="1" stroke="#000000" stroke-opacity="1" stroke-width="3.2"></circle>
<circle clip-path="url(#clip823)" cx="882.148" cy="1388.85" r="14.4" fill="#800080" fill-rule="evenodd" fill-opacity="1" stroke="#000000" stroke-opacity="1" stroke-width="3.2"></circle>
<circle clip-path="url(#clip823)" cx="949.207" cy="1424.8" r="14.4" fill="#800080" fill-rule="evenodd" fill-opacity="1" stroke="#000000" stroke-opacity="1" stroke-width="3.2"></circle>
<circle clip-path="url(#clip823)" cx="1016.27" cy="1450.86" r="14.4" fill="#800080" fill-rule="evenodd" fill-opacity="1" stroke="#000000" stroke-opacity="1" stroke-width="3.2"></circle>
<circle clip-path="url(#clip823)" cx="1083.33" cy="1445.54" r="14.4" fill="#800080" fill-rule="evenodd" fill-opacity="1" stroke="#000000" stroke-opacity="1" stroke-width="3.2"></circle>
<circle clip-path="url(#clip823)" cx="1150.38" cy="1424.66" r="14.4" fill="#800080" fill-rule="evenodd" fill-opacity="1" stroke="#000000" stroke-opacity="1" stroke-width="3.2"></circle>
<circle clip-path="url(#clip823)" cx="1217.44" cy="1412.03" r="14.4" fill="#800080" fill-rule="evenodd" fill-opacity="1" stroke="#000000" stroke-opacity="1" stroke-width="3.2"></circle>
<circle clip-path="url(#clip823)" cx="1284.5" cy="1455.26" r="14.4" fill="#800080" fill-rule="evenodd" fill-opacity="1" stroke="#000000" stroke-opacity="1" stroke-width="3.2"></circle>
<circle clip-path="url(#clip823)" cx="1351.56" cy="1427.24" r="14.4" fill="#800080" fill-rule="evenodd" fill-opacity="1" stroke="#000000" stroke-opacity="1" stroke-width="3.2"></circle>
<circle clip-path="url(#clip823)" cx="1418.62" cy="1440.07" r="14.4" fill="#800080" fill-rule="evenodd" fill-opacity="1" stroke="#000000" stroke-opacity="1" stroke-width="3.2"></circle>
<circle clip-path="url(#clip823)" cx="1485.68" cy="1445.34" r="14.4" fill="#800080" fill-rule="evenodd" fill-opacity="1" stroke="#000000" stroke-opacity="1" stroke-width="3.2"></circle>
<circle clip-path="url(#clip823)" cx="1552.74" cy="1432.31" r="14.4" fill="#800080" fill-rule="evenodd" fill-opacity="1" stroke="#000000" stroke-opacity="1" stroke-width="3.2"></circle>
<circle clip-path="url(#clip823)" cx="1619.8" cy="1445.45" r="14.4" fill="#800080" fill-rule="evenodd" fill-opacity="1" stroke="#000000" stroke-opacity="1" stroke-width="3.2"></circle>
<circle clip-path="url(#clip823)" cx="1686.86" cy="1417.5" r="14.4" fill="#800080" fill-rule="evenodd" fill-opacity="1" stroke="#000000" stroke-opacity="1" stroke-width="3.2"></circle>
<circle clip-path="url(#clip823)" cx="1753.92" cy="1423.58" r="14.4" fill="#800080" fill-rule="evenodd" fill-opacity="1" stroke="#000000" stroke-opacity="1" stroke-width="3.2"></circle>
<circle clip-path="url(#clip823)" cx="1820.98" cy="1447.78" r="14.4" fill="#800080" fill-rule="evenodd" fill-opacity="1" stroke="#000000" stroke-opacity="1" stroke-width="3.2"></circle>
<circle clip-path="url(#clip823)" cx="1888.04" cy="1414.56" r="14.4" fill="#800080" fill-rule="evenodd" fill-opacity="1" stroke="#000000" stroke-opacity="1" stroke-width="3.2"></circle>
<circle clip-path="url(#clip823)" cx="1955.09" cy="1399.39" r="14.4" fill="#800080" fill-rule="evenodd" fill-opacity="1" stroke="#000000" stroke-opacity="1" stroke-width="3.2"></circle>
<circle clip-path="url(#clip823)" cx="2022.15" cy="1414.72" r="14.4" fill="#800080" fill-rule="evenodd" fill-opacity="1" stroke="#000000" stroke-opacity="1" stroke-width="3.2"></circle>
<circle clip-path="url(#clip823)" cx="2089.21" cy="1378.24" r="14.4" fill="#800080" fill-rule="evenodd" fill-opacity="1" stroke="#000000" stroke-opacity="1" stroke-width="3.2"></circle>
<circle clip-path="url(#clip823)" cx="2156.27" cy="1425.3" r="14.4" fill="#800080" fill-rule="evenodd" fill-opacity="1" stroke="#000000" stroke-opacity="1" stroke-width="3.2"></circle>
<circle clip-path="url(#clip823)" cx="2223.33" cy="1379.83" r="14.4" fill="#800080" fill-rule="evenodd" fill-opacity="1" stroke="#000000" stroke-opacity="1" stroke-width="3.2"></circle>
<circle clip-path="url(#clip823)" cx="2290.39" cy="1348.26" r="14.4" fill="#800080" fill-rule="evenodd" fill-opacity="1" stroke="#000000" stroke-opacity="1" stroke-width="3.2"></circle>
<circle clip-path="url(#clip823)" cx="211.556" cy="1388.87" r="14.4" fill="#ffff00" fill-rule="evenodd" fill-opacity="1" stroke="#000000" stroke-opacity="1" stroke-width="3.2"></circle>
<circle clip-path="url(#clip823)" cx="278.615" cy="1443.58" r="14.4" fill="#ffff00" fill-rule="evenodd" fill-opacity="1" stroke="#000000" stroke-opacity="1" stroke-width="3.2"></circle>
<circle clip-path="url(#clip823)" cx="345.674" cy="1394.51" r="14.4" fill="#ffff00" fill-rule="evenodd" fill-opacity="1" stroke="#000000" stroke-opacity="1" stroke-width="3.2"></circle>
<circle clip-path="url(#clip823)" cx="412.733" cy="1387.13" r="14.4" fill="#ffff00" fill-rule="evenodd" fill-opacity="1" stroke="#000000" stroke-opacity="1" stroke-width="3.2"></circle>
<circle clip-path="url(#clip823)" cx="479.793" cy="1381.31" r="14.4" fill="#ffff00" fill-rule="evenodd" fill-opacity="1" stroke="#000000" stroke-opacity="1" stroke-width="3.2"></circle>
<circle clip-path="url(#clip823)" cx="546.852" cy="1403.96" r="14.4" fill="#ffff00" fill-rule="evenodd" fill-opacity="1" stroke="#000000" stroke-opacity="1" stroke-width="3.2"></circle>
<circle clip-path="url(#clip823)" cx="613.911" cy="1389.91" r="14.4" fill="#ffff00" fill-rule="evenodd" fill-opacity="1" stroke="#000000" stroke-opacity="1" stroke-width="3.2"></circle>
<circle clip-path="url(#clip823)" cx="680.97" cy="1336.53" r="14.4" fill="#ffff00" fill-rule="evenodd" fill-opacity="1" stroke="#000000" stroke-opacity="1" stroke-width="3.2"></circle>
<circle clip-path="url(#clip823)" cx="748.029" cy="1361.39" r="14.4" fill="#ffff00" fill-rule="evenodd" fill-opacity="1" stroke="#000000" stroke-opacity="1" stroke-width="3.2"></circle>
<circle clip-path="url(#clip823)" cx="815.089" cy="1372.74" r="14.4" fill="#ffff00" fill-rule="evenodd" fill-opacity="1" stroke="#000000" stroke-opacity="1" stroke-width="3.2"></circle>
<circle clip-path="url(#clip823)" cx="882.148" cy="1360.03" r="14.4" fill="#ffff00" fill-rule="evenodd" fill-opacity="1" stroke="#000000" stroke-opacity="1" stroke-width="3.2"></circle>
<circle clip-path="url(#clip823)" cx="949.207" cy="1356.36" r="14.4" fill="#ffff00" fill-rule="evenodd" fill-opacity="1" stroke="#000000" stroke-opacity="1" stroke-width="3.2"></circle>
<circle clip-path="url(#clip823)" cx="1016.27" cy="1363.39" r="14.4" fill="#ffff00" fill-rule="evenodd" fill-opacity="1" stroke="#000000" stroke-opacity="1" stroke-width="3.2"></circle>
<circle clip-path="url(#clip823)" cx="1083.33" cy="1364.95" r="14.4" fill="#ffff00" fill-rule="evenodd" fill-opacity="1" stroke="#000000" stroke-opacity="1" stroke-width="3.2"></circle>
<circle clip-path="url(#clip823)" cx="1150.38" cy="1331.03" r="14.4" fill="#ffff00" fill-rule="evenodd" fill-opacity="1" stroke="#000000" stroke-opacity="1" stroke-width="3.2"></circle>
<circle clip-path="url(#clip823)" cx="1217.44" cy="1308.06" r="14.4" fill="#ffff00" fill-rule="evenodd" fill-opacity="1" stroke="#000000" stroke-opacity="1" stroke-width="3.2"></circle>
<circle clip-path="url(#clip823)" cx="1284.5" cy="1314.93" r="14.4" fill="#ffff00" fill-rule="evenodd" fill-opacity="1" stroke="#000000" stroke-opacity="1" stroke-width="3.2"></circle>
<circle clip-path="url(#clip823)" cx="1351.56" cy="1269.05" r="14.4" fill="#ffff00" fill-rule="evenodd" fill-opacity="1" stroke="#000000" stroke-opacity="1" stroke-width="3.2"></circle>
<circle clip-path="url(#clip823)" cx="1418.62" cy="1266.55" r="14.4" fill="#ffff00" fill-rule="evenodd" fill-opacity="1" stroke="#000000" stroke-opacity="1" stroke-width="3.2"></circle>
<circle clip-path="url(#clip823)" cx="1485.68" cy="1261.53" r="14.4" fill="#ffff00" fill-rule="evenodd" fill-opacity="1" stroke="#000000" stroke-opacity="1" stroke-width="3.2"></circle>
<circle clip-path="url(#clip823)" cx="1552.74" cy="1236.77" r="14.4" fill="#ffff00" fill-rule="evenodd" fill-opacity="1" stroke="#000000" stroke-opacity="1" stroke-width="3.2"></circle>
<circle clip-path="url(#clip823)" cx="1619.8" cy="1196.35" r="14.4" fill="#ffff00" fill-rule="evenodd" fill-opacity="1" stroke="#000000" stroke-opacity="1" stroke-width="3.2"></circle>
<circle clip-path="url(#clip823)" cx="1686.86" cy="1140.59" r="14.4" fill="#ffff00" fill-rule="evenodd" fill-opacity="1" stroke="#000000" stroke-opacity="1" stroke-width="3.2"></circle>
<circle clip-path="url(#clip823)" cx="1753.92" cy="1141.33" r="14.4" fill="#ffff00" fill-rule="evenodd" fill-opacity="1" stroke="#000000" stroke-opacity="1" stroke-width="3.2"></circle>
<circle clip-path="url(#clip823)" cx="1820.98" cy="1167.03" r="14.4" fill="#ffff00" fill-rule="evenodd" fill-opacity="1" stroke="#000000" stroke-opacity="1" stroke-width="3.2"></circle>
<circle clip-path="url(#clip823)" cx="1888.04" cy="1046.23" r="14.4" fill="#ffff00" fill-rule="evenodd" fill-opacity="1" stroke="#000000" stroke-opacity="1" stroke-width="3.2"></circle>
<circle clip-path="url(#clip823)" cx="1955.09" cy="1039.61" r="14.4" fill="#ffff00" fill-rule="evenodd" fill-opacity="1" stroke="#000000" stroke-opacity="1" stroke-width="3.2"></circle>
<circle clip-path="url(#clip823)" cx="2022.15" cy="1045.64" r="14.4" fill="#ffff00" fill-rule="evenodd" fill-opacity="1" stroke="#000000" stroke-opacity="1" stroke-width="3.2"></circle>
<circle clip-path="url(#clip823)" cx="2089.21" cy="976.658" r="14.4" fill="#ffff00" fill-rule="evenodd" fill-opacity="1" stroke="#000000" stroke-opacity="1" stroke-width="3.2"></circle>
<circle clip-path="url(#clip823)" cx="2156.27" cy="956.265" r="14.4" fill="#ffff00" fill-rule="evenodd" fill-opacity="1" stroke="#000000" stroke-opacity="1" stroke-width="3.2"></circle>
<circle clip-path="url(#clip823)" cx="2223.33" cy="938.974" r="14.4" fill="#ffff00" fill-rule="evenodd" fill-opacity="1" stroke="#000000" stroke-opacity="1" stroke-width="3.2"></circle>
<circle clip-path="url(#clip823)" cx="2290.39" cy="945.187" r="14.4" fill="#ffff00" fill-rule="evenodd" fill-opacity="1" stroke="#000000" stroke-opacity="1" stroke-width="3.2"></circle>
<path clip-path="url(#clip820)" d="M222.643 1268.27 L588.462 1268.27 L588.462 905.394 L222.643 905.394  Z" fill="#ffffff" fill-rule="evenodd" fill-opacity="1"></path>
<polyline clip-path="url(#clip820)" style="stroke:#000000; stroke-linecap:round; stroke-linejoin:round; stroke-width:4; stroke-opacity:1; fill:none" points="222.643,1268.27 588.462,1268.27 588.462,905.394 222.643,905.394 222.643,1268.27 "></polyline>
<polyline clip-path="url(#clip820)" style="stroke:#000000; stroke-linecap:round; stroke-linejoin:round; stroke-width:4; stroke-opacity:1; fill:none" points="247.127,957.234 394.031,957.234 "></polyline>
<path clip-path="url(#clip820)" d="M437.775 958.079 L423.029 958.079 Q423.377 965.001 424.974 967.94 Q426.965 971.551 430.414 971.551 Q433.886 971.551 435.807 967.917 Q437.497 964.723 437.775 958.079 M437.705 954.144 Q437.057 947.57 435.807 945.255 Q433.816 941.598 430.414 941.598 Q426.872 941.598 424.997 945.209 Q423.515 948.126 423.076 954.144 L437.705 954.144 M430.414 938.126 Q435.969 938.126 439.14 943.033 Q442.312 947.917 442.312 956.575 Q442.312 965.209 439.14 970.116 Q435.969 975.047 430.414 975.047 Q424.835 975.047 421.687 970.116 Q418.515 965.209 418.515 956.575 Q418.515 947.917 421.687 943.033 Q424.835 938.126 430.414 938.126 Z" fill="#000000" fill-rule="nonzero" fill-opacity="1"></path><path clip-path="url(#clip820)" d="M473.122 969.584 L473.122 960.302 L465.483 960.302 L465.483 956.459 L477.751 956.459 L477.751 971.297 Q475.043 973.218 471.779 974.214 Q468.515 975.186 464.812 975.186 Q456.71 975.186 452.126 970.464 Q447.566 965.718 447.566 957.269 Q447.566 948.797 452.126 944.075 Q456.71 939.329 464.812 939.329 Q468.191 939.329 471.224 940.163 Q474.279 940.996 476.849 942.616 L476.849 947.593 Q474.256 945.394 471.339 944.283 Q468.423 943.172 465.205 943.172 Q458.862 943.172 455.668 946.714 Q452.497 950.255 452.497 957.269 Q452.497 964.26 455.668 967.802 Q458.862 971.343 465.205 971.343 Q467.682 971.343 469.626 970.926 Q471.571 970.487 473.122 969.584 Z" fill="#000000" fill-rule="nonzero" fill-opacity="1"></path><path clip-path="url(#clip820)" d="M479.811 939.954 L509.047 939.954 L509.047 943.89 L496.779 943.89 L496.779 974.514 L492.08 974.514 L492.08 943.89 L479.811 943.89 L479.811 939.954 Z" fill="#000000" fill-rule="nonzero" fill-opacity="1"></path><polyline clip-path="url(#clip820)" style="stroke:#ff0000; stroke-linecap:round; stroke-linejoin:round; stroke-width:4; stroke-opacity:1; fill:none" points="247.127,1009.07 394.031,1009.07 "></polyline>
<path clip-path="url(#clip820)" d="M428.122 1027.03 Q418.515 1027.03 418.515 1013.28 Q418.515 1007.84 422.103 1000.43 L426.687 1000.43 Q423.377 1007.84 423.377 1013.39 Q423.377 1023.41 428.515 1023.41 Q433.214 1023.41 433.214 1010.96 L437.15 1010.96 Q437.15 1023.41 441.849 1023.41 Q446.988 1023.41 446.988 1013.39 Q446.988 1007.84 443.677 1000.43 L448.261 1000.43 Q451.849 1007.84 451.849 1013.28 Q451.849 1027.03 442.242 1027.03 Q435.946 1027.03 435.182 1020.1 Q434.233 1027.03 428.122 1027.03 Z" fill="#000000" fill-rule="nonzero" fill-opacity="1"></path><path clip-path="url(#clip820)" d="M483.307 1021.42 L483.307 1012.14 L475.668 1012.14 L475.668 1008.3 L487.936 1008.3 L487.936 1023.14 Q485.228 1025.06 481.964 1026.05 Q478.7 1027.03 474.997 1027.03 Q466.895 1027.03 462.312 1022.3 Q457.751 1017.56 457.751 1009.11 Q457.751 1000.64 462.312 995.915 Q466.895 991.169 474.997 991.169 Q478.376 991.169 481.409 992.003 Q484.464 992.836 487.034 994.456 L487.034 999.433 Q484.441 997.234 481.524 996.123 Q478.608 995.012 475.39 995.012 Q469.048 995.012 465.853 998.554 Q462.682 1002.1 462.682 1009.11 Q462.682 1016.1 465.853 1019.64 Q469.048 1023.18 475.39 1023.18 Q477.867 1023.18 479.811 1022.77 Q481.756 1022.33 483.307 1021.42 Z" fill="#000000" fill-rule="nonzero" fill-opacity="1"></path><path clip-path="url(#clip820)" d="M489.997 991.794 L519.233 991.794 L519.233 995.73 L506.964 995.73 L506.964 1026.35 L502.265 1026.35 L502.265 995.73 L489.997 995.73 L489.997 991.794 Z" fill="#000000" fill-rule="nonzero" fill-opacity="1"></path><polyline clip-path="url(#clip820)" style="stroke:#0000ff; stroke-linecap:round; stroke-linejoin:round; stroke-width:4; stroke-opacity:1; fill:none" points="247.127,1060.91 394.031,1060.91 "></polyline>
<path clip-path="url(#clip820)" d="M437.775 1061.76 L423.029 1061.76 Q423.377 1068.68 424.974 1071.62 Q426.965 1075.23 430.414 1075.23 Q433.886 1075.23 435.807 1071.6 Q437.497 1068.4 437.775 1061.76 M437.705 1057.82 Q437.057 1051.25 435.807 1048.94 Q433.816 1045.28 430.414 1045.28 Q426.872 1045.28 424.997 1048.89 Q423.515 1051.81 423.076 1057.82 L437.705 1057.82 M430.414 1041.81 Q435.969 1041.81 439.14 1046.71 Q442.312 1051.6 442.312 1060.25 Q442.312 1068.89 439.14 1073.8 Q435.969 1078.73 430.414 1078.73 Q424.835 1078.73 421.687 1073.8 Q418.515 1068.89 418.515 1060.25 Q418.515 1051.6 421.687 1046.71 Q424.835 1041.81 430.414 1041.81 Z" fill="#000000" fill-rule="nonzero" fill-opacity="1"></path><path clip-path="url(#clip820)" d="M454.233 1047.48 L454.233 1060.46 L460.112 1060.46 Q463.376 1060.46 465.159 1058.77 Q466.941 1057.08 466.941 1053.96 Q466.941 1050.86 465.159 1049.17 Q463.376 1047.48 460.112 1047.48 L454.233 1047.48 M449.557 1043.63 L460.112 1043.63 Q465.923 1043.63 468.886 1046.27 Q471.872 1048.89 471.872 1053.96 Q471.872 1059.07 468.886 1061.69 Q465.923 1064.31 460.112 1064.31 L454.233 1064.31 L454.233 1078.19 L449.557 1078.19 L449.557 1043.63 Z" fill="#000000" fill-rule="nonzero" fill-opacity="1"></path><path clip-path="url(#clip820)" d="M492.149 1056.25 Q491.432 1055.83 490.575 1055.65 Q489.742 1055.44 488.723 1055.44 Q485.112 1055.44 483.168 1057.8 Q481.247 1060.14 481.247 1064.54 L481.247 1078.19 L476.964 1078.19 L476.964 1052.27 L481.247 1052.27 L481.247 1056.3 Q482.589 1053.94 484.742 1052.8 Q486.895 1051.64 489.973 1051.64 Q490.413 1051.64 490.946 1051.71 Q491.478 1051.76 492.126 1051.88 L492.149 1056.25 Z" fill="#000000" fill-rule="nonzero" fill-opacity="1"></path><path clip-path="url(#clip820)" d="M517.751 1064.17 L517.751 1066.25 L498.168 1066.25 Q498.446 1070.65 500.807 1072.96 Q503.191 1075.25 507.427 1075.25 Q509.881 1075.25 512.172 1074.65 Q514.487 1074.05 516.756 1072.85 L516.756 1076.87 Q514.464 1077.85 512.057 1078.36 Q509.649 1078.87 507.172 1078.87 Q500.969 1078.87 497.335 1075.25 Q493.723 1071.64 493.723 1065.49 Q493.723 1059.12 497.149 1055.39 Q500.598 1051.64 506.432 1051.64 Q511.663 1051.64 514.696 1055.02 Q517.751 1058.38 517.751 1064.17 M513.492 1062.92 Q513.446 1059.42 511.524 1057.34 Q509.626 1055.25 506.478 1055.25 Q502.913 1055.25 500.76 1057.27 Q498.631 1059.28 498.307 1062.94 L513.492 1062.92 Z" fill="#000000" fill-rule="nonzero" fill-opacity="1"></path><path clip-path="url(#clip820)" d="M541.802 1056.2 L541.802 1042.18 L546.061 1042.18 L546.061 1078.19 L541.802 1078.19 L541.802 1074.31 Q540.459 1076.62 538.399 1077.75 Q536.362 1078.87 533.492 1078.87 Q528.793 1078.87 525.83 1075.12 Q522.89 1071.37 522.89 1065.25 Q522.89 1059.14 525.83 1055.39 Q528.793 1051.64 533.492 1051.64 Q536.362 1051.64 538.399 1052.78 Q540.459 1053.89 541.802 1056.2 M527.288 1065.25 Q527.288 1069.95 529.209 1072.64 Q531.154 1075.3 534.533 1075.3 Q537.913 1075.3 539.857 1072.64 Q541.802 1069.95 541.802 1065.25 Q541.802 1060.56 539.857 1057.89 Q537.913 1055.21 534.533 1055.21 Q531.154 1055.21 529.209 1057.89 Q527.288 1060.56 527.288 1065.25 Z" fill="#000000" fill-rule="nonzero" fill-opacity="1"></path><polyline clip-path="url(#clip820)" style="stroke:#ffa500; stroke-linecap:round; stroke-linejoin:round; stroke-width:4; stroke-opacity:1; fill:none" points="247.127,1112.75 394.031,1112.75 "></polyline>
<path clip-path="url(#clip820)" d="M428.122 1130.71 Q418.515 1130.71 418.515 1116.96 Q418.515 1111.52 422.103 1104.11 L426.687 1104.11 Q423.377 1111.52 423.377 1117.07 Q423.377 1127.09 428.515 1127.09 Q433.214 1127.09 433.214 1114.64 L437.15 1114.64 Q437.15 1127.09 441.849 1127.09 Q446.988 1127.09 446.988 1117.07 Q446.988 1111.52 443.677 1104.11 L448.261 1104.11 Q451.849 1111.52 451.849 1116.96 Q451.849 1130.71 442.242 1130.71 Q435.946 1130.71 435.182 1123.78 Q434.233 1130.71 428.122 1130.71 Z" fill="#000000" fill-rule="nonzero" fill-opacity="1"></path><path clip-path="url(#clip820)" d="M464.418 1099.32 L464.418 1112.3 L470.298 1112.3 Q473.561 1112.3 475.344 1110.61 Q477.126 1108.92 477.126 1105.8 Q477.126 1102.7 475.344 1101.01 Q473.561 1099.32 470.298 1099.32 L464.418 1099.32 M459.742 1095.47 L470.298 1095.47 Q476.108 1095.47 479.071 1098.11 Q482.057 1100.73 482.057 1105.8 Q482.057 1110.91 479.071 1113.53 Q476.108 1116.15 470.298 1116.15 L464.418 1116.15 L464.418 1130.03 L459.742 1130.03 L459.742 1095.47 Z" fill="#000000" fill-rule="nonzero" fill-opacity="1"></path><path clip-path="url(#clip820)" d="M502.334 1108.09 Q501.617 1107.67 500.76 1107.49 Q499.927 1107.28 498.909 1107.28 Q495.297 1107.28 493.353 1109.64 Q491.432 1111.98 491.432 1116.38 L491.432 1130.03 L487.149 1130.03 L487.149 1104.11 L491.432 1104.11 L491.432 1108.14 Q492.774 1105.78 494.927 1104.64 Q497.08 1103.48 500.159 1103.48 Q500.598 1103.48 501.131 1103.55 Q501.663 1103.6 502.311 1103.72 L502.334 1108.09 Z" fill="#000000" fill-rule="nonzero" fill-opacity="1"></path><path clip-path="url(#clip820)" d="M527.936 1116.01 L527.936 1118.09 L508.353 1118.09 Q508.631 1122.49 510.992 1124.8 Q513.376 1127.09 517.612 1127.09 Q520.066 1127.09 522.358 1126.49 Q524.672 1125.89 526.941 1124.69 L526.941 1128.71 Q524.649 1129.69 522.242 1130.2 Q519.834 1130.71 517.358 1130.71 Q511.154 1130.71 507.52 1127.09 Q503.909 1123.48 503.909 1117.33 Q503.909 1110.96 507.334 1107.23 Q510.784 1103.48 516.617 1103.48 Q521.848 1103.48 524.881 1106.86 Q527.936 1110.22 527.936 1116.01 M523.677 1114.76 Q523.631 1111.26 521.709 1109.18 Q519.811 1107.09 516.663 1107.09 Q513.098 1107.09 510.946 1109.11 Q508.816 1111.12 508.492 1114.78 L523.677 1114.76 Z" fill="#000000" fill-rule="nonzero" fill-opacity="1"></path><path clip-path="url(#clip820)" d="M551.987 1108.04 L551.987 1094.02 L556.246 1094.02 L556.246 1130.03 L551.987 1130.03 L551.987 1126.15 Q550.644 1128.46 548.584 1129.59 Q546.547 1130.71 543.677 1130.71 Q538.978 1130.71 536.015 1126.96 Q533.075 1123.21 533.075 1117.09 Q533.075 1110.98 536.015 1107.23 Q538.978 1103.48 543.677 1103.48 Q546.547 1103.48 548.584 1104.62 Q550.644 1105.73 551.987 1108.04 M537.473 1117.09 Q537.473 1121.79 539.394 1124.48 Q541.339 1127.14 544.719 1127.14 Q548.098 1127.14 550.043 1124.48 Q551.987 1121.79 551.987 1117.09 Q551.987 1112.4 550.043 1109.73 Q548.098 1107.05 544.719 1107.05 Q541.339 1107.05 539.394 1109.73 Q537.473 1112.4 537.473 1117.09 Z" fill="#000000" fill-rule="nonzero" fill-opacity="1"></path><circle clip-path="url(#clip820)" cx="320.579" cy="1164.59" r="20.48" fill="#800080" fill-rule="evenodd" fill-opacity="1" stroke="#000000" stroke-opacity="1" stroke-width="4.55111"></circle>
<path clip-path="url(#clip820)" d="M437.775 1165.44 L423.029 1165.44 Q423.377 1172.36 424.974 1175.3 Q426.965 1178.91 430.414 1178.91 Q433.886 1178.91 435.807 1175.28 Q437.497 1172.08 437.775 1165.44 M437.705 1161.5 Q437.057 1154.93 435.807 1152.62 Q433.816 1148.96 430.414 1148.96 Q426.872 1148.96 424.997 1152.57 Q423.515 1155.49 423.076 1161.5 L437.705 1161.5 M430.414 1145.49 Q435.969 1145.49 439.14 1150.39 Q442.312 1155.28 442.312 1163.93 Q442.312 1172.57 439.14 1177.48 Q435.969 1182.41 430.414 1182.41 Q424.835 1182.41 421.687 1177.48 Q418.515 1172.57 418.515 1163.93 Q418.515 1155.28 421.687 1150.39 Q424.835 1145.49 430.414 1145.49 Z" fill="#000000" fill-rule="nonzero" fill-opacity="1"></path><path clip-path="url(#clip820)" d="M454.233 1151.16 L454.233 1178.03 L459.881 1178.03 Q467.034 1178.03 470.344 1174.79 Q473.677 1171.55 473.677 1164.56 Q473.677 1157.62 470.344 1154.4 Q467.034 1151.16 459.881 1151.16 L454.233 1151.16 M449.557 1147.31 L459.163 1147.31 Q469.21 1147.31 473.909 1151.5 Q478.608 1155.67 478.608 1164.56 Q478.608 1173.49 473.886 1177.68 Q469.163 1181.87 459.163 1181.87 L449.557 1181.87 L449.557 1147.31 Z" fill="#000000" fill-rule="nonzero" fill-opacity="1"></path><path clip-path="url(#clip820)" d="M497.659 1168.84 Q492.497 1168.84 490.506 1170.02 Q488.515 1171.2 488.515 1174.05 Q488.515 1176.32 489.997 1177.66 Q491.501 1178.98 494.071 1178.98 Q497.612 1178.98 499.742 1176.48 Q501.895 1173.96 501.895 1169.79 L501.895 1168.84 L497.659 1168.84 M506.154 1167.08 L506.154 1181.87 L501.895 1181.87 L501.895 1177.94 Q500.436 1180.3 498.26 1181.43 Q496.085 1182.55 492.936 1182.55 Q488.955 1182.55 486.594 1180.32 Q484.256 1178.08 484.256 1174.33 Q484.256 1169.95 487.173 1167.73 Q490.112 1165.51 495.922 1165.51 L501.895 1165.51 L501.895 1165.09 Q501.895 1162.15 499.95 1160.56 Q498.029 1158.93 494.534 1158.93 Q492.311 1158.93 490.205 1159.47 Q488.098 1160 486.154 1161.06 L486.154 1157.13 Q488.492 1156.23 490.691 1155.79 Q492.89 1155.32 494.973 1155.32 Q500.598 1155.32 503.376 1158.24 Q506.154 1161.16 506.154 1167.08 Z" fill="#000000" fill-rule="nonzero" fill-opacity="1"></path><path clip-path="url(#clip820)" d="M519.14 1148.59 L519.14 1155.95 L527.913 1155.95 L527.913 1159.26 L519.14 1159.26 L519.14 1173.33 Q519.14 1176.5 519.996 1177.41 Q520.876 1178.31 523.538 1178.31 L527.913 1178.31 L527.913 1181.87 L523.538 1181.87 Q518.608 1181.87 516.733 1180.05 Q514.858 1178.19 514.858 1173.33 L514.858 1159.26 L511.733 1159.26 L511.733 1155.95 L514.858 1155.95 L514.858 1148.59 L519.14 1148.59 Z" fill="#000000" fill-rule="nonzero" fill-opacity="1"></path><path clip-path="url(#clip820)" d="M545.297 1168.84 Q540.135 1168.84 538.144 1170.02 Q536.154 1171.2 536.154 1174.05 Q536.154 1176.32 537.635 1177.66 Q539.14 1178.98 541.709 1178.98 Q545.251 1178.98 547.381 1176.48 Q549.533 1173.96 549.533 1169.79 L549.533 1168.84 L545.297 1168.84 M553.793 1167.08 L553.793 1181.87 L549.533 1181.87 L549.533 1177.94 Q548.075 1180.3 545.899 1181.43 Q543.723 1182.55 540.575 1182.55 Q536.594 1182.55 534.232 1180.32 Q531.895 1178.08 531.895 1174.33 Q531.895 1169.95 534.811 1167.73 Q537.751 1165.51 543.561 1165.51 L549.533 1165.51 L549.533 1165.09 Q549.533 1162.15 547.589 1160.56 Q545.668 1158.93 542.172 1158.93 Q539.95 1158.93 537.844 1159.47 Q535.737 1160 533.793 1161.06 L533.793 1157.13 Q536.131 1156.23 538.33 1155.79 Q540.529 1155.32 542.612 1155.32 Q548.237 1155.32 551.015 1158.24 Q553.793 1161.16 553.793 1167.08 Z" fill="#000000" fill-rule="nonzero" fill-opacity="1"></path><circle clip-path="url(#clip820)" cx="320.579" cy="1216.43" r="20.48" fill="#ffff00" fill-rule="evenodd" fill-opacity="1" stroke="#000000" stroke-opacity="1" stroke-width="4.55111"></circle>
<path clip-path="url(#clip820)" d="M428.122 1234.39 Q418.515 1234.39 418.515 1220.64 Q418.515 1215.2 422.103 1207.79 L426.687 1207.79 Q423.377 1215.2 423.377 1220.75 Q423.377 1230.77 428.515 1230.77 Q433.214 1230.77 433.214 1218.32 L437.15 1218.32 Q437.15 1230.77 441.849 1230.77 Q446.988 1230.77 446.988 1220.75 Q446.988 1215.2 443.677 1207.79 L448.261 1207.79 Q451.849 1215.2 451.849 1220.64 Q451.849 1234.39 442.242 1234.39 Q435.946 1234.39 435.182 1227.46 Q434.233 1234.39 428.122 1234.39 Z" fill="#000000" fill-rule="nonzero" fill-opacity="1"></path><path clip-path="url(#clip820)" d="M464.418 1203 L464.418 1229.87 L470.066 1229.87 Q477.219 1229.87 480.529 1226.63 Q483.862 1223.39 483.862 1216.4 Q483.862 1209.46 480.529 1206.24 Q477.219 1203 470.066 1203 L464.418 1203 M459.742 1199.15 L469.349 1199.15 Q479.395 1199.15 484.094 1203.34 Q488.793 1207.51 488.793 1216.4 Q488.793 1225.33 484.071 1229.52 Q479.348 1233.71 469.349 1233.71 L459.742 1233.71 L459.742 1199.15 Z" fill="#000000" fill-rule="nonzero" fill-opacity="1"></path><path clip-path="url(#clip820)" d="M507.844 1220.68 Q502.682 1220.68 500.691 1221.86 Q498.7 1223.04 498.7 1225.89 Q498.7 1228.16 500.182 1229.5 Q501.686 1230.82 504.256 1230.82 Q507.797 1230.82 509.927 1228.32 Q512.08 1225.8 512.08 1221.63 L512.08 1220.68 L507.844 1220.68 M516.339 1218.92 L516.339 1233.71 L512.08 1233.71 L512.08 1229.78 Q510.621 1232.14 508.446 1233.27 Q506.27 1234.39 503.122 1234.39 Q499.14 1234.39 496.779 1232.16 Q494.441 1229.92 494.441 1226.17 Q494.441 1221.79 497.358 1219.57 Q500.297 1217.35 506.108 1217.35 L512.08 1217.35 L512.08 1216.93 Q512.08 1213.99 510.135 1212.4 Q508.214 1210.77 504.719 1210.77 Q502.497 1210.77 500.39 1211.31 Q498.284 1211.84 496.339 1212.9 L496.339 1208.97 Q498.677 1208.07 500.876 1207.63 Q503.075 1207.16 505.159 1207.16 Q510.784 1207.16 513.561 1210.08 Q516.339 1213 516.339 1218.92 Z" fill="#000000" fill-rule="nonzero" fill-opacity="1"></path><path clip-path="url(#clip820)" d="M529.325 1200.43 L529.325 1207.79 L538.098 1207.79 L538.098 1211.1 L529.325 1211.1 L529.325 1225.17 Q529.325 1228.34 530.182 1229.25 Q531.061 1230.15 533.723 1230.15 L538.098 1230.15 L538.098 1233.71 L533.723 1233.71 Q528.793 1233.71 526.918 1231.89 Q525.043 1230.03 525.043 1225.17 L525.043 1211.1 L521.918 1211.1 L521.918 1207.79 L525.043 1207.79 L525.043 1200.43 L529.325 1200.43 Z" fill="#000000" fill-rule="nonzero" fill-opacity="1"></path><path clip-path="url(#clip820)" d="M555.482 1220.68 Q550.32 1220.68 548.33 1221.86 Q546.339 1223.04 546.339 1225.89 Q546.339 1228.16 547.82 1229.5 Q549.325 1230.82 551.894 1230.82 Q555.436 1230.82 557.566 1228.32 Q559.718 1225.8 559.718 1221.63 L559.718 1220.68 L555.482 1220.68 M563.978 1218.92 L563.978 1233.71 L559.718 1233.71 L559.718 1229.78 Q558.26 1232.14 556.084 1233.27 Q553.908 1234.39 550.76 1234.39 Q546.779 1234.39 544.418 1232.16 Q542.08 1229.92 542.08 1226.17 Q542.08 1221.79 544.996 1219.57 Q547.936 1217.35 553.746 1217.35 L559.718 1217.35 L559.718 1216.93 Q559.718 1213.99 557.774 1212.4 Q555.853 1210.77 552.357 1210.77 Q550.135 1210.77 548.029 1211.31 Q545.922 1211.84 543.978 1212.9 L543.978 1208.97 Q546.316 1208.07 548.515 1207.63 Q550.714 1207.16 552.797 1207.16 Q558.422 1207.16 561.2 1210.08 Q563.978 1213 563.978 1218.92 Z" fill="#000000" fill-rule="nonzero" fill-opacity="1"></path></svg>