<svg xmlns="http://www.w3.org/2000/svg" xmlns:xlink="http://www.w3.org/1999/xlink" width="600" height="400" viewBox="0 0 2400 1600">
<defs>
  <clipPath id="clip260">
    <rect x="0" y="0" width="2400" height="1600"></rect>
  </clipPath>
</defs>
<path clip-path="url(#clip260)" d="M0 1600 L2400 1600 L2400 0 L0 0  Z" fill="#ffffff" fill-rule="evenodd" fill-opacity="1"></path>
<defs>
  <clipPath id="clip261">
    <rect x="480" y="0" width="1681" height="1600"></rect>
  </clipPath>
</defs>
<path clip-path="url(#clip260)" d="M186.274 724.562 L2352.76 724.562 L2352.76 123.472 L186.274 123.472  Z" fill="#ffffff" fill-rule="evenodd" fill-opacity="1"></path>
<defs>
  <clipPath id="clip262">
    <rect x="186" y="123" width="2167" height="602"></rect>
  </clipPath>
</defs>
<polyline clip-path="url(#clip262)" style="stroke:#000000; stroke-linecap:round; stroke-linejoin:round; stroke-width:2; stroke-opacity:0.1; fill:none" points="247.59,724.562 247.59,123.472 "></polyline>
<polyline clip-path="url(#clip262)" style="stroke:#000000; stroke-linecap:round; stroke-linejoin:round; stroke-width:2; stroke-opacity:0.1; fill:none" points="758.552,724.562 758.552,123.472 "></polyline>
<polyline clip-path="url(#clip262)" style="stroke:#000000; stroke-linecap:round; stroke-linejoin:round; stroke-width:2; stroke-opacity:0.1; fill:none" points="1269.51,724.562 1269.51,123.472 "></polyline>
<polyline clip-path="url(#clip262)" style="stroke:#000000; stroke-linecap:round; stroke-linejoin:round; stroke-width:2; stroke-opacity:0.1; fill:none" points="1780.48,724.562 1780.48,123.472 "></polyline>
<polyline clip-path="url(#clip262)" style="stroke:#000000; stroke-linecap:round; stroke-linejoin:round; stroke-width:2; stroke-opacity:0.1; fill:none" points="2291.44,724.562 2291.44,123.472 "></polyline>
<polyline clip-path="url(#clip260)" style="stroke:#000000; stroke-linecap:round; stroke-linejoin:round; stroke-width:4; stroke-opacity:1; fill:none" points="186.274,724.562 2352.76,724.562 "></polyline>
<polyline clip-path="url(#clip260)" style="stroke:#000000; stroke-linecap:round; stroke-linejoin:round; stroke-width:4; stroke-opacity:1; fill:none" points="247.59,724.562 247.59,705.664 "></polyline>
<polyline clip-path="url(#clip260)" style="stroke:#000000; stroke-linecap:round; stroke-linejoin:round; stroke-width:4; stroke-opacity:1; fill:none" points="758.552,724.562 758.552,705.664 "></polyline>
<polyline clip-path="url(#clip260)" style="stroke:#000000; stroke-linecap:round; stroke-linejoin:round; stroke-width:4; stroke-opacity:1; fill:none" points="1269.51,724.562 1269.51,705.664 "></polyline>
<polyline clip-path="url(#clip260)" style="stroke:#000000; stroke-linecap:round; stroke-linejoin:round; stroke-width:4; stroke-opacity:1; fill:none" points="1780.48,724.562 1780.48,705.664 "></polyline>
<polyline clip-path="url(#clip260)" style="stroke:#000000; stroke-linecap:round; stroke-linejoin:round; stroke-width:4; stroke-opacity:1; fill:none" points="2291.44,724.562 2291.44,705.664 "></polyline>
<path clip-path="url(#clip260)" d="M209.893 755.481 Q206.282 755.481 204.453 759.045 Q202.648 762.587 202.648 769.717 Q202.648 776.823 204.453 780.388 Q206.282 783.929 209.893 783.929 Q213.527 783.929 215.333 780.388 Q217.161 776.823 217.161 769.717 Q217.161 762.587 215.333 759.045 Q213.527 755.481 209.893 755.481 M209.893 751.777 Q215.703 751.777 218.759 756.383 Q221.837 760.967 221.837 769.717 Q221.837 778.443 218.759 783.05 Q215.703 787.633 209.893 787.633 Q204.083 787.633 201.004 783.05 Q197.949 778.443 197.949 769.717 Q197.949 760.967 201.004 756.383 Q204.083 751.777 209.893 751.777 Z" fill="#000000" fill-rule="nonzero" fill-opacity="1"></path><path clip-path="url(#clip260)" d="M230.055 781.082 L234.939 781.082 L234.939 786.962 L230.055 786.962 L230.055 781.082 Z" fill="#000000" fill-rule="nonzero" fill-opacity="1"></path><path clip-path="url(#clip260)" d="M255.124 755.481 Q251.513 755.481 249.684 759.045 Q247.879 762.587 247.879 769.717 Q247.879 776.823 249.684 780.388 Q251.513 783.929 255.124 783.929 Q258.758 783.929 260.564 780.388 Q262.393 776.823 262.393 769.717 Q262.393 762.587 260.564 759.045 Q258.758 755.481 255.124 755.481 M255.124 751.777 Q260.934 751.777 263.99 756.383 Q267.069 760.967 267.069 769.717 Q267.069 778.443 263.99 783.05 Q260.934 787.633 255.124 787.633 Q249.314 787.633 246.235 783.05 Q243.18 778.443 243.18 769.717 Q243.18 760.967 246.235 756.383 Q249.314 751.777 255.124 751.777 Z" fill="#000000" fill-rule="nonzero" fill-opacity="1"></path><path clip-path="url(#clip260)" d="M285.286 755.481 Q281.675 755.481 279.846 759.045 Q278.041 762.587 278.041 769.717 Q278.041 776.823 279.846 780.388 Q281.675 783.929 285.286 783.929 Q288.92 783.929 290.726 780.388 Q292.555 776.823 292.555 769.717 Q292.555 762.587 290.726 759.045 Q288.92 755.481 285.286 755.481 M285.286 751.777 Q291.096 751.777 294.152 756.383 Q297.23 760.967 297.23 769.717 Q297.23 778.443 294.152 783.05 Q291.096 787.633 285.286 787.633 Q279.476 787.633 276.397 783.05 Q273.342 778.443 273.342 769.717 Q273.342 760.967 276.397 756.383 Q279.476 751.777 285.286 751.777 Z" fill="#000000" fill-rule="nonzero" fill-opacity="1"></path><path clip-path="url(#clip260)" d="M721.353 755.481 Q717.742 755.481 715.914 759.045 Q714.108 762.587 714.108 769.717 Q714.108 776.823 715.914 780.388 Q717.742 783.929 721.353 783.929 Q724.988 783.929 726.793 780.388 Q728.622 776.823 728.622 769.717 Q728.622 762.587 726.793 759.045 Q724.988 755.481 721.353 755.481 M721.353 751.777 Q727.164 751.777 730.219 756.383 Q733.298 760.967 733.298 769.717 Q733.298 778.443 730.219 783.05 Q727.164 787.633 721.353 787.633 Q715.543 787.633 712.465 783.05 Q709.409 778.443 709.409 769.717 Q709.409 760.967 712.465 756.383 Q715.543 751.777 721.353 751.777 Z" fill="#000000" fill-rule="nonzero" fill-opacity="1"></path><path clip-path="url(#clip260)" d="M741.515 781.082 L746.4 781.082 L746.4 786.962 L741.515 786.962 L741.515 781.082 Z" fill="#000000" fill-rule="nonzero" fill-opacity="1"></path><path clip-path="url(#clip260)" d="M760.612 783.027 L776.932 783.027 L776.932 786.962 L754.987 786.962 L754.987 783.027 Q757.649 780.272 762.233 775.643 Q766.839 770.99 768.02 769.647 Q770.265 767.124 771.145 765.388 Q772.048 763.629 772.048 761.939 Q772.048 759.184 770.103 757.448 Q768.182 755.712 765.08 755.712 Q762.881 755.712 760.427 756.476 Q757.997 757.24 755.219 758.791 L755.219 754.069 Q758.043 752.934 760.497 752.356 Q762.95 751.777 764.987 751.777 Q770.358 751.777 773.552 754.462 Q776.747 757.147 776.747 761.638 Q776.747 763.768 775.936 765.689 Q775.149 767.587 773.043 770.18 Q772.464 770.851 769.362 774.068 Q766.261 777.263 760.612 783.027 Z" fill="#000000" fill-rule="nonzero" fill-opacity="1"></path><path clip-path="url(#clip260)" d="M786.793 752.402 L805.149 752.402 L805.149 756.337 L791.075 756.337 L791.075 764.809 Q792.094 764.462 793.112 764.3 Q794.131 764.115 795.149 764.115 Q800.936 764.115 804.316 767.286 Q807.695 770.457 807.695 775.874 Q807.695 781.453 804.223 784.554 Q800.751 787.633 794.432 787.633 Q792.256 787.633 789.987 787.263 Q787.742 786.892 785.335 786.152 L785.335 781.453 Q787.418 782.587 789.64 783.142 Q791.862 783.698 794.339 783.698 Q798.344 783.698 800.682 781.592 Q803.02 779.485 803.02 775.874 Q803.02 772.263 800.682 770.156 Q798.344 768.05 794.339 768.05 Q792.464 768.05 790.589 768.467 Q788.737 768.883 786.793 769.763 L786.793 752.402 Z" fill="#000000" fill-rule="nonzero" fill-opacity="1"></path><path clip-path="url(#clip260)" d="M1231.82 755.481 Q1228.21 755.481 1226.38 759.045 Q1224.57 762.587 1224.57 769.717 Q1224.57 776.823 1226.38 780.388 Q1228.21 783.929 1231.82 783.929 Q1235.45 783.929 1237.26 780.388 Q1239.09 776.823 1239.09 769.717 Q1239.09 762.587 1237.26 759.045 Q1235.45 755.481 1231.82 755.481 M1231.82 751.777 Q1237.63 751.777 1240.68 756.383 Q1243.76 760.967 1243.76 769.717 Q1243.76 778.443 1240.68 783.05 Q1237.63 787.633 1231.82 787.633 Q1226.01 787.633 1222.93 783.05 Q1219.87 778.443 1219.87 769.717 Q1219.87 760.967 1222.93 756.383 Q1226.01 751.777 1231.82 751.777 Z" fill="#000000" fill-rule="nonzero" fill-opacity="1"></path><path clip-path="url(#clip260)" d="M1251.98 781.082 L1256.86 781.082 L1256.86 786.962 L1251.98 786.962 L1251.98 781.082 Z" fill="#000000" fill-rule="nonzero" fill-opacity="1"></path><path clip-path="url(#clip260)" d="M1267.1 752.402 L1285.45 752.402 L1285.45 756.337 L1271.38 756.337 L1271.38 764.809 Q1272.4 764.462 1273.42 764.3 Q1274.43 764.115 1275.45 764.115 Q1281.24 764.115 1284.62 767.286 Q1288 770.457 1288 775.874 Q1288 781.453 1284.53 784.554 Q1281.05 787.633 1274.73 787.633 Q1272.56 787.633 1270.29 787.263 Q1268.05 786.892 1265.64 786.152 L1265.64 781.453 Q1267.72 782.587 1269.94 783.142 Q1272.17 783.698 1274.64 783.698 Q1278.65 783.698 1280.98 781.592 Q1283.32 779.485 1283.32 775.874 Q1283.32 772.263 1280.98 770.156 Q1278.65 768.05 1274.64 768.05 Q1272.77 768.05 1270.89 768.467 Q1269.04 768.883 1267.1 769.763 L1267.1 752.402 Z" fill="#000000" fill-rule="nonzero" fill-opacity="1"></path><path clip-path="url(#clip260)" d="M1307.21 755.481 Q1303.6 755.481 1301.77 759.045 Q1299.97 762.587 1299.97 769.717 Q1299.97 776.823 1301.77 780.388 Q1303.6 783.929 1307.21 783.929 Q1310.85 783.929 1312.65 780.388 Q1314.48 776.823 1314.48 769.717 Q1314.48 762.587 1312.65 759.045 Q1310.85 755.481 1307.21 755.481 M1307.21 751.777 Q1313.02 751.777 1316.08 756.383 Q1319.16 760.967 1319.16 769.717 Q1319.16 778.443 1316.08 783.05 Q1313.02 787.633 1307.21 787.633 Q1301.4 787.633 1298.32 783.05 Q1295.27 778.443 1295.27 769.717 Q1295.27 760.967 1298.32 756.383 Q1301.4 751.777 1307.21 751.777 Z" fill="#000000" fill-rule="nonzero" fill-opacity="1"></path><path clip-path="url(#clip260)" d="M1743.28 755.481 Q1739.67 755.481 1737.84 759.045 Q1736.03 762.587 1736.03 769.717 Q1736.03 776.823 1737.84 780.388 Q1739.67 783.929 1743.28 783.929 Q1746.91 783.929 1748.72 780.388 Q1750.55 776.823 1750.55 769.717 Q1750.55 762.587 1748.72 759.045 Q1746.91 755.481 1743.28 755.481 M1743.28 751.777 Q1749.09 751.777 1752.14 756.383 Q1755.22 760.967 1755.22 769.717 Q1755.22 778.443 1752.14 783.05 Q1749.09 787.633 1743.28 787.633 Q1737.47 787.633 1734.39 783.05 Q1731.33 778.443 1731.33 769.717 Q1731.33 760.967 1734.39 756.383 Q1737.47 751.777 1743.28 751.777 Z" fill="#000000" fill-rule="nonzero" fill-opacity="1"></path><path clip-path="url(#clip260)" d="M1763.44 781.082 L1768.32 781.082 L1768.32 786.962 L1763.44 786.962 L1763.44 781.082 Z" fill="#000000" fill-rule="nonzero" fill-opacity="1"></path><path clip-path="url(#clip260)" d="M1777.33 752.402 L1799.55 752.402 L1799.55 754.393 L1787.01 786.962 L1782.12 786.962 L1793.93 756.337 L1777.33 756.337 L1777.33 752.402 Z" fill="#000000" fill-rule="nonzero" fill-opacity="1"></path><path clip-path="url(#clip260)" d="M1808.72 752.402 L1827.07 752.402 L1827.07 756.337 L1813 756.337 L1813 764.809 Q1814.02 764.462 1815.04 764.3 Q1816.06 764.115 1817.07 764.115 Q1822.86 764.115 1826.24 767.286 Q1829.62 770.457 1829.62 775.874 Q1829.62 781.453 1826.15 784.554 Q1822.68 787.633 1816.36 787.633 Q1814.18 787.633 1811.91 787.263 Q1809.67 786.892 1807.26 786.152 L1807.26 781.453 Q1809.34 782.587 1811.57 783.142 Q1813.79 783.698 1816.26 783.698 Q1820.27 783.698 1822.61 781.592 Q1824.95 779.485 1824.95 775.874 Q1824.95 772.263 1822.61 770.156 Q1820.27 768.05 1816.26 768.05 Q1814.39 768.05 1812.51 768.467 Q1810.66 768.883 1808.72 769.763 L1808.72 752.402 Z" fill="#000000" fill-rule="nonzero" fill-opacity="1"></path><path clip-path="url(#clip260)" d="M2243.51 783.027 L2251.15 783.027 L2251.15 756.661 L2242.84 758.328 L2242.84 754.069 L2251.1 752.402 L2255.78 752.402 L2255.78 783.027 L2263.42 783.027 L2263.42 786.962 L2243.51 786.962 L2243.51 783.027 Z" fill="#000000" fill-rule="nonzero" fill-opacity="1"></path><path clip-path="url(#clip260)" d="M2272.86 781.082 L2277.75 781.082 L2277.75 786.962 L2272.86 786.962 L2272.86 781.082 Z" fill="#000000" fill-rule="nonzero" fill-opacity="1"></path><path clip-path="url(#clip260)" d="M2297.93 755.481 Q2294.32 755.481 2292.49 759.045 Q2290.69 762.587 2290.69 769.717 Q2290.69 776.823 2292.49 780.388 Q2294.32 783.929 2297.93 783.929 Q2301.57 783.929 2303.37 780.388 Q2305.2 776.823 2305.2 769.717 Q2305.2 762.587 2303.37 759.045 Q2301.57 755.481 2297.93 755.481 M2297.93 751.777 Q2303.74 751.777 2306.8 756.383 Q2309.88 760.967 2309.88 769.717 Q2309.88 778.443 2306.8 783.05 Q2303.74 787.633 2297.93 787.633 Q2292.12 787.633 2289.04 783.05 Q2285.99 778.443 2285.99 769.717 Q2285.99 760.967 2289.04 756.383 Q2292.12 751.777 2297.93 751.777 Z" fill="#000000" fill-rule="nonzero" fill-opacity="1"></path><path clip-path="url(#clip260)" d="M2328.1 755.481 Q2324.48 755.481 2322.66 759.045 Q2320.85 762.587 2320.85 769.717 Q2320.85 776.823 2322.66 780.388 Q2324.48 783.929 2328.1 783.929 Q2331.73 783.929 2333.54 780.388 Q2335.36 776.823 2335.36 769.717 Q2335.36 762.587 2333.54 759.045 Q2331.73 755.481 2328.1 755.481 M2328.1 751.777 Q2333.91 751.777 2336.96 756.383 Q2340.04 760.967 2340.04 769.717 Q2340.04 778.443 2336.96 783.05 Q2333.91 787.633 2328.1 787.633 Q2322.29 787.633 2319.21 783.05 Q2316.15 778.443 2316.15 769.717 Q2316.15 760.967 2319.21 756.383 Q2322.29 751.777 2328.1 751.777 Z" fill="#000000" fill-rule="nonzero" fill-opacity="1"></path><polyline clip-path="url(#clip262)" style="stroke:#000000; stroke-linecap:round; stroke-linejoin:round; stroke-width:2; stroke-opacity:0.1; fill:none" points="186.274,716.998 2352.76,716.998 "></polyline>
<polyline clip-path="url(#clip262)" style="stroke:#000000; stroke-linecap:round; stroke-linejoin:round; stroke-width:2; stroke-opacity:0.1; fill:none" points="186.274,611.129 2352.76,611.129 "></polyline>
<polyline clip-path="url(#clip262)" style="stroke:#000000; stroke-linecap:round; stroke-linejoin:round; stroke-width:2; stroke-opacity:0.1; fill:none" points="186.274,505.261 2352.76,505.261 "></polyline>
<polyline clip-path="url(#clip262)" style="stroke:#000000; stroke-linecap:round; stroke-linejoin:round; stroke-width:2; stroke-opacity:0.1; fill:none" points="186.274,399.392 2352.76,399.392 "></polyline>
<polyline clip-path="url(#clip262)" style="stroke:#000000; stroke-linecap:round; stroke-linejoin:round; stroke-width:2; stroke-opacity:0.1; fill:none" points="186.274,293.523 2352.76,293.523 "></polyline>
<polyline clip-path="url(#clip262)" style="stroke:#000000; stroke-linecap:round; stroke-linejoin:round; stroke-width:2; stroke-opacity:0.1; fill:none" points="186.274,187.654 2352.76,187.654 "></polyline>
<polyline clip-path="url(#clip260)" style="stroke:#000000; stroke-linecap:round; stroke-linejoin:round; stroke-width:4; stroke-opacity:1; fill:none" points="186.274,724.562 186.274,123.472 "></polyline>
<polyline clip-path="url(#clip260)" style="stroke:#000000; stroke-linecap:round; stroke-linejoin:round; stroke-width:4; stroke-opacity:1; fill:none" points="186.274,716.998 205.172,716.998 "></polyline>
<polyline clip-path="url(#clip260)" style="stroke:#000000; stroke-linecap:round; stroke-linejoin:round; stroke-width:4; stroke-opacity:1; fill:none" points="186.274,611.129 205.172,611.129 "></polyline>
<polyline clip-path="url(#clip260)" style="stroke:#000000; stroke-linecap:round; stroke-linejoin:round; stroke-width:4; stroke-opacity:1; fill:none" points="186.274,505.261 205.172,505.261 "></polyline>
<polyline clip-path="url(#clip260)" style="stroke:#000000; stroke-linecap:round; stroke-linejoin:round; stroke-width:4; stroke-opacity:1; fill:none" points="186.274,399.392 205.172,399.392 "></polyline>
<polyline clip-path="url(#clip260)" style="stroke:#000000; stroke-linecap:round; stroke-linejoin:round; stroke-width:4; stroke-opacity:1; fill:none" points="186.274,293.523 205.172,293.523 "></polyline>
<polyline clip-path="url(#clip260)" style="stroke:#000000; stroke-linecap:round; stroke-linejoin:round; stroke-width:4; stroke-opacity:1; fill:none" points="186.274,187.654 205.172,187.654 "></polyline>
<path clip-path="url(#clip260)" d="M130.367 730.343 L138.006 730.343 L138.006 703.977 L129.695 705.644 L129.695 701.385 L137.959 699.718 L142.635 699.718 L142.635 730.343 L150.274 730.343 L150.274 734.278 L130.367 734.278 L130.367 730.343 Z" fill="#000000" fill-rule="nonzero" fill-opacity="1"></path><path clip-path="url(#clip260)" d="M133.955 624.474 L150.274 624.474 L150.274 628.409 L128.33 628.409 L128.33 624.474 Q130.992 621.72 135.575 617.09 Q140.181 612.437 141.362 611.095 Q143.607 608.572 144.487 606.835 Q145.39 605.076 145.39 603.386 Q145.39 600.632 143.445 598.896 Q141.524 597.16 138.422 597.16 Q136.223 597.16 133.769 597.923 Q131.339 598.687 128.561 600.238 L128.561 595.516 Q131.385 594.382 133.839 593.803 Q136.293 593.224 138.33 593.224 Q143.7 593.224 146.894 595.91 Q150.089 598.595 150.089 603.085 Q150.089 605.215 149.279 607.136 Q148.492 609.035 146.385 611.627 Q145.806 612.298 142.705 615.516 Q139.603 618.71 133.955 624.474 Z" fill="#000000" fill-rule="nonzero" fill-opacity="1"></path><path clip-path="url(#clip260)" d="M143.144 503.906 Q146.501 504.624 148.376 506.893 Q150.274 509.161 150.274 512.494 Q150.274 517.61 146.756 520.411 Q143.237 523.212 136.756 523.212 Q134.58 523.212 132.265 522.772 Q129.973 522.355 127.519 521.499 L127.519 516.985 Q129.464 518.119 131.779 518.698 Q134.094 519.277 136.617 519.277 Q141.015 519.277 143.306 517.541 Q145.621 515.805 145.621 512.494 Q145.621 509.439 143.468 507.726 Q141.339 505.99 137.519 505.99 L133.492 505.99 L133.492 502.147 L137.705 502.147 Q141.154 502.147 142.982 500.781 Q144.811 499.393 144.811 496.8 Q144.811 494.138 142.913 492.726 Q141.038 491.291 137.519 491.291 Q135.598 491.291 133.399 491.707 Q131.2 492.124 128.561 493.004 L128.561 488.837 Q131.223 488.096 133.538 487.726 Q135.876 487.356 137.936 487.356 Q143.26 487.356 146.362 489.786 Q149.464 492.194 149.464 496.314 Q149.464 499.184 147.82 501.175 Q146.177 503.143 143.144 503.906 Z" fill="#000000" fill-rule="nonzero" fill-opacity="1"></path><path clip-path="url(#clip260)" d="M140.691 386.186 L128.885 404.635 L140.691 404.635 L140.691 386.186 M139.464 382.112 L145.343 382.112 L145.343 404.635 L150.274 404.635 L150.274 408.524 L145.343 408.524 L145.343 416.672 L140.691 416.672 L140.691 408.524 L125.089 408.524 L125.089 404.01 L139.464 382.112 Z" fill="#000000" fill-rule="nonzero" fill-opacity="1"></path><path clip-path="url(#clip260)" d="M129.371 276.243 L147.728 276.243 L147.728 280.178 L133.654 280.178 L133.654 288.65 Q134.672 288.303 135.691 288.141 Q136.709 287.956 137.728 287.956 Q143.515 287.956 146.894 291.127 Q150.274 294.298 150.274 299.715 Q150.274 305.294 146.802 308.396 Q143.33 311.474 137.01 311.474 Q134.834 311.474 132.566 311.104 Q130.32 310.734 127.913 309.993 L127.913 305.294 Q129.996 306.428 132.219 306.984 Q134.441 307.539 136.918 307.539 Q140.922 307.539 143.26 305.433 Q145.598 303.326 145.598 299.715 Q145.598 296.104 143.26 293.998 Q140.922 291.891 136.918 291.891 Q135.043 291.891 133.168 292.308 Q131.316 292.724 129.371 293.604 L129.371 276.243 Z" fill="#000000" fill-rule="nonzero" fill-opacity="1"></path><path clip-path="url(#clip260)" d="M138.746 185.791 Q135.598 185.791 133.746 187.944 Q131.918 190.096 131.918 193.846 Q131.918 197.573 133.746 199.749 Q135.598 201.902 138.746 201.902 Q141.894 201.902 143.723 199.749 Q145.575 197.573 145.575 193.846 Q145.575 190.096 143.723 187.944 Q141.894 185.791 138.746 185.791 M148.029 171.138 L148.029 175.397 Q146.269 174.564 144.464 174.124 Q142.681 173.684 140.922 173.684 Q136.293 173.684 133.839 176.809 Q131.408 179.934 131.061 186.254 Q132.427 184.24 134.487 183.175 Q136.547 182.087 139.024 182.087 Q144.232 182.087 147.242 185.258 Q150.274 188.406 150.274 193.846 Q150.274 199.17 147.126 202.388 Q143.978 205.605 138.746 205.605 Q132.751 205.605 129.58 201.022 Q126.408 196.416 126.408 187.689 Q126.408 179.495 130.297 174.633 Q134.186 169.749 140.737 169.749 Q142.496 169.749 144.279 170.096 Q146.084 170.444 148.029 171.138 Z" fill="#000000" fill-rule="nonzero" fill-opacity="1"></path><path clip-path="url(#clip260)" d="M959.418 12.096 L1010.58 12.096 L1010.58 18.9825 L989.111 18.9825 L989.111 72.576 L980.888 72.576 L980.888 18.9825 L959.418 18.9825 L959.418 12.096 Z" fill="#000000" fill-rule="nonzero" fill-opacity="1"></path><path clip-path="url(#clip260)" d="M1021.64 32.4315 Q1015.64 32.4315 1012.16 37.1306 Q1008.68 41.7891 1008.68 49.9314 Q1008.68 58.0738 1012.12 62.7728 Q1015.6 67.4314 1021.64 67.4314 Q1027.59 67.4314 1031.08 62.7323 Q1034.56 58.0333 1034.56 49.9314 Q1034.56 41.8701 1031.08 37.1711 Q1027.59 32.4315 1021.64 32.4315 M1021.64 26.1121 Q1031.36 26.1121 1036.91 32.4315 Q1042.46 38.7509 1042.46 49.9314 Q1042.46 61.0714 1036.91 67.4314 Q1031.36 73.7508 1021.64 73.7508 Q1011.88 73.7508 1006.33 67.4314 Q1000.82 61.0714 1000.82 49.9314 Q1000.82 38.7509 1006.33 32.4315 Q1011.88 26.1121 1021.64 26.1121 Z" fill="#000000" fill-rule="nonzero" fill-opacity="1"></path><path clip-path="url(#clip260)" d="M1081.11 34.1734 Q1079.85 33.4443 1078.35 33.1202 Q1076.89 32.7556 1075.11 32.7556 Q1068.79 32.7556 1065.39 36.8875 Q1062.03 40.9789 1062.03 48.6757 L1062.03 72.576 L1054.53 72.576 L1054.53 27.2059 L1062.03 27.2059 L1062.03 34.2544 Q1064.38 30.1225 1068.14 28.1376 Q1071.91 26.1121 1077.3 26.1121 Q1078.07 26.1121 1079 26.2337 Q1079.93 26.3147 1081.07 26.5172 L1081.11 34.1734 Z" fill="#000000" fill-rule="nonzero" fill-opacity="1"></path><path clip-path="url(#clip260)" d="M1091.92 49.9314 Q1091.92 58.1548 1095.29 62.8538 Q1098.69 67.5124 1104.6 67.5124 Q1110.52 67.5124 1113.92 62.8538 Q1117.32 58.1548 1117.32 49.9314 Q1117.32 41.7081 1113.92 37.0496 Q1110.52 32.3505 1104.6 32.3505 Q1098.69 32.3505 1095.29 37.0496 Q1091.92 41.7081 1091.92 49.9314 M1117.32 65.7705 Q1114.97 69.8214 1111.37 71.8063 Q1107.8 73.7508 1102.78 73.7508 Q1094.56 73.7508 1089.37 67.1883 Q1084.23 60.6258 1084.23 49.9314 Q1084.23 39.2371 1089.37 32.6746 Q1094.56 26.1121 1102.78 26.1121 Q1107.8 26.1121 1111.37 28.0971 Q1114.97 30.0415 1117.32 34.0924 L1117.32 27.2059 L1124.78 27.2059 L1124.78 89.8329 L1117.32 89.8329 L1117.32 65.7705 Z" fill="#000000" fill-rule="nonzero" fill-opacity="1"></path><path clip-path="url(#clip260)" d="M1139.36 54.671 L1139.36 27.2059 L1146.81 27.2059 L1146.81 54.3874 Q1146.81 60.8284 1149.32 64.0691 Q1151.84 67.2693 1156.86 67.2693 Q1162.9 67.2693 1166.38 63.421 Q1169.9 59.5726 1169.9 52.9291 L1169.9 27.2059 L1177.36 27.2059 L1177.36 72.576 L1169.9 72.576 L1169.9 65.6084 Q1167.19 69.7404 1163.58 71.7658 Q1160.02 73.7508 1155.28 73.7508 Q1147.46 73.7508 1143.41 68.8897 Q1139.36 64.0286 1139.36 54.671 M1158.12 26.1121 L1158.12 26.1121 Z" fill="#000000" fill-rule="nonzero" fill-opacity="1"></path><path clip-path="url(#clip260)" d="M1231.52 48.0275 L1231.52 51.6733 L1197.25 51.6733 Q1197.73 59.3701 1201.86 63.421 Q1206.04 67.4314 1213.45 67.4314 Q1217.74 67.4314 1221.75 66.3781 Q1225.81 65.3249 1229.78 63.2184 L1229.78 70.267 Q1225.77 71.9684 1221.55 72.8596 Q1217.34 73.7508 1213 73.7508 Q1202.15 73.7508 1195.79 67.4314 Q1189.47 61.1119 1189.47 50.3365 Q1189.47 39.1965 1195.46 32.6746 Q1201.5 26.1121 1211.71 26.1121 Q1220.86 26.1121 1226.17 32.0264 Q1231.52 37.9003 1231.52 48.0275 M1224.06 45.84 Q1223.98 39.7232 1220.62 36.0774 Q1217.3 32.4315 1211.79 32.4315 Q1205.55 32.4315 1201.78 35.9558 Q1198.06 39.4801 1197.49 45.8805 L1224.06 45.84 Z" fill="#000000" fill-rule="nonzero" fill-opacity="1"></path><path clip-path="url(#clip260)" d="M1264.78 27.2059 L1272.67 27.2059 L1286.85 65.2844 L1301.03 27.2059 L1308.93 27.2059 L1291.92 72.576 L1281.79 72.576 L1264.78 27.2059 Z" fill="#000000" fill-rule="nonzero" fill-opacity="1"></path><path clip-path="url(#clip260)" d="M1348.14 28.5427 L1348.14 35.5912 Q1344.98 33.9709 1341.58 33.1607 Q1338.18 32.3505 1334.53 32.3505 Q1328.98 32.3505 1326.19 34.0519 Q1323.43 35.7533 1323.43 39.156 Q1323.43 41.7486 1325.42 43.2475 Q1327.4 44.7058 1333.4 46.0426 L1335.95 46.6097 Q1343.89 48.3111 1347.21 51.4303 Q1350.57 54.509 1350.57 60.0587 Q1350.57 66.3781 1345.55 70.0644 Q1340.57 73.7508 1331.82 73.7508 Q1328.17 73.7508 1324.2 73.0216 Q1320.27 72.3329 1315.9 70.9151 L1315.9 63.2184 Q1320.03 65.3654 1324.04 66.4591 Q1328.05 67.5124 1331.98 67.5124 Q1337.25 67.5124 1340.08 65.73 Q1342.92 63.9071 1342.92 60.6258 Q1342.92 57.5877 1340.85 55.9673 Q1338.83 54.3469 1331.9 52.8481 L1329.31 52.2405 Q1322.38 50.7821 1319.3 47.7845 Q1316.22 44.7463 1316.22 39.4801 Q1316.22 33.0797 1320.76 29.5959 Q1325.3 26.1121 1333.64 26.1121 Q1337.77 26.1121 1341.42 26.7198 Q1345.06 27.3274 1348.14 28.5427 Z" fill="#000000" fill-rule="nonzero" fill-opacity="1"></path><path clip-path="url(#clip260)" d="M1380.75 12.096 L1431.92 12.096 L1431.92 18.9825 L1410.45 18.9825 L1410.45 72.576 L1402.22 72.576 L1402.22 18.9825 L1380.75 18.9825 L1380.75 12.096 Z" fill="#000000" fill-rule="nonzero" fill-opacity="1"></path><path clip-path="url(#clip260)" d="M1436.94 27.2059 L1444.39 27.2059 L1444.39 72.576 L1436.94 72.576 L1436.94 27.2059 M1436.94 9.54393 L1444.39 9.54393 L1444.39 18.9825 L1436.94 18.9825 L1436.94 9.54393 Z" fill="#000000" fill-rule="nonzero" fill-opacity="1"></path><path clip-path="url(#clip260)" d="M1495.31 35.9153 Q1498.11 30.8922 1502 28.5022 Q1505.89 26.1121 1511.15 26.1121 Q1518.24 26.1121 1522.09 31.0947 Q1525.94 36.0368 1525.94 45.1919 L1525.94 72.576 L1518.44 72.576 L1518.44 45.4349 Q1518.44 38.913 1516.13 35.7533 Q1513.82 32.5936 1509.09 32.5936 Q1503.29 32.5936 1499.93 36.4419 Q1496.57 40.2903 1496.57 46.9338 L1496.57 72.576 L1489.07 72.576 L1489.07 45.4349 Q1489.07 38.8725 1486.76 35.7533 Q1484.46 32.5936 1479.64 32.5936 Q1473.92 32.5936 1470.56 36.4824 Q1467.2 40.3308 1467.2 46.9338 L1467.2 72.576 L1459.7 72.576 L1459.7 27.2059 L1467.2 27.2059 L1467.2 34.2544 Q1469.75 30.082 1473.32 28.0971 Q1476.88 26.1121 1481.78 26.1121 Q1486.72 26.1121 1490.17 28.6237 Q1493.65 31.1352 1495.31 35.9153 Z" fill="#000000" fill-rule="nonzero" fill-opacity="1"></path><path clip-path="url(#clip260)" d="M1579.61 48.0275 L1579.61 51.6733 L1545.34 51.6733 Q1545.83 59.3701 1549.96 63.421 Q1554.13 67.4314 1561.54 67.4314 Q1565.84 67.4314 1569.85 66.3781 Q1573.9 65.3249 1577.87 63.2184 L1577.87 70.267 Q1573.86 71.9684 1569.65 72.8596 Q1565.43 73.7508 1561.1 73.7508 Q1550.24 73.7508 1543.88 67.4314 Q1537.56 61.1119 1537.56 50.3365 Q1537.56 39.1965 1543.56 32.6746 Q1549.59 26.1121 1559.8 26.1121 Q1568.96 26.1121 1574.26 32.0264 Q1579.61 37.9003 1579.61 48.0275 M1572.16 45.84 Q1572.08 39.7232 1568.71 36.0774 Q1565.39 32.4315 1559.88 32.4315 Q1553.65 32.4315 1549.88 35.9558 Q1546.15 39.4801 1545.58 45.8805 L1572.16 45.84 Z" fill="#000000" fill-rule="nonzero" fill-opacity="1"></path><polyline clip-path="url(#clip262)" style="stroke:#009af9; stroke-linecap:round; stroke-linejoin:round; stroke-width:4; stroke-opacity:1; fill:none" points="247.59,683.91 313.52,700.901 379.451,640.537 445.382,518.851 511.312,532.28 577.243,623.805 643.174,679.558 709.104,657.826 775.035,502.341 840.966,474.033 906.896,410.851 972.827,707.55 1038.76,629.098 1104.69,575.922 1170.62,448.945 1236.55,243.513 1302.48,140.484 1368.41,176.646 1434.34,227.438 1500.27,290.149 1566.2,391.816 1632.13,335.691 1698.06,284.501 1763.99,303.878 1829.93,234.463 1895.86,235.977 1961.79,346.162 2027.72,570.401 2093.65,567.092 2159.58,525.917 2225.51,617.01 2291.44,672.329 "></polyline>
<path clip-path="url(#clip260)" d="M258.49 247.188 L684.651 247.188 L684.651 143.508 L258.49 143.508  Z" fill="#ffffff" fill-rule="evenodd" fill-opacity="1"></path>
<polyline clip-path="url(#clip260)" style="stroke:#000000; stroke-linecap:round; stroke-linejoin:round; stroke-width:4; stroke-opacity:1; fill:none" points="258.49,247.188 684.651,247.188 684.651,143.508 258.49,143.508 258.49,247.188 "></polyline>
<polyline clip-path="url(#clip260)" style="stroke:#009af9; stroke-linecap:round; stroke-linejoin:round; stroke-width:4; stroke-opacity:1; fill:none" points="282.562,195.348 426.994,195.348 "></polyline>
<path clip-path="url(#clip260)" d="M451.066 178.068 L480.302 178.068 L480.302 182.004 L468.034 182.004 L468.034 212.628 L463.335 212.628 L463.335 182.004 L451.066 182.004 L451.066 178.068 Z" fill="#000000" fill-rule="nonzero" fill-opacity="1"></path><path clip-path="url(#clip260)" d="M486.622 189.689 Q483.196 189.689 481.205 192.374 Q479.214 195.036 479.214 199.689 Q479.214 204.341 481.182 207.027 Q483.173 209.689 486.622 209.689 Q490.024 209.689 492.015 207.003 Q494.006 204.318 494.006 199.689 Q494.006 195.082 492.015 192.397 Q490.024 189.689 486.622 189.689 M486.622 186.078 Q492.177 186.078 495.348 189.689 Q498.52 193.3 498.52 199.689 Q498.52 206.054 495.348 209.689 Q492.177 213.3 486.622 213.3 Q481.043 213.3 477.872 209.689 Q474.724 206.054 474.724 199.689 Q474.724 193.3 477.872 189.689 Q481.043 186.078 486.622 186.078 Z" fill="#000000" fill-rule="nonzero" fill-opacity="1"></path><path clip-path="url(#clip260)" d="M520.603 190.684 Q519.885 190.267 519.029 190.082 Q518.196 189.874 517.177 189.874 Q513.566 189.874 511.621 192.235 Q509.7 194.573 509.7 198.971 L509.7 212.628 L505.418 212.628 L505.418 186.703 L509.7 186.703 L509.7 190.73 Q511.043 188.369 513.196 187.235 Q515.348 186.078 518.427 186.078 Q518.867 186.078 519.399 186.147 Q519.932 186.193 520.58 186.309 L520.603 190.684 Z" fill="#000000" fill-rule="nonzero" fill-opacity="1"></path><path clip-path="url(#clip260)" d="M526.783 199.689 Q526.783 204.388 528.705 207.073 Q530.649 209.735 534.029 209.735 Q537.408 209.735 539.353 207.073 Q541.297 204.388 541.297 199.689 Q541.297 194.99 539.353 192.328 Q537.408 189.642 534.029 189.642 Q530.649 189.642 528.705 192.328 Q526.783 194.99 526.783 199.689 M541.297 208.74 Q539.955 211.054 537.894 212.189 Q535.857 213.3 532.987 213.3 Q528.288 213.3 525.325 209.55 Q522.385 205.8 522.385 199.689 Q522.385 193.578 525.325 189.828 Q528.288 186.078 532.987 186.078 Q535.857 186.078 537.894 187.212 Q539.955 188.323 541.297 190.638 L541.297 186.703 L545.556 186.703 L545.556 222.49 L541.297 222.49 L541.297 208.74 Z" fill="#000000" fill-rule="nonzero" fill-opacity="1"></path><path clip-path="url(#clip260)" d="M553.89 202.397 L553.89 186.703 L558.149 186.703 L558.149 202.235 Q558.149 205.916 559.584 207.767 Q561.019 209.596 563.89 209.596 Q567.339 209.596 569.329 207.397 Q571.343 205.198 571.343 201.402 L571.343 186.703 L575.603 186.703 L575.603 212.628 L571.343 212.628 L571.343 208.647 Q569.792 211.008 567.732 212.165 Q565.695 213.3 562.987 213.3 Q558.519 213.3 556.205 210.522 Q553.89 207.744 553.89 202.397 M564.607 186.078 L564.607 186.078 Z" fill="#000000" fill-rule="nonzero" fill-opacity="1"></path><path clip-path="url(#clip260)" d="M606.552 198.601 L606.552 200.684 L586.968 200.684 Q587.246 205.082 589.607 207.397 Q591.991 209.689 596.227 209.689 Q598.681 209.689 600.973 209.087 Q603.288 208.485 605.556 207.281 L605.556 211.309 Q603.264 212.281 600.857 212.79 Q598.45 213.3 595.973 213.3 Q589.769 213.3 586.135 209.689 Q582.524 206.078 582.524 199.92 Q582.524 193.554 585.95 189.828 Q589.399 186.078 595.232 186.078 Q600.464 186.078 603.496 189.457 Q606.552 192.814 606.552 198.601 M602.292 197.351 Q602.246 193.855 600.325 191.772 Q598.427 189.689 595.278 189.689 Q591.714 189.689 589.561 191.703 Q587.431 193.717 587.107 197.374 L602.292 197.351 Z" fill="#000000" fill-rule="nonzero" fill-opacity="1"></path><path clip-path="url(#clip260)" d="M623.774 176.656 Q620.672 181.98 619.167 187.189 Q617.663 192.397 617.663 197.744 Q617.663 203.091 619.167 208.346 Q620.695 213.578 623.774 218.878 L620.07 218.878 Q616.598 213.439 614.862 208.184 Q613.149 202.929 613.149 197.744 Q613.149 192.582 614.862 187.351 Q616.575 182.119 620.07 176.656 L623.774 176.656 Z" fill="#000000" fill-rule="nonzero" fill-opacity="1"></path><path clip-path="url(#clip260)" d="M636.25 179.342 L636.25 186.703 L645.024 186.703 L645.024 190.013 L636.25 190.013 L636.25 204.087 Q636.25 207.258 637.107 208.161 Q637.987 209.064 640.649 209.064 L645.024 209.064 L645.024 212.628 L640.649 212.628 Q635.718 212.628 633.843 210.8 Q631.968 208.948 631.968 204.087 L631.968 190.013 L628.843 190.013 L628.843 186.703 L631.968 186.703 L631.968 179.342 L636.25 179.342 Z" fill="#000000" fill-rule="nonzero" fill-opacity="1"></path><path clip-path="url(#clip260)" d="M649.954 176.656 L653.658 176.656 Q657.13 182.119 658.843 187.351 Q660.579 192.582 660.579 197.744 Q660.579 202.929 658.843 208.184 Q657.13 213.439 653.658 218.878 L649.954 218.878 Q653.033 213.578 654.537 208.346 Q656.065 203.091 656.065 197.744 Q656.065 192.397 654.537 187.189 Q653.033 181.98 649.954 176.656 Z" fill="#000000" fill-rule="nonzero" fill-opacity="1"></path><path clip-path="url(#clip260)" d="M186.274 1486.45 L2352.76 1486.45 L2352.76 885.358 L186.274 885.358  Z" fill="#ffffff" fill-rule="evenodd" fill-opacity="1"></path>
<defs>
  <clipPath id="clip263">
    <rect x="186" y="885" width="2167" height="602"></rect>
  </clipPath>
</defs>
<polyline clip-path="url(#clip263)" style="stroke:#000000; stroke-linecap:round; stroke-linejoin:round; stroke-width:2; stroke-opacity:0.1; fill:none" points="247.59,1486.45 247.59,885.358 "></polyline>
<polyline clip-path="url(#clip263)" style="stroke:#000000; stroke-linecap:round; stroke-linejoin:round; stroke-width:2; stroke-opacity:0.1; fill:none" points="758.552,1486.45 758.552,885.358 "></polyline>
<polyline clip-path="url(#clip263)" style="stroke:#000000; stroke-linecap:round; stroke-linejoin:round; stroke-width:2; stroke-opacity:0.1; fill:none" points="1269.51,1486.45 1269.51,885.358 "></polyline>
<polyline clip-path="url(#clip263)" style="stroke:#000000; stroke-linecap:round; stroke-linejoin:round; stroke-width:2; stroke-opacity:0.1; fill:none" points="1780.48,1486.45 1780.48,885.358 "></polyline>
<polyline clip-path="url(#clip263)" style="stroke:#000000; stroke-linecap:round; stroke-linejoin:round; stroke-width:2; stroke-opacity:0.1; fill:none" points="2291.44,1486.45 2291.44,885.358 "></polyline>
<polyline clip-path="url(#clip260)" style="stroke:#000000; stroke-linecap:round; stroke-linejoin:round; stroke-width:4; stroke-opacity:1; fill:none" points="186.274,1486.45 2352.76,1486.45 "></polyline>
<polyline clip-path="url(#clip260)" style="stroke:#000000; stroke-linecap:round; stroke-linejoin:round; stroke-width:4; stroke-opacity:1; fill:none" points="247.59,1486.45 247.59,1467.55 "></polyline>
<polyline clip-path="url(#clip260)" style="stroke:#000000; stroke-linecap:round; stroke-linejoin:round; stroke-width:4; stroke-opacity:1; fill:none" points="758.552,1486.45 758.552,1467.55 "></polyline>
<polyline clip-path="url(#clip260)" style="stroke:#000000; stroke-linecap:round; stroke-linejoin:round; stroke-width:4; stroke-opacity:1; fill:none" points="1269.51,1486.45 1269.51,1467.55 "></polyline>
<polyline clip-path="url(#clip260)" style="stroke:#000000; stroke-linecap:round; stroke-linejoin:round; stroke-width:4; stroke-opacity:1; fill:none" points="1780.48,1486.45 1780.48,1467.55 "></polyline>
<polyline clip-path="url(#clip260)" style="stroke:#000000; stroke-linecap:round; stroke-linejoin:round; stroke-width:4; stroke-opacity:1; fill:none" points="2291.44,1486.45 2291.44,1467.55 "></polyline>
<path clip-path="url(#clip260)" d="M209.893 1517.37 Q206.282 1517.37 204.453 1520.93 Q202.648 1524.47 202.648 1531.6 Q202.648 1538.71 204.453 1542.27 Q206.282 1545.82 209.893 1545.82 Q213.527 1545.82 215.333 1542.27 Q217.161 1538.71 217.161 1531.6 Q217.161 1524.47 215.333 1520.93 Q213.527 1517.37 209.893 1517.37 M209.893 1513.66 Q215.703 1513.66 218.759 1518.27 Q221.837 1522.85 221.837 1531.6 Q221.837 1540.33 218.759 1544.94 Q215.703 1549.52 209.893 1549.52 Q204.083 1549.52 201.004 1544.94 Q197.949 1540.33 197.949 1531.6 Q197.949 1522.85 201.004 1518.27 Q204.083 1513.66 209.893 1513.66 Z" fill="#000000" fill-rule="nonzero" fill-opacity="1"></path><path clip-path="url(#clip260)" d="M230.055 1542.97 L234.939 1542.97 L234.939 1548.85 L230.055 1548.85 L230.055 1542.97 Z" fill="#000000" fill-rule="nonzero" fill-opacity="1"></path><path clip-path="url(#clip260)" d="M255.124 1517.37 Q251.513 1517.37 249.684 1520.93 Q247.879 1524.47 247.879 1531.6 Q247.879 1538.71 249.684 1542.27 Q251.513 1545.82 255.124 1545.82 Q258.758 1545.82 260.564 1542.27 Q262.393 1538.71 262.393 1531.6 Q262.393 1524.47 260.564 1520.93 Q258.758 1517.37 255.124 1517.37 M255.124 1513.66 Q260.934 1513.66 263.99 1518.27 Q267.069 1522.85 267.069 1531.6 Q267.069 1540.33 263.99 1544.94 Q260.934 1549.52 255.124 1549.52 Q249.314 1549.52 246.235 1544.94 Q243.18 1540.33 243.18 1531.6 Q243.18 1522.85 246.235 1518.27 Q249.314 1513.66 255.124 1513.66 Z" fill="#000000" fill-rule="nonzero" fill-opacity="1"></path><path clip-path="url(#clip260)" d="M285.286 1517.37 Q281.675 1517.37 279.846 1520.93 Q278.041 1524.47 278.041 1531.6 Q278.041 1538.71 279.846 1542.27 Q281.675 1545.82 285.286 1545.82 Q288.92 1545.82 290.726 1542.27 Q292.555 1538.71 292.555 1531.6 Q292.555 1524.47 290.726 1520.93 Q288.92 1517.37 285.286 1517.37 M285.286 1513.66 Q291.096 1513.66 294.152 1518.27 Q297.23 1522.85 297.23 1531.6 Q297.23 1540.33 294.152 1544.94 Q291.096 1549.52 285.286 1549.52 Q279.476 1549.52 276.397 1544.94 Q273.342 1540.33 273.342 1531.6 Q273.342 1522.85 276.397 1518.27 Q279.476 1513.66 285.286 1513.66 Z" fill="#000000" fill-rule="nonzero" fill-opacity="1"></path><path clip-path="url(#clip260)" d="M721.353 1517.37 Q717.742 1517.37 715.914 1520.93 Q714.108 1524.47 714.108 1531.6 Q714.108 1538.71 715.914 1542.27 Q717.742 1545.82 721.353 1545.82 Q724.988 1545.82 726.793 1542.27 Q728.622 1538.71 728.622 1531.6 Q728.622 1524.47 726.793 1520.93 Q724.988 1517.37 721.353 1517.37 M721.353 1513.66 Q727.164 1513.66 730.219 1518.27 Q733.298 1522.85 733.298 1531.6 Q733.298 1540.33 730.219 1544.94 Q727.164 1549.52 721.353 1549.52 Q715.543 1549.52 712.465 1544.94 Q709.409 1540.33 709.409 1531.6 Q709.409 1522.85 712.465 1518.27 Q715.543 1513.66 721.353 1513.66 Z" fill="#000000" fill-rule="nonzero" fill-opacity="1"></path><path clip-path="url(#clip260)" d="M741.515 1542.97 L746.4 1542.97 L746.4 1548.85 L741.515 1548.85 L741.515 1542.97 Z" fill="#000000" fill-rule="nonzero" fill-opacity="1"></path><path clip-path="url(#clip260)" d="M760.612 1544.91 L776.932 1544.91 L776.932 1548.85 L754.987 1548.85 L754.987 1544.91 Q757.649 1542.16 762.233 1537.53 Q766.839 1532.88 768.02 1531.53 Q770.265 1529.01 771.145 1527.27 Q772.048 1525.51 772.048 1523.82 Q772.048 1521.07 770.103 1519.33 Q768.182 1517.6 765.08 1517.6 Q762.881 1517.6 760.427 1518.36 Q757.997 1519.13 755.219 1520.68 L755.219 1515.95 Q758.043 1514.82 760.497 1514.24 Q762.95 1513.66 764.987 1513.66 Q770.358 1513.66 773.552 1516.35 Q776.747 1519.03 776.747 1523.52 Q776.747 1525.65 775.936 1527.57 Q775.149 1529.47 773.043 1532.07 Q772.464 1532.74 769.362 1535.95 Q766.261 1539.15 760.612 1544.91 Z" fill="#000000" fill-rule="nonzero" fill-opacity="1"></path><path clip-path="url(#clip260)" d="M786.793 1514.29 L805.149 1514.29 L805.149 1518.22 L791.075 1518.22 L791.075 1526.7 Q792.094 1526.35 793.112 1526.19 Q794.131 1526 795.149 1526 Q800.936 1526 804.316 1529.17 Q807.695 1532.34 807.695 1537.76 Q807.695 1543.34 804.223 1546.44 Q800.751 1549.52 794.432 1549.52 Q792.256 1549.52 789.987 1549.15 Q787.742 1548.78 785.335 1548.04 L785.335 1543.34 Q787.418 1544.47 789.64 1545.03 Q791.862 1545.58 794.339 1545.58 Q798.344 1545.58 800.682 1543.48 Q803.02 1541.37 803.02 1537.76 Q803.02 1534.15 800.682 1532.04 Q798.344 1529.94 794.339 1529.94 Q792.464 1529.94 790.589 1530.35 Q788.737 1530.77 786.793 1531.65 L786.793 1514.29 Z" fill="#000000" fill-rule="nonzero" fill-opacity="1"></path><path clip-path="url(#clip260)" d="M1231.82 1517.37 Q1228.21 1517.37 1226.38 1520.93 Q1224.57 1524.47 1224.57 1531.6 Q1224.57 1538.71 1226.38 1542.27 Q1228.21 1545.82 1231.82 1545.82 Q1235.45 1545.82 1237.26 1542.27 Q1239.09 1538.71 1239.09 1531.6 Q1239.09 1524.47 1237.26 1520.93 Q1235.45 1517.37 1231.82 1517.37 M1231.82 1513.66 Q1237.63 1513.66 1240.68 1518.27 Q1243.76 1522.85 1243.76 1531.6 Q1243.76 1540.33 1240.68 1544.94 Q1237.63 1549.52 1231.82 1549.52 Q1226.01 1549.52 1222.93 1544.94 Q1219.87 1540.33 1219.87 1531.6 Q1219.87 1522.85 1222.93 1518.27 Q1226.01 1513.66 1231.82 1513.66 Z" fill="#000000" fill-rule="nonzero" fill-opacity="1"></path><path clip-path="url(#clip260)" d="M1251.98 1542.97 L1256.86 1542.97 L1256.86 1548.85 L1251.98 1548.85 L1251.98 1542.97 Z" fill="#000000" fill-rule="nonzero" fill-opacity="1"></path><path clip-path="url(#clip260)" d="M1267.1 1514.29 L1285.45 1514.29 L1285.45 1518.22 L1271.38 1518.22 L1271.38 1526.7 Q1272.4 1526.35 1273.42 1526.19 Q1274.43 1526 1275.45 1526 Q1281.24 1526 1284.62 1529.17 Q1288 1532.34 1288 1537.76 Q1288 1543.34 1284.53 1546.44 Q1281.05 1549.52 1274.73 1549.52 Q1272.56 1549.52 1270.29 1549.15 Q1268.05 1548.78 1265.64 1548.04 L1265.64 1543.34 Q1267.72 1544.47 1269.94 1545.03 Q1272.17 1545.58 1274.64 1545.58 Q1278.65 1545.58 1280.98 1543.48 Q1283.32 1541.37 1283.32 1537.76 Q1283.32 1534.15 1280.98 1532.04 Q1278.65 1529.94 1274.64 1529.94 Q1272.77 1529.94 1270.89 1530.35 Q1269.04 1530.77 1267.1 1531.65 L1267.1 1514.29 Z" fill="#000000" fill-rule="nonzero" fill-opacity="1"></path><path clip-path="url(#clip260)" d="M1307.21 1517.37 Q1303.6 1517.37 1301.77 1520.93 Q1299.97 1524.47 1299.97 1531.6 Q1299.97 1538.71 1301.77 1542.27 Q1303.6 1545.82 1307.21 1545.82 Q1310.85 1545.82 1312.65 1542.27 Q1314.48 1538.71 1314.48 1531.6 Q1314.48 1524.47 1312.65 1520.93 Q1310.85 1517.37 1307.21 1517.37 M1307.21 1513.66 Q1313.02 1513.66 1316.08 1518.27 Q1319.16 1522.85 1319.16 1531.6 Q1319.16 1540.33 1316.08 1544.94 Q1313.02 1549.52 1307.21 1549.52 Q1301.4 1549.52 1298.32 1544.94 Q1295.27 1540.33 1295.27 1531.6 Q1295.27 1522.85 1298.32 1518.27 Q1301.4 1513.66 1307.21 1513.66 Z" fill="#000000" fill-rule="nonzero" fill-opacity="1"></path><path clip-path="url(#clip260)" d="M1743.28 1517.37 Q1739.67 1517.37 1737.84 1520.93 Q1736.03 1524.47 1736.03 1531.6 Q1736.03 1538.71 1737.84 1542.27 Q1739.67 1545.82 1743.28 1545.82 Q1746.91 1545.82 1748.72 1542.27 Q1750.55 1538.71 1750.55 1531.6 Q1750.55 1524.47 1748.72 1520.93 Q1746.91 1517.37 1743.28 1517.37 M1743.28 1513.66 Q1749.09 1513.66 1752.14 1518.27 Q1755.22 1522.85 1755.22 1531.6 Q1755.22 1540.33 1752.14 1544.94 Q1749.09 1549.52 1743.28 1549.52 Q1737.47 1549.52 1734.39 1544.94 Q1731.33 1540.33 1731.33 1531.6 Q1731.33 1522.85 1734.39 1518.27 Q1737.47 1513.66 1743.28 1513.66 Z" fill="#000000" fill-rule="nonzero" fill-opacity="1"></path><path clip-path="url(#clip260)" d="M1763.44 1542.97 L1768.32 1542.97 L1768.32 1548.85 L1763.44 1548.85 L1763.44 1542.97 Z" fill="#000000" fill-rule="nonzero" fill-opacity="1"></path><path clip-path="url(#clip260)" d="M1777.33 1514.29 L1799.55 1514.29 L1799.55 1516.28 L1787.01 1548.85 L1782.12 1548.85 L1793.93 1518.22 L1777.33 1518.22 L1777.33 1514.29 Z" fill="#000000" fill-rule="nonzero" fill-opacity="1"></path><path clip-path="url(#clip260)" d="M1808.72 1514.29 L1827.07 1514.29 L1827.07 1518.22 L1813 1518.22 L1813 1526.7 Q1814.02 1526.35 1815.04 1526.19 Q1816.06 1526 1817.07 1526 Q1822.86 1526 1826.24 1529.17 Q1829.62 1532.34 1829.62 1537.76 Q1829.62 1543.34 1826.15 1546.44 Q1822.68 1549.52 1816.36 1549.52 Q1814.18 1549.52 1811.91 1549.15 Q1809.67 1548.78 1807.26 1548.04 L1807.26 1543.34 Q1809.34 1544.47 1811.57 1545.03 Q1813.79 1545.58 1816.26 1545.58 Q1820.27 1545.58 1822.61 1543.48 Q1824.95 1541.37 1824.95 1537.76 Q1824.95 1534.15 1822.61 1532.04 Q1820.27 1529.94 1816.26 1529.94 Q1814.39 1529.94 1812.51 1530.35 Q1810.66 1530.77 1808.72 1531.65 L1808.72 1514.29 Z" fill="#000000" fill-rule="nonzero" fill-opacity="1"></path><path clip-path="url(#clip260)" d="M2243.51 1544.91 L2251.15 1544.91 L2251.15 1518.55 L2242.84 1520.21 L2242.84 1515.95 L2251.1 1514.29 L2255.78 1514.29 L2255.78 1544.91 L2263.42 1544.91 L2263.42 1548.85 L2243.51 1548.85 L2243.51 1544.91 Z" fill="#000000" fill-rule="nonzero" fill-opacity="1"></path><path clip-path="url(#clip260)" d="M2272.86 1542.97 L2277.75 1542.97 L2277.75 1548.85 L2272.86 1548.85 L2272.86 1542.97 Z" fill="#000000" fill-rule="nonzero" fill-opacity="1"></path><path clip-path="url(#clip260)" d="M2297.93 1517.37 Q2294.32 1517.37 2292.49 1520.93 Q2290.69 1524.47 2290.69 1531.6 Q2290.69 1538.71 2292.49 1542.27 Q2294.32 1545.82 2297.93 1545.82 Q2301.57 1545.82 2303.37 1542.27 Q2305.2 1538.71 2305.2 1531.6 Q2305.2 1524.47 2303.37 1520.93 Q2301.57 1517.37 2297.93 1517.37 M2297.93 1513.66 Q2303.74 1513.66 2306.8 1518.27 Q2309.88 1522.85 2309.88 1531.6 Q2309.88 1540.33 2306.8 1544.94 Q2303.74 1549.52 2297.93 1549.52 Q2292.12 1549.52 2289.04 1544.94 Q2285.99 1540.33 2285.99 1531.6 Q2285.99 1522.85 2289.04 1518.27 Q2292.12 1513.66 2297.93 1513.66 Z" fill="#000000" fill-rule="nonzero" fill-opacity="1"></path><path clip-path="url(#clip260)" d="M2328.1 1517.37 Q2324.48 1517.37 2322.66 1520.93 Q2320.85 1524.47 2320.85 1531.6 Q2320.85 1538.71 2322.66 1542.27 Q2324.48 1545.82 2328.1 1545.82 Q2331.73 1545.82 2333.54 1542.27 Q2335.36 1538.71 2335.36 1531.6 Q2335.36 1524.47 2333.54 1520.93 Q2331.73 1517.37 2328.1 1517.37 M2328.1 1513.66 Q2333.91 1513.66 2336.96 1518.27 Q2340.04 1522.85 2340.04 1531.6 Q2340.04 1540.33 2336.96 1544.94 Q2333.91 1549.52 2328.1 1549.52 Q2322.29 1549.52 2319.21 1544.94 Q2316.15 1540.33 2316.15 1531.6 Q2316.15 1522.85 2319.21 1518.27 Q2322.29 1513.66 2328.1 1513.66 Z" fill="#000000" fill-rule="nonzero" fill-opacity="1"></path><polyline clip-path="url(#clip263)" style="stroke:#000000; stroke-linecap:round; stroke-linejoin:round; stroke-width:2; stroke-opacity:0.1; fill:none" points="186.274,1393.27 2352.76,1393.27 "></polyline>
<polyline clip-path="url(#clip263)" style="stroke:#000000; stroke-linecap:round; stroke-linejoin:round; stroke-width:2; stroke-opacity:0.1; fill:none" points="186.274,1272.17 2352.76,1272.17 "></polyline>
<polyline clip-path="url(#clip263)" style="stroke:#000000; stroke-linecap:round; stroke-linejoin:round; stroke-width:2; stroke-opacity:0.1; fill:none" points="186.274,1151.08 2352.76,1151.08 "></polyline>
<polyline clip-path="url(#clip263)" style="stroke:#000000; stroke-linecap:round; stroke-linejoin:round; stroke-width:2; stroke-opacity:0.1; fill:none" points="186.274,1029.99 2352.76,1029.99 "></polyline>
<polyline clip-path="url(#clip263)" style="stroke:#000000; stroke-linecap:round; stroke-linejoin:round; stroke-width:2; stroke-opacity:0.1; fill:none" points="186.274,908.894 2352.76,908.894 "></polyline>
<polyline clip-path="url(#clip260)" style="stroke:#000000; stroke-linecap:round; stroke-linejoin:round; stroke-width:4; stroke-opacity:1; fill:none" points="186.274,1486.45 186.274,885.358 "></polyline>
<polyline clip-path="url(#clip260)" style="stroke:#000000; stroke-linecap:round; stroke-linejoin:round; stroke-width:4; stroke-opacity:1; fill:none" points="186.274,1393.27 205.172,1393.27 "></polyline>
<polyline clip-path="url(#clip260)" style="stroke:#000000; stroke-linecap:round; stroke-linejoin:round; stroke-width:4; stroke-opacity:1; fill:none" points="186.274,1272.17 205.172,1272.17 "></polyline>
<polyline clip-path="url(#clip260)" style="stroke:#000000; stroke-linecap:round; stroke-linejoin:round; stroke-width:4; stroke-opacity:1; fill:none" points="186.274,1151.08 205.172,1151.08 "></polyline>
<polyline clip-path="url(#clip260)" style="stroke:#000000; stroke-linecap:round; stroke-linejoin:round; stroke-width:4; stroke-opacity:1; fill:none" points="186.274,1029.99 205.172,1029.99 "></polyline>
<polyline clip-path="url(#clip260)" style="stroke:#000000; stroke-linecap:round; stroke-linejoin:round; stroke-width:4; stroke-opacity:1; fill:none" points="186.274,908.894 205.172,908.894 "></polyline>
<path clip-path="url(#clip260)" d="M62.9365 1379.06 Q59.3254 1379.06 57.4967 1382.63 Q55.6912 1386.17 55.6912 1393.3 Q55.6912 1400.41 57.4967 1403.97 Q59.3254 1407.51 62.9365 1407.51 Q66.5707 1407.51 68.3763 1403.97 Q70.205 1400.41 70.205 1393.3 Q70.205 1386.17 68.3763 1382.63 Q66.5707 1379.06 62.9365 1379.06 M62.9365 1375.36 Q68.7467 1375.36 71.8022 1379.97 Q74.8809 1384.55 74.8809 1393.3 Q74.8809 1402.03 71.8022 1406.63 Q68.7467 1411.22 62.9365 1411.22 Q57.1264 1411.22 54.0477 1406.63 Q50.9921 1402.03 50.9921 1393.3 Q50.9921 1384.55 54.0477 1379.97 Q57.1264 1375.36 62.9365 1375.36 Z" fill="#000000" fill-rule="nonzero" fill-opacity="1"></path><path clip-path="url(#clip260)" d="M83.0984 1404.67 L87.9827 1404.67 L87.9827 1410.55 L83.0984 1410.55 L83.0984 1404.67 Z" fill="#000000" fill-rule="nonzero" fill-opacity="1"></path><path clip-path="url(#clip260)" d="M108.168 1379.06 Q104.557 1379.06 102.728 1382.63 Q100.922 1386.17 100.922 1393.3 Q100.922 1400.41 102.728 1403.97 Q104.557 1407.51 108.168 1407.51 Q111.802 1407.51 113.608 1403.97 Q115.436 1400.41 115.436 1393.3 Q115.436 1386.17 113.608 1382.63 Q111.802 1379.06 108.168 1379.06 M108.168 1375.36 Q113.978 1375.36 117.033 1379.97 Q120.112 1384.55 120.112 1393.3 Q120.112 1402.03 117.033 1406.63 Q113.978 1411.22 108.168 1411.22 Q102.358 1411.22 99.2789 1406.63 Q96.2234 1402.03 96.2234 1393.3 Q96.2234 1384.55 99.2789 1379.97 Q102.358 1375.36 108.168 1375.36 Z" fill="#000000" fill-rule="nonzero" fill-opacity="1"></path><path clip-path="url(#clip260)" d="M138.33 1379.06 Q134.719 1379.06 132.89 1382.63 Q131.084 1386.17 131.084 1393.3 Q131.084 1400.41 132.89 1403.97 Q134.719 1407.51 138.33 1407.51 Q141.964 1407.51 143.769 1403.97 Q145.598 1400.41 145.598 1393.3 Q145.598 1386.17 143.769 1382.63 Q141.964 1379.06 138.33 1379.06 M138.33 1375.36 Q144.14 1375.36 147.195 1379.97 Q150.274 1384.55 150.274 1393.3 Q150.274 1402.03 147.195 1406.63 Q144.14 1411.22 138.33 1411.22 Q132.519 1411.22 129.441 1406.63 Q126.385 1402.03 126.385 1393.3 Q126.385 1384.55 129.441 1379.97 Q132.519 1375.36 138.33 1375.36 Z" fill="#000000" fill-rule="nonzero" fill-opacity="1"></path><path clip-path="url(#clip260)" d="M63.9319 1257.97 Q60.3208 1257.97 58.4921 1261.54 Q56.6865 1265.08 56.6865 1272.21 Q56.6865 1279.31 58.4921 1282.88 Q60.3208 1286.42 63.9319 1286.42 Q67.5661 1286.42 69.3717 1282.88 Q71.2004 1279.31 71.2004 1272.21 Q71.2004 1265.08 69.3717 1261.54 Q67.5661 1257.97 63.9319 1257.97 M63.9319 1254.27 Q69.742 1254.27 72.7976 1258.87 Q75.8763 1263.46 75.8763 1272.21 Q75.8763 1280.93 72.7976 1285.54 Q69.742 1290.12 63.9319 1290.12 Q58.1217 1290.12 55.043 1285.54 Q51.9875 1280.93 51.9875 1272.21 Q51.9875 1263.46 55.043 1258.87 Q58.1217 1254.27 63.9319 1254.27 Z" fill="#000000" fill-rule="nonzero" fill-opacity="1"></path><path clip-path="url(#clip260)" d="M84.0938 1283.57 L88.978 1283.57 L88.978 1289.45 L84.0938 1289.45 L84.0938 1283.57 Z" fill="#000000" fill-rule="nonzero" fill-opacity="1"></path><path clip-path="url(#clip260)" d="M103.191 1285.52 L119.51 1285.52 L119.51 1289.45 L97.566 1289.45 L97.566 1285.52 Q100.228 1282.76 104.811 1278.13 Q109.418 1273.48 110.598 1272.14 Q112.844 1269.62 113.723 1267.88 Q114.626 1266.12 114.626 1264.43 Q114.626 1261.68 112.682 1259.94 Q110.76 1258.2 107.658 1258.2 Q105.459 1258.2 103.006 1258.97 Q100.575 1259.73 97.7974 1261.28 L97.7974 1256.56 Q100.621 1255.43 103.075 1254.85 Q105.529 1254.27 107.566 1254.27 Q112.936 1254.27 116.131 1256.95 Q119.325 1259.64 119.325 1264.13 Q119.325 1266.26 118.515 1268.18 Q117.728 1270.08 115.621 1272.67 Q115.043 1273.34 111.941 1276.56 Q108.839 1279.75 103.191 1285.52 Z" fill="#000000" fill-rule="nonzero" fill-opacity="1"></path><path clip-path="url(#clip260)" d="M129.371 1254.89 L147.728 1254.89 L147.728 1258.83 L133.654 1258.83 L133.654 1267.3 Q134.672 1266.95 135.691 1266.79 Q136.709 1266.61 137.728 1266.61 Q143.515 1266.61 146.894 1269.78 Q150.274 1272.95 150.274 1278.36 Q150.274 1283.94 146.802 1287.05 Q143.33 1290.12 137.01 1290.12 Q134.834 1290.12 132.566 1289.75 Q130.32 1289.38 127.913 1288.64 L127.913 1283.94 Q129.996 1285.08 132.219 1285.63 Q134.441 1286.19 136.918 1286.19 Q140.922 1286.19 143.26 1284.08 Q145.598 1281.98 145.598 1278.36 Q145.598 1274.75 143.26 1272.65 Q140.922 1270.54 136.918 1270.54 Q135.043 1270.54 133.168 1270.96 Q131.316 1271.37 129.371 1272.25 L129.371 1254.89 Z" fill="#000000" fill-rule="nonzero" fill-opacity="1"></path><path clip-path="url(#clip260)" d="M62.9365 1136.88 Q59.3254 1136.88 57.4967 1140.44 Q55.6912 1143.99 55.6912 1151.11 Q55.6912 1158.22 57.4967 1161.79 Q59.3254 1165.33 62.9365 1165.33 Q66.5707 1165.33 68.3763 1161.79 Q70.205 1158.22 70.205 1151.11 Q70.205 1143.99 68.3763 1140.44 Q66.5707 1136.88 62.9365 1136.88 M62.9365 1133.17 Q68.7467 1133.17 71.8022 1137.78 Q74.8809 1142.36 74.8809 1151.11 Q74.8809 1159.84 71.8022 1164.45 Q68.7467 1169.03 62.9365 1169.03 Q57.1264 1169.03 54.0477 1164.45 Q50.9921 1159.84 50.9921 1151.11 Q50.9921 1142.36 54.0477 1137.78 Q57.1264 1133.17 62.9365 1133.17 Z" fill="#000000" fill-rule="nonzero" fill-opacity="1"></path><path clip-path="url(#clip260)" d="M83.0984 1162.48 L87.9827 1162.48 L87.9827 1168.36 L83.0984 1168.36 L83.0984 1162.48 Z" fill="#000000" fill-rule="nonzero" fill-opacity="1"></path><path clip-path="url(#clip260)" d="M98.2141 1133.8 L116.57 1133.8 L116.57 1137.74 L102.496 1137.74 L102.496 1146.21 Q103.515 1145.86 104.534 1145.7 Q105.552 1145.51 106.571 1145.51 Q112.358 1145.51 115.737 1148.68 Q119.117 1151.86 119.117 1157.27 Q119.117 1162.85 115.645 1165.95 Q112.172 1169.03 105.853 1169.03 Q103.677 1169.03 101.409 1168.66 Q99.1632 1168.29 96.7558 1167.55 L96.7558 1162.85 Q98.8391 1163.99 101.061 1164.54 Q103.284 1165.1 105.76 1165.1 Q109.765 1165.1 112.103 1162.99 Q114.441 1160.88 114.441 1157.27 Q114.441 1153.66 112.103 1151.55 Q109.765 1149.45 105.76 1149.45 Q103.885 1149.45 102.01 1149.86 Q100.159 1150.28 98.2141 1151.16 L98.2141 1133.8 Z" fill="#000000" fill-rule="nonzero" fill-opacity="1"></path><path clip-path="url(#clip260)" d="M138.33 1136.88 Q134.719 1136.88 132.89 1140.44 Q131.084 1143.99 131.084 1151.11 Q131.084 1158.22 132.89 1161.79 Q134.719 1165.33 138.33 1165.33 Q141.964 1165.33 143.769 1161.79 Q145.598 1158.22 145.598 1151.11 Q145.598 1143.99 143.769 1140.44 Q141.964 1136.88 138.33 1136.88 M138.33 1133.17 Q144.14 1133.17 147.195 1137.78 Q150.274 1142.36 150.274 1151.11 Q150.274 1159.84 147.195 1164.45 Q144.14 1169.03 138.33 1169.03 Q132.519 1169.03 129.441 1164.45 Q126.385 1159.84 126.385 1151.11 Q126.385 1142.36 129.441 1137.78 Q132.519 1133.17 138.33 1133.17 Z" fill="#000000" fill-rule="nonzero" fill-opacity="1"></path><path clip-path="url(#clip260)" d="M63.9319 1015.79 Q60.3208 1015.79 58.4921 1019.35 Q56.6865 1022.89 56.6865 1030.02 Q56.6865 1037.13 58.4921 1040.69 Q60.3208 1044.23 63.9319 1044.23 Q67.5661 1044.23 69.3717 1040.69 Q71.2004 1037.13 71.2004 1030.02 Q71.2004 1022.89 69.3717 1019.35 Q67.5661 1015.79 63.9319 1015.79 M63.9319 1012.08 Q69.742 1012.08 72.7976 1016.69 Q75.8763 1021.27 75.8763 1030.02 Q75.8763 1038.75 72.7976 1043.36 Q69.742 1047.94 63.9319 1047.94 Q58.1217 1047.94 55.043 1043.36 Q51.9875 1038.75 51.9875 1030.02 Q51.9875 1021.27 55.043 1016.69 Q58.1217 1012.08 63.9319 1012.08 Z" fill="#000000" fill-rule="nonzero" fill-opacity="1"></path><path clip-path="url(#clip260)" d="M84.0938 1041.39 L88.978 1041.39 L88.978 1047.27 L84.0938 1047.27 L84.0938 1041.39 Z" fill="#000000" fill-rule="nonzero" fill-opacity="1"></path><path clip-path="url(#clip260)" d="M97.9826 1012.71 L120.205 1012.71 L120.205 1014.7 L107.658 1047.27 L102.774 1047.27 L114.58 1016.64 L97.9826 1016.64 L97.9826 1012.71 Z" fill="#000000" fill-rule="nonzero" fill-opacity="1"></path><path clip-path="url(#clip260)" d="M129.371 1012.71 L147.728 1012.71 L147.728 1016.64 L133.654 1016.64 L133.654 1025.11 Q134.672 1024.77 135.691 1024.61 Q136.709 1024.42 137.728 1024.42 Q143.515 1024.42 146.894 1027.59 Q150.274 1030.76 150.274 1036.18 Q150.274 1041.76 146.802 1044.86 Q143.33 1047.94 137.01 1047.94 Q134.834 1047.94 132.566 1047.57 Q130.32 1047.2 127.913 1046.46 L127.913 1041.76 Q129.996 1042.89 132.219 1043.45 Q134.441 1044 136.918 1044 Q140.922 1044 143.26 1041.9 Q145.598 1039.79 145.598 1036.18 Q145.598 1032.57 143.26 1030.46 Q140.922 1028.36 136.918 1028.36 Q135.043 1028.36 133.168 1028.77 Q131.316 1029.19 129.371 1030.07 L129.371 1012.71 Z" fill="#000000" fill-rule="nonzero" fill-opacity="1"></path><path clip-path="url(#clip260)" d="M53.7467 922.239 L61.3856 922.239 L61.3856 895.873 L53.0754 897.54 L53.0754 893.281 L61.3393 891.614 L66.0152 891.614 L66.0152 922.239 L73.654 922.239 L73.654 926.174 L53.7467 926.174 L53.7467 922.239 Z" fill="#000000" fill-rule="nonzero" fill-opacity="1"></path><path clip-path="url(#clip260)" d="M83.0984 920.295 L87.9827 920.295 L87.9827 926.174 L83.0984 926.174 L83.0984 920.295 Z" fill="#000000" fill-rule="nonzero" fill-opacity="1"></path><path clip-path="url(#clip260)" d="M108.168 894.693 Q104.557 894.693 102.728 898.258 Q100.922 901.799 100.922 908.929 Q100.922 916.035 102.728 919.6 Q104.557 923.142 108.168 923.142 Q111.802 923.142 113.608 919.6 Q115.436 916.035 115.436 908.929 Q115.436 901.799 113.608 898.258 Q111.802 894.693 108.168 894.693 M108.168 890.989 Q113.978 890.989 117.033 895.596 Q120.112 900.179 120.112 908.929 Q120.112 917.656 117.033 922.262 Q113.978 926.845 108.168 926.845 Q102.358 926.845 99.2789 922.262 Q96.2234 917.656 96.2234 908.929 Q96.2234 900.179 99.2789 895.596 Q102.358 890.989 108.168 890.989 Z" fill="#000000" fill-rule="nonzero" fill-opacity="1"></path><path clip-path="url(#clip260)" d="M138.33 894.693 Q134.719 894.693 132.89 898.258 Q131.084 901.799 131.084 908.929 Q131.084 916.035 132.89 919.6 Q134.719 923.142 138.33 923.142 Q141.964 923.142 143.769 919.6 Q145.598 916.035 145.598 908.929 Q145.598 901.799 143.769 898.258 Q141.964 894.693 138.33 894.693 M138.33 890.989 Q144.14 890.989 147.195 895.596 Q150.274 900.179 150.274 908.929 Q150.274 917.656 147.195 922.262 Q144.14 926.845 138.33 926.845 Q132.519 926.845 129.441 922.262 Q126.385 917.656 126.385 908.929 Q126.385 900.179 129.441 895.596 Q132.519 890.989 138.33 890.989 Z" fill="#000000" fill-rule="nonzero" fill-opacity="1"></path><polyline clip-path="url(#clip263)" style="stroke:#000000; stroke-linecap:round; stroke-linejoin:round; stroke-width:4; stroke-opacity:1; fill:none" points="247.59,1349.74 313.52,1336.01 379.451,1322.42 445.382,1308.85 511.312,1295.02 577.243,1281.08 643.174,1267.53 709.104,1254.72 775.035,1242.62 840.966,1230.79 906.896,1219.09 972.827,1207.72 1038.76,1197.37 1104.69,1188.24 1170.62,1180.03 1236.55,1172.2 1302.48,1164.04 1368.41,1155.14 1434.34,1145.64 1500.27,1135.9 1566.2,1126.32 1632.13,1117.3 1698.06,1108.77 1763.99,1100.6 1829.93,1092.84 1895.86,1085.34 1961.79,1078.2 2027.72,1071.98 2093.65,1067.5 2159.58,1064.9 2225.51,1064.13 2291.44,1065.45 "></polyline>
<polyline clip-path="url(#clip263)" style="stroke:#ff0000; stroke-linecap:round; stroke-linejoin:round; stroke-width:4; stroke-opacity:1; fill:none" points="247.59,966.265 313.52,969.664 379.451,973.841 445.382,969.147 511.312,960.804 577.243,964.629 643.174,983.425 709.104,1009.06 775.035,1024.02 840.966,1029.17 906.896,1031.52 972.827,1053.84 1038.76,1092.8 1104.69,1126.35 1170.62,1148.38 1236.55,1148.94 1302.48,1128.97 1368.41,1106.52 1434.34,1093.34 1500.27,1091.24 1566.2,1103.88 1632.13,1122.53 1698.06,1133.88 1763.99,1147.03 1829.93,1157.29 1895.86,1164.59 1961.79,1181.91 2027.72,1224.75 2093.65,1284.13 2159.58,1340.47 2225.51,1400.25 2291.44,1469.44 "></polyline>
<polyline clip-path="url(#clip263)" style="stroke:#0000ff; stroke-linecap:round; stroke-linejoin:round; stroke-width:4; stroke-opacity:1; fill:none" points="247.59,1347.5 313.52,1336.14 379.451,1324.39 445.382,1312.33 511.312,1300.1 577.243,1287.86 643.174,1275.82 709.104,1264.15 775.035,1252.92 840.966,1242.04 906.896,1231.35 972.827,1220.74 1038.76,1210.25 1104.69,1200.09 1170.62,1190.48 1236.55,1181.48 1302.48,1172.95 1368.41,1164.65 1434.34,1156.37 1500.27,1148.02 1566.2,1139.64 1632.13,1131.29 1698.06,1123.1 1763.99,1115.19 1829.93,1107.69 1895.86,1100.65 1961.79,1094 2027.72,1087.57 2093.65,1081.29 2159.58,1075.37 2225.51,1070.39 2291.44,1067.11 "></polyline>
<polyline clip-path="url(#clip263)" style="stroke:#ffa500; stroke-linecap:round; stroke-linejoin:round; stroke-width:4; stroke-opacity:1; fill:none" points="247.59,1000.81 313.52,1000.37 379.451,1004.24 445.382,998.049 511.312,998.744 577.243,1002.05 643.174,1009.13 709.104,1028.63 775.035,1050.09 840.966,1066.37 906.896,1085.1 972.827,1106.1 1038.76,1121.58 1104.69,1134.42 1170.62,1146.58 1236.55,1148.1 1302.48,1139.03 1368.41,1131.32 1434.34,1125.26 1500.27,1114.58 1566.2,1105.73 1632.13,1108.86 1698.06,1121.21 1763.99,1135.42 1829.93,1151.66 1895.86,1172 1961.79,1195.07 2027.72,1223.88 2093.65,1265.5 2159.58,1319.87 2225.51,1378.71 2291.44,1435.74 "></polyline>
<circle clip-path="url(#clip263)" cx="247.59" cy="1255.8" r="14.4" fill="#800080" fill-rule="evenodd" fill-opacity="1" stroke="#000000" stroke-opacity="1" stroke-width="3.2"></circle>
<circle clip-path="url(#clip263)" cx="313.52" cy="1388.83" r="14.4" fill="#800080" fill-rule="evenodd" fill-opacity="1" stroke="#000000" stroke-opacity="1" stroke-width="3.2"></circle>
<circle clip-path="url(#clip263)" cx="379.451" cy="1249.78" r="14.4" fill="#800080" fill-rule="evenodd" fill-opacity="1" stroke="#000000" stroke-opacity="1" stroke-width="3.2"></circle>
<circle clip-path="url(#clip263)" cx="445.382" cy="1284.92" r="14.4" fill="#800080" fill-rule="evenodd" fill-opacity="1" stroke="#000000" stroke-opacity="1" stroke-width="3.2"></circle>
<circle clip-path="url(#clip263)" cx="511.312" cy="1229.56" r="14.4" fill="#800080" fill-rule="evenodd" fill-opacity="1" stroke="#000000" stroke-opacity="1" stroke-width="3.2"></circle>
<circle clip-path="url(#clip263)" cx="577.243" cy="1266.75" r="14.4" fill="#800080" fill-rule="evenodd" fill-opacity="1" stroke="#000000" stroke-opacity="1" stroke-width="3.2"></circle>
<circle clip-path="url(#clip263)" cx="643.174" cy="1236.29" r="14.4" fill="#800080" fill-rule="evenodd" fill-opacity="1" stroke="#000000" stroke-opacity="1" stroke-width="3.2"></circle>
<circle clip-path="url(#clip263)" cx="709.104" cy="1254.83" r="14.4" fill="#800080" fill-rule="evenodd" fill-opacity="1" stroke="#000000" stroke-opacity="1" stroke-width="3.2"></circle>
<circle clip-path="url(#clip263)" cx="775.035" cy="1241.93" r="14.4" fill="#800080" fill-rule="evenodd" fill-opacity="1" stroke="#000000" stroke-opacity="1" stroke-width="3.2"></circle>
<circle clip-path="url(#clip263)" cx="840.966" cy="1212.27" r="14.4" fill="#800080" fill-rule="evenodd" fill-opacity="1" stroke="#000000" stroke-opacity="1" stroke-width="3.2"></circle>
<circle clip-path="url(#clip263)" cx="906.896" cy="1175.23" r="14.4" fill="#800080" fill-rule="evenodd" fill-opacity="1" stroke="#000000" stroke-opacity="1" stroke-width="3.2"></circle>
<circle clip-path="url(#clip263)" cx="972.827" cy="1078.77" r="14.4" fill="#800080" fill-rule="evenodd" fill-opacity="1" stroke="#000000" stroke-opacity="1" stroke-width="3.2"></circle>
<circle clip-path="url(#clip263)" cx="1038.76" cy="1266.28" r="14.4" fill="#800080" fill-rule="evenodd" fill-opacity="1" stroke="#000000" stroke-opacity="1" stroke-width="3.2"></circle>
<circle clip-path="url(#clip263)" cx="1104.69" cy="1248.24" r="14.4" fill="#800080" fill-rule="evenodd" fill-opacity="1" stroke="#000000" stroke-opacity="1" stroke-width="3.2"></circle>
<circle clip-path="url(#clip263)" cx="1170.62" cy="1059.15" r="14.4" fill="#800080" fill-rule="evenodd" fill-opacity="1" stroke="#000000" stroke-opacity="1" stroke-width="3.2"></circle>
<circle clip-path="url(#clip263)" cx="1236.55" cy="1276.05" r="14.4" fill="#800080" fill-rule="evenodd" fill-opacity="1" stroke="#000000" stroke-opacity="1" stroke-width="3.2"></circle>
<circle clip-path="url(#clip263)" cx="1302.48" cy="1243.39" r="14.4" fill="#800080" fill-rule="evenodd" fill-opacity="1" stroke="#000000" stroke-opacity="1" stroke-width="3.2"></circle>
<circle clip-path="url(#clip263)" cx="1368.41" cy="1166.57" r="14.4" fill="#800080" fill-rule="evenodd" fill-opacity="1" stroke="#000000" stroke-opacity="1" stroke-width="3.2"></circle>
<circle clip-path="url(#clip263)" cx="1434.34" cy="1127.23" r="14.4" fill="#800080" fill-rule="evenodd" fill-opacity="1" stroke="#000000" stroke-opacity="1" stroke-width="3.2"></circle>
<circle clip-path="url(#clip263)" cx="1500.27" cy="1065.54" r="14.4" fill="#800080" fill-rule="evenodd" fill-opacity="1" stroke="#000000" stroke-opacity="1" stroke-width="3.2"></circle>
<circle clip-path="url(#clip263)" cx="1566.2" cy="1071.64" r="14.4" fill="#800080" fill-rule="evenodd" fill-opacity="1" stroke="#000000" stroke-opacity="1" stroke-width="3.2"></circle>
<circle clip-path="url(#clip263)" cx="1632.13" cy="1162.38" r="14.4" fill="#800080" fill-rule="evenodd" fill-opacity="1" stroke="#000000" stroke-opacity="1" stroke-width="3.2"></circle>
<circle clip-path="url(#clip263)" cx="1698.06" cy="1114.86" r="14.4" fill="#800080" fill-rule="evenodd" fill-opacity="1" stroke="#000000" stroke-opacity="1" stroke-width="3.2"></circle>
<circle clip-path="url(#clip263)" cx="1763.99" cy="1177.16" r="14.4" fill="#800080" fill-rule="evenodd" fill-opacity="1" stroke="#000000" stroke-opacity="1" stroke-width="3.2"></circle>
<circle clip-path="url(#clip263)" cx="1829.93" cy="1091.04" r="14.4" fill="#800080" fill-rule="evenodd" fill-opacity="1" stroke="#000000" stroke-opacity="1" stroke-width="3.2"></circle>
<circle clip-path="url(#clip263)" cx="1895.86" cy="1138.45" r="14.4" fill="#800080" fill-rule="evenodd" fill-opacity="1" stroke="#000000" stroke-opacity="1" stroke-width="3.2"></circle>
<circle clip-path="url(#clip263)" cx="1961.79" cy="1079.79" r="14.4" fill="#800080" fill-rule="evenodd" fill-opacity="1" stroke="#000000" stroke-opacity="1" stroke-width="3.2"></circle>
<circle clip-path="url(#clip263)" cx="2027.72" cy="1086.38" r="14.4" fill="#800080" fill-rule="evenodd" fill-opacity="1" stroke="#000000" stroke-opacity="1" stroke-width="3.2"></circle>
<circle clip-path="url(#clip263)" cx="2093.65" cy="1059.74" r="14.4" fill="#800080" fill-rule="evenodd" fill-opacity="1" stroke="#000000" stroke-opacity="1" stroke-width="3.2"></circle>
<circle clip-path="url(#clip263)" cx="2159.58" cy="1174.91" r="14.4" fill="#800080" fill-rule="evenodd" fill-opacity="1" stroke="#000000" stroke-opacity="1" stroke-width="3.2"></circle>
<circle clip-path="url(#clip263)" cx="2225.51" cy="1093.11" r="14.4" fill="#800080" fill-rule="evenodd" fill-opacity="1" stroke="#000000" stroke-opacity="1" stroke-width="3.2"></circle>
<circle clip-path="url(#clip263)" cx="2291.44" cy="1113.47" r="14.4" fill="#800080" fill-rule="evenodd" fill-opacity="1" stroke="#000000" stroke-opacity="1" stroke-width="3.2"></circle>
<circle clip-path="url(#clip263)" cx="247.59" cy="902.37" r="14.4" fill="#ffff00" fill-rule="evenodd" fill-opacity="1" stroke="#000000" stroke-opacity="1" stroke-width="3.2"></circle>
<circle clip-path="url(#clip263)" cx="313.52" cy="1053.8" r="14.4" fill="#ffff00" fill-rule="evenodd" fill-opacity="1" stroke="#000000" stroke-opacity="1" stroke-width="3.2"></circle>
<circle clip-path="url(#clip263)" cx="379.451" cy="1087.49" r="14.4" fill="#ffff00" fill-rule="evenodd" fill-opacity="1" stroke="#000000" stroke-opacity="1" stroke-width="3.2"></circle>
<circle clip-path="url(#clip263)" cx="445.382" cy="904.064" r="14.4" fill="#ffff00" fill-rule="evenodd" fill-opacity="1" stroke="#000000" stroke-opacity="1" stroke-width="3.2"></circle>
<circle clip-path="url(#clip263)" cx="511.312" cy="959.192" r="14.4" fill="#ffff00" fill-rule="evenodd" fill-opacity="1" stroke="#000000" stroke-opacity="1" stroke-width="3.2"></circle>
<circle clip-path="url(#clip263)" cx="577.243" cy="905.38" r="14.4" fill="#ffff00" fill-rule="evenodd" fill-opacity="1" stroke="#000000" stroke-opacity="1" stroke-width="3.2"></circle>
<circle clip-path="url(#clip263)" cx="643.174" cy="1068.69" r="14.4" fill="#ffff00" fill-rule="evenodd" fill-opacity="1" stroke="#000000" stroke-opacity="1" stroke-width="3.2"></circle>
<circle clip-path="url(#clip263)" cx="709.104" cy="1068.48" r="14.4" fill="#ffff00" fill-rule="evenodd" fill-opacity="1" stroke="#000000" stroke-opacity="1" stroke-width="3.2"></circle>
<circle clip-path="url(#clip263)" cx="775.035" cy="977.835" r="14.4" fill="#ffff00" fill-rule="evenodd" fill-opacity="1" stroke="#000000" stroke-opacity="1" stroke-width="3.2"></circle>
<circle clip-path="url(#clip263)" cx="840.966" cy="951.717" r="14.4" fill="#ffff00" fill-rule="evenodd" fill-opacity="1" stroke="#000000" stroke-opacity="1" stroke-width="3.2"></circle>
<circle clip-path="url(#clip263)" cx="906.896" cy="945.98" r="14.4" fill="#ffff00" fill-rule="evenodd" fill-opacity="1" stroke="#000000" stroke-opacity="1" stroke-width="3.2"></circle>
<circle clip-path="url(#clip263)" cx="972.827" cy="1007.3" r="14.4" fill="#ffff00" fill-rule="evenodd" fill-opacity="1" stroke="#000000" stroke-opacity="1" stroke-width="3.2"></circle>
<circle clip-path="url(#clip263)" cx="1038.76" cy="1137.91" r="14.4" fill="#ffff00" fill-rule="evenodd" fill-opacity="1" stroke="#000000" stroke-opacity="1" stroke-width="3.2"></circle>
<circle clip-path="url(#clip263)" cx="1104.69" cy="1197.89" r="14.4" fill="#ffff00" fill-rule="evenodd" fill-opacity="1" stroke="#000000" stroke-opacity="1" stroke-width="3.2"></circle>
<circle clip-path="url(#clip263)" cx="1170.62" cy="1142.93" r="14.4" fill="#ffff00" fill-rule="evenodd" fill-opacity="1" stroke="#000000" stroke-opacity="1" stroke-width="3.2"></circle>
<circle clip-path="url(#clip263)" cx="1236.55" cy="1059.32" r="14.4" fill="#ffff00" fill-rule="evenodd" fill-opacity="1" stroke="#000000" stroke-opacity="1" stroke-width="3.2"></circle>
<circle clip-path="url(#clip263)" cx="1302.48" cy="1120.54" r="14.4" fill="#ffff00" fill-rule="evenodd" fill-opacity="1" stroke="#000000" stroke-opacity="1" stroke-width="3.2"></circle>
<circle clip-path="url(#clip263)" cx="1368.41" cy="1189.2" r="14.4" fill="#ffff00" fill-rule="evenodd" fill-opacity="1" stroke="#000000" stroke-opacity="1" stroke-width="3.2"></circle>
<circle clip-path="url(#clip263)" cx="1434.34" cy="1077.69" r="14.4" fill="#ffff00" fill-rule="evenodd" fill-opacity="1" stroke="#000000" stroke-opacity="1" stroke-width="3.2"></circle>
<circle clip-path="url(#clip263)" cx="1500.27" cy="1035.62" r="14.4" fill="#ffff00" fill-rule="evenodd" fill-opacity="1" stroke="#000000" stroke-opacity="1" stroke-width="3.2"></circle>
<circle clip-path="url(#clip263)" cx="1566.2" cy="1141.75" r="14.4" fill="#ffff00" fill-rule="evenodd" fill-opacity="1" stroke="#000000" stroke-opacity="1" stroke-width="3.2"></circle>
<circle clip-path="url(#clip263)" cx="1632.13" cy="1072.67" r="14.4" fill="#ffff00" fill-rule="evenodd" fill-opacity="1" stroke="#000000" stroke-opacity="1" stroke-width="3.2"></circle>
<circle clip-path="url(#clip263)" cx="1698.06" cy="1059.44" r="14.4" fill="#ffff00" fill-rule="evenodd" fill-opacity="1" stroke="#000000" stroke-opacity="1" stroke-width="3.2"></circle>
<circle clip-path="url(#clip263)" cx="1763.99" cy="1156.22" r="14.4" fill="#ffff00" fill-rule="evenodd" fill-opacity="1" stroke="#000000" stroke-opacity="1" stroke-width="3.2"></circle>
<circle clip-path="url(#clip263)" cx="1829.93" cy="1060.21" r="14.4" fill="#ffff00" fill-rule="evenodd" fill-opacity="1" stroke="#000000" stroke-opacity="1" stroke-width="3.2"></circle>
<circle clip-path="url(#clip263)" cx="1895.86" cy="1139.68" r="14.4" fill="#ffff00" fill-rule="evenodd" fill-opacity="1" stroke="#000000" stroke-opacity="1" stroke-width="3.2"></circle>
<circle clip-path="url(#clip263)" cx="1961.79" cy="1088.04" r="14.4" fill="#ffff00" fill-rule="evenodd" fill-opacity="1" stroke="#000000" stroke-opacity="1" stroke-width="3.2"></circle>
<circle clip-path="url(#clip263)" cx="2027.72" cy="1233.31" r="14.4" fill="#ffff00" fill-rule="evenodd" fill-opacity="1" stroke="#000000" stroke-opacity="1" stroke-width="3.2"></circle>
<circle clip-path="url(#clip263)" cx="2093.65" cy="1219.28" r="14.4" fill="#ffff00" fill-rule="evenodd" fill-opacity="1" stroke="#000000" stroke-opacity="1" stroke-width="3.2"></circle>
<circle clip-path="url(#clip263)" cx="2159.58" cy="1324.25" r="14.4" fill="#ffff00" fill-rule="evenodd" fill-opacity="1" stroke="#000000" stroke-opacity="1" stroke-width="3.2"></circle>
<circle clip-path="url(#clip263)" cx="2225.51" cy="1346.6" r="14.4" fill="#ffff00" fill-rule="evenodd" fill-opacity="1" stroke="#000000" stroke-opacity="1" stroke-width="3.2"></circle>
<circle clip-path="url(#clip263)" cx="2291.44" cy="1350.61" r="14.4" fill="#ffff00" fill-rule="evenodd" fill-opacity="1" stroke="#000000" stroke-opacity="1" stroke-width="3.2"></circle>
<path clip-path="url(#clip260)" d="M1918.43 1268.27 L2280.54 1268.27 L2280.54 905.394 L1918.43 905.394  Z" fill="#ffffff" fill-rule="evenodd" fill-opacity="1"></path>
<polyline clip-path="url(#clip260)" style="stroke:#000000; stroke-linecap:round; stroke-linejoin:round; stroke-width:4; stroke-opacity:1; fill:none" points="1918.43,1268.27 2280.54,1268.27 2280.54,905.394 1918.43,905.394 1918.43,1268.27 "></polyline>
<polyline clip-path="url(#clip260)" style="stroke:#000000; stroke-linecap:round; stroke-linejoin:round; stroke-width:4; stroke-opacity:1; fill:none" points="1942.5,957.234 2086.93,957.234 "></polyline>
<path clip-path="url(#clip260)" d="M2130.26 958.079 L2115.52 958.079 Q2115.87 965.001 2117.46 967.94 Q2119.45 971.551 2122.9 971.551 Q2126.38 971.551 2128.3 967.917 Q2129.99 964.723 2130.26 958.079 M2130.2 954.144 Q2129.55 947.57 2128.3 945.255 Q2126.31 941.598 2122.9 941.598 Q2119.36 941.598 2117.49 945.209 Q2116.01 948.126 2115.57 954.144 L2130.2 954.144 M2122.9 938.126 Q2128.46 938.126 2131.63 943.033 Q2134.8 947.917 2134.8 956.575 Q2134.8 965.209 2131.63 970.116 Q2128.46 975.047 2122.9 975.047 Q2117.33 975.047 2114.18 970.116 Q2111.01 965.209 2111.01 956.575 Q2111.01 947.917 2114.18 943.033 Q2117.33 938.126 2122.9 938.126 Z" fill="#000000" fill-rule="nonzero" fill-opacity="1"></path><path clip-path="url(#clip260)" d="M2165.61 969.584 L2165.61 960.302 L2157.97 960.302 L2157.97 956.459 L2170.24 956.459 L2170.24 971.297 Q2167.53 973.218 2164.27 974.214 Q2161.01 975.186 2157.3 975.186 Q2149.2 975.186 2144.62 970.464 Q2140.06 965.718 2140.06 957.269 Q2140.06 948.797 2144.62 944.075 Q2149.2 939.329 2157.3 939.329 Q2160.68 939.329 2163.71 940.163 Q2166.77 940.996 2169.34 942.616 L2169.34 947.593 Q2166.75 945.394 2163.83 944.283 Q2160.91 943.172 2157.7 943.172 Q2151.35 943.172 2148.16 946.714 Q2144.99 950.255 2144.99 957.269 Q2144.99 964.26 2148.16 967.802 Q2151.35 971.343 2157.7 971.343 Q2160.17 971.343 2162.12 970.926 Q2164.06 970.487 2165.61 969.584 Z" fill="#000000" fill-rule="nonzero" fill-opacity="1"></path><path clip-path="url(#clip260)" d="M2172.3 939.954 L2201.54 939.954 L2201.54 943.89 L2189.27 943.89 L2189.27 974.514 L2184.57 974.514 L2184.57 943.89 L2172.3 943.89 L2172.3 939.954 Z" fill="#000000" fill-rule="nonzero" fill-opacity="1"></path><polyline clip-path="url(#clip260)" style="stroke:#ff0000; stroke-linecap:round; stroke-linejoin:round; stroke-width:4; stroke-opacity:1; fill:none" points="1942.5,1009.07 2086.93,1009.07 "></polyline>
<path clip-path="url(#clip260)" d="M2120.61 1027.03 Q2111.01 1027.03 2111.01 1013.28 Q2111.01 1007.84 2114.59 1000.43 L2119.18 1000.43 Q2115.87 1007.84 2115.87 1013.39 Q2115.87 1023.41 2121.01 1023.41 Q2125.7 1023.41 2125.7 1010.96 L2129.64 1010.96 Q2129.64 1023.41 2134.34 1023.41 Q2139.48 1023.41 2139.48 1013.39 Q2139.48 1007.84 2136.17 1000.43 L2140.75 1000.43 Q2144.34 1007.84 2144.34 1013.28 Q2144.34 1027.03 2134.73 1027.03 Q2128.44 1027.03 2127.67 1020.1 Q2126.72 1027.03 2120.61 1027.03 Z" fill="#000000" fill-rule="nonzero" fill-opacity="1"></path><path clip-path="url(#clip260)" d="M2175.8 1021.42 L2175.8 1012.14 L2168.16 1012.14 L2168.16 1008.3 L2180.43 1008.3 L2180.43 1023.14 Q2177.72 1025.06 2174.45 1026.05 Q2171.19 1027.03 2167.49 1027.03 Q2159.39 1027.03 2154.8 1022.3 Q2150.24 1017.56 2150.24 1009.11 Q2150.24 1000.64 2154.8 995.915 Q2159.39 991.169 2167.49 991.169 Q2170.87 991.169 2173.9 992.003 Q2176.95 992.836 2179.52 994.456 L2179.52 999.433 Q2176.93 997.234 2174.01 996.123 Q2171.1 995.012 2167.88 995.012 Q2161.54 995.012 2158.34 998.554 Q2155.17 1002.1 2155.17 1009.11 Q2155.17 1016.1 2158.34 1019.64 Q2161.54 1023.18 2167.88 1023.18 Q2170.36 1023.18 2172.3 1022.77 Q2174.25 1022.33 2175.8 1021.42 Z" fill="#000000" fill-rule="nonzero" fill-opacity="1"></path><path clip-path="url(#clip260)" d="M2182.49 991.794 L2211.72 991.794 L2211.72 995.73 L2199.45 995.73 L2199.45 1026.35 L2194.76 1026.35 L2194.76 995.73 L2182.49 995.73 L2182.49 991.794 Z" fill="#000000" fill-rule="nonzero" fill-opacity="1"></path><polyline clip-path="url(#clip260)" style="stroke:#0000ff; stroke-linecap:round; stroke-linejoin:round; stroke-width:4; stroke-opacity:1; fill:none" points="1942.5,1060.91 2086.93,1060.91 "></polyline>
<path clip-path="url(#clip260)" d="M2130.26 1061.76 L2115.52 1061.76 Q2115.87 1068.68 2117.46 1071.62 Q2119.45 1075.23 2122.9 1075.23 Q2126.38 1075.23 2128.3 1071.6 Q2129.99 1068.4 2130.26 1061.76 M2130.2 1057.82 Q2129.55 1051.25 2128.3 1048.94 Q2126.31 1045.28 2122.9 1045.28 Q2119.36 1045.28 2117.49 1048.89 Q2116.01 1051.81 2115.57 1057.82 L2130.2 1057.82 M2122.9 1041.81 Q2128.46 1041.81 2131.63 1046.71 Q2134.8 1051.6 2134.8 1060.25 Q2134.8 1068.89 2131.63 1073.8 Q2128.46 1078.73 2122.9 1078.73 Q2117.33 1078.73 2114.18 1073.8 Q2111.01 1068.89 2111.01 1060.25 Q2111.01 1051.6 2114.18 1046.71 Q2117.33 1041.81 2122.9 1041.81 Z" fill="#000000" fill-rule="nonzero" fill-opacity="1"></path><path clip-path="url(#clip260)" d="M2146.72 1047.48 L2146.72 1060.46 L2152.6 1060.46 Q2155.87 1060.46 2157.65 1058.77 Q2159.43 1057.08 2159.43 1053.96 Q2159.43 1050.86 2157.65 1049.17 Q2155.87 1047.48 2152.6 1047.48 L2146.72 1047.48 M2142.05 1043.63 L2152.6 1043.63 Q2158.41 1043.63 2161.38 1046.27 Q2164.36 1048.89 2164.36 1053.96 Q2164.36 1059.07 2161.38 1061.69 Q2158.41 1064.31 2152.6 1064.31 L2146.72 1064.31 L2146.72 1078.19 L2142.05 1078.19 L2142.05 1043.63 Z" fill="#000000" fill-rule="nonzero" fill-opacity="1"></path><path clip-path="url(#clip260)" d="M2184.64 1056.25 Q2183.92 1055.83 2183.07 1055.65 Q2182.23 1055.44 2181.21 1055.44 Q2177.6 1055.44 2175.66 1057.8 Q2173.74 1060.14 2173.74 1064.54 L2173.74 1078.19 L2169.45 1078.19 L2169.45 1052.27 L2173.74 1052.27 L2173.74 1056.3 Q2175.08 1053.94 2177.23 1052.8 Q2179.38 1051.64 2182.46 1051.64 Q2182.9 1051.64 2183.44 1051.71 Q2183.97 1051.76 2184.62 1051.88 L2184.64 1056.25 Z" fill="#000000" fill-rule="nonzero" fill-opacity="1"></path><path clip-path="url(#clip260)" d="M2210.24 1064.17 L2210.24 1066.25 L2190.66 1066.25 Q2190.94 1070.65 2193.3 1072.96 Q2195.68 1075.25 2199.92 1075.25 Q2202.37 1075.25 2204.66 1074.65 Q2206.98 1074.05 2209.25 1072.85 L2209.25 1076.87 Q2206.95 1077.85 2204.55 1078.36 Q2202.14 1078.87 2199.66 1078.87 Q2193.46 1078.87 2189.82 1075.25 Q2186.21 1071.64 2186.21 1065.49 Q2186.21 1059.12 2189.64 1055.39 Q2193.09 1051.64 2198.92 1051.64 Q2204.15 1051.64 2207.19 1055.02 Q2210.24 1058.38 2210.24 1064.17 M2205.98 1062.92 Q2205.94 1059.42 2204.01 1057.34 Q2202.12 1055.25 2198.97 1055.25 Q2195.4 1055.25 2193.25 1057.27 Q2191.12 1059.28 2190.8 1062.94 L2205.98 1062.92 Z" fill="#000000" fill-rule="nonzero" fill-opacity="1"></path><path clip-path="url(#clip260)" d="M2234.29 1056.2 L2234.29 1042.18 L2238.55 1042.18 L2238.55 1078.19 L2234.29 1078.19 L2234.29 1074.31 Q2232.95 1076.62 2230.89 1077.75 Q2228.85 1078.87 2225.98 1078.87 Q2221.28 1078.87 2218.32 1075.12 Q2215.38 1071.37 2215.38 1065.25 Q2215.38 1059.14 2218.32 1055.39 Q2221.28 1051.64 2225.98 1051.64 Q2228.85 1051.64 2230.89 1052.78 Q2232.95 1053.89 2234.29 1056.2 M2219.78 1065.25 Q2219.78 1069.95 2221.7 1072.64 Q2223.64 1075.3 2227.02 1075.3 Q2230.4 1075.3 2232.35 1072.64 Q2234.29 1069.95 2234.29 1065.25 Q2234.29 1060.56 2232.35 1057.89 Q2230.4 1055.21 2227.02 1055.21 Q2223.64 1055.21 2221.7 1057.89 Q2219.78 1060.56 2219.78 1065.25 Z" fill="#000000" fill-rule="nonzero" fill-opacity="1"></path><polyline clip-path="url(#clip260)" style="stroke:#ffa500; stroke-linecap:round; stroke-linejoin:round; stroke-width:4; stroke-opacity:1; fill:none" points="1942.5,1112.75 2086.93,1112.75 "></polyline>
<path clip-path="url(#clip260)" d="M2120.61 1130.71 Q2111.01 1130.71 2111.01 1116.96 Q2111.01 1111.52 2114.59 1104.11 L2119.18 1104.11 Q2115.87 1111.52 2115.87 1117.07 Q2115.87 1127.09 2121.01 1127.09 Q2125.7 1127.09 2125.7 1114.64 L2129.64 1114.64 Q2129.64 1127.09 2134.34 1127.09 Q2139.48 1127.09 2139.48 1117.07 Q2139.48 1111.52 2136.17 1104.11 L2140.75 1104.11 Q2144.34 1111.52 2144.34 1116.96 Q2144.34 1130.71 2134.73 1130.71 Q2128.44 1130.71 2127.67 1123.78 Q2126.72 1130.71 2120.61 1130.71 Z" fill="#000000" fill-rule="nonzero" fill-opacity="1"></path><path clip-path="url(#clip260)" d="M2156.91 1099.32 L2156.91 1112.3 L2162.79 1112.3 Q2166.05 1112.3 2167.83 1110.61 Q2169.62 1108.92 2169.62 1105.8 Q2169.62 1102.7 2167.83 1101.01 Q2166.05 1099.32 2162.79 1099.32 L2156.91 1099.32 M2152.23 1095.47 L2162.79 1095.47 Q2168.6 1095.47 2171.56 1098.11 Q2174.55 1100.73 2174.55 1105.8 Q2174.55 1110.91 2171.56 1113.53 Q2168.6 1116.15 2162.79 1116.15 L2156.91 1116.15 L2156.91 1130.03 L2152.23 1130.03 L2152.23 1095.47 Z" fill="#000000" fill-rule="nonzero" fill-opacity="1"></path><path clip-path="url(#clip260)" d="M2194.82 1108.09 Q2194.11 1107.67 2193.25 1107.49 Q2192.42 1107.28 2191.4 1107.28 Q2187.79 1107.28 2185.84 1109.64 Q2183.92 1111.98 2183.92 1116.38 L2183.92 1130.03 L2179.64 1130.03 L2179.64 1104.11 L2183.92 1104.11 L2183.92 1108.14 Q2185.26 1105.78 2187.42 1104.64 Q2189.57 1103.48 2192.65 1103.48 Q2193.09 1103.48 2193.62 1103.55 Q2194.15 1103.6 2194.8 1103.72 L2194.82 1108.09 Z" fill="#000000" fill-rule="nonzero" fill-opacity="1"></path><path clip-path="url(#clip260)" d="M2220.43 1116.01 L2220.43 1118.09 L2200.84 1118.09 Q2201.12 1122.49 2203.48 1124.8 Q2205.87 1127.09 2210.1 1127.09 Q2212.56 1127.09 2214.85 1126.49 Q2217.16 1125.89 2219.43 1124.69 L2219.43 1128.71 Q2217.14 1129.69 2214.73 1130.2 Q2212.32 1130.71 2209.85 1130.71 Q2203.64 1130.71 2200.01 1127.09 Q2196.4 1123.48 2196.4 1117.33 Q2196.4 1110.96 2199.82 1107.23 Q2203.27 1103.48 2209.11 1103.48 Q2214.34 1103.48 2217.37 1106.86 Q2220.43 1110.22 2220.43 1116.01 M2216.17 1114.76 Q2216.12 1111.26 2214.2 1109.18 Q2212.3 1107.09 2209.15 1107.09 Q2205.59 1107.09 2203.44 1109.11 Q2201.31 1111.12 2200.98 1114.78 L2216.17 1114.76 Z" fill="#000000" fill-rule="nonzero" fill-opacity="1"></path><path clip-path="url(#clip260)" d="M2244.48 1108.04 L2244.48 1094.02 L2248.74 1094.02 L2248.74 1130.03 L2244.48 1130.03 L2244.48 1126.15 Q2243.13 1128.46 2241.07 1129.59 Q2239.04 1130.71 2236.17 1130.71 Q2231.47 1130.71 2228.51 1126.96 Q2225.57 1123.21 2225.57 1117.09 Q2225.57 1110.98 2228.51 1107.23 Q2231.47 1103.48 2236.17 1103.48 Q2239.04 1103.48 2241.07 1104.62 Q2243.13 1105.73 2244.48 1108.04 M2229.96 1117.09 Q2229.96 1121.79 2231.88 1124.48 Q2233.83 1127.14 2237.21 1127.14 Q2240.59 1127.14 2242.53 1124.48 Q2244.48 1121.79 2244.48 1117.09 Q2244.48 1112.4 2242.53 1109.73 Q2240.59 1107.05 2237.21 1107.05 Q2233.83 1107.05 2231.88 1109.73 Q2229.96 1112.4 2229.96 1117.09 Z" fill="#000000" fill-rule="nonzero" fill-opacity="1"></path><circle clip-path="url(#clip260)" cx="2014.72" cy="1164.59" r="20.48" fill="#800080" fill-rule="evenodd" fill-opacity="1" stroke="#000000" stroke-opacity="1" stroke-width="4.55111"></circle>
<path clip-path="url(#clip260)" d="M2130.26 1165.44 L2115.52 1165.44 Q2115.87 1172.36 2117.46 1175.3 Q2119.45 1178.91 2122.9 1178.91 Q2126.38 1178.91 2128.3 1175.28 Q2129.99 1172.08 2130.26 1165.44 M2130.2 1161.5 Q2129.55 1154.93 2128.3 1152.62 Q2126.31 1148.96 2122.9 1148.96 Q2119.36 1148.96 2117.49 1152.57 Q2116.01 1155.49 2115.57 1161.5 L2130.2 1161.5 M2122.9 1145.49 Q2128.46 1145.49 2131.63 1150.39 Q2134.8 1155.28 2134.8 1163.93 Q2134.8 1172.57 2131.63 1177.48 Q2128.46 1182.41 2122.9 1182.41 Q2117.33 1182.41 2114.18 1177.48 Q2111.01 1172.57 2111.01 1163.93 Q2111.01 1155.28 2114.18 1150.39 Q2117.33 1145.49 2122.9 1145.49 Z" fill="#000000" fill-rule="nonzero" fill-opacity="1"></path><path clip-path="url(#clip260)" d="M2146.72 1151.16 L2146.72 1178.03 L2152.37 1178.03 Q2159.52 1178.03 2162.83 1174.79 Q2166.17 1171.55 2166.17 1164.56 Q2166.17 1157.62 2162.83 1154.4 Q2159.52 1151.16 2152.37 1151.16 L2146.72 1151.16 M2142.05 1147.31 L2151.65 1147.31 Q2161.7 1147.31 2166.4 1151.5 Q2171.1 1155.67 2171.1 1164.56 Q2171.1 1173.49 2166.38 1177.68 Q2161.65 1181.87 2151.65 1181.87 L2142.05 1181.87 L2142.05 1147.31 Z" fill="#000000" fill-rule="nonzero" fill-opacity="1"></path><path clip-path="url(#clip260)" d="M2190.15 1168.84 Q2184.99 1168.84 2183 1170.02 Q2181.01 1171.2 2181.01 1174.05 Q2181.01 1176.32 2182.49 1177.66 Q2183.99 1178.98 2186.56 1178.98 Q2190.1 1178.98 2192.23 1176.48 Q2194.38 1173.96 2194.38 1169.79 L2194.38 1168.84 L2190.15 1168.84 M2198.64 1167.08 L2198.64 1181.87 L2194.38 1181.87 L2194.38 1177.94 Q2192.93 1180.3 2190.75 1181.43 Q2188.57 1182.55 2185.43 1182.55 Q2181.45 1182.55 2179.08 1180.32 Q2176.75 1178.08 2176.75 1174.33 Q2176.75 1169.95 2179.66 1167.73 Q2182.6 1165.51 2188.41 1165.51 L2194.38 1165.51 L2194.38 1165.09 Q2194.38 1162.15 2192.44 1160.56 Q2190.52 1158.93 2187.02 1158.93 Q2184.8 1158.93 2182.7 1159.47 Q2180.59 1160 2178.64 1161.06 L2178.64 1157.13 Q2180.98 1156.23 2183.18 1155.79 Q2185.38 1155.32 2187.46 1155.32 Q2193.09 1155.32 2195.87 1158.24 Q2198.64 1161.16 2198.64 1167.08 Z" fill="#000000" fill-rule="nonzero" fill-opacity="1"></path><path clip-path="url(#clip260)" d="M2211.63 1148.59 L2211.63 1155.95 L2220.4 1155.95 L2220.4 1159.26 L2211.63 1159.26 L2211.63 1173.33 Q2211.63 1176.5 2212.49 1177.41 Q2213.37 1178.31 2216.03 1178.31 L2220.4 1178.31 L2220.4 1181.87 L2216.03 1181.87 Q2211.1 1181.87 2209.22 1180.05 Q2207.35 1178.19 2207.35 1173.33 L2207.35 1159.26 L2204.22 1159.26 L2204.22 1155.95 L2207.35 1155.95 L2207.35 1148.59 L2211.63 1148.59 Z" fill="#000000" fill-rule="nonzero" fill-opacity="1"></path><path clip-path="url(#clip260)" d="M2237.79 1168.84 Q2232.63 1168.84 2230.63 1170.02 Q2228.64 1171.2 2228.64 1174.05 Q2228.64 1176.32 2230.13 1177.66 Q2231.63 1178.98 2234.2 1178.98 Q2237.74 1178.98 2239.87 1176.48 Q2242.02 1173.96 2242.02 1169.79 L2242.02 1168.84 L2237.79 1168.84 M2246.28 1167.08 L2246.28 1181.87 L2242.02 1181.87 L2242.02 1177.94 Q2240.57 1180.3 2238.39 1181.43 Q2236.21 1182.55 2233.07 1182.55 Q2229.08 1182.55 2226.72 1180.32 Q2224.38 1178.08 2224.38 1174.33 Q2224.38 1169.95 2227.3 1167.73 Q2230.24 1165.51 2236.05 1165.51 L2242.02 1165.51 L2242.02 1165.09 Q2242.02 1162.15 2240.08 1160.56 Q2238.16 1158.93 2234.66 1158.93 Q2232.44 1158.93 2230.33 1159.47 Q2228.23 1160 2226.28 1161.06 L2226.28 1157.13 Q2228.62 1156.23 2230.82 1155.79 Q2233.02 1155.32 2235.1 1155.32 Q2240.73 1155.32 2243.5 1158.24 Q2246.28 1161.16 2246.28 1167.08 Z" fill="#000000" fill-rule="nonzero" fill-opacity="1"></path><circle clip-path="url(#clip260)" cx="2014.72" cy="1216.43" r="20.48" fill="#ffff00" fill-rule="evenodd" fill-opacity="1" stroke="#000000" stroke-opacity="1" stroke-width="4.55111"></circle>
<path clip-path="url(#clip260)" d="M2120.61 1234.39 Q2111.01 1234.39 2111.01 1220.64 Q2111.01 1215.2 2114.59 1207.79 L2119.18 1207.79 Q2115.87 1215.2 2115.87 1220.75 Q2115.87 1230.77 2121.01 1230.77 Q2125.7 1230.77 2125.7 1218.32 L2129.64 1218.32 Q2129.64 1230.77 2134.34 1230.77 Q2139.48 1230.77 2139.48 1220.75 Q2139.48 1215.2 2136.17 1207.79 L2140.75 1207.79 Q2144.34 1215.2 2144.34 1220.64 Q2144.34 1234.39 2134.73 1234.39 Q2128.44 1234.39 2127.67 1227.46 Q2126.72 1234.39 2120.61 1234.39 Z" fill="#000000" fill-rule="nonzero" fill-opacity="1"></path><path clip-path="url(#clip260)" d="M2156.91 1203 L2156.91 1229.87 L2162.56 1229.87 Q2169.71 1229.87 2173.02 1226.63 Q2176.35 1223.39 2176.35 1216.4 Q2176.35 1209.46 2173.02 1206.24 Q2169.71 1203 2162.56 1203 L2156.91 1203 M2152.23 1199.15 L2161.84 1199.15 Q2171.88 1199.15 2176.58 1203.34 Q2181.28 1207.51 2181.28 1216.4 Q2181.28 1225.33 2176.56 1229.52 Q2171.84 1233.71 2161.84 1233.71 L2152.23 1233.71 L2152.23 1199.15 Z" fill="#000000" fill-rule="nonzero" fill-opacity="1"></path><path clip-path="url(#clip260)" d="M2200.33 1220.68 Q2195.17 1220.68 2193.18 1221.86 Q2191.19 1223.04 2191.19 1225.89 Q2191.19 1228.16 2192.67 1229.5 Q2194.18 1230.82 2196.75 1230.82 Q2200.29 1230.82 2202.42 1228.32 Q2204.57 1225.8 2204.57 1221.63 L2204.57 1220.68 L2200.33 1220.68 M2208.83 1218.92 L2208.83 1233.71 L2204.57 1233.71 L2204.57 1229.78 Q2203.11 1232.14 2200.94 1233.27 Q2198.76 1234.39 2195.61 1234.39 Q2191.63 1234.39 2189.27 1232.16 Q2186.93 1229.92 2186.93 1226.17 Q2186.93 1221.79 2189.85 1219.57 Q2192.79 1217.35 2198.6 1217.35 L2204.57 1217.35 L2204.57 1216.93 Q2204.57 1213.99 2202.63 1212.4 Q2200.7 1210.77 2197.21 1210.77 Q2194.99 1210.77 2192.88 1211.31 Q2190.77 1211.84 2188.83 1212.9 L2188.83 1208.97 Q2191.17 1208.07 2193.37 1207.63 Q2195.57 1207.16 2197.65 1207.16 Q2203.27 1207.16 2206.05 1210.08 Q2208.83 1213 2208.83 1218.92 Z" fill="#000000" fill-rule="nonzero" fill-opacity="1"></path><path clip-path="url(#clip260)" d="M2221.82 1200.43 L2221.82 1207.79 L2230.59 1207.79 L2230.59 1211.1 L2221.82 1211.1 L2221.82 1225.17 Q2221.82 1228.34 2222.67 1229.25 Q2223.55 1230.15 2226.21 1230.15 L2230.59 1230.15 L2230.59 1233.71 L2226.21 1233.71 Q2221.28 1233.71 2219.41 1231.89 Q2217.53 1230.03 2217.53 1225.17 L2217.53 1211.1 L2214.41 1211.1 L2214.41 1207.79 L2217.53 1207.79 L2217.53 1200.43 L2221.82 1200.43 Z" fill="#000000" fill-rule="nonzero" fill-opacity="1"></path><path clip-path="url(#clip260)" d="M2247.97 1220.68 Q2242.81 1220.68 2240.82 1221.86 Q2238.83 1223.04 2238.83 1225.89 Q2238.83 1228.16 2240.31 1229.5 Q2241.82 1230.82 2244.38 1230.82 Q2247.93 1230.82 2250.06 1228.32 Q2252.21 1225.8 2252.21 1221.63 L2252.21 1220.68 L2247.97 1220.68 M2256.47 1218.92 L2256.47 1233.71 L2252.21 1233.71 L2252.21 1229.78 Q2250.75 1232.14 2248.57 1233.27 Q2246.4 1234.39 2243.25 1234.39 Q2239.27 1234.39 2236.91 1232.16 Q2234.57 1229.92 2234.57 1226.17 Q2234.57 1221.79 2237.49 1219.57 Q2240.43 1217.35 2246.24 1217.35 L2252.21 1217.35 L2252.21 1216.93 Q2252.21 1213.99 2250.26 1212.4 Q2248.34 1210.77 2244.85 1210.77 Q2242.63 1210.77 2240.52 1211.31 Q2238.41 1211.84 2236.47 1212.9 L2236.47 1208.97 Q2238.81 1208.07 2241 1207.63 Q2243.2 1207.16 2245.29 1207.16 Q2250.91 1207.16 2253.69 1210.08 Q2256.47 1213 2256.47 1218.92 Z" fill="#000000" fill-rule="nonzero" fill-opacity="1"></path></svg>